<?xml version="1.0" encoding="utf-8" standalone="no"?>
<!DOCTYPE svg PUBLIC "-//W3C//DTD SVG 1.1//EN"
  "http://www.w3.org/Graphics/SVG/1.1/DTD/svg11.dtd">
<svg xmlns:xlink="http://www.w3.org/1999/xlink" width="972.883125pt" height="1127.765625pt" viewBox="0 0 972.883125 1127.765625" xmlns="http://www.w3.org/2000/svg" version="1.1">
 <metadata>
  <rdf:RDF xmlns:dc="http://purl.org/dc/elements/1.1/" xmlns:cc="http://creativecommons.org/ns#" xmlns:rdf="http://www.w3.org/1999/02/22-rdf-syntax-ns#">
   <cc:Work>
    <dc:type rdf:resource="http://purl.org/dc/dcmitype/StillImage"/>
    <dc:date>2023-01-18T16:13:00.247622</dc:date>
    <dc:format>image/svg+xml</dc:format>
    <dc:creator>
     <cc:Agent>
      <dc:title>Matplotlib v3.6.0, https://matplotlib.org/</dc:title>
     </cc:Agent>
    </dc:creator>
   </cc:Work>
  </rdf:RDF>
 </metadata>
 <defs>
  <style type="text/css">*{stroke-linejoin: round; stroke-linecap: butt}</style>
 </defs>
 <g id="figure_1">
  <g id="patch_1">
   <path d="M 0 1127.765625 
L 972.883125 1127.765625 
L 972.883125 0 
L 0 0 
z
" style="fill: #ffffff"/>
  </g>
  <g id="axes_1">
   <g id="patch_2">
    <path d="M 103.663125 854.806875 
L 940.663125 854.806875 
L 940.663125 39.406875 
L 103.663125 39.406875 
z
" style="fill: #ffffff"/>
   </g>
   <g id="matplotlib.axis_1">
    <g id="xtick_1">
     <g id="text_1">
      <text style="fill: #262626; font: 36px 'sans-serif'; text-anchor: middle" x="103.663125" y="890.075" transform="rotate(-0 103.663125 890.075)">0.0</text>
     </g>
    </g>
    <g id="xtick_2">
     <g id="text_2">
      <text style="fill: #262626; font: 36px 'sans-serif'; text-anchor: middle" x="271.063125" y="890.075" transform="rotate(-0 271.063125 890.075)">0.2</text>
     </g>
    </g>
    <g id="xtick_3">
     <g id="text_3">
      <text style="fill: #262626; font: 36px 'sans-serif'; text-anchor: middle" x="438.463125" y="890.075" transform="rotate(-0 438.463125 890.075)">0.4</text>
     </g>
    </g>
    <g id="xtick_4">
     <g id="text_4">
      <text style="fill: #262626; font: 36px 'sans-serif'; text-anchor: middle" x="605.863125" y="890.075" transform="rotate(-0 605.863125 890.075)">0.6</text>
     </g>
    </g>
    <g id="xtick_5">
     <g id="text_5">
      <text style="fill: #262626; font: 36px 'sans-serif'; text-anchor: middle" x="773.263125" y="890.075" transform="rotate(-0 773.263125 890.075)">0.8</text>
     </g>
    </g>
    <g id="xtick_6">
     <g id="text_6">
      <text style="fill: #262626; font: 36px 'sans-serif'; text-anchor: middle" x="940.663125" y="890.075" transform="rotate(-0 940.663125 890.075)">1.0</text>
     </g>
    </g>
    <g id="text_7">
     <text style="fill: #262626; font: 36px 'sans-serif'; text-anchor: middle" x="522.163125" y="926.998125" transform="rotate(-0 522.163125 926.998125)">False Positive Rate</text>
    </g>
   </g>
   <g id="matplotlib.axis_2">
    <g id="ytick_1">
     <g id="text_8">
      <text style="fill: #262626; font: 36px 'sans-serif'; text-anchor: end" x="94.163125" y="867.690938" transform="rotate(-0 94.163125 867.690938)">0.0</text>
     </g>
    </g>
    <g id="ytick_2">
     <g id="text_9">
      <text style="fill: #262626; font: 36px 'sans-serif'; text-anchor: end" x="94.163125" y="704.610937" transform="rotate(-0 94.163125 704.610937)">0.2</text>
     </g>
    </g>
    <g id="ytick_3">
     <g id="text_10">
      <text style="fill: #262626; font: 36px 'sans-serif'; text-anchor: end" x="94.163125" y="541.530937" transform="rotate(-0 94.163125 541.530937)">0.4</text>
     </g>
    </g>
    <g id="ytick_4">
     <g id="text_11">
      <text style="fill: #262626; font: 36px 'sans-serif'; text-anchor: end" x="94.163125" y="378.450937" transform="rotate(-0 94.163125 378.450937)">0.6</text>
     </g>
    </g>
    <g id="ytick_5">
     <g id="text_12">
      <text style="fill: #262626; font: 36px 'sans-serif'; text-anchor: end" x="94.163125" y="215.370937" transform="rotate(-0 94.163125 215.370937)">0.8</text>
     </g>
    </g>
    <g id="ytick_6">
     <g id="text_13">
      <text style="fill: #262626; font: 36px 'sans-serif'; text-anchor: end" x="94.163125" y="52.290937" transform="rotate(-0 94.163125 52.290937)">1.0</text>
     </g>
    </g>
    <g id="text_14">
     <text style="fill: #262626; font: 36px 'sans-serif'; text-anchor: middle" x="32.968125" y="447.106875" transform="rotate(-90 32.968125 447.106875)">True Positive Rate</text>
    </g>
   </g>
   <g id="line2d_1">
    <path d="M 103.663125 854.806875 
L 103.663125 836.872857 
L 104.612105 836.872857 
L 104.612105 821.330042 
L 105.561084 821.330042 
L 105.561084 795.026816 
L 106.510064 795.026816 
L 106.510064 756.767579 
L 107.459043 756.767579 
L 107.459043 720.899544 
L 108.408023 720.899544 
L 108.408023 689.813913 
L 109.357003 689.813913 
L 109.357003 667.097491 
L 110.305982 667.097491 
L 110.305982 652.750277 
L 111.254962 652.750277 
L 111.254962 634.816259 
L 112.203941 634.816259 
L 112.203941 628.838253 
L 113.152921 628.838253 
L 113.152921 626.447051 
L 114.101901 626.447051 
L 114.101901 624.055849 
L 115.05088 624.055849 
L 115.05088 618.077843 
L 115.99986 618.077843 
L 115.99986 582.209808 
L 116.948839 582.209808 
L 116.948839 577.427403 
L 117.897819 577.427403 
L 117.897819 541.559368 
L 118.846798 541.559368 
L 118.846798 518.842945 
L 119.795778 518.842945 
L 119.795778 510.473737 
L 123.591696 510.473737 
L 123.591696 499.713327 
L 124.540676 499.713327 
L 124.540676 463.845291 
L 125.489656 463.845291 
L 125.489656 456.671684 
L 126.438635 456.671684 
L 126.438635 450.693679 
L 129.285574 450.693679 
L 129.285574 432.759661 
L 131.183533 432.759661 
L 131.183533 426.781655 
L 133.081492 426.781655 
L 133.081492 408.847637 
L 134.030472 408.847637 
L 134.030472 407.652036 
L 134.979452 407.652036 
L 134.979452 405.260834 
L 135.928431 405.260834 
L 135.928431 404.065233 
L 136.877411 404.065233 
L 136.877411 399.282828 
L 137.82639 399.282828 
L 137.82639 389.718019 
L 139.724349 389.718019 
L 139.724349 383.740013 
L 141.622309 383.740013 
L 141.622309 380.153209 
L 142.571288 380.153209 
L 142.571288 377.762007 
L 143.520268 377.762007 
L 143.520268 375.370805 
L 144.469247 375.370805 
L 144.469247 372.979602 
L 146.367207 372.979602 
L 146.367207 371.784001 
L 147.316186 371.784001 
L 147.316186 367.001596 
L 148.265166 367.001596 
L 148.265166 365.805995 
L 149.214145 365.805995 
L 149.214145 363.414793 
L 150.163125 363.414793 
L 150.163125 362.219192 
L 151.112105 362.219192 
L 151.112105 361.023591 
L 152.061084 361.023591 
L 152.061084 359.827989 
L 153.010064 359.827989 
L 153.010064 356.241186 
L 153.959043 356.241186 
L 153.959043 355.045585 
L 155.857003 355.045585 
L 155.857003 352.654382 
L 156.805982 352.654382 
L 156.805982 340.698371 
L 157.754962 340.698371 
L 157.754962 337.111567 
L 158.703941 337.111567 
L 158.703941 335.915966 
L 159.652921 335.915966 
L 159.652921 331.133561 
L 160.601901 331.133561 
L 160.601901 325.155555 
L 161.55088 325.155555 
L 161.55088 323.959954 
L 163.448839 323.959954 
L 163.448839 321.568752 
L 165.346798 321.568752 
L 165.346798 320.373151 
L 166.295778 320.373151 
L 166.295778 319.177549 
L 168.193737 319.177549 
L 168.193737 308.417139 
L 169.142717 308.417139 
L 169.142717 307.221538 
L 170.091696 307.221538 
L 170.091696 306.025937 
L 171.040676 306.025937 
L 171.040676 304.830335 
L 175.785574 304.830335 
L 175.785574 301.243532 
L 176.734554 301.243532 
L 176.734554 300.047931 
L 179.581492 300.047931 
L 179.581492 298.85233 
L 180.530472 298.85233 
L 180.530472 296.461127 
L 181.479452 296.461127 
L 181.479452 295.265526 
L 182.428431 295.265526 
L 182.428431 294.069925 
L 186.224349 294.069925 
L 186.224349 291.678723 
L 188.122309 291.678723 
L 188.122309 290.483121 
L 189.071288 290.483121 
L 189.071288 289.28752 
L 190.020268 289.28752 
L 190.020268 288.091919 
L 190.969247 288.091919 
L 190.969247 285.700717 
L 192.867207 285.700717 
L 192.867207 283.309514 
L 193.816186 283.309514 
L 193.816186 280.918312 
L 195.714145 280.918312 
L 195.714145 277.331508 
L 196.663125 277.331508 
L 196.663125 276.135907 
L 197.612105 276.135907 
L 197.612105 271.353503 
L 200.459043 271.353503 
L 200.459043 270.157901 
L 201.408023 270.157901 
L 201.408023 261.788693 
L 202.357003 261.788693 
L 202.357003 260.593092 
L 203.305982 260.593092 
L 203.305982 239.072271 
L 205.203941 239.072271 
L 205.203941 236.681069 
L 206.152921 236.681069 
L 206.152921 234.289866 
L 217.540676 234.289866 
L 217.540676 233.094265 
L 218.489656 233.094265 
L 218.489656 230.703063 
L 219.438635 230.703063 
L 219.438635 229.507462 
L 220.387615 229.507462 
L 220.387615 228.31186 
L 223.234554 228.31186 
L 223.234554 227.116259 
L 226.081492 227.116259 
L 226.081492 224.725057 
L 227.030472 224.725057 
L 227.030472 223.529456 
L 232.724349 223.529456 
L 232.724349 222.333854 
L 233.673329 222.333854 
L 233.673329 219.942652 
L 234.622309 219.942652 
L 234.622309 218.747051 
L 238.418227 218.747051 
L 238.418227 217.55145 
L 242.214145 217.55145 
L 242.214145 216.355849 
L 243.163125 216.355849 
L 243.163125 212.769045 
L 244.112105 212.769045 
L 244.112105 211.573444 
L 245.061084 211.573444 
L 245.061084 210.377843 
L 248.857003 210.377843 
L 248.857003 207.98664 
L 250.754962 207.98664 
L 250.754962 205.595438 
L 252.652921 205.595438 
L 252.652921 203.204236 
L 254.55088 203.204236 
L 254.55088 200.813033 
L 255.49986 200.813033 
L 255.49986 194.835027 
L 256.448839 194.835027 
L 256.448839 193.639426 
L 258.346798 193.639426 
L 258.346798 192.443825 
L 260.244758 192.443825 
L 260.244758 187.66142 
L 261.193737 187.66142 
L 261.193737 185.270218 
L 262.142717 185.270218 
L 262.142717 184.074617 
L 264.989656 184.074617 
L 270.683533 180.487813 
L 270.683533 176.90101 
L 273.530472 176.90101 
L 273.530472 175.705409 
L 276.377411 175.705409 
L 276.377411 170.923004 
L 282.071288 170.923004 
L 282.071288 168.531802 
L 283.020268 168.531802 
L 283.020268 167.336201 
L 283.969247 167.336201 
L 283.969247 164.944998 
L 284.918227 164.944998 
L 284.918227 162.553796 
L 289.663125 162.553796 
L 289.663125 156.57579 
L 290.612105 156.57579 
L 290.612105 155.380189 
L 293.459043 155.380189 
L 293.459043 154.184588 
L 297.254962 154.184588 
L 297.254962 152.988986 
L 299.152921 152.988986 
L 299.152921 148.206582 
L 300.101901 148.206582 
L 300.101901 147.010981 
L 301.99986 147.010981 
L 301.99986 145.815379 
L 305.795778 145.815379 
L 305.795778 144.619778 
L 310.540676 144.619778 
L 310.540676 143.424177 
L 311.489656 143.424177 
L 311.489656 142.228576 
L 312.438635 142.228576 
L 312.438635 138.641772 
L 314.336594 138.641772 
L 314.336594 137.446171 
L 315.285574 137.446171 
L 315.285574 133.859368 
L 317.183533 133.859368 
L 317.183533 132.663766 
L 318.132513 132.663766 
L 318.132513 131.468165 
L 326.673329 131.468165 
L 326.673329 130.272564 
L 327.622309 130.272564 
L 327.622309 129.076963 
L 328.571288 129.076963 
L 328.571288 127.881362 
L 329.520268 127.881362 
L 329.520268 126.685761 
L 331.418227 126.685761 
L 331.418227 125.490159 
L 332.367207 125.490159 
L 332.367207 123.098957 
L 333.316186 123.098957 
L 333.316186 121.903356 
L 336.163125 121.903356 
L 336.163125 120.707755 
L 339.010064 120.707755 
L 339.010064 118.316552 
L 342.805982 118.316552 
L 342.805982 117.120951 
L 353.244758 117.120951 
L 353.244758 114.729749 
L 354.193737 114.729749 
L 354.193737 113.534148 
L 355.142717 113.534148 
L 355.142717 112.338547 
L 357.989656 112.338547 
L 357.989656 111.142945 
L 360.836594 111.142945 
L 360.836594 109.947344 
L 365.581492 109.947344 
L 365.581492 108.751743 
L 368.428431 108.751743 
L 368.428431 107.556142 
L 370.32639 107.556142 
L 370.32639 106.360541 
L 372.224349 106.360541 
L 372.224349 105.16494 
L 374.122309 105.16494 
L 374.122309 103.969338 
L 375.071288 103.969338 
L 375.071288 102.773737 
L 381.714145 102.773737 
L 381.714145 101.578136 
L 394.05088 101.578136 
L 394.05088 100.382535 
L 394.99986 100.382535 
L 394.99986 99.186934 
L 396.897819 99.186934 
L 396.897819 97.991332 
L 399.744758 97.991332 
L 399.744758 96.795731 
L 401.642717 96.795731 
L 401.642717 95.60013 
L 403.540676 95.60013 
L 403.540676 94.404529 
L 404.489656 94.404529 
L 404.489656 93.208928 
L 408.285574 93.208928 
L 408.285574 90.817725 
L 416.82639 90.817725 
L 416.82639 88.426523 
L 419.673329 88.426523 
L 419.673329 87.230922 
L 428.214145 87.230922 
L 428.214145 86.035321 
L 432.010064 86.035321 
L 432.010064 84.83972 
L 433.908023 84.83972 
L 433.908023 83.644118 
L 434.857003 83.644118 
L 434.857003 82.448517 
L 451.938635 82.448517 
L 451.938635 80.057315 
L 453.836594 80.057315 
L 453.836594 78.861714 
L 456.683533 78.861714 
L 456.683533 76.470511 
L 459.530472 76.470511 
L 459.530472 75.27491 
L 462.377411 75.27491 
L 462.377411 74.079309 
L 471.867207 74.079309 
L 471.867207 70.492505 
L 479.459043 70.492505 
L 479.459043 69.296904 
L 501.285574 69.296904 
L 501.285574 66.905702 
L 503.183533 66.905702 
L 503.183533 64.5145 
L 506.979452 64.5145 
L 506.979452 63.318898 
L 523.112105 63.318898 
L 523.112105 62.123297 
L 525.959043 62.123297 
L 525.959043 60.927696 
L 537.346798 60.927696 
L 537.346798 59.732095 
L 539.244758 59.732095 
L 539.244758 58.536494 
L 552.530472 58.536494 
L 552.530472 57.340893 
L 553.479452 57.340893 
L 553.479452 56.145291 
L 554.428431 56.145291 
L 554.428431 54.94969 
L 561.071288 54.94969 
L 561.071288 52.558488 
L 562.020268 52.558488 
L 562.020268 51.362887 
L 562.969247 51.362887 
L 562.969247 50.167286 
L 566.765166 50.167286 
L 566.765166 48.971684 
L 648.377411 48.971684 
L 648.377411 47.776083 
L 712.908023 47.776083 
L 712.908023 46.580482 
L 724.295778 46.580482 
L 724.295778 45.384881 
L 733.785574 45.384881 
L 733.785574 44.18928 
L 785.979452 44.18928 
L 785.979452 42.993679 
L 856.203941 42.993679 
L 856.203941 41.798077 
L 897.010064 41.798077 
L 897.010064 40.602476 
L 923.581492 40.602476 
L 923.581492 39.406875 
L 940.663125 39.406875 
L 940.663125 39.406875 
" clip-path="url(#pcb2cab1a8a)" style="fill: none; stroke: #440154; stroke-width: 7; stroke-linecap: round"/>
   </g>
   <g id="line2d_2">
    <path d="M 103.663125 854.806875 
L 105.561084 725.681948 
L 107.459043 637.207462 
L 108.408023 575.036201 
L 109.357003 530.798957 
L 109.357003 505.691332 
L 111.254962 463.845291 
L 111.254962 426.781655 
L 111.254962 398.087227 
L 111.254962 375.370805 
L 112.203941 361.023591 
L 114.101901 347.871978 
L 114.101901 334.720365 
L 114.101901 322.764353 
L 115.05088 314.395145 
L 115.05088 306.025937 
L 116.948839 289.28752 
L 117.897819 285.700717 
L 117.897819 279.722711 
L 118.846798 267.766699 
L 118.846798 259.397491 
L 120.744758 247.441479 
L 122.642717 239.072271 
L 123.591696 231.898664 
L 124.540676 227.116259 
L 124.540676 224.725057 
L 124.540676 219.942652 
L 125.489656 216.355849 
L 126.438635 207.98664 
L 127.387615 200.813033 
L 129.285574 194.835027 
L 129.285574 187.66142 
L 131.183533 185.270218 
L 131.183533 180.487813 
L 131.183533 176.90101 
L 133.081492 169.727403 
L 133.081492 164.944998 
L 133.081492 163.749397 
L 134.030472 162.553796 
L 134.030472 156.57579 
L 134.979452 156.57579 
L 135.928431 151.793385 
L 135.928431 150.597784 
L 137.82639 147.010981 
L 138.77537 142.228576 
L 139.724349 138.641772 
L 141.622309 135.054969 
L 142.571288 133.859368 
L 144.469247 131.468165 
L 147.316186 127.881362 
L 151.112105 125.490159 
L 151.112105 124.294558 
L 153.959043 123.098957 
L 158.703941 121.903356 
L 161.55088 120.707755 
L 162.49986 118.316552 
L 166.295778 113.534148 
L 168.193737 111.142945 
L 173.887615 106.360541 
L 174.836594 105.16494 
L 177.683533 101.578136 
L 179.581492 101.578136 
L 182.428431 100.382535 
L 186.224349 99.186934 
L 191.918227 97.991332 
L 195.714145 93.208928 
L 198.561084 89.622124 
L 199.510064 87.230922 
L 207.101901 84.83972 
L 212.795778 84.83972 
L 217.540676 84.83972 
L 220.387615 83.644118 
L 225.132513 82.448517 
L 228.928431 81.252916 
L 235.571288 81.252916 
L 243.163125 81.252916 
L 247.908023 77.666113 
L 255.49986 77.666113 
L 261.193737 74.079309 
L 271.632513 71.688107 
L 277.32639 66.905702 
L 283.020268 65.710101 
L 295.357003 65.710101 
L 307.693737 62.123297 
L 318.132513 62.123297 
L 333.316186 62.123297 
L 347.55088 58.536494 
L 361.785574 56.145291 
L 377.918227 53.754089 
L 395.948839 51.362887 
L 415.877411 50.167286 
L 453.836594 50.167286 
L 476.612105 48.971684 
L 517.418227 45.384881 
L 562.020268 45.384881 
L 614.214145 42.993679 
L 673.99986 41.798077 
L 738.530472 39.406875 
L 835.32639 39.406875 
L 940.663125 39.406875 
" clip-path="url(#pcb2cab1a8a)" style="fill: none; stroke: #fde725; stroke-width: 7; stroke-linecap: round"/>
   </g>
   <g id="PathCollection_1">
    <defs>
     <path id="mdc78db26bc" d="M 0 11.18034 
C 2.965061 11.18034 5.80908 10.002309 7.905694 7.905694 
C 10.002309 5.80908 11.18034 2.965061 11.18034 0 
C 11.18034 -2.965061 10.002309 -5.80908 7.905694 -7.905694 
C 5.80908 -10.002309 2.965061 -11.18034 0 -11.18034 
C -2.965061 -11.18034 -5.80908 -10.002309 -7.905694 -7.905694 
C -10.002309 -5.80908 -11.18034 -2.965061 -11.18034 0 
C -11.18034 2.965061 -10.002309 5.80908 -7.905694 7.905694 
C -5.80908 10.002309 -2.965061 11.18034 0 11.18034 
z
" style="stroke: #1a1a1a"/>
    </defs>
    <g clip-path="url(#pcb2cab1a8a)">
     <use xlink:href="#mdc78db26bc" x="151.112105" y="125.490159" style="fill: #1a1a1a; stroke: #1a1a1a"/>
    </g>
   </g>
   <g id="line2d_3">
    <path d="M 103.663125 854.806875 
L 103.663125 848.828869 
L 104.612105 848.828869 
L 104.612105 845.242066 
L 105.561084 845.242066 
L 105.561084 842.850863 
L 106.510064 842.850863 
L 106.510064 840.459661 
L 107.459043 840.459661 
L 107.459043 784.266406 
L 108.408023 784.266406 
L 108.408023 759.158781 
L 109.357003 759.158781 
L 109.357003 713.725937 
L 110.305982 713.725937 
L 110.305982 698.183121 
L 111.254962 698.183121 
L 111.254962 693.400717 
L 112.203941 693.400717 
L 112.203941 643.185467 
L 113.152921 643.185467 
L 113.152921 640.794265 
L 114.101901 640.794265 
L 114.101901 624.055849 
L 115.05088 624.055849 
L 115.05088 583.405409 
L 115.99986 583.405409 
L 115.99986 542.754969 
L 116.948839 542.754969 
L 116.948839 518.842945 
L 117.897819 518.842945 
L 117.897819 484.170511 
L 118.846798 484.170511 
L 118.846798 478.192505 
L 119.795778 478.192505 
L 119.795778 475.801303 
L 120.744758 475.801303 
L 120.744758 460.258488 
L 122.642717 460.258488 
L 122.642717 443.520071 
L 123.591696 443.520071 
L 123.591696 438.737667 
L 124.540676 438.737667 
L 124.540676 407.652036 
L 125.489656 407.652036 
L 125.489656 406.456435 
L 126.438635 406.456435 
L 126.438635 405.260834 
L 127.387615 405.260834 
L 127.387615 402.869632 
L 128.336594 402.869632 
L 128.336594 396.891626 
L 129.285574 396.891626 
L 129.285574 376.566406 
L 130.234554 376.566406 
L 130.234554 375.370805 
L 131.183533 375.370805 
L 131.183533 364.610394 
L 132.132513 364.610394 
L 132.132513 359.827989 
L 133.081492 359.827989 
L 133.081492 356.241186 
L 134.030472 356.241186 
L 134.030472 351.458781 
L 134.979452 351.458781 
L 134.979452 350.26318 
L 135.928431 350.26318 
L 135.928431 347.871978 
L 136.877411 347.871978 
L 136.877411 346.676376 
L 137.82639 346.676376 
L 137.82639 344.285174 
L 138.77537 344.285174 
L 138.77537 341.893972 
L 139.724349 341.893972 
L 139.724349 331.133561 
L 143.520268 331.133561 
L 143.520268 313.199544 
L 144.469247 313.199544 
L 144.469247 308.417139 
L 145.418227 308.417139 
L 145.418227 302.439133 
L 146.367207 302.439133 
L 146.367207 295.265526 
L 148.265166 295.265526 
L 148.265166 294.069925 
L 149.214145 294.069925 
L 149.214145 291.678723 
L 151.112105 291.678723 
L 151.112105 286.896318 
L 152.061084 286.896318 
L 152.061084 285.700717 
L 153.010064 285.700717 
L 153.010064 283.309514 
L 153.959043 283.309514 
L 153.959043 278.52711 
L 154.908023 278.52711 
L 154.908023 277.331508 
L 155.857003 277.331508 
L 155.857003 276.135907 
L 157.754962 276.135907 
L 157.754962 272.549104 
L 160.601901 272.549104 
L 160.601901 268.9623 
L 161.55088 268.9623 
L 161.55088 265.375497 
L 162.49986 265.375497 
L 162.49986 262.984294 
L 166.295778 262.984294 
L 166.295778 258.20189 
L 167.244758 258.20189 
L 167.244758 246.245878 
L 168.193737 246.245878 
L 168.193737 245.050277 
L 169.142717 245.050277 
L 169.142717 241.463473 
L 171.040676 241.463473 
L 171.040676 240.267872 
L 171.989656 240.267872 
L 171.989656 237.87667 
L 172.938635 237.87667 
L 172.938635 236.681069 
L 174.836594 236.681069 
L 174.836594 230.703063 
L 175.785574 230.703063 
L 175.785574 223.529456 
L 177.683533 223.529456 
L 177.683533 221.138253 
L 178.632513 221.138253 
L 178.632513 218.747051 
L 182.428431 218.747051 
L 182.428431 213.964646 
L 189.071288 213.964646 
L 189.071288 212.769045 
L 190.020268 212.769045 
L 190.020268 210.377843 
L 190.969247 210.377843 
L 190.969247 209.182242 
L 191.918227 209.182242 
L 191.918227 206.791039 
L 192.867207 206.791039 
L 192.867207 205.595438 
L 196.663125 205.595438 
L 196.663125 202.008635 
L 202.357003 202.008635 
L 202.357003 200.813033 
L 203.305982 200.813033 
L 203.305982 197.22623 
L 204.254962 197.22623 
L 204.254962 194.835027 
L 205.203941 194.835027 
L 205.203941 191.248224 
L 206.152921 191.248224 
L 206.152921 188.857022 
L 207.101901 188.857022 
L 207.101901 187.66142 
L 208.99986 187.66142 
L 208.99986 186.465819 
L 209.948839 186.465819 
L 209.948839 185.270218 
L 212.795778 185.270218 
L 212.795778 184.074617 
L 217.540676 184.074617 
L 217.540676 173.314206 
L 220.387615 173.314206 
L 220.387615 169.727403 
L 224.183533 169.727403 
L 224.183533 168.531802 
L 227.030472 168.531802 
L 227.030472 167.336201 
L 227.979452 167.336201 
L 227.979452 164.944998 
L 228.928431 164.944998 
L 228.928431 163.749397 
L 230.82639 163.749397 
L 230.82639 162.553796 
L 233.673329 162.553796 
L 233.673329 158.966992 
L 234.622309 158.966992 
L 234.622309 157.771391 
L 236.520268 157.771391 
L 236.520268 156.57579 
L 241.265166 156.57579 
L 241.265166 155.380189 
L 242.214145 155.380189 
L 242.214145 154.184588 
L 246.010064 154.184588 
L 246.010064 152.988986 
L 246.959043 152.988986 
L 246.959043 151.793385 
L 248.857003 151.793385 
L 248.857003 149.402183 
L 252.652921 149.402183 
L 252.652921 144.619778 
L 258.346798 144.619778 
L 258.346798 142.228576 
L 259.295778 142.228576 
L 259.295778 139.837374 
L 260.244758 139.837374 
L 260.244758 138.641772 
L 262.142717 138.641772 
L 262.142717 137.446171 
L 264.040676 137.446171 
L 264.040676 136.25057 
L 265.938635 136.25057 
L 265.938635 135.054969 
L 268.785574 135.054969 
L 268.785574 133.859368 
L 270.683533 133.859368 
L 270.683533 131.468165 
L 278.27537 131.468165 
L 278.27537 130.272564 
L 279.224349 130.272564 
L 279.224349 129.076963 
L 283.020268 129.076963 
L 283.020268 127.881362 
L 284.918227 127.881362 
L 284.918227 125.490159 
L 290.612105 125.490159 
L 290.612105 124.294558 
L 298.203941 124.294558 
L 298.203941 121.903356 
L 299.152921 121.903356 
L 299.152921 120.707755 
L 300.101901 120.707755 
L 300.101901 119.512154 
L 301.05088 119.512154 
L 301.05088 118.316552 
L 301.99986 118.316552 
L 301.99986 114.729749 
L 306.744758 114.729749 
L 306.744758 113.534148 
L 312.438635 113.534148 
L 312.438635 112.338547 
L 314.336594 112.338547 
L 314.336594 111.142945 
L 318.132513 111.142945 
L 318.132513 109.947344 
L 319.081492 109.947344 
L 319.081492 108.751743 
L 322.877411 108.751743 
L 322.877411 107.556142 
L 324.77537 107.556142 
L 324.77537 106.360541 
L 325.724349 106.360541 
L 325.724349 105.16494 
L 328.571288 105.16494 
L 328.571288 103.969338 
L 331.418227 103.969338 
L 331.418227 102.773737 
L 336.163125 102.773737 
L 336.163125 101.578136 
L 339.959043 101.578136 
L 339.959043 100.382535 
L 341.857003 100.382535 
L 341.857003 99.186934 
L 344.703941 99.186934 
L 344.703941 97.991332 
L 345.652921 97.991332 
L 345.652921 95.60013 
L 356.091696 95.60013 
L 356.091696 94.404529 
L 357.040676 94.404529 
L 357.040676 89.622124 
L 357.989656 89.622124 
L 357.989656 88.426523 
L 358.938635 88.426523 
L 358.938635 87.230922 
L 367.479452 87.230922 
L 367.479452 86.035321 
L 368.428431 86.035321 
L 368.428431 84.83972 
L 373.173329 84.83972 
L 373.173329 83.644118 
L 380.765166 83.644118 
L 380.765166 82.448517 
L 384.561084 82.448517 
L 384.561084 81.252916 
L 386.459043 81.252916 
L 386.459043 80.057315 
L 389.305982 80.057315 
L 389.305982 78.861714 
L 392.152921 78.861714 
L 392.152921 77.666113 
L 400.693737 77.666113 
L 400.693737 75.27491 
L 416.82639 75.27491 
L 416.82639 74.079309 
L 420.622309 74.079309 
L 420.622309 72.883708 
L 430.112105 72.883708 
L 430.112105 71.688107 
L 432.010064 71.688107 
L 432.010064 70.492505 
L 437.703941 70.492505 
L 437.703941 69.296904 
L 446.244758 69.296904 
L 446.244758 68.101303 
L 449.091696 68.101303 
L 449.091696 66.905702 
L 453.836594 66.905702 
L 453.836594 65.710101 
L 460.479452 65.710101 
L 460.479452 64.5145 
L 461.428431 64.5145 
L 461.428431 63.318898 
L 462.377411 63.318898 
L 462.377411 62.123297 
L 463.32639 62.123297 
L 463.32639 60.927696 
L 468.071288 60.927696 
L 468.071288 59.732095 
L 469.020268 59.732095 
L 469.020268 58.536494 
L 470.918227 58.536494 
L 470.918227 57.340893 
L 483.254962 57.340893 
L 483.254962 56.145291 
L 538.295778 56.145291 
L 538.295778 54.94969 
L 544.938635 54.94969 
L 544.938635 53.754089 
L 557.27537 53.754089 
L 557.27537 52.558488 
L 581.948839 52.558488 
L 581.948839 51.362887 
L 598.081492 51.362887 
L 598.081492 50.167286 
L 616.112105 50.167286 
L 616.112105 48.971684 
L 627.49986 48.971684 
L 627.49986 47.776083 
L 636.989656 47.776083 
L 636.989656 46.580482 
L 653.122309 46.580482 
L 653.122309 44.18928 
L 670.203941 44.18928 
L 670.203941 42.993679 
L 769.846798 42.993679 
L 769.846798 41.798077 
L 880.877411 41.798077 
L 880.877411 40.602476 
L 936.867207 40.602476 
L 936.867207 39.406875 
L 940.663125 39.406875 
L 940.663125 39.406875 
" clip-path="url(#pcb2cab1a8a)" style="fill: none; stroke: #1f988b; stroke-width: 7; stroke-linecap: round"/>
   </g>
   <g id="PathCollection_2">
    <g clip-path="url(#pcb2cab1a8a)">
     <use xlink:href="#mdc78db26bc" x="228.928431" y="164.944998" style="fill: #1a1a1a; stroke: #1a1a1a"/>
    </g>
   </g>
   <g id="PathCollection_3">
    <g clip-path="url(#pcb2cab1a8a)">
     <use xlink:href="#mdc78db26bc" x="264.989656" y="184.074617" style="fill: #1a1a1a; stroke: #1a1a1a"/>
    </g>
   </g>
   <g id="patch_3">
    <path d="M 103.663125 854.806875 
L 103.663125 39.406875 
" style="fill: none; stroke: #262626; stroke-width: 1.25; stroke-linejoin: miter; stroke-linecap: square"/>
   </g>
   <g id="patch_4">
    <path d="M 940.663125 854.806875 
L 940.663125 39.406875 
" style="fill: none; stroke: #262626; stroke-width: 1.25; stroke-linejoin: miter; stroke-linecap: square"/>
   </g>
   <g id="patch_5">
    <path d="M 103.663125 854.806875 
L 940.663125 854.806875 
" style="fill: none; stroke: #262626; stroke-width: 1.25; stroke-linejoin: miter; stroke-linecap: square"/>
   </g>
   <g id="patch_6">
    <path d="M 103.663125 39.406875 
L 940.663125 39.406875 
" style="fill: none; stroke: #262626; stroke-width: 1.25; stroke-linejoin: miter; stroke-linecap: square"/>
   </g>
   <g id="text_15">
    <text style="fill: #262626; font: 36px 'sans-serif'; text-anchor: middle" x="522.163125" y="33.406875" transform="rotate(-0 522.163125 33.406875)">All Cells | | class_weight: None</text>
   </g>
   <g id="legend_1">
    <g id="patch_7">
     <path d="M 45.163125 1120.565625 
L 853.66125 1120.565625 
Q 860.86125 1120.565625 860.86125 1113.365625 
L 860.86125 961.546875 
Q 860.86125 954.346875 853.66125 954.346875 
L 45.163125 954.346875 
Q 37.963125 954.346875 37.963125 961.546875 
L 37.963125 1113.365625 
Q 37.963125 1120.565625 45.163125 1120.565625 
z
" style="fill: #ffffff; opacity: 0.8; stroke: #cccccc; stroke-linejoin: miter"/>
    </g>
    <g id="line2d_4">
     <path d="M 52.363125 982.37625 
L 88.363125 982.37625 
L 124.363125 982.37625 
" style="fill: none; stroke: #fde725; stroke-width: 7; stroke-linecap: round"/>
    </g>
    <g id="text_16">
     <text style="fill: #262626; font: 36px 'sans-serif'; text-anchor: start" x="153.163125" y="994.97625" transform="rotate(-0 153.163125 994.97625)">Random Forest (ROC AUC = 0.97)</text>
    </g>
    <g id="line2d_5">
     <path d="M 52.363125 1034.1825 
L 88.363125 1034.1825 
L 124.363125 1034.1825 
" style="fill: none; stroke: #1f988b; stroke-width: 7; stroke-linecap: round"/>
    </g>
    <g id="text_17">
     <text style="fill: #262626; font: 36px 'sans-serif'; text-anchor: start" x="153.163125" y="1046.7825" transform="rotate(-0 153.163125 1046.7825)">Logistic Regression (ROC AUC = 0.92)</text>
    </g>
    <g id="line2d_6">
     <path d="M 52.363125 1085.98875 
L 88.363125 1085.98875 
L 124.363125 1085.98875 
" style="fill: none; stroke: #440154; stroke-width: 7; stroke-linecap: round"/>
    </g>
    <g id="text_18">
     <text style="fill: #262626; font: 36px 'sans-serif'; text-anchor: start" x="153.163125" y="1098.58875" transform="rotate(-0 153.163125 1098.58875)">Support Vector Machine (ROC AUC = 0.90)</text>
    </g>
   </g>
  </g>
 </g>
 <defs>
  <clipPath id="pcb2cab1a8a">
   <rect x="103.663125" y="39.406875" width="837" height="815.4"/>
  </clipPath>
 </defs>
</svg>
