<?xml version="1.0" encoding="utf-8" standalone="no"?>
<!DOCTYPE svg PUBLIC "-//W3C//DTD SVG 1.1//EN"
  "http://www.w3.org/Graphics/SVG/1.1/DTD/svg11.dtd">
<svg xmlns:xlink="http://www.w3.org/1999/xlink" width="972.883125pt" height="1127.765625pt" viewBox="0 0 972.883125 1127.765625" xmlns="http://www.w3.org/2000/svg" version="1.1">
 <metadata>
  <rdf:RDF xmlns:dc="http://purl.org/dc/elements/1.1/" xmlns:cc="http://creativecommons.org/ns#" xmlns:rdf="http://www.w3.org/1999/02/22-rdf-syntax-ns#">
   <cc:Work>
    <dc:type rdf:resource="http://purl.org/dc/dcmitype/StillImage"/>
    <dc:date>2023-01-17T12:04:46.751054</dc:date>
    <dc:format>image/svg+xml</dc:format>
    <dc:creator>
     <cc:Agent>
      <dc:title>Matplotlib v3.6.0, https://matplotlib.org/</dc:title>
     </cc:Agent>
    </dc:creator>
   </cc:Work>
  </rdf:RDF>
 </metadata>
 <defs>
  <style type="text/css">*{stroke-linejoin: round; stroke-linecap: butt}</style>
 </defs>
 <g id="figure_1">
  <g id="patch_1">
   <path d="M 0 1127.765625 
L 972.883125 1127.765625 
L 972.883125 0 
L 0 0 
z
" style="fill: #ffffff"/>
  </g>
  <g id="axes_1">
   <g id="patch_2">
    <path d="M 103.663125 854.806875 
L 940.663125 854.806875 
L 940.663125 39.406875 
L 103.663125 39.406875 
z
" style="fill: #ffffff"/>
   </g>
   <g id="matplotlib.axis_1">
    <g id="xtick_1">
     <g id="text_1">
      <text style="fill: #262626; font: 36px 'sans-serif'; text-anchor: middle" x="103.663125" y="890.075" transform="rotate(-0 103.663125 890.075)">0.0</text>
     </g>
    </g>
    <g id="xtick_2">
     <g id="text_2">
      <text style="fill: #262626; font: 36px 'sans-serif'; text-anchor: middle" x="271.063125" y="890.075" transform="rotate(-0 271.063125 890.075)">0.2</text>
     </g>
    </g>
    <g id="xtick_3">
     <g id="text_3">
      <text style="fill: #262626; font: 36px 'sans-serif'; text-anchor: middle" x="438.463125" y="890.075" transform="rotate(-0 438.463125 890.075)">0.4</text>
     </g>
    </g>
    <g id="xtick_4">
     <g id="text_4">
      <text style="fill: #262626; font: 36px 'sans-serif'; text-anchor: middle" x="605.863125" y="890.075" transform="rotate(-0 605.863125 890.075)">0.6</text>
     </g>
    </g>
    <g id="xtick_5">
     <g id="text_5">
      <text style="fill: #262626; font: 36px 'sans-serif'; text-anchor: middle" x="773.263125" y="890.075" transform="rotate(-0 773.263125 890.075)">0.8</text>
     </g>
    </g>
    <g id="xtick_6">
     <g id="text_6">
      <text style="fill: #262626; font: 36px 'sans-serif'; text-anchor: middle" x="940.663125" y="890.075" transform="rotate(-0 940.663125 890.075)">1.0</text>
     </g>
    </g>
    <g id="text_7">
     <text style="fill: #262626; font: 36px 'sans-serif'; text-anchor: middle" x="522.163125" y="926.998125" transform="rotate(-0 522.163125 926.998125)">False Positive Rate</text>
    </g>
   </g>
   <g id="matplotlib.axis_2">
    <g id="ytick_1">
     <g id="text_8">
      <text style="fill: #262626; font: 36px 'sans-serif'; text-anchor: end" x="94.163125" y="867.690938" transform="rotate(-0 94.163125 867.690938)">0.0</text>
     </g>
    </g>
    <g id="ytick_2">
     <g id="text_9">
      <text style="fill: #262626; font: 36px 'sans-serif'; text-anchor: end" x="94.163125" y="704.610937" transform="rotate(-0 94.163125 704.610937)">0.2</text>
     </g>
    </g>
    <g id="ytick_3">
     <g id="text_10">
      <text style="fill: #262626; font: 36px 'sans-serif'; text-anchor: end" x="94.163125" y="541.530937" transform="rotate(-0 94.163125 541.530937)">0.4</text>
     </g>
    </g>
    <g id="ytick_4">
     <g id="text_11">
      <text style="fill: #262626; font: 36px 'sans-serif'; text-anchor: end" x="94.163125" y="378.450937" transform="rotate(-0 94.163125 378.450937)">0.6</text>
     </g>
    </g>
    <g id="ytick_5">
     <g id="text_12">
      <text style="fill: #262626; font: 36px 'sans-serif'; text-anchor: end" x="94.163125" y="215.370937" transform="rotate(-0 94.163125 215.370937)">0.8</text>
     </g>
    </g>
    <g id="ytick_6">
     <g id="text_13">
      <text style="fill: #262626; font: 36px 'sans-serif'; text-anchor: end" x="94.163125" y="52.290937" transform="rotate(-0 94.163125 52.290937)">1.0</text>
     </g>
    </g>
    <g id="text_14">
     <text style="fill: #262626; font: 36px 'sans-serif'; text-anchor: middle" x="32.968125" y="447.106875" transform="rotate(-90 32.968125 447.106875)">True Positive Rate</text>
    </g>
   </g>
   <g id="line2d_1">
    <path d="M 103.663125 854.806875 
L 103.663125 829.325625 
L 105.062791 829.325625 
L 105.062791 698.521875 
L 106.462456 698.521875 
L 106.462456 688.329375 
L 107.862122 688.329375 
L 107.862122 649.258125 
L 109.261787 649.258125 
L 109.261787 622.078125 
L 110.661453 622.078125 
L 110.661453 605.090625 
L 112.061118 605.090625 
L 112.061118 598.295625 
L 113.460784 598.295625 
L 113.460784 577.910625 
L 114.860449 577.910625 
L 114.860449 543.935625 
L 116.260115 543.935625 
L 116.260115 515.056875 
L 117.659781 515.056875 
L 117.659781 508.261875 
L 119.059446 508.261875 
L 119.059446 498.069375 
L 120.459112 498.069375 
L 120.459112 492.973125 
L 121.858777 492.973125 
L 121.858777 484.479375 
L 123.258443 484.479375 
L 123.258443 462.395625 
L 124.658108 462.395625 
L 124.658108 457.299375 
L 126.057774 457.299375 
L 126.057774 455.600625 
L 127.457439 455.600625 
L 127.457439 442.010625 
L 128.857105 442.010625 
L 128.857105 440.311875 
L 130.25677 440.311875 
L 130.25677 438.613125 
L 131.656436 438.613125 
L 131.656436 416.529375 
L 133.056102 416.529375 
L 133.056102 409.734375 
L 134.455767 409.734375 
L 134.455767 404.638125 
L 135.855433 404.638125 
L 135.855433 402.939375 
L 138.654764 402.939375 
L 138.654764 389.349375 
L 140.054429 389.349375 
L 140.054429 384.253125 
L 142.85376 384.253125 
L 142.85376 368.964375 
L 144.253426 368.964375 
L 144.253426 362.169375 
L 145.653092 362.169375 
L 145.653092 360.470625 
L 149.852088 360.470625 
L 149.852088 358.771875 
L 152.651419 358.771875 
L 152.651419 348.579375 
L 159.649747 348.579375 
L 159.649747 346.880625 
L 161.049413 346.880625 
L 161.049413 343.483125 
L 165.248409 343.483125 
L 165.248409 338.386875 
L 168.04774 338.386875 
L 168.04774 336.688125 
L 169.447406 336.688125 
L 169.447406 333.290625 
L 172.246737 333.290625 
L 172.246737 328.194375 
L 173.646403 328.194375 
L 173.646403 326.495625 
L 175.046068 326.495625 
L 175.046068 324.796875 
L 176.445734 324.796875 
L 176.445734 314.604375 
L 177.845399 314.604375 
L 177.845399 302.713125 
L 180.64473 302.713125 
L 180.64473 299.315625 
L 182.044396 299.315625 
L 182.044396 297.616875 
L 190.442389 297.616875 
L 190.442389 295.918125 
L 191.842055 295.918125 
L 191.842055 294.219375 
L 193.24172 294.219375 
L 193.24172 290.821875 
L 194.641386 290.821875 
L 194.641386 289.123125 
L 198.840383 289.123125 
L 198.840383 287.424375 
L 201.639714 287.424375 
L 201.639714 284.026875 
L 203.039379 284.026875 
L 203.039379 278.930625 
L 205.83871 278.930625 
L 205.83871 273.834375 
L 210.037707 273.834375 
L 210.037707 268.738125 
L 211.437372 268.738125 
L 211.437372 267.039375 
L 214.236704 267.039375 
L 214.236704 265.340625 
L 217.036035 265.340625 
L 217.036035 263.641875 
L 218.4357 263.641875 
L 218.4357 261.943125 
L 219.835366 261.943125 
L 219.835366 260.244375 
L 221.235031 260.244375 
L 221.235031 255.148125 
L 222.634697 255.148125 
L 222.634697 253.449375 
L 224.034362 253.449375 
L 224.034362 243.256875 
L 226.833694 243.256875 
L 226.833694 239.859375 
L 235.231687 239.859375 
L 235.231687 236.461875 
L 236.631352 236.461875 
L 236.631352 234.763125 
L 239.430684 234.763125 
L 239.430684 231.365625 
L 243.62968 231.365625 
L 243.62968 229.666875 
L 245.029346 229.666875 
L 245.029346 227.968125 
L 247.828677 227.968125 
L 247.828677 224.570625 
L 253.427339 224.570625 
L 253.427339 222.871875 
L 263.224998 222.871875 
L 263.224998 221.173125 
L 266.024329 221.173125 
L 266.024329 219.474375 
L 268.82366 219.474375 
L 268.82366 214.378125 
L 270.223326 214.378125 
L 270.223326 212.679375 
L 275.821988 212.679375 
L 275.821988 210.980625 
L 277.221653 210.980625 
L 277.221653 209.281875 
L 278.621319 209.281875 
L 278.621319 205.884375 
L 280.020985 205.884375 
L 280.020985 204.185625 
L 287.019312 204.185625 
L 287.019312 200.788125 
L 289.818643 200.788125 
L 289.818643 197.390625 
L 292.617974 197.390625 
L 292.617974 193.993125 
L 294.01764 193.993125 
L 294.01764 185.499375 
L 299.616302 185.499375 
L 299.616302 183.800625 
L 301.015968 183.800625 
L 301.015968 182.101875 
L 309.413961 177.005625 
L 309.413961 173.608125 
L 312.213292 173.608125 
L 312.213292 171.909375 
L 313.612958 171.909375 
L 313.612958 170.210625 
L 316.412289 170.210625 
L 316.412289 166.813125 
L 319.21162 166.813125 
L 319.21162 165.114375 
L 320.611286 165.114375 
L 320.611286 163.415625 
L 322.010951 163.415625 
L 322.010951 161.716875 
L 324.810282 161.716875 
L 324.810282 158.319375 
L 330.408944 158.319375 
L 330.408944 149.825625 
L 331.80861 149.825625 
L 331.80861 146.428125 
L 336.007607 146.428125 
L 336.007607 144.729375 
L 337.407272 144.729375 
L 337.407272 141.331875 
L 344.4056 141.331875 
L 344.4056 139.633125 
L 347.204931 139.633125 
L 347.204931 137.934375 
L 348.604597 137.934375 
L 348.604597 136.235625 
L 350.004262 136.235625 
L 350.004262 132.838125 
L 351.403928 132.838125 
L 351.403928 131.139375 
L 355.602924 131.139375 
L 355.602924 129.440625 
L 358.402255 129.440625 
L 358.402255 124.344375 
L 359.801921 124.344375 
L 359.801921 122.645625 
L 366.800249 122.645625 
L 366.800249 120.946875 
L 368.199914 120.946875 
L 368.199914 119.248125 
L 370.999245 119.248125 
L 370.999245 117.549375 
L 377.997573 117.549375 
L 377.997573 115.850625 
L 380.796904 115.850625 
L 380.796904 112.453125 
L 382.19657 112.453125 
L 382.19657 107.356875 
L 384.995901 107.356875 
L 384.995901 105.658125 
L 389.194898 105.658125 
L 389.194898 103.959375 
L 396.193225 103.959375 
L 396.193225 102.260625 
L 398.992556 102.260625 
L 398.992556 100.561875 
L 401.791888 100.561875 
L 401.791888 97.164375 
L 407.39055 97.164375 
L 407.39055 95.465625 
L 418.587874 95.465625 
L 418.587874 93.766875 
L 435.383861 93.766875 
L 435.383861 92.068125 
L 443.781854 92.068125 
L 443.781854 88.670625 
L 453.579513 88.670625 
L 453.579513 86.971875 
L 454.979179 86.971875 
L 454.979179 83.574375 
L 460.577841 83.574375 
L 460.577841 81.875625 
L 461.977506 81.875625 
L 461.977506 80.176875 
L 473.174831 80.176875 
L 473.174831 78.478125 
L 484.372155 78.478125 
L 484.372155 76.779375 
L 489.970817 76.779375 
L 489.970817 75.080625 
L 501.168142 75.080625 
L 501.168142 73.381875 
L 508.166469 73.381875 
L 508.166469 71.683125 
L 512.365466 71.683125 
L 512.365466 69.984375 
L 517.964128 69.984375 
L 517.964128 68.285625 
L 529.161453 68.285625 
L 529.161453 66.586875 
L 543.158108 66.586875 
L 543.158108 64.888125 
L 547.357105 64.888125 
L 547.357105 63.189375 
L 555.755098 63.189375 
L 555.755098 61.490625 
L 557.154764 61.490625 
L 557.154764 59.791875 
L 571.151419 59.791875 
L 571.151419 58.093125 
L 575.350416 58.093125 
L 575.350416 56.394375 
L 594.945734 56.394375 
L 594.945734 54.695625 
L 597.745065 54.695625 
L 597.745065 52.996875 
L 611.74172 52.996875 
L 611.74172 51.298125 
L 723.714964 51.298125 
L 723.714964 49.599375 
L 739.111286 49.599375 
L 739.111286 47.900625 
L 743.310282 47.900625 
L 743.310282 46.201875 
L 795.097908 46.201875 
L 795.097908 44.503125 
L 863.68152 44.503125 
L 863.68152 42.804375 
L 905.671486 42.804375 
L 905.671486 41.105625 
L 923.867138 41.105625 
L 923.867138 39.406875 
L 940.663125 39.406875 
L 940.663125 39.406875 
" clip-path="url(#p465469b2b4)" style="fill: none; stroke: #440154; stroke-width: 7; stroke-linecap: round"/>
   </g>
   <g id="line2d_2">
    <path d="M 103.663125 854.806875 
L 106.462456 715.509375 
L 107.862122 615.283125 
L 107.862122 562.621875 
L 107.862122 501.466875 
L 109.261787 464.094375 
L 109.261787 440.311875 
L 109.261787 425.023125 
L 109.261787 399.541875 
L 110.661453 379.156875 
L 110.661453 358.771875 
L 112.061118 338.386875 
L 112.061118 324.796875 
L 112.061118 312.905625 
L 112.061118 294.219375 
L 113.460784 284.026875 
L 113.460784 277.231875 
L 113.460784 261.943125 
L 113.460784 250.051875 
L 113.460784 243.256875 
L 114.860449 231.365625 
L 116.260115 226.269375 
L 119.059446 219.474375 
L 119.059446 214.378125 
L 120.459112 210.980625 
L 120.459112 204.185625 
L 120.459112 195.691875 
L 120.459112 188.896875 
L 120.459112 178.704375 
L 124.658108 175.306875 
L 124.658108 168.511875 
L 128.857105 166.813125 
L 130.25677 163.415625 
L 131.656436 161.716875 
L 133.056102 154.921875 
L 133.056102 153.223125 
L 134.455767 148.126875 
L 134.455767 144.729375 
L 135.855433 141.331875 
L 135.855433 139.633125 
L 137.255098 137.934375 
L 137.255098 136.235625 
L 138.654764 132.838125 
L 141.454095 129.440625 
L 144.253426 129.440625 
L 147.052757 124.344375 
L 147.052757 122.645625 
L 148.452423 122.645625 
L 154.051085 115.850625 
L 156.850416 110.754375 
L 158.250082 109.055625 
L 161.049413 103.959375 
L 163.848744 102.260625 
L 166.648075 102.260625 
L 172.246737 98.863125 
L 175.046068 98.863125 
L 177.845399 97.164375 
L 179.245065 95.465625 
L 182.044396 93.766875 
L 184.843727 93.766875 
L 189.042724 92.068125 
L 189.042724 90.369375 
L 191.842055 88.670625 
L 194.641386 85.273125 
L 197.440717 85.273125 
L 200.240048 83.574375 
L 204.439045 83.574375 
L 210.037707 83.574375 
L 214.236704 78.478125 
L 218.4357 78.478125 
L 222.634697 75.080625 
L 226.833694 75.080625 
L 229.633025 75.080625 
L 231.03269 73.381875 
L 242.230015 73.381875 
L 250.628008 69.984375 
L 257.626336 66.586875 
L 271.622991 66.586875 
L 275.821988 63.189375 
L 292.617974 61.490625 
L 326.209948 56.394375 
L 343.005934 52.996875 
L 370.999245 52.996875 
L 386.395566 52.996875 
L 411.589546 51.298125 
L 456.378844 51.298125 
L 482.97249 51.298125 
L 524.962456 47.900625 
L 558.554429 44.503125 
L 590.746737 42.804375 
L 653.731687 41.105625 
L 727.913961 41.105625 
L 810.494229 39.406875 
L 940.663125 39.406875 
" clip-path="url(#p465469b2b4)" style="fill: none; stroke: #fde725; stroke-width: 7; stroke-linecap: round"/>
   </g>
   <g id="PathCollection_1">
    <defs>
     <path id="m82246c3e32" d="M 0 11.18034 
C 2.965061 11.18034 5.80908 10.002309 7.905694 7.905694 
C 10.002309 5.80908 11.18034 2.965061 11.18034 0 
C 11.18034 -2.965061 10.002309 -5.80908 7.905694 -7.905694 
C 5.80908 -10.002309 2.965061 -11.18034 0 -11.18034 
C -2.965061 -11.18034 -5.80908 -10.002309 -7.905694 -7.905694 
C -10.002309 -5.80908 -11.18034 -2.965061 -11.18034 0 
C -11.18034 2.965061 -10.002309 5.80908 -7.905694 7.905694 
C -5.80908 10.002309 -2.965061 11.18034 0 11.18034 
z
" style="stroke: #1a1a1a"/>
    </defs>
    <g clip-path="url(#p465469b2b4)">
     <use xlink:href="#m82246c3e32" x="151.251754" y="119.248125" style="fill: #1a1a1a; stroke: #1a1a1a"/>
    </g>
   </g>
   <g id="line2d_3">
    <path d="M 103.663125 854.806875 
L 103.663125 844.614375 
L 105.062791 844.614375 
L 105.062791 832.723125 
L 106.462456 832.723125 
L 106.462456 688.329375 
L 107.862122 688.329375 
L 107.862122 666.245625 
L 109.261787 666.245625 
L 109.261787 657.751875 
L 110.661453 657.751875 
L 110.661453 656.053125 
L 112.061118 656.053125 
L 112.061118 647.559375 
L 113.460784 647.559375 
L 113.460784 593.199375 
L 114.860449 593.199375 
L 114.860449 591.500625 
L 116.260115 591.500625 
L 116.260115 528.646875 
L 117.659781 528.646875 
L 117.659781 482.780625 
L 119.059446 482.780625 
L 119.059446 477.684375 
L 120.459112 477.684375 
L 120.459112 458.998125 
L 121.858777 458.998125 
L 121.858777 442.010625 
L 123.258443 442.010625 
L 123.258443 406.336875 
L 124.658108 406.336875 
L 124.658108 387.650625 
L 126.057774 387.650625 
L 126.057774 385.951875 
L 127.457439 385.951875 
L 127.457439 382.554375 
L 128.857105 382.554375 
L 128.857105 368.964375 
L 130.25677 368.964375 
L 130.25677 350.278125 
L 131.656436 350.278125 
L 131.656436 345.181875 
L 133.056102 345.181875 
L 133.056102 340.085625 
L 137.255098 340.085625 
L 137.255098 324.796875 
L 138.654764 324.796875 
L 138.654764 321.399375 
L 140.054429 321.399375 
L 140.054429 306.110625 
L 141.454095 306.110625 
L 141.454095 304.411875 
L 142.85376 304.411875 
L 142.85376 297.616875 
L 144.253426 297.616875 
L 144.253426 295.918125 
L 145.653092 295.918125 
L 145.653092 292.520625 
L 147.052757 292.520625 
L 147.052757 285.725625 
L 148.452423 285.725625 
L 148.452423 284.026875 
L 149.852088 284.026875 
L 149.852088 275.533125 
L 151.251754 275.533125 
L 151.251754 260.244375 
L 152.651419 260.244375 
L 152.651419 251.750625 
L 156.850416 251.750625 
L 156.850416 250.051875 
L 159.649747 250.051875 
L 159.649747 248.353125 
L 162.449078 248.353125 
L 162.449078 239.859375 
L 168.04774 239.859375 
L 168.04774 238.160625 
L 169.447406 238.160625 
L 169.447406 231.365625 
L 170.847071 231.365625 
L 170.847071 222.871875 
L 172.246737 222.871875 
L 172.246737 221.173125 
L 175.046068 221.173125 
L 175.046068 219.474375 
L 176.445734 219.474375 
L 176.445734 216.076875 
L 177.845399 216.076875 
L 177.845399 212.679375 
L 179.245065 212.679375 
L 179.245065 202.486875 
L 183.444061 202.486875 
L 183.444061 200.788125 
L 190.442389 200.788125 
L 190.442389 197.390625 
L 194.641386 197.390625 
L 194.641386 195.691875 
L 196.041051 195.691875 
L 196.041051 192.294375 
L 197.440717 192.294375 
L 197.440717 190.595625 
L 200.240048 190.595625 
L 200.240048 188.896875 
L 203.039379 188.896875 
L 203.039379 185.499375 
L 205.83871 185.499375 
L 205.83871 183.800625 
L 207.238376 183.800625 
L 207.238376 182.101875 
L 208.638041 182.101875 
L 208.638041 177.005625 
L 214.236704 177.005625 
L 214.236704 173.608125 
L 215.636369 173.608125 
L 215.636369 171.909375 
L 222.634697 171.909375 
L 222.634697 166.813125 
L 228.233359 166.813125 
L 228.233359 163.415625 
L 231.03269 163.415625 
L 231.03269 156.620625 
L 233.832021 156.620625 
L 233.832021 154.921875 
L 236.631352 154.921875 
L 236.631352 153.223125 
L 239.430684 153.223125 
L 239.430684 151.524375 
L 240.830349 151.524375 
L 240.830349 149.825625 
L 243.62968 149.825625 
L 243.62968 148.126875 
L 246.429011 148.126875 
L 246.429011 144.729375 
L 253.427339 144.729375 
L 253.427339 143.030625 
L 254.827005 143.030625 
L 254.827005 141.331875 
L 259.026001 141.331875 
L 259.026001 136.235625 
L 260.425667 136.235625 
L 260.425667 134.536875 
L 261.825332 134.536875 
L 261.825332 132.838125 
L 263.224998 132.838125 
L 263.224998 131.139375 
L 264.624663 131.139375 
L 264.624663 129.440625 
L 266.024329 129.440625 
L 266.024329 127.741875 
L 277.221653 127.741875 
L 277.221653 126.043125 
L 278.621319 126.043125 
L 278.621319 120.946875 
L 284.219981 120.946875 
L 284.219981 119.248125 
L 294.01764 119.248125 
L 294.01764 117.549375 
L 308.014296 117.549375 
L 308.014296 115.850625 
L 309.413961 115.850625 
L 309.413961 112.453125 
L 310.813627 112.453125 
L 310.813627 110.754375 
L 312.213292 110.754375 
L 312.213292 109.055625 
L 317.811954 109.055625 
L 317.811954 107.356875 
L 322.010951 107.356875 
L 322.010951 105.658125 
L 323.410617 105.658125 
L 323.410617 103.959375 
L 331.80861 103.959375 
L 331.80861 102.260625 
L 341.606269 102.260625 
L 341.606269 100.561875 
L 347.204931 100.561875 
L 347.204931 98.863125 
L 355.602924 98.863125 
L 355.602924 97.164375 
L 358.402255 97.164375 
L 358.402255 95.465625 
L 364.000918 95.465625 
L 364.000918 93.766875 
L 372.398911 93.766875 
L 372.398911 92.068125 
L 375.198242 92.068125 
L 375.198242 90.369375 
L 376.597908 90.369375 
L 376.597908 88.670625 
L 397.592891 88.670625 
L 397.592891 86.971875 
L 401.791888 86.971875 
L 401.791888 85.273125 
L 419.98754 85.273125 
L 419.98754 83.574375 
L 421.387205 83.574375 
L 421.387205 81.875625 
L 429.785199 81.875625 
L 429.785199 80.176875 
L 431.184864 80.176875 
L 431.184864 78.478125 
L 443.781854 78.478125 
L 443.781854 76.779375 
L 449.380516 76.779375 
L 449.380516 75.080625 
L 452.179847 75.080625 
L 452.179847 73.381875 
L 454.979179 73.381875 
L 454.979179 71.683125 
L 460.577841 71.683125 
L 460.577841 69.984375 
L 470.3755 69.984375 
L 470.3755 68.285625 
L 491.370483 68.285625 
L 491.370483 66.586875 
L 496.969145 66.586875 
L 496.969145 64.888125 
L 502.567807 64.888125 
L 502.567807 63.189375 
L 506.766804 63.189375 
L 506.766804 59.791875 
L 526.362122 59.791875 
L 526.362122 58.093125 
L 544.557774 58.093125 
L 544.557774 56.394375 
L 557.154764 56.394375 
L 557.154764 54.695625 
L 582.348744 54.695625 
L 582.348744 52.996875 
L 608.942389 52.996875 
L 608.942389 51.298125 
L 621.539379 51.298125 
L 621.539379 49.599375 
L 639.735031 49.599375 
L 639.735031 47.900625 
L 653.731687 47.900625 
L 653.731687 46.201875 
L 671.927339 46.201875 
L 671.927339 44.503125 
L 690.122991 44.503125 
L 690.122991 42.804375 
L 893.074496 42.804375 
L 893.074496 41.105625 
L 935.064463 41.105625 
L 935.064463 39.406875 
L 940.663125 39.406875 
L 940.663125 39.406875 
" clip-path="url(#p465469b2b4)" style="fill: none; stroke: #1f988b; stroke-width: 7; stroke-linecap: round"/>
   </g>
   <g id="PathCollection_2">
    <g clip-path="url(#p465469b2b4)">
     <use xlink:href="#m82246c3e32" x="236.631352" y="153.223125" style="fill: #1a1a1a; stroke: #1a1a1a"/>
    </g>
   </g>
   <g id="PathCollection_3">
    <g clip-path="url(#p465469b2b4)">
     <use xlink:href="#m82246c3e32" x="301.015968" y="182.101875" style="fill: #1a1a1a; stroke: #1a1a1a"/>
    </g>
   </g>
   <g id="patch_3">
    <path d="M 103.663125 854.806875 
L 103.663125 39.406875 
" style="fill: none; stroke: #262626; stroke-width: 1.25; stroke-linejoin: miter; stroke-linecap: square"/>
   </g>
   <g id="patch_4">
    <path d="M 940.663125 854.806875 
L 940.663125 39.406875 
" style="fill: none; stroke: #262626; stroke-width: 1.25; stroke-linejoin: miter; stroke-linecap: square"/>
   </g>
   <g id="patch_5">
    <path d="M 103.663125 854.806875 
L 940.663125 854.806875 
" style="fill: none; stroke: #262626; stroke-width: 1.25; stroke-linejoin: miter; stroke-linecap: square"/>
   </g>
   <g id="patch_6">
    <path d="M 103.663125 39.406875 
L 940.663125 39.406875 
" style="fill: none; stroke: #262626; stroke-width: 1.25; stroke-linejoin: miter; stroke-linecap: square"/>
   </g>
   <g id="text_15">
    <text style="fill: #262626; font: 36px 'sans-serif'; text-anchor: middle" x="522.163125" y="33.406875" transform="rotate(-0 522.163125 33.406875)">All Cells | | class_weight: None</text>
   </g>
   <g id="legend_1">
    <g id="patch_7">
     <path d="M 45.163125 1120.565625 
L 853.66125 1120.565625 
Q 860.86125 1120.565625 860.86125 1113.365625 
L 860.86125 961.546875 
Q 860.86125 954.346875 853.66125 954.346875 
L 45.163125 954.346875 
Q 37.963125 954.346875 37.963125 961.546875 
L 37.963125 1113.365625 
Q 37.963125 1120.565625 45.163125 1120.565625 
z
" style="fill: #ffffff; opacity: 0.8; stroke: #cccccc; stroke-linejoin: miter"/>
    </g>
    <g id="line2d_4">
     <path d="M 52.363125 982.37625 
L 88.363125 982.37625 
L 124.363125 982.37625 
" style="fill: none; stroke: #fde725; stroke-width: 7; stroke-linecap: round"/>
    </g>
    <g id="text_16">
     <text style="fill: #262626; font: 36px 'sans-serif'; text-anchor: start" x="153.163125" y="994.97625" transform="rotate(-0 153.163125 994.97625)">Random Forest (ROC AUC = 0.97)</text>
    </g>
    <g id="line2d_5">
     <path d="M 52.363125 1034.1825 
L 88.363125 1034.1825 
L 124.363125 1034.1825 
" style="fill: none; stroke: #1f988b; stroke-width: 7; stroke-linecap: round"/>
    </g>
    <g id="text_17">
     <text style="fill: #262626; font: 36px 'sans-serif'; text-anchor: start" x="153.163125" y="1046.7825" transform="rotate(-0 153.163125 1046.7825)">Logistic Regression (ROC AUC = 0.92)</text>
    </g>
    <g id="line2d_6">
     <path d="M 52.363125 1085.98875 
L 88.363125 1085.98875 
L 124.363125 1085.98875 
" style="fill: none; stroke: #440154; stroke-width: 7; stroke-linecap: round"/>
    </g>
    <g id="text_18">
     <text style="fill: #262626; font: 36px 'sans-serif'; text-anchor: start" x="153.163125" y="1098.58875" transform="rotate(-0 153.163125 1098.58875)">Support Vector Machine (ROC AUC = 0.89)</text>
    </g>
   </g>
  </g>
 </g>
 <defs>
  <clipPath id="p465469b2b4">
   <rect x="103.663125" y="39.406875" width="837" height="815.4"/>
  </clipPath>
 </defs>
</svg>
