<?xml version="1.0" encoding="utf-8" standalone="no"?>
<!DOCTYPE svg PUBLIC "-//W3C//DTD SVG 1.1//EN"
  "http://www.w3.org/Graphics/SVG/1.1/DTD/svg11.dtd">
<svg xmlns:xlink="http://www.w3.org/1999/xlink" width="972.883125pt" height="1127.765625pt" viewBox="0 0 972.883125 1127.765625" xmlns="http://www.w3.org/2000/svg" version="1.1">
 <metadata>
  <rdf:RDF xmlns:dc="http://purl.org/dc/elements/1.1/" xmlns:cc="http://creativecommons.org/ns#" xmlns:rdf="http://www.w3.org/1999/02/22-rdf-syntax-ns#">
   <cc:Work>
    <dc:type rdf:resource="http://purl.org/dc/dcmitype/StillImage"/>
    <dc:date>2023-01-12T15:28:35.883548</dc:date>
    <dc:format>image/svg+xml</dc:format>
    <dc:creator>
     <cc:Agent>
      <dc:title>Matplotlib v3.6.0, https://matplotlib.org/</dc:title>
     </cc:Agent>
    </dc:creator>
   </cc:Work>
  </rdf:RDF>
 </metadata>
 <defs>
  <style type="text/css">*{stroke-linejoin: round; stroke-linecap: butt}</style>
 </defs>
 <g id="figure_1">
  <g id="patch_1">
   <path d="M 0 1127.765625 
L 972.883125 1127.765625 
L 972.883125 0 
L 0 0 
z
" style="fill: #ffffff"/>
  </g>
  <g id="axes_1">
   <g id="patch_2">
    <path d="M 103.663125 854.806875 
L 940.663125 854.806875 
L 940.663125 39.406875 
L 103.663125 39.406875 
z
" style="fill: #ffffff"/>
   </g>
   <g id="matplotlib.axis_1">
    <g id="xtick_1">
     <g id="text_1">
      <text style="fill: #262626; font: 36px 'sans-serif'; text-anchor: middle" x="103.663125" y="890.075" transform="rotate(-0 103.663125 890.075)">0.0</text>
     </g>
    </g>
    <g id="xtick_2">
     <g id="text_2">
      <text style="fill: #262626; font: 36px 'sans-serif'; text-anchor: middle" x="271.063125" y="890.075" transform="rotate(-0 271.063125 890.075)">0.2</text>
     </g>
    </g>
    <g id="xtick_3">
     <g id="text_3">
      <text style="fill: #262626; font: 36px 'sans-serif'; text-anchor: middle" x="438.463125" y="890.075" transform="rotate(-0 438.463125 890.075)">0.4</text>
     </g>
    </g>
    <g id="xtick_4">
     <g id="text_4">
      <text style="fill: #262626; font: 36px 'sans-serif'; text-anchor: middle" x="605.863125" y="890.075" transform="rotate(-0 605.863125 890.075)">0.6</text>
     </g>
    </g>
    <g id="xtick_5">
     <g id="text_5">
      <text style="fill: #262626; font: 36px 'sans-serif'; text-anchor: middle" x="773.263125" y="890.075" transform="rotate(-0 773.263125 890.075)">0.8</text>
     </g>
    </g>
    <g id="xtick_6">
     <g id="text_6">
      <text style="fill: #262626; font: 36px 'sans-serif'; text-anchor: middle" x="940.663125" y="890.075" transform="rotate(-0 940.663125 890.075)">1.0</text>
     </g>
    </g>
    <g id="text_7">
     <text style="fill: #262626; font: 36px 'sans-serif'; text-anchor: middle" x="522.163125" y="926.998125" transform="rotate(-0 522.163125 926.998125)">False Positive Rate</text>
    </g>
   </g>
   <g id="matplotlib.axis_2">
    <g id="ytick_1">
     <g id="text_8">
      <text style="fill: #262626; font: 36px 'sans-serif'; text-anchor: end" x="94.163125" y="867.690938" transform="rotate(-0 94.163125 867.690938)">0.0</text>
     </g>
    </g>
    <g id="ytick_2">
     <g id="text_9">
      <text style="fill: #262626; font: 36px 'sans-serif'; text-anchor: end" x="94.163125" y="704.610937" transform="rotate(-0 94.163125 704.610937)">0.2</text>
     </g>
    </g>
    <g id="ytick_3">
     <g id="text_10">
      <text style="fill: #262626; font: 36px 'sans-serif'; text-anchor: end" x="94.163125" y="541.530937" transform="rotate(-0 94.163125 541.530937)">0.4</text>
     </g>
    </g>
    <g id="ytick_4">
     <g id="text_11">
      <text style="fill: #262626; font: 36px 'sans-serif'; text-anchor: end" x="94.163125" y="378.450937" transform="rotate(-0 94.163125 378.450937)">0.6</text>
     </g>
    </g>
    <g id="ytick_5">
     <g id="text_12">
      <text style="fill: #262626; font: 36px 'sans-serif'; text-anchor: end" x="94.163125" y="215.370937" transform="rotate(-0 94.163125 215.370937)">0.8</text>
     </g>
    </g>
    <g id="ytick_6">
     <g id="text_13">
      <text style="fill: #262626; font: 36px 'sans-serif'; text-anchor: end" x="94.163125" y="52.290937" transform="rotate(-0 94.163125 52.290937)">1.0</text>
     </g>
    </g>
    <g id="text_14">
     <text style="fill: #262626; font: 36px 'sans-serif'; text-anchor: middle" x="32.968125" y="447.106875" transform="rotate(-90 32.968125 447.106875)">True Positive Rate</text>
    </g>
   </g>
   <g id="line2d_1">
    <path d="M 103.663125 854.806875 
L 103.663125 826.963948 
L 105.245356 826.963948 
L 105.245356 753.37907 
L 106.827586 753.37907 
L 106.827586 731.502485 
L 108.409817 731.502485 
L 108.409817 701.670777 
L 109.992047 701.670777 
L 109.992047 540.579558 
L 111.574278 540.579558 
L 111.574278 524.669314 
L 113.156509 524.669314 
L 113.156509 468.98346 
L 116.32097 468.98346 
L 116.32097 463.017119 
L 117.903201 463.017119 
L 117.903201 421.252729 
L 119.485431 421.252729 
L 119.485431 417.275168 
L 121.067662 417.275168 
L 121.067662 413.297607 
L 122.649892 413.297607 
L 122.649892 399.376143 
L 124.232123 399.376143 
L 124.232123 391.421021 
L 125.814354 391.421021 
L 125.814354 373.521997 
L 128.978815 373.521997 
L 128.978815 369.544436 
L 130.561046 369.544436 
L 130.561046 365.566875 
L 132.143276 365.566875 
L 132.143276 353.634192 
L 133.725507 353.634192 
L 133.725507 351.645412 
L 135.307737 351.645412 
L 135.307737 347.667851 
L 136.889968 347.667851 
L 136.889968 345.67907 
L 138.472199 345.67907 
L 138.472199 343.69029 
L 143.218891 343.69029 
L 143.218891 335.735168 
L 144.801121 335.735168 
L 144.801121 333.746387 
L 149.547813 333.746387 
L 149.547813 323.802485 
L 151.130044 323.802485 
L 151.130044 321.813704 
L 152.712274 321.813704 
L 152.712274 307.892241 
L 154.294505 307.892241 
L 154.294505 297.948338 
L 155.876736 297.948338 
L 155.876736 295.959558 
L 159.041197 295.959558 
L 159.041197 291.981997 
L 160.623427 291.981997 
L 160.623427 274.082973 
L 162.205658 274.082973 
L 162.205658 270.105412 
L 163.787889 270.105412 
L 163.787889 266.127851 
L 166.95235 266.127851 
L 166.95235 262.15029 
L 170.116811 262.15029 
L 170.116811 260.161509 
L 174.863503 260.161509 
L 174.863503 254.195168 
L 176.445734 254.195168 
L 176.445734 252.206387 
L 178.027964 252.206387 
L 178.027964 250.217607 
L 181.192426 250.217607 
L 181.192426 230.329802 
L 182.774656 230.329802 
L 182.774656 228.341021 
L 187.521348 228.341021 
L 187.521348 224.36346 
L 189.103579 224.36346 
L 189.103579 220.385899 
L 190.685809 220.385899 
L 190.685809 214.419558 
L 197.014732 214.419558 
L 197.014732 210.441997 
L 198.596962 210.441997 
L 198.596962 206.464436 
L 201.761424 206.464436 
L 201.761424 200.498095 
L 204.925885 200.498095 
L 204.925885 198.509314 
L 211.254807 198.509314 
L 211.254807 196.520534 
L 212.837038 196.520534 
L 212.837038 194.531753 
L 220.748191 186.576631 
L 222.330422 186.576631 
L 222.330422 180.61029 
L 223.912652 180.61029 
L 223.912652 174.643948 
L 225.494883 174.643948 
L 225.494883 170.666387 
L 228.659344 170.666387 
L 228.659344 168.677607 
L 230.241575 168.677607 
L 230.241575 164.700046 
L 231.823806 164.700046 
L 231.823806 160.722485 
L 233.406036 160.722485 
L 233.406036 156.744924 
L 234.988267 156.744924 
L 234.988267 152.767363 
L 250.810573 152.767363 
L 250.810573 148.789802 
L 252.392804 148.789802 
L 252.392804 146.801021 
L 265.050649 146.801021 
L 265.050649 142.82346 
L 266.632879 142.82346 
L 266.632879 140.83468 
L 268.21511 140.83468 
L 268.21511 138.845899 
L 269.797341 138.845899 
L 269.797341 136.857119 
L 276.126263 136.857119 
L 276.126263 134.868338 
L 280.872955 134.868338 
L 280.872955 130.890777 
L 287.201877 130.890777 
L 287.201877 126.913216 
L 290.366339 126.913216 
L 290.366339 124.924436 
L 291.948569 124.924436 
L 291.948569 122.935655 
L 295.11303 122.935655 
L 295.11303 120.946875 
L 298.277492 120.946875 
L 298.277492 118.958095 
L 299.859722 118.958095 
L 299.859722 116.969314 
L 309.353106 116.969314 
L 309.353106 111.002973 
L 322.010951 111.002973 
L 322.010951 109.014192 
L 323.593182 109.014192 
L 323.593182 107.025412 
L 326.757643 107.025412 
L 326.757643 103.047851 
L 334.668796 103.047851 
L 334.668796 99.07029 
L 339.415488 99.07029 
L 339.415488 97.081509 
L 340.997719 97.081509 
L 340.997719 95.092729 
L 347.326641 95.092729 
L 347.326641 93.103948 
L 352.073333 93.103948 
L 352.073333 91.115168 
L 353.655564 91.115168 
L 353.655564 89.126387 
L 356.820025 89.126387 
L 356.820025 85.148826 
L 374.224562 85.148826 
L 374.224562 83.160046 
L 377.389023 83.160046 
L 377.389023 81.171265 
L 386.882407 81.171265 
L 386.882407 79.182485 
L 388.464637 79.182485 
L 388.464637 77.193704 
L 396.37579 77.193704 
L 396.37579 75.204924 
L 397.958021 75.204924 
L 397.958021 73.216143 
L 399.540252 73.216143 
L 399.540252 69.238582 
L 402.704713 69.238582 
L 402.704713 67.249802 
L 407.451405 67.249802 
L 407.451405 65.261021 
L 416.944789 65.261021 
L 416.944789 63.272241 
L 435.931556 63.272241 
L 435.931556 61.28346 
L 462.829477 61.28346 
L 462.829477 59.29468 
L 465.993938 59.29468 
L 465.993938 57.305899 
L 477.069552 57.305899 
L 477.069552 55.317119 
L 497.63855 55.317119 
L 497.63855 53.328338 
L 500.803012 53.328338 
L 500.803012 51.339558 
L 556.181083 51.339558 
L 556.181083 49.350777 
L 557.763314 49.350777 
L 557.763314 47.361997 
L 564.092237 47.361997 
L 564.092237 45.373216 
L 575.167851 45.373216 
L 575.167851 43.384436 
L 663.772766 43.384436 
L 663.772766 41.395655 
L 809.337983 41.395655 
L 809.337983 39.406875 
L 940.663125 39.406875 
L 940.663125 39.406875 
" clip-path="url(#p73af690d5f)" style="fill: none; stroke: #440154; stroke-width: 7; stroke-linecap: round"/>
   </g>
   <g id="line2d_2">
    <path d="M 103.663125 854.806875 
L 103.663125 719.569802 
L 105.245356 642.007363 
L 106.827586 568.422485 
L 106.827586 534.613216 
L 106.827586 492.848826 
L 106.827586 449.095655 
L 109.992047 417.275168 
L 109.992047 389.432241 
L 109.992047 359.600534 
L 109.992047 345.67907 
L 109.992047 325.791265 
L 111.574278 313.858582 
L 111.574278 286.015655 
L 113.156509 270.105412 
L 113.156509 256.183948 
L 114.738739 244.251265 
L 116.32097 236.296143 
L 119.485431 228.341021 
L 119.485431 220.385899 
L 119.485431 208.453216 
L 122.649892 198.509314 
L 125.814354 192.542973 
L 125.814354 188.565412 
L 125.814354 182.59907 
L 125.814354 178.621509 
L 127.396584 176.632729 
L 128.978815 170.666387 
L 128.978815 164.700046 
L 130.561046 158.733704 
L 132.143276 154.756143 
L 135.307737 150.778582 
L 138.472199 140.83468 
L 140.054429 132.879558 
L 141.63666 128.901997 
L 141.63666 126.913216 
L 141.63666 122.935655 
L 141.63666 120.946875 
L 143.218891 118.958095 
L 146.383352 114.980534 
L 149.547813 114.980534 
L 151.130044 112.991753 
L 154.294505 111.002973 
L 155.876736 111.002973 
L 155.876736 107.025412 
L 159.041197 107.025412 
L 160.623427 103.047851 
L 160.623427 99.07029 
L 163.787889 99.07029 
L 165.370119 97.081509 
L 168.534581 95.092729 
L 168.534581 93.103948 
L 171.699042 93.103948 
L 173.281272 91.115168 
L 174.863503 91.115168 
L 176.445734 89.126387 
L 182.774656 85.148826 
L 189.103579 83.160046 
L 192.26804 81.171265 
L 193.850271 79.182485 
L 198.596962 75.204924 
L 204.925885 73.216143 
L 211.254807 73.216143 
L 219.165961 69.238582 
L 228.659344 67.249802 
L 234.988267 65.261021 
L 238.152728 65.261021 
L 244.481651 59.29468 
L 253.975034 57.305899 
L 261.886187 57.305899 
L 271.379571 57.305899 
L 282.455185 53.328338 
L 288.784108 51.339558 
L 299.859722 51.339558 
L 310.935337 49.350777 
L 322.010951 49.350777 
L 323.593182 49.350777 
L 329.922104 49.350777 
L 348.908872 49.350777 
L 369.47787 49.350777 
L 390.046868 45.373216 
L 399.540252 45.373216 
L 416.944789 45.373216 
L 448.589401 41.395655 
L 470.74063 41.395655 
L 503.967473 39.406875 
L 524.536471 39.406875 
L 554.598853 39.406875 
L 589.407927 39.406875 
L 644.785998 39.406875 
L 695.417378 39.406875 
L 818.831367 39.406875 
L 940.663125 39.406875 
" clip-path="url(#p73af690d5f)" style="fill: none; stroke: #fde725; stroke-width: 7; stroke-linecap: round"/>
   </g>
   <g id="PathCollection_1">
    <defs>
     <path id="m1a8cdcbb1f" d="M 0 11.18034 
C 2.965061 11.18034 5.80908 10.002309 7.905694 7.905694 
C 10.002309 5.80908 11.18034 2.965061 11.18034 0 
C 11.18034 -2.965061 10.002309 -5.80908 7.905694 -7.905694 
C 5.80908 -10.002309 2.965061 -11.18034 0 -11.18034 
C -2.965061 -11.18034 -5.80908 -10.002309 -7.905694 -7.905694 
C -10.002309 -5.80908 -11.18034 -2.965061 -11.18034 0 
C -11.18034 2.965061 -10.002309 5.80908 -7.905694 7.905694 
C -5.80908 10.002309 -2.965061 11.18034 0 11.18034 
z
" style="stroke: #1a1a1a"/>
    </defs>
    <g clip-path="url(#p73af690d5f)">
     <use xlink:href="#m1a8cdcbb1f" x="155.876736" y="107.025412" style="fill: #1a1a1a; stroke: #1a1a1a"/>
    </g>
   </g>
   <g id="line2d_3">
    <path d="M 103.663125 854.806875 
L 103.663125 844.862973 
L 105.245356 844.862973 
L 105.245356 832.93029 
L 106.827586 832.93029 
L 106.827586 801.109802 
L 108.409817 801.109802 
L 108.409817 701.670777 
L 109.992047 701.670777 
L 109.992047 683.771753 
L 111.574278 683.771753 
L 111.574278 552.512241 
L 113.156509 552.512241 
L 113.156509 542.568338 
L 114.738739 542.568338 
L 114.738739 516.714192 
L 116.32097 516.714192 
L 116.32097 484.893704 
L 117.903201 484.893704 
L 117.903201 470.972241 
L 119.485431 470.972241 
L 119.485431 459.039558 
L 121.067662 459.039558 
L 121.067662 403.353704 
L 122.649892 403.353704 
L 122.649892 397.387363 
L 124.232123 397.387363 
L 124.232123 395.398582 
L 125.814354 395.398582 
L 125.814354 369.544436 
L 130.561046 369.544436 
L 130.561046 367.555655 
L 132.143276 367.555655 
L 132.143276 355.622973 
L 133.725507 355.622973 
L 133.725507 341.701509 
L 135.307737 341.701509 
L 135.307737 339.712729 
L 136.889968 339.712729 
L 136.889968 325.791265 
L 144.801121 325.791265 
L 144.801121 317.836143 
L 146.383352 317.836143 
L 146.383352 291.981997 
L 147.965582 291.981997 
L 147.965582 288.004436 
L 149.547813 288.004436 
L 149.547813 284.026875 
L 151.130044 284.026875 
L 151.130044 282.038095 
L 152.712274 282.038095 
L 152.712274 280.049314 
L 154.294505 280.049314 
L 154.294505 274.082973 
L 159.041197 274.082973 
L 159.041197 262.15029 
L 165.370119 262.15029 
L 165.370119 256.183948 
L 166.95235 256.183948 
L 166.95235 246.240046 
L 170.116811 246.240046 
L 170.116811 244.251265 
L 173.281272 244.251265 
L 173.281272 240.273704 
L 174.863503 240.273704 
L 174.863503 230.329802 
L 176.445734 230.329802 
L 176.445734 224.36346 
L 182.774656 224.36346 
L 182.774656 222.37468 
L 184.356887 222.37468 
L 184.356887 216.408338 
L 187.521348 216.408338 
L 187.521348 212.430777 
L 189.103579 212.430777 
L 189.103579 196.520534 
L 192.26804 196.520534 
L 192.26804 194.531753 
L 193.850271 194.531753 
L 193.850271 192.542973 
L 195.432501 192.542973 
L 195.432501 190.554192 
L 203.343654 190.554192 
L 203.343654 186.576631 
L 206.508116 186.576631 
L 206.508116 184.587851 
L 208.090346 184.587851 
L 208.090346 182.59907 
L 209.672577 182.59907 
L 209.672577 180.61029 
L 211.254807 180.61029 
L 211.254807 176.632729 
L 212.837038 176.632729 
L 212.837038 174.643948 
L 216.001499 174.643948 
L 216.001499 172.655168 
L 220.748191 172.655168 
L 220.748191 170.666387 
L 222.330422 170.666387 
L 222.330422 168.677607 
L 227.077114 168.677607 
L 227.077114 164.700046 
L 230.241575 164.700046 
L 230.241575 162.711265 
L 231.823806 162.711265 
L 231.823806 158.733704 
L 233.406036 158.733704 
L 233.406036 152.767363 
L 234.988267 152.767363 
L 234.988267 150.778582 
L 238.152728 150.778582 
L 238.152728 148.789802 
L 239.734959 148.789802 
L 239.734959 140.83468 
L 241.317189 140.83468 
L 241.317189 138.845899 
L 244.481651 138.845899 
L 244.481651 136.857119 
L 246.063881 136.857119 
L 246.063881 130.890777 
L 247.646112 130.890777 
L 247.646112 124.924436 
L 255.557265 124.924436 
L 255.557265 122.935655 
L 258.721726 122.935655 
L 258.721726 118.958095 
L 265.050649 118.958095 
L 265.050649 116.969314 
L 269.797341 116.969314 
L 269.797341 112.991753 
L 272.961802 112.991753 
L 272.961802 111.002973 
L 287.201877 111.002973 
L 287.201877 109.014192 
L 293.5308 109.014192 
L 293.5308 107.025412 
L 296.695261 107.025412 
L 296.695261 105.036631 
L 298.277492 105.036631 
L 298.277492 101.05907 
L 301.441953 101.05907 
L 301.441953 99.07029 
L 307.770875 99.07029 
L 307.770875 97.081509 
L 314.099798 97.081509 
L 314.099798 95.092729 
L 315.682029 95.092729 
L 315.682029 93.103948 
L 322.010951 93.103948 
L 322.010951 89.126387 
L 337.833257 89.126387 
L 337.833257 85.148826 
L 342.579949 85.148826 
L 342.579949 83.160046 
L 348.908872 83.160046 
L 348.908872 79.182485 
L 350.491102 79.182485 
L 350.491102 77.193704 
L 374.224562 77.193704 
L 374.224562 75.204924 
L 375.806792 75.204924 
L 375.806792 73.216143 
L 399.540252 73.216143 
L 399.540252 71.227363 
L 402.704713 71.227363 
L 402.704713 69.238582 
L 405.869174 69.238582 
L 405.869174 65.261021 
L 445.42494 65.261021 
L 445.42494 63.272241 
L 451.753862 63.272241 
L 451.753862 61.28346 
L 461.247246 61.28346 
L 461.247246 59.29468 
L 492.891858 59.29468 
L 492.891858 57.305899 
L 500.803012 57.305899 
L 500.803012 55.317119 
L 505.549703 55.317119 
L 505.549703 53.328338 
L 532.447624 53.328338 
L 532.447624 51.339558 
L 541.941008 51.339558 
L 541.941008 49.350777 
L 543.523238 49.350777 
L 543.523238 47.361997 
L 556.181083 47.361997 
L 556.181083 45.373216 
L 586.243465 45.373216 
L 586.243465 43.384436 
L 598.90131 43.384436 
L 598.90131 41.395655 
L 690.670686 41.395655 
L 690.670686 39.406875 
L 940.663125 39.406875 
L 940.663125 39.406875 
" clip-path="url(#p73af690d5f)" style="fill: none; stroke: #1f988b; stroke-width: 7; stroke-linecap: round"/>
   </g>
   <g id="PathCollection_2">
    <g clip-path="url(#p73af690d5f)">
     <use xlink:href="#m1a8cdcbb1f" x="209.672577" y="182.59907" style="fill: #1a1a1a; stroke: #1a1a1a"/>
    </g>
   </g>
   <g id="PathCollection_3">
    <g clip-path="url(#p73af690d5f)">
     <use xlink:href="#m1a8cdcbb1f" x="212.837038" y="194.531753" style="fill: #1a1a1a; stroke: #1a1a1a"/>
    </g>
   </g>
   <g id="patch_3">
    <path d="M 103.663125 854.806875 
L 103.663125 39.406875 
" style="fill: none; stroke: #262626; stroke-width: 1.25; stroke-linejoin: miter; stroke-linecap: square"/>
   </g>
   <g id="patch_4">
    <path d="M 940.663125 854.806875 
L 940.663125 39.406875 
" style="fill: none; stroke: #262626; stroke-width: 1.25; stroke-linejoin: miter; stroke-linecap: square"/>
   </g>
   <g id="patch_5">
    <path d="M 103.663125 854.806875 
L 940.663125 854.806875 
" style="fill: none; stroke: #262626; stroke-width: 1.25; stroke-linejoin: miter; stroke-linecap: square"/>
   </g>
   <g id="patch_6">
    <path d="M 103.663125 39.406875 
L 940.663125 39.406875 
" style="fill: none; stroke: #262626; stroke-width: 1.25; stroke-linejoin: miter; stroke-linecap: square"/>
   </g>
   <g id="text_15">
    <text style="fill: #262626; font: 36px 'sans-serif'; text-anchor: middle" x="522.163125" y="33.406875" transform="rotate(-0 522.163125 33.406875)">All Cells | | class_weight: None</text>
   </g>
   <g id="legend_1">
    <g id="patch_7">
     <path d="M 45.163125 1120.565625 
L 853.66125 1120.565625 
Q 860.86125 1120.565625 860.86125 1113.365625 
L 860.86125 961.546875 
Q 860.86125 954.346875 853.66125 954.346875 
L 45.163125 954.346875 
Q 37.963125 954.346875 37.963125 961.546875 
L 37.963125 1113.365625 
Q 37.963125 1120.565625 45.163125 1120.565625 
z
" style="fill: #ffffff; opacity: 0.8; stroke: #cccccc; stroke-linejoin: miter"/>
    </g>
    <g id="line2d_4">
     <path d="M 52.363125 982.37625 
L 88.363125 982.37625 
L 124.363125 982.37625 
" style="fill: none; stroke: #fde725; stroke-width: 7; stroke-linecap: round"/>
    </g>
    <g id="text_16">
     <text style="fill: #262626; font: 36px 'sans-serif'; text-anchor: start" x="153.163125" y="994.97625" transform="rotate(-0 153.163125 994.97625)">Random Forest (ROC AUC = 0.98)</text>
    </g>
    <g id="line2d_5">
     <path d="M 52.363125 1034.1825 
L 88.363125 1034.1825 
L 124.363125 1034.1825 
" style="fill: none; stroke: #1f988b; stroke-width: 7; stroke-linecap: round"/>
    </g>
    <g id="text_17">
     <text style="fill: #262626; font: 36px 'sans-serif'; text-anchor: start" x="153.163125" y="1046.7825" transform="rotate(-0 153.163125 1046.7825)">Logistic Regression (ROC AUC = 0.93)</text>
    </g>
    <g id="line2d_6">
     <path d="M 52.363125 1085.98875 
L 88.363125 1085.98875 
L 124.363125 1085.98875 
" style="fill: none; stroke: #440154; stroke-width: 7; stroke-linecap: round"/>
    </g>
    <g id="text_18">
     <text style="fill: #262626; font: 36px 'sans-serif'; text-anchor: start" x="153.163125" y="1098.58875" transform="rotate(-0 153.163125 1098.58875)">Support Vector Machine (ROC AUC = 0.93)</text>
    </g>
   </g>
  </g>
 </g>
 <defs>
  <clipPath id="p73af690d5f">
   <rect x="103.663125" y="39.406875" width="837" height="815.4"/>
  </clipPath>
 </defs>
</svg>
