<?xml version="1.0" encoding="utf-8" standalone="no"?>
<!DOCTYPE svg PUBLIC "-//W3C//DTD SVG 1.1//EN"
  "http://www.w3.org/Graphics/SVG/1.1/DTD/svg11.dtd">
<svg xmlns:xlink="http://www.w3.org/1999/xlink" width="402.095625pt" height="231.84pt" viewBox="0 0 402.095625 231.84" xmlns="http://www.w3.org/2000/svg" version="1.1">
 <metadata>
  <rdf:RDF xmlns:dc="http://purl.org/dc/elements/1.1/" xmlns:cc="http://creativecommons.org/ns#" xmlns:rdf="http://www.w3.org/1999/02/22-rdf-syntax-ns#">
   <cc:Work>
    <dc:type rdf:resource="http://purl.org/dc/dcmitype/StillImage"/>
    <dc:date>2022-12-16T12:15:47.961765</dc:date>
    <dc:format>image/svg+xml</dc:format>
    <dc:creator>
     <cc:Agent>
      <dc:title>Matplotlib v3.6.0, https://matplotlib.org/</dc:title>
     </cc:Agent>
    </dc:creator>
   </cc:Work>
  </rdf:RDF>
 </metadata>
 <defs>
  <style type="text/css">*{stroke-linejoin: round; stroke-linecap: butt}</style>
 </defs>
 <g id="figure_1">
  <g id="patch_1">
   <path d="M 0 231.84 
L 402.095625 231.84 
L 402.095625 0 
L 0 0 
z
" style="fill: #ffffff"/>
  </g>
  <g id="axes_1">
   <g id="patch_2">
    <path d="M 202.896 115.92 
C 202.896 98.793884 197.837642 82.043335 188.358524 67.779738 
C 178.879407 53.516142 165.395275 42.365085 149.605787 35.732143 
L 115.92 115.92 
L 202.896 115.92 
z
" style="fill: #bddf26"/>
   </g>
   <g id="patch_3">
    <path d="M 149.605787 35.732143 
C 136.552462 30.248626 122.355488 28.034465 108.252287 29.282648 
C 94.149085 30.530832 80.561665 35.20401 68.674319 42.894866 
L 115.92 115.92 
L 149.605787 35.732143 
z
" style="fill: #7ad151"/>
   </g>
   <g id="patch_4">
    <path d="M 68.674319 42.894866 
C 58.424897 49.52602 49.685436 58.241322 43.025934 68.472348 
C 36.366432 78.703374 31.934889 90.222753 30.020335 102.279176 
L 115.92 115.92 
L 68.674319 42.894866 
z
" style="fill: #44bf70"/>
   </g>
   <g id="patch_5">
    <path d="M 30.020335 102.279176 
C 28.231165 113.546023 28.676039 125.055585 31.329558 136.150711 
C 33.983076 147.245837 38.793757 157.711269 45.48693 166.949473 
L 115.92 115.92 
L 30.020335 102.279176 
z
" style="fill: #22a884"/>
   </g>
   <g id="patch_6">
    <path d="M 45.48693 166.949473 
C 51.799849 175.662836 59.675215 183.129556 68.712282 188.969681 
C 77.749348 194.809806 87.792182 198.922567 98.329742 201.098679 
L 115.92 115.92 
L 45.48693 166.949473 
z
" style="fill: #21908d"/>
   </g>
   <g id="patch_7">
    <path d="M 98.329742 201.098679 
C 108.673114 203.23469 119.319584 203.468931 129.746894 201.789911 
C 140.174203 200.110891 150.209016 196.546521 159.359077 191.27165 
L 115.92 115.92 
L 98.329742 201.098679 
z
" style="fill: #2a788e"/>
   </g>
   <g id="patch_8">
    <path d="M 159.359077 191.27165 
C 165.731308 187.598156 171.611896 183.131138 176.8599 177.97766 
C 182.107903 172.824182 186.681056 167.025747 190.469751 160.721331 
L 115.92 115.92 
L 159.359077 191.27165 
z
" style="fill: #355f8d"/>
   </g>
   <g id="patch_9">
    <path d="M 190.469751 160.721331 
C 192.776769 156.882436 194.783822 152.871071 196.472995 148.723042 
C 198.162168 144.575013 199.528421 140.3027 200.559557 135.944236 
L 115.92 115.92 
L 190.469751 160.721331 
z
" style="fill: #414487"/>
   </g>
   <g id="patch_10">
    <path d="M 200.559557 135.944236 
C 201.335085 132.66619 201.919523 129.345858 202.309917 126.000022 
C 202.700311 122.654186 202.896002 119.288494 202.896 115.919959 
L 115.92 115.92 
L 200.559557 135.944236 
z
" style="fill: #482475"/>
   </g>
   <g id="matplotlib.axis_1"/>
   <g id="matplotlib.axis_2"/>
   <g id="legend_1">
    <g id="patch_11">
     <path d="M 235.44 48.77625 
L 259.44 48.77625 
L 259.44 40.37625 
L 235.44 40.37625 
z
" style="fill: #bddf26"/>
    </g>
    <g id="text_1">
     <!-- 18.67% NAD(P)H $\alpha_{1}$ -->
     <g transform="translate(269.04 48.77625) scale(0.12 -0.12)">
      <defs>
       <path id="DejaVuSans-31" d="M 794 531 
L 1825 531 
L 1825 4091 
L 703 3866 
L 703 4441 
L 1819 4666 
L 2450 4666 
L 2450 531 
L 3481 531 
L 3481 0 
L 794 0 
L 794 531 
z
" transform="scale(0.015625)"/>
       <path id="DejaVuSans-38" d="M 2034 2216 
Q 1584 2216 1326 1975 
Q 1069 1734 1069 1313 
Q 1069 891 1326 650 
Q 1584 409 2034 409 
Q 2484 409 2743 651 
Q 3003 894 3003 1313 
Q 3003 1734 2745 1975 
Q 2488 2216 2034 2216 
z
M 1403 2484 
Q 997 2584 770 2862 
Q 544 3141 544 3541 
Q 544 4100 942 4425 
Q 1341 4750 2034 4750 
Q 2731 4750 3128 4425 
Q 3525 4100 3525 3541 
Q 3525 3141 3298 2862 
Q 3072 2584 2669 2484 
Q 3125 2378 3379 2068 
Q 3634 1759 3634 1313 
Q 3634 634 3220 271 
Q 2806 -91 2034 -91 
Q 1263 -91 848 271 
Q 434 634 434 1313 
Q 434 1759 690 2068 
Q 947 2378 1403 2484 
z
M 1172 3481 
Q 1172 3119 1398 2916 
Q 1625 2713 2034 2713 
Q 2441 2713 2670 2916 
Q 2900 3119 2900 3481 
Q 2900 3844 2670 4047 
Q 2441 4250 2034 4250 
Q 1625 4250 1398 4047 
Q 1172 3844 1172 3481 
z
" transform="scale(0.015625)"/>
       <path id="DejaVuSans-2e" d="M 684 794 
L 1344 794 
L 1344 0 
L 684 0 
L 684 794 
z
" transform="scale(0.015625)"/>
       <path id="DejaVuSans-36" d="M 2113 2584 
Q 1688 2584 1439 2293 
Q 1191 2003 1191 1497 
Q 1191 994 1439 701 
Q 1688 409 2113 409 
Q 2538 409 2786 701 
Q 3034 994 3034 1497 
Q 3034 2003 2786 2293 
Q 2538 2584 2113 2584 
z
M 3366 4563 
L 3366 3988 
Q 3128 4100 2886 4159 
Q 2644 4219 2406 4219 
Q 1781 4219 1451 3797 
Q 1122 3375 1075 2522 
Q 1259 2794 1537 2939 
Q 1816 3084 2150 3084 
Q 2853 3084 3261 2657 
Q 3669 2231 3669 1497 
Q 3669 778 3244 343 
Q 2819 -91 2113 -91 
Q 1303 -91 875 529 
Q 447 1150 447 2328 
Q 447 3434 972 4092 
Q 1497 4750 2381 4750 
Q 2619 4750 2861 4703 
Q 3103 4656 3366 4563 
z
" transform="scale(0.015625)"/>
       <path id="DejaVuSans-37" d="M 525 4666 
L 3525 4666 
L 3525 4397 
L 1831 0 
L 1172 0 
L 2766 4134 
L 525 4134 
L 525 4666 
z
" transform="scale(0.015625)"/>
       <path id="DejaVuSans-25" d="M 4653 2053 
Q 4381 2053 4226 1822 
Q 4072 1591 4072 1178 
Q 4072 772 4226 539 
Q 4381 306 4653 306 
Q 4919 306 5073 539 
Q 5228 772 5228 1178 
Q 5228 1588 5073 1820 
Q 4919 2053 4653 2053 
z
M 4653 2450 
Q 5147 2450 5437 2106 
Q 5728 1763 5728 1178 
Q 5728 594 5436 251 
Q 5144 -91 4653 -91 
Q 4153 -91 3862 251 
Q 3572 594 3572 1178 
Q 3572 1766 3864 2108 
Q 4156 2450 4653 2450 
z
M 1428 4353 
Q 1159 4353 1004 4120 
Q 850 3888 850 3481 
Q 850 3069 1003 2837 
Q 1156 2606 1428 2606 
Q 1700 2606 1854 2837 
Q 2009 3069 2009 3481 
Q 2009 3884 1853 4118 
Q 1697 4353 1428 4353 
z
M 4250 4750 
L 4750 4750 
L 1831 -91 
L 1331 -91 
L 4250 4750 
z
M 1428 4750 
Q 1922 4750 2215 4408 
Q 2509 4066 2509 3481 
Q 2509 2891 2217 2550 
Q 1925 2209 1428 2209 
Q 931 2209 642 2551 
Q 353 2894 353 3481 
Q 353 4063 643 4406 
Q 934 4750 1428 4750 
z
" transform="scale(0.015625)"/>
       <path id="DejaVuSans-20" transform="scale(0.015625)"/>
       <path id="DejaVuSans-4e" d="M 628 4666 
L 1478 4666 
L 3547 763 
L 3547 4666 
L 4159 4666 
L 4159 0 
L 3309 0 
L 1241 3903 
L 1241 0 
L 628 0 
L 628 4666 
z
" transform="scale(0.015625)"/>
       <path id="DejaVuSans-41" d="M 2188 4044 
L 1331 1722 
L 3047 1722 
L 2188 4044 
z
M 1831 4666 
L 2547 4666 
L 4325 0 
L 3669 0 
L 3244 1197 
L 1141 1197 
L 716 0 
L 50 0 
L 1831 4666 
z
" transform="scale(0.015625)"/>
       <path id="DejaVuSans-44" d="M 1259 4147 
L 1259 519 
L 2022 519 
Q 2988 519 3436 956 
Q 3884 1394 3884 2338 
Q 3884 3275 3436 3711 
Q 2988 4147 2022 4147 
L 1259 4147 
z
M 628 4666 
L 1925 4666 
Q 3281 4666 3915 4102 
Q 4550 3538 4550 2338 
Q 4550 1131 3912 565 
Q 3275 0 1925 0 
L 628 0 
L 628 4666 
z
" transform="scale(0.015625)"/>
       <path id="DejaVuSans-28" d="M 1984 4856 
Q 1566 4138 1362 3434 
Q 1159 2731 1159 2009 
Q 1159 1288 1364 580 
Q 1569 -128 1984 -844 
L 1484 -844 
Q 1016 -109 783 600 
Q 550 1309 550 2009 
Q 550 2706 781 3412 
Q 1013 4119 1484 4856 
L 1984 4856 
z
" transform="scale(0.015625)"/>
       <path id="DejaVuSans-50" d="M 1259 4147 
L 1259 2394 
L 2053 2394 
Q 2494 2394 2734 2622 
Q 2975 2850 2975 3272 
Q 2975 3691 2734 3919 
Q 2494 4147 2053 4147 
L 1259 4147 
z
M 628 4666 
L 2053 4666 
Q 2838 4666 3239 4311 
Q 3641 3956 3641 3272 
Q 3641 2581 3239 2228 
Q 2838 1875 2053 1875 
L 1259 1875 
L 1259 0 
L 628 0 
L 628 4666 
z
" transform="scale(0.015625)"/>
       <path id="DejaVuSans-29" d="M 513 4856 
L 1013 4856 
Q 1481 4119 1714 3412 
Q 1947 2706 1947 2009 
Q 1947 1309 1714 600 
Q 1481 -109 1013 -844 
L 513 -844 
Q 928 -128 1133 580 
Q 1338 1288 1338 2009 
Q 1338 2731 1133 3434 
Q 928 4138 513 4856 
z
" transform="scale(0.015625)"/>
       <path id="DejaVuSans-48" d="M 628 4666 
L 1259 4666 
L 1259 2753 
L 3553 2753 
L 3553 4666 
L 4184 4666 
L 4184 0 
L 3553 0 
L 3553 2222 
L 1259 2222 
L 1259 0 
L 628 0 
L 628 4666 
z
" transform="scale(0.015625)"/>
       <path id="DejaVuSans-Oblique-3b1" d="M 2619 1628 
L 2622 2350 
Q 2625 3088 2069 3091 
Q 1653 3094 1394 2747 
Q 1069 2319 959 1747 
Q 825 1059 994 731 
Q 1169 397 1547 397 
Q 1966 397 2319 1063 
L 2619 1628 
z
M 2166 3578 
Q 3141 3594 3128 2584 
Q 3128 2584 3616 3500 
L 4128 3500 
L 3119 1603 
L 3109 919 
Q 3109 766 3194 638 
Q 3291 488 3391 488 
L 3669 488 
L 3575 0 
L 3228 0 
Q 2934 0 2722 263 
Q 2622 394 2619 669 
Q 2416 334 2066 50 
Q 1900 -81 1453 -78 
Q 722 -72 456 397 
Q 184 884 353 1747 
Q 534 2675 1009 3097 
Q 1544 3569 2166 3578 
z
" transform="scale(0.015625)"/>
      </defs>
      <use xlink:href="#DejaVuSans-31" transform="translate(0 0.125)"/>
      <use xlink:href="#DejaVuSans-38" transform="translate(63.623047 0.125)"/>
      <use xlink:href="#DejaVuSans-2e" transform="translate(127.246094 0.125)"/>
      <use xlink:href="#DejaVuSans-36" transform="translate(159.033203 0.125)"/>
      <use xlink:href="#DejaVuSans-37" transform="translate(222.65625 0.125)"/>
      <use xlink:href="#DejaVuSans-25" transform="translate(286.279297 0.125)"/>
      <use xlink:href="#DejaVuSans-20" transform="translate(381.298828 0.125)"/>
      <use xlink:href="#DejaVuSans-4e" transform="translate(413.085938 0.125)"/>
      <use xlink:href="#DejaVuSans-41" transform="translate(487.890625 0.125)"/>
      <use xlink:href="#DejaVuSans-44" transform="translate(556.298828 0.125)"/>
      <use xlink:href="#DejaVuSans-28" transform="translate(633.300781 0.125)"/>
      <use xlink:href="#DejaVuSans-50" transform="translate(672.314453 0.125)"/>
      <use xlink:href="#DejaVuSans-29" transform="translate(732.617188 0.125)"/>
      <use xlink:href="#DejaVuSans-48" transform="translate(766.130859 0.125)"/>
      <use xlink:href="#DejaVuSans-20" transform="translate(841.326172 0.125)"/>
      <use xlink:href="#DejaVuSans-Oblique-3b1" transform="translate(873.113281 0.125)"/>
      <use xlink:href="#DejaVuSans-31" transform="translate(939.03125 -16.28125) scale(0.7)"/>
     </g>
    </g>
    <g id="patch_12">
     <path d="M 235.44 66.39 
L 259.44 66.39 
L 259.44 57.99 
L 235.44 57.99 
z
" style="fill: #7ad151"/>
    </g>
    <g id="text_2">
     <!-- 15.47% NAD(P)H $\tau_{1}$ -->
     <g transform="translate(269.04 66.39) scale(0.12 -0.12)">
      <defs>
       <path id="DejaVuSans-35" d="M 691 4666 
L 3169 4666 
L 3169 4134 
L 1269 4134 
L 1269 2991 
Q 1406 3038 1543 3061 
Q 1681 3084 1819 3084 
Q 2600 3084 3056 2656 
Q 3513 2228 3513 1497 
Q 3513 744 3044 326 
Q 2575 -91 1722 -91 
Q 1428 -91 1123 -41 
Q 819 9 494 109 
L 494 744 
Q 775 591 1075 516 
Q 1375 441 1709 441 
Q 2250 441 2565 725 
Q 2881 1009 2881 1497 
Q 2881 1984 2565 2268 
Q 2250 2553 1709 2553 
Q 1456 2553 1204 2497 
Q 953 2441 691 2322 
L 691 4666 
z
" transform="scale(0.015625)"/>
       <path id="DejaVuSans-34" d="M 2419 4116 
L 825 1625 
L 2419 1625 
L 2419 4116 
z
M 2253 4666 
L 3047 4666 
L 3047 1625 
L 3713 1625 
L 3713 1100 
L 3047 1100 
L 3047 0 
L 2419 0 
L 2419 1100 
L 313 1100 
L 313 1709 
L 2253 4666 
z
" transform="scale(0.015625)"/>
       <path id="DejaVuSans-Oblique-3c4" d="M 2103 638 
Q 2188 488 2525 488 
L 2800 488 
L 2706 0 
L 2363 0 
Q 1800 0 1600 300 
Q 1403 606 1534 1269 
L 1856 2925 
L 541 2925 
L 653 3500 
L 3881 3500 
L 3769 2925 
L 2444 2925 
L 2113 1234 
Q 2025 781 2103 638 
z
" transform="scale(0.015625)"/>
      </defs>
      <use xlink:href="#DejaVuSans-31" transform="translate(0 0.125)"/>
      <use xlink:href="#DejaVuSans-35" transform="translate(63.623047 0.125)"/>
      <use xlink:href="#DejaVuSans-2e" transform="translate(127.246094 0.125)"/>
      <use xlink:href="#DejaVuSans-34" transform="translate(159.033203 0.125)"/>
      <use xlink:href="#DejaVuSans-37" transform="translate(222.65625 0.125)"/>
      <use xlink:href="#DejaVuSans-25" transform="translate(286.279297 0.125)"/>
      <use xlink:href="#DejaVuSans-20" transform="translate(381.298828 0.125)"/>
      <use xlink:href="#DejaVuSans-4e" transform="translate(413.085938 0.125)"/>
      <use xlink:href="#DejaVuSans-41" transform="translate(487.890625 0.125)"/>
      <use xlink:href="#DejaVuSans-44" transform="translate(556.298828 0.125)"/>
      <use xlink:href="#DejaVuSans-28" transform="translate(633.300781 0.125)"/>
      <use xlink:href="#DejaVuSans-50" transform="translate(672.314453 0.125)"/>
      <use xlink:href="#DejaVuSans-29" transform="translate(732.617188 0.125)"/>
      <use xlink:href="#DejaVuSans-48" transform="translate(766.130859 0.125)"/>
      <use xlink:href="#DejaVuSans-20" transform="translate(841.326172 0.125)"/>
      <use xlink:href="#DejaVuSans-Oblique-3c4" transform="translate(873.113281 0.125)"/>
      <use xlink:href="#DejaVuSans-31" transform="translate(933.318359 -16.28125) scale(0.7)"/>
     </g>
    </g>
    <g id="patch_13">
     <path d="M 235.44 84.00375 
L 259.44 84.00375 
L 259.44 75.60375 
L 235.44 75.60375 
z
" style="fill: #44bf70"/>
    </g>
    <g id="text_3">
     <!-- 13.35% NAD(P)H $\tau_{m}$ -->
     <g transform="translate(269.04 84.00375) scale(0.12 -0.12)">
      <defs>
       <path id="DejaVuSans-33" d="M 2597 2516 
Q 3050 2419 3304 2112 
Q 3559 1806 3559 1356 
Q 3559 666 3084 287 
Q 2609 -91 1734 -91 
Q 1441 -91 1130 -33 
Q 819 25 488 141 
L 488 750 
Q 750 597 1062 519 
Q 1375 441 1716 441 
Q 2309 441 2620 675 
Q 2931 909 2931 1356 
Q 2931 1769 2642 2001 
Q 2353 2234 1838 2234 
L 1294 2234 
L 1294 2753 
L 1863 2753 
Q 2328 2753 2575 2939 
Q 2822 3125 2822 3475 
Q 2822 3834 2567 4026 
Q 2313 4219 1838 4219 
Q 1578 4219 1281 4162 
Q 984 4106 628 3988 
L 628 4550 
Q 988 4650 1302 4700 
Q 1616 4750 1894 4750 
Q 2613 4750 3031 4423 
Q 3450 4097 3450 3541 
Q 3450 3153 3228 2886 
Q 3006 2619 2597 2516 
z
" transform="scale(0.015625)"/>
       <path id="DejaVuSans-Oblique-6d" d="M 5747 2113 
L 5338 0 
L 4763 0 
L 5166 2094 
Q 5191 2228 5203 2325 
Q 5216 2422 5216 2491 
Q 5216 2772 5059 2928 
Q 4903 3084 4622 3084 
Q 4203 3084 3875 2770 
Q 3547 2456 3450 1953 
L 3066 0 
L 2491 0 
L 2900 2094 
Q 2925 2209 2937 2307 
Q 2950 2406 2950 2484 
Q 2950 2769 2794 2926 
Q 2638 3084 2363 3084 
Q 1938 3084 1609 2770 
Q 1281 2456 1184 1953 
L 800 0 
L 225 0 
L 909 3500 
L 1484 3500 
L 1375 2956 
Q 1609 3263 1923 3423 
Q 2238 3584 2597 3584 
Q 2978 3584 3223 3384 
Q 3469 3184 3519 2828 
Q 3781 3197 4126 3390 
Q 4472 3584 4856 3584 
Q 5306 3584 5551 3325 
Q 5797 3066 5797 2591 
Q 5797 2488 5784 2364 
Q 5772 2241 5747 2113 
z
" transform="scale(0.015625)"/>
      </defs>
      <use xlink:href="#DejaVuSans-31" transform="translate(0 0.125)"/>
      <use xlink:href="#DejaVuSans-33" transform="translate(63.623047 0.125)"/>
      <use xlink:href="#DejaVuSans-2e" transform="translate(127.246094 0.125)"/>
      <use xlink:href="#DejaVuSans-33" transform="translate(159.033203 0.125)"/>
      <use xlink:href="#DejaVuSans-35" transform="translate(222.65625 0.125)"/>
      <use xlink:href="#DejaVuSans-25" transform="translate(286.279297 0.125)"/>
      <use xlink:href="#DejaVuSans-20" transform="translate(381.298828 0.125)"/>
      <use xlink:href="#DejaVuSans-4e" transform="translate(413.085938 0.125)"/>
      <use xlink:href="#DejaVuSans-41" transform="translate(487.890625 0.125)"/>
      <use xlink:href="#DejaVuSans-44" transform="translate(556.298828 0.125)"/>
      <use xlink:href="#DejaVuSans-28" transform="translate(633.300781 0.125)"/>
      <use xlink:href="#DejaVuSans-50" transform="translate(672.314453 0.125)"/>
      <use xlink:href="#DejaVuSans-29" transform="translate(732.617188 0.125)"/>
      <use xlink:href="#DejaVuSans-48" transform="translate(766.130859 0.125)"/>
      <use xlink:href="#DejaVuSans-20" transform="translate(841.326172 0.125)"/>
      <use xlink:href="#DejaVuSans-Oblique-3c4" transform="translate(873.113281 0.125)"/>
      <use xlink:href="#DejaVuSans-Oblique-6d" transform="translate(933.318359 -16.28125) scale(0.7)"/>
     </g>
    </g>
    <g id="patch_14">
     <path d="M 235.44 101.6175 
L 259.44 101.6175 
L 259.44 93.2175 
L 235.44 93.2175 
z
" style="fill: #22a884"/>
    </g>
    <g id="text_4">
     <!-- 12.49% FAD $\tau_{m}$ -->
     <g transform="translate(269.04 101.6175) scale(0.12 -0.12)">
      <defs>
       <path id="DejaVuSans-32" d="M 1228 531 
L 3431 531 
L 3431 0 
L 469 0 
L 469 531 
Q 828 903 1448 1529 
Q 2069 2156 2228 2338 
Q 2531 2678 2651 2914 
Q 2772 3150 2772 3378 
Q 2772 3750 2511 3984 
Q 2250 4219 1831 4219 
Q 1534 4219 1204 4116 
Q 875 4013 500 3803 
L 500 4441 
Q 881 4594 1212 4672 
Q 1544 4750 1819 4750 
Q 2544 4750 2975 4387 
Q 3406 4025 3406 3419 
Q 3406 3131 3298 2873 
Q 3191 2616 2906 2266 
Q 2828 2175 2409 1742 
Q 1991 1309 1228 531 
z
" transform="scale(0.015625)"/>
       <path id="DejaVuSans-39" d="M 703 97 
L 703 672 
Q 941 559 1184 500 
Q 1428 441 1663 441 
Q 2288 441 2617 861 
Q 2947 1281 2994 2138 
Q 2813 1869 2534 1725 
Q 2256 1581 1919 1581 
Q 1219 1581 811 2004 
Q 403 2428 403 3163 
Q 403 3881 828 4315 
Q 1253 4750 1959 4750 
Q 2769 4750 3195 4129 
Q 3622 3509 3622 2328 
Q 3622 1225 3098 567 
Q 2575 -91 1691 -91 
Q 1453 -91 1209 -44 
Q 966 3 703 97 
z
M 1959 2075 
Q 2384 2075 2632 2365 
Q 2881 2656 2881 3163 
Q 2881 3666 2632 3958 
Q 2384 4250 1959 4250 
Q 1534 4250 1286 3958 
Q 1038 3666 1038 3163 
Q 1038 2656 1286 2365 
Q 1534 2075 1959 2075 
z
" transform="scale(0.015625)"/>
       <path id="DejaVuSans-46" d="M 628 4666 
L 3309 4666 
L 3309 4134 
L 1259 4134 
L 1259 2759 
L 3109 2759 
L 3109 2228 
L 1259 2228 
L 1259 0 
L 628 0 
L 628 4666 
z
" transform="scale(0.015625)"/>
      </defs>
      <use xlink:href="#DejaVuSans-31" transform="translate(0 0.78125)"/>
      <use xlink:href="#DejaVuSans-32" transform="translate(63.623047 0.78125)"/>
      <use xlink:href="#DejaVuSans-2e" transform="translate(127.246094 0.78125)"/>
      <use xlink:href="#DejaVuSans-34" transform="translate(159.033203 0.78125)"/>
      <use xlink:href="#DejaVuSans-39" transform="translate(222.65625 0.78125)"/>
      <use xlink:href="#DejaVuSans-25" transform="translate(286.279297 0.78125)"/>
      <use xlink:href="#DejaVuSans-20" transform="translate(381.298828 0.78125)"/>
      <use xlink:href="#DejaVuSans-46" transform="translate(413.085938 0.78125)"/>
      <use xlink:href="#DejaVuSans-41" transform="translate(470.605469 0.78125)"/>
      <use xlink:href="#DejaVuSans-44" transform="translate(539.013672 0.78125)"/>
      <use xlink:href="#DejaVuSans-20" transform="translate(616.015625 0.78125)"/>
      <use xlink:href="#DejaVuSans-Oblique-3c4" transform="translate(647.802734 0.78125)"/>
      <use xlink:href="#DejaVuSans-Oblique-6d" transform="translate(708.007812 -15.625) scale(0.7)"/>
     </g>
    </g>
    <g id="patch_15">
     <path d="M 235.44 119.23125 
L 259.44 119.23125 
L 259.44 110.83125 
L 235.44 110.83125 
z
" style="fill: #21908d"/>
    </g>
    <g id="text_5">
     <!-- 11.78% FAD $\tau_{1}$ -->
     <g transform="translate(269.04 119.23125) scale(0.12 -0.12)">
      <use xlink:href="#DejaVuSans-31" transform="translate(0 0.78125)"/>
      <use xlink:href="#DejaVuSans-31" transform="translate(63.623047 0.78125)"/>
      <use xlink:href="#DejaVuSans-2e" transform="translate(127.246094 0.78125)"/>
      <use xlink:href="#DejaVuSans-37" transform="translate(151.283203 0.78125)"/>
      <use xlink:href="#DejaVuSans-38" transform="translate(214.90625 0.78125)"/>
      <use xlink:href="#DejaVuSans-25" transform="translate(278.529297 0.78125)"/>
      <use xlink:href="#DejaVuSans-20" transform="translate(373.548828 0.78125)"/>
      <use xlink:href="#DejaVuSans-46" transform="translate(405.335938 0.78125)"/>
      <use xlink:href="#DejaVuSans-41" transform="translate(462.855469 0.78125)"/>
      <use xlink:href="#DejaVuSans-44" transform="translate(531.263672 0.78125)"/>
      <use xlink:href="#DejaVuSans-20" transform="translate(608.265625 0.78125)"/>
      <use xlink:href="#DejaVuSans-Oblique-3c4" transform="translate(640.052734 0.78125)"/>
      <use xlink:href="#DejaVuSans-31" transform="translate(700.257812 -15.625) scale(0.7)"/>
     </g>
    </g>
    <g id="patch_16">
     <path d="M 235.44 136.845 
L 259.44 136.845 
L 259.44 128.445 
L 235.44 128.445 
z
" style="fill: #2a788e"/>
    </g>
    <g id="text_6">
     <!-- 11.56% Redox Ratio -->
     <g transform="translate(269.04 136.845) scale(0.12 -0.12)">
      <defs>
       <path id="DejaVuSans-52" d="M 2841 2188 
Q 3044 2119 3236 1894 
Q 3428 1669 3622 1275 
L 4263 0 
L 3584 0 
L 2988 1197 
Q 2756 1666 2539 1819 
Q 2322 1972 1947 1972 
L 1259 1972 
L 1259 0 
L 628 0 
L 628 4666 
L 2053 4666 
Q 2853 4666 3247 4331 
Q 3641 3997 3641 3322 
Q 3641 2881 3436 2590 
Q 3231 2300 2841 2188 
z
M 1259 4147 
L 1259 2491 
L 2053 2491 
Q 2509 2491 2742 2702 
Q 2975 2913 2975 3322 
Q 2975 3731 2742 3939 
Q 2509 4147 2053 4147 
L 1259 4147 
z
" transform="scale(0.015625)"/>
       <path id="DejaVuSans-65" d="M 3597 1894 
L 3597 1613 
L 953 1613 
Q 991 1019 1311 708 
Q 1631 397 2203 397 
Q 2534 397 2845 478 
Q 3156 559 3463 722 
L 3463 178 
Q 3153 47 2828 -22 
Q 2503 -91 2169 -91 
Q 1331 -91 842 396 
Q 353 884 353 1716 
Q 353 2575 817 3079 
Q 1281 3584 2069 3584 
Q 2775 3584 3186 3129 
Q 3597 2675 3597 1894 
z
M 3022 2063 
Q 3016 2534 2758 2815 
Q 2500 3097 2075 3097 
Q 1594 3097 1305 2825 
Q 1016 2553 972 2059 
L 3022 2063 
z
" transform="scale(0.015625)"/>
       <path id="DejaVuSans-64" d="M 2906 2969 
L 2906 4863 
L 3481 4863 
L 3481 0 
L 2906 0 
L 2906 525 
Q 2725 213 2448 61 
Q 2172 -91 1784 -91 
Q 1150 -91 751 415 
Q 353 922 353 1747 
Q 353 2572 751 3078 
Q 1150 3584 1784 3584 
Q 2172 3584 2448 3432 
Q 2725 3281 2906 2969 
z
M 947 1747 
Q 947 1113 1208 752 
Q 1469 391 1925 391 
Q 2381 391 2643 752 
Q 2906 1113 2906 1747 
Q 2906 2381 2643 2742 
Q 2381 3103 1925 3103 
Q 1469 3103 1208 2742 
Q 947 2381 947 1747 
z
" transform="scale(0.015625)"/>
       <path id="DejaVuSans-6f" d="M 1959 3097 
Q 1497 3097 1228 2736 
Q 959 2375 959 1747 
Q 959 1119 1226 758 
Q 1494 397 1959 397 
Q 2419 397 2687 759 
Q 2956 1122 2956 1747 
Q 2956 2369 2687 2733 
Q 2419 3097 1959 3097 
z
M 1959 3584 
Q 2709 3584 3137 3096 
Q 3566 2609 3566 1747 
Q 3566 888 3137 398 
Q 2709 -91 1959 -91 
Q 1206 -91 779 398 
Q 353 888 353 1747 
Q 353 2609 779 3096 
Q 1206 3584 1959 3584 
z
" transform="scale(0.015625)"/>
       <path id="DejaVuSans-78" d="M 3513 3500 
L 2247 1797 
L 3578 0 
L 2900 0 
L 1881 1375 
L 863 0 
L 184 0 
L 1544 1831 
L 300 3500 
L 978 3500 
L 1906 2253 
L 2834 3500 
L 3513 3500 
z
" transform="scale(0.015625)"/>
       <path id="DejaVuSans-61" d="M 2194 1759 
Q 1497 1759 1228 1600 
Q 959 1441 959 1056 
Q 959 750 1161 570 
Q 1363 391 1709 391 
Q 2188 391 2477 730 
Q 2766 1069 2766 1631 
L 2766 1759 
L 2194 1759 
z
M 3341 1997 
L 3341 0 
L 2766 0 
L 2766 531 
Q 2569 213 2275 61 
Q 1981 -91 1556 -91 
Q 1019 -91 701 211 
Q 384 513 384 1019 
Q 384 1609 779 1909 
Q 1175 2209 1959 2209 
L 2766 2209 
L 2766 2266 
Q 2766 2663 2505 2880 
Q 2244 3097 1772 3097 
Q 1472 3097 1187 3025 
Q 903 2953 641 2809 
L 641 3341 
Q 956 3463 1253 3523 
Q 1550 3584 1831 3584 
Q 2591 3584 2966 3190 
Q 3341 2797 3341 1997 
z
" transform="scale(0.015625)"/>
       <path id="DejaVuSans-74" d="M 1172 4494 
L 1172 3500 
L 2356 3500 
L 2356 3053 
L 1172 3053 
L 1172 1153 
Q 1172 725 1289 603 
Q 1406 481 1766 481 
L 2356 481 
L 2356 0 
L 1766 0 
Q 1100 0 847 248 
Q 594 497 594 1153 
L 594 3053 
L 172 3053 
L 172 3500 
L 594 3500 
L 594 4494 
L 1172 4494 
z
" transform="scale(0.015625)"/>
       <path id="DejaVuSans-69" d="M 603 3500 
L 1178 3500 
L 1178 0 
L 603 0 
L 603 3500 
z
M 603 4863 
L 1178 4863 
L 1178 4134 
L 603 4134 
L 603 4863 
z
" transform="scale(0.015625)"/>
      </defs>
      <use xlink:href="#DejaVuSans-31"/>
      <use xlink:href="#DejaVuSans-31" x="63.623047"/>
      <use xlink:href="#DejaVuSans-2e" x="127.246094"/>
      <use xlink:href="#DejaVuSans-35" x="159.033203"/>
      <use xlink:href="#DejaVuSans-36" x="222.65625"/>
      <use xlink:href="#DejaVuSans-25" x="286.279297"/>
      <use xlink:href="#DejaVuSans-20" x="381.298828"/>
      <use xlink:href="#DejaVuSans-52" x="413.085938"/>
      <use xlink:href="#DejaVuSans-65" x="478.068359"/>
      <use xlink:href="#DejaVuSans-64" x="539.591797"/>
      <use xlink:href="#DejaVuSans-6f" x="603.068359"/>
      <use xlink:href="#DejaVuSans-78" x="661.125"/>
      <use xlink:href="#DejaVuSans-20" x="720.304688"/>
      <use xlink:href="#DejaVuSans-52" x="752.091797"/>
      <use xlink:href="#DejaVuSans-61" x="819.324219"/>
      <use xlink:href="#DejaVuSans-74" x="880.603516"/>
      <use xlink:href="#DejaVuSans-69" x="919.8125"/>
      <use xlink:href="#DejaVuSans-6f" x="947.595703"/>
     </g>
    </g>
    <g id="patch_17">
     <path d="M 235.44 154.45875 
L 259.44 154.45875 
L 259.44 146.05875 
L 235.44 146.05875 
z
" style="fill: #355f8d"/>
    </g>
    <g id="text_7">
     <!-- 8.06% FAD $\alpha_{1}$ -->
     <g transform="translate(269.04 154.45875) scale(0.12 -0.12)">
      <defs>
       <path id="DejaVuSans-30" d="M 2034 4250 
Q 1547 4250 1301 3770 
Q 1056 3291 1056 2328 
Q 1056 1369 1301 889 
Q 1547 409 2034 409 
Q 2525 409 2770 889 
Q 3016 1369 3016 2328 
Q 3016 3291 2770 3770 
Q 2525 4250 2034 4250 
z
M 2034 4750 
Q 2819 4750 3233 4129 
Q 3647 3509 3647 2328 
Q 3647 1150 3233 529 
Q 2819 -91 2034 -91 
Q 1250 -91 836 529 
Q 422 1150 422 2328 
Q 422 3509 836 4129 
Q 1250 4750 2034 4750 
z
" transform="scale(0.015625)"/>
      </defs>
      <use xlink:href="#DejaVuSans-38" transform="translate(0 0.78125)"/>
      <use xlink:href="#DejaVuSans-2e" transform="translate(63.623047 0.78125)"/>
      <use xlink:href="#DejaVuSans-30" transform="translate(95.410156 0.78125)"/>
      <use xlink:href="#DejaVuSans-36" transform="translate(159.033203 0.78125)"/>
      <use xlink:href="#DejaVuSans-25" transform="translate(222.65625 0.78125)"/>
      <use xlink:href="#DejaVuSans-20" transform="translate(317.675781 0.78125)"/>
      <use xlink:href="#DejaVuSans-46" transform="translate(349.462891 0.78125)"/>
      <use xlink:href="#DejaVuSans-41" transform="translate(406.982422 0.78125)"/>
      <use xlink:href="#DejaVuSans-44" transform="translate(475.390625 0.78125)"/>
      <use xlink:href="#DejaVuSans-20" transform="translate(552.392578 0.78125)"/>
      <use xlink:href="#DejaVuSans-Oblique-3b1" transform="translate(584.179688 0.78125)"/>
      <use xlink:href="#DejaVuSans-31" transform="translate(650.097656 -15.625) scale(0.7)"/>
     </g>
    </g>
    <g id="patch_18">
     <path d="M 235.44 172.0725 
L 259.44 172.0725 
L 259.44 163.6725 
L 235.44 163.6725 
z
" style="fill: #414487"/>
    </g>
    <g id="text_8">
     <!-- 4.91% NAD(P)H $\tau_{2}$ -->
     <g transform="translate(269.04 172.0725) scale(0.12 -0.12)">
      <use xlink:href="#DejaVuSans-34" transform="translate(0 0.125)"/>
      <use xlink:href="#DejaVuSans-2e" transform="translate(63.623047 0.125)"/>
      <use xlink:href="#DejaVuSans-39" transform="translate(95.410156 0.125)"/>
      <use xlink:href="#DejaVuSans-31" transform="translate(159.033203 0.125)"/>
      <use xlink:href="#DejaVuSans-25" transform="translate(222.65625 0.125)"/>
      <use xlink:href="#DejaVuSans-20" transform="translate(317.675781 0.125)"/>
      <use xlink:href="#DejaVuSans-4e" transform="translate(349.462891 0.125)"/>
      <use xlink:href="#DejaVuSans-41" transform="translate(424.267578 0.125)"/>
      <use xlink:href="#DejaVuSans-44" transform="translate(492.675781 0.125)"/>
      <use xlink:href="#DejaVuSans-28" transform="translate(569.677734 0.125)"/>
      <use xlink:href="#DejaVuSans-50" transform="translate(608.691406 0.125)"/>
      <use xlink:href="#DejaVuSans-29" transform="translate(668.994141 0.125)"/>
      <use xlink:href="#DejaVuSans-48" transform="translate(702.507812 0.125)"/>
      <use xlink:href="#DejaVuSans-20" transform="translate(777.703125 0.125)"/>
      <use xlink:href="#DejaVuSans-Oblique-3c4" transform="translate(809.490234 0.125)"/>
      <use xlink:href="#DejaVuSans-32" transform="translate(869.695312 -16.28125) scale(0.7)"/>
     </g>
    </g>
    <g id="patch_19">
     <path d="M 235.44 189.68625 
L 259.44 189.68625 
L 259.44 181.28625 
L 235.44 181.28625 
z
" style="fill: #482475"/>
    </g>
    <g id="text_9">
     <!-- 3.70% FAD $\tau_{2}$ -->
     <g transform="translate(269.04 189.68625) scale(0.12 -0.12)">
      <use xlink:href="#DejaVuSans-33" transform="translate(0 0.78125)"/>
      <use xlink:href="#DejaVuSans-2e" transform="translate(63.623047 0.78125)"/>
      <use xlink:href="#DejaVuSans-37" transform="translate(87.660156 0.78125)"/>
      <use xlink:href="#DejaVuSans-30" transform="translate(151.283203 0.78125)"/>
      <use xlink:href="#DejaVuSans-25" transform="translate(214.90625 0.78125)"/>
      <use xlink:href="#DejaVuSans-20" transform="translate(309.925781 0.78125)"/>
      <use xlink:href="#DejaVuSans-46" transform="translate(341.712891 0.78125)"/>
      <use xlink:href="#DejaVuSans-41" transform="translate(399.232422 0.78125)"/>
      <use xlink:href="#DejaVuSans-44" transform="translate(467.640625 0.78125)"/>
      <use xlink:href="#DejaVuSans-20" transform="translate(544.642578 0.78125)"/>
      <use xlink:href="#DejaVuSans-Oblique-3c4" transform="translate(576.429688 0.78125)"/>
      <use xlink:href="#DejaVuSans-32" transform="translate(636.634766 -15.625) scale(0.7)"/>
     </g>
    </g>
   </g>
  </g>
 </g>
</svg>
