<?xml version="1.0" encoding="utf-8" standalone="no"?>
<!DOCTYPE svg PUBLIC "-//W3C//DTD SVG 1.1//EN"
  "http://www.w3.org/Graphics/SVG/1.1/DTD/svg11.dtd">
<svg xmlns:xlink="http://www.w3.org/1999/xlink" width="985.618125pt" height="1132.175625pt" viewBox="0 0 985.618125 1132.175625" xmlns="http://www.w3.org/2000/svg" version="1.1">
 <metadata>
  <rdf:RDF xmlns:dc="http://purl.org/dc/elements/1.1/" xmlns:cc="http://creativecommons.org/ns#" xmlns:rdf="http://www.w3.org/1999/02/22-rdf-syntax-ns#">
   <cc:Work>
    <dc:type rdf:resource="http://purl.org/dc/dcmitype/StillImage"/>
    <dc:date>2022-12-06T15:45:12.694491</dc:date>
    <dc:format>image/svg+xml</dc:format>
    <dc:creator>
     <cc:Agent>
      <dc:title>Matplotlib v3.6.0, https://matplotlib.org/</dc:title>
     </cc:Agent>
    </dc:creator>
   </cc:Work>
  </rdf:RDF>
 </metadata>
 <defs>
  <style type="text/css">*{stroke-linejoin: round; stroke-linecap: butt}</style>
 </defs>
 <g id="figure_1">
  <g id="patch_1">
   <path d="M 0 1132.175625 
L 985.618125 1132.175625 
L 985.618125 0 
L 0 0 
z
" style="fill: #ffffff"/>
  </g>
  <g id="axes_1">
   <g id="patch_2">
    <path d="M 112.7925 856.111875 
L 949.7925 856.111875 
L 949.7925 40.711875 
L 112.7925 40.711875 
z
" style="fill: #ffffff"/>
   </g>
   <g id="matplotlib.axis_1">
    <g id="xtick_1">
     <g id="text_1">
      <text style="fill: #262626; font: 36px 'sans-serif'; text-anchor: middle" x="112.7925" y="892.96625" transform="rotate(-0 112.7925 892.96625)">0.0</text>
     </g>
    </g>
    <g id="xtick_2">
     <g id="text_2">
      <text style="fill: #262626; font: 36px 'sans-serif'; text-anchor: middle" x="280.1925" y="892.96625" transform="rotate(-0 280.1925 892.96625)">0.2</text>
     </g>
    </g>
    <g id="xtick_3">
     <g id="text_3">
      <text style="fill: #262626; font: 36px 'sans-serif'; text-anchor: middle" x="447.5925" y="892.96625" transform="rotate(-0 447.5925 892.96625)">0.4</text>
     </g>
    </g>
    <g id="xtick_4">
     <g id="text_4">
      <text style="fill: #262626; font: 36px 'sans-serif'; text-anchor: middle" x="614.9925" y="892.96625" transform="rotate(-0 614.9925 892.96625)">0.6</text>
     </g>
    </g>
    <g id="xtick_5">
     <g id="text_5">
      <text style="fill: #262626; font: 36px 'sans-serif'; text-anchor: middle" x="782.3925" y="892.96625" transform="rotate(-0 782.3925 892.96625)">0.8</text>
     </g>
    </g>
    <g id="xtick_6">
     <g id="text_6">
      <text style="fill: #262626; font: 36px 'sans-serif'; text-anchor: middle" x="949.7925" y="892.96625" transform="rotate(-0 949.7925 892.96625)">1.0</text>
     </g>
    </g>
    <g id="text_7">
     <text style="fill: #262626; font: 36px 'sans-serif'; text-anchor: middle" x="531.2925" y="931.8075" transform="rotate(-0 531.2925 931.8075)">False Positive Rate</text>
    </g>
   </g>
   <g id="matplotlib.axis_2">
    <g id="ytick_1">
     <g id="text_8">
      <text style="fill: #262626; font: 36px 'sans-serif'; text-anchor: end" x="103.2925" y="869.789062" transform="rotate(-0 103.2925 869.789062)">0.0</text>
     </g>
    </g>
    <g id="ytick_2">
     <g id="text_9">
      <text style="fill: #262626; font: 36px 'sans-serif'; text-anchor: end" x="103.2925" y="706.709062" transform="rotate(-0 103.2925 706.709062)">0.2</text>
     </g>
    </g>
    <g id="ytick_3">
     <g id="text_10">
      <text style="fill: #262626; font: 36px 'sans-serif'; text-anchor: end" x="103.2925" y="543.629062" transform="rotate(-0 103.2925 543.629062)">0.4</text>
     </g>
    </g>
    <g id="ytick_4">
     <g id="text_11">
      <text style="fill: #262626; font: 36px 'sans-serif'; text-anchor: end" x="103.2925" y="380.549062" transform="rotate(-0 103.2925 380.549062)">0.6</text>
     </g>
    </g>
    <g id="ytick_5">
     <g id="text_12">
      <text style="fill: #262626; font: 36px 'sans-serif'; text-anchor: end" x="103.2925" y="217.469062" transform="rotate(-0 103.2925 217.469062)">0.8</text>
     </g>
    </g>
    <g id="ytick_6">
     <g id="text_13">
      <text style="fill: #262626; font: 36px 'sans-serif'; text-anchor: end" x="103.2925" y="54.389062" transform="rotate(-0 103.2925 54.389062)">1.0</text>
     </g>
    </g>
    <g id="text_14">
     <text style="fill: #262626; font: 36px 'sans-serif'; text-anchor: middle" x="34.554375" y="448.411875" transform="rotate(-90 34.554375 448.411875)">True Positive Rate</text>
    </g>
   </g>
   <g id="line2d_1">
    <path d="M 112.7925 856.111875 
L 112.7925 852.926719 
L 113.979734 852.926719 
L 113.979734 849.741562 
L 115.166968 849.741562 
L 115.166968 848.679844 
L 116.354202 848.679844 
L 116.354202 847.618125 
L 116.947819 847.618125 
L 116.947819 846.556406 
L 117.541436 846.556406 
L 117.541436 845.494687 
L 118.72867 845.494687 
L 118.72867 843.37125 
L 119.322287 843.37125 
L 119.322287 839.124375 
L 119.915904 839.124375 
L 119.915904 830.630625 
L 120.509521 830.630625 
L 120.509521 824.260312 
L 121.103138 824.260312 
L 121.103138 813.643125 
L 121.696755 813.643125 
L 121.696755 810.457969 
L 122.290372 810.457969 
L 122.290372 765.865781 
L 122.883989 765.865781 
L 122.883989 762.680625 
L 123.477606 762.680625 
L 123.477606 760.557187 
L 124.071223 760.557187 
L 124.071223 753.125156 
L 124.66484 753.125156 
L 124.66484 747.816562 
L 125.258457 747.816562 
L 125.258457 731.890781 
L 126.445691 731.890781 
L 126.445691 729.767344 
L 127.632926 729.767344 
L 127.632926 727.643906 
L 128.226543 727.643906 
L 128.226543 711.718125 
L 128.82016 711.718125 
L 128.82016 704.286094 
L 129.413777 704.286094 
L 129.413777 696.854062 
L 130.007394 696.854062 
L 130.007394 676.681406 
L 131.194628 676.681406 
L 131.194628 673.49625 
L 131.788245 673.49625 
L 131.788245 655.447031 
L 132.381862 655.447031 
L 132.381862 654.385312 
L 132.975479 654.385312 
L 132.975479 651.200156 
L 133.569096 651.200156 
L 133.569096 649.076719 
L 134.162713 649.076719 
L 134.162713 636.336094 
L 134.75633 636.336094 
L 134.75633 632.089219 
L 135.349947 632.089219 
L 135.349947 631.0275 
L 135.943564 631.0275 
L 135.943564 611.916562 
L 137.130798 611.916562 
L 137.130798 610.854844 
L 137.724415 610.854844 
L 137.724415 609.793125 
L 138.318032 609.793125 
L 138.318032 606.607969 
L 140.098883 606.607969 
L 140.098883 604.484531 
L 140.6925 604.484531 
L 140.6925 601.299375 
L 141.286117 601.299375 
L 141.286117 598.114219 
L 141.879734 598.114219 
L 141.879734 590.682187 
L 142.473351 590.682187 
L 142.473351 570.509531 
L 143.066968 570.509531 
L 143.066968 569.447812 
L 143.660585 569.447812 
L 143.660585 555.645469 
L 144.254202 555.645469 
L 144.254202 554.58375 
L 144.847819 554.58375 
L 144.847819 542.904844 
L 145.441436 542.904844 
L 145.441436 534.411094 
L 146.035053 534.411094 
L 146.035053 532.287656 
L 147.222287 532.287656 
L 147.222287 526.979062 
L 149.596755 526.979062 
L 149.596755 525.917344 
L 150.783989 525.917344 
L 150.783989 518.485312 
L 151.377606 518.485312 
L 151.377606 516.361875 
L 151.971223 516.361875 
L 151.971223 515.300156 
L 152.56484 515.300156 
L 152.56484 514.238437 
L 153.158457 514.238437 
L 153.158457 513.176719 
L 153.752074 513.176719 
L 153.752074 489.818906 
L 154.345691 489.818906 
L 154.345691 484.510312 
L 154.939309 484.510312 
L 154.939309 482.386875 
L 156.126543 482.386875 
L 156.126543 481.325156 
L 156.72016 481.325156 
L 156.72016 479.201719 
L 157.907394 479.201719 
L 157.907394 478.14 
L 158.501011 478.14 
L 158.501011 476.016562 
L 159.094628 476.016562 
L 159.094628 468.584531 
L 159.688245 468.584531 
L 159.688245 466.461094 
L 160.875479 466.461094 
L 160.875479 465.399375 
L 162.062713 465.399375 
L 162.062713 462.214219 
L 163.249947 462.214219 
L 163.249947 455.843906 
L 163.843564 455.843906 
L 163.843564 451.597031 
L 165.624415 451.597031 
L 165.624415 449.473594 
L 166.218032 449.473594 
L 166.218032 446.288437 
L 167.405266 446.288437 
L 167.405266 434.609531 
L 167.998883 434.609531 
L 167.998883 431.424375 
L 168.5925 431.424375 
L 168.5925 430.362656 
L 169.779734 430.362656 
L 169.779734 428.239219 
L 170.373351 428.239219 
L 170.373351 425.054062 
L 170.966968 425.054062 
L 170.966968 421.868906 
L 171.560585 421.868906 
L 171.560585 420.807187 
L 172.154202 420.807187 
L 172.154202 419.745469 
L 173.341436 419.745469 
L 173.341436 418.68375 
L 175.122287 418.68375 
L 175.122287 415.498594 
L 175.715904 415.498594 
L 175.715904 410.19 
L 176.309521 410.19 
L 176.309521 399.572812 
L 176.903138 399.572812 
L 176.903138 392.140781 
L 177.496755 392.140781 
L 177.496755 390.017344 
L 178.683989 390.017344 
L 178.683989 388.955625 
L 179.277606 388.955625 
L 179.277606 387.893906 
L 179.871223 387.893906 
L 179.871223 384.70875 
L 181.058457 384.70875 
L 181.058457 383.647031 
L 182.245691 383.647031 
L 182.245691 380.461875 
L 182.839309 380.461875 
L 182.839309 379.400156 
L 183.432926 379.400156 
L 183.432926 377.276719 
L 184.62016 377.276719 
L 184.62016 371.968125 
L 185.213777 371.968125 
L 185.213777 366.659531 
L 185.807394 366.659531 
L 185.807394 362.412656 
L 186.401011 362.412656 
L 186.401011 359.2275 
L 186.994628 359.2275 
L 186.994628 353.918906 
L 187.588245 353.918906 
L 187.588245 351.795469 
L 188.181862 351.795469 
L 188.181862 350.73375 
L 188.775479 350.73375 
L 188.775479 344.363437 
L 189.369096 344.363437 
L 189.369096 333.74625 
L 189.962713 333.74625 
L 189.962713 329.499375 
L 190.55633 329.499375 
L 190.55633 328.437656 
L 191.149947 328.437656 
L 191.149947 325.2525 
L 191.743564 325.2525 
L 191.743564 323.129062 
L 192.337181 323.129062 
L 192.337181 316.75875 
L 194.711649 316.75875 
L 194.711649 314.635312 
L 197.086117 314.635312 
L 197.086117 313.573594 
L 197.679734 313.573594 
L 197.679734 310.388437 
L 199.460585 310.388437 
L 199.460585 309.326719 
L 200.054202 309.326719 
L 200.054202 306.141562 
L 200.647819 306.141562 
L 200.647819 301.894687 
L 201.835053 301.894687 
L 201.835053 300.832969 
L 202.42867 300.832969 
L 202.42867 299.77125 
L 203.022287 299.77125 
L 203.022287 297.647812 
L 203.615904 297.647812 
L 203.615904 290.215781 
L 204.209521 290.215781 
L 204.209521 289.154062 
L 207.177606 289.154062 
L 207.177606 282.78375 
L 208.36484 282.78375 
L 208.36484 281.722031 
L 208.958457 281.722031 
L 208.958457 280.660312 
L 211.332926 280.660312 
L 211.332926 279.598594 
L 211.926543 279.598594 
L 211.926543 275.351719 
L 212.52016 275.351719 
L 212.52016 273.228281 
L 216.675479 265.79625 
L 216.675479 263.672812 
L 217.269096 263.672812 
L 217.269096 261.549375 
L 217.862713 261.549375 
L 217.862713 258.364219 
L 218.45633 258.364219 
L 218.45633 255.179062 
L 219.643564 255.179062 
L 219.643564 254.117344 
L 220.237181 254.117344 
L 220.237181 253.055625 
L 220.830798 253.055625 
L 220.830798 251.993906 
L 221.424415 251.993906 
L 221.424415 245.623594 
L 222.018032 245.623594 
L 222.018032 239.253281 
L 224.986117 239.253281 
L 224.986117 237.129844 
L 226.173351 237.129844 
L 226.173351 236.068125 
L 228.547819 236.068125 
L 228.547819 232.882969 
L 229.141436 232.882969 
L 229.141436 230.759531 
L 230.32867 230.759531 
L 230.32867 229.697812 
L 230.922287 229.697812 
L 230.922287 227.574375 
L 232.109521 227.574375 
L 232.109521 226.512656 
L 232.703138 226.512656 
L 232.703138 224.389219 
L 233.890372 224.389219 
L 233.890372 220.142344 
L 235.671223 220.142344 
L 235.671223 218.018906 
L 236.26484 218.018906 
L 236.26484 216.957187 
L 236.858457 216.957187 
L 236.858457 215.895469 
L 238.045691 215.895469 
L 238.045691 210.586875 
L 239.232926 210.586875 
L 239.232926 209.525156 
L 244.575479 209.525156 
L 244.575479 205.278281 
L 246.35633 205.278281 
L 246.35633 203.154844 
L 246.949947 203.154844 
L 246.949947 199.969687 
L 247.543564 199.969687 
L 247.543564 198.907969 
L 248.730798 198.907969 
L 248.730798 194.661094 
L 249.324415 194.661094 
L 249.324415 192.537656 
L 251.105266 192.537656 
L 251.105266 191.475937 
L 251.698883 191.475937 
L 251.698883 189.3525 
L 252.2925 189.3525 
L 252.2925 188.290781 
L 255.260585 188.290781 
L 255.260585 185.105625 
L 257.041436 185.105625 
L 257.041436 182.982187 
L 257.635053 182.982187 
L 257.635053 180.85875 
L 259.415904 180.85875 
L 259.415904 178.735312 
L 260.009521 178.735312 
L 260.009521 177.673594 
L 261.196755 177.673594 
L 261.196755 174.488437 
L 262.383989 174.488437 
L 262.383989 173.426719 
L 262.977606 173.426719 
L 262.977606 172.365 
L 263.571223 172.365 
L 263.571223 171.303281 
L 265.352074 171.303281 
L 265.352074 169.179844 
L 265.945691 169.179844 
L 265.945691 168.118125 
L 267.132926 168.118125 
L 267.132926 167.056406 
L 268.32016 167.056406 
L 268.32016 163.87125 
L 270.694628 163.87125 
L 270.694628 162.809531 
L 271.288245 162.809531 
L 271.288245 161.747812 
L 271.881862 161.747812 
L 271.881862 159.624375 
L 273.662713 159.624375 
L 273.662713 157.500937 
L 276.037181 157.500937 
L 276.037181 155.3775 
L 277.224415 155.3775 
L 277.224415 151.130625 
L 279.005266 151.130625 
L 279.005266 150.068906 
L 283.754202 150.068906 
L 283.754202 149.007187 
L 284.347819 149.007187 
L 284.347819 147.945469 
L 284.941436 147.945469 
L 284.941436 145.822031 
L 286.722287 145.822031 
L 286.722287 143.698594 
L 287.909521 143.698594 
L 287.909521 142.636875 
L 290.877606 142.636875 
L 290.877606 140.513438 
L 293.252074 140.513438 
L 293.252074 139.451719 
L 293.845691 139.451719 
L 293.845691 138.39 
L 295.626543 138.39 
L 295.626543 135.204844 
L 299.188245 135.204844 
L 299.188245 133.081406 
L 302.15633 133.081406 
L 302.15633 130.957969 
L 302.749947 130.957969 
L 302.749947 129.89625 
L 306.311649 129.89625 
L 306.311649 126.711094 
L 313.435053 126.711094 
L 313.435053 125.649375 
L 314.02867 125.649375 
L 314.02867 122.464219 
L 316.996755 122.464219 
L 316.996755 121.4025 
L 317.590372 121.4025 
L 317.590372 120.340781 
L 318.183989 120.340781 
L 318.183989 119.279062 
L 318.777606 119.279062 
L 318.777606 118.217344 
L 323.526543 118.217344 
L 323.526543 117.155625 
L 324.713777 117.155625 
L 324.713777 116.093906 
L 333.024415 116.093906 
L 333.024415 112.90875 
L 333.618032 112.90875 
L 333.618032 111.847031 
L 335.9925 111.847031 
L 335.9925 107.600156 
L 338.960585 107.600156 
L 338.960585 106.538437 
L 340.147819 106.538437 
L 340.147819 105.476719 
L 341.92867 105.476719 
L 341.92867 103.353281 
L 343.115904 103.353281 
L 343.115904 102.291562 
L 344.896755 102.291562 
L 344.896755 101.229844 
L 347.271223 101.229844 
L 347.271223 100.168125 
L 350.832926 100.168125 
L 350.832926 98.044688 
L 352.02016 98.044688 
L 352.02016 96.982969 
L 353.801011 96.982969 
L 353.801011 95.92125 
L 354.988245 95.92125 
L 354.988245 94.859531 
L 362.111649 94.859531 
L 362.111649 93.797812 
L 362.705266 93.797812 
L 362.705266 92.736094 
L 366.860585 92.736094 
L 366.860585 91.674375 
L 368.641436 91.674375 
L 368.641436 90.612656 
L 374.577606 90.612656 
L 374.577606 89.550938 
L 376.358457 89.550938 
L 376.358457 88.489219 
L 386.449947 88.489219 
L 386.449947 87.4275 
L 388.230798 87.4275 
L 388.230798 86.365781 
L 394.760585 86.365781 
L 394.760585 84.242344 
L 397.72867 84.242344 
L 397.72867 83.180625 
L 403.071223 83.180625 
L 403.071223 82.118906 
L 407.226543 82.118906 
L 407.226543 81.057187 
L 407.82016 81.057187 
L 407.82016 79.995469 
L 408.413777 79.995469 
L 408.413777 78.93375 
L 410.194628 78.93375 
L 410.194628 77.872031 
L 411.381862 77.872031 
L 411.381862 76.810313 
L 445.811649 76.810313 
L 445.811649 75.748594 
L 446.405266 75.748594 
L 446.405266 74.686875 
L 447.5925 74.686875 
L 447.5925 73.625156 
L 453.52867 73.625156 
L 453.52867 72.563437 
L 461.245691 72.563437 
L 461.245691 71.501719 
L 461.839309 71.501719 
L 461.839309 70.44 
L 471.337181 70.44 
L 471.337181 69.378281 
L 497.45633 69.378281 
L 497.45633 68.316562 
L 501.611649 68.316562 
L 501.611649 66.193125 
L 506.954202 66.193125 
L 506.954202 65.131406 
L 507.547819 65.131406 
L 507.547819 64.069687 
L 511.109521 64.069687 
L 511.109521 63.007969 
L 527.137181 63.007969 
L 527.137181 61.94625 
L 544.352074 61.94625 
L 544.352074 60.884531 
L 610.837181 60.884531 
L 610.837181 59.822812 
L 621.522287 59.822812 
L 621.522287 58.761094 
L 630.426543 58.761094 
L 630.426543 57.699375 
L 644.079734 57.699375 
L 644.079734 56.637656 
L 654.76484 56.637656 
L 654.76484 55.575937 
L 665.449947 55.575937 
L 665.449947 54.514219 
L 720.65633 54.514219 
L 720.65633 53.4525 
L 723.030798 53.4525 
L 723.030798 52.390781 
L 725.405266 52.390781 
L 725.405266 51.329062 
L 758.647819 51.329062 
L 758.647819 50.267344 
L 771.707394 50.267344 
L 771.707394 49.205625 
L 775.862713 49.205625 
L 775.862713 48.143906 
L 799.607394 48.143906 
L 799.607394 47.082187 
L 807.324415 47.082187 
L 807.324415 46.020469 
L 822.758457 46.020469 
L 822.758457 44.95875 
L 836.411649 44.95875 
L 836.411649 43.897031 
L 856.001011 43.897031 
L 856.001011 42.835312 
L 867.279734 42.835312 
L 867.279734 41.773594 
L 892.805266 41.773594 
L 892.805266 40.711875 
L 949.7925 40.711875 
L 949.7925 40.711875 
" clip-path="url(#pa774a290d1)" style="fill: none; stroke: #440154; stroke-width: 7; stroke-linecap: round"/>
   </g>
   <g id="line2d_2">
    <path d="M 112.7925 856.111875 
L 112.7925 697.915781 
L 113.386117 626.780625 
L 113.386117 582.188437 
L 113.386117 549.275156 
L 113.979734 509.991562 
L 113.979734 483.448594 
L 113.979734 453.720469 
L 114.573351 425.054062 
L 114.573351 405.943125 
L 115.166968 394.264219 
L 115.760585 370.906406 
L 116.354202 359.2275 
L 116.354202 344.363437 
L 116.947819 332.684531 
L 118.135053 315.697031 
L 118.135053 306.141562 
L 118.135053 298.709531 
L 118.72867 291.2775 
L 119.322287 281.722031 
L 119.322287 277.475156 
L 119.915904 274.29 
L 119.915904 272.166562 
L 119.915904 266.857969 
L 121.103138 259.425937 
L 121.103138 251.993906 
L 121.103138 245.623594 
L 121.103138 241.376719 
L 122.290372 235.006406 
L 124.071223 229.697812 
L 126.445691 227.574375 
L 127.039309 222.265781 
L 128.226543 221.204062 
L 129.413777 218.018906 
L 130.007394 210.586875 
L 131.194628 203.154844 
L 131.788245 199.969687 
L 134.75633 193.599375 
L 135.349947 191.475937 
L 135.943564 187.229062 
L 137.130798 181.920469 
L 137.130798 179.797031 
L 137.724415 174.488437 
L 138.911649 168.118125 
L 141.286117 165.994687 
L 144.254202 161.747812 
L 145.441436 153.254062 
L 145.441436 151.130625 
L 149.003138 144.760312 
L 150.783989 141.575156 
L 151.971223 138.39 
L 153.752074 136.266562 
L 154.345691 135.204844 
L 155.532926 132.019687 
L 156.126543 127.772812 
L 158.501011 126.711094 
L 161.469096 124.587656 
L 163.843564 123.525937 
L 165.030798 120.340781 
L 165.624415 118.217344 
L 166.218032 117.155625 
L 167.405266 116.093906 
L 170.373351 113.970469 
L 173.341436 109.723594 
L 175.122287 106.538437 
L 177.496755 104.415 
L 178.090372 100.168125 
L 181.652074 98.044688 
L 185.213777 96.982969 
L 187.588245 96.982969 
L 191.743564 96.982969 
L 192.930798 93.797812 
L 195.898883 91.674375 
L 200.647819 87.4275 
L 205.990372 85.304062 
L 210.739309 83.180625 
L 212.52016 82.118906 
L 215.488245 82.118906 
L 220.237181 79.995469 
L 227.360585 77.872031 
L 234.483989 76.810313 
L 241.013777 75.748594 
L 251.698883 74.686875 
L 257.635053 74.686875 
L 271.881862 70.44 
L 280.786117 68.316562 
L 289.096755 68.316562 
L 302.749947 67.254844 
L 315.809521 61.94625 
L 331.243564 58.761094 
L 352.613777 57.699375 
L 376.952074 55.575937 
L 403.071223 50.267344 
L 425.62867 49.205625 
L 457.090372 48.143906 
L 494.488245 48.143906 
L 540.196755 46.020469 
L 590.654202 44.95875 
L 652.390372 43.897031 
L 742.026543 43.897031 
L 949.7925 40.711875 
" clip-path="url(#pa774a290d1)" style="fill: none; stroke: #fde725; stroke-width: 7; stroke-linecap: round"/>
   </g>
   <g id="PathCollection_1">
    <defs>
     <path id="m9e2030ff3a" d="M 0 11.18034 
C 2.965061 11.18034 5.80908 10.002309 7.905694 7.905694 
C 10.002309 5.80908 11.18034 2.965061 11.18034 0 
C 11.18034 -2.965061 10.002309 -5.80908 7.905694 -7.905694 
C 5.80908 -10.002309 2.965061 -11.18034 0 -11.18034 
C -2.965061 -11.18034 -5.80908 -10.002309 -7.905694 -7.905694 
C -10.002309 -5.80908 -11.18034 -2.965061 -11.18034 0 
C -11.18034 2.965061 -10.002309 5.80908 -7.905694 7.905694 
C -5.80908 10.002309 -2.965061 11.18034 0 11.18034 
z
" style="stroke: #1a1a1a"/>
    </defs>
    <g clip-path="url(#pa774a290d1)">
     <use xlink:href="#m9e2030ff3a" x="151.971223" y="138.39" style="fill: #1a1a1a; stroke: #1a1a1a"/>
    </g>
   </g>
   <g id="line2d_3">
    <path d="M 112.7925 856.111875 
L 114.573351 856.111875 
L 114.573351 855.050156 
L 115.760585 855.050156 
L 115.760585 853.988437 
L 117.541436 853.988437 
L 117.541436 843.37125 
L 118.135053 843.37125 
L 118.135053 842.309531 
L 119.322287 842.309531 
L 119.322287 840.186094 
L 120.509521 840.186094 
L 120.509521 824.260312 
L 121.103138 824.260312 
L 121.103138 812.581406 
L 121.696755 812.581406 
L 121.696755 792.40875 
L 122.290372 792.40875 
L 122.290372 791.347031 
L 122.883989 791.347031 
L 122.883989 786.038437 
L 123.477606 786.038437 
L 123.477606 763.742344 
L 124.071223 763.742344 
L 124.071223 761.618906 
L 124.66484 761.618906 
L 124.66484 724.45875 
L 125.258457 724.45875 
L 125.258457 722.335312 
L 125.852074 722.335312 
L 125.852074 721.273594 
L 126.445691 721.273594 
L 126.445691 696.854062 
L 127.039309 696.854062 
L 127.039309 687.298594 
L 127.632926 687.298594 
L 127.632926 669.249375 
L 128.226543 669.249375 
L 128.226543 662.879062 
L 129.413777 662.879062 
L 129.413777 659.693906 
L 130.007394 659.693906 
L 130.007394 658.632187 
L 130.601011 658.632187 
L 130.601011 654.385312 
L 131.194628 654.385312 
L 131.194628 650.138437 
L 131.788245 650.138437 
L 131.788245 649.076719 
L 132.381862 649.076719 
L 132.381862 636.336094 
L 132.975479 636.336094 
L 132.975479 633.150937 
L 133.569096 633.150937 
L 133.569096 625.718906 
L 134.162713 625.718906 
L 134.162713 617.225156 
L 134.75633 617.225156 
L 134.75633 606.607969 
L 135.349947 606.607969 
L 135.349947 600.237656 
L 135.943564 600.237656 
L 135.943564 598.114219 
L 136.537181 598.114219 
L 136.537181 595.990781 
L 137.130798 595.990781 
L 137.130798 594.929062 
L 137.724415 594.929062 
L 137.724415 581.126719 
L 138.318032 581.126719 
L 138.318032 570.509531 
L 138.911649 570.509531 
L 138.911649 564.139219 
L 139.505266 564.139219 
L 139.505266 562.015781 
L 140.6925 562.015781 
L 140.6925 553.522031 
L 141.286117 553.522031 
L 141.286117 552.460312 
L 143.066968 552.460312 
L 143.066968 542.904844 
L 143.660585 542.904844 
L 143.660585 537.59625 
L 144.254202 537.59625 
L 144.254202 535.472812 
L 145.441436 535.472812 
L 145.441436 530.164219 
L 146.62867 530.164219 
L 146.62867 526.979062 
L 147.222287 526.979062 
L 147.222287 523.793906 
L 147.815904 523.793906 
L 147.815904 521.670469 
L 148.409521 521.670469 
L 148.409521 519.547031 
L 149.003138 519.547031 
L 149.003138 516.361875 
L 149.596755 516.361875 
L 149.596755 513.176719 
L 150.190372 513.176719 
L 150.190372 511.053281 
L 151.377606 511.053281 
L 151.377606 508.929844 
L 152.56484 508.929844 
L 152.56484 498.312656 
L 153.158457 498.312656 
L 153.158457 497.250937 
L 153.752074 497.250937 
L 153.752074 494.065781 
L 154.345691 494.065781 
L 154.345691 484.510312 
L 154.939309 484.510312 
L 154.939309 483.448594 
L 156.126543 483.448594 
L 156.126543 481.325156 
L 157.907394 481.325156 
L 157.907394 478.14 
L 159.688245 478.14 
L 159.688245 477.078281 
L 160.281862 477.078281 
L 160.281862 474.954844 
L 161.469096 474.954844 
L 161.469096 471.769687 
L 162.062713 471.769687 
L 162.062713 470.707969 
L 162.65633 470.707969 
L 162.65633 467.522812 
L 163.249947 467.522812 
L 163.249947 466.461094 
L 163.843564 466.461094 
L 163.843564 459.029062 
L 164.437181 459.029062 
L 164.437181 450.535312 
L 165.030798 450.535312 
L 165.030798 449.473594 
L 166.218032 449.473594 
L 166.218032 447.350156 
L 166.811649 447.350156 
L 166.811649 445.226719 
L 167.998883 445.226719 
L 167.998883 433.547812 
L 168.5925 433.547812 
L 168.5925 432.486094 
L 169.186117 432.486094 
L 169.186117 430.362656 
L 169.779734 430.362656 
L 169.779734 429.300937 
L 170.373351 429.300937 
L 170.373351 427.1775 
L 170.966968 427.1775 
L 170.966968 426.115781 
L 172.747819 426.115781 
L 172.747819 425.054062 
L 174.52867 425.054062 
L 174.52867 422.930625 
L 175.122287 422.930625 
L 175.122287 414.436875 
L 175.715904 414.436875 
L 175.715904 413.375156 
L 176.309521 413.375156 
L 176.309521 409.128281 
L 176.903138 409.128281 
L 176.903138 405.943125 
L 177.496755 405.943125 
L 177.496755 399.572812 
L 178.090372 399.572812 
L 178.090372 397.449375 
L 178.683989 397.449375 
L 178.683989 393.2025 
L 179.277606 393.2025 
L 179.277606 387.893906 
L 180.46484 387.893906 
L 180.46484 383.647031 
L 181.058457 383.647031 
L 181.058457 380.461875 
L 181.652074 380.461875 
L 181.652074 378.338437 
L 182.245691 378.338437 
L 182.245691 371.968125 
L 183.432926 371.968125 
L 183.432926 366.659531 
L 184.026543 366.659531 
L 184.026543 364.536094 
L 184.62016 364.536094 
L 184.62016 363.474375 
L 185.213777 363.474375 
L 185.213777 351.795469 
L 185.807394 351.795469 
L 185.807394 349.672031 
L 186.994628 349.672031 
L 186.994628 348.610312 
L 187.588245 348.610312 
L 187.588245 347.548594 
L 188.181862 347.548594 
L 188.181862 346.486875 
L 189.962713 346.486875 
L 189.962713 344.363437 
L 190.55633 344.363437 
L 190.55633 343.301719 
L 191.149947 343.301719 
L 191.149947 342.24 
L 191.743564 342.24 
L 191.743564 341.178281 
L 194.118032 341.178281 
L 194.118032 335.869687 
L 194.711649 335.869687 
L 194.711649 332.684531 
L 195.305266 332.684531 
L 195.305266 330.561094 
L 195.898883 330.561094 
L 195.898883 326.314219 
L 196.4925 326.314219 
L 196.4925 321.005625 
L 197.086117 321.005625 
L 197.086117 318.882187 
L 197.679734 318.882187 
L 197.679734 317.820469 
L 198.273351 317.820469 
L 198.273351 308.265 
L 199.460585 308.265 
L 199.460585 299.77125 
L 200.054202 299.77125 
L 200.054202 297.647812 
L 200.647819 297.647812 
L 200.647819 296.586094 
L 201.241436 296.586094 
L 201.241436 295.524375 
L 201.835053 295.524375 
L 201.835053 292.339219 
L 203.022287 292.339219 
L 203.022287 291.2775 
L 204.209521 291.2775 
L 204.209521 289.154062 
L 204.803138 289.154062 
L 204.803138 288.092344 
L 205.990372 288.092344 
L 205.990372 287.030625 
L 206.583989 287.030625 
L 206.583989 284.907187 
L 207.177606 284.907187 
L 207.177606 283.845469 
L 208.36484 283.845469 
L 208.36484 279.598594 
L 208.958457 279.598594 
L 208.958457 275.351719 
L 209.552074 275.351719 
L 209.552074 274.29 
L 211.332926 274.29 
L 211.332926 271.104844 
L 213.113777 271.104844 
L 213.113777 270.043125 
L 214.301011 270.043125 
L 214.301011 267.919688 
L 214.894628 267.919688 
L 214.894628 264.734531 
L 215.488245 264.734531 
L 215.488245 263.672812 
L 216.675479 263.672812 
L 216.675479 260.487656 
L 217.269096 260.487656 
L 217.269096 257.3025 
L 217.862713 257.3025 
L 217.862713 254.117344 
L 218.45633 254.117344 
L 218.45633 249.870469 
L 219.049947 249.870469 
L 219.049947 248.80875 
L 219.643564 248.80875 
L 219.643564 247.747031 
L 221.424415 247.747031 
L 221.424415 246.685312 
L 222.611649 246.685312 
L 222.611649 245.623594 
L 223.205266 245.623594 
L 223.205266 244.561875 
L 224.986117 244.561875 
L 224.986117 243.500156 
L 225.579734 243.500156 
L 225.579734 242.438437 
L 227.360585 242.438437 
L 227.360585 240.315 
L 229.141436 240.315 
L 229.141436 237.129844 
L 230.922287 237.129844 
L 230.922287 235.006406 
L 231.515904 235.006406 
L 231.515904 232.882969 
L 232.109521 232.882969 
L 232.109521 229.697812 
L 232.703138 229.697812 
L 232.703138 223.3275 
L 233.890372 223.3275 
L 233.890372 220.142344 
L 234.483989 220.142344 
L 234.483989 216.957187 
L 235.671223 216.957187 
L 235.671223 215.895469 
L 236.858457 215.895469 
L 236.858457 214.83375 
L 238.639309 214.83375 
L 238.639309 213.772031 
L 239.232926 213.772031 
L 239.232926 211.648594 
L 241.013777 211.648594 
L 241.013777 210.586875 
L 241.607394 210.586875 
L 241.607394 209.525156 
L 242.201011 209.525156 
L 242.201011 207.401719 
L 242.794628 207.401719 
L 242.794628 204.216563 
L 243.981862 204.216563 
L 243.981862 203.154844 
L 244.575479 203.154844 
L 244.575479 202.093125 
L 246.35633 202.093125 
L 246.35633 201.031406 
L 246.949947 201.031406 
L 246.949947 198.907969 
L 248.137181 198.907969 
L 248.137181 195.722812 
L 248.730798 195.722812 
L 248.730798 193.599375 
L 249.918032 193.599375 
L 249.918032 188.290781 
L 251.105266 188.290781 
L 251.105266 187.229062 
L 254.073351 187.229062 
L 254.073351 185.105625 
L 254.666968 185.105625 
L 254.666968 184.043906 
L 255.260585 184.043906 
L 255.260585 182.982187 
L 257.635053 182.982187 
L 257.635053 181.920469 
L 260.009521 181.920469 
L 260.009521 180.85875 
L 260.603138 180.85875 
L 260.603138 177.673594 
L 263.571223 177.673594 
L 263.571223 175.550156 
L 264.16484 175.550156 
L 264.16484 173.426719 
L 265.945691 173.426719 
L 265.945691 172.365 
L 266.539309 172.365 
L 266.539309 171.303281 
L 269.507394 171.303281 
L 269.507394 170.241562 
L 271.881862 170.241562 
L 271.881862 169.179844 
L 272.475479 169.179844 
L 272.475479 167.056406 
L 273.662713 167.056406 
L 273.662713 165.994687 
L 275.443564 165.994687 
L 275.443564 164.932969 
L 277.224415 164.932969 
L 277.224415 163.87125 
L 284.941436 163.87125 
L 284.941436 161.747812 
L 287.909521 161.747812 
L 287.909521 158.562656 
L 289.096755 158.562656 
L 289.096755 157.500937 
L 291.471223 157.500937 
L 291.471223 155.3775 
L 294.439309 155.3775 
L 294.439309 153.254062 
L 295.032926 153.254062 
L 295.032926 152.192344 
L 295.626543 152.192344 
L 295.626543 151.130625 
L 296.813777 151.130625 
L 296.813777 150.068906 
L 298.594628 150.068906 
L 298.594628 149.007187 
L 300.969096 149.007187 
L 300.969096 147.945469 
L 302.749947 147.945469 
L 302.749947 144.760312 
L 303.937181 144.760312 
L 303.937181 143.698594 
L 309.279734 143.698594 
L 309.279734 142.636875 
L 310.466968 142.636875 
L 310.466968 141.575156 
L 311.654202 141.575156 
L 311.654202 140.513438 
L 312.247819 140.513438 
L 312.247819 139.451719 
L 314.02867 139.451719 
L 314.02867 138.39 
L 316.996755 138.39 
L 316.996755 137.328281 
L 319.371223 137.328281 
L 319.371223 135.204844 
L 322.932926 135.204844 
L 322.932926 134.143125 
L 325.307394 134.143125 
L 325.307394 133.081406 
L 328.869096 133.081406 
L 328.869096 132.019687 
L 330.649947 132.019687 
L 330.649947 130.957969 
L 334.211649 130.957969 
L 334.211649 127.772812 
L 341.92867 127.772812 
L 341.92867 125.649375 
L 344.303138 125.649375 
L 344.303138 123.525937 
L 346.083989 123.525937 
L 346.083989 122.464219 
L 346.677606 122.464219 
L 346.677606 121.4025 
L 347.86484 121.4025 
L 347.86484 120.340781 
L 350.239309 120.340781 
L 350.239309 119.279062 
L 355.581862 119.279062 
L 355.581862 118.217344 
L 356.769096 118.217344 
L 356.769096 116.093906 
L 362.705266 116.093906 
L 362.705266 113.970469 
L 363.298883 113.970469 
L 363.298883 112.90875 
L 369.235053 112.90875 
L 369.235053 111.847031 
L 369.82867 111.847031 
L 369.82867 110.785312 
L 378.139309 110.785312 
L 378.139309 107.600156 
L 404.852074 107.600156 
L 404.852074 106.538437 
L 407.226543 106.538437 
L 407.226543 105.476719 
L 417.318032 105.476719 
L 417.318032 103.353281 
L 420.879734 103.353281 
L 420.879734 102.291562 
L 422.660585 102.291562 
L 422.660585 101.229844 
L 423.847819 101.229844 
L 423.847819 100.168125 
L 425.035053 100.168125 
L 425.035053 99.106406 
L 425.62867 99.106406 
L 425.62867 98.044688 
L 426.815904 98.044688 
L 426.815904 95.92125 
L 430.377606 95.92125 
L 430.377606 94.859531 
L 443.437181 94.859531 
L 443.437181 92.736094 
L 446.405266 92.736094 
L 446.405266 91.674375 
L 448.779734 91.674375 
L 448.779734 90.612656 
L 457.683989 90.612656 
L 457.683989 88.489219 
L 466.588245 88.489219 
L 466.588245 87.4275 
L 479.054202 87.4275 
L 479.054202 86.365781 
L 494.488245 86.365781 
L 494.488245 85.304062 
L 498.049947 85.304062 
L 498.049947 84.242344 
L 499.830798 84.242344 
L 499.830798 82.118906 
L 522.388245 82.118906 
L 522.388245 81.057187 
L 522.981862 81.057187 
L 522.981862 79.995469 
L 526.543564 79.995469 
L 526.543564 78.93375 
L 534.260585 78.93375 
L 534.260585 77.872031 
L 535.447819 77.872031 
L 535.447819 76.810313 
L 542.571223 76.810313 
L 542.571223 75.748594 
L 544.945691 75.748594 
L 544.945691 74.686875 
L 545.539309 74.686875 
L 545.539309 73.625156 
L 554.443564 73.625156 
L 554.443564 72.563437 
L 562.160585 72.563437 
L 562.160585 71.501719 
L 570.471223 71.501719 
L 570.471223 70.44 
L 585.311649 70.44 
L 585.311649 69.378281 
L 594.809521 69.378281 
L 594.809521 68.316562 
L 616.179734 68.316562 
L 616.179734 67.254844 
L 648.82867 67.254844 
L 648.82867 66.193125 
L 651.203138 66.193125 
L 651.203138 65.131406 
L 656.545691 65.131406 
L 656.545691 64.069687 
L 659.513777 64.069687 
L 659.513777 63.007969 
L 685.039309 63.007969 
L 685.039309 61.94625 
L 700.473351 61.94625 
L 700.473351 60.884531 
L 702.254202 60.884531 
L 702.254202 58.761094 
L 705.815904 58.761094 
L 705.815904 57.699375 
L 708.783989 57.699375 
L 708.783989 56.637656 
L 732.52867 56.637656 
L 732.52867 55.575937 
L 733.122287 55.575937 
L 733.122287 54.514219 
L 766.958457 54.514219 
L 766.958457 53.4525 
L 768.739309 53.4525 
L 768.739309 52.390781 
L 775.862713 52.390781 
L 775.862713 51.329062 
L 791.890372 51.329062 
L 791.890372 50.267344 
L 793.671223 50.267344 
L 793.671223 49.205625 
L 794.26484 49.205625 
L 794.26484 48.143906 
L 802.575479 48.143906 
L 802.575479 47.082187 
L 839.973351 47.082187 
L 839.973351 46.020469 
L 849.471223 46.020469 
L 849.471223 44.95875 
L 853.032926 44.95875 
L 853.032926 43.897031 
L 856.001011 43.897031 
L 856.001011 42.835312 
L 870.247819 42.835312 
L 870.247819 41.773594 
L 905.86484 41.773594 
L 905.86484 40.711875 
L 949.7925 40.711875 
L 949.7925 40.711875 
" clip-path="url(#pa774a290d1)" style="fill: none; stroke: #1f988b; stroke-width: 7; stroke-linecap: round"/>
   </g>
   <g id="PathCollection_2">
    <g clip-path="url(#pa774a290d1)">
     <use xlink:href="#m9e2030ff3a" x="197.679734" y="318.882187" style="fill: #1a1a1a; stroke: #1a1a1a"/>
    </g>
   </g>
   <g id="PathCollection_3">
    <g clip-path="url(#pa774a290d1)">
     <use xlink:href="#m9e2030ff3a" x="212.52016" y="273.228281" style="fill: #1a1a1a; stroke: #1a1a1a"/>
    </g>
   </g>
   <g id="patch_3">
    <path d="M 112.7925 856.111875 
L 112.7925 40.711875 
" style="fill: none; stroke: #262626; stroke-width: 1.25; stroke-linejoin: miter; stroke-linecap: square"/>
   </g>
   <g id="patch_4">
    <path d="M 949.7925 856.111875 
L 949.7925 40.711875 
" style="fill: none; stroke: #262626; stroke-width: 1.25; stroke-linejoin: miter; stroke-linecap: square"/>
   </g>
   <g id="patch_5">
    <path d="M 112.7925 856.111875 
L 949.7925 856.111875 
" style="fill: none; stroke: #262626; stroke-width: 1.25; stroke-linejoin: miter; stroke-linecap: square"/>
   </g>
   <g id="patch_6">
    <path d="M 112.7925 40.711875 
L 949.7925 40.711875 
" style="fill: none; stroke: #262626; stroke-width: 1.25; stroke-linejoin: miter; stroke-linecap: square"/>
   </g>
   <g id="text_15">
    <text style="fill: #262626; font: 36px 'sans-serif'; text-anchor: middle" x="531.2925" y="34.711875" transform="rotate(-0 531.2925 34.711875)">All Cells | | class_weight: None</text>
   </g>
   <g id="legend_1">
    <g id="patch_7">
     <path d="M 54.2925 1124.975625 
L 938.896875 1124.975625 
Q 946.096875 1124.975625 946.096875 1117.775625 
L 946.096875 962.851875 
Q 946.096875 955.651875 938.896875 955.651875 
L 54.2925 955.651875 
Q 47.0925 955.651875 47.0925 962.851875 
L 47.0925 1117.775625 
Q 47.0925 1124.975625 54.2925 1124.975625 
z
" style="fill: #ffffff; opacity: 0.8; stroke: #cccccc; stroke-linejoin: miter"/>
    </g>
    <g id="line2d_4">
     <path d="M 61.4925 984.80625 
L 97.4925 984.80625 
L 133.4925 984.80625 
" style="fill: none; stroke: #fde725; stroke-width: 7; stroke-linecap: round"/>
    </g>
    <g id="text_16">
     <text style="fill: #262626; font: 36px 'sans-serif'; text-anchor: start" x="162.2925" y="997.40625" transform="rotate(-0 162.2925 997.40625)">Random Forest (ROC AUC = 0.97)</text>
    </g>
    <g id="line2d_5">
     <path d="M 61.4925 1037.6475 
L 97.4925 1037.6475 
L 133.4925 1037.6475 
" style="fill: none; stroke: #1f988b; stroke-width: 7; stroke-linecap: round"/>
    </g>
    <g id="text_17">
     <text style="fill: #262626; font: 36px 'sans-serif'; text-anchor: start" x="162.2925" y="1050.2475" transform="rotate(-0 162.2925 1050.2475)">Logistic Regression (ROC AUC = 0.88)</text>
    </g>
    <g id="line2d_6">
     <path d="M 61.4925 1090.48875 
L 97.4925 1090.48875 
L 133.4925 1090.48875 
" style="fill: none; stroke: #440154; stroke-width: 7; stroke-linecap: round"/>
    </g>
    <g id="text_18">
     <text style="fill: #262626; font: 36px 'sans-serif'; text-anchor: start" x="162.2925" y="1103.08875" transform="rotate(-0 162.2925 1103.08875)">Support Vector Machine (ROC AUC = 0.89)</text>
    </g>
   </g>
  </g>
 </g>
 <defs>
  <clipPath id="pa774a290d1">
   <rect x="112.7925" y="40.711875" width="837" height="815.4"/>
  </clipPath>
 </defs>
</svg>
