<?xml version="1.0" encoding="utf-8" standalone="no"?>
<!DOCTYPE svg PUBLIC "-//W3C//DTD SVG 1.1//EN"
  "http://www.w3.org/Graphics/SVG/1.1/DTD/svg11.dtd">
<svg xmlns:xlink="http://www.w3.org/1999/xlink" width="985.618125pt" height="1343.383125pt" viewBox="0 0 985.618125 1343.383125" xmlns="http://www.w3.org/2000/svg" version="1.1">
 <metadata>
  <rdf:RDF xmlns:dc="http://purl.org/dc/elements/1.1/" xmlns:cc="http://creativecommons.org/ns#" xmlns:rdf="http://www.w3.org/1999/02/22-rdf-syntax-ns#">
   <cc:Work>
    <dc:type rdf:resource="http://purl.org/dc/dcmitype/StillImage"/>
    <dc:date>2022-12-07T09:13:33.556667</dc:date>
    <dc:format>image/svg+xml</dc:format>
    <dc:creator>
     <cc:Agent>
      <dc:title>Matplotlib v3.6.0, https://matplotlib.org/</dc:title>
     </cc:Agent>
    </dc:creator>
   </cc:Work>
  </rdf:RDF>
 </metadata>
 <defs>
  <style type="text/css">*{stroke-linejoin: round; stroke-linecap: butt}</style>
 </defs>
 <g id="figure_1">
  <g id="patch_1">
   <path d="M 0 1343.383125 
L 985.618125 1343.383125 
L 985.618125 0 
L 0 0 
z
" style="fill: #ffffff"/>
  </g>
  <g id="axes_1">
   <g id="patch_2">
    <path d="M 112.7925 855.954375 
L 949.7925 855.954375 
L 949.7925 40.554375 
L 112.7925 40.554375 
z
" style="fill: #ffffff"/>
   </g>
   <g id="matplotlib.axis_1">
    <g id="xtick_1">
     <g id="text_1">
      <text style="fill: #262626; font: 36px 'sans-serif'; text-anchor: middle" x="112.7925" y="892.80875" transform="rotate(-0 112.7925 892.80875)">0.0</text>
     </g>
    </g>
    <g id="xtick_2">
     <g id="text_2">
      <text style="fill: #262626; font: 36px 'sans-serif'; text-anchor: middle" x="280.1925" y="892.80875" transform="rotate(-0 280.1925 892.80875)">0.2</text>
     </g>
    </g>
    <g id="xtick_3">
     <g id="text_3">
      <text style="fill: #262626; font: 36px 'sans-serif'; text-anchor: middle" x="447.5925" y="892.80875" transform="rotate(-0 447.5925 892.80875)">0.4</text>
     </g>
    </g>
    <g id="xtick_4">
     <g id="text_4">
      <text style="fill: #262626; font: 36px 'sans-serif'; text-anchor: middle" x="614.9925" y="892.80875" transform="rotate(-0 614.9925 892.80875)">0.6</text>
     </g>
    </g>
    <g id="xtick_5">
     <g id="text_5">
      <text style="fill: #262626; font: 36px 'sans-serif'; text-anchor: middle" x="782.3925" y="892.80875" transform="rotate(-0 782.3925 892.80875)">0.8</text>
     </g>
    </g>
    <g id="xtick_6">
     <g id="text_6">
      <text style="fill: #262626; font: 36px 'sans-serif'; text-anchor: middle" x="949.7925" y="892.80875" transform="rotate(-0 949.7925 892.80875)">1.0</text>
     </g>
    </g>
    <g id="text_7">
     <text style="fill: #262626; font: 36px 'sans-serif'; text-anchor: middle" x="531.2925" y="931.65" transform="rotate(-0 531.2925 931.65)">False Positive Rate</text>
    </g>
   </g>
   <g id="matplotlib.axis_2">
    <g id="ytick_1">
     <g id="text_8">
      <text style="fill: #262626; font: 36px 'sans-serif'; text-anchor: end" x="103.2925" y="869.631562" transform="rotate(-0 103.2925 869.631562)">0.0</text>
     </g>
    </g>
    <g id="ytick_2">
     <g id="text_9">
      <text style="fill: #262626; font: 36px 'sans-serif'; text-anchor: end" x="103.2925" y="706.551562" transform="rotate(-0 103.2925 706.551562)">0.2</text>
     </g>
    </g>
    <g id="ytick_3">
     <g id="text_10">
      <text style="fill: #262626; font: 36px 'sans-serif'; text-anchor: end" x="103.2925" y="543.471562" transform="rotate(-0 103.2925 543.471562)">0.4</text>
     </g>
    </g>
    <g id="ytick_4">
     <g id="text_11">
      <text style="fill: #262626; font: 36px 'sans-serif'; text-anchor: end" x="103.2925" y="380.391562" transform="rotate(-0 103.2925 380.391562)">0.6</text>
     </g>
    </g>
    <g id="ytick_5">
     <g id="text_12">
      <text style="fill: #262626; font: 36px 'sans-serif'; text-anchor: end" x="103.2925" y="217.311562" transform="rotate(-0 103.2925 217.311562)">0.8</text>
     </g>
    </g>
    <g id="ytick_6">
     <g id="text_13">
      <text style="fill: #262626; font: 36px 'sans-serif'; text-anchor: end" x="103.2925" y="54.231562" transform="rotate(-0 103.2925 54.231562)">1.0</text>
     </g>
    </g>
    <g id="text_14">
     <text style="fill: #262626; font: 36px 'sans-serif'; text-anchor: middle" x="34.554375" y="448.254375" transform="rotate(-90 34.554375 448.254375)">True Positive Rate</text>
    </g>
   </g>
   <g id="line2d_1">
    <path d="M 112.7925 855.954375 
L 112.7925 697.758281 
L 113.386117 626.623125 
L 113.386117 582.030937 
L 113.386117 549.117656 
L 113.979734 509.834062 
L 113.979734 483.291094 
L 113.979734 453.562969 
L 114.573351 424.896562 
L 114.573351 405.785625 
L 115.166968 394.106719 
L 115.760585 370.748906 
L 116.354202 359.07 
L 116.354202 344.205937 
L 116.947819 332.527031 
L 118.135053 315.539531 
L 118.135053 305.984062 
L 118.135053 298.552031 
L 118.72867 291.12 
L 119.322287 281.564531 
L 119.322287 277.317656 
L 119.915904 274.1325 
L 119.915904 272.009062 
L 119.915904 266.700469 
L 121.103138 259.268437 
L 121.103138 251.836406 
L 121.103138 245.466094 
L 121.103138 241.219219 
L 122.290372 234.848906 
L 124.071223 229.540312 
L 126.445691 227.416875 
L 127.039309 222.108281 
L 128.226543 221.046562 
L 129.413777 217.861406 
L 130.007394 210.429375 
L 131.194628 202.997344 
L 131.788245 199.812187 
L 134.75633 193.441875 
L 135.349947 191.318437 
L 135.943564 187.071562 
L 137.130798 181.762969 
L 137.130798 179.639531 
L 137.724415 174.330937 
L 138.911649 167.960625 
L 141.286117 165.837187 
L 144.254202 161.590312 
L 145.441436 153.096563 
L 145.441436 150.973125 
L 149.003138 144.602812 
L 150.783989 141.417656 
L 151.971223 138.2325 
L 153.752074 136.109062 
L 154.345691 135.047344 
L 155.532926 131.862187 
L 156.126543 127.615312 
L 158.501011 126.553594 
L 161.469096 124.430156 
L 163.843564 123.368437 
L 165.030798 120.183281 
L 165.624415 118.059844 
L 166.218032 116.998125 
L 167.405266 115.936406 
L 170.373351 113.812969 
L 173.341436 109.566094 
L 175.122287 106.380937 
L 177.496755 104.2575 
L 178.090372 100.010625 
L 181.652074 97.887187 
L 185.213777 96.825469 
L 187.588245 96.825469 
L 191.743564 96.825469 
L 192.930798 93.640312 
L 195.898883 91.516875 
L 200.647819 87.27 
L 205.990372 85.146562 
L 210.739309 83.023125 
L 212.52016 81.961406 
L 215.488245 81.961406 
L 220.237181 79.837969 
L 227.360585 77.714531 
L 234.483989 76.652812 
L 241.013777 75.591094 
L 251.698883 74.529375 
L 257.635053 74.529375 
L 271.881862 70.2825 
L 280.786117 68.159062 
L 289.096755 68.159062 
L 302.749947 67.097344 
L 315.809521 61.78875 
L 331.243564 58.603594 
L 352.613777 57.541875 
L 376.952074 55.418437 
L 403.071223 50.109844 
L 425.62867 49.048125 
L 457.090372 47.986406 
L 494.488245 47.986406 
L 540.196755 45.862969 
L 590.654202 44.80125 
L 652.390372 43.739531 
L 742.026543 43.739531 
L 949.7925 40.554375 
" clip-path="url(#p9a1de40fd1)" style="fill: none; stroke: #fde725; stroke-width: 5; stroke-linecap: round"/>
   </g>
   <g id="PathCollection_1">
    <defs>
     <path id="ma0a25fad69" d="M 0 11.18034 
C 2.965061 11.18034 5.80908 10.002309 7.905694 7.905694 
C 10.002309 5.80908 11.18034 2.965061 11.18034 0 
C 11.18034 -2.965061 10.002309 -5.80908 7.905694 -7.905694 
C 5.80908 -10.002309 2.965061 -11.18034 0 -11.18034 
C -2.965061 -11.18034 -5.80908 -10.002309 -7.905694 -7.905694 
C -10.002309 -5.80908 -11.18034 -2.965061 -11.18034 0 
C -11.18034 2.965061 -10.002309 5.80908 -7.905694 7.905694 
C -5.80908 10.002309 -2.965061 11.18034 0 11.18034 
z
" style="stroke: #1a1a1a"/>
    </defs>
    <g clip-path="url(#p9a1de40fd1)">
     <use xlink:href="#ma0a25fad69" x="151.971223" y="138.2325" style="fill: #1a1a1a; stroke: #1a1a1a"/>
    </g>
   </g>
   <g id="line2d_2">
    <path d="M 112.7925 855.954375 
L 113.979734 688.202812 
L 113.979734 599.018437 
L 114.573351 545.9325 
L 114.573351 487.537969 
L 116.947819 454.624687 
L 118.72867 431.266875 
L 119.915904 411.094219 
L 120.509521 390.921562 
L 122.290372 376.0575 
L 122.883989 353.761406 
L 123.477606 337.835625 
L 124.66484 330.403594 
L 127.039309 320.848125 
L 127.039309 313.416094 
L 127.039309 300.675469 
L 128.82016 292.181719 
L 129.413777 283.687969 
L 130.601011 280.502813 
L 131.788245 275.194219 
L 135.349947 262.453594 
L 135.349947 258.206719 
L 135.943564 251.836406 
L 136.537181 247.589531 
L 137.130798 242.280937 
L 138.318032 238.034062 
L 138.911649 234.848906 
L 140.098883 229.540312 
L 140.098883 224.231719 
L 140.6925 221.046562 
L 140.6925 218.923125 
L 141.879734 216.799688 
L 141.879734 213.614531 
L 143.066968 207.244219 
L 143.660585 201.935625 
L 144.254202 197.68875 
L 146.035053 194.503594 
L 147.222287 192.380156 
L 147.815904 192.380156 
L 149.003138 188.133281 
L 149.003138 183.886406 
L 151.971223 182.824687 
L 153.158457 179.639531 
L 154.345691 177.516094 
L 154.939309 174.330937 
L 156.126543 172.2075 
L 157.313777 172.2075 
L 159.688245 171.145781 
L 162.062713 169.022344 
L 165.624415 166.898906 
L 169.186117 162.652031 
L 170.373351 161.590312 
L 171.560585 158.405156 
L 174.52867 158.405156 
L 175.715904 155.22 
L 178.683989 150.973125 
L 181.652074 147.787969 
L 183.432926 143.541094 
L 186.401011 141.417656 
L 187.588245 141.417656 
L 188.775479 138.2325 
L 191.743564 137.170781 
L 195.898883 135.047344 
L 198.273351 135.047344 
L 203.022287 132.923906 
L 206.583989 130.800469 
L 210.739309 127.615312 
L 212.52016 124.430156 
L 214.894628 122.306719 
L 217.269096 121.245 
L 223.205266 119.121562 
L 226.173351 115.936406 
L 227.954202 110.627812 
L 230.922287 109.566094 
L 236.26484 108.504375 
L 242.201011 108.504375 
L 247.543564 106.380937 
L 254.666968 106.380937 
L 261.790372 103.195781 
L 270.101011 101.072344 
L 277.224415 100.010625 
L 285.535053 96.825469 
L 296.22016 95.76375 
L 308.686117 93.640312 
L 315.215904 89.393438 
L 329.462713 87.27 
L 338.960585 85.146562 
L 349.052074 83.023125 
L 362.705266 83.023125 
L 375.76484 80.899687 
L 392.979734 77.714531 
L 418.505266 69.220781 
L 441.65633 67.097344 
L 469.55633 63.912187 
L 499.830798 58.603594 
L 546.132926 54.356719 
L 601.339309 52.233281 
L 705.815904 50.109844 
L 949.7925 40.554375 
" clip-path="url(#p9a1de40fd1)" style="fill: none; stroke: #a5db36; stroke-width: 5; stroke-linecap: round"/>
   </g>
   <g id="PathCollection_2">
    <g clip-path="url(#p9a1de40fd1)">
     <use xlink:href="#ma0a25fad69" x="163.843564" y="167.960625" style="fill: #1a1a1a; stroke: #1a1a1a"/>
    </g>
   </g>
   <g id="line2d_3">
    <path d="M 112.7925 855.954375 
L 113.386117 673.33875 
L 114.573351 599.018437 
L 115.760585 556.549687 
L 115.760585 516.204375 
L 116.354202 489.661406 
L 116.354202 463.118437 
L 116.947819 436.575469 
L 116.947819 417.464531 
L 116.947819 388.798125 
L 116.947819 370.748906 
L 118.135053 361.193437 
L 118.135053 352.699687 
L 119.915904 347.391094 
L 120.509521 336.773906 
L 121.696755 327.218437 
L 122.290372 322.971562 
L 122.883989 310.230937 
L 124.071223 300.675469 
L 124.66484 293.243437 
L 125.852074 288.996562 
L 126.445691 285.811406 
L 127.039309 280.502813 
L 127.039309 275.194219 
L 127.039309 268.823906 
L 127.632926 260.330156 
L 128.226543 252.898125 
L 128.82016 247.589531 
L 130.007394 242.280937 
L 130.601011 235.910625 
L 130.601011 232.725469 
L 130.601011 228.478594 
L 131.194628 227.416875 
L 132.381862 225.293437 
L 134.75633 223.17 
L 135.943564 222.108281 
L 135.943564 219.984844 
L 135.943564 215.737969 
L 137.130798 211.491094 
L 138.911649 210.429375 
L 139.505266 205.120781 
L 140.098883 204.059062 
L 141.286117 201.935625 
L 143.066968 196.627031 
L 146.62867 195.565312 
L 151.377606 193.441875 
L 151.971223 190.256719 
L 152.56484 188.133281 
L 153.158457 183.886406 
L 154.345691 181.762969 
L 157.313777 177.516094 
L 159.094628 176.454375 
L 160.281862 167.960625 
L 160.281862 164.775469 
L 162.65633 162.652031 
L 165.030798 159.466875 
L 166.218032 158.405156 
L 167.998883 156.281719 
L 169.779734 153.096563 
L 174.52867 150.973125 
L 175.715904 148.849687 
L 179.277606 147.787969 
L 181.058457 146.72625 
L 185.213777 138.2325 
L 186.994628 132.923906 
L 189.962713 131.862187 
L 193.524415 128.677031 
L 195.898883 127.615312 
L 202.42867 126.553594 
L 205.396755 122.306719 
L 209.552074 120.183281 
L 214.894628 119.121562 
L 218.45633 116.998125 
L 223.798883 116.998125 
L 226.766968 115.936406 
L 235.077606 114.874687 
L 240.42016 112.75125 
L 246.949947 110.627812 
L 253.479734 109.566094 
L 258.22867 106.380937 
L 267.726543 106.380937 
L 273.662713 104.2575 
L 283.754202 103.195781 
L 292.658457 100.010625 
L 302.749947 94.702031 
L 316.403138 88.331719 
L 331.837181 86.208281 
L 343.115904 84.084844 
L 357.362713 81.961406 
L 371.015904 76.652812 
L 386.449947 74.529375 
L 410.194628 73.467656 
L 435.72016 67.097344 
L 465.994628 64.973906 
L 496.862713 62.850469 
L 541.383989 56.480156 
L 585.311649 52.233281 
L 650.015904 50.109844 
L 762.209521 44.80125 
L 949.7925 40.554375 
" clip-path="url(#p9a1de40fd1)" style="fill: none; stroke: #4ac16d; stroke-width: 5; stroke-linecap: round"/>
   </g>
   <g id="PathCollection_3">
    <g clip-path="url(#p9a1de40fd1)">
     <use xlink:href="#ma0a25fad69" x="154.345691" y="181.762969" style="fill: #1a1a1a; stroke: #1a1a1a"/>
    </g>
   </g>
   <g id="line2d_4">
    <path d="M 112.7925 855.954375 
L 113.386117 730.671562 
L 113.979734 672.277031 
L 114.573351 628.746562 
L 115.166968 597.956719 
L 116.354202 562.92 
L 116.947819 539.562187 
L 116.947819 503.46375 
L 117.541436 487.537969 
L 118.135053 465.241875 
L 118.135053 448.254375 
L 119.915904 434.452031 
L 120.509521 416.402812 
L 121.103138 403.662187 
L 123.477606 390.921562 
L 125.852074 380.304375 
L 125.852074 369.687187 
L 126.445691 353.761406 
L 127.039309 342.0825 
L 127.039309 331.465312 
L 128.82016 326.156719 
L 128.82016 320.848125 
L 128.82016 313.416094 
L 130.601011 305.984062 
L 132.381862 299.61375 
L 132.975479 294.305156 
L 133.569096 287.934844 
L 134.162713 280.502813 
L 134.162713 274.1325 
L 137.130798 269.885625 
L 138.911649 264.577031 
L 141.879734 262.453594 
L 143.066968 258.206719 
L 143.660585 255.021562 
L 144.847819 249.712969 
L 145.441436 248.65125 
L 147.815904 233.787187 
L 148.409521 231.66375 
L 149.596755 230.602031 
L 151.377606 227.416875 
L 153.752074 219.984844 
L 155.532926 218.923125 
L 157.313777 215.737969 
L 157.907394 214.67625 
L 160.875479 210.429375 
L 161.469096 205.120781 
L 162.65633 200.873906 
L 162.65633 199.812187 
L 165.624415 198.750469 
L 169.186117 192.380156 
L 169.779734 191.318437 
L 171.560585 190.256719 
L 173.341436 187.071562 
L 175.122287 182.824687 
L 175.122287 178.577812 
L 176.903138 175.392656 
L 179.871223 173.269219 
L 182.839309 167.960625 
L 186.994628 162.652031 
L 188.775479 159.466875 
L 190.55633 157.343437 
L 192.337181 154.158281 
L 193.524415 150.973125 
L 199.460585 146.72625 
L 203.022287 145.664531 
L 205.396755 142.479375 
L 208.36484 140.355937 
L 211.926543 139.294219 
L 213.113777 135.047344 
L 216.675479 132.923906 
L 226.173351 130.800469 
L 234.483989 129.73875 
L 239.826543 128.677031 
L 244.575479 125.491875 
L 249.324415 124.430156 
L 252.886117 121.245 
L 258.822287 119.121562 
L 268.32016 119.121562 
L 273.069096 110.627812 
L 281.379734 109.566094 
L 289.690372 105.319219 
L 306.311649 101.072344 
L 314.622287 100.010625 
L 325.901011 96.825469 
L 338.366968 93.640312 
L 356.175479 89.393438 
L 382.888245 87.27 
L 399.509521 85.146562 
L 423.254202 83.023125 
L 449.373351 80.899687 
L 474.305266 75.591094 
L 521.201011 69.220781 
L 566.909521 64.973906 
L 624.490372 60.727031 
L 695.724415 53.295 
L 791.890372 47.986406 
L 949.7925 40.554375 
" clip-path="url(#p9a1de40fd1)" style="fill: none; stroke: #1f988b; stroke-width: 5; stroke-linecap: round"/>
   </g>
   <g id="PathCollection_4">
    <g clip-path="url(#p9a1de40fd1)">
     <use xlink:href="#ma0a25fad69" x="167.405266" y="195.565312" style="fill: #1a1a1a; stroke: #1a1a1a"/>
    </g>
   </g>
   <g id="line2d_5">
    <path d="M 112.7925 855.954375 
L 115.166968 645.734062 
L 116.947819 569.290312 
L 118.72867 531.068437 
L 119.915904 510.895781 
L 120.509521 485.414531 
L 120.509521 468.427031 
L 121.103138 448.254375 
L 121.696755 437.637187 
L 122.883989 428.081719 
L 124.66484 418.52625 
L 125.258457 408.970781 
L 126.445691 400.477031 
L 127.039309 394.106719 
L 128.226543 384.55125 
L 129.413777 378.180937 
L 131.788245 372.872344 
L 132.975479 364.378594 
L 134.162713 360.131719 
L 134.75633 356.946562 
L 135.943564 343.144219 
L 138.318032 334.650469 
L 140.098883 327.218437 
L 141.879734 321.909844 
L 146.62867 307.045781 
L 149.003138 300.675469 
L 149.003138 294.305156 
L 151.971223 286.873125 
L 153.158457 280.502813 
L 156.126543 276.255937 
L 157.907394 273.070781 
L 159.094628 266.700469 
L 160.281862 264.577031 
L 161.469096 263.515312 
L 163.843564 259.268437 
L 167.405266 256.083281 
L 167.998883 251.836406 
L 169.186117 248.65125 
L 172.154202 246.527812 
L 173.341436 245.466094 
L 173.341436 240.1575 
L 175.715904 239.095781 
L 178.683989 234.848906 
L 181.058457 231.66375 
L 185.213777 229.540312 
L 185.807394 228.478594 
L 187.588245 224.231719 
L 189.962713 222.108281 
L 191.149947 217.861406 
L 194.711649 213.614531 
L 195.898883 209.367656 
L 197.086117 208.305937 
L 198.866968 204.059062 
L 200.647819 200.873906 
L 201.241436 194.503594 
L 203.022287 193.441875 
L 205.396755 191.318437 
L 205.990372 188.133281 
L 207.177606 182.824687 
L 210.145691 180.70125 
L 214.894628 176.454375 
L 216.675479 173.269219 
L 219.049947 173.269219 
L 220.830798 171.145781 
L 223.205266 171.145781 
L 226.766968 166.898906 
L 230.32867 164.775469 
L 235.077606 159.466875 
L 238.045691 157.343437 
L 241.607394 156.281719 
L 246.35633 153.096563 
L 249.918032 153.096563 
L 254.073351 149.911406 
L 258.822287 149.911406 
L 262.383989 149.911406 
L 266.539309 147.787969 
L 271.288245 144.602812 
L 279.598883 136.109062 
L 284.941436 136.109062 
L 290.283989 131.862187 
L 295.626543 125.491875 
L 304.530798 123.368437 
L 312.247819 121.245 
L 321.152074 119.121562 
L 328.275479 116.998125 
L 333.618032 112.75125 
L 341.335053 111.689531 
L 352.02016 107.442656 
L 366.266968 105.319219 
L 373.390372 103.195781 
L 385.85633 100.010625 
L 401.883989 93.640312 
L 419.6925 90.455156 
L 435.72016 89.393438 
L 457.683989 85.146562 
L 481.42867 83.023125 
L 506.360585 79.837969 
L 542.571223 75.591094 
L 595.403138 68.159062 
L 680.883989 61.78875 
L 949.7925 40.554375 
" clip-path="url(#p9a1de40fd1)" style="fill: none; stroke: #2a788e; stroke-width: 5; stroke-linecap: round"/>
   </g>
   <g id="PathCollection_5">
    <g clip-path="url(#p9a1de40fd1)">
     <use xlink:href="#ma0a25fad69" x="194.711649" y="213.614531" style="fill: #1a1a1a; stroke: #1a1a1a"/>
    </g>
   </g>
   <g id="line2d_6">
    <path d="M 112.7925 855.954375 
L 132.975479 661.659844 
L 140.098883 630.87 
L 140.6925 606.450469 
L 145.441436 589.462969 
L 150.783989 575.660625 
L 154.939309 571.41375 
L 157.907394 562.92 
L 161.469096 557.611406 
L 165.624415 541.685625 
L 167.998883 533.191875 
L 170.373351 527.883281 
L 176.903138 518.327812 
L 178.683989 508.772344 
L 184.026543 506.648906 
L 186.401011 505.587187 
L 188.181862 503.46375 
L 188.775479 502.402031 
L 188.775479 499.216875 
L 188.775479 497.093437 
L 189.369096 492.846562 
L 191.149947 487.537969 
L 194.118032 486.47625 
L 197.086117 484.352812 
L 201.241436 474.797344 
L 205.396755 466.303594 
L 210.145691 460.995 
L 213.113777 456.748125 
L 219.643564 450.377812 
L 222.611649 438.698906 
L 226.766968 434.452031 
L 235.077606 428.081719 
L 239.232926 421.711406 
L 245.169096 417.464531 
L 254.073351 415.341094 
L 261.790372 410.0325 
L 271.288245 407.909062 
L 277.224415 402.600469 
L 288.503138 398.353594 
L 291.471223 396.230156 
L 298.594628 393.045 
L 300.375479 391.983281 
L 300.969096 391.983281 
L 301.562713 390.921562 
L 303.937181 390.921562 
L 307.498883 389.859844 
L 308.0925 389.859844 
L 310.466968 389.859844 
L 312.247819 389.859844 
L 312.247819 388.798125 
L 312.841436 387.736406 
L 314.02867 385.612969 
L 315.215904 382.427812 
L 316.996755 380.304375 
L 319.371223 377.119219 
L 321.745691 374.995781 
L 325.901011 371.810625 
L 333.618032 366.502031 
L 336.586117 362.255156 
L 343.115904 358.008281 
L 348.458457 351.637969 
L 351.426543 345.267656 
L 356.175479 337.835625 
L 361.518032 332.527031 
L 363.298883 322.971562 
L 371.015904 316.60125 
L 378.139309 310.230937 
L 382.294628 303.860625 
L 387.043564 295.366875 
L 397.135053 282.62625 
L 406.039309 274.1325 
L 410.788245 272.009062 
L 414.943564 263.515312 
L 420.286117 259.268437 
L 422.660585 258.206719 
L 428.003138 250.774687 
L 430.377606 247.589531 
L 435.72016 246.527812 
L 438.094628 245.466094 
L 441.65633 241.219219 
L 445.811649 234.848906 
L 447.5925 230.602031 
L 451.154202 226.355156 
L 457.683989 222.108281 
L 463.026543 219.984844 
L 473.711649 212.552812 
L 484.396755 207.244219 
L 498.049947 202.997344 
L 506.360585 190.256719 
L 514.671223 182.824687 
L 527.730798 174.330937 
L 552.662713 164.775469 
L 575.813777 155.22 
L 619.147819 138.2325 
L 949.7925 40.554375 
" clip-path="url(#p9a1de40fd1)" style="fill: none; stroke: #414487; stroke-width: 5; stroke-linecap: round"/>
   </g>
   <g id="PathCollection_6">
    <g clip-path="url(#p9a1de40fd1)">
     <use xlink:href="#ma0a25fad69" x="311.654202" y="389.859844" style="fill: #1a1a1a; stroke: #1a1a1a"/>
    </g>
   </g>
   <g id="line2d_7">
    <path d="M 112.7925 855.954375 
L 130.601011 728.548125 
L 135.349947 705.190312 
L 138.318032 688.202812 
L 142.473351 680.770781 
L 147.222287 664.845 
L 154.345691 647.8575 
L 156.72016 643.610625 
L 164.437181 631.931719 
L 167.405266 624.499687 
L 172.154202 614.944219 
L 175.715904 601.141875 
L 180.46484 597.956719 
L 185.213777 589.462969 
L 187.588245 584.154375 
L 188.775479 583.092656 
L 188.775479 576.722344 
L 192.337181 574.598906 
L 195.305266 570.352031 
L 197.679734 568.228594 
L 200.054202 563.981719 
L 203.615904 560.796562 
L 205.990372 552.302812 
L 208.958457 543.809062 
L 213.707394 536.377031 
L 215.488245 528.945 
L 219.643564 516.204375 
L 223.205266 510.895781 
L 227.360585 500.278594 
L 237.452074 489.661406 
L 246.949947 482.229375 
L 255.260585 474.797344 
L 260.603138 470.550469 
L 268.32016 465.241875 
L 272.475479 458.871562 
L 279.005266 452.50125 
L 289.096755 450.377812 
L 295.626543 446.130937 
L 303.937181 439.760625 
L 311.060585 433.390312 
L 316.996755 428.081719 
L 322.339309 424.896562 
L 324.12016 422.773125 
L 325.901011 422.773125 
L 329.462713 421.711406 
L 331.837181 421.711406 
L 332.430798 421.711406 
L 332.430798 418.52625 
L 333.024415 417.464531 
L 333.618032 415.341094 
L 333.618032 414.279375 
L 334.211649 413.217656 
L 336.586117 406.847344 
L 337.179734 405.785625 
L 338.366968 399.415312 
L 341.92867 391.983281 
L 347.86484 389.859844 
L 348.458457 374.995781 
L 354.394628 371.810625 
L 357.362713 365.440312 
L 359.737181 360.131719 
L 368.047819 351.637969 
L 375.76484 343.144219 
L 382.888245 337.835625 
L 389.418032 330.403594 
L 397.135053 324.033281 
L 406.632926 317.662969 
L 414.349947 310.230937 
L 423.847819 300.675469 
L 434.532926 293.243437 
L 443.437181 288.996562 
L 444.030798 288.996562 
L 451.154202 283.687969 
L 460.058457 278.379375 
L 461.839309 275.194219 
L 464.213777 275.194219 
L 467.775479 272.009062 
L 471.337181 269.885625 
L 472.524415 266.700469 
L 482.022287 263.515312 
L 484.990372 257.145 
L 495.675479 252.898125 
L 506.360585 245.466094 
L 512.890372 239.095781 
L 528.324415 231.66375 
L 543.16484 223.17 
L 555.037181 209.367656 
L 555.630798 209.367656 
L 569.877606 200.873906 
L 584.124415 191.318437 
L 585.311649 191.318437 
L 601.932926 182.824687 
L 623.896755 171.145781 
L 624.490372 171.145781 
L 650.609521 147.787969 
L 651.796755 147.787969 
L 702.847819 122.306719 
L 703.441436 122.306719 
L 949.7925 40.554375 
" clip-path="url(#p9a1de40fd1)" style="fill: none; stroke: #440154; stroke-width: 5; stroke-linecap: round"/>
   </g>
   <g id="PathCollection_7">
    <g clip-path="url(#p9a1de40fd1)">
     <use xlink:href="#ma0a25fad69" x="332.430798" y="420.649687" style="fill: #1a1a1a; stroke: #1a1a1a"/>
    </g>
   </g>
   <g id="patch_3">
    <path d="M 112.7925 855.954375 
L 112.7925 40.554375 
" style="fill: none; stroke: #262626; stroke-width: 1.25; stroke-linejoin: miter; stroke-linecap: square"/>
   </g>
   <g id="patch_4">
    <path d="M 949.7925 855.954375 
L 949.7925 40.554375 
" style="fill: none; stroke: #262626; stroke-width: 1.25; stroke-linejoin: miter; stroke-linecap: square"/>
   </g>
   <g id="patch_5">
    <path d="M 112.7925 855.954375 
L 949.7925 855.954375 
" style="fill: none; stroke: #262626; stroke-width: 1.25; stroke-linejoin: miter; stroke-linecap: square"/>
   </g>
   <g id="patch_6">
    <path d="M 112.7925 40.554375 
L 949.7925 40.554375 
" style="fill: none; stroke: #262626; stroke-width: 1.25; stroke-linejoin: miter; stroke-linecap: square"/>
   </g>
   <g id="text_15">
    <text style="fill: #262626; font: 36px 'sans-serif'; text-anchor: middle" x="531.2925" y="34.554375" transform="rotate(-0 531.2925 34.554375)">Figure 5. ALL Cells</text>
   </g>
   <g id="legend_1">
    <g id="patch_7">
     <path d="M 54.2925 1336.183125 
L 865.164375 1336.183125 
Q 872.364375 1336.183125 872.364375 1328.983125 
L 872.364375 962.694375 
Q 872.364375 955.494375 865.164375 955.494375 
L 54.2925 955.494375 
Q 47.0925 955.494375 47.0925 962.694375 
L 47.0925 1328.983125 
Q 47.0925 1336.183125 54.2925 1336.183125 
z
" style="fill: #ffffff; opacity: 0.8; stroke: #cccccc; stroke-linejoin: miter"/>
    </g>
    <g id="line2d_8">
     <path d="M 61.4925 984.64875 
L 97.4925 984.64875 
L 133.4925 984.64875 
" style="fill: none; stroke: #fde725; stroke-width: 5; stroke-linecap: round"/>
    </g>
    <g id="text_16">
     <text style="fill: #262626; font: 36px 'sans-serif'; text-anchor: start" x="162.2925" y="997.24875" transform="rotate(-0 162.2925 997.24875)">All variables (ROC AUC = 0.97)</text>
    </g>
    <g id="line2d_9">
     <path d="M 61.4925 1037.49 
L 97.4925 1037.49 
L 133.4925 1037.49 
" style="fill: none; stroke: #a5db36; stroke-width: 5; stroke-linecap: round"/>
    </g>
    <g id="text_17">
     <text style="fill: #262626; font: 36px 'sans-serif'; text-anchor: start" x="162.2925" y="1050.09" transform="rotate(-0 162.2925 1050.09)">NAD(P)H variables (ROC AUC = 0.95)</text>
    </g>
    <g id="line2d_10">
     <path d="M 61.4925 1090.33125 
L 97.4925 1090.33125 
L 133.4925 1090.33125 
" style="fill: none; stroke: #4ac16d; stroke-width: 5; stroke-linecap: round"/>
    </g>
    <g id="text_18">
     <text style="fill: #262626; font: 36px 'sans-serif'; text-anchor: start" x="162.2925" y="1102.93125" transform="rotate(-0 162.2925 1102.93125)">Top four variables (ROC AUC) = 0.95)</text>
    </g>
    <g id="line2d_11">
     <path d="M 61.4925 1143.1725 
L 97.4925 1143.1725 
L 133.4925 1143.1725 
" style="fill: none; stroke: #1f988b; stroke-width: 5; stroke-linecap: round"/>
    </g>
    <g id="text_19">
     <text style="fill: #262626; font: 36px 'sans-serif'; text-anchor: start" x="162.2925" y="1155.7725" transform="rotate(-0 162.2925 1155.7725)">Top three variables (ROC AUC) = 0.94)</text>
    </g>
    <g id="line2d_12">
     <path d="M 61.4925 1196.01375 
L 97.4925 1196.01375 
L 133.4925 1196.01375 
" style="fill: none; stroke: #2a788e; stroke-width: 5; stroke-linecap: round"/>
    </g>
    <g id="text_20">
     <text style="fill: #262626; font: 36px 'sans-serif'; text-anchor: start" x="162.2925" y="1208.61375" transform="rotate(-0 162.2925 1208.61375)">Top two variables (ROC AUC) = 0.92)</text>
    </g>
    <g id="line2d_13">
     <path d="M 61.4925 1248.855 
L 97.4925 1248.855 
L 133.4925 1248.855 
" style="fill: none; stroke: #414487; stroke-width: 5; stroke-linecap: round"/>
    </g>
    <g id="text_21">
     <text style="fill: #262626; font: 36px 'sans-serif'; text-anchor: start" x="162.2925" y="1261.455" transform="rotate(-0 162.2925 1261.455)">Top variable (ROC AUC) = 0.76)</text>
    </g>
    <g id="line2d_14">
     <path d="M 61.4925 1301.69625 
L 97.4925 1301.69625 
L 133.4925 1301.69625 
" style="fill: none; stroke: #440154; stroke-width: 5; stroke-linecap: round"/>
    </g>
    <g id="text_22">
     <text style="fill: #262626; font: 36px 'sans-serif'; text-anchor: start" x="162.2925" y="1314.29625" transform="rotate(-0 162.2925 1314.29625)">Norm. Redox Ratio (ROC AUC) = 0.71)</text>
    </g>
   </g>
  </g>
 </g>
 <defs>
  <clipPath id="p9a1de40fd1">
   <rect x="112.7925" y="40.554375" width="837" height="815.4"/>
  </clipPath>
 </defs>
</svg>
