<?xml version="1.0" encoding="utf-8" standalone="no"?>
<!DOCTYPE svg PUBLIC "-//W3C//DTD SVG 1.1//EN"
  "http://www.w3.org/Graphics/SVG/1.1/DTD/svg11.dtd">
<svg xmlns:xlink="http://www.w3.org/1999/xlink" width="1077.94125pt" height="1343.383125pt" viewBox="0 0 1077.94125 1343.383125" xmlns="http://www.w3.org/2000/svg" version="1.1">
 <metadata>
  <rdf:RDF xmlns:dc="http://purl.org/dc/elements/1.1/" xmlns:cc="http://creativecommons.org/ns#" xmlns:rdf="http://www.w3.org/1999/02/22-rdf-syntax-ns#">
   <cc:Work>
    <dc:type rdf:resource="http://purl.org/dc/dcmitype/StillImage"/>
    <dc:date>2022-11-29T18:30:57.778209</dc:date>
    <dc:format>image/svg+xml</dc:format>
    <dc:creator>
     <cc:Agent>
      <dc:title>Matplotlib v3.6.0, https://matplotlib.org/</dc:title>
     </cc:Agent>
    </dc:creator>
   </cc:Work>
  </rdf:RDF>
 </metadata>
 <defs>
  <style type="text/css">*{stroke-linejoin: round; stroke-linecap: butt}</style>
 </defs>
 <g id="figure_1">
  <g id="patch_1">
   <path d="M 0 1343.383125 
L 1077.94125 1343.383125 
L 1077.94125 0 
L 0 0 
z
" style="fill: #ffffff"/>
  </g>
  <g id="axes_1">
   <g id="patch_2">
    <path d="M 112.7925 855.954375 
L 949.7925 855.954375 
L 949.7925 40.554375 
L 112.7925 40.554375 
z
" style="fill: #ffffff"/>
   </g>
   <g id="matplotlib.axis_1">
    <g id="xtick_1">
     <g id="text_1">
      <text style="fill: #262626; font: 36px 'sans-serif'; text-anchor: middle" x="112.7925" y="892.80875" transform="rotate(-0 112.7925 892.80875)">0.0</text>
     </g>
    </g>
    <g id="xtick_2">
     <g id="text_2">
      <text style="fill: #262626; font: 36px 'sans-serif'; text-anchor: middle" x="280.1925" y="892.80875" transform="rotate(-0 280.1925 892.80875)">0.2</text>
     </g>
    </g>
    <g id="xtick_3">
     <g id="text_3">
      <text style="fill: #262626; font: 36px 'sans-serif'; text-anchor: middle" x="447.5925" y="892.80875" transform="rotate(-0 447.5925 892.80875)">0.4</text>
     </g>
    </g>
    <g id="xtick_4">
     <g id="text_4">
      <text style="fill: #262626; font: 36px 'sans-serif'; text-anchor: middle" x="614.9925" y="892.80875" transform="rotate(-0 614.9925 892.80875)">0.6</text>
     </g>
    </g>
    <g id="xtick_5">
     <g id="text_5">
      <text style="fill: #262626; font: 36px 'sans-serif'; text-anchor: middle" x="782.3925" y="892.80875" transform="rotate(-0 782.3925 892.80875)">0.8</text>
     </g>
    </g>
    <g id="xtick_6">
     <g id="text_6">
      <text style="fill: #262626; font: 36px 'sans-serif'; text-anchor: middle" x="949.7925" y="892.80875" transform="rotate(-0 949.7925 892.80875)">1.0</text>
     </g>
    </g>
    <g id="text_7">
     <text style="fill: #262626; font: 36px 'sans-serif'; text-anchor: middle" x="531.2925" y="931.65" transform="rotate(-0 531.2925 931.65)">False Positive Rate</text>
    </g>
   </g>
   <g id="matplotlib.axis_2">
    <g id="ytick_1">
     <g id="text_8">
      <text style="fill: #262626; font: 36px 'sans-serif'; text-anchor: end" x="103.2925" y="869.631562" transform="rotate(-0 103.2925 869.631562)">0.0</text>
     </g>
    </g>
    <g id="ytick_2">
     <g id="text_9">
      <text style="fill: #262626; font: 36px 'sans-serif'; text-anchor: end" x="103.2925" y="706.551562" transform="rotate(-0 103.2925 706.551562)">0.2</text>
     </g>
    </g>
    <g id="ytick_3">
     <g id="text_10">
      <text style="fill: #262626; font: 36px 'sans-serif'; text-anchor: end" x="103.2925" y="543.471562" transform="rotate(-0 103.2925 543.471562)">0.4</text>
     </g>
    </g>
    <g id="ytick_4">
     <g id="text_11">
      <text style="fill: #262626; font: 36px 'sans-serif'; text-anchor: end" x="103.2925" y="380.391562" transform="rotate(-0 103.2925 380.391562)">0.6</text>
     </g>
    </g>
    <g id="ytick_5">
     <g id="text_12">
      <text style="fill: #262626; font: 36px 'sans-serif'; text-anchor: end" x="103.2925" y="217.311562" transform="rotate(-0 103.2925 217.311562)">0.8</text>
     </g>
    </g>
    <g id="ytick_6">
     <g id="text_13">
      <text style="fill: #262626; font: 36px 'sans-serif'; text-anchor: end" x="103.2925" y="54.231562" transform="rotate(-0 103.2925 54.231562)">1.0</text>
     </g>
    </g>
    <g id="text_14">
     <text style="fill: #262626; font: 36px 'sans-serif'; text-anchor: middle" x="34.554375" y="448.254375" transform="rotate(-90 34.554375 448.254375)">True Positive Rate</text>
    </g>
   </g>
   <g id="line2d_1">
    <path d="M 112.7925 855.954375 
L 112.7925 727.407174 
L 113.291011 668.077696 
L 113.789522 634.609785 
L 113.789522 604.945047 
L 113.789522 588.971726 
L 113.789522 570.716502 
L 114.288033 559.306987 
L 114.288033 550.940009 
L 114.288033 539.530494 
L 114.786544 531.924151 
L 116.282077 516.711465 
L 116.780588 509.105121 
L 116.780588 498.456241 
L 117.279099 483.243554 
L 117.77761 471.073405 
L 118.276121 465.748965 
L 118.276121 455.860718 
L 118.774632 448.254375 
L 119.273143 439.887397 
L 120.270165 427.717248 
L 120.270165 420.871539 
L 120.768676 414.02583 
L 121.267187 404.137584 
L 121.765698 395.770606 
L 124.756764 385.88236 
L 125.753786 380.55792 
L 126.750809 369.909039 
L 128.246342 361.542062 
L 129.243364 353.175084 
L 131.237408 349.371912 
L 132.23443 341.765569 
L 133.729963 334.159226 
L 134.726985 328.074151 
L 136.222518 320.467808 
L 141.207628 303.733853 
L 141.706139 299.170047 
L 145.195716 289.2818 
L 147.18976 284.717994 
L 151.177848 279.393554 
L 153.670404 274.829748 
L 156.66147 264.941502 
L 160.151047 258.856427 
L 162.643602 253.531987 
L 169.622756 241.361838 
L 173.610844 235.276763 
L 177.100421 228.431054 
L 182.085532 221.585345 
L 188.566175 212.457733 
L 194.049796 205.612024 
L 199.533417 201.048218 
L 203.022994 196.484412 
L 207.509594 185.835532 
L 213.491726 181.271726 
L 219.972369 175.947285 
L 226.951523 170.622845 
L 232.435144 166.059039 
L 239.91281 159.21333 
L 245.894942 156.170793 
L 249.88303 151.606987 
L 254.369629 149.325084 
L 259.85325 145.521912 
L 263.342828 140.958106 
L 270.820493 135.633666 
L 276.802625 130.309226 
L 280.292202 125.74542 
L 287.271356 120.420979 
L 294.250511 116.617808 
L 297.740088 112.814636 
L 306.214775 109.772099 
L 313.193929 107.490196 
L 319.674573 102.165756 
L 325.158194 101.405121 
L 330.143304 99.123218 
L 336.125436 93.038144 
L 343.104591 86.953069 
L 347.59119 83.149897 
L 357.56141 81.628629 
L 366.534608 80.10736 
L 374.510785 73.261651 
L 381.489939 70.979748 
L 388.967604 67.937211 
L 394.451225 66.415942 
L 400.931869 64.894674 
L 409.406556 61.091502 
L 421.869331 56.527696 
L 437.323173 55.767062 
L 446.794882 55.767062 
L 453.275526 51.203256 
L 462.747235 48.921353 
L 473.215966 48.921353 
L 484.68172 47.400084 
L 501.631094 46.63945 
L 522.568557 46.63945 
L 545.001553 46.63945 
L 576.407747 44.357547 
L 610.306496 42.836278 
L 657.166532 42.836278 
L 736.928295 41.315009 
L 949.7925 40.554375 
" clip-path="url(#p52518eb45e)" style="fill: none; stroke: #fde725; stroke-width: 5; stroke-linecap: round"/>
   </g>
   <g id="PathCollection_1">
    <defs>
     <path id="me7aa99ce70" d="M 0 11.18034 
C 2.965061 11.18034 5.80908 10.002309 7.905694 7.905694 
C 10.002309 5.80908 11.18034 2.965061 11.18034 0 
C 11.18034 -2.965061 10.002309 -5.80908 7.905694 -7.905694 
C 5.80908 -10.002309 2.965061 -11.18034 0 -11.18034 
C -2.965061 -11.18034 -5.80908 -10.002309 -7.905694 -7.905694 
C -10.002309 -5.80908 -11.18034 -2.965061 -11.18034 0 
C -11.18034 2.965061 -10.002309 5.80908 -7.905694 7.905694 
C -5.80908 10.002309 -2.965061 11.18034 0 11.18034 
z
" style="stroke: #1a1a1a"/>
    </defs>
    <g clip-path="url(#p52518eb45e)">
     <use xlink:href="#me7aa99ce70" x="188.566175" y="212.457733" style="fill: #1a1a1a; stroke: #1a1a1a"/>
    </g>
   </g>
   <g id="line2d_2">
    <path d="M 112.7925 855.954375 
L 112.7925 693.178629 
L 112.7925 639.173591 
L 113.789522 605.705681 
L 113.789522 584.40792 
L 114.786544 567.673965 
L 115.285055 550.940009 
L 115.783566 538.76986 
L 116.282077 528.881614 
L 117.77761 521.275271 
L 118.774632 510.62639 
L 119.771654 503.020047 
L 119.771654 494.653069 
L 121.267187 477.919114 
L 123.759742 468.791502 
L 124.258253 464.227696 
L 124.756764 457.381987 
L 126.252297 452.818181 
L 127.24932 447.493741 
L 128.744853 433.802323 
L 129.741875 426.195979 
L 129.741875 417.068368 
L 130.240386 414.02583 
L 132.732941 404.137584 
L 134.726985 393.488703 
L 138.216562 382.079188 
L 138.715073 375.233479 
L 139.712095 367.627136 
L 141.207628 359.260159 
L 141.207628 353.935718 
L 142.703161 351.653815 
L 146.192738 342.526203 
L 147.18976 333.398591 
L 148.186782 329.59542 
L 149.183804 322.749711 
L 151.177848 317.425271 
L 152.673381 313.622099 
L 156.162959 306.77639 
L 158.157003 298.409412 
L 160.151047 292.324338 
L 163.640624 283.196726 
L 166.63169 273.308479 
L 169.124245 267.984039 
L 174.109355 261.898965 
L 178.097443 255.81389 
L 182.085532 250.48945 
L 185.076598 246.686278 
L 188.566175 239.840569 
L 190.560219 232.99486 
L 193.052774 226.909785 
L 197.539373 221.585345 
L 203.022994 216.260905 
L 206.512571 212.457733 
L 209.503638 207.133293 
L 214.987259 201.048218 
L 218.476836 197.245047 
L 222.464924 195.723778 
L 227.948545 192.681241 
L 231.438122 186.596166 
L 235.426211 181.271726 
L 240.411321 178.229188 
L 243.900898 171.383479 
L 247.390475 168.340942 
L 252.874096 163.016502 
L 256.862184 160.734599 
L 262.844317 154.649524 
L 269.32496 150.085718 
L 274.808581 147.803815 
L 281.787735 145.521912 
L 286.772845 140.197472 
L 292.754978 135.633666 
L 297.740088 131.06986 
L 303.72222 127.266688 
L 308.208819 124.984785 
L 315.187973 118.899711 
L 320.173084 115.857174 
L 325.656705 107.490196 
L 333.13437 103.687024 
L 341.609057 99.123218 
L 346.095657 95.320047 
L 355.068855 93.038144 
L 363.543542 89.995606 
L 370.522697 87.713703 
L 380.492917 84.671166 
L 383.982494 82.389263 
L 393.454203 79.346726 
L 399.436336 78.586091 
L 409.406556 75.543554 
L 420.872309 74.78292 
L 431.839552 71.740382 
L 446.296371 68.697845 
L 461.750213 64.894674 
L 473.215966 61.852136 
L 486.177253 55.767062 
L 502.129605 53.485159 
L 514.592381 50.442621 
L 532.538778 47.400084 
L 553.47624 46.63945 
L 588.870523 46.63945 
L 652.679933 45.118181 
L 727.456586 42.075644 
L 949.7925 40.554375 
" clip-path="url(#p52518eb45e)" style="fill: none; stroke: #a5db36; stroke-width: 5; stroke-linecap: round"/>
   </g>
   <g id="PathCollection_2">
    <g clip-path="url(#p52518eb45e)">
     <use xlink:href="#me7aa99ce70" x="197.539373" y="221.585345" style="fill: #1a1a1a; stroke: #1a1a1a"/>
    </g>
   </g>
   <g id="line2d_3">
    <path d="M 112.7925 855.954375 
L 114.288033 675.684039 
L 114.288033 626.242808 
L 114.786544 598.099338 
L 115.783566 575.280308 
L 116.282077 558.546353 
L 116.282077 547.897472 
L 116.780588 539.530494 
L 117.279099 523.557174 
L 118.276121 513.668927 
L 118.276121 506.062584 
L 119.273143 495.413703 
L 120.270165 487.046726 
L 120.768676 478.679748 
L 121.267187 465.748965 
L 121.267187 458.903256 
L 122.264209 451.296912 
L 124.258253 440.648032 
L 125.255275 433.802323 
L 126.252297 422.392808 
L 128.744853 418.589636 
L 129.741875 414.786465 
L 131.735919 409.462024 
L 133.231452 403.37695 
L 134.726985 396.531241 
L 135.724007 389.685532 
L 136.721029 379.797285 
L 137.21954 371.430308 
L 140.210606 369.148405 
L 144.697205 363.06333 
L 146.691249 355.456987 
L 150.180826 350.893181 
L 152.673381 345.568741 
L 154.168915 335.680494 
L 156.66147 329.59542 
L 160.151047 323.510345 
L 161.64658 317.425271 
L 165.136157 312.861465 
L 167.130201 304.494487 
L 169.622756 297.648778 
L 172.613822 289.2818 
L 176.60191 278.63292 
L 179.592976 271.787211 
L 183.082554 262.659599 
L 185.076598 256.574524 
L 189.563197 252.010718 
L 194.049796 245.925644 
L 196.542351 242.883106 
L 200.031928 233.755494 
L 203.521505 227.67042 
L 206.512571 220.064076 
L 211.996193 213.218368 
L 217.978325 210.936465 
L 218.476836 207.133293 
L 223.461946 204.090756 
L 226.453012 198.005681 
L 232.933655 192.681241 
L 236.423233 188.878069 
L 238.915788 180.511091 
L 242.903876 177.468554 
L 248.886008 170.622845 
L 252.874096 167.580308 
L 257.360695 161.495233 
L 263.841339 156.931427 
L 267.829427 150.846353 
L 274.31007 143.240009 
L 280.292202 140.197472 
L 285.775823 136.3943 
L 290.262423 134.873032 
L 293.752 131.06986 
L 301.229665 127.266688 
L 307.710308 118.899711 
L 313.69244 115.096539 
L 319.674573 112.814636 
L 323.16415 111.293368 
L 332.635859 109.772099 
L 337.620969 106.729562 
L 347.59119 102.92639 
L 357.062899 100.644487 
L 361.549498 98.362584 
L 372.01823 91.516875 
L 377.501851 89.234972 
L 384.481005 87.713703 
L 390.463137 85.4318 
L 400.931869 80.867994 
L 410.403578 77.064823 
L 421.869331 73.261651 
L 433.335085 72.501017 
L 438.818706 69.458479 
L 448.290415 67.176576 
L 461.750213 65.655308 
L 473.215966 63.373405 
L 489.168319 57.28833 
L 504.622161 56.527696 
L 524.06409 54.245793 
L 545.001553 51.96389 
L 574.413703 51.203256 
L 605.321386 48.921353 
L 658.662065 46.63945 
L 737.925317 45.118181 
L 949.7925 40.554375 
" clip-path="url(#p52518eb45e)" style="fill: none; stroke: #4ac16d; stroke-width: 5; stroke-linecap: round"/>
   </g>
   <g id="PathCollection_3">
    <g clip-path="url(#p52518eb45e)">
     <use xlink:href="#me7aa99ce70" x="203.521505" y="227.67042" style="fill: #1a1a1a; stroke: #1a1a1a"/>
    </g>
   </g>
   <g id="line2d_4">
    <path d="M 112.7925 855.954375 
L 113.291011 722.843368 
L 114.786544 686.33292 
L 115.285055 645.258666 
L 116.282077 624.721539 
L 116.780588 611.030121 
L 117.279099 600.381241 
L 117.77761 580.604748 
L 117.77761 566.91333 
L 119.273143 555.503815 
L 120.270165 545.615569 
L 120.768676 535.727323 
L 121.765698 528.881614 
L 123.759742 515.95083 
L 125.255275 511.387024 
L 126.252297 503.020047 
L 126.750809 498.456241 
L 126.750809 488.567994 
L 127.747831 483.243554 
L 129.741875 474.876576 
L 132.732941 466.509599 
L 132.732941 460.424524 
L 133.729963 450.536278 
L 134.726985 443.690569 
L 137.21954 439.887397 
L 139.712095 437.605494 
L 141.207628 426.956614 
L 144.697205 418.589636 
L 147.18976 412.504562 
L 148.685293 404.898218 
L 151.676359 397.291875 
L 152.673381 391.967435 
L 154.667426 384.361091 
L 156.66147 377.515382 
L 158.157003 370.669674 
L 160.649558 363.823965 
L 164.139135 359.260159 
L 167.628712 357.73889 
L 170.619778 351.653815 
L 173.610844 341.004935 
L 179.094465 335.680494 
L 183.082554 329.59542 
L 186.07362 322.749711 
L 189.064686 315.143368 
L 191.557241 310.579562 
L 197.040862 302.973218 
L 201.02895 296.127509 
L 205.515549 291.563703 
L 210.002149 286.239263 
L 216.482792 279.393554 
L 222.464924 275.590382 
L 226.951523 271.026576 
L 228.945567 264.941502 
L 233.930677 258.095793 
L 241.906854 245.925644 
L 248.387497 239.079935 
L 250.381541 233.755494 
L 251.877074 226.149151 
L 255.865162 217.782174 
L 264.33985 212.457733 
L 271.319004 206.372659 
L 278.298158 199.52695 
L 285.277312 196.484412 
L 292.256467 191.920606 
L 297.241577 188.117435 
L 301.229665 183.553629 
L 310.202863 178.989823 
L 315.686485 172.144114 
L 326.155216 162.255868 
L 336.125436 158.452696 
L 346.095657 156.931427 
L 352.5763 153.128256 
L 358.558432 149.325084 
L 368.528652 146.282547 
L 376.006318 142.479375 
L 382.985472 137.915569 
L 390.961648 133.351763 
L 396.44527 127.266688 
L 405.418468 122.702882 
L 412.896133 117.378442 
L 425.358909 112.814636 
L 430.344019 106.729562 
L 436.326151 102.92639 
L 447.293393 93.798778 
L 456.266592 87.713703 
L 463.744257 84.671166 
L 475.708521 81.628629 
L 484.68172 76.304188 
L 492.159385 74.022285 
L 504.123649 71.740382 
L 521.571535 68.697845 
L 535.031333 64.894674 
L 552.479218 59.570233 
L 567.434549 57.28833 
L 591.363078 55.006427 
L 614.294585 53.485159 
L 651.682911 50.442621 
L 688.572726 48.160718 
L 738.922339 45.878815 
L 803.728772 44.357547 
L 949.7925 40.554375 
" clip-path="url(#p52518eb45e)" style="fill: none; stroke: #1f988b; stroke-width: 5; stroke-linecap: round"/>
   </g>
   <g id="PathCollection_4">
    <g clip-path="url(#p52518eb45e)">
     <use xlink:href="#me7aa99ce70" x="222.464924" y="275.590382" style="fill: #1a1a1a; stroke: #1a1a1a"/>
    </g>
   </g>
   <g id="line2d_5">
    <path d="M 112.7925 855.954375 
L 115.783566 728.167808 
L 115.783566 700.024338 
L 117.77761 681.008479 
L 118.276121 664.274524 
L 118.774632 655.146912 
L 120.270165 642.216129 
L 122.264209 631.567248 
L 123.759742 620.157733 
L 124.756764 613.312024 
L 124.756764 604.945047 
L 126.252297 595.0568 
L 127.24932 585.168554 
L 128.744853 579.083479 
L 129.741875 572.237771 
L 130.738897 562.349524 
L 134.228474 557.025084 
L 135.724007 551.700644 
L 138.715073 541.812397 
L 141.706139 534.206054 
L 142.703161 531.163517 
L 143.201672 526.599711 
L 145.195716 522.035905 
L 147.688271 518.232733 
L 152.673381 510.62639 
L 156.162959 505.30195 
L 160.151047 493.1318 
L 164.637646 490.849897 
L 169.124245 485.525457 
L 170.619778 479.440382 
L 172.613822 474.115942 
L 178.595954 471.073405 
L 182.085532 467.270233 
L 185.076598 465.748965 
L 188.067664 460.424524 
L 193.551285 455.100084 
L 199.034906 450.536278 
L 202.524483 447.493741 
L 204.518527 442.1693 
L 210.999171 433.802323 
L 214.987259 425.435345 
L 221.467902 417.068368 
L 229.942589 404.898218 
L 232.933655 395.770606 
L 237.918766 389.685532 
L 244.399409 380.55792 
L 250.381541 377.515382 
L 255.366651 369.909039 
L 258.856228 364.584599 
L 260.850272 356.978256 
L 262.844317 352.41445 
L 267.829427 344.047472 
L 272.814537 336.441129 
L 279.29518 330.356054 
L 284.778801 316.664636 
L 287.769867 305.255121 
L 291.259445 299.170047 
L 298.73711 293.084972 
L 304.719242 285.478629 
L 312.695418 282.436091 
L 318.677551 277.872285 
L 326.653727 270.265942 
L 333.632881 264.941502 
L 341.110546 261.898965 
L 349.585234 251.250084 
L 354.570344 245.925644 
L 362.048009 236.798032 
L 366.534608 232.234226 
L 374.510785 224.627882 
L 379.495895 219.303442 
L 386.475049 216.260905 
L 399.436336 208.654562 
L 408.908045 201.808853 
L 417.382732 198.005681 
L 429.845508 191.159972 
L 434.332107 185.074897 
L 445.299349 177.468554 
L 454.771059 172.144114 
L 460.25468 164.537771 
L 470.723411 156.931427 
L 483.186187 156.931427 
L 491.162363 151.606987 
L 500.135561 142.479375 
L 509.607271 137.154935 
L 517.583447 130.309226 
L 528.550689 127.266688 
L 537.523888 118.139076 
L 547.494108 112.814636 
L 556.965817 109.011465 
L 570.924126 104.447659 
L 586.377968 99.883853 
L 598.342232 95.320047 
L 612.300541 89.234972 
L 629.249915 83.910532 
L 643.208224 81.628629 
L 662.650153 75.543554 
L 685.58166 69.458479 
L 705.522101 64.894674 
L 739.919361 62.612771 
L 773.319599 61.852136 
L 827.158789 54.245793 
L 949.7925 40.554375 
" clip-path="url(#p52518eb45e)" style="fill: none; stroke: #2a788e; stroke-width: 5; stroke-linecap: round"/>
   </g>
   <g id="PathCollection_5">
    <g clip-path="url(#p52518eb45e)">
     <use xlink:href="#me7aa99ce70" x="262.844317" y="352.41445" style="fill: #1a1a1a; stroke: #1a1a1a"/>
    </g>
   </g>
   <g id="line2d_6">
    <path d="M 112.7925 855.954375 
L 116.780588 714.47639 
L 118.774632 676.444674 
L 119.771654 651.343741 
L 121.765698 633.088517 
L 123.261231 624.721539 
L 124.756764 614.833293 
L 125.753786 611.030121 
L 127.24932 604.945047 
L 130.738897 598.099338 
L 130.738897 592.014263 
L 131.735919 584.40792 
L 132.732941 577.562211 
L 135.225496 572.998405 
L 136.222518 567.673965 
L 138.715073 561.58889 
L 142.703161 552.461278 
L 147.688271 543.333666 
L 149.183804 533.44542 
L 150.180826 525.839076 
L 153.171892 521.275271 
L 154.667426 512.908293 
L 156.162959 507.583853 
L 157.159981 498.456241 
L 161.148069 493.1318 
L 163.640624 487.80736 
L 167.130201 480.961651 
L 168.625734 472.594674 
L 171.6168 467.270233 
L 175.604888 463.467062 
L 179.592976 457.381987 
L 185.575109 454.33945 
L 190.061708 446.733106 
L 191.557241 442.929935 
L 196.04384 436.84486 
L 200.031928 430.759785 
L 203.022994 426.195979 
L 206.512571 419.350271 
L 211.996193 416.307733 
L 217.479814 407.940756 
L 220.969391 401.855681 
L 222.464924 392.728069 
L 226.951523 385.88236 
L 230.4411 378.276017 
L 234.429189 372.190942 
L 240.909832 365.345233 
L 244.89792 357.73889 
L 251.877074 354.696353 
L 257.859206 353.175084 
L 260.850272 348.611278 
L 267.829427 343.286838 
L 272.316026 337.962397 
L 277.301136 335.680494 
L 282.286246 331.116688 
L 287.271356 327.313517 
L 293.752 320.467808 
L 298.238599 314.382733 
L 304.220731 312.10083 
L 308.208819 307.537024 
L 315.187973 303.733853 
L 320.173084 296.888144 
L 329.644793 287.760532 
L 335.128414 283.95736 
L 341.609057 279.393554 
L 348.588212 274.069114 
L 356.564388 271.026576 
L 360.053965 267.984039 
L 365.039075 264.941502 
L 376.504829 258.095793 
L 385.976538 248.207547 
L 394.451225 241.361838 
L 399.934847 236.798032 
L 408.908045 232.234226 
L 418.379754 228.431054 
L 423.364865 220.064076 
L 430.84253 210.936465 
L 439.815728 202.569487 
L 446.296371 200.287584 
L 453.774037 194.202509 
L 467.233834 187.3568 
L 476.207032 177.468554 
L 486.177253 171.383479 
L 498.141517 166.059039 
L 505.120672 161.495233 
L 518.081958 154.649524 
L 532.040267 147.043181 
L 543.007509 140.958106 
L 555.968795 137.915569 
L 572.419659 131.06986 
L 582.389879 127.266688 
L 601.831809 118.899711 
L 620.276717 112.054002 
L 638.721624 109.011465 
L 652.679933 96.841315 
L 673.617396 89.234972 
L 689.569748 82.389263 
L 709.510189 73.261651 
L 727.456586 65.655308 
L 756.868736 57.28833 
L 810.209415 50.442621 
L 949.7925 40.554375 
" clip-path="url(#p52518eb45e)" style="fill: none; stroke: #414487; stroke-width: 5; stroke-linecap: round"/>
   </g>
   <g id="PathCollection_6">
    <g clip-path="url(#p52518eb45e)">
     <use xlink:href="#me7aa99ce70" x="260.850272" y="348.611278" style="fill: #1a1a1a; stroke: #1a1a1a"/>
    </g>
   </g>
   <g id="line2d_7">
    <path d="M 112.7925 855.954375 
L 132.23443 721.322099 
L 138.216562 697.742435 
L 141.706139 687.854188 
L 146.691249 668.83833 
L 149.682315 658.950084 
L 155.165937 645.258666 
L 158.655514 639.173591 
L 163.640624 633.088517 
L 168.625734 616.354562 
L 174.109355 605.705681 
L 178.595954 597.338703 
L 185.575109 592.014263 
L 192.055752 583.647285 
L 196.542351 576.801576 
L 199.533417 572.237771 
L 204.020016 564.631427 
L 209.005127 561.58889 
L 211.996193 559.306987 
L 212.494704 556.26445 
L 214.488748 554.743181 
L 216.981303 548.658106 
L 219.473858 545.615569 
L 222.963435 543.333666 
L 226.453012 535.727323 
L 232.435144 528.120979 
L 236.921744 518.993368 
L 240.411321 511.387024 
L 245.396431 504.541315 
L 248.387497 496.934972 
L 256.862184 488.567994 
L 264.33985 478.679748 
L 269.823471 473.355308 
L 280.292202 470.312771 
L 290.760934 455.860718 
L 300.232643 449.775644 
L 308.70733 441.408666 
L 314.689462 432.281054 
L 322.167128 426.956614 
L 327.650749 421.632174 
L 329.644793 417.829002 
L 336.125436 410.983293 
L 341.609057 410.222659 
L 343.603102 407.180121 
L 345.098635 407.180121 
L 348.089701 406.419487 
L 350.083745 404.898218 
L 351.579278 404.137584 
L 352.077789 403.37695 
L 353.573322 403.37695 
L 354.071833 402.616315 
L 354.071833 401.095047 
L 354.071833 400.334412 
L 354.570344 397.291875 
L 355.567366 395.770606 
L 356.065877 394.249338 
L 357.56141 391.967435 
L 359.056943 386.642994 
L 363.045031 382.079188 
L 366.036097 377.515382 
L 368.528652 373.712211 
L 373.015252 368.387771 
L 380.991428 363.06333 
L 385.976538 357.73889 
L 394.949736 347.090009 
L 403.424424 339.483666 
L 412.397622 330.356054 
L 421.869331 321.989076 
L 429.845508 314.382733 
L 434.830618 306.015756 
L 446.296371 296.888144 
L 458.260636 289.2818 
L 465.23979 282.436091 
L 471.221922 274.829748 
L 479.69661 271.787211 
L 483.186187 269.505308 
L 487.174275 267.984039 
L 490.165341 263.420233 
L 494.65194 260.377696 
L 500.634072 253.531987 
L 507.114716 245.165009 
L 512.598337 241.361838 
L 513.096848 241.361838 
L 517.084936 236.798032 
L 531.541756 232.99486 
L 542.010487 223.867248 
L 554.971773 216.260905 
L 563.944972 206.372659 
L 573.915192 198.766315 
L 584.882434 185.074897 
L 596.348188 178.989823 
L 608.810963 173.665382 
L 626.258849 162.255868 
L 643.706735 149.325084 
L 670.127819 133.351763 
L 713.498277 109.772099 
L 949.7925 40.554375 
" clip-path="url(#p52518eb45e)" style="fill: none; stroke: #440154; stroke-width: 5; stroke-linecap: round"/>
   </g>
   <g id="PathCollection_7">
    <g clip-path="url(#p52518eb45e)">
     <use xlink:href="#me7aa99ce70" x="353.074811" y="403.37695" style="fill: #1a1a1a; stroke: #1a1a1a"/>
    </g>
   </g>
   <g id="patch_3">
    <path d="M 112.7925 855.954375 
L 112.7925 40.554375 
" style="fill: none; stroke: #262626; stroke-width: 1.25; stroke-linejoin: miter; stroke-linecap: square"/>
   </g>
   <g id="patch_4">
    <path d="M 949.7925 855.954375 
L 949.7925 40.554375 
" style="fill: none; stroke: #262626; stroke-width: 1.25; stroke-linejoin: miter; stroke-linecap: square"/>
   </g>
   <g id="patch_5">
    <path d="M 112.7925 855.954375 
L 949.7925 855.954375 
" style="fill: none; stroke: #262626; stroke-width: 1.25; stroke-linejoin: miter; stroke-linecap: square"/>
   </g>
   <g id="patch_6">
    <path d="M 112.7925 40.554375 
L 949.7925 40.554375 
" style="fill: none; stroke: #262626; stroke-width: 1.25; stroke-linejoin: miter; stroke-linecap: square"/>
   </g>
   <g id="text_15">
    <text style="fill: #262626; font: 36px 'sans-serif'; text-anchor: middle" x="531.2925" y="34.554375" transform="rotate(-0 531.2925 34.554375)">Figure 5. ALL Cells</text>
   </g>
   <g id="legend_1">
    <g id="patch_7">
     <path d="M 54.2925 1336.183125 
L 1063.54125 1336.183125 
Q 1070.74125 1336.183125 1070.74125 1328.983125 
L 1070.74125 962.694375 
Q 1070.74125 955.494375 1063.54125 955.494375 
L 54.2925 955.494375 
Q 47.0925 955.494375 47.0925 962.694375 
L 47.0925 1328.983125 
Q 47.0925 1336.183125 54.2925 1336.183125 
z
" style="fill: #ffffff; opacity: 0.8; stroke: #cccccc; stroke-linejoin: miter"/>
    </g>
    <g id="line2d_8">
     <path d="M 61.4925 984.64875 
L 97.4925 984.64875 
L 133.4925 984.64875 
" style="fill: none; stroke: #fde725; stroke-width: 5; stroke-linecap: round"/>
    </g>
    <g id="text_16">
     <text style="fill: #262626; font: 36px 'sans-serif'; text-anchor: start" x="162.2925" y="997.24875" transform="rotate(-0 162.2925 997.24875)">All variables (ROC AUC = 0.94)</text>
    </g>
    <g id="line2d_9">
     <path d="M 61.4925 1037.49 
L 97.4925 1037.49 
L 133.4925 1037.49 
" style="fill: none; stroke: #a5db36; stroke-width: 5; stroke-linecap: round"/>
    </g>
    <g id="text_17">
     <text style="fill: #262626; font: 36px 'sans-serif'; text-anchor: start" x="162.2925" y="1050.09" transform="rotate(-0 162.2925 1050.09)">NAD(P)H variables + Cell Size (ROC AUC = 0.93)</text>
    </g>
    <g id="line2d_10">
     <path d="M 61.4925 1090.33125 
L 97.4925 1090.33125 
L 133.4925 1090.33125 
" style="fill: none; stroke: #4ac16d; stroke-width: 5; stroke-linecap: round"/>
    </g>
    <g id="text_18">
     <text style="fill: #262626; font: 36px 'sans-serif'; text-anchor: start" x="162.2925" y="1102.93125" transform="rotate(-0 162.2925 1102.93125)">Top four variables (ROC AUC) = 0.92)</text>
    </g>
    <g id="line2d_11">
     <path d="M 61.4925 1143.1725 
L 97.4925 1143.1725 
L 133.4925 1143.1725 
" style="fill: none; stroke: #1f988b; stroke-width: 5; stroke-linecap: round"/>
    </g>
    <g id="text_19">
     <text style="fill: #262626; font: 36px 'sans-serif'; text-anchor: start" x="162.2925" y="1155.7725" transform="rotate(-0 162.2925 1155.7725)">Top three variables (ROC AUC) = 0.89)</text>
    </g>
    <g id="line2d_12">
     <path d="M 61.4925 1196.01375 
L 97.4925 1196.01375 
L 133.4925 1196.01375 
" style="fill: none; stroke: #2a788e; stroke-width: 5; stroke-linecap: round"/>
    </g>
    <g id="text_20">
     <text style="fill: #262626; font: 36px 'sans-serif'; text-anchor: start" x="162.2925" y="1208.61375" transform="rotate(-0 162.2925 1208.61375)">Top two variables (ROC AUC) = 0.82)</text>
    </g>
    <g id="line2d_13">
     <path d="M 61.4925 1248.855 
L 97.4925 1248.855 
L 133.4925 1248.855 
" style="fill: none; stroke: #414487; stroke-width: 5; stroke-linecap: round"/>
    </g>
    <g id="text_21">
     <text style="fill: #262626; font: 36px 'sans-serif'; text-anchor: start" x="162.2925" y="1261.455" transform="rotate(-0 162.2925 1261.455)">Norm. Redox Ratio + Cell Size (ROC AUC) = 0.80)</text>
    </g>
    <g id="line2d_14">
     <path d="M 61.4925 1301.69625 
L 97.4925 1301.69625 
L 133.4925 1301.69625 
" style="fill: none; stroke: #440154; stroke-width: 5; stroke-linecap: round"/>
    </g>
    <g id="text_22">
     <text style="fill: #262626; font: 36px 'sans-serif'; text-anchor: start" x="162.2925" y="1314.29625" transform="rotate(-0 162.2925 1314.29625)">Top variable (ROC AUC) = 0.71)</text>
    </g>
   </g>
  </g>
 </g>
 <defs>
  <clipPath id="p52518eb45e">
   <rect x="112.7925" y="40.554375" width="837" height="815.4"/>
  </clipPath>
 </defs>
</svg>
