<?xml version="1.0" encoding="utf-8" standalone="no"?>
<!DOCTYPE svg PUBLIC "-//W3C//DTD SVG 1.1//EN"
  "http://www.w3.org/Graphics/SVG/1.1/DTD/svg11.dtd">
<svg xmlns:xlink="http://www.w3.org/1999/xlink" width="1077.94125pt" height="1343.383125pt" viewBox="0 0 1077.94125 1343.383125" xmlns="http://www.w3.org/2000/svg" version="1.1">
 <metadata>
  <rdf:RDF xmlns:dc="http://purl.org/dc/elements/1.1/" xmlns:cc="http://creativecommons.org/ns#" xmlns:rdf="http://www.w3.org/1999/02/22-rdf-syntax-ns#">
   <cc:Work>
    <dc:type rdf:resource="http://purl.org/dc/dcmitype/StillImage"/>
    <dc:date>2022-12-01T09:55:19.792577</dc:date>
    <dc:format>image/svg+xml</dc:format>
    <dc:creator>
     <cc:Agent>
      <dc:title>Matplotlib v3.6.0, https://matplotlib.org/</dc:title>
     </cc:Agent>
    </dc:creator>
   </cc:Work>
  </rdf:RDF>
 </metadata>
 <defs>
  <style type="text/css">*{stroke-linejoin: round; stroke-linecap: butt}</style>
 </defs>
 <g id="figure_1">
  <g id="patch_1">
   <path d="M 0 1343.383125 
L 1077.94125 1343.383125 
L 1077.94125 0 
L 0 0 
z
" style="fill: #ffffff"/>
  </g>
  <g id="axes_1">
   <g id="patch_2">
    <path d="M 112.7925 855.954375 
L 949.7925 855.954375 
L 949.7925 40.554375 
L 112.7925 40.554375 
z
" style="fill: #ffffff"/>
   </g>
   <g id="matplotlib.axis_1">
    <g id="xtick_1">
     <g id="text_1">
      <text style="fill: #262626; font: 36px 'sans-serif'; text-anchor: middle" x="112.7925" y="892.80875" transform="rotate(-0 112.7925 892.80875)">0.0</text>
     </g>
    </g>
    <g id="xtick_2">
     <g id="text_2">
      <text style="fill: #262626; font: 36px 'sans-serif'; text-anchor: middle" x="280.1925" y="892.80875" transform="rotate(-0 280.1925 892.80875)">0.2</text>
     </g>
    </g>
    <g id="xtick_3">
     <g id="text_3">
      <text style="fill: #262626; font: 36px 'sans-serif'; text-anchor: middle" x="447.5925" y="892.80875" transform="rotate(-0 447.5925 892.80875)">0.4</text>
     </g>
    </g>
    <g id="xtick_4">
     <g id="text_4">
      <text style="fill: #262626; font: 36px 'sans-serif'; text-anchor: middle" x="614.9925" y="892.80875" transform="rotate(-0 614.9925 892.80875)">0.6</text>
     </g>
    </g>
    <g id="xtick_5">
     <g id="text_5">
      <text style="fill: #262626; font: 36px 'sans-serif'; text-anchor: middle" x="782.3925" y="892.80875" transform="rotate(-0 782.3925 892.80875)">0.8</text>
     </g>
    </g>
    <g id="xtick_6">
     <g id="text_6">
      <text style="fill: #262626; font: 36px 'sans-serif'; text-anchor: middle" x="949.7925" y="892.80875" transform="rotate(-0 949.7925 892.80875)">1.0</text>
     </g>
    </g>
    <g id="text_7">
     <text style="fill: #262626; font: 36px 'sans-serif'; text-anchor: middle" x="531.2925" y="931.65" transform="rotate(-0 531.2925 931.65)">False Positive Rate</text>
    </g>
   </g>
   <g id="matplotlib.axis_2">
    <g id="ytick_1">
     <g id="text_8">
      <text style="fill: #262626; font: 36px 'sans-serif'; text-anchor: end" x="103.2925" y="869.631562" transform="rotate(-0 103.2925 869.631562)">0.0</text>
     </g>
    </g>
    <g id="ytick_2">
     <g id="text_9">
      <text style="fill: #262626; font: 36px 'sans-serif'; text-anchor: end" x="103.2925" y="706.551562" transform="rotate(-0 103.2925 706.551562)">0.2</text>
     </g>
    </g>
    <g id="ytick_3">
     <g id="text_10">
      <text style="fill: #262626; font: 36px 'sans-serif'; text-anchor: end" x="103.2925" y="543.471562" transform="rotate(-0 103.2925 543.471562)">0.4</text>
     </g>
    </g>
    <g id="ytick_4">
     <g id="text_11">
      <text style="fill: #262626; font: 36px 'sans-serif'; text-anchor: end" x="103.2925" y="380.391562" transform="rotate(-0 103.2925 380.391562)">0.6</text>
     </g>
    </g>
    <g id="ytick_5">
     <g id="text_12">
      <text style="fill: #262626; font: 36px 'sans-serif'; text-anchor: end" x="103.2925" y="217.311562" transform="rotate(-0 103.2925 217.311562)">0.8</text>
     </g>
    </g>
    <g id="ytick_6">
     <g id="text_13">
      <text style="fill: #262626; font: 36px 'sans-serif'; text-anchor: end" x="103.2925" y="54.231562" transform="rotate(-0 103.2925 54.231562)">1.0</text>
     </g>
    </g>
    <g id="text_14">
     <text style="fill: #262626; font: 36px 'sans-serif'; text-anchor: middle" x="34.554375" y="448.254375" transform="rotate(-90 34.554375 448.254375)">True Positive Rate</text>
    </g>
   </g>
   <g id="line2d_1">
    <path d="M 112.7925 855.954375 
L 112.7925 693.770419 
L 113.324604 638.215694 
L 113.856709 587.141188 
L 113.856709 545.923166 
L 113.856709 514.561628 
L 113.856709 493.056573 
L 113.856709 476.031738 
L 113.856709 460.79899 
L 113.856709 435.70976 
L 113.856709 411.516573 
L 113.856709 399.868001 
L 114.388813 388.21943 
L 114.920917 378.362946 
L 114.920917 369.402507 
L 115.985126 357.753935 
L 116.51723 347.897452 
L 118.113543 339.833056 
L 119.709855 329.976573 
L 120.24196 324.600309 
L 120.24196 316.535913 
L 120.24196 312.951738 
L 121.306168 301.303166 
L 121.306168 288.758551 
L 121.838272 280.694155 
L 121.838272 275.317891 
L 122.370377 269.941628 
L 122.902481 263.66932 
L 123.434585 260.085144 
L 123.434585 259.1891 
L 123.966689 251.124705 
L 125.030898 248.436573 
L 125.563002 245.748441 
L 126.627211 244.852397 
L 126.627211 240.372177 
L 127.159315 234.09987 
L 128.223524 228.723606 
L 128.223524 226.035474 
L 128.755628 221.555254 
L 129.819836 217.075034 
L 130.884045 209.906683 
L 132.480358 207.218551 
L 134.07667 203.634375 
L 135.140879 198.258111 
L 136.737192 193.777891 
L 137.8014 191.08976 
L 138.865609 189.297672 
L 139.929817 186.60954 
L 142.590339 185.713496 
L 145.25086 180.337232 
L 146.847173 176.753056 
L 147.911381 171.376793 
L 151.104007 162.416353 
L 152.700319 159.728221 
L 153.232424 157.936133 
L 153.232424 153.455913 
L 154.828736 148.07965 
L 156.957154 146.287562 
L 160.681883 145.391518 
L 163.342405 138.223166 
L 166.53503 133.742946 
L 170.25976 129.262727 
L 172.920281 126.574595 
L 175.048698 125.678551 
L 178.773428 121.198331 
L 183.030262 115.822067 
L 186.754992 115.822067 
L 190.479722 113.133935 
L 192.076035 110.445804 
L 196.332869 106.861628 
L 201.653911 104.173496 
L 208.039162 102.381408 
L 212.828101 101.485364 
L 216.552831 99.693276 
L 218.681248 97.901188 
L 223.470186 96.1091 
L 230.919646 92.524924 
L 234.644375 88.044705 
L 240.497522 85.356573 
L 247.946982 80.876353 
L 256.46065 79.980309 
L 262.845901 79.084265 
L 274.552195 77.292177 
L 280.937446 74.604045 
L 293.707948 70.123826 
L 302.221616 70.123826 
L 315.524223 66.53965 
L 326.166308 64.747562 
L 340.533123 61.163386 
L 353.303625 59.371298 
L 366.606232 58.475254 
L 380.973047 55.787122 
L 400.1288 51.306902 
L 425.1377 51.306902 
L 460.256581 48.618771 
L 494.311254 46.826683 
L 530.494344 45.930639 
L 573.062684 45.930639 
L 633.72257 43.242507 
L 730.033441 42.346463 
L 949.7925 40.554375 
" clip-path="url(#p86021f98d3)" style="fill: none; stroke: #fde725; stroke-width: 5; stroke-linecap: round"/>
   </g>
   <g id="PathCollection_1">
    <defs>
     <path id="m697e32ed93" d="M 0 11.18034 
C 2.965061 11.18034 5.80908 10.002309 7.905694 7.905694 
C 10.002309 5.80908 11.18034 2.965061 11.18034 0 
C 11.18034 -2.965061 10.002309 -5.80908 7.905694 -7.905694 
C 5.80908 -10.002309 2.965061 -11.18034 0 -11.18034 
C -2.965061 -11.18034 -5.80908 -10.002309 -7.905694 -7.905694 
C -10.002309 -5.80908 -11.18034 -2.965061 -11.18034 0 
C -11.18034 2.965061 -10.002309 5.80908 -7.905694 7.905694 
C -5.80908 10.002309 -2.965061 11.18034 0 11.18034 
z
" style="stroke: #1a1a1a"/>
    </defs>
    <g clip-path="url(#p86021f98d3)">
     <use xlink:href="#m697e32ed93" x="146.847173" y="176.753056" style="fill: #1a1a1a; stroke: #1a1a1a"/>
    </g>
   </g>
   <g id="line2d_2">
    <path d="M 112.7925 855.954375 
L 113.324604 660.616793 
L 113.324604 589.82932 
L 113.324604 539.650859 
L 114.388813 508.28932 
L 115.985126 484.096133 
L 116.51723 453.630639 
L 116.51723 431.22954 
L 116.51723 419.580968 
L 117.581438 407.932397 
L 117.581438 396.283826 
L 118.645647 382.843166 
L 120.24196 369.402507 
L 120.774064 357.753935 
L 120.774064 350.585584 
L 121.306168 338.937012 
L 121.838272 330.872617 
L 121.838272 328.184485 
L 122.902481 324.600309 
L 123.966689 318.328001 
L 125.030898 313.847782 
L 125.030898 308.471518 
L 126.627211 303.095254 
L 128.223524 296.822946 
L 128.755628 290.550639 
L 129.819836 286.070419 
L 130.884045 282.486243 
L 131.416149 278.902067 
L 131.416149 274.421848 
L 131.416149 270.837672 
L 131.416149 265.461408 
L 131.416149 259.1891 
L 133.012462 255.604924 
L 134.07667 252.020749 
L 135.672983 246.644485 
L 136.205087 243.060309 
L 138.865609 241.268221 
L 139.397713 239.476133 
L 139.397713 237.684045 
L 140.994026 231.411738 
L 142.590339 229.61965 
L 143.654547 223.347342 
L 144.186651 219.763166 
L 145.782964 216.17899 
L 147.379277 214.386902 
L 148.97559 209.010639 
L 149.507694 203.634375 
L 150.571902 201.842287 
L 152.168215 200.946243 
L 153.232424 194.673935 
L 154.828736 192.881848 
L 155.360841 190.193716 
L 155.892945 186.60954 
L 158.553466 184.817452 
L 159.617675 182.12932 
L 162.8103 177.6491 
L 164.406613 177.6491 
L 166.002926 174.064924 
L 168.663447 171.376793 
L 169.195551 169.584705 
L 171.323969 163.312397 
L 173.98449 158.832177 
L 178.773428 155.248001 
L 182.498158 152.55987 
L 184.626575 148.975694 
L 186.754992 147.183606 
L 189.947618 146.287562 
L 192.076035 141.807342 
L 195.800764 136.431078 
L 200.589703 132.846902 
L 203.782328 129.262727 
L 205.378641 127.470639 
L 210.167579 126.574595 
L 213.360205 122.990419 
L 217.084935 122.094375 
L 219.745456 118.510199 
L 224.534394 114.926023 
L 227.194916 113.133935 
L 229.855437 113.133935 
L 237.837001 110.445804 
L 244.754356 110.445804 
L 249.543295 106.861628 
L 258.589067 101.485364 
L 266.038527 97.005144 
L 276.148508 92.524924 
L 287.322697 91.62888 
L 297.432678 89.836793 
L 306.47845 83.564485 
L 320.845265 79.084265 
L 332.019455 78.188221 
L 347.982583 75.500089 
L 367.67044 72.811957 
L 383.633568 70.123826 
L 405.981947 70.123826 
L 419.816658 65.643606 
L 440.03662 63.851518 
L 463.449207 62.05943 
L 504.421235 56.683166 
L 539.540116 52.202946 
L 589.025812 51.306902 
L 673.630389 45.930639 
L 949.7925 40.554375 
" clip-path="url(#p86021f98d3)" style="fill: none; stroke: #a5db36; stroke-width: 5; stroke-linecap: round"/>
   </g>
   <g id="PathCollection_2">
    <g clip-path="url(#p86021f98d3)">
     <use xlink:href="#m697e32ed93" x="154.828736" y="192.881848" style="fill: #1a1a1a; stroke: #1a1a1a"/>
    </g>
   </g>
   <g id="line2d_3">
    <path d="M 112.7925 855.954375 
L 112.7925 636.423606 
L 113.324604 571.908441 
L 113.856709 521.729979 
L 114.920917 496.640749 
L 114.920917 473.343606 
L 115.453021 451.838551 
L 116.51723 419.580968 
L 117.581438 408.828441 
L 117.581438 398.075913 
L 118.645647 386.427342 
L 119.177751 379.25899 
L 120.774064 371.194595 
L 121.306168 359.546023 
L 121.838272 354.16976 
L 122.370377 347.897452 
L 123.434585 338.937012 
L 123.966689 329.976573 
L 125.563002 323.704265 
L 127.159315 321.016133 
L 127.159315 312.951738 
L 127.159315 305.783386 
L 128.223524 299.511078 
L 128.223524 292.342727 
L 130.351941 286.070419 
L 131.416149 281.590199 
L 131.948253 277.109979 
L 134.07667 273.525804 
L 135.672983 268.14954 
L 136.205087 263.66932 
L 137.269296 258.293056 
L 138.865609 254.70888 
L 140.461921 252.020749 
L 142.058234 245.748441 
L 142.058234 243.956353 
L 143.122443 243.060309 
L 144.186651 240.372177 
L 145.25086 235.891957 
L 146.315068 230.515694 
L 147.379277 227.827562 
L 148.97559 222.451298 
L 150.571902 221.555254 
L 151.636111 217.075034 
L 152.700319 216.17899 
L 154.828736 211.698771 
L 158.553466 206.322507 
L 159.617675 202.738331 
L 161.746092 198.258111 
L 162.278196 194.673935 
L 162.8103 188.401628 
L 166.002926 181.233276 
L 167.067134 181.233276 
L 168.131343 179.441188 
L 169.195551 178.545144 
L 171.323969 176.753056 
L 173.452386 170.480749 
L 175.580803 168.688661 
L 176.112907 163.312397 
L 181.433949 161.520309 
L 184.094471 158.832177 
L 187.819201 156.144045 
L 191.54393 154.351957 
L 194.736556 149.871738 
L 196.332869 147.183606 
L 201.653911 147.183606 
L 205.910745 145.391518 
L 210.699684 143.59943 
L 213.360205 138.223166 
L 219.213352 136.431078 
L 223.470186 134.63899 
L 226.662812 132.846902 
L 231.45175 129.262727 
L 234.644375 127.470639 
L 237.304897 122.094375 
L 242.625939 118.510199 
L 246.350669 117.614155 
L 250.075399 114.926023 
L 254.864337 111.341848 
L 262.845901 106.861628 
L 274.020091 104.173496 
L 281.46955 102.381408 
L 287.854801 97.005144 
L 297.964782 94.317012 
L 307.010555 92.524924 
L 317.65264 89.836793 
L 326.166308 88.940749 
L 341.597332 86.252617 
L 351.175208 83.564485 
L 368.202545 79.084265 
L 383.633568 72.811957 
L 401.193009 71.915913 
L 428.86243 65.643606 
L 455.467643 63.851518 
L 482.60496 61.163386 
L 511.870695 55.787122 
L 553.906931 54.891078 
L 610.309983 52.202946 
L 705.556645 50.410859 
L 949.7925 40.554375 
" clip-path="url(#p86021f98d3)" style="fill: none; stroke: #4ac16d; stroke-width: 5; stroke-linecap: round"/>
   </g>
   <g id="PathCollection_3">
    <g clip-path="url(#p86021f98d3)">
     <use xlink:href="#m697e32ed93" x="162.278196" y="194.673935" style="fill: #1a1a1a; stroke: #1a1a1a"/>
    </g>
   </g>
   <g id="line2d_4">
    <path d="M 112.7925 855.954375 
L 112.7925 692.874375 
L 113.324604 614.022507 
L 113.856709 563.844045 
L 113.856709 528.002287 
L 115.453021 509.185364 
L 117.581438 491.264485 
L 117.581438 473.343606 
L 118.645647 459.006902 
L 120.774064 445.566243 
L 121.838272 430.333496 
L 122.902481 423.165144 
L 123.434585 412.412617 
L 123.434585 403.452177 
L 123.434585 391.803606 
L 124.498794 373.882727 
L 126.095106 363.130199 
L 126.627211 356.857891 
L 128.223524 347.897452 
L 128.755628 342.521188 
L 129.819836 336.24888 
L 130.351941 329.080529 
L 130.884045 324.600309 
L 131.416149 318.328001 
L 131.948253 309.367562 
L 134.07667 302.19921 
L 136.205087 295.926902 
L 136.205087 290.550639 
L 137.269296 286.966463 
L 138.333504 278.902067 
L 139.397713 275.317891 
L 141.52613 272.62976 
L 141.52613 267.253496 
L 142.058234 263.66932 
L 142.590339 259.1891 
L 144.186651 254.70888 
L 145.25086 252.916793 
L 145.782964 246.644485 
L 146.847173 243.060309 
L 150.571902 240.372177 
L 153.232424 234.995913 
L 153.232424 230.515694 
L 154.296632 228.723606 
L 156.957154 223.347342 
L 157.489258 216.17899 
L 159.085571 213.490859 
L 160.149779 212.594815 
L 162.8103 209.010639 
L 167.599239 205.426463 
L 168.131343 200.946243 
L 169.727656 200.050199 
L 172.920281 194.673935 
L 175.580803 189.297672 
L 176.645011 187.505584 
L 178.241324 184.817452 
L 180.369741 184.817452 
L 183.030262 180.337232 
L 185.158679 178.545144 
L 187.819201 174.064924 
L 188.883409 170.480749 
L 192.076035 166.896573 
L 194.736556 166.896573 
L 198.99339 166.000529 
L 201.121807 166.000529 
L 203.782328 159.728221 
L 209.635475 156.144045 
L 213.360205 150.767782 
L 218.149143 148.07965 
L 224.00229 146.287562 
L 226.662812 143.59943 
L 231.983854 141.807342 
L 236.240688 140.015254 
L 240.497522 136.431078 
L 247.946982 128.366683 
L 252.73592 124.782507 
L 259.121171 120.302287 
L 264.974318 119.406243 
L 271.891674 114.926023 
L 277.212716 111.341848 
L 282.001654 106.861628 
L 292.111635 106.861628 
L 297.432678 99.693276 
L 304.350033 97.005144 
L 312.331597 94.317012 
L 321.37737 88.940749 
L 330.423142 84.460529 
L 339.468914 80.876353 
L 352.239417 79.980309 
L 369.266753 79.980309 
L 385.229881 76.396133 
L 400.660904 71.915913 
L 416.624032 69.227782 
L 438.440307 67.435694 
L 465.04552 64.747562 
L 487.926003 61.163386 
L 520.384363 58.475254 
L 562.420599 55.787122 
L 626.27311 53.09899 
L 723.116086 50.410859 
L 949.7925 40.554375 
" clip-path="url(#p86021f98d3)" style="fill: none; stroke: #1f988b; stroke-width: 5; stroke-linecap: round"/>
   </g>
   <g id="PathCollection_4">
    <g clip-path="url(#p86021f98d3)">
     <use xlink:href="#m697e32ed93" x="167.599239" y="205.426463" style="fill: #1a1a1a; stroke: #1a1a1a"/>
    </g>
   </g>
   <g id="line2d_5">
    <path d="M 112.7925 855.954375 
L 114.920917 719.755694 
L 115.453021 665.097012 
L 116.51723 628.35921 
L 117.049334 607.750199 
L 117.049334 592.517452 
L 117.049334 579.972837 
L 117.049334 565.636133 
L 118.113543 551.29943 
L 119.709855 539.650859 
L 121.306168 533.378551 
L 122.370377 530.690419 
L 122.902481 525.314155 
L 123.966689 518.145804 
L 125.563002 510.081408 
L 127.159315 505.601188 
L 128.223524 495.744705 
L 130.351941 489.472397 
L 132.480358 478.71987 
L 134.07667 475.135694 
L 135.140879 468.863386 
L 136.205087 463.487122 
L 138.333504 458.110859 
L 138.333504 454.526683 
L 140.994026 445.566243 
L 144.186651 438.397891 
L 145.782964 432.125584 
L 146.847173 424.957232 
L 148.443485 418.684924 
L 149.507694 413.308661 
L 151.636111 407.036353 
L 153.764528 401.660089 
L 156.957154 396.283826 
L 159.617675 394.491738 
L 163.342405 390.011518 
L 164.938717 384.635254 
L 168.131343 377.466902 
L 169.727656 372.090639 
L 172.920281 369.402507 
L 176.112907 364.922287 
L 179.837637 360.442067 
L 181.966054 355.961848 
L 185.690784 349.68954 
L 188.351305 338.937012 
L 192.076035 333.560749 
L 193.672347 329.976573 
L 201.121807 316.535913 
L 206.974954 311.15965 
L 211.231788 302.19921 
L 214.424414 298.615034 
L 217.084935 290.550639 
L 221.341769 282.486243 
L 224.00229 277.109979 
L 226.662812 273.525804 
L 231.983854 267.253496 
L 234.644375 263.66932 
L 241.029627 260.981188 
L 244.222252 256.500968 
L 249.01119 249.332617 
L 251.671712 243.956353 
L 255.396442 240.372177 
L 258.056963 236.788001 
L 261.781693 232.307782 
L 266.038527 226.931518 
L 270.827465 226.931518 
L 278.809029 224.243386 
L 284.130072 220.65921 
L 286.790593 216.17899 
L 292.64374 209.906683 
L 295.836365 203.634375 
L 301.157408 201.842287 
L 308.606867 198.258111 
L 312.863702 189.297672 
L 318.184744 183.921408 
L 324.569995 179.441188 
L 327.762621 174.960968 
L 333.083663 170.480749 
L 340.533123 166.896573 
L 349.578895 162.416353 
L 357.560459 158.832177 
L 367.138336 157.040089 
L 374.055691 151.663826 
L 377.780421 145.391518 
L 385.761985 139.11921 
L 395.339862 128.366683 
L 403.321426 124.782507 
L 415.559824 122.990419 
L 424.073492 118.510199 
L 436.31189 112.237891 
L 445.357662 109.54976 
L 452.807122 105.965584 
L 462.917103 100.58932 
L 476.751813 98.797232 
L 490.05442 98.797232 
L 524.109092 91.62888 
L 537.943803 85.356573 
L 560.824286 80.876353 
L 592.218438 76.396133 
L 628.933632 69.227782 
L 698.63929 58.475254 
L 949.7925 40.554375 
" clip-path="url(#p86021f98d3)" style="fill: none; stroke: #2a788e; stroke-width: 5; stroke-linecap: round"/>
   </g>
   <g id="PathCollection_5">
    <g clip-path="url(#p86021f98d3)">
     <use xlink:href="#m697e32ed93" x="217.084935" y="290.550639" style="fill: #1a1a1a; stroke: #1a1a1a"/>
    </g>
   </g>
   <g id="line2d_6">
    <path d="M 112.7925 855.954375 
L 122.370377 714.37943 
L 122.370377 712.587342 
L 125.563002 712.587342 
L 125.563002 704.522946 
L 127.159315 701.834815 
L 127.159315 689.290199 
L 128.755628 688.394155 
L 128.755628 684.809979 
L 129.819836 684.809979 
L 129.819836 683.017891 
L 130.351941 683.017891 
L 130.351941 677.641628 
L 130.884045 677.641628 
L 130.884045 674.953496 
L 131.416149 674.953496 
L 131.416149 671.36932 
L 131.948253 670.473276 
L 133.544566 669.577232 
L 133.544566 665.993056 
L 134.07667 662.40888 
L 134.07667 661.512837 
L 134.608775 658.824705 
L 134.608775 657.928661 
L 135.140879 657.928661 
L 135.140879 651.656353 
L 136.205087 648.968221 
L 136.737192 647.176133 
L 136.737192 643.591957 
L 138.333504 642.695913 
L 138.333504 640.007782 
L 139.397713 638.215694 
L 139.929817 638.215694 
L 139.929817 632.83943 
L 140.994026 630.151298 
L 140.994026 624.775034 
L 142.590339 622.982946 
L 143.122443 622.982946 
L 143.122443 621.190859 
L 143.654547 620.294815 
L 144.718756 616.710639 
L 144.718756 611.334375 
L 145.782964 611.334375 
L 145.782964 610.438331 
L 146.315068 610.438331 
L 146.847173 607.750199 
L 146.847173 605.062067 
L 147.379277 605.062067 
L 147.379277 604.166023 
L 147.911381 604.166023 
L 148.443485 602.373935 
L 148.443485 600.581848 
L 149.507694 600.581848 
L 150.571902 597.893716 
L 150.571902 596.101628 
L 152.168215 596.101628 
L 152.168215 594.30954 
L 153.764528 593.413496 
L 154.296632 589.82932 
L 155.360841 588.037232 
L 155.360841 584.453056 
L 157.489258 584.453056 
L 158.553466 583.557012 
L 159.085571 583.557012 
L 159.085571 582.660968 
L 159.617675 581.764924 
L 159.617675 579.076793 
L 161.213988 578.180749 
L 161.213988 575.492617 
L 161.746092 574.596573 
L 162.278196 572.804485 
L 163.874509 569.220309 
L 165.470822 567.428221 
L 167.067134 567.428221 
L 168.131343 565.636133 
L 168.131343 562.051957 
L 170.25976 562.051957 
L 170.25976 561.155913 
L 170.791864 560.25987 
L 172.388177 560.25987 
L 173.98449 558.467782 
L 175.580803 557.571738 
L 176.645011 554.883606 
L 178.241324 553.091518 
L 179.305532 552.195474 
L 180.901845 550.403386 
L 181.966054 548.611298 
L 181.966054 545.923166 
L 183.030262 545.923166 
L 184.094471 545.027122 
L 185.158679 545.027122 
L 186.754992 544.131078 
L 186.754992 541.442946 
L 187.819201 540.546902 
L 189.415513 539.650859 
L 190.479722 537.858771 
L 192.076035 536.066683 
L 194.204452 535.170639 
L 194.736556 533.378551 
L 194.736556 528.898331 
L 195.800764 528.898331 
L 195.800764 527.106243 
L 196.864973 525.314155 
L 196.864973 523.522067 
L 197.397077 521.729979 
L 197.929182 521.729979 
L 197.929182 519.937891 
L 200.057599 518.145804 
L 201.121807 516.353716 
L 201.653911 516.353716 
L 202.71812 513.665584 
L 203.250224 511.873496 
L 203.250224 510.977452 
L 203.782328 509.185364 
L 203.782328 508.28932 
L 205.910745 508.28932 
L 207.507058 505.601188 
L 207.507058 504.705144 
L 209.103371 502.913056 
L 209.635475 500.224924 
L 211.231788 500.224924 
L 211.763892 496.640749 
L 212.295997 496.640749 
L 213.360205 495.744705 
L 213.360205 494.848661 
L 214.956518 493.056573 
L 214.956518 492.160529 
L 216.020726 490.368441 
L 216.020726 489.472397 
L 217.617039 488.576353 
L 220.27756 484.096133 
L 220.27756 483.200089 
L 223.470186 480.511957 
L 224.00229 479.615913 
L 224.00229 478.71987 
L 225.598603 478.71987 
L 227.72702 477.823826 
L 228.259124 472.447562 
L 230.919646 472.447562 
L 230.919646 467.967342 
L 231.45175 467.071298 
L 231.983854 462.591078 
L 234.112271 461.695034 
L 235.17648 459.902946 
L 235.17648 459.006902 
L 235.708584 456.318771 
L 237.304897 455.422727 
L 238.369105 455.422727 
L 239.965418 453.630639 
L 240.497522 452.734595 
L 242.625939 450.942507 
L 244.222252 449.150419 
L 245.818565 448.254375 
L 245.818565 445.566243 
L 246.882773 442.878111 
L 248.479086 441.982067 
L 251.139607 440.189979 
L 252.203816 436.605804 
L 254.864337 435.70976 
L 255.396442 434.813716 
L 256.992754 434.813716 
L 257.524859 433.917672 
L 258.056963 432.125584 
L 258.056963 430.333496 
L 261.249588 426.74932 
L 262.313797 425.853276 
L 262.845901 424.957232 
L 264.442214 423.165144 
L 265.506422 421.373056 
L 267.634839 416.892837 
L 268.699048 415.996793 
L 269.231152 415.996793 
L 271.891674 415.100749 
L 272.423778 414.204705 
L 272.423778 412.412617 
L 272.955882 411.516573 
L 272.955882 410.620529 
L 275.616403 410.620529 
L 277.212716 408.828441 
L 278.276925 407.036353 
L 282.001654 402.556133 
L 282.533759 401.660089 
L 282.533759 399.868001 
L 283.065863 398.075913 
L 283.065863 396.283826 
L 284.130072 395.387782 
L 284.130072 392.69965 
L 285.19428 392.69965 
L 288.91901 389.115474 
L 289.983218 387.323386 
L 290.515323 387.323386 
L 290.515323 386.427342 
L 291.579531 385.531298 
L 294.772157 381.947122 
L 296.900574 380.155034 
L 298.496887 378.362946 
L 300.093199 375.674815 
L 300.093199 373.882727 
L 302.221616 372.986683 
L 302.753721 372.090639 
L 305.946346 372.090639 
L 308.074763 370.298551 
L 308.606867 369.402507 
L 310.20318 368.506463 
L 310.735284 366.714375 
L 311.799493 364.922287 
L 311.799493 363.130199 
L 312.331597 363.130199 
L 312.863702 357.753935 
L 312.863702 353.273716 
L 315.524223 349.68954 
L 316.588431 348.793496 
L 317.120536 347.897452 
L 319.248953 347.897452 
L 319.781057 346.105364 
L 321.909474 343.417232 
L 322.973682 339.833056 
L 325.102099 337.144924 
L 327.230517 336.24888 
L 328.826829 335.352837 
L 329.358934 334.456793 
L 332.019455 331.768661 
L 334.147872 329.976573 
L 338.404706 328.184485 
L 338.93681 328.184485 
L 340.533123 327.288441 
L 342.129436 325.496353 
L 342.66154 323.704265 
L 342.66154 322.808221 
L 343.725749 321.912177 
L 345.322061 321.912177 
L 347.450478 321.016133 
L 349.046791 321.016133 
L 350.111 320.120089 
L 350.643104 319.224045 
L 356.496251 317.431957 
L 359.156772 313.847782 
L 359.156772 312.951738 
L 361.285189 312.055694 
L 363.413606 306.67943 
L 363.94571 302.19921 
L 364.477815 299.511078 
L 368.202545 299.511078 
L 369.266753 296.822946 
L 370.863066 293.238771 
L 370.863066 292.342727 
L 374.587796 292.342727 
L 376.184108 289.654595 
L 379.908838 288.758551 
L 382.56936 287.862507 
L 384.165672 287.862507 
L 385.761985 285.174375 
L 386.294089 285.174375 
L 387.358298 279.798111 
L 387.890402 278.902067 
L 388.422506 275.317891 
L 389.486715 270.837672 
L 395.871966 270.837672 
L 396.40407 269.045584 
L 397.468279 269.045584 
L 398.000383 267.253496 
L 400.1288 266.357452 
L 402.257217 262.773276 
L 404.385634 261.877232 
L 405.981947 260.981188 
L 408.110364 260.085144 
L 410.238781 260.085144 
L 411.835094 259.1891 
L 412.367198 259.1891 
L 413.963511 256.500968 
L 415.027719 256.500968 
L 416.624032 254.70888 
L 417.688241 252.916793 
L 422.477179 252.020749 
L 426.734013 250.228661 
L 427.266117 247.540529 
L 429.394534 243.060309 
L 432.58716 242.164265 
L 435.247681 241.268221 
L 435.247681 240.372177 
L 437.908202 239.476133 
L 437.908202 237.684045 
L 439.504515 236.788001 
L 446.953975 230.515694 
L 448.550288 228.723606 
L 451.210809 226.931518 
L 451.742913 226.035474 
L 457.59606 224.243386 
L 461.32079 221.555254 
L 462.917103 220.65921 
L 466.109728 219.763166 
L 471.962875 218.867122 
L 476.219709 217.971078 
L 485.265482 217.075034 
L 487.926003 216.17899 
L 487.926003 214.386902 
L 488.990211 213.490859 
L 490.586524 212.594815 
L 491.118628 211.698771 
L 498.035984 210.802727 
L 503.357026 210.802727 
L 503.357026 208.114595 
L 508.145965 205.426463 
L 514.531216 202.738331 
L 516.127529 201.842287 
L 518.255946 199.154155 
L 519.852258 199.154155 
L 520.384363 197.362067 
L 520.384363 196.466023 
L 531.558552 195.569979 
L 541.668533 195.569979 
L 544.861159 193.777891 
L 548.053784 192.881848 
L 550.182201 190.193716 
L 552.842723 190.193716 
L 553.374827 185.713496 
L 555.503244 185.713496 
L 556.567452 183.025364 
L 558.163765 183.025364 
L 558.163765 179.441188 
L 560.292182 178.545144 
L 562.420599 174.960968 
L 562.420599 173.16888 
L 567.741642 170.480749 
L 569.337955 170.480749 
L 570.934267 169.584705 
L 575.191101 168.688661 
L 575.723206 167.792617 
L 577.319518 166.000529 
L 586.365291 164.208441 
L 589.557916 163.312397 
L 591.686333 162.416353 
L 597.53948 158.832177 
L 600.732106 158.832177 
L 611.906295 157.040089 
L 612.970504 155.248001 
L 612.970504 154.351957 
L 619.355755 153.455913 
L 624.144693 152.55987 
L 626.27311 149.871738 
L 632.658361 147.183606 
L 642.768342 145.391518 
L 644.896759 142.703386 
L 651.814115 140.911298 
L 654.474636 139.11921 
L 657.135157 135.535034 
L 657.135157 133.742946 
L 659.263574 131.054815 
L 659.263574 130.158771 
L 671.501972 127.470639 
L 674.162494 123.886463 
L 677.887223 123.886463 
L 681.611953 122.094375 
L 687.4651 121.198331 
L 688.529309 121.198331 
L 693.850351 120.302287 
L 698.63929 118.510199 
L 699.703498 117.614155 
L 702.364019 115.822067 
L 707.152958 114.926023 
L 717.795043 111.341848 
L 722.051877 110.445804 
L 729.501337 107.757672 
L 734.822379 107.757672 
L 741.739735 105.06954 
L 744.400256 104.173496 
L 749.189194 104.173496 
L 756.638654 103.277452 
L 766.748635 101.485364 
L 774.198094 99.693276 
L 782.711763 96.1091 
L 782.711763 95.213056 
L 788.564909 95.213056 
L 789.629118 93.420968 
L 790.161222 93.420968 
L 794.950161 91.62888 
L 802.931724 91.62888 
L 806.656454 88.044705 
L 813.041705 84.460529 
L 817.298539 83.564485 
L 824.215895 79.980309 
L 830.069042 77.292177 
L 834.325876 76.396133 
L 834.85798 75.500089 
L 842.30744 75.500089 
L 846.564274 71.915913 
L 850.289003 71.01987 
L 860.931089 69.227782 
L 861.463193 68.331738 
L 870.508965 67.435694 
L 879.022634 65.643606 
L 889.664719 64.747562 
L 894.985761 62.05943 
L 905.627846 62.05943 
L 909.884681 59.371298 
L 915.205723 56.683166 
L 915.737827 55.787122 
L 922.655183 54.891078 
L 925.315704 54.891078 
L 929.572538 53.09899 
L 930.104642 53.09899 
L 930.636747 48.618771 
L 949.7925 40.554375 
L 949.7925 40.554375 
" clip-path="url(#p86021f98d3)" style="fill: none; stroke: #414487; stroke-width: 5; stroke-linecap: round"/>
   </g>
   <g id="PathCollection_6">
    <g clip-path="url(#p86021f98d3)">
     <use xlink:href="#m697e32ed93" x="225.598603" y="478.71987" style="fill: #1a1a1a; stroke: #1a1a1a"/>
    </g>
   </g>
   <g id="line2d_7">
    <path d="M 112.7925 855.954375 
L 115.453021 709.003166 
L 116.51723 656.136573 
L 118.113543 629.255254 
L 119.709855 616.710639 
L 120.24196 603.269979 
L 121.838272 589.82932 
L 123.434585 575.492617 
L 125.563002 562.948001 
L 125.563002 557.571738 
L 126.627211 548.611298 
L 128.755628 541.442946 
L 129.819836 534.274595 
L 130.884045 530.690419 
L 131.416149 520.833935 
L 131.948253 511.873496 
L 133.012462 506.497232 
L 135.140879 500.224924 
L 136.737192 494.848661 
L 139.397713 490.368441 
L 139.397713 486.784265 
L 139.929817 478.71987 
L 142.590339 472.447562 
L 144.186651 468.863386 
L 145.25086 464.383166 
L 146.847173 461.695034 
L 148.443485 458.110859 
L 153.764528 454.526683 
L 156.425049 450.046463 
L 158.553466 445.566243 
L 159.617675 440.189979 
L 161.746092 433.917672 
L 162.8103 429.437452 
L 166.002926 427.645364 
L 171.323969 420.477012 
L 175.048698 415.996793 
L 177.177115 411.516573 
L 179.837637 409.724485 
L 183.562366 407.036353 
L 187.287096 403.452177 
L 189.947618 399.868001 
L 189.947618 397.17987 
L 193.672347 388.21943 
L 196.332869 385.531298 
L 199.525494 381.051078 
L 201.653911 377.466902 
L 204.846537 366.714375 
L 208.039162 361.338111 
L 213.892309 359.546023 
L 217.084935 352.377672 
L 218.681248 349.68954 
L 223.470186 341.625144 
L 228.259124 336.24888 
L 232.515958 334.456793 
L 238.369105 332.664705 
L 242.093835 329.080529 
L 247.946982 323.704265 
L 251.671712 320.120089 
L 256.992754 318.328001 
L 260.717484 312.055694 
L 270.295361 295.926902 
L 276.680612 289.654595 
L 279.873237 286.966463 
L 284.130072 282.486243 
L 286.258489 275.317891 
L 292.111635 267.253496 
L 300.625304 265.461408 
L 306.47845 260.085144 
L 310.735284 252.916793 
L 319.248953 245.748441 
L 328.294725 240.372177 
L 336.276289 234.09987 
L 341.597332 231.411738 
L 349.578895 226.931518 
L 358.624668 217.075034 
L 364.477815 210.802727 
L 369.798857 200.946243 
L 380.973047 197.362067 
L 390.550923 193.777891 
L 398.000383 189.297672 
L 408.642468 183.025364 
L 416.624032 177.6491 
L 429.394534 167.792617 
L 440.03662 166.000529 
L 462.384998 153.455913 
L 471.962875 148.975694 
L 481.008647 145.391518 
L 499.100192 139.11921 
L 512.402799 131.950859 
L 526.769614 124.782507 
L 545.393263 119.406243 
L 568.80585 112.237891 
L 587.961604 105.06954 
L 610.309983 99.693276 
L 636.915195 91.62888 
L 662.988304 79.980309 
L 699.171394 69.227782 
L 746.528673 61.163386 
L 797.078578 53.995034 
L 949.7925 40.554375 
" clip-path="url(#p86021f98d3)" style="fill: none; stroke: #440154; stroke-width: 5; stroke-linecap: round"/>
   </g>
   <g id="PathCollection_7">
    <g clip-path="url(#p86021f98d3)">
     <use xlink:href="#m697e32ed93" x="218.681248" y="349.68954" style="fill: #1a1a1a; stroke: #1a1a1a"/>
    </g>
   </g>
   <g id="patch_3">
    <path d="M 112.7925 855.954375 
L 112.7925 40.554375 
" style="fill: none; stroke: #262626; stroke-width: 1.25; stroke-linejoin: miter; stroke-linecap: square"/>
   </g>
   <g id="patch_4">
    <path d="M 949.7925 855.954375 
L 949.7925 40.554375 
" style="fill: none; stroke: #262626; stroke-width: 1.25; stroke-linejoin: miter; stroke-linecap: square"/>
   </g>
   <g id="patch_5">
    <path d="M 112.7925 855.954375 
L 949.7925 855.954375 
" style="fill: none; stroke: #262626; stroke-width: 1.25; stroke-linejoin: miter; stroke-linecap: square"/>
   </g>
   <g id="patch_6">
    <path d="M 112.7925 40.554375 
L 949.7925 40.554375 
" style="fill: none; stroke: #262626; stroke-width: 1.25; stroke-linejoin: miter; stroke-linecap: square"/>
   </g>
   <g id="text_15">
    <text style="fill: #262626; font: 36px 'sans-serif'; text-anchor: middle" x="531.2925" y="34.554375" transform="rotate(-0 531.2925 34.554375)">Figure 5. ALL Cells</text>
   </g>
   <g id="legend_1">
    <g id="patch_7">
     <path d="M 54.2925 1336.183125 
L 1063.54125 1336.183125 
Q 1070.74125 1336.183125 1070.74125 1328.983125 
L 1070.74125 962.694375 
Q 1070.74125 955.494375 1063.54125 955.494375 
L 54.2925 955.494375 
Q 47.0925 955.494375 47.0925 962.694375 
L 47.0925 1328.983125 
Q 47.0925 1336.183125 54.2925 1336.183125 
z
" style="fill: #ffffff; opacity: 0.8; stroke: #cccccc; stroke-linejoin: miter"/>
    </g>
    <g id="line2d_8">
     <path d="M 61.4925 984.64875 
L 97.4925 984.64875 
L 133.4925 984.64875 
" style="fill: none; stroke: #fde725; stroke-width: 5; stroke-linecap: round"/>
    </g>
    <g id="text_16">
     <text style="fill: #262626; font: 36px 'sans-serif'; text-anchor: start" x="162.2925" y="997.24875" transform="rotate(-0 162.2925 997.24875)">All variables (ROC AUC = 0.97)</text>
    </g>
    <g id="line2d_9">
     <path d="M 61.4925 1037.49 
L 97.4925 1037.49 
L 133.4925 1037.49 
" style="fill: none; stroke: #a5db36; stroke-width: 5; stroke-linecap: round"/>
    </g>
    <g id="text_17">
     <text style="fill: #262626; font: 36px 'sans-serif'; text-anchor: start" x="162.2925" y="1050.09" transform="rotate(-0 162.2925 1050.09)">NAD(P)H variables + Cell Size (ROC AUC = 0.95)</text>
    </g>
    <g id="line2d_10">
     <path d="M 61.4925 1090.33125 
L 97.4925 1090.33125 
L 133.4925 1090.33125 
" style="fill: none; stroke: #4ac16d; stroke-width: 5; stroke-linecap: round"/>
    </g>
    <g id="text_18">
     <text style="fill: #262626; font: 36px 'sans-serif'; text-anchor: start" x="162.2925" y="1102.93125" transform="rotate(-0 162.2925 1102.93125)">Top four variables (ROC AUC) = 0.95)</text>
    </g>
    <g id="line2d_11">
     <path d="M 61.4925 1143.1725 
L 97.4925 1143.1725 
L 133.4925 1143.1725 
" style="fill: none; stroke: #1f988b; stroke-width: 5; stroke-linecap: round"/>
    </g>
    <g id="text_19">
     <text style="fill: #262626; font: 36px 'sans-serif'; text-anchor: start" x="162.2925" y="1155.7725" transform="rotate(-0 162.2925 1155.7725)">Top three variables (ROC AUC) = 0.94)</text>
    </g>
    <g id="line2d_12">
     <path d="M 61.4925 1196.01375 
L 97.4925 1196.01375 
L 133.4925 1196.01375 
" style="fill: none; stroke: #2a788e; stroke-width: 5; stroke-linecap: round"/>
    </g>
    <g id="text_20">
     <text style="fill: #262626; font: 36px 'sans-serif'; text-anchor: start" x="162.2925" y="1208.61375" transform="rotate(-0 162.2925 1208.61375)">Top two variables (ROC AUC) = 0.88)</text>
    </g>
    <g id="line2d_13">
     <path d="M 61.4925 1248.855 
L 97.4925 1248.855 
L 133.4925 1248.855 
" style="fill: none; stroke: #414487; stroke-width: 5; stroke-linecap: round"/>
    </g>
    <g id="text_21">
     <text style="fill: #262626; font: 36px 'sans-serif'; text-anchor: start" x="162.2925" y="1261.455" transform="rotate(-0 162.2925 1261.455)">Top variable (ROC AUC) = 0.75)</text>
    </g>
    <g id="line2d_14">
     <path d="M 61.4925 1301.69625 
L 97.4925 1301.69625 
L 133.4925 1301.69625 
" style="fill: none; stroke: #440154; stroke-width: 5; stroke-linecap: round"/>
    </g>
    <g id="text_22">
     <text style="fill: #262626; font: 36px 'sans-serif'; text-anchor: start" x="162.2925" y="1314.29625" transform="rotate(-0 162.2925 1314.29625)">Norm. Redox Ratio + Cell Size (ROC AUC) = 0.84)</text>
    </g>
   </g>
  </g>
 </g>
 <defs>
  <clipPath id="p86021f98d3">
   <rect x="112.7925" y="40.554375" width="837" height="815.4"/>
  </clipPath>
 </defs>
</svg>
