<?xml version="1.0" encoding="utf-8" standalone="no"?>
<!DOCTYPE svg PUBLIC "-//W3C//DTD SVG 1.1//EN"
  "http://www.w3.org/Graphics/SVG/1.1/DTD/svg11.dtd">
<svg xmlns:xlink="http://www.w3.org/1999/xlink" width="1077.94125pt" height="1343.383125pt" viewBox="0 0 1077.94125 1343.383125" xmlns="http://www.w3.org/2000/svg" version="1.1">
 <metadata>
  <rdf:RDF xmlns:dc="http://purl.org/dc/elements/1.1/" xmlns:cc="http://creativecommons.org/ns#" xmlns:rdf="http://www.w3.org/1999/02/22-rdf-syntax-ns#">
   <cc:Work>
    <dc:type rdf:resource="http://purl.org/dc/dcmitype/StillImage"/>
    <dc:date>2022-11-30T11:34:32.331590</dc:date>
    <dc:format>image/svg+xml</dc:format>
    <dc:creator>
     <cc:Agent>
      <dc:title>Matplotlib v3.6.0, https://matplotlib.org/</dc:title>
     </cc:Agent>
    </dc:creator>
   </cc:Work>
  </rdf:RDF>
 </metadata>
 <defs>
  <style type="text/css">*{stroke-linejoin: round; stroke-linecap: butt}</style>
 </defs>
 <g id="figure_1">
  <g id="patch_1">
   <path d="M 0 1343.383125 
L 1077.94125 1343.383125 
L 1077.94125 0 
L 0 0 
z
" style="fill: #ffffff"/>
  </g>
  <g id="axes_1">
   <g id="patch_2">
    <path d="M 112.7925 855.954375 
L 949.7925 855.954375 
L 949.7925 40.554375 
L 112.7925 40.554375 
z
" style="fill: #ffffff"/>
   </g>
   <g id="matplotlib.axis_1">
    <g id="xtick_1">
     <g id="text_1">
      <text style="fill: #262626; font: 36px 'sans-serif'; text-anchor: middle" x="112.7925" y="892.80875" transform="rotate(-0 112.7925 892.80875)">0.0</text>
     </g>
    </g>
    <g id="xtick_2">
     <g id="text_2">
      <text style="fill: #262626; font: 36px 'sans-serif'; text-anchor: middle" x="280.1925" y="892.80875" transform="rotate(-0 280.1925 892.80875)">0.2</text>
     </g>
    </g>
    <g id="xtick_3">
     <g id="text_3">
      <text style="fill: #262626; font: 36px 'sans-serif'; text-anchor: middle" x="447.5925" y="892.80875" transform="rotate(-0 447.5925 892.80875)">0.4</text>
     </g>
    </g>
    <g id="xtick_4">
     <g id="text_4">
      <text style="fill: #262626; font: 36px 'sans-serif'; text-anchor: middle" x="614.9925" y="892.80875" transform="rotate(-0 614.9925 892.80875)">0.6</text>
     </g>
    </g>
    <g id="xtick_5">
     <g id="text_5">
      <text style="fill: #262626; font: 36px 'sans-serif'; text-anchor: middle" x="782.3925" y="892.80875" transform="rotate(-0 782.3925 892.80875)">0.8</text>
     </g>
    </g>
    <g id="xtick_6">
     <g id="text_6">
      <text style="fill: #262626; font: 36px 'sans-serif'; text-anchor: middle" x="949.7925" y="892.80875" transform="rotate(-0 949.7925 892.80875)">1.0</text>
     </g>
    </g>
    <g id="text_7">
     <text style="fill: #262626; font: 36px 'sans-serif'; text-anchor: middle" x="531.2925" y="931.65" transform="rotate(-0 531.2925 931.65)">False Positive Rate</text>
    </g>
   </g>
   <g id="matplotlib.axis_2">
    <g id="ytick_1">
     <g id="text_8">
      <text style="fill: #262626; font: 36px 'sans-serif'; text-anchor: end" x="103.2925" y="869.631562" transform="rotate(-0 103.2925 869.631562)">0.0</text>
     </g>
    </g>
    <g id="ytick_2">
     <g id="text_9">
      <text style="fill: #262626; font: 36px 'sans-serif'; text-anchor: end" x="103.2925" y="706.551562" transform="rotate(-0 103.2925 706.551562)">0.2</text>
     </g>
    </g>
    <g id="ytick_3">
     <g id="text_10">
      <text style="fill: #262626; font: 36px 'sans-serif'; text-anchor: end" x="103.2925" y="543.471562" transform="rotate(-0 103.2925 543.471562)">0.4</text>
     </g>
    </g>
    <g id="ytick_4">
     <g id="text_11">
      <text style="fill: #262626; font: 36px 'sans-serif'; text-anchor: end" x="103.2925" y="380.391562" transform="rotate(-0 103.2925 380.391562)">0.6</text>
     </g>
    </g>
    <g id="ytick_5">
     <g id="text_12">
      <text style="fill: #262626; font: 36px 'sans-serif'; text-anchor: end" x="103.2925" y="217.311562" transform="rotate(-0 103.2925 217.311562)">0.8</text>
     </g>
    </g>
    <g id="ytick_6">
     <g id="text_13">
      <text style="fill: #262626; font: 36px 'sans-serif'; text-anchor: end" x="103.2925" y="54.231562" transform="rotate(-0 103.2925 54.231562)">1.0</text>
     </g>
    </g>
    <g id="text_14">
     <text style="fill: #262626; font: 36px 'sans-serif'; text-anchor: middle" x="34.554375" y="448.254375" transform="rotate(-90 34.554375 448.254375)">True Positive Rate</text>
    </g>
   </g>
   <g id="line2d_1">
    <path d="M 112.7925 855.954375 
L 112.7925 727.407174 
L 113.291011 668.077696 
L 113.789522 634.609785 
L 113.789522 604.945047 
L 113.789522 588.971726 
L 113.789522 570.716502 
L 114.288033 559.306987 
L 114.288033 550.940009 
L 114.288033 539.530494 
L 114.786544 531.924151 
L 116.282077 516.711465 
L 116.780588 509.105121 
L 116.780588 498.456241 
L 117.279099 483.243554 
L 117.77761 471.073405 
L 118.276121 465.748965 
L 118.276121 455.860718 
L 118.774632 448.254375 
L 119.273143 439.887397 
L 120.270165 427.717248 
L 120.270165 420.871539 
L 120.768676 414.02583 
L 121.267187 404.137584 
L 121.765698 395.770606 
L 124.756764 385.88236 
L 125.753786 380.55792 
L 126.750809 369.909039 
L 128.246342 361.542062 
L 129.243364 353.175084 
L 131.237408 349.371912 
L 132.23443 341.765569 
L 133.729963 334.159226 
L 134.726985 328.074151 
L 136.222518 320.467808 
L 141.207628 303.733853 
L 141.706139 299.170047 
L 145.195716 289.2818 
L 147.18976 284.717994 
L 151.177848 279.393554 
L 153.670404 274.829748 
L 156.66147 264.941502 
L 160.151047 258.856427 
L 162.643602 253.531987 
L 169.622756 241.361838 
L 173.610844 235.276763 
L 177.100421 228.431054 
L 182.085532 221.585345 
L 188.566175 212.457733 
L 194.049796 205.612024 
L 199.533417 201.048218 
L 203.022994 196.484412 
L 207.509594 185.835532 
L 213.491726 181.271726 
L 219.972369 175.947285 
L 226.951523 170.622845 
L 232.435144 166.059039 
L 239.91281 159.21333 
L 245.894942 156.170793 
L 249.88303 151.606987 
L 254.369629 149.325084 
L 259.85325 145.521912 
L 263.342828 140.958106 
L 270.820493 135.633666 
L 276.802625 130.309226 
L 280.292202 125.74542 
L 287.271356 120.420979 
L 294.250511 116.617808 
L 297.740088 112.814636 
L 306.214775 109.772099 
L 313.193929 107.490196 
L 319.674573 102.165756 
L 325.158194 101.405121 
L 330.143304 99.123218 
L 336.125436 93.038144 
L 343.104591 86.953069 
L 347.59119 83.149897 
L 357.56141 81.628629 
L 366.534608 80.10736 
L 374.510785 73.261651 
L 381.489939 70.979748 
L 388.967604 67.937211 
L 394.451225 66.415942 
L 400.931869 64.894674 
L 409.406556 61.091502 
L 421.869331 56.527696 
L 437.323173 55.767062 
L 446.794882 55.767062 
L 453.275526 51.203256 
L 462.747235 48.921353 
L 473.215966 48.921353 
L 484.68172 47.400084 
L 501.631094 46.63945 
L 522.568557 46.63945 
L 545.001553 46.63945 
L 576.407747 44.357547 
L 610.306496 42.836278 
L 657.166532 42.836278 
L 736.928295 41.315009 
L 949.7925 40.554375 
" clip-path="url(#p0d09b6bf96)" style="fill: none; stroke: #fde725; stroke-width: 5; stroke-linecap: round"/>
   </g>
   <g id="PathCollection_1">
    <defs>
     <path id="m704aa12443" d="M 0 11.18034 
C 2.965061 11.18034 5.80908 10.002309 7.905694 7.905694 
C 10.002309 5.80908 11.18034 2.965061 11.18034 0 
C 11.18034 -2.965061 10.002309 -5.80908 7.905694 -7.905694 
C 5.80908 -10.002309 2.965061 -11.18034 0 -11.18034 
C -2.965061 -11.18034 -5.80908 -10.002309 -7.905694 -7.905694 
C -10.002309 -5.80908 -11.18034 -2.965061 -11.18034 0 
C -11.18034 2.965061 -10.002309 5.80908 -7.905694 7.905694 
C -5.80908 10.002309 -2.965061 11.18034 0 11.18034 
z
" style="stroke: #1a1a1a"/>
    </defs>
    <g clip-path="url(#p0d09b6bf96)">
     <use xlink:href="#m704aa12443" x="188.566175" y="212.457733" style="fill: #1a1a1a; stroke: #1a1a1a"/>
    </g>
   </g>
   <g id="line2d_2">
    <path d="M 112.7925 855.954375 
L 112.7925 693.178629 
L 112.7925 639.173591 
L 113.789522 605.705681 
L 113.789522 584.40792 
L 114.786544 567.673965 
L 115.285055 550.940009 
L 115.783566 538.76986 
L 116.282077 528.881614 
L 117.77761 521.275271 
L 118.774632 510.62639 
L 119.771654 503.020047 
L 119.771654 494.653069 
L 121.267187 477.919114 
L 123.759742 468.791502 
L 124.258253 464.227696 
L 124.756764 457.381987 
L 126.252297 452.818181 
L 127.24932 447.493741 
L 128.744853 433.802323 
L 129.741875 426.195979 
L 129.741875 417.068368 
L 130.240386 414.02583 
L 132.732941 404.137584 
L 134.726985 393.488703 
L 138.216562 382.079188 
L 138.715073 375.233479 
L 139.712095 367.627136 
L 141.207628 359.260159 
L 141.207628 353.935718 
L 142.703161 351.653815 
L 146.192738 342.526203 
L 147.18976 333.398591 
L 148.186782 329.59542 
L 149.183804 322.749711 
L 151.177848 317.425271 
L 152.673381 313.622099 
L 156.162959 306.77639 
L 158.157003 298.409412 
L 160.151047 292.324338 
L 163.640624 283.196726 
L 166.63169 273.308479 
L 169.124245 267.984039 
L 174.109355 261.898965 
L 178.097443 255.81389 
L 182.085532 250.48945 
L 185.076598 246.686278 
L 188.566175 239.840569 
L 190.560219 232.99486 
L 193.052774 226.909785 
L 197.539373 221.585345 
L 203.022994 216.260905 
L 206.512571 212.457733 
L 209.503638 207.133293 
L 214.987259 201.048218 
L 218.476836 197.245047 
L 222.464924 195.723778 
L 227.948545 192.681241 
L 231.438122 186.596166 
L 235.426211 181.271726 
L 240.411321 178.229188 
L 243.900898 171.383479 
L 247.390475 168.340942 
L 252.874096 163.016502 
L 256.862184 160.734599 
L 262.844317 154.649524 
L 269.32496 150.085718 
L 274.808581 147.803815 
L 281.787735 145.521912 
L 286.772845 140.197472 
L 292.754978 135.633666 
L 297.740088 131.06986 
L 303.72222 127.266688 
L 308.208819 124.984785 
L 315.187973 118.899711 
L 320.173084 115.857174 
L 325.656705 107.490196 
L 333.13437 103.687024 
L 341.609057 99.123218 
L 346.095657 95.320047 
L 355.068855 93.038144 
L 363.543542 89.995606 
L 370.522697 87.713703 
L 380.492917 84.671166 
L 383.982494 82.389263 
L 393.454203 79.346726 
L 399.436336 78.586091 
L 409.406556 75.543554 
L 420.872309 74.78292 
L 431.839552 71.740382 
L 446.296371 68.697845 
L 461.750213 64.894674 
L 473.215966 61.852136 
L 486.177253 55.767062 
L 502.129605 53.485159 
L 514.592381 50.442621 
L 532.538778 47.400084 
L 553.47624 46.63945 
L 588.870523 46.63945 
L 652.679933 45.118181 
L 727.456586 42.075644 
L 949.7925 40.554375 
" clip-path="url(#p0d09b6bf96)" style="fill: none; stroke: #a5db36; stroke-width: 5; stroke-linecap: round"/>
   </g>
   <g id="PathCollection_2">
    <g clip-path="url(#p0d09b6bf96)">
     <use xlink:href="#m704aa12443" x="197.539373" y="221.585345" style="fill: #1a1a1a; stroke: #1a1a1a"/>
    </g>
   </g>
   <g id="line2d_3">
    <path d="M 112.7925 855.954375 
L 113.789522 679.487211 
L 114.786544 632.327882 
L 115.285055 604.184412 
L 116.282077 563.110159 
L 116.282077 548.658106 
L 116.282077 532.684785 
L 117.279099 522.796539 
L 118.276121 507.583853 
L 118.276121 499.216875 
L 119.771654 493.1318 
L 120.768676 471.834039 
L 121.267187 464.227696 
L 122.264209 450.536278 
L 123.261231 444.451203 
L 123.759742 440.648032 
L 124.756764 433.041688 
L 126.252297 430.759785 
L 127.24932 422.392808 
L 128.744853 414.786465 
L 129.243364 404.898218 
L 129.243364 397.291875 
L 131.735919 390.446166 
L 133.729963 385.88236 
L 134.726985 377.515382 
L 135.225496 371.430308 
L 138.216562 363.823965 
L 142.703161 360.020793 
L 144.697205 353.935718 
L 148.685293 344.808106 
L 151.676359 338.723032 
L 153.670404 332.637957 
L 156.66147 325.792248 
L 159.652536 318.185905 
L 165.136157 312.10083 
L 165.634668 306.77639 
L 169.124245 299.170047 
L 171.118289 293.084972 
L 173.112333 285.478629 
L 178.097443 278.63292 
L 180.091487 272.547845 
L 184.079576 264.180868 
L 188.067664 259.617062 
L 190.061708 253.531987 
L 193.052774 252.010718 
L 196.542351 246.686278 
L 201.527461 243.643741 
L 204.518527 232.99486 
L 208.008105 228.431054 
L 210.50066 218.542808 
L 215.984281 213.218368 
L 219.473858 210.936465 
L 224.458968 202.569487 
L 229.942589 196.484412 
L 233.432166 192.681241 
L 238.915788 182.03236 
L 241.906854 175.186651 
L 245.396431 172.904748 
L 247.888986 169.101576 
L 253.871118 165.298405 
L 258.856228 157.692062 
L 264.838361 155.410159 
L 268.826449 151.606987 
L 275.307092 149.325084 
L 277.799647 144.000644 
L 284.28029 140.197472 
L 290.760934 137.154935 
L 294.250511 133.351763 
L 298.238599 130.309226 
L 304.220731 125.74542 
L 316.184996 119.660345 
L 324.161172 115.857174 
L 330.641815 114.335905 
L 340.113524 104.447659 
L 347.092679 100.644487 
L 352.077789 95.320047 
L 363.045031 95.320047 
L 369.027163 91.516875 
L 377.501851 88.474338 
L 380.492917 86.953069 
L 385.478027 83.149897 
L 395.946758 80.867994 
L 405.418468 79.346726 
L 418.379754 74.78292 
L 428.349975 74.022285 
L 437.821684 70.979748 
L 453.275526 70.219114 
L 461.750213 67.937211 
L 474.711499 63.373405 
L 488.669808 62.612771 
L 506.117694 58.809599 
L 524.06409 58.048965 
L 544.503042 55.006427 
L 574.912214 53.485159 
L 614.294585 50.442621 
L 665.142708 48.921353 
L 743.408938 45.878815 
L 949.7925 40.554375 
" clip-path="url(#p0d09b6bf96)" style="fill: none; stroke: #4ac16d; stroke-width: 5; stroke-linecap: round"/>
   </g>
   <g id="PathCollection_3">
    <g clip-path="url(#p0d09b6bf96)">
     <use xlink:href="#m704aa12443" x="204.518527" y="232.99486" style="fill: #1a1a1a; stroke: #1a1a1a"/>
    </g>
   </g>
   <g id="line2d_4">
    <path d="M 112.7925 855.954375 
L 113.291011 706.870047 
L 113.789522 651.343741 
L 114.288033 620.157733 
L 115.285055 601.902509 
L 115.285055 576.040942 
L 115.783566 563.870793 
L 117.279099 549.418741 
L 117.77761 541.051763 
L 118.774632 531.924151 
L 119.771654 523.557174 
L 119.771654 514.429562 
L 120.768676 503.780681 
L 121.765698 493.892435 
L 123.261231 484.004188 
L 123.759742 479.440382 
L 126.252297 468.791502 
L 128.246342 461.185159 
L 129.243364 452.818181 
L 130.240386 442.1693 
L 130.738897 437.605494 
L 133.231452 430.759785 
L 134.726985 423.153442 
L 136.222518 410.983293 
L 138.216562 408.70139 
L 139.213584 401.855681 
L 142.20465 395.009972 
L 142.703161 388.164263 
L 144.697205 373.712211 
L 146.192738 372.190942 
L 148.685293 366.866502 
L 149.682315 361.542062 
L 152.673381 352.41445 
L 155.664448 345.568741 
L 157.658492 337.962397 
L 161.64658 329.59542 
L 164.637646 322.749711 
L 167.130201 315.143368 
L 169.622756 308.297659 
L 173.112333 301.45195 
L 176.103399 296.127509 
L 177.598932 290.042435 
L 179.094465 281.675457 
L 183.581065 273.308479 
L 188.566175 267.223405 
L 190.560219 261.13833 
L 193.551285 255.81389 
L 197.040862 248.207547 
L 199.533417 240.601203 
L 203.521505 235.276763 
L 209.503638 228.431054 
L 216.981303 222.345979 
L 221.467902 221.585345 
L 225.45599 217.782174 
L 229.942589 211.697099 
L 232.933655 207.133293 
L 235.426211 201.808853 
L 240.411321 198.766315 
L 243.402387 195.723778 
L 247.390475 191.159972 
L 251.378563 182.792994 
L 256.363673 178.229188 
L 258.856228 174.426017 
L 263.841339 169.101576 
L 270.820493 163.777136 
L 273.811559 159.21333 
L 278.796669 156.170793 
L 284.28029 153.128256 
L 288.76689 149.325084 
L 293.752 144.000644 
L 297.241577 138.676203 
L 304.719242 135.633666 
L 311.199885 132.591129 
L 317.182018 128.787957 
L 321.668617 123.463517 
L 329.644793 121.181614 
L 336.125436 118.139076 
L 341.609057 115.857174 
L 349.086723 114.335905 
L 353.074811 110.532733 
L 359.056943 108.25083 
L 368.030141 105.968927 
L 376.006318 102.92639 
L 383.483983 101.405121 
L 393.454203 98.362584 
L 400.931869 93.038144 
L 410.403578 89.234972 
L 419.376776 85.4318 
L 429.346997 79.346726 
L 439.317217 74.78292 
L 475.21001 63.373405 
L 496.147473 58.809599 
L 515.090892 55.767062 
L 536.526866 51.203256 
L 557.962839 50.442621 
L 589.369034 49.681987 
L 620.276717 46.63945 
L 673.118885 45.878815 
L 753.87767 44.357547 
L 949.7925 40.554375 
" clip-path="url(#p0d09b6bf96)" style="fill: none; stroke: #1f988b; stroke-width: 5; stroke-linecap: round"/>
   </g>
   <g id="PathCollection_4">
    <g clip-path="url(#p0d09b6bf96)">
     <use xlink:href="#m704aa12443" x="209.503638" y="228.431054" style="fill: #1a1a1a; stroke: #1a1a1a"/>
    </g>
   </g>
   <g id="line2d_5">
    <path d="M 112.7925 855.954375 
L 114.786544 725.125271 
L 117.77761 686.33292 
L 118.774632 670.359599 
L 119.273143 650.583106 
L 120.768676 635.37042 
L 121.267187 628.524711 
L 122.76272 617.115196 
L 123.261231 607.22695 
L 125.255275 601.141875 
L 125.255275 594.296166 
L 125.753786 585.168554 
L 125.753786 577.562211 
L 128.246342 569.955868 
L 130.738897 563.110159 
L 131.735919 555.503815 
L 132.23443 550.179375 
L 135.724007 541.812397 
L 138.216562 532.684785 
L 140.709117 527.360345 
L 143.201672 519.754002 
L 146.691249 506.823218 
L 150.679337 503.780681 
L 152.673381 496.934972 
L 156.66147 490.849897 
L 161.148069 484.764823 
L 164.139135 480.201017 
L 167.628712 472.594674 
L 169.622756 464.98833 
L 175.106377 458.142621 
L 176.103399 449.015009 
L 180.091487 442.929935 
L 181.587021 435.323591 
L 186.572131 426.956614 
L 189.064686 423.153442 
L 193.551285 415.547099 
L 198.037884 411.743927 
L 201.527461 404.137584 
L 203.521505 398.813144 
L 209.503638 392.728069 
L 219.473858 388.924897 
L 221.966413 383.600457 
L 225.954501 373.712211 
L 230.4411 362.302696 
L 232.435144 355.456987 
L 234.429189 352.41445 
L 238.915788 348.611278 
L 242.903876 344.808106 
L 248.387497 338.723032 
L 253.871118 328.074151 
L 256.862184 319.707174 
L 259.85325 312.10083 
L 264.33985 305.255121 
L 270.321982 298.409412 
L 273.811559 293.084972 
L 281.289224 288.521166 
L 286.772845 283.196726 
L 292.256467 274.829748 
L 301.229665 270.265942 
L 303.72222 264.180868 
L 310.701374 259.617062 
L 315.187973 255.81389 
L 320.173084 250.48945 
L 327.152238 245.925644 
L 332.635859 241.361838 
L 337.122458 232.99486 
L 345.098635 225.388517 
L 350.582256 217.021539 
L 355.567366 210.936465 
L 361.549498 201.048218 
L 369.027163 194.963144 
L 377.501851 186.596166 
L 382.486961 178.989823 
L 392.457181 175.947285 
L 398.937825 169.862211 
L 406.914001 162.255868 
L 414.890177 156.931427 
L 421.37082 155.410159 
L 428.349975 153.128256 
L 435.329129 147.803815 
L 440.314239 142.479375 
L 448.290415 140.197472 
L 455.768081 134.873032 
L 465.23979 130.309226 
L 474.212988 123.463517 
L 486.675764 118.899711 
L 494.153429 115.096539 
L 503.126627 112.814636 
L 511.102804 107.490196 
L 517.583447 103.687024 
L 529.547711 97.60195 
L 541.013465 89.995606 
L 551.980707 87.713703 
L 565.939016 82.389263 
L 579.398813 77.825457 
L 596.348188 74.022285 
L 618.282673 70.219114 
L 633.736514 66.415942 
L 661.15462 61.852136 
L 698.044436 59.570233 
L 755.871714 55.767062 
L 949.7925 40.554375 
" clip-path="url(#p0d09b6bf96)" style="fill: none; stroke: #2a788e; stroke-width: 5; stroke-linecap: round"/>
   </g>
   <g id="PathCollection_5">
    <g clip-path="url(#p0d09b6bf96)">
     <use xlink:href="#m704aa12443" x="256.862184" y="319.707174" style="fill: #1a1a1a; stroke: #1a1a1a"/>
    </g>
   </g>
   <g id="line2d_6">
    <path d="M 112.7925 855.954375 
L 124.756764 715.237024 
L 125.753786 712.955121 
L 126.252297 712.194487 
L 126.252297 706.870047 
L 126.750809 706.870047 
L 126.750809 669.598965 
L 127.24932 668.077696 
L 128.246342 667.317062 
L 128.744853 664.274524 
L 128.744853 663.51389 
L 129.243364 661.992621 
L 130.240386 660.471353 
L 130.738897 660.471353 
L 130.738897 655.907547 
L 133.231452 653.625644 
L 133.729963 652.865009 
L 133.729963 651.343741 
L 134.726985 649.061838 
L 135.225496 647.540569 
L 136.721029 647.540569 
L 137.21954 646.0193 
L 138.715073 644.498032 
L 138.715073 642.976763 
L 139.712095 641.455494 
L 139.712095 639.934226 
L 140.210606 638.412957 
L 140.210606 635.37042 
L 140.709117 633.088517 
L 141.706139 630.806614 
L 141.706139 629.285345 
L 142.703161 629.285345 
L 142.703161 623.960905 
L 143.201672 623.960905 
L 143.201672 622.439636 
L 144.697205 620.157733 
L 144.697205 619.397099 
L 145.195716 618.636465 
L 146.691249 617.115196 
L 146.691249 616.354562 
L 147.688271 614.072659 
L 147.688271 611.790756 
L 149.183804 609.508853 
L 150.180826 608.748218 
L 150.180826 601.902509 
L 151.676359 601.141875 
L 151.676359 600.381241 
L 152.17487 598.859972 
L 152.17487 589.73236 
L 152.673381 587.450457 
L 152.673381 583.647285 
L 153.171892 581.365382 
L 153.171892 579.083479 
L 155.165937 576.040942 
L 156.162959 575.280308 
L 156.66147 572.998405 
L 157.658492 571.477136 
L 157.658492 569.955868 
L 160.151047 569.955868 
L 160.151047 568.434599 
L 161.148069 565.392062 
L 161.148069 563.870793 
L 162.145091 563.110159 
L 162.145091 562.349524 
L 163.142113 562.349524 
L 165.136157 560.828256 
L 168.127223 556.26445 
L 168.625734 554.743181 
L 168.625734 549.418741 
L 169.622756 549.418741 
L 169.622756 548.658106 
L 170.619778 548.658106 
L 171.6168 547.136838 
L 171.6168 546.376203 
L 173.610844 545.615569 
L 174.109355 543.333666 
L 175.106377 541.051763 
L 176.60191 540.291129 
L 177.100421 538.009226 
L 180.091487 533.44542 
L 180.091487 525.839076 
L 181.587021 523.557174 
L 181.587021 518.993368 
L 184.079576 516.711465 
L 184.079576 514.429562 
L 184.578087 512.908293 
L 184.578087 511.387024 
L 185.076598 509.865756 
L 185.076598 507.583853 
L 186.07362 507.583853 
L 186.572131 506.823218 
L 187.569153 504.541315 
L 190.061708 503.020047 
L 190.560219 501.498778 
L 192.055752 499.216875 
L 192.055752 494.653069 
L 193.052774 493.892435 
L 193.052774 492.371166 
L 193.551285 490.089263 
L 193.551285 489.328629 
L 194.049796 486.286091 
L 194.548307 484.764823 
L 195.046818 484.004188 
L 196.04384 484.004188 
L 197.539373 481.722285 
L 198.536395 478.679748 
L 199.533417 477.158479 
L 199.533417 474.876576 
L 201.527461 474.115942 
L 204.518527 467.270233 
L 205.017038 467.270233 
L 206.512571 464.98833 
L 207.509594 464.98833 
L 208.008105 462.706427 
L 209.503638 462.706427 
L 210.002149 461.945793 
L 210.002149 460.424524 
L 210.50066 458.142621 
L 211.497682 454.33945 
L 212.494704 454.33945 
L 212.993215 452.057547 
L 215.48577 452.057547 
L 215.984281 449.775644 
L 215.984281 448.254375 
L 218.476836 448.254375 
L 218.476836 447.493741 
L 219.473858 445.211838 
L 220.969391 442.1693 
L 221.467902 441.408666 
L 222.963435 440.648032 
L 223.461946 438.366129 
L 223.960457 437.605494 
L 226.951523 434.562957 
L 227.948545 433.041688 
L 227.948545 432.281054 
L 230.4411 428.477882 
L 231.936633 425.435345 
L 232.435144 424.674711 
L 233.930677 423.914076 
L 234.429189 422.392808 
L 235.924722 420.110905 
L 238.417277 419.350271 
L 239.414299 419.350271 
L 239.414299 417.068368 
L 240.411321 414.02583 
L 242.903876 414.02583 
L 244.399409 411.743927 
L 246.393453 411.743927 
L 248.886008 410.222659 
L 249.384519 408.70139 
L 249.88303 408.70139 
L 249.88303 407.180121 
L 250.880052 406.419487 
L 251.378563 404.137584 
L 254.369629 402.616315 
L 254.86814 401.095047 
L 256.363673 394.249338 
L 257.360695 394.249338 
L 258.856228 392.728069 
L 265.336872 382.839823 
L 265.835383 380.55792 
L 269.823471 377.515382 
L 272.814537 375.994114 
L 274.31007 374.472845 
L 276.304114 372.190942 
L 276.304114 368.387771 
L 278.796669 367.627136 
L 279.793691 365.345233 
L 282.286246 365.345233 
L 283.781779 363.823965 
L 284.28029 363.06333 
L 287.769867 360.781427 
L 287.769867 359.260159 
L 289.265401 356.217621 
L 290.760934 354.696353 
L 291.757956 354.696353 
L 294.250511 352.41445 
L 296.244555 349.371912 
L 298.238599 347.850644 
L 299.734132 344.808106 
L 299.734132 342.526203 
L 300.232643 341.004935 
L 301.728176 341.004935 
L 302.725198 339.483666 
L 303.223709 336.441129 
L 304.220731 336.441129 
L 304.220731 335.680494 
L 306.214775 333.398591 
L 306.214775 331.877323 
L 309.205841 328.074151 
L 311.199885 327.313517 
L 313.69244 327.313517 
L 316.184996 326.552882 
L 319.674573 325.031614 
L 323.16415 325.031614 
L 326.653727 321.989076 
L 327.152238 319.707174 
L 333.632881 317.425271 
L 334.131392 316.664636 
L 336.125436 316.664636 
L 336.623947 315.143368 
L 337.620969 314.382733 
L 338.617991 314.382733 
L 339.615013 312.861465 
L 341.609057 311.340196 
L 346.095657 308.297659 
L 346.594168 305.255121 
L 349.086723 303.733853 
L 355.068855 303.733853 
L 355.068855 302.212584 
L 361.050987 300.691315 
L 363.045031 299.170047 
L 364.042053 297.648778 
L 365.537586 297.648778 
L 365.537586 296.888144 
L 368.030141 296.127509 
L 369.525675 296.127509 
L 369.525675 295.366875 
L 370.522697 294.606241 
L 371.021208 294.606241 
L 373.015252 291.563703 
L 373.015252 290.803069 
L 373.513763 289.2818 
L 375.009296 286.999897 
L 379.495895 285.478629 
L 381.489939 283.196726 
L 383.483983 279.393554 
L 384.979516 278.63292 
L 386.475049 278.63292 
L 386.97356 277.872285 
L 386.97356 277.111651 
L 387.472071 275.590382 
L 388.967604 274.069114 
L 391.95867 273.308479 
L 393.454203 271.787211 
L 396.943781 271.787211 
L 397.442292 270.265942 
L 398.937825 269.505308 
L 402.925913 266.462771 
L 402.925913 265.702136 
L 404.421446 258.856427 
L 405.916979 257.335159 
L 409.905067 256.574524 
L 412.397622 255.053256 
L 413.893155 253.531987 
L 416.38571 252.771353 
L 422.866353 252.771353 
L 423.364865 251.250084 
L 425.85742 250.48945 
L 427.352953 248.207547 
L 429.845508 248.207547 
L 431.341041 246.686278 
L 432.338063 246.686278 
L 437.323173 245.925644 
L 438.320195 243.643741 
L 439.317217 242.883106 
L 439.317217 242.122472 
L 442.806794 239.079935 
L 443.305305 236.037397 
L 443.803816 236.037397 
L 449.785948 232.99486 
L 450.782971 229.952323 
L 453.275526 229.191688 
L 454.272548 229.191688 
L 460.25468 225.388517 
L 461.251702 223.867248 
L 462.747235 223.106614 
L 463.744257 222.345979 
L 467.732345 221.585345 
L 468.230856 220.824711 
L 468.230856 219.303442 
L 472.218944 217.021539 
L 472.218944 215.500271 
L 473.714477 215.500271 
L 480.693632 213.979002 
L 482.189165 213.218368 
L 483.684698 208.654562 
L 489.168319 207.893927 
L 492.159385 207.893927 
L 497.144495 204.85139 
L 499.63705 204.090756 
L 502.129605 202.569487 
L 505.120672 201.808853 
L 506.117694 199.52695 
L 508.610249 197.245047 
L 509.607271 195.723778 
L 520.076002 191.920606 
L 520.574513 190.399338 
L 522.070046 188.117435 
L 523.565579 187.3568 
L 526.058134 185.835532 
L 528.550689 185.835532 
L 532.538778 182.792994 
L 538.022399 181.271726 
L 543.007509 180.511091 
L 545.001553 180.511091 
L 549.488152 179.750457 
L 552.977729 178.229188 
L 553.974751 178.229188 
L 558.461351 175.186651 
L 559.956884 173.665382 
L 559.956884 172.904748 
L 560.953906 172.144114 
L 566.936038 169.862211 
L 574.912214 169.862211 
L 578.900302 169.101576 
L 580.395835 169.101576 
L 584.383923 166.819674 
L 585.879457 165.298405 
L 590.366056 163.777136 
L 595.351166 161.495233 
L 596.348188 159.973965 
L 596.348188 159.21333 
L 597.34521 157.692062 
L 605.321386 156.170793 
L 608.312452 153.88889 
L 616.78714 151.606987 
L 621.77225 150.085718 
L 622.270761 150.085718 
L 628.252893 147.043181 
L 632.240981 144.761278 
L 639.718647 141.718741 
L 641.21418 140.958106 
L 647.196312 140.197472 
L 659.659087 137.915569 
L 661.15462 134.112397 
L 662.650153 133.351763 
L 667.136753 132.591129 
L 675.112929 131.06986 
L 675.61144 129.548591 
L 677.106973 129.548591 
L 682.590594 128.787957 
L 685.083149 127.266688 
L 691.065281 125.74542 
L 695.05337 121.942248 
L 702.032524 121.942248 
L 710.0087 119.660345 
L 716.987854 117.378442 
L 717.486365 116.617808 
L 719.480409 116.617808 
L 719.97892 115.857174 
L 726.958075 112.814636 
L 729.949141 110.532733 
L 735.432762 109.772099 
L 743.408938 106.729562 
L 746.400004 105.208293 
L 753.379159 103.687024 
L 758.364269 102.165756 
L 765.841934 101.405121 
L 774.815133 99.123218 
L 782.292798 99.123218 
L 788.773441 97.60195 
L 790.767485 96.841315 
L 790.767485 96.080681 
L 797.248128 93.798778 
L 802.73175 89.995606 
L 808.713882 86.192435 
L 813.698992 83.910532 
L 816.690058 83.910532 
L 817.188569 81.628629 
L 825.164745 80.867994 
L 830.149856 78.586091 
L 832.1439 78.586091 
L 842.11412 74.78292 
L 844.108164 73.261651 
L 850.090296 72.501017 
L 850.090296 71.740382 
L 857.069451 68.697845 
L 857.567962 67.937211 
L 859.562006 67.176576 
L 868.535204 65.655308 
L 872.523292 63.373405 
L 880.997979 61.852136 
L 890.9682 61.091502 
L 895.95331 61.091502 
L 901.436931 60.330868 
L 905.425019 58.809599 
L 906.422041 58.048965 
L 915.39524 57.28833 
L 920.878861 55.006427 
L 924.368438 52.724524 
L 926.362482 51.96389 
L 929.852059 49.681987 
L 934.338658 48.160718 
L 941.317813 47.400084 
L 941.317813 45.878815 
L 942.314835 45.118181 
L 942.813346 45.118181 
L 949.7925 40.554375 
L 949.7925 40.554375 
" clip-path="url(#p0d09b6bf96)" style="fill: none; stroke: #414487; stroke-width: 5; stroke-linecap: round"/>
   </g>
   <g id="PathCollection_6">
    <g clip-path="url(#p0d09b6bf96)">
     <use xlink:href="#m704aa12443" x="227.948545" y="432.281054" style="fill: #1a1a1a; stroke: #1a1a1a"/>
    </g>
   </g>
   <g id="line2d_7">
    <path d="M 112.7925 855.954375 
L 116.780588 714.47639 
L 118.774632 676.444674 
L 119.771654 651.343741 
L 121.765698 633.088517 
L 123.261231 624.721539 
L 124.756764 614.833293 
L 125.753786 611.030121 
L 127.24932 604.945047 
L 130.738897 598.099338 
L 130.738897 592.014263 
L 131.735919 584.40792 
L 132.732941 577.562211 
L 135.225496 572.998405 
L 136.222518 567.673965 
L 138.715073 561.58889 
L 142.703161 552.461278 
L 147.688271 543.333666 
L 149.183804 533.44542 
L 150.180826 525.839076 
L 153.171892 521.275271 
L 154.667426 512.908293 
L 156.162959 507.583853 
L 157.159981 498.456241 
L 161.148069 493.1318 
L 163.640624 487.80736 
L 167.130201 480.961651 
L 168.625734 472.594674 
L 171.6168 467.270233 
L 175.604888 463.467062 
L 179.592976 457.381987 
L 185.575109 454.33945 
L 190.061708 446.733106 
L 191.557241 442.929935 
L 196.04384 436.84486 
L 200.031928 430.759785 
L 203.022994 426.195979 
L 206.512571 419.350271 
L 211.996193 416.307733 
L 217.479814 407.940756 
L 220.969391 401.855681 
L 222.464924 392.728069 
L 226.951523 385.88236 
L 230.4411 378.276017 
L 234.429189 372.190942 
L 240.909832 365.345233 
L 244.89792 357.73889 
L 251.877074 354.696353 
L 257.859206 353.175084 
L 260.850272 348.611278 
L 267.829427 343.286838 
L 272.316026 337.962397 
L 277.301136 335.680494 
L 282.286246 331.116688 
L 287.271356 327.313517 
L 293.752 320.467808 
L 298.238599 314.382733 
L 304.220731 312.10083 
L 308.208819 307.537024 
L 315.187973 303.733853 
L 320.173084 296.888144 
L 329.644793 287.760532 
L 335.128414 283.95736 
L 341.609057 279.393554 
L 348.588212 274.069114 
L 356.564388 271.026576 
L 360.053965 267.984039 
L 365.039075 264.941502 
L 376.504829 258.095793 
L 385.976538 248.207547 
L 394.451225 241.361838 
L 399.934847 236.798032 
L 408.908045 232.234226 
L 418.379754 228.431054 
L 423.364865 220.064076 
L 430.84253 210.936465 
L 439.815728 202.569487 
L 446.296371 200.287584 
L 453.774037 194.202509 
L 467.233834 187.3568 
L 476.207032 177.468554 
L 486.177253 171.383479 
L 498.141517 166.059039 
L 505.120672 161.495233 
L 518.081958 154.649524 
L 532.040267 147.043181 
L 543.007509 140.958106 
L 555.968795 137.915569 
L 572.419659 131.06986 
L 582.389879 127.266688 
L 601.831809 118.899711 
L 620.276717 112.054002 
L 638.721624 109.011465 
L 652.679933 96.841315 
L 673.617396 89.234972 
L 689.569748 82.389263 
L 709.510189 73.261651 
L 727.456586 65.655308 
L 756.868736 57.28833 
L 810.209415 50.442621 
L 949.7925 40.554375 
" clip-path="url(#p0d09b6bf96)" style="fill: none; stroke: #440154; stroke-width: 5; stroke-linecap: round"/>
   </g>
   <g id="PathCollection_7">
    <g clip-path="url(#p0d09b6bf96)">
     <use xlink:href="#m704aa12443" x="260.850272" y="348.611278" style="fill: #1a1a1a; stroke: #1a1a1a"/>
    </g>
   </g>
   <g id="patch_3">
    <path d="M 112.7925 855.954375 
L 112.7925 40.554375 
" style="fill: none; stroke: #262626; stroke-width: 1.25; stroke-linejoin: miter; stroke-linecap: square"/>
   </g>
   <g id="patch_4">
    <path d="M 949.7925 855.954375 
L 949.7925 40.554375 
" style="fill: none; stroke: #262626; stroke-width: 1.25; stroke-linejoin: miter; stroke-linecap: square"/>
   </g>
   <g id="patch_5">
    <path d="M 112.7925 855.954375 
L 949.7925 855.954375 
" style="fill: none; stroke: #262626; stroke-width: 1.25; stroke-linejoin: miter; stroke-linecap: square"/>
   </g>
   <g id="patch_6">
    <path d="M 112.7925 40.554375 
L 949.7925 40.554375 
" style="fill: none; stroke: #262626; stroke-width: 1.25; stroke-linejoin: miter; stroke-linecap: square"/>
   </g>
   <g id="text_15">
    <text style="fill: #262626; font: 36px 'sans-serif'; text-anchor: middle" x="531.2925" y="34.554375" transform="rotate(-0 531.2925 34.554375)">Figure 5. ALL Cells</text>
   </g>
   <g id="legend_1">
    <g id="patch_7">
     <path d="M 54.2925 1336.183125 
L 1063.54125 1336.183125 
Q 1070.74125 1336.183125 1070.74125 1328.983125 
L 1070.74125 962.694375 
Q 1070.74125 955.494375 1063.54125 955.494375 
L 54.2925 955.494375 
Q 47.0925 955.494375 47.0925 962.694375 
L 47.0925 1328.983125 
Q 47.0925 1336.183125 54.2925 1336.183125 
z
" style="fill: #ffffff; opacity: 0.8; stroke: #cccccc; stroke-linejoin: miter"/>
    </g>
    <g id="line2d_8">
     <path d="M 61.4925 984.64875 
L 97.4925 984.64875 
L 133.4925 984.64875 
" style="fill: none; stroke: #fde725; stroke-width: 5; stroke-linecap: round"/>
    </g>
    <g id="text_16">
     <text style="fill: #262626; font: 36px 'sans-serif'; text-anchor: start" x="162.2925" y="997.24875" transform="rotate(-0 162.2925 997.24875)">All variables (ROC AUC = 0.94)</text>
    </g>
    <g id="line2d_9">
     <path d="M 61.4925 1037.49 
L 97.4925 1037.49 
L 133.4925 1037.49 
" style="fill: none; stroke: #a5db36; stroke-width: 5; stroke-linecap: round"/>
    </g>
    <g id="text_17">
     <text style="fill: #262626; font: 36px 'sans-serif'; text-anchor: start" x="162.2925" y="1050.09" transform="rotate(-0 162.2925 1050.09)">NAD(P)H variables + Cell Size (ROC AUC = 0.93)</text>
    </g>
    <g id="line2d_10">
     <path d="M 61.4925 1090.33125 
L 97.4925 1090.33125 
L 133.4925 1090.33125 
" style="fill: none; stroke: #4ac16d; stroke-width: 5; stroke-linecap: round"/>
    </g>
    <g id="text_18">
     <text style="fill: #262626; font: 36px 'sans-serif'; text-anchor: start" x="162.2925" y="1102.93125" transform="rotate(-0 162.2925 1102.93125)">Top four variables (ROC AUC) = 0.92)</text>
    </g>
    <g id="line2d_11">
     <path d="M 61.4925 1143.1725 
L 97.4925 1143.1725 
L 133.4925 1143.1725 
" style="fill: none; stroke: #1f988b; stroke-width: 5; stroke-linecap: round"/>
    </g>
    <g id="text_19">
     <text style="fill: #262626; font: 36px 'sans-serif'; text-anchor: start" x="162.2925" y="1155.7725" transform="rotate(-0 162.2925 1155.7725)">Top three variables (ROC AUC) = 0.92)</text>
    </g>
    <g id="line2d_12">
     <path d="M 61.4925 1196.01375 
L 97.4925 1196.01375 
L 133.4925 1196.01375 
" style="fill: none; stroke: #2a788e; stroke-width: 5; stroke-linecap: round"/>
    </g>
    <g id="text_20">
     <text style="fill: #262626; font: 36px 'sans-serif'; text-anchor: start" x="162.2925" y="1208.61375" transform="rotate(-0 162.2925 1208.61375)">Top two variables (ROC AUC) = 0.84)</text>
    </g>
    <g id="line2d_13">
     <path d="M 61.4925 1248.855 
L 97.4925 1248.855 
L 133.4925 1248.855 
" style="fill: none; stroke: #414487; stroke-width: 5; stroke-linecap: round"/>
    </g>
    <g id="text_21">
     <text style="fill: #262626; font: 36px 'sans-serif'; text-anchor: start" x="162.2925" y="1261.455" transform="rotate(-0 162.2925 1261.455)">Top variable (ROC AUC) = 0.76)</text>
    </g>
    <g id="line2d_14">
     <path d="M 61.4925 1301.69625 
L 97.4925 1301.69625 
L 133.4925 1301.69625 
" style="fill: none; stroke: #440154; stroke-width: 5; stroke-linecap: round"/>
    </g>
    <g id="text_22">
     <text style="fill: #262626; font: 36px 'sans-serif'; text-anchor: start" x="162.2925" y="1314.29625" transform="rotate(-0 162.2925 1314.29625)">Norm. Redox Ratio + Cell Size (ROC AUC) = 0.80)</text>
    </g>
   </g>
  </g>
 </g>
 <defs>
  <clipPath id="p0d09b6bf96">
   <rect x="112.7925" y="40.554375" width="837" height="815.4"/>
  </clipPath>
 </defs>
</svg>
