<?xml version="1.0" encoding="utf-8" standalone="no"?>
<!DOCTYPE svg PUBLIC "-//W3C//DTD SVG 1.1//EN"
  "http://www.w3.org/Graphics/SVG/1.1/DTD/svg11.dtd">
<svg xmlns:xlink="http://www.w3.org/1999/xlink" width="985.618125pt" height="1132.175625pt" viewBox="0 0 985.618125 1132.175625" xmlns="http://www.w3.org/2000/svg" version="1.1">
 <metadata>
  <rdf:RDF xmlns:dc="http://purl.org/dc/elements/1.1/" xmlns:cc="http://creativecommons.org/ns#" xmlns:rdf="http://www.w3.org/1999/02/22-rdf-syntax-ns#">
   <cc:Work>
    <dc:type rdf:resource="http://purl.org/dc/dcmitype/StillImage"/>
    <dc:date>2022-12-01T09:56:04.075871</dc:date>
    <dc:format>image/svg+xml</dc:format>
    <dc:creator>
     <cc:Agent>
      <dc:title>Matplotlib v3.6.0, https://matplotlib.org/</dc:title>
     </cc:Agent>
    </dc:creator>
   </cc:Work>
  </rdf:RDF>
 </metadata>
 <defs>
  <style type="text/css">*{stroke-linejoin: round; stroke-linecap: butt}</style>
 </defs>
 <g id="figure_1">
  <g id="patch_1">
   <path d="M 0 1132.175625 
L 985.618125 1132.175625 
L 985.618125 0 
L 0 0 
z
" style="fill: #ffffff"/>
  </g>
  <g id="axes_1">
   <g id="patch_2">
    <path d="M 112.7925 856.111875 
L 949.7925 856.111875 
L 949.7925 40.711875 
L 112.7925 40.711875 
z
" style="fill: #ffffff"/>
   </g>
   <g id="matplotlib.axis_1">
    <g id="xtick_1">
     <g id="text_1">
      <text style="fill: #262626; font: 36px 'sans-serif'; text-anchor: middle" x="112.7925" y="892.96625" transform="rotate(-0 112.7925 892.96625)">0.0</text>
     </g>
    </g>
    <g id="xtick_2">
     <g id="text_2">
      <text style="fill: #262626; font: 36px 'sans-serif'; text-anchor: middle" x="280.1925" y="892.96625" transform="rotate(-0 280.1925 892.96625)">0.2</text>
     </g>
    </g>
    <g id="xtick_3">
     <g id="text_3">
      <text style="fill: #262626; font: 36px 'sans-serif'; text-anchor: middle" x="447.5925" y="892.96625" transform="rotate(-0 447.5925 892.96625)">0.4</text>
     </g>
    </g>
    <g id="xtick_4">
     <g id="text_4">
      <text style="fill: #262626; font: 36px 'sans-serif'; text-anchor: middle" x="614.9925" y="892.96625" transform="rotate(-0 614.9925 892.96625)">0.6</text>
     </g>
    </g>
    <g id="xtick_5">
     <g id="text_5">
      <text style="fill: #262626; font: 36px 'sans-serif'; text-anchor: middle" x="782.3925" y="892.96625" transform="rotate(-0 782.3925 892.96625)">0.8</text>
     </g>
    </g>
    <g id="xtick_6">
     <g id="text_6">
      <text style="fill: #262626; font: 36px 'sans-serif'; text-anchor: middle" x="949.7925" y="892.96625" transform="rotate(-0 949.7925 892.96625)">1.0</text>
     </g>
    </g>
    <g id="text_7">
     <text style="fill: #262626; font: 36px 'sans-serif'; text-anchor: middle" x="531.2925" y="931.8075" transform="rotate(-0 531.2925 931.8075)">False Positive Rate</text>
    </g>
   </g>
   <g id="matplotlib.axis_2">
    <g id="ytick_1">
     <g id="text_8">
      <text style="fill: #262626; font: 36px 'sans-serif'; text-anchor: end" x="103.2925" y="869.789062" transform="rotate(-0 103.2925 869.789062)">0.0</text>
     </g>
    </g>
    <g id="ytick_2">
     <g id="text_9">
      <text style="fill: #262626; font: 36px 'sans-serif'; text-anchor: end" x="103.2925" y="706.709062" transform="rotate(-0 103.2925 706.709062)">0.2</text>
     </g>
    </g>
    <g id="ytick_3">
     <g id="text_10">
      <text style="fill: #262626; font: 36px 'sans-serif'; text-anchor: end" x="103.2925" y="543.629062" transform="rotate(-0 103.2925 543.629062)">0.4</text>
     </g>
    </g>
    <g id="ytick_4">
     <g id="text_11">
      <text style="fill: #262626; font: 36px 'sans-serif'; text-anchor: end" x="103.2925" y="380.549062" transform="rotate(-0 103.2925 380.549062)">0.6</text>
     </g>
    </g>
    <g id="ytick_5">
     <g id="text_12">
      <text style="fill: #262626; font: 36px 'sans-serif'; text-anchor: end" x="103.2925" y="217.469062" transform="rotate(-0 103.2925 217.469062)">0.8</text>
     </g>
    </g>
    <g id="ytick_6">
     <g id="text_13">
      <text style="fill: #262626; font: 36px 'sans-serif'; text-anchor: end" x="103.2925" y="54.389062" transform="rotate(-0 103.2925 54.389062)">1.0</text>
     </g>
    </g>
    <g id="text_14">
     <text style="fill: #262626; font: 36px 'sans-serif'; text-anchor: middle" x="34.554375" y="448.411875" transform="rotate(-90 34.554375 448.411875)">True Positive Rate</text>
    </g>
   </g>
   <g id="line2d_1">
    <path d="M 112.7925 856.111875 
L 112.7925 798.765062 
L 113.324604 798.765062 
L 113.324604 771.883743 
L 113.856709 771.883743 
L 113.856709 761.131216 
L 114.388813 761.131216 
L 114.388813 720.809238 
L 114.920917 720.809238 
L 114.920917 714.53693 
L 115.453021 714.53693 
L 115.453021 702.888359 
L 115.985126 702.888359 
L 115.985126 698.408139 
L 116.51723 698.408139 
L 116.51723 693.927919 
L 117.049334 693.927919 
L 117.049334 688.551655 
L 117.581438 688.551655 
L 117.581438 681.383304 
L 118.113543 681.383304 
L 118.113543 661.670337 
L 118.645647 661.670337 
L 118.645647 653.605941 
L 119.177751 653.605941 
L 119.177751 651.813853 
L 119.709855 651.813853 
L 119.709855 644.645501 
L 120.774064 644.645501 
L 120.774064 636.581106 
L 121.306168 636.581106 
L 121.306168 627.620666 
L 121.838272 627.620666 
L 121.838272 619.556271 
L 122.370377 619.556271 
L 122.370377 615.076051 
L 122.902481 615.076051 
L 122.902481 607.011655 
L 123.966689 607.011655 
L 123.966689 596.259128 
L 124.498794 596.259128 
L 124.498794 593.570996 
L 125.030898 593.570996 
L 125.030898 588.194732 
L 125.563002 588.194732 
L 125.563002 576.546161 
L 126.095106 576.546161 
L 126.095106 572.961985 
L 126.627211 572.961985 
L 126.627211 572.065941 
L 127.159315 572.065941 
L 127.159315 562.209457 
L 127.691419 562.209457 
L 127.691419 560.41737 
L 129.819836 560.41737 
L 129.819836 546.97671 
L 130.351941 546.97671 
L 130.351941 545.184622 
L 131.416149 545.184622 
L 131.416149 540.704402 
L 131.948253 540.704402 
L 131.948253 539.808359 
L 133.012462 539.808359 
L 133.012462 538.912315 
L 133.544566 538.912315 
L 133.544566 536.224183 
L 135.140879 536.224183 
L 135.140879 534.432095 
L 135.672983 534.432095 
L 135.672983 532.640007 
L 136.737192 532.640007 
L 136.737192 529.951875 
L 137.269296 529.951875 
L 137.269296 526.367699 
L 138.333504 526.367699 
L 138.333504 525.471655 
L 139.929817 525.471655 
L 139.929817 522.783523 
L 140.461921 522.783523 
L 140.461921 519.199348 
L 141.52613 519.199348 
L 141.52613 514.719128 
L 142.058234 514.719128 
L 142.058234 512.92704 
L 142.590339 512.92704 
L 142.590339 512.030996 
L 143.122443 512.030996 
L 143.122443 509.342864 
L 146.847173 509.342864 
L 146.847173 508.44682 
L 147.379277 508.44682 
L 147.379277 507.550776 
L 147.911381 507.550776 
L 147.911381 504.862644 
L 150.039798 504.862644 
L 150.039798 503.9666 
L 151.104007 503.9666 
L 151.104007 503.070556 
L 152.168215 503.070556 
L 152.168215 502.174512 
L 153.232424 502.174512 
L 153.232424 500.382424 
L 153.764528 500.382424 
L 153.764528 497.694293 
L 154.296632 497.694293 
L 154.296632 496.798249 
L 155.892945 496.798249 
L 155.892945 495.902205 
L 156.425049 495.902205 
L 156.425049 495.006161 
L 156.957154 495.006161 
L 156.957154 492.318029 
L 157.489258 492.318029 
L 157.489258 491.421985 
L 158.553466 491.421985 
L 158.553466 490.525941 
L 159.617675 490.525941 
L 159.617675 489.629897 
L 160.149779 489.629897 
L 160.149779 488.733853 
L 161.213988 488.733853 
L 161.213988 487.837809 
L 162.8103 487.837809 
L 162.8103 485.149677 
L 163.342405 485.149677 
L 163.342405 481.565501 
L 164.938717 481.565501 
L 164.938717 479.773413 
L 165.470822 479.773413 
L 165.470822 476.189238 
L 166.002926 476.189238 
L 166.002926 473.501106 
L 168.663447 473.501106 
L 168.663447 470.812974 
L 169.195551 470.812974 
L 169.195551 469.020886 
L 169.727656 469.020886 
L 169.727656 468.124842 
L 170.25976 468.124842 
L 170.25976 463.644622 
L 171.323969 463.644622 
L 171.323969 462.748578 
L 172.920281 462.748578 
L 172.920281 448.411875 
L 173.452386 448.411875 
L 173.452386 447.515831 
L 174.516594 447.515831 
L 174.516594 445.723743 
L 175.580803 445.723743 
L 175.580803 444.827699 
L 176.112907 444.827699 
L 176.112907 443.931655 
L 176.645011 443.931655 
L 176.645011 443.035611 
L 178.773428 443.035611 
L 178.773428 442.139567 
L 179.305532 442.139567 
L 179.305532 434.075172 
L 179.837637 434.075172 
L 179.837637 432.283084 
L 180.369741 432.283084 
L 180.369741 426.90682 
L 180.901845 426.90682 
L 180.901845 425.114732 
L 181.433949 425.114732 
L 181.433949 418.842424 
L 182.498158 418.842424 
L 182.498158 417.050337 
L 183.030262 417.050337 
L 183.030262 414.362205 
L 183.562366 414.362205 
L 183.562366 412.570117 
L 184.094471 412.570117 
L 184.094471 408.985941 
L 184.626575 408.985941 
L 184.626575 404.505721 
L 186.222888 404.505721 
L 186.222888 402.713633 
L 187.287096 402.713633 
L 187.287096 401.817589 
L 187.819201 401.817589 
L 187.819201 400.921545 
L 188.883409 400.921545 
L 188.883409 395.545282 
L 190.479722 395.545282 
L 196.864973 387.480886 
L 196.864973 386.584842 
L 197.929182 386.584842 
L 197.929182 381.208578 
L 198.461286 381.208578 
L 198.461286 380.312534 
L 200.057599 380.312534 
L 200.057599 379.41649 
L 203.250224 379.41649 
L 203.250224 377.624402 
L 204.314433 377.624402 
L 204.314433 376.728359 
L 206.44285 376.728359 
L 206.44285 374.936271 
L 207.507058 374.936271 
L 207.507058 374.040227 
L 208.571267 374.040227 
L 208.571267 372.248139 
L 209.103371 372.248139 
L 209.103371 371.352095 
L 209.635475 371.352095 
L 209.635475 369.560007 
L 210.167579 369.560007 
L 210.167579 368.663963 
L 210.699684 368.663963 
L 210.699684 361.495611 
L 211.231788 361.495611 
L 211.231788 360.599567 
L 211.763892 360.599567 
L 211.763892 358.807479 
L 213.892309 358.807479 
L 213.892309 357.911435 
L 214.424414 357.911435 
L 214.424414 355.223304 
L 215.488622 355.223304 
L 215.488622 354.32726 
L 216.020726 354.32726 
L 216.020726 352.535172 
L 217.084935 352.535172 
L 217.084935 350.743084 
L 219.213352 350.743084 
L 219.213352 348.950996 
L 221.341769 348.950996 
L 221.341769 346.262864 
L 221.873873 346.262864 
L 221.873873 345.36682 
L 222.405977 345.36682 
L 222.405977 343.574732 
L 222.938082 343.574732 
L 222.938082 340.8866 
L 223.470186 340.8866 
L 223.470186 338.198468 
L 224.00229 338.198468 
L 224.00229 333.718249 
L 225.066499 333.718249 
L 225.066499 329.238029 
L 225.598603 329.238029 
L 225.598603 327.445941 
L 226.130707 327.445941 
L 226.130707 324.757809 
L 226.662812 324.757809 
L 226.662812 317.589457 
L 227.194916 317.589457 
L 227.194916 314.005282 
L 227.72702 314.005282 
L 227.72702 312.213194 
L 228.259124 312.213194 
L 228.259124 311.31715 
L 228.791229 311.31715 
L 228.791229 310.421106 
L 230.387541 310.421106 
L 230.387541 309.525062 
L 231.983854 309.525062 
L 231.983854 308.629018 
L 232.515958 308.629018 
L 232.515958 305.940886 
L 233.580167 305.940886 
L 233.580167 301.460666 
L 234.112271 301.460666 
L 234.112271 300.564622 
L 234.644375 300.564622 
L 234.644375 299.668578 
L 235.17648 299.668578 
L 235.17648 298.772534 
L 236.240688 298.772534 
L 236.240688 297.87649 
L 237.837001 297.87649 
L 237.837001 296.980446 
L 238.369105 296.980446 
L 238.369105 294.292315 
L 238.901209 294.292315 
L 238.901209 292.500227 
L 239.433314 292.500227 
L 239.433314 291.604183 
L 240.497522 291.604183 
L 240.497522 288.916051 
L 242.625939 288.916051 
L 242.625939 288.020007 
L 243.158044 288.020007 
L 243.158044 286.227919 
L 244.222252 286.227919 
L 244.222252 282.643743 
L 245.286461 282.643743 
L 245.286461 280.851655 
L 245.818565 280.851655 
L 245.818565 279.059567 
L 247.414878 279.059567 
L 247.414878 278.163523 
L 249.01119 278.163523 
L 249.01119 276.371435 
L 250.607503 276.371435 
L 250.607503 274.579348 
L 252.73592 274.579348 
L 252.73592 271.891216 
L 253.800129 271.891216 
L 253.800129 270.995172 
L 254.332233 270.995172 
L 254.332233 270.099128 
L 255.396442 270.099128 
L 255.396442 269.203084 
L 258.056963 269.203084 
L 258.056963 268.30704 
L 259.653276 268.30704 
L 259.653276 267.410996 
L 260.18538 267.410996 
L 260.18538 266.514952 
L 260.717484 266.514952 
L 260.717484 265.618908 
L 261.249588 265.618908 
L 261.249588 264.722864 
L 263.378005 264.722864 
L 263.378005 262.930776 
L 264.442214 262.930776 
L 264.442214 262.034732 
L 264.974318 262.034732 
L 264.974318 260.242644 
L 267.102735 260.242644 
L 267.102735 259.3466 
L 271.891674 259.3466 
L 271.891674 258.450556 
L 274.020091 258.450556 
L 274.020091 257.554512 
L 275.616403 257.554512 
L 275.616403 254.86638 
L 277.212716 254.86638 
L 277.212716 253.970337 
L 278.809029 253.970337 
L 278.809029 253.074293 
L 279.341133 253.074293 
L 279.341133 251.282205 
L 282.001654 251.282205 
L 282.001654 247.698029 
L 285.19428 247.698029 
L 285.19428 246.801985 
L 286.258489 246.801985 
L 286.258489 245.009897 
L 287.322697 245.009897 
L 287.322697 244.113853 
L 288.91901 244.113853 
L 288.91901 243.217809 
L 291.579531 243.217809 
L 291.579531 242.321765 
L 294.240052 242.321765 
L 294.240052 241.425721 
L 296.368469 241.425721 
L 296.368469 239.633633 
L 297.432678 239.633633 
L 297.432678 238.737589 
L 299.028991 238.737589 
L 299.028991 237.841545 
L 301.157408 237.841545 
L 301.157408 236.049457 
L 302.221616 236.049457 
L 302.221616 235.153413 
L 302.753721 235.153413 
L 302.753721 234.25737 
L 303.817929 234.25737 
L 303.817929 232.465282 
L 304.882138 232.465282 
L 304.882138 230.673194 
L 305.946346 230.673194 
L 305.946346 229.77715 
L 306.47845 229.77715 
L 306.47845 228.881106 
L 307.010555 228.881106 
L 307.010555 227.985062 
L 307.542659 227.985062 
L 307.542659 227.089018 
L 309.671076 227.089018 
L 309.671076 224.400886 
L 310.735284 224.400886 
L 310.735284 223.504842 
L 315.524223 223.504842 
L 315.524223 221.712754 
L 317.120536 221.712754 
L 317.120536 219.920666 
L 317.65264 219.920666 
L 317.65264 218.128578 
L 318.184744 218.128578 
L 318.184744 215.440446 
L 319.781057 215.440446 
L 319.781057 214.544402 
L 320.313161 214.544402 
L 320.313161 213.648359 
L 321.37737 213.648359 
L 321.37737 211.856271 
L 321.909474 211.856271 
L 321.909474 210.960227 
L 323.505787 210.960227 
L 323.505787 210.064183 
L 326.698412 210.064183 
L 326.698412 208.272095 
L 327.230517 208.272095 
L 327.230517 207.376051 
L 330.423142 207.376051 
L 330.423142 206.480007 
L 330.955246 206.480007 
L 330.955246 205.583963 
L 331.487351 205.583963 
L 331.487351 204.687919 
L 332.551559 204.687919 
L 332.551559 203.791875 
L 333.615768 203.791875 
L 333.615768 202.895831 
L 334.679976 202.895831 
L 334.679976 201.103743 
L 335.21208 201.103743 
L 335.21208 200.207699 
L 335.744185 200.207699 
L 335.744185 198.415611 
L 336.808393 198.415611 
L 336.808393 197.519567 
L 337.340497 197.519567 
L 337.340497 196.623523 
L 344.789957 196.623523 
L 344.789957 195.727479 
L 345.322061 195.727479 
L 345.322061 194.831435 
L 346.38627 194.831435 
L 346.38627 193.935391 
L 347.450478 193.935391 
L 347.450478 191.24726 
L 347.982583 191.24726 
L 347.982583 188.559128 
L 350.111 188.559128 
L 350.111 187.663084 
L 354.899938 187.663084 
L 354.899938 185.870996 
L 355.432042 185.870996 
L 355.432042 184.974952 
L 358.624668 184.974952 
L 358.624668 183.182864 
L 365.009919 183.182864 
L 365.009919 182.28682 
L 366.606232 182.28682 
L 366.606232 181.390776 
L 374.055691 181.390776 
L 374.055691 179.598688 
L 376.716213 179.598688 
L 376.716213 178.702644 
L 383.633568 178.702644 
L 383.633568 177.8066 
L 388.954611 177.8066 
L 388.954611 176.910556 
L 392.147236 176.910556 
L 392.147236 176.014512 
L 392.67934 176.014512 
L 392.67934 175.118468 
L 396.40407 175.118468 
L 396.40407 174.222424 
L 402.257217 174.222424 
L 402.257217 173.32638 
L 402.789321 173.32638 
L 402.789321 172.430337 
L 404.385634 172.430337 
L 404.385634 170.638249 
L 409.174572 170.638249 
L 409.174572 168.846161 
L 412.899302 168.846161 
L 412.899302 167.950117 
L 416.624032 167.950117 
L 416.624032 167.054073 
L 417.688241 167.054073 
L 417.688241 165.261985 
L 420.880866 165.261985 
L 420.880866 163.469897 
L 421.945075 163.469897 
L 421.945075 162.573853 
L 422.477179 162.573853 
L 422.477179 161.677809 
L 423.009283 161.677809 
L 423.009283 160.781765 
L 429.394534 160.781765 
L 429.394534 159.885721 
L 432.055056 159.885721 
L 432.055056 158.989677 
L 436.843994 158.989677 
L 436.843994 158.093633 
L 439.504515 158.093633 
L 439.504515 157.197589 
L 442.165037 157.197589 
L 442.165037 156.301545 
L 443.761349 156.301545 
L 443.761349 153.613413 
L 445.357662 153.613413 
L 445.357662 152.71737 
L 451.742913 152.71737 
L 451.742913 151.821326 
L 453.87133 151.821326 
L 453.87133 150.925282 
L 461.32079 150.925282 
L 461.32079 150.029238 
L 462.384998 150.029238 
L 462.384998 148.23715 
L 463.449207 148.23715 
L 463.449207 147.341106 
L 467.706041 147.341106 
L 467.706041 146.445062 
L 469.834458 146.445062 
L 469.834458 145.549018 
L 473.027084 145.549018 
L 473.027084 143.75693 
L 477.816022 143.75693 
L 477.816022 142.860886 
L 479.412335 142.860886 
L 479.412335 140.172754 
L 482.60496 140.172754 
L 482.60496 139.27671 
L 483.137065 139.27671 
L 483.137065 138.380666 
L 483.669169 138.380666 
L 483.669169 137.484622 
L 484.201273 137.484622 
L 484.201273 136.588578 
L 487.393899 136.588578 
L 487.393899 135.692534 
L 492.182837 135.692534 
L 492.182837 134.79649 
L 502.292818 134.79649 
L 502.292818 133.900446 
L 502.824922 133.900446 
L 502.824922 131.212315 
L 504.953339 131.212315 
L 504.953339 130.316271 
L 505.485443 130.316271 
L 505.485443 129.420227 
L 507.61386 129.420227 
L 507.61386 128.524183 
L 516.127529 128.524183 
L 516.127529 127.628139 
L 519.852258 127.628139 
L 519.852258 126.732095 
L 523.576988 126.732095 
L 523.576988 125.836051 
L 528.898031 125.836051 
L 528.898031 124.940007 
L 531.558552 124.940007 
L 531.558552 124.043963 
L 533.154865 124.043963 
L 533.154865 123.147919 
L 533.686969 123.147919 
L 533.686969 122.251875 
L 535.283282 122.251875 
L 535.283282 121.355831 
L 536.34749 121.355831 
L 536.34749 120.459787 
L 542.200637 120.459787 
L 542.200637 119.563743 
L 543.79695 119.563743 
L 543.79695 118.667699 
L 546.989576 118.667699 
L 546.989576 116.875611 
L 550.182201 116.875611 
L 550.182201 115.979567 
L 552.842723 115.979567 
L 552.842723 115.083523 
L 557.099557 115.083523 
L 557.099557 114.187479 
L 557.631661 114.187479 
L 557.631661 113.291435 
L 568.273746 113.291435 
L 568.273746 111.499348 
L 570.934267 111.499348 
L 570.934267 110.603304 
L 572.53058 110.603304 
L 572.53058 109.70726 
L 574.126893 109.70726 
L 574.126893 107.915172 
L 575.191101 107.915172 
L 575.191101 107.019128 
L 582.108457 107.019128 
L 582.108457 106.123084 
L 586.897395 106.123084 
L 586.897395 105.22704 
L 598.071585 105.22704 
L 598.071585 104.330996 
L 598.603689 104.330996 
L 598.603689 103.434952 
L 603.924731 103.434952 
L 603.924731 102.538908 
L 608.181565 102.538908 
L 608.181565 101.642864 
L 610.309983 101.642864 
L 610.309983 100.74682 
L 612.4384 100.74682 
L 612.4384 99.850776 
L 623.080485 99.850776 
L 623.080485 98.058688 
L 626.805215 98.058688 
L 626.805215 97.162644 
L 627.337319 97.162644 
L 627.337319 96.2666 
L 631.062049 96.2666 
L 631.062049 95.370556 
L 632.126257 95.370556 
L 632.126257 94.474512 
L 637.4473 94.474512 
L 637.4473 93.578468 
L 642.768342 93.578468 
L 642.768342 92.682424 
L 645.428864 92.682424 
L 645.428864 91.78638 
L 648.089385 91.78638 
L 648.089385 90.890337 
L 653.942532 90.890337 
L 653.942532 89.994293 
L 660.327783 89.994293 
L 660.327783 89.098249 
L 661.924096 89.098249 
L 661.924096 88.202205 
L 662.988304 88.202205 
L 662.988304 87.306161 
L 663.520408 87.306161 
L 663.520408 85.514073 
L 669.373555 85.514073 
L 669.373555 84.618029 
L 670.969868 84.618029 
L 670.969868 83.721985 
L 673.098285 83.721985 
L 673.098285 82.825941 
L 673.630389 82.825941 
L 673.630389 81.929897 
L 676.823015 81.929897 
L 676.823015 81.033853 
L 683.208266 81.033853 
L 683.208266 80.137809 
L 691.18983 80.137809 
L 691.18983 79.241765 
L 695.446664 79.241765 
L 695.446664 78.345721 
L 695.978768 78.345721 
L 695.978768 77.449677 
L 698.63929 77.449677 
L 698.63929 75.657589 
L 701.299811 75.657589 
L 701.299811 74.761545 
L 704.492436 74.761545 
L 704.492436 73.865501 
L 707.152958 73.865501 
L 707.152958 72.969457 
L 708.749271 72.969457 
L 708.749271 72.073413 
L 710.345583 72.073413 
L 710.345583 71.17737 
L 711.409792 71.17737 
L 711.409792 70.281326 
L 720.455564 70.281326 
L 720.455564 68.489238 
L 725.244503 68.489238 
L 725.244503 67.593194 
L 725.776607 67.593194 
L 725.776607 65.801106 
L 727.905024 65.801106 
L 727.905024 64.905062 
L 733.226066 64.905062 
L 733.226066 63.112974 
L 735.354483 63.112974 
L 735.354483 62.21693 
L 739.079213 62.21693 
L 739.079213 61.320886 
L 741.739735 61.320886 
L 741.739735 60.424842 
L 757.702862 60.424842 
L 757.702862 59.528798 
L 782.179658 59.528798 
L 782.179658 58.632754 
L 784.308075 58.632754 
L 784.308075 57.73671 
L 790.693326 57.73671 
L 790.693326 56.840666 
L 796.014369 56.840666 
L 796.014369 55.944622 
L 808.784871 55.944622 
L 808.784871 55.048578 
L 810.913288 55.048578 
L 810.913288 54.152534 
L 811.445393 54.152534 
L 811.445393 53.25649 
L 811.977497 53.25649 
L 811.977497 52.360446 
L 815.702227 52.360446 
L 815.702227 51.464402 
L 830.069042 51.464402 
L 830.069042 50.568359 
L 852.949525 50.568359 
L 852.949525 49.672315 
L 859.334776 49.672315 
L 859.334776 48.776271 
L 864.655818 48.776271 
L 864.655818 47.880227 
L 871.04107 47.880227 
L 871.04107 46.984183 
L 886.472093 46.984183 
L 886.472093 46.088139 
L 906.692055 46.088139 
L 906.692055 45.192095 
L 910.416785 45.192095 
L 910.416785 44.296051 
L 911.480993 44.296051 
L 911.480993 43.400007 
L 931.700955 43.400007 
L 931.700955 41.607919 
L 948.196187 41.607919 
L 948.196187 40.711875 
L 949.7925 40.711875 
L 949.7925 40.711875 
" clip-path="url(#p185dc254e1)" style="fill: none; stroke: #440154; stroke-width: 7; stroke-linecap: round"/>
   </g>
   <g id="line2d_2">
    <path d="M 112.7925 856.111875 
L 112.7925 693.927919 
L 113.324604 638.373194 
L 113.856709 587.298688 
L 113.856709 546.080666 
L 113.856709 514.719128 
L 113.856709 493.214073 
L 113.856709 476.189238 
L 113.856709 460.95649 
L 113.856709 435.86726 
L 113.856709 411.674073 
L 113.856709 400.025501 
L 114.388813 388.37693 
L 114.920917 378.520446 
L 114.920917 369.560007 
L 115.985126 357.911435 
L 116.51723 348.054952 
L 118.113543 339.990556 
L 119.709855 330.134073 
L 120.24196 324.757809 
L 120.24196 316.693413 
L 120.24196 313.109238 
L 121.306168 301.460666 
L 121.306168 288.916051 
L 121.838272 280.851655 
L 121.838272 275.475391 
L 122.370377 270.099128 
L 122.902481 263.82682 
L 123.434585 260.242644 
L 123.434585 259.3466 
L 123.966689 251.282205 
L 125.030898 248.594073 
L 125.563002 245.905941 
L 126.627211 245.009897 
L 126.627211 240.529677 
L 127.159315 234.25737 
L 128.223524 228.881106 
L 128.223524 226.192974 
L 128.755628 221.712754 
L 129.819836 217.232534 
L 130.884045 210.064183 
L 132.480358 207.376051 
L 134.07667 203.791875 
L 135.140879 198.415611 
L 136.737192 193.935391 
L 137.8014 191.24726 
L 138.865609 189.455172 
L 139.929817 186.76704 
L 142.590339 185.870996 
L 145.25086 180.494732 
L 146.847173 176.910556 
L 147.911381 171.534293 
L 151.104007 162.573853 
L 152.700319 159.885721 
L 153.232424 158.093633 
L 153.232424 153.613413 
L 154.828736 148.23715 
L 156.957154 146.445062 
L 160.681883 145.549018 
L 163.342405 138.380666 
L 166.53503 133.900446 
L 170.25976 129.420227 
L 172.920281 126.732095 
L 175.048698 125.836051 
L 178.773428 121.355831 
L 183.030262 115.979567 
L 186.754992 115.979567 
L 190.479722 113.291435 
L 192.076035 110.603304 
L 196.332869 107.019128 
L 201.653911 104.330996 
L 208.039162 102.538908 
L 212.828101 101.642864 
L 216.552831 99.850776 
L 218.681248 98.058688 
L 223.470186 96.2666 
L 230.919646 92.682424 
L 234.644375 88.202205 
L 240.497522 85.514073 
L 247.946982 81.033853 
L 256.46065 80.137809 
L 262.845901 79.241765 
L 274.552195 77.449677 
L 280.937446 74.761545 
L 293.707948 70.281326 
L 302.221616 70.281326 
L 315.524223 66.69715 
L 326.166308 64.905062 
L 340.533123 61.320886 
L 353.303625 59.528798 
L 366.606232 58.632754 
L 380.973047 55.944622 
L 400.1288 51.464402 
L 425.1377 51.464402 
L 460.256581 48.776271 
L 494.311254 46.984183 
L 530.494344 46.088139 
L 573.062684 46.088139 
L 633.72257 43.400007 
L 730.033441 42.503963 
L 949.7925 40.711875 
" clip-path="url(#p185dc254e1)" style="fill: none; stroke: #fde725; stroke-width: 7; stroke-linecap: round"/>
   </g>
   <g id="PathCollection_1">
    <defs>
     <path id="ma30f0b559a" d="M 0 11.18034 
C 2.965061 11.18034 5.80908 10.002309 7.905694 7.905694 
C 10.002309 5.80908 11.18034 2.965061 11.18034 0 
C 11.18034 -2.965061 10.002309 -5.80908 7.905694 -7.905694 
C 5.80908 -10.002309 2.965061 -11.18034 0 -11.18034 
C -2.965061 -11.18034 -5.80908 -10.002309 -7.905694 -7.905694 
C -10.002309 -5.80908 -11.18034 -2.965061 -11.18034 0 
C -11.18034 2.965061 -10.002309 5.80908 -7.905694 7.905694 
C -5.80908 10.002309 -2.965061 11.18034 0 11.18034 
z
" style="stroke: #1a1a1a"/>
    </defs>
    <g clip-path="url(#p185dc254e1)">
     <use xlink:href="#ma30f0b559a" x="146.847173" y="176.910556" style="fill: #1a1a1a; stroke: #1a1a1a"/>
    </g>
   </g>
   <g id="line2d_3">
    <path d="M 112.7925 856.111875 
L 112.7925 810.413633 
L 113.324604 810.413633 
L 113.324604 799.661106 
L 113.856709 799.661106 
L 113.856709 767.403523 
L 114.388813 767.403523 
L 114.388813 762.02726 
L 114.920917 762.02726 
L 114.920917 760.235172 
L 115.985126 760.235172 
L 115.985126 734.249897 
L 116.51723 734.249897 
L 116.51723 726.185501 
L 117.049334 726.185501 
L 117.049334 717.225062 
L 117.581438 717.225062 
L 117.581438 715.432974 
L 118.645647 715.432974 
L 118.645647 710.05671 
L 119.177751 710.05671 
L 119.177751 701.096271 
L 119.709855 701.096271 
L 119.709855 699.304183 
L 120.24196 699.304183 
L 120.24196 691.239787 
L 120.774064 691.239787 
L 120.774064 688.551655 
L 121.306168 688.551655 
L 121.306168 687.655611 
L 121.838272 687.655611 
L 121.838272 676.00704 
L 122.370377 676.00704 
L 122.370377 675.110996 
L 122.902481 675.110996 
L 122.902481 671.52682 
L 123.434585 671.52682 
L 123.434585 667.942644 
L 123.966689 667.942644 
L 123.966689 666.150556 
L 125.030898 666.150556 
L 125.030898 661.670337 
L 126.627211 661.670337 
L 126.627211 658.982205 
L 127.691419 658.982205 
L 127.691419 658.086161 
L 128.223524 658.086161 
L 128.223524 649.125721 
L 128.755628 649.125721 
L 128.755628 646.437589 
L 129.819836 646.437589 
L 129.819836 641.061326 
L 130.351941 641.061326 
L 130.351941 636.581106 
L 131.416149 636.581106 
L 131.416149 635.685062 
L 131.948253 635.685062 
L 131.948253 634.789018 
L 132.480358 634.789018 
L 132.480358 633.892974 
L 133.012462 633.892974 
L 133.012462 632.100886 
L 133.544566 632.100886 
L 133.544566 631.204842 
L 134.07667 631.204842 
L 134.07667 629.412754 
L 134.608775 629.412754 
L 134.608775 625.828578 
L 135.140879 625.828578 
L 135.140879 624.03649 
L 135.672983 624.03649 
L 135.672983 621.348359 
L 136.205087 621.348359 
L 136.205087 619.556271 
L 136.737192 619.556271 
L 136.737192 611.491875 
L 137.269296 611.491875 
L 137.269296 606.115611 
L 137.8014 606.115611 
L 137.8014 603.427479 
L 139.929817 603.427479 
L 139.929817 601.635391 
L 140.461921 601.635391 
L 140.461921 599.843304 
L 140.994026 599.843304 
L 140.994026 595.363084 
L 142.590339 595.363084 
L 142.590339 589.090776 
L 143.122443 589.090776 
L 143.122443 586.402644 
L 143.654547 586.402644 
L 143.654547 583.714512 
L 144.186651 583.714512 
L 144.186651 579.234293 
L 144.718756 579.234293 
L 144.718756 578.338249 
L 145.25086 578.338249 
L 145.25086 576.546161 
L 146.847173 576.546161 
L 146.847173 575.650117 
L 150.039798 575.650117 
L 150.039798 574.754073 
L 150.571902 574.754073 
L 150.571902 572.961985 
L 151.636111 572.961985 
L 151.636111 569.377809 
L 153.764528 569.377809 
L 153.764528 567.585721 
L 154.296632 567.585721 
L 154.296632 564.897589 
L 154.828736 564.897589 
L 154.828736 564.001545 
L 155.360841 564.001545 
L 155.360841 562.209457 
L 155.892945 562.209457 
L 155.892945 561.313413 
L 156.425049 561.313413 
L 156.425049 559.521326 
L 156.957154 559.521326 
L 156.957154 557.729238 
L 158.021362 557.729238 
L 158.021362 556.833194 
L 159.085571 556.833194 
L 159.085571 555.93715 
L 159.617675 555.93715 
L 159.617675 554.145062 
L 160.149779 554.145062 
L 160.149779 552.352974 
L 161.213988 552.352974 
L 161.213988 551.45693 
L 161.746092 551.45693 
L 161.746092 550.560886 
L 162.278196 550.560886 
L 162.278196 549.664842 
L 162.8103 549.664842 
L 162.8103 548.768798 
L 163.342405 548.768798 
L 163.342405 547.872754 
L 164.406613 547.872754 
L 164.406613 546.97671 
L 165.470822 546.97671 
L 165.470822 544.288578 
L 166.53503 544.288578 
L 166.53503 543.392534 
L 167.599239 543.392534 
L 167.599239 542.49649 
L 168.131343 542.49649 
L 168.131343 540.704402 
L 169.195551 540.704402 
L 169.195551 539.808359 
L 169.727656 539.808359 
L 169.727656 537.120227 
L 170.791864 537.120227 
L 170.791864 535.328139 
L 171.323969 535.328139 
L 171.323969 534.432095 
L 172.920281 534.432095 
L 172.920281 533.536051 
L 173.452386 533.536051 
L 173.452386 529.951875 
L 175.048698 529.951875 
L 175.048698 527.263743 
L 175.580803 527.263743 
L 175.580803 526.367699 
L 176.645011 526.367699 
L 176.645011 524.575611 
L 179.305532 524.575611 
L 179.305532 523.679567 
L 179.837637 523.679567 
L 179.837637 520.095391 
L 181.966054 520.095391 
L 181.966054 516.511216 
L 184.626575 516.511216 
L 184.626575 511.134952 
L 185.158679 511.134952 
L 185.158679 509.342864 
L 188.351305 509.342864 
L 188.351305 503.9666 
L 188.883409 503.9666 
L 188.883409 503.070556 
L 189.947618 503.070556 
L 189.947618 502.174512 
L 190.479722 502.174512 
L 190.479722 500.382424 
L 193.140243 500.382424 
L 193.140243 499.48638 
L 193.672347 499.48638 
L 193.672347 496.798249 
L 194.204452 496.798249 
L 194.204452 495.006161 
L 195.26866 495.006161 
L 195.26866 493.214073 
L 195.800764 493.214073 
L 195.800764 491.421985 
L 196.864973 491.421985 
L 196.864973 489.629897 
L 197.397077 489.629897 
L 197.397077 488.733853 
L 199.525494 488.733853 
L 199.525494 486.941765 
L 200.589703 486.941765 
L 200.589703 485.149677 
L 202.71812 485.149677 
L 202.71812 484.253633 
L 203.250224 484.253633 
L 203.250224 483.357589 
L 206.44285 483.357589 
L 206.44285 481.565501 
L 206.974954 481.565501 
L 206.974954 479.773413 
L 209.103371 479.773413 
L 209.103371 477.981326 
L 209.635475 477.981326 
L 209.635475 476.189238 
L 210.699684 476.189238 
L 210.699684 475.293194 
L 212.828101 475.293194 
L 212.828101 473.501106 
L 213.892309 473.501106 
L 213.892309 471.709018 
L 217.084935 471.709018 
L 217.084935 469.91693 
L 218.149143 469.91693 
L 218.149143 468.124842 
L 219.745456 468.124842 
L 219.745456 467.228798 
L 220.27756 467.228798 
L 220.27756 466.332754 
L 221.873873 466.332754 
L 221.873873 465.43671 
L 225.066499 465.43671 
L 225.066499 464.540666 
L 226.130707 464.540666 
L 226.130707 462.748578 
L 227.72702 462.748578 
L 227.72702 461.852534 
L 228.259124 461.852534 
L 228.259124 459.164402 
L 229.323333 459.164402 
L 229.323333 455.580227 
L 229.855437 455.580227 
L 229.855437 451.996051 
L 230.387541 451.996051 
L 230.387541 450.203963 
L 230.919646 450.203963 
L 230.919646 449.307919 
L 231.45175 449.307919 
L 231.45175 447.515831 
L 232.515958 447.515831 
L 232.515958 445.723743 
L 233.580167 445.723743 
L 233.580167 443.035611 
L 234.644375 443.035611 
L 234.644375 442.139567 
L 236.772792 442.139567 
L 236.772792 440.347479 
L 237.304897 440.347479 
L 237.304897 437.659348 
L 238.901209 437.659348 
L 238.901209 434.075172 
L 239.965418 434.075172 
L 239.965418 431.38704 
L 241.029627 431.38704 
L 241.029627 429.594952 
L 242.093835 429.594952 
L 242.093835 426.90682 
L 243.158044 426.90682 
L 243.158044 426.010776 
L 243.690148 426.010776 
L 243.690148 424.218688 
L 245.818565 424.218688 
L 245.818565 423.322644 
L 246.350669 423.322644 
L 246.350669 416.154293 
L 246.882773 416.154293 
L 246.882773 415.258249 
L 247.946982 415.258249 
L 247.946982 414.362205 
L 248.479086 414.362205 
L 248.479086 413.466161 
L 249.543295 413.466161 
L 249.543295 410.778029 
L 250.075399 410.778029 
L 250.075399 408.985941 
L 251.671712 408.985941 
L 251.671712 408.089897 
L 253.268024 408.089897 
L 253.268024 407.193853 
L 253.800129 407.193853 
L 253.800129 405.401765 
L 254.332233 405.401765 
L 254.332233 403.609677 
L 256.992754 403.609677 
L 256.992754 401.817589 
L 259.121171 401.817589 
L 259.121171 400.921545 
L 259.653276 400.921545 
L 259.653276 400.025501 
L 260.18538 400.025501 
L 260.18538 398.233413 
L 261.781693 398.233413 
L 261.781693 394.649238 
L 262.845901 394.649238 
L 262.845901 393.753194 
L 264.442214 393.753194 
L 264.442214 391.961106 
L 264.974318 391.961106 
L 264.974318 389.272974 
L 266.570631 389.272974 
L 266.570631 388.37693 
L 267.634839 388.37693 
L 267.634839 385.688798 
L 269.763257 385.688798 
L 269.763257 383.89671 
L 270.295361 383.89671 
L 270.295361 383.000666 
L 270.827465 383.000666 
L 270.827465 382.104622 
L 271.891674 382.104622 
L 271.891674 381.208578 
L 275.616403 381.208578 
L 275.616403 378.520446 
L 276.148508 378.520446 
L 276.148508 377.624402 
L 276.680612 377.624402 
L 276.680612 376.728359 
L 277.212716 376.728359 
L 277.212716 374.040227 
L 277.74482 374.040227 
L 277.74482 372.248139 
L 278.276925 372.248139 
L 278.276925 371.352095 
L 280.405342 371.352095 
L 280.405342 367.767919 
L 283.065863 367.767919 
L 283.065863 365.079787 
L 284.662176 365.079787 
L 284.662176 363.287699 
L 286.258489 363.287699 
L 286.258489 362.391655 
L 288.386906 362.391655 
L 288.386906 360.599567 
L 288.91901 360.599567 
L 288.91901 358.807479 
L 289.451114 358.807479 
L 289.451114 357.911435 
L 291.579531 357.911435 
L 291.579531 357.015391 
L 292.111635 357.015391 
L 292.111635 356.119348 
L 294.240052 356.119348 
L 294.240052 355.223304 
L 294.772157 355.223304 
L 294.772157 354.32726 
L 295.836365 354.32726 
L 295.836365 353.431216 
L 296.368469 353.431216 
L 296.368469 352.535172 
L 300.093199 352.535172 
L 300.093199 351.639128 
L 304.882138 351.639128 
L 304.882138 348.950996 
L 306.47845 348.950996 
L 306.47845 347.158908 
L 308.606867 347.158908 
L 308.606867 346.262864 
L 309.671076 346.262864 
L 309.671076 345.36682 
L 310.20318 345.36682 
L 310.20318 344.470776 
L 310.735284 344.470776 
L 310.735284 343.574732 
L 313.395806 343.574732 
L 313.395806 342.678688 
L 315.524223 342.678688 
L 315.524223 340.8866 
L 316.588431 340.8866 
L 316.588431 339.990556 
L 317.65264 339.990556 
L 317.65264 339.094512 
L 318.184744 339.094512 
L 318.184744 338.198468 
L 319.781057 338.198468 
L 319.781057 337.302424 
L 322.441578 337.302424 
L 322.441578 336.40638 
L 323.505787 336.40638 
L 323.505787 333.718249 
L 324.569995 333.718249 
L 324.569995 331.926161 
L 325.634204 331.926161 
L 325.634204 331.030117 
L 326.166308 331.030117 
L 326.166308 330.134073 
L 326.698412 330.134073 
L 326.698412 329.238029 
L 327.230517 329.238029 
L 327.230517 328.341985 
L 330.423142 328.341985 
L 330.423142 326.549897 
L 330.955246 326.549897 
L 330.955246 324.757809 
L 334.147872 324.757809 
L 334.147872 322.965721 
L 335.744185 322.965721 
L 335.744185 322.069677 
L 337.340497 322.069677 
L 337.340497 321.173633 
L 340.001019 321.173633 
L 340.001019 320.277589 
L 341.065227 320.277589 
L 341.065227 319.381545 
L 342.66154 319.381545 
L 342.66154 317.589457 
L 343.193644 317.589457 
L 343.193644 316.693413 
L 343.725749 316.693413 
L 343.725749 315.79737 
L 345.854166 315.79737 
L 345.854166 312.213194 
L 347.982583 312.213194 
L 347.982583 311.31715 
L 355.432042 311.31715 
L 355.432042 310.421106 
L 356.496251 310.421106 
L 356.496251 309.525062 
L 357.028355 309.525062 
L 357.028355 307.732974 
L 357.560459 307.732974 
L 357.560459 306.83693 
L 361.817293 306.83693 
L 361.817293 305.940886 
L 362.881502 305.940886 
L 362.881502 305.044842 
L 363.94571 305.044842 
L 363.94571 304.148798 
L 364.477815 304.148798 
L 364.477815 303.252754 
L 367.67044 303.252754 
L 367.67044 301.460666 
L 368.202545 301.460666 
L 368.202545 300.564622 
L 369.266753 300.564622 
L 369.266753 298.772534 
L 369.798857 298.772534 
L 369.798857 297.87649 
L 371.927274 297.87649 
L 371.927274 296.980446 
L 373.523587 296.980446 
L 373.523587 296.084402 
L 374.055691 296.084402 
L 374.055691 294.292315 
L 374.587796 294.292315 
L 374.587796 293.396271 
L 375.652004 293.396271 
L 375.652004 292.500227 
L 381.505151 292.500227 
L 381.505151 291.604183 
L 382.037255 291.604183 
L 382.037255 290.708139 
L 384.165672 290.708139 
L 384.165672 289.812095 
L 386.294089 289.812095 
L 386.294089 288.916051 
L 386.826194 288.916051 
L 386.826194 287.123963 
L 393.211445 287.123963 
L 393.211445 286.227919 
L 394.807757 286.227919 
L 394.807757 285.331875 
L 395.339862 285.331875 
L 395.339862 284.435831 
L 397.468279 284.435831 
L 397.468279 283.539787 
L 399.064592 283.539787 
L 399.064592 279.059567 
L 401.193009 279.059567 
L 401.193009 278.163523 
L 402.257217 278.163523 
L 402.257217 277.267479 
L 403.321426 277.267479 
L 403.321426 276.371435 
L 408.642468 276.371435 
L 408.642468 274.579348 
L 410.770885 274.579348 
L 410.770885 273.683304 
L 411.30299 273.683304 
L 411.30299 272.78726 
L 411.835094 272.78726 
L 411.835094 271.891216 
L 413.963511 271.891216 
L 413.963511 270.995172 
L 417.688241 270.995172 
L 417.688241 270.099128 
L 418.752449 270.099128 
L 418.752449 269.203084 
L 419.816658 269.203084 
L 419.816658 268.30704 
L 420.880866 268.30704 
L 420.880866 267.410996 
L 423.541387 267.410996 
L 423.541387 266.514952 
L 426.734013 266.514952 
L 426.734013 265.618908 
L 428.330326 265.618908 
L 428.330326 263.82682 
L 430.458743 263.82682 
L 430.458743 262.930776 
L 432.58716 262.930776 
L 432.58716 262.034732 
L 433.651368 262.034732 
L 433.651368 261.138688 
L 437.908202 261.138688 
L 437.908202 258.450556 
L 448.550288 258.450556 
L 448.550288 257.554512 
L 449.082392 257.554512 
L 449.082392 255.762424 
L 450.678705 255.762424 
L 450.678705 253.970337 
L 451.210809 253.970337 
L 451.210809 253.074293 
L 452.807122 253.074293 
L 452.807122 252.178249 
L 455.467643 252.178249 
L 455.467643 250.386161 
L 455.999747 250.386161 
L 455.999747 249.490117 
L 457.063956 249.490117 
L 457.063956 248.594073 
L 457.59606 248.594073 
L 457.59606 247.698029 
L 458.660269 247.698029 
L 458.660269 246.801985 
L 459.724477 246.801985 
L 459.724477 244.113853 
L 460.788686 244.113853 
L 460.788686 243.217809 
L 461.852894 243.217809 
L 461.852894 242.321765 
L 462.917103 242.321765 
L 462.917103 241.425721 
L 472.494979 241.425721 
L 472.494979 240.529677 
L 477.283918 240.529677 
L 477.283918 239.633633 
L 480.476543 239.633633 
L 480.476543 236.945501 
L 484.201273 236.945501 
L 484.201273 236.049457 
L 485.265482 236.049457 
L 485.265482 234.25737 
L 493.77915 234.25737 
L 493.77915 233.361326 
L 495.375462 233.361326 
L 495.375462 232.465282 
L 497.50388 232.465282 
L 497.50388 231.569238 
L 498.568088 231.569238 
L 498.568088 230.673194 
L 505.485443 230.673194 
L 505.485443 229.77715 
L 506.017548 229.77715 
L 506.017548 228.881106 
L 506.549652 228.881106 
L 506.549652 227.985062 
L 507.081756 227.985062 
L 507.081756 227.089018 
L 511.33859 227.089018 
L 511.33859 226.192974 
L 514.531216 226.192974 
L 514.531216 225.29693 
L 515.595424 225.29693 
L 515.595424 224.400886 
L 516.127529 224.400886 
L 516.127529 223.504842 
L 516.659633 223.504842 
L 516.659633 222.608798 
L 520.384363 222.608798 
L 520.384363 221.712754 
L 527.833822 221.712754 
L 527.833822 220.81671 
L 528.365927 220.81671 
L 528.365927 219.920666 
L 532.622761 219.920666 
L 532.622761 219.024622 
L 534.219073 219.024622 
L 534.219073 218.128578 
L 538.475908 218.128578 
L 538.475908 216.33649 
L 539.008012 216.33649 
L 539.008012 214.544402 
L 544.329054 214.544402 
L 544.329054 213.648359 
L 545.925367 213.648359 
L 545.925367 212.752315 
L 548.585888 212.752315 
L 548.585888 211.856271 
L 550.714305 211.856271 
L 550.714305 210.960227 
L 552.310618 210.960227 
L 552.310618 209.168139 
L 552.842723 209.168139 
L 552.842723 208.272095 
L 561.888495 208.272095 
L 561.888495 207.376051 
L 562.420599 207.376051 
L 562.420599 206.480007 
L 564.549016 206.480007 
L 564.549016 205.583963 
L 569.337955 205.583963 
L 569.337955 203.791875 
L 570.934267 203.791875 
L 570.934267 202.895831 
L 573.594789 202.895831 
L 573.594789 201.999787 
L 575.723206 201.999787 
L 575.723206 201.103743 
L 581.576353 201.103743 
L 581.576353 200.207699 
L 583.70477 200.207699 
L 583.70477 198.415611 
L 586.365291 198.415611 
L 586.365291 197.519567 
L 590.622125 197.519567 
L 590.622125 196.623523 
L 593.282646 196.623523 
L 593.282646 194.831435 
L 596.475272 194.831435 
L 596.475272 193.935391 
L 597.53948 193.935391 
L 597.53948 193.039348 
L 598.071585 193.039348 
L 598.071585 192.143304 
L 599.667897 192.143304 
L 599.667897 191.24726 
L 600.732106 191.24726 
L 600.732106 190.351216 
L 607.117357 190.351216 
L 607.117357 189.455172 
L 608.181565 189.455172 
L 608.181565 188.559128 
L 609.245774 188.559128 
L 609.245774 187.663084 
L 611.374191 187.663084 
L 611.374191 185.870996 
L 611.906295 185.870996 
L 611.906295 184.974952 
L 612.4384 184.974952 
L 612.4384 184.078908 
L 616.163129 184.078908 
L 616.163129 182.28682 
L 617.759442 182.28682 
L 617.759442 181.390776 
L 623.080485 181.390776 
L 623.080485 180.494732 
L 624.144693 180.494732 
L 624.144693 178.702644 
L 634.786778 178.702644 
L 634.786778 177.8066 
L 635.318883 177.8066 
L 635.318883 176.014512 
L 636.383091 176.014512 
L 636.383091 175.118468 
L 637.4473 175.118468 
L 637.4473 174.222424 
L 645.428864 174.222424 
L 645.428864 173.32638 
L 650.217802 173.32638 
L 650.217802 172.430337 
L 655.538845 172.430337 
L 655.538845 171.534293 
L 656.070949 171.534293 
L 656.070949 170.638249 
L 658.73147 170.638249 
L 658.73147 169.742205 
L 659.263574 169.742205 
L 659.263574 167.950117 
L 661.924096 167.950117 
L 661.924096 167.054073 
L 664.584617 167.054073 
L 664.584617 165.261985 
L 667.245138 165.261985 
L 667.245138 164.365941 
L 669.373555 164.365941 
L 669.373555 163.469897 
L 669.90566 163.469897 
L 669.90566 162.573853 
L 677.355119 162.573853 
L 677.355119 161.677809 
L 677.887223 161.677809 
L 677.887223 160.781765 
L 678.419328 160.781765 
L 678.419328 158.989677 
L 680.547745 158.989677 
L 680.547745 158.093633 
L 681.611953 158.093633 
L 681.611953 157.197589 
L 683.74037 157.197589 
L 683.74037 156.301545 
L 684.804579 156.301545 
L 684.804579 155.405501 
L 685.868787 155.405501 
L 685.868787 154.509457 
L 686.400892 154.509457 
L 686.400892 153.613413 
L 688.529309 153.613413 
L 688.529309 152.71737 
L 690.125621 152.71737 
L 690.125621 150.925282 
L 695.446664 150.925282 
L 695.446664 149.133194 
L 701.831915 149.133194 
L 701.831915 148.23715 
L 702.364019 148.23715 
L 702.364019 147.341106 
L 711.941896 147.341106 
L 711.941896 145.549018 
L 714.602417 145.549018 
L 714.602417 144.652974 
L 717.262939 144.652974 
L 717.262939 143.75693 
L 717.795043 143.75693 
L 717.795043 142.860886 
L 718.859251 142.860886 
L 718.859251 141.964842 
L 720.987668 141.964842 
L 720.987668 141.068798 
L 722.583981 141.068798 
L 722.583981 140.172754 
L 723.64819 140.172754 
L 723.64819 139.27671 
L 725.244503 139.27671 
L 725.244503 138.380666 
L 730.565545 138.380666 
L 730.565545 137.484622 
L 738.015005 137.484622 
L 738.015005 135.692534 
L 739.611318 135.692534 
L 739.611318 134.79649 
L 743.336047 134.79649 
L 743.336047 133.900446 
L 745.996569 133.900446 
L 745.996569 133.004402 
L 747.592881 133.004402 
L 747.592881 132.108359 
L 748.124986 132.108359 
L 748.124986 131.212315 
L 750.253403 131.212315 
L 750.253403 130.316271 
L 752.38182 130.316271 
L 752.38182 129.420227 
L 752.913924 129.420227 
L 752.913924 128.524183 
L 755.042341 128.524183 
L 755.042341 127.628139 
L 756.638654 127.628139 
L 756.638654 126.732095 
L 758.234967 126.732095 
L 758.234967 125.836051 
L 760.895488 125.836051 
L 760.895488 124.043963 
L 763.023905 124.043963 
L 763.023905 123.147919 
L 763.556009 123.147919 
L 763.556009 120.459787 
L 768.877052 120.459787 
L 768.877052 119.563743 
L 771.005469 119.563743 
L 771.005469 118.667699 
L 775.262303 118.667699 
L 775.262303 117.771655 
L 775.794407 117.771655 
L 775.794407 116.875611 
L 776.326511 116.875611 
L 776.326511 115.083523 
L 779.519137 115.083523 
L 779.519137 113.291435 
L 781.11545 113.291435 
L 781.11545 112.395391 
L 782.711763 112.395391 
L 782.711763 108.811216 
L 784.84018 108.811216 
L 784.84018 107.915172 
L 790.693326 107.915172 
L 790.693326 107.019128 
L 792.289639 107.019128 
L 792.289639 106.123084 
L 792.821743 106.123084 
L 792.821743 105.22704 
L 793.885952 105.22704 
L 793.885952 104.330996 
L 794.418056 104.330996 
L 794.418056 102.538908 
L 794.950161 102.538908 
L 794.950161 100.74682 
L 795.482265 100.74682 
L 795.482265 99.850776 
L 796.014369 99.850776 
L 796.014369 98.954732 
L 796.546473 98.954732 
L 796.546473 98.058688 
L 797.078578 98.058688 
L 797.078578 97.162644 
L 797.610682 97.162644 
L 797.610682 96.2666 
L 798.67489 96.2666 
L 798.67489 95.370556 
L 801.335412 95.370556 
L 801.335412 93.578468 
L 802.931724 93.578468 
L 802.931724 92.682424 
L 804.528037 92.682424 
L 804.528037 91.78638 
L 805.592246 91.78638 
L 805.592246 90.890337 
L 806.12435 90.890337 
L 806.12435 89.098249 
L 807.188558 89.098249 
L 807.188558 88.202205 
L 809.84908 88.202205 
L 809.84908 87.306161 
L 810.913288 87.306161 
L 810.913288 86.410117 
L 811.445393 86.410117 
L 811.445393 85.514073 
L 812.509601 85.514073 
L 812.509601 84.618029 
L 816.766435 84.618029 
L 816.766435 83.721985 
L 817.298539 83.721985 
L 817.298539 81.929897 
L 818.894852 81.929897 
L 818.894852 81.033853 
L 820.491165 81.033853 
L 820.491165 80.137809 
L 822.087478 80.137809 
L 822.087478 79.241765 
L 822.619582 79.241765 
L 822.619582 76.553633 
L 823.151686 76.553633 
L 823.151686 74.761545 
L 824.747999 74.761545 
L 824.747999 73.865501 
L 825.812208 73.865501 
L 825.812208 72.073413 
L 828.472729 72.073413 
L 828.472729 71.17737 
L 829.004833 71.17737 
L 829.004833 70.281326 
L 829.536937 70.281326 
L 829.536937 69.385282 
L 830.601146 69.385282 
L 830.601146 68.489238 
L 831.665354 68.489238 
L 831.665354 66.69715 
L 833.793771 66.69715 
L 833.793771 64.009018 
L 834.325876 64.009018 
L 834.325876 61.320886 
L 835.390084 61.320886 
L 835.390084 60.424842 
L 836.454293 60.424842 
L 836.454293 59.528798 
L 841.775335 59.528798 
L 841.775335 58.632754 
L 842.839544 58.632754 
L 842.839544 57.73671 
L 843.371648 57.73671 
L 843.371648 54.152534 
L 845.500065 54.152534 
L 845.500065 53.25649 
L 846.032169 53.25649 
L 846.032169 52.360446 
L 849.756899 52.360446 
L 849.756899 48.776271 
L 851.885316 48.776271 
L 851.885316 46.984183 
L 852.417421 46.984183 
L 852.417421 46.088139 
L 856.674255 46.088139 
L 856.674255 45.192095 
L 863.059506 45.192095 
L 863.059506 44.296051 
L 868.380548 44.296051 
L 868.380548 43.400007 
L 909.884681 43.400007 
L 909.884681 42.503963 
L 918.930453 42.503963 
L 918.930453 41.607919 
L 947.131979 41.607919 
L 947.131979 40.711875 
L 949.7925 40.711875 
L 949.7925 40.711875 
" clip-path="url(#p185dc254e1)" style="fill: none; stroke: #1f988b; stroke-width: 7; stroke-linecap: round"/>
   </g>
   <g id="PathCollection_2">
    <g clip-path="url(#p185dc254e1)">
     <use xlink:href="#ma30f0b559a" x="188.883409" y="503.070556" style="fill: #1a1a1a; stroke: #1a1a1a"/>
    </g>
   </g>
   <g id="PathCollection_3">
    <g clip-path="url(#p185dc254e1)">
     <use xlink:href="#ma30f0b559a" x="190.479722" y="395.545282" style="fill: #1a1a1a; stroke: #1a1a1a"/>
    </g>
   </g>
   <g id="patch_3">
    <path d="M 112.7925 856.111875 
L 112.7925 40.711875 
" style="fill: none; stroke: #262626; stroke-width: 1.25; stroke-linejoin: miter; stroke-linecap: square"/>
   </g>
   <g id="patch_4">
    <path d="M 949.7925 856.111875 
L 949.7925 40.711875 
" style="fill: none; stroke: #262626; stroke-width: 1.25; stroke-linejoin: miter; stroke-linecap: square"/>
   </g>
   <g id="patch_5">
    <path d="M 112.7925 856.111875 
L 949.7925 856.111875 
" style="fill: none; stroke: #262626; stroke-width: 1.25; stroke-linejoin: miter; stroke-linecap: square"/>
   </g>
   <g id="patch_6">
    <path d="M 112.7925 40.711875 
L 949.7925 40.711875 
" style="fill: none; stroke: #262626; stroke-width: 1.25; stroke-linejoin: miter; stroke-linecap: square"/>
   </g>
   <g id="text_15">
    <text style="fill: #262626; font: 36px 'sans-serif'; text-anchor: middle" x="531.2925" y="34.711875" transform="rotate(-0 531.2925 34.711875)">All Cells | | class_weight: None</text>
   </g>
   <g id="legend_1">
    <g id="patch_7">
     <path d="M 54.2925 1124.975625 
L 938.896875 1124.975625 
Q 946.096875 1124.975625 946.096875 1117.775625 
L 946.096875 962.851875 
Q 946.096875 955.651875 938.896875 955.651875 
L 54.2925 955.651875 
Q 47.0925 955.651875 47.0925 962.851875 
L 47.0925 1117.775625 
Q 47.0925 1124.975625 54.2925 1124.975625 
z
" style="fill: #ffffff; opacity: 0.8; stroke: #cccccc; stroke-linejoin: miter"/>
    </g>
    <g id="line2d_4">
     <path d="M 61.4925 984.80625 
L 97.4925 984.80625 
L 133.4925 984.80625 
" style="fill: none; stroke: #fde725; stroke-width: 7; stroke-linecap: round"/>
    </g>
    <g id="text_16">
     <text style="fill: #262626; font: 36px 'sans-serif'; text-anchor: start" x="162.2925" y="997.40625" transform="rotate(-0 162.2925 997.40625)">Random Forest (ROC AUC = 0.97)</text>
    </g>
    <g id="line2d_5">
     <path d="M 61.4925 1037.6475 
L 97.4925 1037.6475 
L 133.4925 1037.6475 
" style="fill: none; stroke: #1f988b; stroke-width: 7; stroke-linecap: round"/>
    </g>
    <g id="text_17">
     <text style="fill: #262626; font: 36px 'sans-serif'; text-anchor: start" x="162.2925" y="1050.2475" transform="rotate(-0 162.2925 1050.2475)">Logistic Regression (ROC AUC = 0.74)</text>
    </g>
    <g id="line2d_6">
     <path d="M 61.4925 1090.48875 
L 97.4925 1090.48875 
L 133.4925 1090.48875 
" style="fill: none; stroke: #440154; stroke-width: 7; stroke-linecap: round"/>
    </g>
    <g id="text_18">
     <text style="fill: #262626; font: 36px 'sans-serif'; text-anchor: start" x="162.2925" y="1103.08875" transform="rotate(-0 162.2925 1103.08875)">Support Vector Machine (ROC AUC = 0.84)</text>
    </g>
   </g>
  </g>
 </g>
 <defs>
  <clipPath id="p185dc254e1">
   <rect x="112.7925" y="40.711875" width="837" height="815.4"/>
  </clipPath>
 </defs>
</svg>
