<?xml version="1.0" encoding="utf-8" standalone="no"?>
<!DOCTYPE svg PUBLIC "-//W3C//DTD SVG 1.1//EN"
  "http://www.w3.org/Graphics/SVG/1.1/DTD/svg11.dtd">
<svg xmlns:xlink="http://www.w3.org/1999/xlink" width="985.618125pt" height="1132.175625pt" viewBox="0 0 985.618125 1132.175625" xmlns="http://www.w3.org/2000/svg" version="1.1">
 <metadata>
  <rdf:RDF xmlns:dc="http://purl.org/dc/elements/1.1/" xmlns:cc="http://creativecommons.org/ns#" xmlns:rdf="http://www.w3.org/1999/02/22-rdf-syntax-ns#">
   <cc:Work>
    <dc:type rdf:resource="http://purl.org/dc/dcmitype/StillImage"/>
    <dc:date>2022-11-30T08:26:30.425590</dc:date>
    <dc:format>image/svg+xml</dc:format>
    <dc:creator>
     <cc:Agent>
      <dc:title>Matplotlib v3.6.0, https://matplotlib.org/</dc:title>
     </cc:Agent>
    </dc:creator>
   </cc:Work>
  </rdf:RDF>
 </metadata>
 <defs>
  <style type="text/css">*{stroke-linejoin: round; stroke-linecap: butt}</style>
 </defs>
 <g id="figure_1">
  <g id="patch_1">
   <path d="M 0 1132.175625 
L 985.618125 1132.175625 
L 985.618125 0 
L 0 0 
z
" style="fill: #ffffff"/>
  </g>
  <g id="axes_1">
   <g id="patch_2">
    <path d="M 112.7925 856.111875 
L 949.7925 856.111875 
L 949.7925 40.711875 
L 112.7925 40.711875 
z
" style="fill: #ffffff"/>
   </g>
   <g id="matplotlib.axis_1">
    <g id="xtick_1">
     <g id="text_1">
      <text style="fill: #262626; font: 36px 'sans-serif'; text-anchor: middle" x="112.7925" y="892.96625" transform="rotate(-0 112.7925 892.96625)">0.0</text>
     </g>
    </g>
    <g id="xtick_2">
     <g id="text_2">
      <text style="fill: #262626; font: 36px 'sans-serif'; text-anchor: middle" x="280.1925" y="892.96625" transform="rotate(-0 280.1925 892.96625)">0.2</text>
     </g>
    </g>
    <g id="xtick_3">
     <g id="text_3">
      <text style="fill: #262626; font: 36px 'sans-serif'; text-anchor: middle" x="447.5925" y="892.96625" transform="rotate(-0 447.5925 892.96625)">0.4</text>
     </g>
    </g>
    <g id="xtick_4">
     <g id="text_4">
      <text style="fill: #262626; font: 36px 'sans-serif'; text-anchor: middle" x="614.9925" y="892.96625" transform="rotate(-0 614.9925 892.96625)">0.6</text>
     </g>
    </g>
    <g id="xtick_5">
     <g id="text_5">
      <text style="fill: #262626; font: 36px 'sans-serif'; text-anchor: middle" x="782.3925" y="892.96625" transform="rotate(-0 782.3925 892.96625)">0.8</text>
     </g>
    </g>
    <g id="xtick_6">
     <g id="text_6">
      <text style="fill: #262626; font: 36px 'sans-serif'; text-anchor: middle" x="949.7925" y="892.96625" transform="rotate(-0 949.7925 892.96625)">1.0</text>
     </g>
    </g>
    <g id="text_7">
     <text style="fill: #262626; font: 36px 'sans-serif'; text-anchor: middle" x="531.2925" y="931.8075" transform="rotate(-0 531.2925 931.8075)">False Positive Rate</text>
    </g>
   </g>
   <g id="matplotlib.axis_2">
    <g id="ytick_1">
     <g id="text_8">
      <text style="fill: #262626; font: 36px 'sans-serif'; text-anchor: end" x="103.2925" y="869.789062" transform="rotate(-0 103.2925 869.789062)">0.0</text>
     </g>
    </g>
    <g id="ytick_2">
     <g id="text_9">
      <text style="fill: #262626; font: 36px 'sans-serif'; text-anchor: end" x="103.2925" y="706.709062" transform="rotate(-0 103.2925 706.709062)">0.2</text>
     </g>
    </g>
    <g id="ytick_3">
     <g id="text_10">
      <text style="fill: #262626; font: 36px 'sans-serif'; text-anchor: end" x="103.2925" y="543.629062" transform="rotate(-0 103.2925 543.629062)">0.4</text>
     </g>
    </g>
    <g id="ytick_4">
     <g id="text_11">
      <text style="fill: #262626; font: 36px 'sans-serif'; text-anchor: end" x="103.2925" y="380.549062" transform="rotate(-0 103.2925 380.549062)">0.6</text>
     </g>
    </g>
    <g id="ytick_5">
     <g id="text_12">
      <text style="fill: #262626; font: 36px 'sans-serif'; text-anchor: end" x="103.2925" y="217.469062" transform="rotate(-0 103.2925 217.469062)">0.8</text>
     </g>
    </g>
    <g id="ytick_6">
     <g id="text_13">
      <text style="fill: #262626; font: 36px 'sans-serif'; text-anchor: end" x="103.2925" y="54.389062" transform="rotate(-0 103.2925 54.389062)">1.0</text>
     </g>
    </g>
    <g id="text_14">
     <text style="fill: #262626; font: 36px 'sans-serif'; text-anchor: middle" x="34.554375" y="448.411875" transform="rotate(-90 34.554375 448.411875)">True Positive Rate</text>
    </g>
   </g>
   <g id="line2d_1">
    <path d="M 112.7925 856.111875 
L 112.7925 853.069338 
L 113.291011 853.069338 
L 113.291011 824.165233 
L 113.789522 824.165233 
L 113.789522 807.431278 
L 114.288033 807.431278 
L 114.288033 789.936688 
L 114.786544 789.936688 
L 114.786544 779.287808 
L 115.285055 779.287808 
L 115.285055 763.314487 
L 115.783566 763.314487 
L 115.783566 762.553853 
L 116.282077 762.553853 
L 116.282077 755.708144 
L 116.780588 755.708144 
L 116.780588 749.623069 
L 117.279099 749.623069 
L 117.279099 735.171017 
L 117.77761 735.171017 
L 117.77761 732.889114 
L 118.276121 732.889114 
L 118.276121 728.325308 
L 118.774632 728.325308 
L 118.774632 718.437062 
L 119.273143 718.437062 
L 119.273143 716.915793 
L 119.771654 716.915793 
L 119.771654 710.830718 
L 120.270165 710.830718 
L 120.270165 689.532957 
L 121.765698 689.532957 
L 121.765698 688.772323 
L 122.76272 688.772323 
L 122.76272 688.011688 
L 123.261231 688.011688 
L 123.261231 687.251054 
L 123.759742 687.251054 
L 123.759742 685.729785 
L 124.756764 685.729785 
L 124.756764 684.969151 
L 125.255275 684.969151 
L 125.255275 682.687248 
L 125.753786 682.687248 
L 125.753786 677.362808 
L 126.252297 677.362808 
L 126.252297 672.038368 
L 126.750809 672.038368 
L 126.750809 668.99583 
L 127.24932 668.99583 
L 127.24932 665.192659 
L 127.747831 665.192659 
L 127.747831 663.67139 
L 128.246342 663.67139 
L 128.246342 662.910756 
L 129.243364 662.910756 
L 129.243364 662.150121 
L 129.741875 662.150121 
L 129.741875 660.628853 
L 130.240386 660.628853 
L 130.240386 659.868218 
L 131.237408 659.868218 
L 131.237408 657.586315 
L 131.735919 657.586315 
L 131.735919 653.022509 
L 132.23443 653.022509 
L 132.23443 651.501241 
L 133.231452 651.501241 
L 133.231452 649.219338 
L 133.729963 649.219338 
L 133.729963 646.1768 
L 134.228474 646.1768 
L 134.228474 640.091726 
L 135.724007 640.091726 
L 135.724007 636.288554 
L 136.721029 636.288554 
L 136.721029 634.767285 
L 138.216562 634.767285 
L 138.216562 630.964114 
L 138.715073 630.964114 
L 138.715073 623.357771 
L 139.213584 623.357771 
L 139.213584 622.597136 
L 140.210606 622.597136 
L 140.210606 621.836502 
L 142.20465 621.836502 
L 142.20465 621.075868 
L 142.703161 621.075868 
L 142.703161 616.512062 
L 143.700183 616.512062 
L 143.700183 611.187621 
L 144.697205 611.187621 
L 144.697205 608.145084 
L 145.195716 608.145084 
L 145.195716 606.623815 
L 145.694227 606.623815 
L 145.694227 605.863181 
L 146.691249 605.863181 
L 146.691249 604.341912 
L 147.18976 604.341912 
L 147.18976 603.581278 
L 147.688271 603.581278 
L 147.688271 599.778106 
L 148.186782 599.778106 
L 148.186782 598.256838 
L 148.685293 598.256838 
L 148.685293 596.735569 
L 149.183804 596.735569 
L 149.183804 594.453666 
L 149.682315 594.453666 
L 149.682315 582.283517 
L 150.180826 582.283517 
L 150.180826 576.959076 
L 150.679337 576.959076 
L 150.679337 573.155905 
L 151.676359 573.155905 
L 151.676359 570.113368 
L 152.673381 570.113368 
L 152.673381 567.831465 
L 153.171892 567.831465 
L 153.171892 567.07083 
L 153.670404 567.07083 
L 153.670404 563.267659 
L 154.667426 563.267659 
L 154.667426 562.507024 
L 155.165937 562.507024 
L 155.165937 560.225121 
L 155.664448 560.225121 
L 155.664448 557.182584 
L 156.162959 557.182584 
L 156.162959 555.661315 
L 157.159981 555.661315 
L 157.159981 551.097509 
L 157.658492 551.097509 
L 157.658492 550.336875 
L 159.154025 550.336875 
L 159.154025 548.815606 
L 159.652536 548.815606 
L 159.652536 547.294338 
L 160.151047 547.294338 
L 160.151047 545.773069 
L 160.649558 545.773069 
L 160.649558 545.012435 
L 161.148069 545.012435 
L 161.148069 537.406091 
L 161.64658 537.406091 
L 161.64658 535.884823 
L 162.145091 535.884823 
L 162.145091 534.363554 
L 162.643602 534.363554 
L 162.643602 532.842285 
L 164.637646 532.842285 
L 164.637646 532.081651 
L 165.634668 532.081651 
L 165.634668 530.560382 
L 166.133179 530.560382 
L 166.133179 529.039114 
L 167.130201 529.039114 
L 167.130201 528.278479 
L 167.628712 528.278479 
L 167.628712 526.757211 
L 168.625734 526.757211 
L 168.625734 525.996576 
L 169.622756 525.996576 
L 169.622756 522.193405 
L 170.121267 522.193405 
L 170.121267 521.432771 
L 170.619778 521.432771 
L 170.619778 519.150868 
L 172.115311 519.150868 
L 172.115311 518.390233 
L 173.610844 518.390233 
L 173.610844 515.347696 
L 174.109355 515.347696 
L 174.109355 514.587062 
L 174.607866 514.587062 
L 174.607866 509.262621 
L 175.106377 509.262621 
L 175.106377 507.741353 
L 175.604888 507.741353 
L 175.604888 506.220084 
L 176.103399 506.220084 
L 176.103399 504.698815 
L 176.60191 504.698815 
L 176.60191 503.177547 
L 177.100421 503.177547 
L 177.100421 502.416912 
L 177.598932 502.416912 
L 177.598932 501.656278 
L 178.097443 501.656278 
L 178.097443 500.135009 
L 178.595954 500.135009 
L 178.595954 499.374375 
L 179.094465 499.374375 
L 179.094465 498.613741 
L 180.091487 498.613741 
L 180.091487 494.810569 
L 180.589999 494.810569 
L 180.589999 494.049935 
L 181.08851 494.049935 
L 181.08851 492.528666 
L 181.587021 492.528666 
L 181.587021 491.768032 
L 182.085532 491.768032 
L 182.085532 491.007397 
L 182.584043 491.007397 
L 182.584043 489.486129 
L 183.082554 489.486129 
L 183.082554 488.725494 
L 183.581065 488.725494 
L 183.581065 487.204226 
L 184.079576 487.204226 
L 184.079576 484.922323 
L 184.578087 484.922323 
L 184.578087 478.076614 
L 185.076598 478.076614 
L 185.076598 477.315979 
L 186.572131 477.315979 
L 186.572131 472.752174 
L 188.067664 472.752174 
L 188.067664 471.230905 
L 189.064686 471.230905 
L 189.064686 468.188368 
L 189.563197 468.188368 
L 189.563197 465.906465 
L 190.061708 465.906465 
L 190.061708 464.385196 
L 190.560219 464.385196 
L 190.560219 462.103293 
L 191.05873 462.103293 
L 191.05873 458.300121 
L 191.557241 458.300121 
L 191.557241 457.539487 
L 192.055752 457.539487 
L 192.055752 456.778853 
L 193.052774 456.778853 
L 193.052774 456.018218 
L 193.551285 456.018218 
L 193.551285 455.257584 
L 194.548307 455.257584 
L 194.548307 453.736315 
L 195.046818 453.736315 
L 195.046818 451.454412 
L 197.539373 451.454412 
L 197.539373 450.693778 
L 198.037884 450.693778 
L 198.037884 449.933144 
L 198.536395 449.933144 
L 198.536395 449.172509 
L 199.034906 449.172509 
L 199.034906 448.411875 
L 199.533417 448.411875 
L 199.533417 443.087435 
L 200.031928 443.087435 
L 200.031928 442.3268 
L 200.530439 442.3268 
L 200.530439 441.566166 
L 201.527461 441.566166 
L 201.527461 437.762994 
L 202.025972 437.762994 
L 202.025972 432.438554 
L 205.017038 432.438554 
L 205.017038 431.67792 
L 205.515549 431.67792 
L 205.515549 430.917285 
L 206.01406 430.917285 
L 206.01406 429.396017 
L 207.509594 429.396017 
L 207.509594 427.874748 
L 208.008105 427.874748 
L 208.008105 427.114114 
L 210.002149 427.114114 
L 210.002149 426.353479 
L 210.999171 426.353479 
L 210.999171 425.592845 
L 211.497682 425.592845 
L 211.497682 424.071576 
L 212.494704 424.071576 
L 212.494704 423.310942 
L 212.993215 423.310942 
L 212.993215 420.268405 
L 213.491726 420.268405 
L 213.491726 419.507771 
L 214.987259 419.507771 
L 214.987259 417.225868 
L 215.48577 417.225868 
L 215.48577 414.943965 
L 215.984281 414.943965 
L 215.984281 414.18333 
L 216.981303 414.18333 
L 216.981303 408.85889 
L 217.479814 408.85889 
L 217.479814 399.731278 
L 218.975347 399.731278 
L 218.975347 397.449375 
L 219.473858 397.449375 
L 219.473858 395.928106 
L 219.972369 395.928106 
L 219.972369 394.406838 
L 220.47088 394.406838 
L 220.47088 390.603666 
L 220.969391 390.603666 
L 220.969391 386.800494 
L 221.966413 386.800494 
L 221.966413 386.03986 
L 222.464924 386.03986 
L 222.464924 384.518591 
L 222.963435 384.518591 
L 222.963435 383.757957 
L 223.461946 383.757957 
L 223.461946 381.476054 
L 223.960457 381.476054 
L 223.960457 377.672882 
L 225.45599 377.672882 
L 225.45599 375.390979 
L 226.951523 375.390979 
L 226.951523 374.630345 
L 229.444078 368.545271 
L 229.444078 366.263368 
L 229.942589 366.263368 
L 229.942589 363.22083 
L 230.4411 363.22083 
L 230.4411 361.699562 
L 230.939611 361.699562 
L 230.939611 355.614487 
L 232.435144 355.614487 
L 232.435144 351.811315 
L 232.933655 351.811315 
L 232.933655 351.050681 
L 233.930677 351.050681 
L 233.930677 348.008144 
L 234.429189 348.008144 
L 234.429189 342.683703 
L 235.426211 342.683703 
L 235.426211 341.923069 
L 235.924722 341.923069 
L 235.924722 339.641166 
L 237.420255 339.641166 
L 237.420255 338.880532 
L 237.918766 338.880532 
L 237.918766 337.359263 
L 238.417277 337.359263 
L 238.417277 335.07736 
L 239.414299 335.07736 
L 239.414299 332.034823 
L 239.91281 332.034823 
L 239.91281 327.471017 
L 240.411321 327.471017 
L 240.411321 326.710382 
L 240.909832 326.710382 
L 240.909832 325.189114 
L 241.408343 325.189114 
L 241.408343 323.667845 
L 241.906854 323.667845 
L 241.906854 322.146576 
L 242.903876 322.146576 
L 242.903876 321.385942 
L 243.402387 321.385942 
L 243.402387 319.864674 
L 244.399409 319.864674 
L 244.399409 313.779599 
L 245.396431 313.779599 
L 245.396431 312.25833 
L 245.894942 312.25833 
L 245.894942 311.497696 
L 246.393453 311.497696 
L 246.393453 309.215793 
L 246.891964 309.215793 
L 246.891964 308.455159 
L 247.390475 308.455159 
L 247.390475 307.694524 
L 248.387497 307.694524 
L 248.387497 303.891353 
L 249.384519 303.891353 
L 249.384519 303.130718 
L 251.877074 303.130718 
L 251.877074 302.370084 
L 252.375585 302.370084 
L 252.375585 300.088181 
L 253.372607 300.088181 
L 253.372607 298.566912 
L 253.871118 298.566912 
L 253.871118 297.806278 
L 254.86814 297.806278 
L 254.86814 297.045644 
L 255.865162 297.045644 
L 255.865162 296.285009 
L 256.363673 296.285009 
L 256.363673 292.481838 
L 256.862184 292.481838 
L 256.862184 291.721203 
L 257.360695 291.721203 
L 257.360695 290.960569 
L 258.357717 290.960569 
L 258.357717 289.4393 
L 260.850272 289.4393 
L 260.850272 287.157397 
L 261.348784 287.157397 
L 261.348784 285.636129 
L 261.847295 285.636129 
L 261.847295 284.875494 
L 262.844317 284.875494 
L 262.844317 284.11486 
L 263.841339 284.11486 
L 263.841339 283.354226 
L 264.33985 283.354226 
L 264.33985 282.593591 
L 264.838361 282.593591 
L 264.838361 281.832957 
L 266.333894 281.832957 
L 266.333894 280.311688 
L 268.327938 280.311688 
L 268.327938 278.79042 
L 268.826449 278.79042 
L 268.826449 277.269151 
L 269.32496 277.269151 
L 269.32496 276.508517 
L 269.823471 276.508517 
L 269.823471 275.747882 
L 272.316026 275.747882 
L 272.316026 274.226614 
L 275.307092 274.226614 
L 275.307092 271.184076 
L 277.301136 271.184076 
L 277.301136 270.423442 
L 279.793691 270.423442 
L 279.793691 268.902174 
L 280.292202 268.902174 
L 280.292202 267.380905 
L 280.790713 267.380905 
L 280.790713 266.620271 
L 282.784757 266.620271 
L 282.784757 265.099002 
L 283.283268 265.099002 
L 283.283268 264.338368 
L 283.781779 264.338368 
L 283.781779 263.577733 
L 284.28029 263.577733 
L 284.28029 262.056465 
L 285.277312 262.056465 
L 285.277312 260.535196 
L 285.775823 260.535196 
L 285.775823 259.774562 
L 286.274334 259.774562 
L 286.274334 258.253293 
L 289.265401 258.253293 
L 289.265401 256.732024 
L 290.262423 256.732024 
L 290.262423 255.97139 
L 292.256467 255.97139 
L 292.256467 255.210756 
L 293.752 255.210756 
L 293.752 254.450121 
L 294.250511 254.450121 
L 294.250511 252.928853 
L 294.749022 252.928853 
L 294.749022 252.168218 
L 295.746044 252.168218 
L 295.746044 251.407584 
L 296.244555 251.407584 
L 296.244555 248.365047 
L 297.241577 248.365047 
L 297.241577 246.083144 
L 297.740088 246.083144 
L 297.740088 245.322509 
L 298.238599 245.322509 
L 298.238599 243.040606 
L 299.734132 243.040606 
L 299.734132 240.758703 
L 300.731154 240.758703 
L 300.731154 239.237435 
L 301.229665 239.237435 
L 301.229665 238.4768 
L 303.72222 238.4768 
L 303.72222 237.716166 
L 305.217753 237.716166 
L 305.217753 236.955532 
L 306.713286 236.955532 
L 306.713286 236.194897 
L 308.70733 236.194897 
L 308.70733 233.15236 
L 309.205841 233.15236 
L 309.205841 232.391726 
L 310.202863 232.391726 
L 310.202863 231.631091 
L 313.69244 231.631091 
L 313.69244 230.870457 
L 314.190951 230.870457 
L 314.190951 227.82792 
L 314.689462 227.82792 
L 314.689462 226.306651 
L 315.686485 226.306651 
L 315.686485 222.503479 
L 316.184996 222.503479 
L 316.184996 221.742845 
L 316.683507 221.742845 
L 316.683507 220.982211 
L 317.680529 220.982211 
L 317.680529 220.221576 
L 324.659683 220.221576 
L 324.659683 218.700308 
L 325.158194 218.700308 
L 325.158194 216.418405 
L 325.656705 216.418405 
L 325.656705 213.375868 
L 326.155216 213.375868 
L 326.155216 212.615233 
L 327.650749 212.615233 
L 327.650749 211.093965 
L 328.647771 211.093965 
L 328.647771 210.33333 
L 329.146282 210.33333 
L 329.146282 208.812062 
L 329.644793 208.812062 
L 329.644793 208.051427 
L 330.143304 208.051427 
L 330.143304 207.290793 
L 330.641815 207.290793 
L 330.641815 206.530159 
L 332.137348 206.530159 
L 332.137348 205.769524 
L 334.131392 205.769524 
L 334.131392 204.248256 
L 335.128414 204.248256 
L 335.128414 203.487621 
L 335.626925 203.487621 
L 335.626925 201.205718 
L 338.11948 201.205718 
L 338.11948 200.445084 
L 339.615013 200.445084 
L 339.615013 198.923815 
L 342.107568 198.923815 
L 342.107568 198.163181 
L 342.60608 198.163181 
L 342.60608 197.402547 
L 343.104591 197.402547 
L 343.104591 196.641912 
L 344.101613 196.641912 
L 344.101613 195.881278 
L 344.600124 195.881278 
L 344.600124 192.078106 
L 345.098635 192.078106 
L 345.098635 191.317472 
L 345.597146 191.317472 
L 345.597146 190.556838 
L 346.095657 190.556838 
L 346.095657 189.035569 
L 346.594168 189.035569 
L 346.594168 188.274935 
L 347.092679 188.274935 
L 347.092679 187.5143 
L 347.59119 187.5143 
L 347.59119 186.753666 
L 348.588212 186.753666 
L 348.588212 185.993032 
L 349.086723 185.993032 
L 349.086723 184.471763 
L 351.080767 184.471763 
L 351.080767 183.711129 
L 351.579278 183.711129 
L 351.579278 182.950494 
L 355.567366 182.950494 
L 355.567366 181.429226 
L 358.558432 181.429226 
L 358.558432 180.668591 
L 362.048009 180.668591 
L 362.048009 179.907957 
L 363.543542 179.907957 
L 363.543542 178.386688 
L 364.042053 178.386688 
L 364.042053 176.86542 
L 365.039075 176.86542 
L 365.039075 176.104785 
L 365.537586 176.104785 
L 365.537586 175.344151 
L 367.53163 175.344151 
L 367.53163 173.822882 
L 368.030141 173.822882 
L 368.030141 173.062248 
L 369.525675 173.062248 
L 369.525675 172.301614 
L 370.024186 172.301614 
L 370.024186 171.540979 
L 370.522697 171.540979 
L 370.522697 168.498442 
L 371.021208 168.498442 
L 371.021208 167.737808 
L 371.519719 167.737808 
L 371.519719 166.977174 
L 372.516741 166.977174 
L 372.516741 166.216539 
L 375.009296 166.216539 
L 375.009296 164.695271 
L 377.00334 164.695271 
L 377.00334 163.174002 
L 378.000362 163.174002 
L 378.000362 162.413368 
L 379.495895 162.413368 
L 379.495895 160.892099 
L 381.489939 160.892099 
L 381.489939 160.131465 
L 382.985472 160.131465 
L 382.985472 159.37083 
L 384.481005 159.37083 
L 384.481005 158.610196 
L 384.979516 158.610196 
L 384.979516 157.849562 
L 388.469093 157.849562 
L 388.469093 156.328293 
L 389.466115 156.328293 
L 389.466115 155.567659 
L 389.964626 155.567659 
L 389.964626 154.04639 
L 391.460159 154.04639 
L 391.460159 151.003853 
L 393.952714 151.003853 
L 393.952714 149.482584 
L 394.451225 149.482584 
L 394.451225 148.72195 
L 394.949736 148.72195 
L 394.949736 147.961315 
L 395.946758 147.961315 
L 395.946758 147.200681 
L 399.934847 147.200681 
L 399.934847 146.440047 
L 400.931869 146.440047 
L 400.931869 144.158144 
L 402.427402 144.158144 
L 402.427402 142.636875 
L 408.409534 142.636875 
L 408.409534 141.876241 
L 410.403578 141.876241 
L 410.403578 141.115606 
L 412.896133 141.115606 
L 412.896133 139.594338 
L 414.890177 139.594338 
L 414.890177 138.833703 
L 416.38571 138.833703 
L 416.38571 137.312435 
L 420.872309 137.312435 
L 420.872309 136.5518 
L 421.37082 136.5518 
L 421.37082 135.791166 
L 423.364865 135.791166 
L 423.364865 135.030532 
L 424.860398 135.030532 
L 424.860398 134.269897 
L 425.85742 134.269897 
L 425.85742 133.509263 
L 426.355931 133.509263 
L 426.355931 132.748629 
L 426.854442 132.748629 
L 426.854442 131.22736 
L 433.833596 131.22736 
L 433.833596 129.706091 
L 435.82764 129.706091 
L 435.82764 128.945457 
L 436.824662 128.945457 
L 436.824662 128.184823 
L 438.818706 128.184823 
L 438.818706 127.424188 
L 442.308283 127.424188 
L 442.308283 126.663554 
L 444.302327 126.663554 
L 444.302327 125.90292 
L 445.299349 125.90292 
L 445.299349 125.142285 
L 458.260636 125.142285 
L 458.260636 124.381651 
L 458.759147 124.381651 
L 458.759147 123.621017 
L 460.25468 123.621017 
L 460.25468 122.860382 
L 463.744257 122.860382 
L 463.744257 122.099748 
L 465.738301 122.099748 
L 465.738301 121.339114 
L 466.236812 121.339114 
L 466.236812 120.578479 
L 469.227878 120.578479 
L 469.227878 119.817845 
L 484.68172 119.817845 
L 484.68172 119.057211 
L 486.177253 119.057211 
L 486.177253 118.296576 
L 492.657896 118.296576 
L 492.657896 117.535942 
L 497.144495 117.535942 
L 497.144495 116.775308 
L 498.640028 116.775308 
L 498.640028 116.014674 
L 500.135561 116.014674 
L 500.135561 115.254039 
L 502.129605 115.254039 
L 502.129605 114.493405 
L 503.126627 114.493405 
L 503.126627 113.732771 
L 504.622161 113.732771 
L 504.622161 112.972136 
L 506.117694 112.972136 
L 506.117694 111.450868 
L 506.616205 111.450868 
L 506.616205 110.690233 
L 508.111738 110.690233 
L 508.111738 109.929599 
L 509.607271 109.929599 
L 509.607271 109.168965 
L 513.096848 109.168965 
L 513.096848 108.40833 
L 517.583447 108.40833 
L 517.583447 107.647696 
L 518.081958 107.647696 
L 518.081958 106.887062 
L 519.07898 106.887062 
L 519.07898 106.126427 
L 522.568557 106.126427 
L 522.568557 104.605159 
L 524.06409 104.605159 
L 524.06409 103.08389 
L 526.556645 103.08389 
L 526.556645 102.323256 
L 528.550689 102.323256 
L 528.550689 101.562621 
L 538.022399 101.562621 
L 538.022399 100.801987 
L 548.49113 100.801987 
L 548.49113 100.041353 
L 553.47624 100.041353 
L 553.47624 99.280718 
L 555.968795 99.280718 
L 555.968795 98.520084 
L 566.437527 98.520084 
L 566.437527 97.75945 
L 567.434549 97.75945 
L 567.434549 96.238181 
L 567.93306 96.238181 
L 567.93306 95.477547 
L 568.431571 95.477547 
L 568.431571 94.716912 
L 569.428593 94.716912 
L 569.428593 93.956278 
L 569.927104 93.956278 
L 569.927104 93.195644 
L 574.912214 93.195644 
L 574.912214 92.435009 
L 581.392857 92.435009 
L 581.392857 91.674375 
L 583.885412 91.674375 
L 583.885412 90.913741 
L 585.879457 90.913741 
L 585.879457 90.153106 
L 592.3601 90.153106 
L 592.3601 89.392472 
L 597.843721 89.392472 
L 597.843721 88.631838 
L 618.282673 88.631838 
L 618.282673 87.871203 
L 621.77225 87.871203 
L 621.77225 87.110569 
L 630.745448 87.110569 
L 630.745448 86.349935 
L 633.238003 86.349935 
L 633.238003 85.5893 
L 643.208224 85.5893 
L 643.208224 84.828666 
L 644.703757 84.828666 
L 644.703757 84.068032 
L 653.178444 84.068032 
L 653.178444 83.307397 
L 655.172488 83.307397 
L 655.172488 82.546763 
L 657.665043 82.546763 
L 657.665043 81.786129 
L 658.163554 81.786129 
L 658.163554 81.025494 
L 659.659087 81.025494 
L 659.659087 80.26486 
L 662.650153 80.26486 
L 662.650153 79.504226 
L 664.145686 79.504226 
L 664.145686 78.743591 
L 667.635264 78.743591 
L 667.635264 77.982957 
L 672.620374 77.982957 
L 672.620374 77.222323 
L 673.118885 77.222323 
L 673.118885 76.461688 
L 674.614418 76.461688 
L 674.614418 75.701054 
L 678.103995 75.701054 
L 678.103995 74.94042 
L 679.599528 74.94042 
L 679.599528 74.179785 
L 683.089105 74.179785 
L 683.089105 72.658517 
L 685.083149 72.658517 
L 685.083149 71.897882 
L 687.077193 71.897882 
L 687.077193 71.137248 
L 688.572726 71.137248 
L 688.572726 70.376614 
L 691.563792 70.376614 
L 691.563792 68.855345 
L 693.059325 68.855345 
L 693.059325 68.094711 
L 697.545925 68.094711 
L 697.545925 67.334076 
L 699.041458 67.334076 
L 699.041458 66.573442 
L 699.539969 66.573442 
L 699.539969 65.812808 
L 704.525079 65.812808 
L 704.525079 65.052174 
L 706.020612 65.052174 
L 706.020612 64.291539 
L 708.014656 64.291539 
L 708.014656 63.530905 
L 709.011678 63.530905 
L 709.011678 62.770271 
L 711.005722 62.770271 
L 711.005722 62.009636 
L 714.495299 62.009636 
L 714.495299 61.249002 
L 726.459564 61.249002 
L 726.459564 60.488368 
L 733.438718 60.488368 
L 733.438718 59.727733 
L 733.937229 59.727733 
L 733.937229 58.967099 
L 741.913405 58.967099 
L 741.913405 58.206465 
L 745.901493 58.206465 
L 745.901493 57.44583 
L 751.385115 57.44583 
L 751.385115 56.685196 
L 751.883626 56.685196 
L 751.883626 55.924562 
L 757.367247 55.924562 
L 757.367247 55.163927 
L 765.841934 55.163927 
L 765.841934 54.403293 
L 773.81811 54.403293 
L 773.81811 53.642659 
L 774.316622 53.642659 
L 774.316622 52.882024 
L 777.806199 52.882024 
L 777.806199 52.12139 
L 794.257062 52.12139 
L 794.257062 51.360756 
L 797.248128 51.360756 
L 797.248128 50.600121 
L 803.230261 50.600121 
L 803.230261 49.839487 
L 806.719838 49.839487 
L 806.719838 49.078853 
L 835.134966 49.078853 
L 835.134966 48.318218 
L 842.11412 48.318218 
L 842.11412 47.557584 
L 873.520314 47.557584 
L 873.520314 46.79695 
L 880.000957 46.79695 
L 880.000957 46.036315 
L 886.980112 46.036315 
L 886.980112 45.275681 
L 912.902685 45.275681 
L 912.902685 44.515047 
L 923.869927 44.515047 
L 923.869927 43.754412 
L 930.849081 43.754412 
L 930.849081 42.993778 
L 942.314835 42.993778 
L 942.314835 42.233144 
L 948.296967 42.233144 
L 948.296967 40.711875 
L 949.7925 40.711875 
L 949.7925 40.711875 
" clip-path="url(#p3b230c592d)" style="fill: none; stroke: #440154; stroke-width: 7; stroke-linecap: round"/>
   </g>
   <g id="line2d_2">
    <path d="M 112.7925 856.111875 
L 112.7925 727.564674 
L 113.291011 668.235196 
L 113.789522 634.767285 
L 113.789522 605.102547 
L 113.789522 589.129226 
L 113.789522 570.874002 
L 114.288033 559.464487 
L 114.288033 551.097509 
L 114.288033 539.687994 
L 114.786544 532.081651 
L 116.282077 516.868965 
L 116.780588 509.262621 
L 116.780588 498.613741 
L 117.279099 483.401054 
L 117.77761 471.230905 
L 118.276121 465.906465 
L 118.276121 456.018218 
L 118.774632 448.411875 
L 119.273143 440.044897 
L 120.270165 427.874748 
L 120.270165 421.029039 
L 120.768676 414.18333 
L 121.267187 404.295084 
L 121.765698 395.928106 
L 124.756764 386.03986 
L 125.753786 380.71542 
L 126.750809 370.066539 
L 128.246342 361.699562 
L 129.243364 353.332584 
L 131.237408 349.529412 
L 132.23443 341.923069 
L 133.729963 334.316726 
L 134.726985 328.231651 
L 136.222518 320.625308 
L 141.207628 303.891353 
L 141.706139 299.327547 
L 145.195716 289.4393 
L 147.18976 284.875494 
L 151.177848 279.551054 
L 153.670404 274.987248 
L 156.66147 265.099002 
L 160.151047 259.013927 
L 162.643602 253.689487 
L 169.622756 241.519338 
L 173.610844 235.434263 
L 177.100421 228.588554 
L 182.085532 221.742845 
L 188.566175 212.615233 
L 194.049796 205.769524 
L 199.533417 201.205718 
L 203.022994 196.641912 
L 207.509594 185.993032 
L 213.491726 181.429226 
L 219.972369 176.104785 
L 226.951523 170.780345 
L 232.435144 166.216539 
L 239.91281 159.37083 
L 245.894942 156.328293 
L 249.88303 151.764487 
L 254.369629 149.482584 
L 259.85325 145.679412 
L 263.342828 141.115606 
L 270.820493 135.791166 
L 276.802625 130.466726 
L 280.292202 125.90292 
L 287.271356 120.578479 
L 294.250511 116.775308 
L 297.740088 112.972136 
L 306.214775 109.929599 
L 313.193929 107.647696 
L 319.674573 102.323256 
L 325.158194 101.562621 
L 330.143304 99.280718 
L 336.125436 93.195644 
L 343.104591 87.110569 
L 347.59119 83.307397 
L 357.56141 81.786129 
L 366.534608 80.26486 
L 374.510785 73.419151 
L 381.489939 71.137248 
L 388.967604 68.094711 
L 394.451225 66.573442 
L 400.931869 65.052174 
L 409.406556 61.249002 
L 421.869331 56.685196 
L 437.323173 55.924562 
L 446.794882 55.924562 
L 453.275526 51.360756 
L 462.747235 49.078853 
L 473.215966 49.078853 
L 484.68172 47.557584 
L 501.631094 46.79695 
L 522.568557 46.79695 
L 545.001553 46.79695 
L 576.407747 44.515047 
L 610.306496 42.993778 
L 657.166532 42.993778 
L 736.928295 41.472509 
L 949.7925 40.711875 
" clip-path="url(#p3b230c592d)" style="fill: none; stroke: #fde725; stroke-width: 7; stroke-linecap: round"/>
   </g>
   <g id="PathCollection_1">
    <defs>
     <path id="mc5c8e045f3" d="M 0 11.18034 
C 2.965061 11.18034 5.80908 10.002309 7.905694 7.905694 
C 10.002309 5.80908 11.18034 2.965061 11.18034 0 
C 11.18034 -2.965061 10.002309 -5.80908 7.905694 -7.905694 
C 5.80908 -10.002309 2.965061 -11.18034 0 -11.18034 
C -2.965061 -11.18034 -5.80908 -10.002309 -7.905694 -7.905694 
C -10.002309 -5.80908 -11.18034 -2.965061 -11.18034 0 
C -11.18034 2.965061 -10.002309 5.80908 -7.905694 7.905694 
C -5.80908 10.002309 -2.965061 11.18034 0 11.18034 
z
" style="stroke: #1a1a1a"/>
    </defs>
    <g clip-path="url(#p3b230c592d)">
     <use xlink:href="#mc5c8e045f3" x="188.566175" y="212.615233" style="fill: #1a1a1a; stroke: #1a1a1a"/>
    </g>
   </g>
   <g id="line2d_3">
    <path d="M 112.7925 856.111875 
L 112.7925 850.787435 
L 113.291011 850.787435 
L 113.291011 827.968405 
L 113.789522 827.968405 
L 113.789522 808.191912 
L 114.288033 808.191912 
L 114.288033 788.41542 
L 114.786544 788.41542 
L 114.786544 785.372882 
L 115.285055 785.372882 
L 115.285055 783.851614 
L 115.783566 783.851614 
L 115.783566 779.287808 
L 116.282077 779.287808 
L 116.282077 774.724002 
L 117.279099 774.724002 
L 117.279099 764.075121 
L 117.77761 764.075121 
L 117.77761 752.665606 
L 118.276121 752.665606 
L 118.276121 745.059263 
L 118.774632 745.059263 
L 118.774632 738.974188 
L 119.273143 738.974188 
L 119.273143 730.607211 
L 120.270165 730.607211 
L 120.270165 729.846576 
L 120.768676 729.846576 
L 120.768676 726.804039 
L 121.765698 726.804039 
L 121.765698 723.000868 
L 122.264209 723.000868 
L 122.264209 719.95833 
L 122.76272 719.95833 
L 122.76272 713.112621 
L 123.759742 713.112621 
L 123.759742 710.070084 
L 124.258253 710.070084 
L 124.258253 706.266912 
L 124.756764 706.266912 
L 124.756764 694.096763 
L 126.252297 694.096763 
L 126.252297 689.532957 
L 126.750809 689.532957 
L 126.750809 683.447882 
L 127.24932 683.447882 
L 127.24932 678.884076 
L 128.246342 678.884076 
L 128.246342 678.123442 
L 129.243364 678.123442 
L 129.243364 676.602174 
L 129.741875 676.602174 
L 129.741875 675.841539 
L 130.240386 675.841539 
L 130.240386 675.080905 
L 130.738897 675.080905 
L 130.738897 671.277733 
L 131.237408 671.277733 
L 131.237408 665.953293 
L 131.735919 665.953293 
L 131.735919 665.192659 
L 132.23443 665.192659 
L 132.23443 664.432024 
L 133.231452 664.432024 
L 133.231452 662.910756 
L 133.729963 662.910756 
L 133.729963 662.150121 
L 134.726985 662.150121 
L 134.726985 659.107584 
L 135.225496 659.107584 
L 135.225496 658.34695 
L 135.724007 658.34695 
L 135.724007 657.586315 
L 136.222518 657.586315 
L 136.222518 650.740606 
L 136.721029 650.740606 
L 136.721029 649.219338 
L 137.21954 649.219338 
L 137.21954 648.458703 
L 137.718051 648.458703 
L 137.718051 647.698069 
L 138.216562 647.698069 
L 138.216562 643.894897 
L 138.715073 643.894897 
L 138.715073 639.331091 
L 139.213584 639.331091 
L 139.213584 638.570457 
L 140.210606 638.570457 
L 140.210606 630.203479 
L 140.709117 630.203479 
L 140.709117 625.639674 
L 141.207628 625.639674 
L 141.207628 623.357771 
L 141.706139 623.357771 
L 141.706139 622.597136 
L 142.20465 622.597136 
L 142.20465 621.836502 
L 142.703161 621.836502 
L 142.703161 620.315233 
L 143.201672 620.315233 
L 143.201672 615.751427 
L 143.700183 615.751427 
L 143.700183 614.230159 
L 144.198694 614.230159 
L 144.198694 610.426987 
L 144.697205 610.426987 
L 144.697205 609.666353 
L 146.192738 609.666353 
L 146.192738 605.863181 
L 149.682315 605.863181 
L 149.682315 605.102547 
L 150.679337 605.102547 
L 150.679337 604.341912 
L 151.676359 604.341912 
L 151.676359 603.581278 
L 152.17487 603.581278 
L 152.17487 602.060009 
L 152.673381 602.060009 
L 152.673381 598.256838 
L 153.171892 598.256838 
L 153.171892 597.496203 
L 155.165937 597.496203 
L 155.165937 594.453666 
L 156.66147 594.453666 
L 156.66147 593.693032 
L 157.658492 593.693032 
L 157.658492 592.932397 
L 159.154025 592.932397 
L 159.154025 590.650494 
L 161.148069 590.650494 
L 161.148069 589.88986 
L 162.145091 589.88986 
L 162.145091 589.129226 
L 162.643602 589.129226 
L 162.643602 587.607957 
L 163.142113 587.607957 
L 163.142113 586.086688 
L 163.640624 586.086688 
L 163.640624 585.326054 
L 164.637646 585.326054 
L 164.637646 580.001614 
L 166.133179 580.001614 
L 166.133179 579.240979 
L 166.63169 579.240979 
L 166.63169 578.480345 
L 167.628712 578.480345 
L 167.628712 574.677174 
L 169.622756 574.677174 
L 169.622756 572.395271 
L 170.121267 572.395271 
L 170.121267 571.634636 
L 170.619778 571.634636 
L 170.619778 570.113368 
L 171.118289 570.113368 
L 171.118289 566.310196 
L 171.6168 566.310196 
L 171.6168 561.74639 
L 172.613822 561.74639 
L 172.613822 560.985756 
L 173.610844 560.985756 
L 173.610844 559.464487 
L 174.109355 559.464487 
L 174.109355 557.943218 
L 174.607866 557.943218 
L 174.607866 557.182584 
L 175.106377 557.182584 
L 175.106377 555.661315 
L 175.604888 555.661315 
L 175.604888 554.900681 
L 176.103399 554.900681 
L 176.103399 554.140047 
L 176.60191 554.140047 
L 176.60191 553.379412 
L 177.598932 553.379412 
L 177.598932 552.618778 
L 178.097443 552.618778 
L 178.097443 551.097509 
L 179.592976 551.097509 
L 179.592976 550.336875 
L 181.587021 550.336875 
L 181.587021 542.730532 
L 182.085532 542.730532 
L 182.085532 541.969897 
L 182.584043 541.969897 
L 182.584043 540.448629 
L 183.082554 540.448629 
L 183.082554 539.687994 
L 184.079576 539.687994 
L 184.079576 538.92736 
L 184.578087 538.92736 
L 184.578087 538.166726 
L 185.575109 538.166726 
L 185.575109 537.406091 
L 186.07362 537.406091 
L 186.07362 532.842285 
L 186.572131 532.842285 
L 186.572131 532.081651 
L 187.569153 532.081651 
L 187.569153 529.039114 
L 188.067664 529.039114 
L 188.067664 528.278479 
L 188.566175 528.278479 
L 188.566175 525.996576 
L 189.064686 525.996576 
L 189.064686 524.475308 
L 190.560219 524.475308 
L 190.560219 522.193405 
L 191.05873 522.193405 
L 191.05873 520.672136 
L 192.055752 520.672136 
L 192.055752 519.150868 
L 192.554263 519.150868 
L 192.554263 516.10833 
L 193.052774 516.10833 
L 193.052774 514.587062 
L 193.551285 514.587062 
L 193.551285 513.826427 
L 195.046818 513.826427 
L 195.046818 513.065793 
L 195.545329 513.065793 
L 195.545329 511.544524 
L 196.04384 511.544524 
L 196.04384 510.78389 
L 197.040862 510.78389 
L 197.040862 510.023256 
L 198.536395 510.023256 
L 198.536395 508.501987 
L 200.031928 508.501987 
L 200.031928 506.980718 
L 200.530439 506.980718 
L 200.530439 504.698815 
L 201.02895 504.698815 
L 201.02895 503.938181 
L 204.020016 503.938181 
L 204.020016 503.177547 
L 204.518527 503.177547 
L 204.518527 502.416912 
L 205.017038 502.416912 
L 205.017038 496.331838 
L 206.01406 496.331838 
L 206.01406 495.571203 
L 206.512571 495.571203 
L 206.512571 494.810569 
L 207.011082 494.810569 
L 207.011082 493.2893 
L 207.509594 493.2893 
L 207.509594 492.528666 
L 208.008105 492.528666 
L 208.008105 491.768032 
L 208.506616 491.768032 
L 208.506616 491.007397 
L 209.503638 491.007397 
L 209.503638 489.486129 
L 211.497682 489.486129 
L 211.497682 484.922323 
L 211.996193 484.922323 
L 211.996193 483.401054 
L 212.494704 483.401054 
L 212.494704 480.358517 
L 212.993215 480.358517 
L 212.993215 479.597882 
L 213.491726 479.597882 
L 213.491726 478.837248 
L 213.990237 478.837248 
L 213.990237 475.794711 
L 215.48577 475.794711 
L 215.48577 475.034076 
L 216.981303 475.034076 
L 216.981303 474.273442 
L 217.479814 474.273442 
L 217.479814 468.949002 
L 218.975347 468.949002 
L 218.975347 468.188368 
L 219.473858 468.188368 
L 219.473858 465.14583 
L 219.972369 465.14583 
L 219.972369 462.863927 
L 220.47088 462.863927 
L 220.47088 462.103293 
L 221.467902 462.103293 
L 221.467902 460.582024 
L 222.464924 460.582024 
L 222.464924 459.82139 
L 223.461946 459.82139 
L 223.461946 458.300121 
L 223.960457 458.300121 
L 223.960457 456.778853 
L 224.458968 456.778853 
L 224.458968 456.018218 
L 225.954501 456.018218 
L 225.954501 453.736315 
L 226.453012 453.736315 
L 226.453012 452.975681 
L 227.450034 452.975681 
L 227.450034 452.215047 
L 227.948545 452.215047 
L 227.948545 451.454412 
L 228.447056 451.454412 
L 228.447056 450.693778 
L 229.942589 450.693778 
L 229.942589 449.933144 
L 231.438122 449.933144 
L 231.438122 445.369338 
L 232.933655 445.369338 
L 232.933655 444.608703 
L 233.930677 444.608703 
L 233.930677 442.3268 
L 234.429189 442.3268 
L 234.429189 440.805532 
L 236.423233 440.805532 
L 236.423233 440.044897 
L 236.921744 440.044897 
L 236.921744 434.720457 
L 237.918766 434.720457 
L 237.918766 433.959823 
L 239.414299 433.959823 
L 239.414299 433.199188 
L 239.91281 433.199188 
L 239.91281 432.438554 
L 240.411321 432.438554 
L 240.411321 430.156651 
L 240.909832 430.156651 
L 240.909832 429.396017 
L 241.408343 429.396017 
L 241.408343 427.874748 
L 242.405365 427.874748 
L 242.405365 427.114114 
L 242.903876 427.114114 
L 242.903876 426.353479 
L 244.399409 426.353479 
L 244.399409 425.592845 
L 245.396431 425.592845 
L 245.396431 423.310942 
L 245.894942 423.310942 
L 245.894942 422.550308 
L 246.393453 422.550308 
L 246.393453 419.507771 
L 247.390475 419.507771 
L 247.390475 416.465233 
L 248.387497 416.465233 
L 248.387497 415.704599 
L 249.384519 415.704599 
L 249.384519 414.943965 
L 249.88303 414.943965 
L 249.88303 412.662062 
L 250.381541 412.662062 
L 250.381541 410.380159 
L 253.372607 410.380159 
L 253.372607 409.619524 
L 253.871118 409.619524 
L 253.871118 408.098256 
L 254.369629 408.098256 
L 254.369629 403.53445 
L 255.366651 403.53445 
L 255.366651 402.773815 
L 255.865162 402.773815 
L 255.865162 402.013181 
L 256.363673 402.013181 
L 256.363673 401.252547 
L 257.360695 401.252547 
L 257.360695 397.449375 
L 257.859206 397.449375 
L 257.859206 396.688741 
L 258.856228 396.688741 
L 258.856228 395.928106 
L 259.354739 395.928106 
L 259.354739 395.167472 
L 260.850272 395.167472 
L 260.850272 394.406838 
L 261.348784 394.406838 
L 261.348784 393.646203 
L 261.847295 393.646203 
L 261.847295 392.885569 
L 262.345806 392.885569 
L 262.345806 392.124935 
L 263.342828 392.124935 
L 263.342828 391.3643 
L 263.841339 391.3643 
L 263.841339 390.603666 
L 264.838361 390.603666 
L 264.838361 389.843032 
L 265.835383 389.843032 
L 265.835383 388.321763 
L 266.333894 388.321763 
L 266.333894 387.561129 
L 266.832405 387.561129 
L 266.832405 386.800494 
L 267.330916 386.800494 
L 267.330916 379.194151 
L 267.829427 379.194151 
L 267.829427 372.348442 
L 268.327938 372.348442 
L 268.327938 370.827174 
L 268.826449 370.827174 
L 268.826449 370.066539 
L 269.823471 370.066539 
L 269.823471 369.305905 
L 270.820493 369.305905 
L 270.820493 367.024002 
L 271.319004 367.024002 
L 271.319004 364.742099 
L 271.817515 364.742099 
L 271.817515 363.981465 
L 273.811559 363.981465 
L 273.811559 362.460196 
L 274.31007 362.460196 
L 274.31007 361.699562 
L 274.808581 361.699562 
L 274.808581 360.938927 
L 277.301136 360.938927 
L 277.301136 359.417659 
L 277.799647 359.417659 
L 277.799647 357.89639 
L 278.298158 357.89639 
L 278.298158 356.375121 
L 279.29518 356.375121 
L 279.29518 355.614487 
L 280.292202 355.614487 
L 280.292202 353.332584 
L 281.289224 353.332584 
L 281.289224 351.050681 
L 281.787735 351.050681 
L 281.787735 346.486875 
L 282.286246 346.486875 
L 282.286246 344.204972 
L 283.283268 344.204972 
L 283.283268 341.162435 
L 283.781779 341.162435 
L 283.781779 338.880532 
L 284.778801 338.880532 
L 284.778801 337.359263 
L 285.277312 337.359263 
L 285.277312 335.837994 
L 286.772845 335.837994 
L 286.772845 335.07736 
L 288.268378 335.07736 
L 288.268378 333.556091 
L 288.76689 333.556091 
L 288.76689 331.274188 
L 289.763912 331.274188 
L 289.763912 329.75292 
L 290.760934 329.75292 
L 290.760934 326.710382 
L 293.752 326.710382 
L 293.752 324.428479 
L 294.250511 324.428479 
L 294.250511 322.146576 
L 298.73711 322.146576 
L 298.73711 319.864674 
L 299.734132 319.864674 
L 299.734132 319.104039 
L 300.232643 319.104039 
L 300.232643 317.582771 
L 300.731154 317.582771 
L 300.731154 316.061502 
L 301.229665 316.061502 
L 301.229665 314.540233 
L 301.728176 314.540233 
L 301.728176 313.779599 
L 302.725198 313.779599 
L 302.725198 313.018965 
L 303.223709 313.018965 
L 303.223709 312.25833 
L 303.72222 312.25833 
L 303.72222 311.497696 
L 304.220731 311.497696 
L 304.220731 310.737062 
L 304.719242 310.737062 
L 304.719242 309.976427 
L 305.716264 309.976427 
L 305.716264 308.455159 
L 306.713286 308.455159 
L 306.713286 307.694524 
L 307.211797 307.694524 
L 307.211797 306.93389 
L 308.208819 306.93389 
L 308.208819 306.173256 
L 309.205841 306.173256 
L 309.205841 303.891353 
L 310.701374 303.891353 
L 310.701374 303.130718 
L 312.695418 303.130718 
L 312.695418 301.60945 
L 313.193929 301.60945 
L 313.193929 300.848815 
L 314.689462 300.848815 
L 314.689462 299.327547 
L 316.184996 299.327547 
L 316.184996 298.566912 
L 316.683507 298.566912 
L 316.683507 294.003106 
L 317.680529 294.003106 
L 317.680529 292.481838 
L 318.677551 292.481838 
L 318.677551 291.721203 
L 321.170106 291.721203 
L 321.170106 290.960569 
L 321.668617 290.960569 
L 321.668617 288.678666 
L 324.161172 288.678666 
L 324.161172 287.918032 
L 325.158194 287.918032 
L 325.158194 285.636129 
L 325.656705 285.636129 
L 325.656705 284.875494 
L 326.155216 284.875494 
L 326.155216 283.354226 
L 326.653727 283.354226 
L 326.653727 282.593591 
L 327.650749 282.593591 
L 327.650749 281.072323 
L 328.14926 281.072323 
L 328.14926 280.311688 
L 329.644793 280.311688 
L 329.644793 279.551054 
L 331.140326 279.551054 
L 331.140326 278.79042 
L 332.137348 278.79042 
L 332.137348 278.029785 
L 332.635859 278.029785 
L 332.635859 277.269151 
L 338.11948 277.269151 
L 338.11948 274.987248 
L 338.617991 274.987248 
L 338.617991 273.465979 
L 339.615013 273.465979 
L 339.615013 272.705345 
L 341.609057 272.705345 
L 341.609057 271.944711 
L 342.107568 271.944711 
L 342.107568 271.184076 
L 343.603102 271.184076 
L 343.603102 269.662808 
L 344.600124 269.662808 
L 344.600124 268.141539 
L 345.098635 268.141539 
L 345.098635 267.380905 
L 346.095657 267.380905 
L 346.095657 264.338368 
L 349.086723 264.338368 
L 349.086723 262.056465 
L 350.083745 262.056465 
L 350.083745 261.29583 
L 351.579278 261.29583 
L 351.579278 260.535196 
L 354.071833 260.535196 
L 354.071833 259.774562 
L 355.567366 259.774562 
L 355.567366 258.253293 
L 356.065877 258.253293 
L 356.065877 257.492659 
L 358.059921 257.492659 
L 358.059921 255.97139 
L 359.056943 255.97139 
L 359.056943 255.210756 
L 361.549498 255.210756 
L 361.549498 252.168218 
L 362.048009 252.168218 
L 362.048009 251.407584 
L 362.54652 251.407584 
L 362.54652 250.64695 
L 364.042053 250.64695 
L 364.042053 249.886315 
L 366.534608 249.886315 
L 366.534608 249.125681 
L 369.525675 249.125681 
L 369.525675 247.604412 
L 372.01823 247.604412 
L 372.01823 246.843778 
L 373.015252 246.843778 
L 373.015252 246.083144 
L 375.009296 246.083144 
L 375.009296 245.322509 
L 375.507807 245.322509 
L 375.507807 244.561875 
L 377.501851 244.561875 
L 377.501851 243.801241 
L 378.000362 243.801241 
L 378.000362 243.040606 
L 379.495895 243.040606 
L 379.495895 242.279972 
L 383.982494 242.279972 
L 383.982494 240.758703 
L 385.478027 240.758703 
L 385.478027 239.998069 
L 386.475049 239.998069 
L 386.475049 239.237435 
L 389.964626 239.237435 
L 389.964626 237.716166 
L 390.463137 237.716166 
L 390.463137 235.434263 
L 391.460159 235.434263 
L 391.460159 234.673629 
L 391.95867 234.673629 
L 391.95867 233.912994 
L 396.943781 233.912994 
L 396.943781 233.15236 
L 400.433358 233.15236 
L 400.433358 232.391726 
L 404.421446 232.391726 
L 404.421446 230.870457 
L 408.908045 230.870457 
L 408.908045 230.109823 
L 413.394644 230.109823 
L 413.394644 229.349188 
L 415.388688 229.349188 
L 415.388688 228.588554 
L 417.382732 228.588554 
L 417.382732 227.82792 
L 417.881243 227.82792 
L 417.881243 226.306651 
L 419.875287 226.306651 
L 419.875287 225.546017 
L 421.37082 225.546017 
L 421.37082 224.785382 
L 422.367842 224.785382 
L 422.367842 224.024748 
L 422.866353 224.024748 
L 422.866353 223.264114 
L 424.860398 223.264114 
L 424.860398 222.503479 
L 425.85742 222.503479 
L 425.85742 221.742845 
L 427.851464 221.742845 
L 427.851464 220.982211 
L 428.848486 220.982211 
L 428.848486 220.221576 
L 430.344019 220.221576 
L 430.344019 217.179039 
L 430.84253 217.179039 
L 430.84253 216.418405 
L 434.830618 216.418405 
L 434.830618 215.657771 
L 436.824662 215.657771 
L 436.824662 214.897136 
L 437.821684 214.897136 
L 437.821684 214.136502 
L 439.317217 214.136502 
L 439.317217 213.375868 
L 456.266592 213.375868 
L 456.266592 211.093965 
L 461.750213 211.093965 
L 461.750213 210.33333 
L 465.23979 210.33333 
L 465.23979 209.572696 
L 465.738301 209.572696 
L 465.738301 208.812062 
L 467.732345 208.812062 
L 467.732345 208.051427 
L 468.230856 208.051427 
L 468.230856 207.290793 
L 472.717455 207.290793 
L 472.717455 206.530159 
L 475.708521 206.530159 
L 475.708521 205.769524 
L 476.705543 205.769524 
L 476.705543 204.248256 
L 478.201077 204.248256 
L 478.201077 203.487621 
L 481.690654 203.487621 
L 481.690654 202.726987 
L 485.180231 202.726987 
L 485.180231 201.966353 
L 485.678742 201.966353 
L 485.678742 201.205718 
L 489.66683 201.205718 
L 489.66683 198.923815 
L 491.660874 198.923815 
L 491.660874 198.163181 
L 493.156407 198.163181 
L 493.156407 196.641912 
L 496.645984 196.641912 
L 496.645984 195.881278 
L 504.123649 195.881278 
L 504.123649 195.120644 
L 505.120672 195.120644 
L 505.120672 194.360009 
L 508.610249 194.360009 
L 508.610249 193.599375 
L 509.10876 193.599375 
L 509.10876 192.838741 
L 509.607271 192.838741 
L 509.607271 192.078106 
L 510.105782 192.078106 
L 510.105782 190.556838 
L 511.102804 190.556838 
L 511.102804 189.796203 
L 511.601315 189.796203 
L 511.601315 189.035569 
L 515.090892 189.035569 
L 515.090892 188.274935 
L 518.580469 188.274935 
L 518.580469 187.5143 
L 522.568557 187.5143 
L 522.568557 185.993032 
L 525.061112 185.993032 
L 525.061112 185.232397 
L 525.559623 185.232397 
L 525.559623 184.471763 
L 527.055156 184.471763 
L 527.055156 183.711129 
L 531.541756 183.711129 
L 531.541756 182.18986 
L 535.031333 182.18986 
L 535.031333 181.429226 
L 537.523888 181.429226 
L 537.523888 180.668591 
L 539.517932 180.668591 
L 539.517932 179.907957 
L 545.001553 179.907957 
L 545.001553 179.147323 
L 545.500064 179.147323 
L 545.500064 177.626054 
L 545.998575 177.626054 
L 545.998575 174.583517 
L 547.992619 174.583517 
L 547.992619 173.062248 
L 548.989641 173.062248 
L 548.989641 172.301614 
L 549.488152 172.301614 
L 549.488152 171.540979 
L 550.485174 171.540979 
L 550.485174 170.019711 
L 553.974751 170.019711 
L 553.974751 169.259076 
L 557.464328 169.259076 
L 557.464328 168.498442 
L 561.950928 168.498442 
L 561.950928 167.737808 
L 564.941994 167.737808 
L 564.941994 166.977174 
L 566.936038 166.977174 
L 566.936038 166.216539 
L 573.416681 166.216539 
L 573.416681 165.455905 
L 576.407747 165.455905 
L 576.407747 164.695271 
L 577.404769 164.695271 
L 577.404769 163.934636 
L 578.401791 163.934636 
L 578.401791 161.652733 
L 581.392857 161.652733 
L 581.392857 160.892099 
L 581.891368 160.892099 
L 581.891368 160.131465 
L 582.88839 160.131465 
L 582.88839 159.37083 
L 583.885412 159.37083 
L 583.885412 158.610196 
L 593.855633 158.610196 
L 593.855633 157.849562 
L 594.354144 157.849562 
L 594.354144 157.088927 
L 595.351166 157.088927 
L 595.351166 156.328293 
L 600.834787 156.328293 
L 600.834787 154.04639 
L 605.321386 154.04639 
L 605.321386 153.285756 
L 611.802029 153.285756 
L 611.802029 152.525121 
L 613.297563 152.525121 
L 613.297563 151.003853 
L 617.285651 151.003853 
L 617.285651 150.243218 
L 620.276717 150.243218 
L 620.276717 149.482584 
L 620.775228 149.482584 
L 620.775228 147.961315 
L 621.77225 147.961315 
L 621.77225 147.200681 
L 627.754382 147.200681 
L 627.754382 144.158144 
L 635.232047 144.158144 
L 635.232047 143.397509 
L 639.220135 143.397509 
L 639.220135 142.636875 
L 639.718647 142.636875 
L 639.718647 141.876241 
L 640.217158 141.876241 
L 640.217158 141.115606 
L 643.208224 141.115606 
L 643.208224 140.354972 
L 647.694823 140.354972 
L 647.694823 139.594338 
L 648.691845 139.594338 
L 648.691845 138.833703 
L 651.682911 138.833703 
L 651.682911 138.073069 
L 655.172488 138.073069 
L 655.172488 137.312435 
L 655.670999 137.312435 
L 655.670999 136.5518 
L 661.15462 136.5518 
L 661.15462 135.791166 
L 662.151642 135.791166 
L 662.151642 134.269897 
L 665.641219 134.269897 
L 665.641219 133.509263 
L 666.13973 133.509263 
L 666.13973 132.748629 
L 671.623352 132.748629 
L 671.623352 131.987994 
L 673.617396 131.987994 
L 673.617396 130.466726 
L 674.614418 130.466726 
L 674.614418 129.706091 
L 677.106973 129.706091 
L 677.106973 128.184823 
L 678.602506 128.184823 
L 678.602506 126.663554 
L 683.089105 126.663554 
L 683.089105 125.90292 
L 684.086127 125.90292 
L 684.086127 125.142285 
L 686.080171 125.142285 
L 686.080171 124.381651 
L 688.572726 124.381651 
L 688.572726 123.621017 
L 691.563792 123.621017 
L 691.563792 122.860382 
L 693.059325 122.860382 
L 693.059325 122.099748 
L 696.050392 122.099748 
L 696.050392 121.339114 
L 697.545925 121.339114 
L 697.545925 120.578479 
L 699.041458 120.578479 
L 699.041458 119.817845 
L 705.02359 119.817845 
L 705.02359 119.057211 
L 708.513167 119.057211 
L 708.513167 118.296576 
L 718.483387 118.296576 
L 718.483387 117.535942 
L 719.97892 117.535942 
L 719.97892 116.775308 
L 721.972965 116.775308 
L 721.972965 116.014674 
L 725.961053 116.014674 
L 725.961053 115.254039 
L 726.958075 115.254039 
L 726.958075 114.493405 
L 734.43574 114.493405 
L 734.43574 113.732771 
L 734.934251 113.732771 
L 734.934251 112.211502 
L 737.426806 112.211502 
L 737.426806 111.450868 
L 738.423828 111.450868 
L 738.423828 110.690233 
L 739.42085 110.690233 
L 739.42085 109.929599 
L 743.907449 109.929599 
L 743.907449 109.168965 
L 744.40596 109.168965 
L 744.40596 107.647696 
L 747.397027 107.647696 
L 747.397027 106.887062 
L 747.895538 106.887062 
L 747.895538 106.126427 
L 750.388093 106.126427 
L 750.388093 105.365793 
L 751.883626 105.365793 
L 751.883626 103.844524 
L 753.87767 103.844524 
L 753.87767 102.323256 
L 756.370225 102.323256 
L 756.370225 101.562621 
L 759.361291 101.562621 
L 759.361291 100.801987 
L 761.355335 100.801987 
L 761.355335 100.041353 
L 762.850868 100.041353 
L 762.850868 96.998815 
L 764.346401 96.998815 
L 764.346401 95.477547 
L 765.343423 95.477547 
L 765.343423 94.716912 
L 769.830022 94.716912 
L 769.830022 93.956278 
L 770.328533 93.956278 
L 770.328533 93.195644 
L 770.827044 93.195644 
L 770.827044 92.435009 
L 772.821088 92.435009 
L 772.821088 91.674375 
L 774.316622 91.674375 
L 774.316622 90.153106 
L 775.812155 90.153106 
L 775.812155 89.392472 
L 776.310666 89.392472 
L 776.310666 88.631838 
L 777.806199 88.631838 
L 777.806199 87.110569 
L 778.30471 87.110569 
L 778.30471 86.349935 
L 786.280886 86.349935 
L 786.280886 85.5893 
L 786.779397 85.5893 
L 786.779397 84.828666 
L 787.277908 84.828666 
L 787.277908 82.546763 
L 787.776419 82.546763 
L 787.776419 81.786129 
L 788.773441 81.786129 
L 788.773441 81.025494 
L 792.761529 81.025494 
L 792.761529 80.26486 
L 795.254084 80.26486 
L 795.254084 78.743591 
L 796.749617 78.743591 
L 796.749617 77.222323 
L 798.743661 77.222323 
L 798.743661 74.94042 
L 799.242172 74.94042 
L 799.242172 73.419151 
L 800.737705 73.419151 
L 800.737705 72.658517 
L 801.236216 72.658517 
L 801.236216 70.376614 
L 802.233239 70.376614 
L 802.233239 68.855345 
L 804.725794 68.855345 
L 804.725794 68.094711 
L 806.221327 68.094711 
L 806.221327 67.334076 
L 810.707926 67.334076 
L 810.707926 66.573442 
L 812.203459 66.573442 
L 812.203459 65.812808 
L 812.70197 65.812808 
L 812.70197 63.530905 
L 816.191547 63.530905 
L 816.191547 62.770271 
L 817.188569 62.770271 
L 817.188569 62.009636 
L 817.68708 62.009636 
L 817.68708 61.249002 
L 818.185591 61.249002 
L 818.185591 60.488368 
L 818.684102 60.488368 
L 818.684102 59.727733 
L 820.678146 59.727733 
L 820.678146 58.967099 
L 821.176657 58.967099 
L 821.176657 58.206465 
L 821.675168 58.206465 
L 821.675168 57.44583 
L 822.173679 57.44583 
L 822.173679 56.685196 
L 823.669212 56.685196 
L 823.669212 55.924562 
L 824.167723 55.924562 
L 824.167723 55.163927 
L 825.663256 55.163927 
L 825.663256 54.403293 
L 826.660278 54.403293 
L 826.660278 52.882024 
L 827.158789 52.882024 
L 827.158789 52.12139 
L 827.6573 52.12139 
L 827.6573 51.360756 
L 829.651345 51.360756 
L 829.651345 50.600121 
L 830.648367 50.600121 
L 830.648367 49.839487 
L 831.146878 49.839487 
L 831.146878 49.078853 
L 832.642411 49.078853 
L 832.642411 47.557584 
L 836.131988 47.557584 
L 836.131988 46.79695 
L 839.123054 46.79695 
L 839.123054 46.036315 
L 842.612631 46.036315 
L 842.612631 45.275681 
L 852.582851 45.275681 
L 852.582851 44.515047 
L 860.559028 44.515047 
L 860.559028 43.754412 
L 884.986068 43.754412 
L 884.986068 42.993778 
L 909.911619 42.993778 
L 909.911619 42.233144 
L 949.7925 42.233144 
L 949.7925 40.711875 
L 949.7925 40.711875 
" clip-path="url(#p3b230c592d)" style="fill: none; stroke: #1f988b; stroke-width: 7; stroke-linecap: round"/>
   </g>
   <g id="PathCollection_2">
    <g clip-path="url(#p3b230c592d)">
     <use xlink:href="#mc5c8e045f3" x="224.458968" y="456.778853" style="fill: #1a1a1a; stroke: #1a1a1a"/>
    </g>
   </g>
   <g id="PathCollection_3">
    <g clip-path="url(#p3b230c592d)">
     <use xlink:href="#mc5c8e045f3" x="226.951523" y="374.630345" style="fill: #1a1a1a; stroke: #1a1a1a"/>
    </g>
   </g>
   <g id="patch_3">
    <path d="M 112.7925 856.111875 
L 112.7925 40.711875 
" style="fill: none; stroke: #262626; stroke-width: 1.25; stroke-linejoin: miter; stroke-linecap: square"/>
   </g>
   <g id="patch_4">
    <path d="M 949.7925 856.111875 
L 949.7925 40.711875 
" style="fill: none; stroke: #262626; stroke-width: 1.25; stroke-linejoin: miter; stroke-linecap: square"/>
   </g>
   <g id="patch_5">
    <path d="M 112.7925 856.111875 
L 949.7925 856.111875 
" style="fill: none; stroke: #262626; stroke-width: 1.25; stroke-linejoin: miter; stroke-linecap: square"/>
   </g>
   <g id="patch_6">
    <path d="M 112.7925 40.711875 
L 949.7925 40.711875 
" style="fill: none; stroke: #262626; stroke-width: 1.25; stroke-linejoin: miter; stroke-linecap: square"/>
   </g>
   <g id="text_15">
    <text style="fill: #262626; font: 36px 'sans-serif'; text-anchor: middle" x="531.2925" y="34.711875" transform="rotate(-0 531.2925 34.711875)">All Cells | | class_weight: None</text>
   </g>
   <g id="legend_1">
    <g id="patch_7">
     <path d="M 54.2925 1124.975625 
L 938.896875 1124.975625 
Q 946.096875 1124.975625 946.096875 1117.775625 
L 946.096875 962.851875 
Q 946.096875 955.651875 938.896875 955.651875 
L 54.2925 955.651875 
Q 47.0925 955.651875 47.0925 962.851875 
L 47.0925 1117.775625 
Q 47.0925 1124.975625 54.2925 1124.975625 
z
" style="fill: #ffffff; opacity: 0.8; stroke: #cccccc; stroke-linejoin: miter"/>
    </g>
    <g id="line2d_4">
     <path d="M 61.4925 984.80625 
L 97.4925 984.80625 
L 133.4925 984.80625 
" style="fill: none; stroke: #fde725; stroke-width: 7; stroke-linecap: round"/>
    </g>
    <g id="text_16">
     <text style="fill: #262626; font: 36px 'sans-serif'; text-anchor: start" x="162.2925" y="997.40625" transform="rotate(-0 162.2925 997.40625)">Random Forest (ROC AUC = 0.94)</text>
    </g>
    <g id="line2d_5">
     <path d="M 61.4925 1037.6475 
L 97.4925 1037.6475 
L 133.4925 1037.6475 
" style="fill: none; stroke: #1f988b; stroke-width: 7; stroke-linecap: round"/>
    </g>
    <g id="text_17">
     <text style="fill: #262626; font: 36px 'sans-serif'; text-anchor: start" x="162.2925" y="1050.2475" transform="rotate(-0 162.2925 1050.2475)">Logistic Regression (ROC AUC = 0.77)</text>
    </g>
    <g id="line2d_6">
     <path d="M 61.4925 1090.48875 
L 97.4925 1090.48875 
L 133.4925 1090.48875 
" style="fill: none; stroke: #440154; stroke-width: 7; stroke-linecap: round"/>
    </g>
    <g id="text_18">
     <text style="fill: #262626; font: 36px 'sans-serif'; text-anchor: start" x="162.2925" y="1103.08875" transform="rotate(-0 162.2925 1103.08875)">Support Vector Machine (ROC AUC = 0.84)</text>
    </g>
   </g>
  </g>
 </g>
 <defs>
  <clipPath id="p3b230c592d">
   <rect x="112.7925" y="40.711875" width="837" height="815.4"/>
  </clipPath>
 </defs>
</svg>
