<?xml version="1.0" encoding="utf-8" standalone="no"?>
<!DOCTYPE svg PUBLIC "-//W3C//DTD SVG 1.1//EN"
  "http://www.w3.org/Graphics/SVG/1.1/DTD/svg11.dtd">
<svg xmlns:xlink="http://www.w3.org/1999/xlink" width="985.618125pt" height="1132.175625pt" viewBox="0 0 985.618125 1132.175625" xmlns="http://www.w3.org/2000/svg" version="1.1">
 <metadata>
  <rdf:RDF xmlns:dc="http://purl.org/dc/elements/1.1/" xmlns:cc="http://creativecommons.org/ns#" xmlns:rdf="http://www.w3.org/1999/02/22-rdf-syntax-ns#">
   <cc:Work>
    <dc:type rdf:resource="http://purl.org/dc/dcmitype/StillImage"/>
    <dc:date>2022-12-07T09:03:25.537392</dc:date>
    <dc:format>image/svg+xml</dc:format>
    <dc:creator>
     <cc:Agent>
      <dc:title>Matplotlib v3.6.0, https://matplotlib.org/</dc:title>
     </cc:Agent>
    </dc:creator>
   </cc:Work>
  </rdf:RDF>
 </metadata>
 <defs>
  <style type="text/css">*{stroke-linejoin: round; stroke-linecap: butt}</style>
 </defs>
 <g id="figure_1">
  <g id="patch_1">
   <path d="M 0 1132.175625 
L 985.618125 1132.175625 
L 985.618125 0 
L 0 0 
z
" style="fill: #ffffff"/>
  </g>
  <g id="axes_1">
   <g id="patch_2">
    <path d="M 112.7925 856.111875 
L 949.7925 856.111875 
L 949.7925 40.711875 
L 112.7925 40.711875 
z
" style="fill: #ffffff"/>
   </g>
   <g id="matplotlib.axis_1">
    <g id="xtick_1">
     <g id="text_1">
      <text style="fill: #262626; font: 36px 'sans-serif'; text-anchor: middle" x="112.7925" y="892.96625" transform="rotate(-0 112.7925 892.96625)">0.0</text>
     </g>
    </g>
    <g id="xtick_2">
     <g id="text_2">
      <text style="fill: #262626; font: 36px 'sans-serif'; text-anchor: middle" x="280.1925" y="892.96625" transform="rotate(-0 280.1925 892.96625)">0.2</text>
     </g>
    </g>
    <g id="xtick_3">
     <g id="text_3">
      <text style="fill: #262626; font: 36px 'sans-serif'; text-anchor: middle" x="447.5925" y="892.96625" transform="rotate(-0 447.5925 892.96625)">0.4</text>
     </g>
    </g>
    <g id="xtick_4">
     <g id="text_4">
      <text style="fill: #262626; font: 36px 'sans-serif'; text-anchor: middle" x="614.9925" y="892.96625" transform="rotate(-0 614.9925 892.96625)">0.6</text>
     </g>
    </g>
    <g id="xtick_5">
     <g id="text_5">
      <text style="fill: #262626; font: 36px 'sans-serif'; text-anchor: middle" x="782.3925" y="892.96625" transform="rotate(-0 782.3925 892.96625)">0.8</text>
     </g>
    </g>
    <g id="xtick_6">
     <g id="text_6">
      <text style="fill: #262626; font: 36px 'sans-serif'; text-anchor: middle" x="949.7925" y="892.96625" transform="rotate(-0 949.7925 892.96625)">1.0</text>
     </g>
    </g>
    <g id="text_7">
     <text style="fill: #262626; font: 36px 'sans-serif'; text-anchor: middle" x="531.2925" y="931.8075" transform="rotate(-0 531.2925 931.8075)">False Positive Rate</text>
    </g>
   </g>
   <g id="matplotlib.axis_2">
    <g id="ytick_1">
     <g id="text_8">
      <text style="fill: #262626; font: 36px 'sans-serif'; text-anchor: end" x="103.2925" y="869.789062" transform="rotate(-0 103.2925 869.789062)">0.0</text>
     </g>
    </g>
    <g id="ytick_2">
     <g id="text_9">
      <text style="fill: #262626; font: 36px 'sans-serif'; text-anchor: end" x="103.2925" y="706.709062" transform="rotate(-0 103.2925 706.709062)">0.2</text>
     </g>
    </g>
    <g id="ytick_3">
     <g id="text_10">
      <text style="fill: #262626; font: 36px 'sans-serif'; text-anchor: end" x="103.2925" y="543.629062" transform="rotate(-0 103.2925 543.629062)">0.4</text>
     </g>
    </g>
    <g id="ytick_4">
     <g id="text_11">
      <text style="fill: #262626; font: 36px 'sans-serif'; text-anchor: end" x="103.2925" y="380.549062" transform="rotate(-0 103.2925 380.549062)">0.6</text>
     </g>
    </g>
    <g id="ytick_5">
     <g id="text_12">
      <text style="fill: #262626; font: 36px 'sans-serif'; text-anchor: end" x="103.2925" y="217.469062" transform="rotate(-0 103.2925 217.469062)">0.8</text>
     </g>
    </g>
    <g id="ytick_6">
     <g id="text_13">
      <text style="fill: #262626; font: 36px 'sans-serif'; text-anchor: end" x="103.2925" y="54.389062" transform="rotate(-0 103.2925 54.389062)">1.0</text>
     </g>
    </g>
    <g id="text_14">
     <text style="fill: #262626; font: 36px 'sans-serif'; text-anchor: middle" x="34.554375" y="448.411875" transform="rotate(-90 34.554375 448.411875)">True Positive Rate</text>
    </g>
   </g>
   <g id="line2d_1">
    <path d="M 112.7925 856.111875 
L 112.7925 681.383304 
L 116.797285 596.66642 
L 116.797285 527.833953 
L 120.802069 474.885901 
L 120.802069 390.169018 
L 120.802069 368.989797 
L 120.802069 326.631356 
L 120.802069 300.15733 
L 120.802069 289.567719 
L 124.806854 273.683304 
L 124.806854 231.324862 
L 124.806854 220.735252 
L 124.806854 204.850836 
L 128.811639 194.261226 
L 128.811639 173.082005 
L 128.811639 162.492394 
L 132.816423 157.197589 
L 140.825993 157.197589 
L 140.825993 151.902784 
L 144.830778 151.902784 
L 144.830778 141.313174 
L 144.830778 125.428758 
L 148.835562 125.428758 
L 152.840347 114.839148 
L 152.840347 109.544343 
L 156.845132 109.544343 
L 164.854701 98.954732 
L 164.854701 93.659927 
L 168.859486 93.659927 
L 172.86427 88.365122 
L 172.86427 83.070317 
L 204.902548 83.070317 
L 208.907333 77.775511 
L 212.912117 77.775511 
L 212.912117 72.480706 
L 220.921687 72.480706 
L 228.931256 67.185901 
L 232.936041 67.185901 
L 236.940825 61.891096 
L 244.950395 61.891096 
L 260.969533 56.596291 
L 264.974318 56.596291 
L 272.983888 56.596291 
L 289.003026 56.596291 
L 321.041304 51.301485 
L 373.103505 46.00668 
L 465.213553 46.00668 
L 949.7925 40.711875 
" clip-path="url(#p0a7549be41)" style="fill: none; stroke: #fde725; stroke-width: 7; stroke-linecap: round"/>
   </g>
   <g id="PathCollection_1">
    <defs>
     <path id="m4e23f0094c" d="M 0 11.18034 
C 2.965061 11.18034 5.80908 10.002309 7.905694 7.905694 
C 10.002309 5.80908 11.18034 2.965061 11.18034 0 
C 11.18034 -2.965061 10.002309 -5.80908 7.905694 -7.905694 
C 5.80908 -10.002309 2.965061 -11.18034 0 -11.18034 
C -2.965061 -11.18034 -5.80908 -10.002309 -7.905694 -7.905694 
C -10.002309 -5.80908 -11.18034 -2.965061 -11.18034 0 
C -11.18034 2.965061 -10.002309 5.80908 -7.905694 7.905694 
C -5.80908 10.002309 -2.965061 11.18034 0 11.18034 
z
" style="stroke: #1a1a1a"/>
    </defs>
    <g clip-path="url(#p0a7549be41)">
     <use xlink:href="#m4e23f0094c" x="156.845132" y="109.544343" style="fill: #1a1a1a; stroke: #1a1a1a"/>
    </g>
   </g>
   <g id="line2d_2">
    <path d="M 112.7925 856.111875 
L 112.7925 850.81707 
L 112.7925 771.394992 
L 116.797285 771.394992 
L 116.797285 639.024862 
L 120.802069 639.024862 
L 120.802069 448.411875 
L 124.806854 448.411875 
L 124.806854 358.400187 
L 128.811639 358.400187 
L 128.811639 220.735252 
L 132.816423 220.735252 
L 132.816423 167.7872 
L 136.821208 167.7872 
L 136.821208 162.492394 
L 144.830778 162.492394 
L 144.830778 157.197589 
L 148.835562 157.197589 
L 148.835562 141.313174 
L 152.840347 141.313174 
L 152.840347 125.428758 
L 156.845132 125.428758 
L 156.845132 120.133953 
L 160.849916 120.133953 
L 160.849916 104.249537 
L 164.854701 104.249537 
L 164.854701 83.070317 
L 168.859486 83.070317 
L 168.859486 77.775511 
L 172.86427 77.775511 
L 172.86427 72.480706 
L 248.955179 72.480706 
L 248.955179 67.185901 
L 272.983888 67.185901 
L 272.983888 61.891096 
L 297.012596 61.891096 
L 297.012596 56.596291 
L 417.156136 56.596291 
L 417.156136 51.301485 
L 465.213553 51.301485 
L 465.213553 46.00668 
L 893.725514 46.00668 
L 893.725514 40.711875 
L 949.7925 40.711875 
" clip-path="url(#p0a7549be41)" style="fill: none; stroke: #1f988b; stroke-width: 7; stroke-linecap: round"/>
   </g>
   <g id="PathCollection_2">
    <g clip-path="url(#p0a7549be41)">
     <use xlink:href="#m4e23f0094c" x="160.849916" y="114.839148" style="fill: #1a1a1a; stroke: #1a1a1a"/>
    </g>
   </g>
   <g id="PathCollection_3">
    <g clip-path="url(#p0a7549be41)">
     <use xlink:href="#m4e23f0094c" x="164.854701" y="125.428758" style="fill: #1a1a1a; stroke: #1a1a1a"/>
    </g>
   </g>
   <g id="line2d_3">
    <path d="M 112.7925 856.111875 
L 116.797285 856.111875 
L 116.797285 464.296291 
L 120.802069 464.296291 
L 120.802069 374.284602 
L 124.806854 374.284602 
L 124.806854 305.452135 
L 132.816423 305.452135 
L 132.816423 294.862524 
L 136.821208 294.862524 
L 136.821208 273.683304 
L 140.825993 273.683304 
L 140.825993 226.030057 
L 144.830778 226.030057 
L 144.830778 210.145641 
L 148.835562 210.145641 
L 148.835562 204.850836 
L 156.845132 204.850836 
L 156.845132 136.018369 
L 160.849916 136.018369 
L 160.849916 125.428758 
L 164.854701 125.428758 
L 164.854701 114.839148 
L 168.859486 114.839148 
L 168.859486 109.544343 
L 172.86427 109.544343 
L 172.86427 98.954732 
L 176.869055 98.954732 
L 176.869055 93.659927 
L 184.878624 93.659927 
L 184.878624 83.070317 
L 188.883409 83.070317 
L 188.883409 77.775511 
L 200.897763 77.775511 
L 200.897763 67.185901 
L 260.969533 67.185901 
L 260.969533 61.891096 
L 501.256615 61.891096 
L 501.256615 51.301485 
L 613.390586 51.301485 
L 613.390586 46.00668 
L 745.548481 46.00668 
L 745.548481 40.711875 
L 949.7925 40.711875 
" clip-path="url(#p0a7549be41)" style="fill: none; stroke: #440154; stroke-width: 7; stroke-linecap: round"/>
   </g>
   <g id="patch_3">
    <path d="M 112.7925 856.111875 
L 112.7925 40.711875 
" style="fill: none; stroke: #262626; stroke-width: 1.25; stroke-linejoin: miter; stroke-linecap: square"/>
   </g>
   <g id="patch_4">
    <path d="M 949.7925 856.111875 
L 949.7925 40.711875 
" style="fill: none; stroke: #262626; stroke-width: 1.25; stroke-linejoin: miter; stroke-linecap: square"/>
   </g>
   <g id="patch_5">
    <path d="M 112.7925 856.111875 
L 949.7925 856.111875 
" style="fill: none; stroke: #262626; stroke-width: 1.25; stroke-linejoin: miter; stroke-linecap: square"/>
   </g>
   <g id="patch_6">
    <path d="M 112.7925 40.711875 
L 949.7925 40.711875 
" style="fill: none; stroke: #262626; stroke-width: 1.25; stroke-linejoin: miter; stroke-linecap: square"/>
   </g>
   <g id="text_15">
    <text style="fill: #262626; font: 36px 'sans-serif'; text-anchor: middle" x="531.2925" y="34.711875" transform="rotate(-0 531.2925 34.711875)">SF2. B Cells | class_weight: None</text>
   </g>
   <g id="legend_1">
    <g id="patch_7">
     <path d="M 54.2925 1124.975625 
L 938.896875 1124.975625 
Q 946.096875 1124.975625 946.096875 1117.775625 
L 946.096875 962.851875 
Q 946.096875 955.651875 938.896875 955.651875 
L 54.2925 955.651875 
Q 47.0925 955.651875 47.0925 962.851875 
L 47.0925 1117.775625 
Q 47.0925 1124.975625 54.2925 1124.975625 
z
" style="fill: #ffffff; opacity: 0.8; stroke: #cccccc; stroke-linejoin: miter"/>
    </g>
    <g id="line2d_4">
     <path d="M 61.4925 984.80625 
L 97.4925 984.80625 
L 133.4925 984.80625 
" style="fill: none; stroke: #fde725; stroke-width: 7; stroke-linecap: round"/>
    </g>
    <g id="text_16">
     <text style="fill: #262626; font: 36px 'sans-serif'; text-anchor: start" x="162.2925" y="997.40625" transform="rotate(-0 162.2925 997.40625)">Random Forest (ROC AUC = 0.98)</text>
    </g>
    <g id="line2d_5">
     <path d="M 61.4925 1037.6475 
L 97.4925 1037.6475 
L 133.4925 1037.6475 
" style="fill: none; stroke: #1f988b; stroke-width: 7; stroke-linecap: round"/>
    </g>
    <g id="text_17">
     <text style="fill: #262626; font: 36px 'sans-serif'; text-anchor: start" x="162.2925" y="1050.2475" transform="rotate(-0 162.2925 1050.2475)">Logistic Regression (ROC AUC = 0.97)</text>
    </g>
    <g id="line2d_6">
     <path d="M 61.4925 1090.48875 
L 97.4925 1090.48875 
L 133.4925 1090.48875 
" style="fill: none; stroke: #440154; stroke-width: 7; stroke-linecap: round"/>
    </g>
    <g id="text_18">
     <text style="fill: #262626; font: 36px 'sans-serif'; text-anchor: start" x="162.2925" y="1103.08875" transform="rotate(-0 162.2925 1103.08875)">Support Vector Machine (ROC AUC = 0.96)</text>
    </g>
   </g>
  </g>
 </g>
 <defs>
  <clipPath id="p0a7549be41">
   <rect x="112.7925" y="40.711875" width="837" height="815.4"/>
  </clipPath>
 </defs>
</svg>
