<?xml version="1.0" encoding="utf-8" standalone="no"?>
<!DOCTYPE svg PUBLIC "-//W3C//DTD SVG 1.1//EN"
  "http://www.w3.org/Graphics/SVG/1.1/DTD/svg11.dtd">
<svg xmlns:xlink="http://www.w3.org/1999/xlink" width="985.618125pt" height="1343.383125pt" viewBox="0 0 985.618125 1343.383125" xmlns="http://www.w3.org/2000/svg" version="1.1">
 <metadata>
  <rdf:RDF xmlns:dc="http://purl.org/dc/elements/1.1/" xmlns:cc="http://creativecommons.org/ns#" xmlns:rdf="http://www.w3.org/1999/02/22-rdf-syntax-ns#">
   <cc:Work>
    <dc:type rdf:resource="http://purl.org/dc/dcmitype/StillImage"/>
    <dc:date>2022-12-07T08:58:57.716767</dc:date>
    <dc:format>image/svg+xml</dc:format>
    <dc:creator>
     <cc:Agent>
      <dc:title>Matplotlib v3.6.0, https://matplotlib.org/</dc:title>
     </cc:Agent>
    </dc:creator>
   </cc:Work>
  </rdf:RDF>
 </metadata>
 <defs>
  <style type="text/css">*{stroke-linejoin: round; stroke-linecap: butt}</style>
 </defs>
 <g id="figure_1">
  <g id="patch_1">
   <path d="M 0 1343.383125 
L 985.618125 1343.383125 
L 985.618125 0 
L 0 0 
z
" style="fill: #ffffff"/>
  </g>
  <g id="axes_1">
   <g id="patch_2">
    <path d="M 112.7925 855.954375 
L 949.7925 855.954375 
L 949.7925 40.554375 
L 112.7925 40.554375 
z
" style="fill: #ffffff"/>
   </g>
   <g id="matplotlib.axis_1">
    <g id="xtick_1">
     <g id="text_1">
      <text style="fill: #262626; font: 36px 'sans-serif'; text-anchor: middle" x="112.7925" y="892.80875" transform="rotate(-0 112.7925 892.80875)">0.0</text>
     </g>
    </g>
    <g id="xtick_2">
     <g id="text_2">
      <text style="fill: #262626; font: 36px 'sans-serif'; text-anchor: middle" x="280.1925" y="892.80875" transform="rotate(-0 280.1925 892.80875)">0.2</text>
     </g>
    </g>
    <g id="xtick_3">
     <g id="text_3">
      <text style="fill: #262626; font: 36px 'sans-serif'; text-anchor: middle" x="447.5925" y="892.80875" transform="rotate(-0 447.5925 892.80875)">0.4</text>
     </g>
    </g>
    <g id="xtick_4">
     <g id="text_4">
      <text style="fill: #262626; font: 36px 'sans-serif'; text-anchor: middle" x="614.9925" y="892.80875" transform="rotate(-0 614.9925 892.80875)">0.6</text>
     </g>
    </g>
    <g id="xtick_5">
     <g id="text_5">
      <text style="fill: #262626; font: 36px 'sans-serif'; text-anchor: middle" x="782.3925" y="892.80875" transform="rotate(-0 782.3925 892.80875)">0.8</text>
     </g>
    </g>
    <g id="xtick_6">
     <g id="text_6">
      <text style="fill: #262626; font: 36px 'sans-serif'; text-anchor: middle" x="949.7925" y="892.80875" transform="rotate(-0 949.7925 892.80875)">1.0</text>
     </g>
    </g>
    <g id="text_7">
     <text style="fill: #262626; font: 36px 'sans-serif'; text-anchor: middle" x="531.2925" y="931.65" transform="rotate(-0 531.2925 931.65)">False Positive Rate</text>
    </g>
   </g>
   <g id="matplotlib.axis_2">
    <g id="ytick_1">
     <g id="text_8">
      <text style="fill: #262626; font: 36px 'sans-serif'; text-anchor: end" x="103.2925" y="869.631562" transform="rotate(-0 103.2925 869.631562)">0.0</text>
     </g>
    </g>
    <g id="ytick_2">
     <g id="text_9">
      <text style="fill: #262626; font: 36px 'sans-serif'; text-anchor: end" x="103.2925" y="706.551562" transform="rotate(-0 103.2925 706.551562)">0.2</text>
     </g>
    </g>
    <g id="ytick_3">
     <g id="text_10">
      <text style="fill: #262626; font: 36px 'sans-serif'; text-anchor: end" x="103.2925" y="543.471562" transform="rotate(-0 103.2925 543.471562)">0.4</text>
     </g>
    </g>
    <g id="ytick_4">
     <g id="text_11">
      <text style="fill: #262626; font: 36px 'sans-serif'; text-anchor: end" x="103.2925" y="380.391562" transform="rotate(-0 103.2925 380.391562)">0.6</text>
     </g>
    </g>
    <g id="ytick_5">
     <g id="text_12">
      <text style="fill: #262626; font: 36px 'sans-serif'; text-anchor: end" x="103.2925" y="217.311562" transform="rotate(-0 103.2925 217.311562)">0.8</text>
     </g>
    </g>
    <g id="ytick_6">
     <g id="text_13">
      <text style="fill: #262626; font: 36px 'sans-serif'; text-anchor: end" x="103.2925" y="54.231562" transform="rotate(-0 103.2925 54.231562)">1.0</text>
     </g>
    </g>
    <g id="text_14">
     <text style="fill: #262626; font: 36px 'sans-serif'; text-anchor: middle" x="34.554375" y="448.254375" transform="rotate(-90 34.554375 448.254375)">True Positive Rate</text>
    </g>
   </g>
   <g id="line2d_1">
    <path d="M 112.7925 855.954375 
L 112.7925 681.225804 
L 116.797285 596.50892 
L 116.797285 527.676453 
L 120.802069 474.728401 
L 120.802069 390.011518 
L 120.802069 368.832297 
L 120.802069 326.473856 
L 120.802069 299.99983 
L 120.802069 289.410219 
L 124.806854 273.525804 
L 124.806854 231.167362 
L 124.806854 220.577752 
L 124.806854 204.693336 
L 128.811639 194.103726 
L 128.811639 172.924505 
L 128.811639 162.334894 
L 132.816423 157.040089 
L 140.825993 157.040089 
L 140.825993 151.745284 
L 144.830778 151.745284 
L 144.830778 141.155674 
L 144.830778 125.271258 
L 148.835562 125.271258 
L 152.840347 114.681648 
L 152.840347 109.386843 
L 156.845132 109.386843 
L 164.854701 98.797232 
L 164.854701 93.502427 
L 168.859486 93.502427 
L 172.86427 88.207622 
L 172.86427 82.912817 
L 204.902548 82.912817 
L 208.907333 77.618011 
L 212.912117 77.618011 
L 212.912117 72.323206 
L 220.921687 72.323206 
L 228.931256 67.028401 
L 232.936041 67.028401 
L 236.940825 61.733596 
L 244.950395 61.733596 
L 260.969533 56.438791 
L 264.974318 56.438791 
L 272.983888 56.438791 
L 289.003026 56.438791 
L 321.041304 51.143985 
L 373.103505 45.84918 
L 465.213553 45.84918 
L 949.7925 40.554375 
" clip-path="url(#peabc1f7c0e)" style="fill: none; stroke: #fde725; stroke-width: 5; stroke-linecap: round"/>
   </g>
   <g id="PathCollection_1">
    <defs>
     <path id="mfb8e56b39c" d="M 0 11.18034 
C 2.965061 11.18034 5.80908 10.002309 7.905694 7.905694 
C 10.002309 5.80908 11.18034 2.965061 11.18034 0 
C 11.18034 -2.965061 10.002309 -5.80908 7.905694 -7.905694 
C 5.80908 -10.002309 2.965061 -11.18034 0 -11.18034 
C -2.965061 -11.18034 -5.80908 -10.002309 -7.905694 -7.905694 
C -10.002309 -5.80908 -11.18034 -2.965061 -11.18034 0 
C -11.18034 2.965061 -10.002309 5.80908 -7.905694 7.905694 
C -5.80908 10.002309 -2.965061 11.18034 0 11.18034 
z
" style="stroke: #1a1a1a"/>
    </defs>
    <g clip-path="url(#peabc1f7c0e)">
     <use xlink:href="#mfb8e56b39c" x="156.845132" y="109.386843" style="fill: #1a1a1a; stroke: #1a1a1a"/>
    </g>
   </g>
   <g id="line2d_2">
    <path d="M 112.7925 855.954375 
L 120.802069 596.50892 
L 120.802069 548.855674 
L 120.802069 490.612817 
L 120.802069 442.95957 
L 120.802069 411.190739 
L 124.806854 400.601128 
L 124.806854 368.832297 
L 124.806854 331.768661 
L 128.811639 315.884245 
L 128.811639 294.705024 
L 136.821208 284.115414 
L 136.821208 268.230998 
L 136.821208 257.641388 
L 140.825993 247.051778 
L 140.825993 241.756972 
L 140.825993 231.167362 
L 144.830778 220.577752 
L 144.830778 209.988141 
L 148.835562 199.398531 
L 148.835562 188.80892 
L 148.835562 183.514115 
L 152.840347 172.924505 
L 152.840347 157.040089 
L 152.840347 146.450479 
L 156.845132 146.450479 
L 156.845132 141.155674 
L 160.849916 141.155674 
L 164.854701 135.860869 
L 164.854701 125.271258 
L 164.854701 104.092037 
L 168.859486 93.502427 
L 168.859486 88.207622 
L 172.86427 88.207622 
L 172.86427 77.618011 
L 180.87384 77.618011 
L 180.87384 67.028401 
L 188.883409 67.028401 
L 196.892978 67.028401 
L 204.902548 67.028401 
L 216.916902 51.143985 
L 224.926471 51.143985 
L 236.940825 51.143985 
L 244.950395 51.143985 
L 260.969533 51.143985 
L 268.979103 51.143985 
L 272.983888 45.84918 
L 313.031734 45.84918 
L 337.060443 45.84918 
L 401.136998 40.554375 
L 493.247045 40.554375 
L 949.7925 40.554375 
" clip-path="url(#peabc1f7c0e)" style="fill: none; stroke: #a5db36; stroke-width: 5; stroke-linecap: round"/>
   </g>
   <g id="PathCollection_2">
    <g clip-path="url(#peabc1f7c0e)">
     <use xlink:href="#mfb8e56b39c" x="164.854701" y="114.681648" style="fill: #1a1a1a; stroke: #1a1a1a"/>
    </g>
   </g>
   <g id="line2d_3">
    <path d="M 112.7925 855.954375 
L 116.797285 580.624505 
L 116.797285 522.381648 
L 116.797285 480.023206 
L 116.797285 421.780349 
L 124.806854 400.601128 
L 124.806854 368.832297 
L 128.811639 347.653076 
L 128.811639 331.768661 
L 128.811639 310.58944 
L 128.811639 289.410219 
L 132.816423 268.230998 
L 136.821208 257.641388 
L 140.825993 236.462167 
L 144.830778 231.167362 
L 144.830778 209.988141 
L 144.830778 204.693336 
L 144.830778 194.103726 
L 148.835562 183.514115 
L 148.835562 167.6297 
L 156.845132 167.6297 
L 160.849916 167.6297 
L 160.849916 157.040089 
L 160.849916 146.450479 
L 164.854701 146.450479 
L 164.854701 135.860869 
L 164.854701 125.271258 
L 164.854701 104.092037 
L 164.854701 93.502427 
L 168.859486 93.502427 
L 172.86427 88.207622 
L 180.87384 88.207622 
L 180.87384 82.912817 
L 184.878624 77.618011 
L 188.883409 77.618011 
L 188.883409 72.323206 
L 200.897763 72.323206 
L 212.912117 72.323206 
L 212.912117 67.028401 
L 220.921687 67.028401 
L 224.926471 61.733596 
L 224.926471 56.438791 
L 232.936041 56.438791 
L 248.955179 56.438791 
L 256.964749 56.438791 
L 272.983888 56.438791 
L 276.988672 56.438791 
L 293.007811 51.143985 
L 317.036519 51.143985 
L 353.079581 51.143985 
L 401.136998 45.84918 
L 469.218337 40.554375 
L 949.7925 40.554375 
" clip-path="url(#peabc1f7c0e)" style="fill: none; stroke: #4ac16d; stroke-width: 5; stroke-linecap: round"/>
   </g>
   <g id="PathCollection_3">
    <g clip-path="url(#peabc1f7c0e)">
     <use xlink:href="#mfb8e56b39c" x="168.859486" y="93.502427" style="fill: #1a1a1a; stroke: #1a1a1a"/>
    </g>
   </g>
   <g id="line2d_4">
    <path d="M 112.7925 855.954375 
L 116.797285 617.688141 
L 116.797285 538.266063 
L 116.797285 501.202427 
L 120.802069 469.433596 
L 120.802069 405.895933 
L 120.802069 390.011518 
L 124.806854 374.127102 
L 132.816423 363.537492 
L 136.821208 347.653076 
L 136.821208 315.884245 
L 140.825993 310.58944 
L 144.830778 294.705024 
L 148.835562 273.525804 
L 148.835562 257.641388 
L 148.835562 247.051778 
L 152.840347 236.462167 
L 152.840347 225.872557 
L 156.845132 225.872557 
L 156.845132 220.577752 
L 164.854701 215.282946 
L 164.854701 194.103726 
L 164.854701 178.21931 
L 164.854701 167.6297 
L 168.859486 162.334894 
L 168.859486 157.040089 
L 172.86427 146.450479 
L 172.86427 135.860869 
L 172.86427 104.092037 
L 172.86427 93.502427 
L 172.86427 88.207622 
L 188.883409 88.207622 
L 196.892978 77.618011 
L 200.897763 77.618011 
L 216.916902 77.618011 
L 216.916902 72.323206 
L 232.936041 72.323206 
L 236.940825 67.028401 
L 244.950395 67.028401 
L 260.969533 67.028401 
L 268.979103 61.733596 
L 272.983888 61.733596 
L 289.003026 61.733596 
L 309.02695 61.733596 
L 317.036519 61.733596 
L 353.079581 61.733596 
L 377.108289 61.733596 
L 433.175275 61.733596 
L 537.299677 61.733596 
L 949.7925 40.554375 
" clip-path="url(#peabc1f7c0e)" style="fill: none; stroke: #1f988b; stroke-width: 5; stroke-linecap: round"/>
   </g>
   <g id="PathCollection_4">
    <g clip-path="url(#peabc1f7c0e)">
     <use xlink:href="#mfb8e56b39c" x="172.86427" y="93.502427" style="fill: #1a1a1a; stroke: #1a1a1a"/>
    </g>
   </g>
   <g id="line2d_5">
    <path d="M 112.7925 855.954375 
L 128.811639 532.971258 
L 132.816423 474.728401 
L 132.816423 448.254375 
L 132.816423 384.716713 
L 132.816423 358.242687 
L 136.821208 342.358271 
L 136.821208 321.17905 
L 140.825993 299.99983 
L 140.825993 289.410219 
L 144.830778 278.820609 
L 148.835562 273.525804 
L 152.840347 252.346583 
L 152.840347 241.756972 
L 152.840347 225.872557 
L 156.845132 220.577752 
L 160.849916 220.577752 
L 164.854701 215.282946 
L 164.854701 209.988141 
L 168.859486 204.693336 
L 168.859486 172.924505 
L 168.859486 162.334894 
L 168.859486 146.450479 
L 172.86427 135.860869 
L 172.86427 114.681648 
L 180.87384 109.386843 
L 180.87384 98.797232 
L 184.878624 98.797232 
L 184.878624 88.207622 
L 192.888194 88.207622 
L 192.888194 82.912817 
L 196.892978 82.912817 
L 196.892978 77.618011 
L 204.902548 72.323206 
L 216.916902 72.323206 
L 232.936041 72.323206 
L 244.950395 72.323206 
L 248.955179 67.028401 
L 252.959964 67.028401 
L 264.974318 67.028401 
L 280.993457 67.028401 
L 284.998242 67.028401 
L 317.036519 67.028401 
L 385.117859 67.028401 
L 453.199199 61.733596 
L 949.7925 40.554375 
" clip-path="url(#peabc1f7c0e)" style="fill: none; stroke: #2a788e; stroke-width: 5; stroke-linecap: round"/>
   </g>
   <g id="PathCollection_5">
    <g clip-path="url(#peabc1f7c0e)">
     <use xlink:href="#mfb8e56b39c" x="180.87384" y="104.092037" style="fill: #1a1a1a; stroke: #1a1a1a"/>
    </g>
   </g>
   <g id="line2d_6">
    <path d="M 112.7925 855.954375 
L 152.840347 342.358271 
L 160.849916 315.884245 
L 160.849916 299.99983 
L 160.849916 278.820609 
L 160.849916 268.230998 
L 160.849916 236.462167 
L 160.849916 225.872557 
L 160.849916 220.577752 
L 160.849916 209.988141 
L 160.849916 199.398531 
L 168.859486 199.398531 
L 168.859486 188.80892 
L 168.859486 183.514115 
L 168.859486 172.924505 
L 172.86427 172.924505 
L 172.86427 167.6297 
L 172.86427 157.040089 
L 180.87384 157.040089 
L 180.87384 151.745284 
L 192.888194 151.745284 
L 192.888194 135.860869 
L 196.892978 119.976453 
L 200.897763 119.976453 
L 200.897763 109.386843 
L 208.907333 104.092037 
L 208.907333 93.502427 
L 216.916902 93.502427 
L 232.936041 93.502427 
L 236.940825 88.207622 
L 244.950395 88.207622 
L 248.955179 82.912817 
L 248.955179 72.323206 
L 252.959964 72.323206 
L 272.983888 72.323206 
L 949.7925 40.554375 
" clip-path="url(#peabc1f7c0e)" style="fill: none; stroke: #414487; stroke-width: 5; stroke-linecap: round"/>
   </g>
   <g id="PathCollection_6">
    <g clip-path="url(#peabc1f7c0e)">
     <use xlink:href="#mfb8e56b39c" x="192.888194" y="146.450479" style="fill: #1a1a1a; stroke: #1a1a1a"/>
    </g>
   </g>
   <g id="line2d_7">
    <path d="M 112.7925 855.954375 
L 116.797285 734.173856 
L 120.802069 718.28944 
L 124.806854 712.994635 
L 132.816423 697.110219 
L 136.821208 691.815414 
L 144.830778 681.225804 
L 148.835562 675.930998 
L 148.835562 665.341388 
L 148.835562 660.046583 
L 152.840347 628.277752 
L 164.854701 622.982946 
L 168.859486 612.393336 
L 188.883409 601.803726 
L 192.888194 601.803726 
L 192.888194 596.50892 
L 204.902548 596.50892 
L 220.921687 596.50892 
L 220.921687 591.214115 
L 224.926471 591.214115 
L 228.931256 585.91931 
L 232.936041 575.3297 
L 244.950395 559.445284 
L 244.950395 548.855674 
L 248.955179 538.266063 
L 248.955179 527.676453 
L 252.959964 527.676453 
L 260.969533 527.676453 
L 272.983888 522.381648 
L 276.988672 511.792037 
L 276.988672 490.612817 
L 289.003026 474.728401 
L 289.003026 464.138791 
L 293.007811 453.54918 
L 309.02695 453.54918 
L 317.036519 453.54918 
L 329.050873 448.254375 
L 337.060443 448.254375 
L 337.060443 437.664765 
L 337.060443 421.780349 
L 341.065227 421.780349 
L 345.070012 400.601128 
L 345.070012 395.306323 
L 349.074797 390.011518 
L 361.089151 384.716713 
L 369.09872 374.127102 
L 381.113074 368.832297 
L 385.117859 358.242687 
L 405.141782 347.653076 
L 409.146567 331.768661 
L 413.151352 331.768661 
L 421.160921 326.473856 
L 437.18006 326.473856 
L 453.199199 321.17905 
L 457.203983 321.17905 
L 465.213553 305.294635 
L 469.218337 299.99983 
L 469.218337 289.410219 
L 481.232691 289.410219 
L 489.242261 284.115414 
L 489.242261 278.820609 
L 493.247045 278.820609 
L 505.2614 268.230998 
L 509.266184 257.641388 
L 521.280538 257.641388 
L 529.290108 257.641388 
L 545.309246 241.756972 
L 561.328385 236.462167 
L 565.33317 215.282946 
L 581.352309 215.282946 
L 605.381017 209.988141 
L 613.390586 194.103726 
L 641.424079 183.514115 
L 673.462356 172.924505 
L 697.491065 157.040089 
L 949.7925 40.554375 
" clip-path="url(#peabc1f7c0e)" style="fill: none; stroke: #440154; stroke-width: 5; stroke-linecap: round"/>
   </g>
   <g id="PathCollection_7">
    <g clip-path="url(#peabc1f7c0e)">
     <use xlink:href="#mfb8e56b39c" x="337.060443" y="448.254375" style="fill: #1a1a1a; stroke: #1a1a1a"/>
    </g>
   </g>
   <g id="patch_3">
    <path d="M 112.7925 855.954375 
L 112.7925 40.554375 
" style="fill: none; stroke: #262626; stroke-width: 1.25; stroke-linejoin: miter; stroke-linecap: square"/>
   </g>
   <g id="patch_4">
    <path d="M 949.7925 855.954375 
L 949.7925 40.554375 
" style="fill: none; stroke: #262626; stroke-width: 1.25; stroke-linejoin: miter; stroke-linecap: square"/>
   </g>
   <g id="patch_5">
    <path d="M 112.7925 855.954375 
L 949.7925 855.954375 
" style="fill: none; stroke: #262626; stroke-width: 1.25; stroke-linejoin: miter; stroke-linecap: square"/>
   </g>
   <g id="patch_6">
    <path d="M 112.7925 40.554375 
L 949.7925 40.554375 
" style="fill: none; stroke: #262626; stroke-width: 1.25; stroke-linejoin: miter; stroke-linecap: square"/>
   </g>
   <g id="text_15">
    <text style="fill: #262626; font: 36px 'sans-serif'; text-anchor: middle" x="531.2925" y="34.554375" transform="rotate(-0 531.2925 34.554375)">Figure 2. Bcells</text>
   </g>
   <g id="legend_1">
    <g id="patch_7">
     <path d="M 54.2925 1336.183125 
L 865.164375 1336.183125 
Q 872.364375 1336.183125 872.364375 1328.983125 
L 872.364375 962.694375 
Q 872.364375 955.494375 865.164375 955.494375 
L 54.2925 955.494375 
Q 47.0925 955.494375 47.0925 962.694375 
L 47.0925 1328.983125 
Q 47.0925 1336.183125 54.2925 1336.183125 
z
" style="fill: #ffffff; opacity: 0.8; stroke: #cccccc; stroke-linejoin: miter"/>
    </g>
    <g id="line2d_8">
     <path d="M 61.4925 984.64875 
L 97.4925 984.64875 
L 133.4925 984.64875 
" style="fill: none; stroke: #fde725; stroke-width: 5; stroke-linecap: round"/>
    </g>
    <g id="text_16">
     <text style="fill: #262626; font: 36px 'sans-serif'; text-anchor: start" x="162.2925" y="997.24875" transform="rotate(-0 162.2925 997.24875)">All variables (ROC AUC = 0.98)</text>
    </g>
    <g id="line2d_9">
     <path d="M 61.4925 1037.49 
L 97.4925 1037.49 
L 133.4925 1037.49 
" style="fill: none; stroke: #a5db36; stroke-width: 5; stroke-linecap: round"/>
    </g>
    <g id="text_17">
     <text style="fill: #262626; font: 36px 'sans-serif'; text-anchor: start" x="162.2925" y="1050.09" transform="rotate(-0 162.2925 1050.09)">NAD(P)H variables (ROC AUC = 0.98)</text>
    </g>
    <g id="line2d_10">
     <path d="M 61.4925 1090.33125 
L 97.4925 1090.33125 
L 133.4925 1090.33125 
" style="fill: none; stroke: #4ac16d; stroke-width: 5; stroke-linecap: round"/>
    </g>
    <g id="text_18">
     <text style="fill: #262626; font: 36px 'sans-serif'; text-anchor: start" x="162.2925" y="1102.93125" transform="rotate(-0 162.2925 1102.93125)">Top four variables (ROC AUC) = 0.97)</text>
    </g>
    <g id="line2d_11">
     <path d="M 61.4925 1143.1725 
L 97.4925 1143.1725 
L 133.4925 1143.1725 
" style="fill: none; stroke: #1f988b; stroke-width: 5; stroke-linecap: round"/>
    </g>
    <g id="text_19">
     <text style="fill: #262626; font: 36px 'sans-serif'; text-anchor: start" x="162.2925" y="1155.7725" transform="rotate(-0 162.2925 1155.7725)">Top three variables (ROC AUC) = 0.96)</text>
    </g>
    <g id="line2d_12">
     <path d="M 61.4925 1196.01375 
L 97.4925 1196.01375 
L 133.4925 1196.01375 
" style="fill: none; stroke: #2a788e; stroke-width: 5; stroke-linecap: round"/>
    </g>
    <g id="text_20">
     <text style="fill: #262626; font: 36px 'sans-serif'; text-anchor: start" x="162.2925" y="1208.61375" transform="rotate(-0 162.2925 1208.61375)">Top two variables (ROC AUC) = 0.95)</text>
    </g>
    <g id="line2d_13">
     <path d="M 61.4925 1248.855 
L 97.4925 1248.855 
L 133.4925 1248.855 
" style="fill: none; stroke: #414487; stroke-width: 5; stroke-linecap: round"/>
    </g>
    <g id="text_21">
     <text style="fill: #262626; font: 36px 'sans-serif'; text-anchor: start" x="162.2925" y="1261.455" transform="rotate(-0 162.2925 1261.455)">Top variable (ROC AUC) = 0.94)</text>
    </g>
    <g id="line2d_14">
     <path d="M 61.4925 1301.69625 
L 97.4925 1301.69625 
L 133.4925 1301.69625 
" style="fill: none; stroke: #440154; stroke-width: 5; stroke-linecap: round"/>
    </g>
    <g id="text_22">
     <text style="fill: #262626; font: 36px 'sans-serif'; text-anchor: start" x="162.2925" y="1314.29625" transform="rotate(-0 162.2925 1314.29625)">Norm. Redox Ratio (ROC AUC) = 0.68)</text>
    </g>
   </g>
  </g>
 </g>
 <defs>
  <clipPath id="peabc1f7c0e">
   <rect x="112.7925" y="40.554375" width="837" height="815.4"/>
  </clipPath>
 </defs>
</svg>
