<?xml version="1.0" encoding="utf-8" standalone="no"?>
<!DOCTYPE svg PUBLIC "-//W3C//DTD SVG 1.1//EN"
  "http://www.w3.org/Graphics/SVG/1.1/DTD/svg11.dtd">
<svg xmlns:xlink="http://www.w3.org/1999/xlink" width="1077.94125pt" height="1343.383125pt" viewBox="0 0 1077.94125 1343.383125" xmlns="http://www.w3.org/2000/svg" version="1.1">
 <metadata>
  <rdf:RDF xmlns:dc="http://purl.org/dc/elements/1.1/" xmlns:cc="http://creativecommons.org/ns#" xmlns:rdf="http://www.w3.org/1999/02/22-rdf-syntax-ns#">
   <cc:Work>
    <dc:type rdf:resource="http://purl.org/dc/dcmitype/StillImage"/>
    <dc:date>2022-11-30T08:13:42.372363</dc:date>
    <dc:format>image/svg+xml</dc:format>
    <dc:creator>
     <cc:Agent>
      <dc:title>Matplotlib v3.6.0, https://matplotlib.org/</dc:title>
     </cc:Agent>
    </dc:creator>
   </cc:Work>
  </rdf:RDF>
 </metadata>
 <defs>
  <style type="text/css">*{stroke-linejoin: round; stroke-linecap: butt}</style>
 </defs>
 <g id="figure_1">
  <g id="patch_1">
   <path d="M 0 1343.383125 
L 1077.94125 1343.383125 
L 1077.94125 0 
L 0 0 
z
" style="fill: #ffffff"/>
  </g>
  <g id="axes_1">
   <g id="patch_2">
    <path d="M 112.7925 855.954375 
L 949.7925 855.954375 
L 949.7925 40.554375 
L 112.7925 40.554375 
z
" style="fill: #ffffff"/>
   </g>
   <g id="matplotlib.axis_1">
    <g id="xtick_1">
     <g id="text_1">
      <text style="fill: #262626; font: 36px 'sans-serif'; text-anchor: middle" x="112.7925" y="892.80875" transform="rotate(-0 112.7925 892.80875)">0.0</text>
     </g>
    </g>
    <g id="xtick_2">
     <g id="text_2">
      <text style="fill: #262626; font: 36px 'sans-serif'; text-anchor: middle" x="280.1925" y="892.80875" transform="rotate(-0 280.1925 892.80875)">0.2</text>
     </g>
    </g>
    <g id="xtick_3">
     <g id="text_3">
      <text style="fill: #262626; font: 36px 'sans-serif'; text-anchor: middle" x="447.5925" y="892.80875" transform="rotate(-0 447.5925 892.80875)">0.4</text>
     </g>
    </g>
    <g id="xtick_4">
     <g id="text_4">
      <text style="fill: #262626; font: 36px 'sans-serif'; text-anchor: middle" x="614.9925" y="892.80875" transform="rotate(-0 614.9925 892.80875)">0.6</text>
     </g>
    </g>
    <g id="xtick_5">
     <g id="text_5">
      <text style="fill: #262626; font: 36px 'sans-serif'; text-anchor: middle" x="782.3925" y="892.80875" transform="rotate(-0 782.3925 892.80875)">0.8</text>
     </g>
    </g>
    <g id="xtick_6">
     <g id="text_6">
      <text style="fill: #262626; font: 36px 'sans-serif'; text-anchor: middle" x="949.7925" y="892.80875" transform="rotate(-0 949.7925 892.80875)">1.0</text>
     </g>
    </g>
    <g id="text_7">
     <text style="fill: #262626; font: 36px 'sans-serif'; text-anchor: middle" x="531.2925" y="931.65" transform="rotate(-0 531.2925 931.65)">False Positive Rate</text>
    </g>
   </g>
   <g id="matplotlib.axis_2">
    <g id="ytick_1">
     <g id="text_8">
      <text style="fill: #262626; font: 36px 'sans-serif'; text-anchor: end" x="103.2925" y="869.631562" transform="rotate(-0 103.2925 869.631562)">0.0</text>
     </g>
    </g>
    <g id="ytick_2">
     <g id="text_9">
      <text style="fill: #262626; font: 36px 'sans-serif'; text-anchor: end" x="103.2925" y="706.551562" transform="rotate(-0 103.2925 706.551562)">0.2</text>
     </g>
    </g>
    <g id="ytick_3">
     <g id="text_10">
      <text style="fill: #262626; font: 36px 'sans-serif'; text-anchor: end" x="103.2925" y="543.471562" transform="rotate(-0 103.2925 543.471562)">0.4</text>
     </g>
    </g>
    <g id="ytick_4">
     <g id="text_11">
      <text style="fill: #262626; font: 36px 'sans-serif'; text-anchor: end" x="103.2925" y="380.391562" transform="rotate(-0 103.2925 380.391562)">0.6</text>
     </g>
    </g>
    <g id="ytick_5">
     <g id="text_12">
      <text style="fill: #262626; font: 36px 'sans-serif'; text-anchor: end" x="103.2925" y="217.311562" transform="rotate(-0 103.2925 217.311562)">0.8</text>
     </g>
    </g>
    <g id="ytick_6">
     <g id="text_13">
      <text style="fill: #262626; font: 36px 'sans-serif'; text-anchor: end" x="103.2925" y="54.231562" transform="rotate(-0 103.2925 54.231562)">1.0</text>
     </g>
    </g>
    <g id="text_14">
     <text style="fill: #262626; font: 36px 'sans-serif'; text-anchor: middle" x="34.554375" y="448.254375" transform="rotate(-90 34.554375 448.254375)">True Positive Rate</text>
    </g>
   </g>
   <g id="line2d_1">
    <path d="M 112.7925 855.954375 
L 112.7925 854.269664 
L 112.7925 852.584954 
L 112.7925 849.215532 
L 112.7925 845.846111 
L 112.7925 840.791978 
L 114.628026 825.629582 
L 114.628026 818.890739 
L 118.299079 818.890739 
L 118.299079 813.836606 
L 118.299079 803.728342 
L 121.970132 793.620077 
L 121.970132 783.511813 
L 129.312237 763.295284 
L 129.312237 756.556441 
L 131.147763 738.024623 
L 136.654342 727.916358 
L 138.489868 719.492805 
L 140.325395 707.69983 
L 149.503026 684.113879 
L 153.174079 665.582061 
L 156.845132 650.419664 
L 160.516184 638.626689 
L 164.187237 628.518425 
L 169.693816 611.671317 
L 177.035921 604.932474 
L 184.378026 593.139499 
L 191.720132 576.292392 
L 204.568816 564.499416 
L 210.075395 556.075863 
L 213.746447 542.598177 
L 213.746447 535.859334 
L 222.924079 517.327515 
L 224.759605 507.219251 
L 230.266184 500.480408 
L 239.443816 497.110987 
L 248.621447 487.002722 
L 255.963553 461.732061 
L 266.976711 449.939086 
L 272.483289 439.830821 
L 283.496447 417.929582 
L 298.180658 406.136606 
L 303.687237 392.65892 
L 311.029342 385.920077 
L 320.206974 377.496524 
L 333.055658 369.07297 
L 349.575395 358.964706 
L 358.753026 348.856441 
L 371.601711 337.063466 
L 377.108289 328.639912 
L 389.956974 321.901069 
L 400.970132 316.846937 
L 410.147763 303.369251 
L 422.996447 293.260987 
L 428.503026 283.152722 
L 452.364868 271.359747 
L 465.213553 262.936193 
L 472.555658 254.512639 
L 479.897763 247.773796 
L 492.746447 239.350243 
L 503.759605 229.241978 
L 523.950395 222.503135 
L 531.2925 214.079582 
L 551.483289 203.971317 
L 573.509605 190.493631 
L 597.371447 185.439499 
L 613.891184 171.961813 
L 630.410921 163.538259 
L 639.588553 161.853549 
L 659.779342 156.799416 
L 672.628026 133.213466 
L 687.312237 128.159334 
L 701.996447 119.73578 
L 716.680658 112.996937 
L 729.529342 111.312226 
L 755.226711 99.519251 
L 775.4175 97.83454 
L 793.772763 94.465119 
L 806.621447 86.041565 
L 815.799079 74.24859 
L 826.812237 65.825036 
L 839.660921 64.140325 
L 852.509605 59.086193 
L 881.878026 59.086193 
L 892.891184 57.401482 
L 907.575395 54.032061 
L 918.588553 52.34735 
L 925.930658 50.662639 
L 927.766184 48.977929 
L 936.943816 45.608507 
L 938.779342 43.923796 
L 946.121447 42.239086 
L 946.121447 40.554375 
L 949.7925 40.554375 
" clip-path="url(#pde0126c7ff)" style="fill: none; stroke: #fde725; stroke-width: 5; stroke-linecap: round"/>
   </g>
   <g id="PathCollection_1">
    <defs>
     <path id="ma616891ee3" d="M 0 11.18034 
C 2.965061 11.18034 5.80908 10.002309 7.905694 7.905694 
C 10.002309 5.80908 11.18034 2.965061 11.18034 0 
C 11.18034 -2.965061 10.002309 -5.80908 7.905694 -7.905694 
C 5.80908 -10.002309 2.965061 -11.18034 0 -11.18034 
C -2.965061 -11.18034 -5.80908 -10.002309 -7.905694 -7.905694 
C -10.002309 -5.80908 -11.18034 -2.965061 -11.18034 0 
C -11.18034 2.965061 -10.002309 5.80908 -7.905694 7.905694 
C -5.80908 10.002309 -2.965061 11.18034 0 11.18034 
z
" style="stroke: #1a1a1a"/>
    </defs>
    <g clip-path="url(#pde0126c7ff)">
     <use xlink:href="#ma616891ee3" x="349.575395" y="358.964706" style="fill: #1a1a1a; stroke: #1a1a1a"/>
    </g>
   </g>
   <g id="line2d_2">
    <path d="M 112.7925 855.954375 
L 112.7925 854.269664 
L 114.628026 849.215532 
L 116.463553 839.107268 
L 116.463553 834.053135 
L 118.299079 825.629582 
L 120.134605 813.836606 
L 121.970132 803.728342 
L 123.805658 798.67421 
L 127.476711 795.304788 
L 127.476711 786.881235 
L 131.147763 778.457681 
L 136.654342 764.979995 
L 136.654342 758.241152 
L 138.489868 751.502309 
L 145.831974 739.709334 
L 145.831974 729.601069 
L 149.503026 717.808094 
L 151.338553 704.330408 
L 158.680658 689.168011 
L 162.351711 672.320904 
L 164.187237 660.527929 
L 167.858289 652.104375 
L 169.693816 638.626689 
L 175.200395 635.257268 
L 178.871447 621.779582 
L 180.706974 616.725449 
L 188.049079 611.671317 
L 191.720132 599.878342 
L 193.555658 581.346524 
L 200.897763 579.661813 
L 211.910921 562.814706 
L 217.4175 549.33702 
L 224.759605 530.805201 
L 230.266184 517.327515 
L 241.279342 513.958094 
L 254.128026 497.110987 
L 259.634605 490.372144 
L 265.141184 487.002722 
L 270.647763 480.263879 
L 279.825395 468.470904 
L 283.496447 453.308507 
L 287.1675 446.569664 
L 294.509605 438.146111 
L 301.851711 428.037846 
L 316.535921 416.244871 
L 322.0425 404.451896 
L 334.891184 399.397763 
L 344.068816 390.97421 
L 349.575395 380.865945 
L 356.9175 369.07297 
L 364.259605 358.964706 
L 375.272763 347.17173 
L 380.779342 332.009334 
L 399.134605 325.270491 
L 404.641184 311.792805 
L 417.489868 303.369251 
L 428.503026 294.945697 
L 439.516184 291.576276 
L 446.858289 284.837433 
L 461.5425 279.783301 
L 485.404342 274.729168 
L 507.430658 261.251482 
L 520.279342 244.404375 
L 527.621447 235.980821 
L 538.634605 227.557268 
L 549.647763 225.872557 
L 556.989868 215.764292 
L 571.674079 200.601896 
L 586.358289 187.12421 
L 601.0425 180.385367 
L 612.055658 178.700656 
L 623.068816 175.331235 
L 645.095132 168.592392 
L 661.614868 158.484127 
L 668.956974 153.429995 
L 676.299079 146.691152 
L 694.654342 145.006441 
L 714.845132 139.952309 
L 729.529342 129.844044 
L 744.213553 121.420491 
L 768.075395 112.996937 
L 775.4175 111.312226 
L 790.101711 104.573383 
L 804.785921 104.573383 
L 828.647763 94.465119 
L 837.825395 89.410987 
L 852.509605 82.672144 
L 867.193816 77.618011 
L 881.878026 74.24859 
L 892.891184 67.509747 
L 911.246447 64.140325 
L 916.753026 62.455615 
L 924.095132 55.716772 
L 927.766184 48.977929 
L 931.437237 45.608507 
L 936.943816 45.608507 
L 942.450395 43.923796 
L 946.121447 42.239086 
L 947.956974 40.554375 
L 949.7925 40.554375 
" clip-path="url(#pde0126c7ff)" style="fill: none; stroke: #a5db36; stroke-width: 5; stroke-linecap: round"/>
   </g>
   <g id="PathCollection_2">
    <g clip-path="url(#pde0126c7ff)">
     <use xlink:href="#ma616891ee3" x="349.575395" y="380.865945" style="fill: #1a1a1a; stroke: #1a1a1a"/>
    </g>
   </g>
   <g id="line2d_3">
    <path d="M 112.7925 855.954375 
L 112.7925 854.269664 
L 112.7925 849.215532 
L 116.463553 847.530821 
L 120.134605 842.476689 
L 121.970132 839.107268 
L 129.312237 837.422557 
L 131.147763 834.053135 
L 138.489868 825.629582 
L 142.160921 818.890739 
L 142.160921 813.836606 
L 143.996447 808.782474 
L 143.996447 802.043631 
L 145.831974 800.35892 
L 145.831974 793.620077 
L 145.831974 790.250656 
L 149.503026 786.881235 
L 153.174079 781.827102 
L 158.680658 775.088259 
L 162.351711 771.718838 
L 164.187237 770.034127 
L 169.693816 763.295284 
L 177.035921 758.241152 
L 180.706974 749.817598 
L 186.213553 743.078755 
L 189.884605 739.709334 
L 191.720132 734.655201 
L 204.568816 719.492805 
L 213.746447 707.69983 
L 219.253026 697.591565 
L 224.759605 695.906854 
L 232.101711 677.375036 
L 244.950395 668.951482 
L 257.799079 658.843218 
L 261.470132 643.680821 
L 265.141184 623.464292 
L 276.154342 616.725449 
L 279.825395 606.617185 
L 289.003026 591.454788 
L 303.687237 583.031235 
L 320.206974 572.92297 
L 329.384605 562.814706 
L 347.739868 551.02173 
L 360.588553 539.228755 
L 373.437237 529.120491 
L 384.450395 510.588673 
L 389.956974 498.795697 
L 399.134605 485.318011 
L 432.174079 458.362639 
L 450.529342 444.884954 
L 467.049079 431.407268 
L 472.555658 421.299003 
L 487.239868 406.136606 
L 507.430658 379.181235 
L 520.279342 369.07297 
L 542.305658 360.649416 
L 566.1675 347.17173 
L 575.345132 335.378755 
L 597.371447 316.846937 
L 612.055658 301.68454 
L 628.575395 281.468011 
L 645.095132 269.675036 
L 670.7925 261.251482 
L 679.970132 249.458507 
L 707.503026 237.665532 
L 727.693816 225.872557 
L 740.5425 214.079582 
L 757.062237 198.917185 
L 771.746447 193.863053 
L 784.595132 185.439499 
L 799.279342 170.277102 
L 815.799079 156.799416 
L 837.825395 151.745284 
L 847.003026 134.898177 
L 858.016184 128.159334 
L 861.687237 118.051069 
L 870.864868 104.573383 
L 881.878026 94.465119 
L 896.562237 86.041565 
L 900.233289 82.672144 
L 909.410921 77.618011 
L 911.246447 72.563879 
L 918.588553 65.825036 
L 925.930658 59.086193 
L 927.766184 59.086193 
L 929.601711 57.401482 
L 933.272763 52.34735 
L 936.943816 48.977929 
L 936.943816 47.293218 
L 938.779342 47.293218 
L 944.285921 45.608507 
L 944.285921 43.923796 
L 947.956974 42.239086 
L 949.7925 42.239086 
L 949.7925 40.554375 
" clip-path="url(#pde0126c7ff)" style="fill: none; stroke: #4ac16d; stroke-width: 5; stroke-linecap: round"/>
   </g>
   <g id="PathCollection_3">
    <g clip-path="url(#pde0126c7ff)">
     <use xlink:href="#ma616891ee3" x="415.654342" y="471.840325" style="fill: #1a1a1a; stroke: #1a1a1a"/>
    </g>
   </g>
   <g id="line2d_4">
    <path d="M 112.7925 855.954375 
L 112.7925 850.900243 
L 112.7925 840.791978 
L 116.463553 839.107268 
L 116.463553 837.422557 
L 120.134605 835.737846 
L 123.805658 828.999003 
L 127.476711 828.999003 
L 127.476711 825.629582 
L 129.312237 817.206028 
L 134.818816 812.151896 
L 136.654342 810.467185 
L 136.654342 805.413053 
L 140.325395 793.620077 
L 143.996447 786.881235 
L 147.6675 776.77297 
L 151.338553 768.349416 
L 156.845132 768.349416 
L 160.516184 764.979995 
L 166.022763 759.925863 
L 167.858289 753.18702 
L 169.693816 749.817598 
L 175.200395 743.078755 
L 177.035921 736.339912 
L 182.5425 726.231648 
L 186.213553 714.438673 
L 193.555658 706.015119 
L 195.391184 699.276276 
L 197.226711 685.79859 
L 210.075395 682.429168 
L 222.924079 677.375036 
L 232.101711 670.636193 
L 246.785921 665.582061 
L 261.470132 653.789086 
L 265.141184 641.996111 
L 270.647763 626.833714 
L 283.496447 618.41016 
L 294.509605 606.617185 
L 303.687237 588.085367 
L 322.0425 581.346524 
L 331.220132 576.292392 
L 338.562237 562.814706 
L 344.068816 552.706441 
L 362.424079 539.228755 
L 375.272763 527.43578 
L 399.134605 515.642805 
L 419.325395 502.165119 
L 430.338553 490.372144 
L 443.187237 475.209747 
L 472.555658 468.470904 
L 489.075395 446.569664 
L 496.4175 419.614292 
L 527.621447 411.190739 
L 540.470132 397.713053 
L 549.647763 385.920077 
L 569.838553 372.442392 
L 588.193816 357.279995 
L 601.0425 343.802309 
L 630.410921 328.639912 
L 643.259605 313.477515 
L 654.272763 306.738673 
L 672.628026 291.576276 
L 692.818816 274.729168 
L 703.831974 256.19735 
L 725.858289 241.034954 
L 744.213553 230.926689 
L 757.062237 219.133714 
L 769.910921 210.71016 
L 784.595132 200.601896 
L 797.443816 192.178342 
L 810.2925 180.385367 
L 824.976711 166.907681 
L 832.318816 156.799416 
L 845.1675 145.006441 
L 852.509605 138.267598 
L 870.864868 129.844044 
L 880.0425 118.051069 
L 894.726711 111.312226 
L 898.397763 106.258094 
L 902.068816 96.14983 
L 909.410921 94.465119 
L 914.9175 87.726276 
L 916.753026 70.879168 
L 922.259605 64.140325 
L 924.095132 60.770904 
L 929.601711 59.086193 
L 933.272763 57.401482 
L 936.943816 54.032061 
L 942.450395 47.293218 
L 944.285921 47.293218 
L 944.285921 43.923796 
L 946.121447 42.239086 
L 949.7925 42.239086 
L 949.7925 40.554375 
" clip-path="url(#pde0126c7ff)" style="fill: none; stroke: #1f988b; stroke-width: 5; stroke-linecap: round"/>
   </g>
   <g id="PathCollection_4">
    <g clip-path="url(#pde0126c7ff)">
     <use xlink:href="#ma616891ee3" x="430.338553" y="490.372144" style="fill: #1a1a1a; stroke: #1a1a1a"/>
    </g>
   </g>
   <g id="line2d_5">
    <path d="M 112.7925 855.954375 
L 112.7925 854.269664 
L 112.7925 852.584954 
L 112.7925 845.846111 
L 112.7925 844.1614 
L 112.7925 840.791978 
L 116.463553 835.737846 
L 120.134605 834.053135 
L 120.134605 832.368425 
L 131.147763 815.521317 
L 132.983289 813.836606 
L 134.818816 810.467185 
L 138.489868 807.097763 
L 142.160921 805.413053 
L 145.831974 798.67421 
L 149.503026 796.989499 
L 151.338553 795.304788 
L 160.516184 791.935367 
L 169.693816 783.511813 
L 178.871447 773.403549 
L 182.5425 761.610573 
L 189.884605 758.241152 
L 191.720132 749.817598 
L 195.391184 741.394044 
L 200.897763 736.339912 
L 208.239868 729.601069 
L 215.581974 724.546937 
L 224.759605 716.123383 
L 235.772763 707.69983 
L 243.114868 702.645697 
L 254.128026 697.591565 
L 268.812237 692.537433 
L 272.483289 684.113879 
L 279.825395 675.690325 
L 285.331974 668.951482 
L 296.345132 663.89735 
L 307.358289 652.104375 
L 312.864868 643.680821 
L 323.878026 630.203135 
L 340.397763 623.464292 
L 353.246447 616.725449 
L 364.259605 603.247763 
L 377.108289 584.715945 
L 384.450395 576.292392 
L 402.805658 569.553549 
L 424.831974 554.391152 
L 435.845132 540.913466 
L 452.364868 525.751069 
L 472.555658 513.958094 
L 483.568816 497.110987 
L 489.075395 487.002722 
L 503.759605 476.894458 
L 525.785921 465.101482 
L 542.305658 454.993218 
L 556.989868 446.569664 
L 562.496447 439.830821 
L 571.674079 417.929582 
L 582.687237 407.821317 
L 604.713553 394.343631 
L 621.233289 387.604788 
L 632.246447 379.181235 
L 641.424079 369.07297 
L 648.766184 360.649416 
L 656.108289 343.802309 
L 670.7925 335.378755 
L 685.476711 315.162226 
L 700.160921 305.053962 
L 713.009605 293.260987 
L 729.529342 276.413879 
L 744.213553 262.936193 
L 755.226711 252.827929 
L 766.239868 241.034954 
L 780.924079 227.557268 
L 790.101711 212.394871 
L 802.950395 200.601896 
L 823.141184 188.80892 
L 830.483289 180.385367 
L 839.660921 170.277102 
L 847.003026 161.853549 
L 863.522763 153.429995 
L 870.864868 145.006441 
L 883.713553 139.952309 
L 898.397763 131.528755 
L 907.575395 118.051069 
L 909.410921 109.627515 
L 914.9175 107.942805 
L 920.424079 92.780408 
L 924.095132 87.726276 
L 933.272763 82.672144 
L 933.272763 74.24859 
L 940.614868 65.825036 
L 944.285921 59.086193 
L 944.285921 54.032061 
L 947.956974 47.293218 
L 949.7925 45.608507 
L 949.7925 42.239086 
L 949.7925 40.554375 
" clip-path="url(#pde0126c7ff)" style="fill: none; stroke: #2a788e; stroke-width: 5; stroke-linecap: round"/>
   </g>
   <g id="PathCollection_5">
    <g clip-path="url(#pde0126c7ff)">
     <use xlink:href="#ma616891ee3" x="472.555658" y="513.958094" style="fill: #1a1a1a; stroke: #1a1a1a"/>
    </g>
   </g>
   <g id="line2d_6">
    <path d="M 112.7925 855.954375 
L 140.325395 832.368425 
L 149.503026 823.944871 
L 155.009605 815.521317 
L 164.187237 803.728342 
L 180.706974 793.620077 
L 189.884605 785.196524 
L 191.720132 778.457681 
L 204.568816 770.034127 
L 210.075395 759.925863 
L 224.759605 754.87173 
L 237.608289 743.078755 
L 248.621447 726.231648 
L 254.128026 722.862226 
L 259.634605 712.753962 
L 270.647763 706.015119 
L 281.660921 697.591565 
L 289.003026 690.852722 
L 294.509605 689.168011 
L 301.851711 685.79859 
L 303.687237 685.79859 
L 309.193816 679.059747 
L 314.700395 667.266772 
L 329.384605 658.843218 
L 333.055658 657.158507 
L 345.904342 648.734954 
L 351.410921 643.680821 
L 358.753026 635.257268 
L 367.930658 625.149003 
L 375.272763 621.779582 
L 388.121447 609.986606 
L 402.805658 603.247763 
L 411.983289 594.82421 
L 415.654342 584.715945 
L 421.160921 564.499416 
L 426.6675 559.445284 
L 437.680658 552.706441 
L 443.187237 547.652309 
L 450.529342 542.598177 
L 459.706974 537.544044 
L 470.720132 524.066358 
L 474.391184 520.696937 
L 478.062237 513.958094 
L 478.062237 512.273383 
L 483.568816 508.903962 
L 487.239868 508.903962 
L 487.239868 503.84983 
L 490.910921 500.480408 
L 498.253026 497.110987 
L 501.924079 493.741565 
L 509.266184 480.263879 
L 512.937237 475.209747 
L 520.279342 470.155615 
L 522.114868 463.416772 
L 527.621447 460.04735 
L 536.799079 448.254375 
L 551.483289 436.4614 
L 568.003026 424.668425 
L 580.851711 414.56016 
L 591.864868 406.136606 
L 602.878026 392.65892 
L 623.068816 380.865945 
L 639.588553 370.757681 
L 654.272763 358.964706 
L 659.779342 347.17173 
L 670.7925 345.48702 
L 672.628026 340.432887 
L 678.134605 333.694044 
L 683.641184 333.694044 
L 685.476711 328.639912 
L 692.818816 328.639912 
L 698.325395 318.531648 
L 700.160921 303.369251 
L 705.6675 296.630408 
L 714.845132 284.837433 
L 729.529342 274.729168 
L 736.871447 256.19735 
L 746.049079 230.926689 
L 753.391184 219.133714 
L 771.746447 198.917185 
L 786.430658 185.439499 
L 795.608289 170.277102 
L 821.305658 161.853549 
L 830.483289 136.582887 
L 841.496447 121.420491 
L 867.193816 106.258094 
L 902.068816 84.356854 
L 949.7925 40.554375 
" clip-path="url(#pde0126c7ff)" style="fill: none; stroke: #414487; stroke-width: 5; stroke-linecap: round"/>
   </g>
   <g id="PathCollection_6">
    <g clip-path="url(#pde0126c7ff)">
     <use xlink:href="#ma616891ee3" x="478.062237" y="513.958094" style="fill: #1a1a1a; stroke: #1a1a1a"/>
    </g>
   </g>
   <g id="line2d_7">
    <path d="M 112.7925 855.954375 
L 114.628026 850.900243 
L 116.463553 835.737846 
L 120.134605 830.683714 
L 123.805658 823.944871 
L 123.805658 818.890739 
L 132.983289 813.836606 
L 134.818816 807.097763 
L 140.325395 798.67421 
L 140.325395 796.989499 
L 143.996447 793.620077 
L 151.338553 783.511813 
L 151.338553 776.77297 
L 156.845132 771.718838 
L 160.516184 771.718838 
L 164.187237 764.979995 
L 166.022763 756.556441 
L 169.693816 746.448177 
L 177.035921 738.024623 
L 178.871447 729.601069 
L 180.706974 722.862226 
L 184.378026 714.438673 
L 195.391184 700.960987 
L 200.897763 695.906854 
L 210.075395 687.483301 
L 215.581974 680.744458 
L 222.924079 670.636193 
L 226.595132 653.789086 
L 232.101711 638.626689 
L 232.101711 628.518425 
L 235.772763 613.356028 
L 241.279342 603.247763 
L 246.785921 591.454788 
L 255.963553 579.661813 
L 266.976711 566.184127 
L 279.825395 559.445284 
L 283.496447 552.706441 
L 290.838553 535.859334 
L 301.851711 524.066358 
L 312.864868 519.012226 
L 320.206974 502.165119 
L 336.726711 487.002722 
L 344.068816 463.416772 
L 353.246447 448.254375 
L 356.9175 444.884954 
L 367.930658 434.776689 
L 380.779342 424.668425 
L 388.121447 421.299003 
L 402.805658 407.821317 
L 413.818816 402.767185 
L 428.503026 397.713053 
L 435.845132 387.604788 
L 443.187237 382.550656 
L 456.035921 375.811813 
L 481.733289 358.964706 
L 501.924079 353.910573 
L 512.937237 340.432887 
L 527.621447 337.063466 
L 534.963553 328.639912 
L 538.634605 320.216358 
L 553.318816 311.792805 
L 571.674079 305.053962 
L 582.687237 293.260987 
L 595.535921 286.522144 
L 601.0425 283.152722 
L 610.220132 271.359747 
L 615.726711 264.620904 
L 634.081974 256.19735 
L 641.424079 251.143218 
L 656.108289 244.404375 
L 672.628026 239.350243 
L 681.805658 229.241978 
L 694.654342 225.872557 
L 707.503026 215.764292 
L 718.516184 198.917185 
L 735.035921 193.863053 
L 744.213553 180.385367 
L 760.733289 170.277102 
L 777.253026 163.538259 
L 799.279342 153.429995 
L 813.963553 148.375863 
L 824.976711 134.898177 
L 837.825395 126.474623 
L 848.838553 116.366358 
L 858.016184 111.312226 
L 872.700395 111.312226 
L 880.0425 99.519251 
L 881.878026 91.095697 
L 889.220132 84.356854 
L 903.904342 77.618011 
L 907.575395 72.563879 
L 935.108289 57.401482 
L 940.614868 52.34735 
L 944.285921 42.239086 
L 947.956974 42.239086 
L 949.7925 42.239086 
L 949.7925 40.554375 
" clip-path="url(#pde0126c7ff)" style="fill: none; stroke: #440154; stroke-width: 5; stroke-linecap: round"/>
   </g>
   <g id="PathCollection_7">
    <g clip-path="url(#pde0126c7ff)">
     <use xlink:href="#ma616891ee3" x="402.805658" y="407.821317" style="fill: #1a1a1a; stroke: #1a1a1a"/>
    </g>
   </g>
   <g id="patch_3">
    <path d="M 112.7925 855.954375 
L 112.7925 40.554375 
" style="fill: none; stroke: #262626; stroke-width: 1.25; stroke-linejoin: miter; stroke-linecap: square"/>
   </g>
   <g id="patch_4">
    <path d="M 949.7925 855.954375 
L 949.7925 40.554375 
" style="fill: none; stroke: #262626; stroke-width: 1.25; stroke-linejoin: miter; stroke-linecap: square"/>
   </g>
   <g id="patch_5">
    <path d="M 112.7925 855.954375 
L 949.7925 855.954375 
" style="fill: none; stroke: #262626; stroke-width: 1.25; stroke-linejoin: miter; stroke-linecap: square"/>
   </g>
   <g id="patch_6">
    <path d="M 112.7925 40.554375 
L 949.7925 40.554375 
" style="fill: none; stroke: #262626; stroke-width: 1.25; stroke-linejoin: miter; stroke-linecap: square"/>
   </g>
   <g id="text_15">
    <text style="fill: #262626; font: 36px 'sans-serif'; text-anchor: middle" x="531.2925" y="34.554375" transform="rotate(-0 531.2925 34.554375)">Figure 4. NK Cells</text>
   </g>
   <g id="legend_1">
    <g id="patch_7">
     <path d="M 54.2925 1336.183125 
L 1063.54125 1336.183125 
Q 1070.74125 1336.183125 1070.74125 1328.983125 
L 1070.74125 962.694375 
Q 1070.74125 955.494375 1063.54125 955.494375 
L 54.2925 955.494375 
Q 47.0925 955.494375 47.0925 962.694375 
L 47.0925 1328.983125 
Q 47.0925 1336.183125 54.2925 1336.183125 
z
" style="fill: #ffffff; opacity: 0.8; stroke: #cccccc; stroke-linejoin: miter"/>
    </g>
    <g id="line2d_8">
     <path d="M 61.4925 984.64875 
L 97.4925 984.64875 
L 133.4925 984.64875 
" style="fill: none; stroke: #fde725; stroke-width: 5; stroke-linecap: round"/>
    </g>
    <g id="text_16">
     <text style="fill: #262626; font: 36px 'sans-serif'; text-anchor: start" x="162.2925" y="997.24875" transform="rotate(-0 162.2925 997.24875)">All variables (ROC AUC = 0.72)</text>
    </g>
    <g id="line2d_9">
     <path d="M 61.4925 1037.49 
L 97.4925 1037.49 
L 133.4925 1037.49 
" style="fill: none; stroke: #a5db36; stroke-width: 5; stroke-linecap: round"/>
    </g>
    <g id="text_17">
     <text style="fill: #262626; font: 36px 'sans-serif'; text-anchor: start" x="162.2925" y="1050.09" transform="rotate(-0 162.2925 1050.09)">NAD(P)H variables + Cell Size (ROC AUC = 0.70)</text>
    </g>
    <g id="line2d_10">
     <path d="M 61.4925 1090.33125 
L 97.4925 1090.33125 
L 133.4925 1090.33125 
" style="fill: none; stroke: #4ac16d; stroke-width: 5; stroke-linecap: round"/>
    </g>
    <g id="text_18">
     <text style="fill: #262626; font: 36px 'sans-serif'; text-anchor: start" x="162.2925" y="1102.93125" transform="rotate(-0 162.2925 1102.93125)">Top four variables (ROC AUC) = 0.56)</text>
    </g>
    <g id="line2d_11">
     <path d="M 61.4925 1143.1725 
L 97.4925 1143.1725 
L 133.4925 1143.1725 
" style="fill: none; stroke: #1f988b; stroke-width: 5; stroke-linecap: round"/>
    </g>
    <g id="text_19">
     <text style="fill: #262626; font: 36px 'sans-serif'; text-anchor: start" x="162.2925" y="1155.7725" transform="rotate(-0 162.2925 1155.7725)">Top three variables (ROC AUC) = 0.54)</text>
    </g>
    <g id="line2d_12">
     <path d="M 61.4925 1196.01375 
L 97.4925 1196.01375 
L 133.4925 1196.01375 
" style="fill: none; stroke: #2a788e; stroke-width: 5; stroke-linecap: round"/>
    </g>
    <g id="text_20">
     <text style="fill: #262626; font: 36px 'sans-serif'; text-anchor: start" x="162.2925" y="1208.61375" transform="rotate(-0 162.2925 1208.61375)">Top two variables (ROC AUC) = 0.49)</text>
    </g>
    <g id="line2d_13">
     <path d="M 61.4925 1248.855 
L 97.4925 1248.855 
L 133.4925 1248.855 
" style="fill: none; stroke: #414487; stroke-width: 5; stroke-linecap: round"/>
    </g>
    <g id="text_21">
     <text style="fill: #262626; font: 36px 'sans-serif'; text-anchor: start" x="162.2925" y="1261.455" transform="rotate(-0 162.2925 1261.455)">Top variable (ROC AUC) = 0.49)</text>
    </g>
    <g id="line2d_14">
     <path d="M 61.4925 1301.69625 
L 97.4925 1301.69625 
L 133.4925 1301.69625 
" style="fill: none; stroke: #440154; stroke-width: 5; stroke-linecap: round"/>
    </g>
    <g id="text_22">
     <text style="fill: #262626; font: 36px 'sans-serif'; text-anchor: start" x="162.2925" y="1314.29625" transform="rotate(-0 162.2925 1314.29625)">Norm. Redox Ratio + Cell Size (ROC AUC) = 0.61)</text>
    </g>
   </g>
  </g>
 </g>
 <defs>
  <clipPath id="pde0126c7ff">
   <rect x="112.7925" y="40.554375" width="837" height="815.4"/>
  </clipPath>
 </defs>
</svg>
