<?xml version="1.0" encoding="utf-8" standalone="no"?>
<!DOCTYPE svg PUBLIC "-//W3C//DTD SVG 1.1//EN"
  "http://www.w3.org/Graphics/SVG/1.1/DTD/svg11.dtd">
<svg xmlns:xlink="http://www.w3.org/1999/xlink" width="1077.94125pt" height="1343.383125pt" viewBox="0 0 1077.94125 1343.383125" xmlns="http://www.w3.org/2000/svg" version="1.1">
 <metadata>
  <rdf:RDF xmlns:dc="http://purl.org/dc/elements/1.1/" xmlns:cc="http://creativecommons.org/ns#" xmlns:rdf="http://www.w3.org/1999/02/22-rdf-syntax-ns#">
   <cc:Work>
    <dc:type rdf:resource="http://purl.org/dc/dcmitype/StillImage"/>
    <dc:date>2022-12-06T15:42:27.444469</dc:date>
    <dc:format>image/svg+xml</dc:format>
    <dc:creator>
     <cc:Agent>
      <dc:title>Matplotlib v3.6.0, https://matplotlib.org/</dc:title>
     </cc:Agent>
    </dc:creator>
   </cc:Work>
  </rdf:RDF>
 </metadata>
 <defs>
  <style type="text/css">*{stroke-linejoin: round; stroke-linecap: butt}</style>
 </defs>
 <g id="figure_1">
  <g id="patch_1">
   <path d="M 0 1343.383125 
L 1077.94125 1343.383125 
L 1077.94125 0 
L 0 0 
z
" style="fill: #ffffff"/>
  </g>
  <g id="axes_1">
   <g id="patch_2">
    <path d="M 112.7925 855.954375 
L 949.7925 855.954375 
L 949.7925 40.554375 
L 112.7925 40.554375 
z
" style="fill: #ffffff"/>
   </g>
   <g id="matplotlib.axis_1">
    <g id="xtick_1">
     <g id="text_1">
      <text style="fill: #262626; font: 36px 'sans-serif'; text-anchor: middle" x="112.7925" y="892.80875" transform="rotate(-0 112.7925 892.80875)">0.0</text>
     </g>
    </g>
    <g id="xtick_2">
     <g id="text_2">
      <text style="fill: #262626; font: 36px 'sans-serif'; text-anchor: middle" x="280.1925" y="892.80875" transform="rotate(-0 280.1925 892.80875)">0.2</text>
     </g>
    </g>
    <g id="xtick_3">
     <g id="text_3">
      <text style="fill: #262626; font: 36px 'sans-serif'; text-anchor: middle" x="447.5925" y="892.80875" transform="rotate(-0 447.5925 892.80875)">0.4</text>
     </g>
    </g>
    <g id="xtick_4">
     <g id="text_4">
      <text style="fill: #262626; font: 36px 'sans-serif'; text-anchor: middle" x="614.9925" y="892.80875" transform="rotate(-0 614.9925 892.80875)">0.6</text>
     </g>
    </g>
    <g id="xtick_5">
     <g id="text_5">
      <text style="fill: #262626; font: 36px 'sans-serif'; text-anchor: middle" x="782.3925" y="892.80875" transform="rotate(-0 782.3925 892.80875)">0.8</text>
     </g>
    </g>
    <g id="xtick_6">
     <g id="text_6">
      <text style="fill: #262626; font: 36px 'sans-serif'; text-anchor: middle" x="949.7925" y="892.80875" transform="rotate(-0 949.7925 892.80875)">1.0</text>
     </g>
    </g>
    <g id="text_7">
     <text style="fill: #262626; font: 36px 'sans-serif'; text-anchor: middle" x="531.2925" y="931.65" transform="rotate(-0 531.2925 931.65)">False Positive Rate</text>
    </g>
   </g>
   <g id="matplotlib.axis_2">
    <g id="ytick_1">
     <g id="text_8">
      <text style="fill: #262626; font: 36px 'sans-serif'; text-anchor: end" x="103.2925" y="869.631562" transform="rotate(-0 103.2925 869.631562)">0.0</text>
     </g>
    </g>
    <g id="ytick_2">
     <g id="text_9">
      <text style="fill: #262626; font: 36px 'sans-serif'; text-anchor: end" x="103.2925" y="706.551562" transform="rotate(-0 103.2925 706.551562)">0.2</text>
     </g>
    </g>
    <g id="ytick_3">
     <g id="text_10">
      <text style="fill: #262626; font: 36px 'sans-serif'; text-anchor: end" x="103.2925" y="543.471562" transform="rotate(-0 103.2925 543.471562)">0.4</text>
     </g>
    </g>
    <g id="ytick_4">
     <g id="text_11">
      <text style="fill: #262626; font: 36px 'sans-serif'; text-anchor: end" x="103.2925" y="380.391562" transform="rotate(-0 103.2925 380.391562)">0.6</text>
     </g>
    </g>
    <g id="ytick_5">
     <g id="text_12">
      <text style="fill: #262626; font: 36px 'sans-serif'; text-anchor: end" x="103.2925" y="217.311562" transform="rotate(-0 103.2925 217.311562)">0.8</text>
     </g>
    </g>
    <g id="ytick_6">
     <g id="text_13">
      <text style="fill: #262626; font: 36px 'sans-serif'; text-anchor: end" x="103.2925" y="54.231562" transform="rotate(-0 103.2925 54.231562)">1.0</text>
     </g>
    </g>
    <g id="text_14">
     <text style="fill: #262626; font: 36px 'sans-serif'; text-anchor: middle" x="34.554375" y="448.254375" transform="rotate(-90 34.554375 448.254375)">True Positive Rate</text>
    </g>
   </g>
   <g id="line2d_1">
    <path d="M 112.7925 855.954375 
L 112.7925 763.644941 
L 112.7925 696.977017 
L 112.7925 645.693998 
L 112.7925 609.795884 
L 112.7925 568.769469 
L 112.7925 517.48645 
L 112.7925 486.716639 
L 116.816538 455.946828 
L 116.816538 430.305318 
L 116.816538 399.535507 
L 116.816538 384.150601 
L 116.816538 322.610979 
L 116.816538 307.226073 
L 116.816538 296.969469 
L 120.840577 286.712866 
L 120.840577 276.456262 
L 124.864615 271.32796 
L 124.864615 261.071356 
L 128.888654 250.814752 
L 128.888654 235.429847 
L 128.888654 214.916639 
L 128.888654 209.788337 
L 128.888654 199.531733 
L 128.888654 184.146828 
L 132.912692 184.146828 
L 136.936731 173.890224 
L 136.936731 163.63362 
L 140.960769 158.505318 
L 140.960769 153.377017 
L 140.960769 137.992111 
L 144.984808 137.992111 
L 144.984808 132.863809 
L 144.984808 122.607205 
L 149.008846 122.607205 
L 157.056923 122.607205 
L 157.056923 117.478903 
L 165.105 117.478903 
L 173.153077 117.478903 
L 177.177115 107.2223 
L 181.201154 107.2223 
L 185.225192 102.093998 
L 201.321346 102.093998 
L 209.369423 96.965696 
L 217.4175 96.965696 
L 217.4175 81.58079 
L 221.441538 76.452488 
L 225.465577 76.452488 
L 233.513654 71.324186 
L 245.585769 71.324186 
L 261.681923 71.324186 
L 273.754038 71.324186 
L 281.802115 71.324186 
L 297.898269 71.324186 
L 309.970385 71.324186 
L 313.994423 71.324186 
L 338.138654 71.324186 
L 346.186731 71.324186 
L 358.258846 71.324186 
L 366.306923 71.324186 
L 370.330962 71.324186 
L 394.475192 71.324186 
L 398.499231 66.195884 
L 414.595385 66.195884 
L 438.739615 66.195884 
L 458.859808 66.195884 
L 503.124231 66.195884 
L 527.268462 66.195884 
L 555.436731 66.195884 
L 567.508846 61.067583 
L 619.821346 61.067583 
L 656.037692 55.939281 
L 700.302115 50.810979 
L 728.470385 50.810979 
L 760.662692 50.810979 
L 808.951154 50.810979 
L 849.191538 50.810979 
L 897.48 40.554375 
L 921.624231 40.554375 
L 949.7925 40.554375 
" clip-path="url(#p2982120745)" style="fill: none; stroke: #fde725; stroke-width: 5; stroke-linecap: round"/>
   </g>
   <g id="PathCollection_1">
    <defs>
     <path id="m31fba0e912" d="M 0 11.18034 
C 2.965061 11.18034 5.80908 10.002309 7.905694 7.905694 
C 10.002309 5.80908 11.18034 2.965061 11.18034 0 
C 11.18034 -2.965061 10.002309 -5.80908 7.905694 -7.905694 
C 5.80908 -10.002309 2.965061 -11.18034 0 -11.18034 
C -2.965061 -11.18034 -5.80908 -10.002309 -7.905694 -7.905694 
C -10.002309 -5.80908 -11.18034 -2.965061 -11.18034 0 
C -11.18034 2.965061 -10.002309 5.80908 -7.905694 7.905694 
C -5.80908 10.002309 -2.965061 11.18034 0 11.18034 
z
" style="stroke: #1a1a1a"/>
    </defs>
    <g clip-path="url(#p2982120745)">
     <use xlink:href="#m31fba0e912" x="161.080962" y="117.478903" style="fill: #1a1a1a; stroke: #1a1a1a"/>
    </g>
   </g>
   <g id="line2d_2">
    <path d="M 112.7925 855.954375 
L 112.7925 625.18079 
L 112.7925 517.48645 
L 116.816538 486.716639 
L 120.840577 450.818526 
L 120.840577 430.305318 
L 124.864615 404.663809 
L 124.864615 394.407205 
L 128.888654 384.150601 
L 128.888654 379.0223 
L 132.912692 368.765696 
L 132.912692 358.509092 
L 136.936731 348.252488 
L 136.936731 332.867583 
L 144.984808 322.610979 
L 144.984808 317.482677 
L 144.984808 291.841167 
L 144.984808 286.712866 
L 144.984808 266.199658 
L 144.984808 250.814752 
L 144.984808 245.68645 
L 149.008846 235.429847 
L 149.008846 220.044941 
L 149.008846 209.788337 
L 149.008846 194.403432 
L 149.008846 184.146828 
L 153.032885 173.890224 
L 157.056923 158.505318 
L 157.056923 137.992111 
L 157.056923 127.735507 
L 165.105 127.735507 
L 169.129038 127.735507 
L 169.129038 122.607205 
L 177.177115 117.478903 
L 177.177115 112.350601 
L 181.201154 112.350601 
L 185.225192 107.2223 
L 189.249231 107.2223 
L 189.249231 102.093998 
L 193.273269 96.965696 
L 197.297308 96.965696 
L 213.393462 96.965696 
L 217.4175 96.965696 
L 229.489615 96.965696 
L 233.513654 96.965696 
L 233.513654 91.837394 
L 237.537692 91.837394 
L 245.585769 91.837394 
L 257.657885 91.837394 
L 265.705962 91.837394 
L 265.705962 81.58079 
L 273.754038 76.452488 
L 277.778077 76.452488 
L 293.874231 76.452488 
L 305.946346 71.324186 
L 326.066538 71.324186 
L 330.090577 71.324186 
L 338.138654 71.324186 
L 346.186731 71.324186 
L 354.234808 71.324186 
L 358.258846 66.195884 
L 366.306923 66.195884 
L 370.330962 66.195884 
L 386.427115 66.195884 
L 398.499231 61.067583 
L 422.643462 61.067583 
L 438.739615 61.067583 
L 474.955962 61.067583 
L 495.076154 61.067583 
L 503.124231 61.067583 
L 519.220385 61.067583 
L 543.364615 55.939281 
L 555.436731 55.939281 
L 599.701154 50.810979 
L 647.989615 50.810979 
L 684.205962 45.682677 
L 740.5425 45.682677 
L 833.095385 45.682677 
L 949.7925 40.554375 
" clip-path="url(#p2982120745)" style="fill: none; stroke: #a5db36; stroke-width: 5; stroke-linecap: round"/>
   </g>
   <g id="PathCollection_2">
    <g clip-path="url(#p2982120745)">
     <use xlink:href="#m31fba0e912" x="185.225192" y="107.2223" style="fill: #1a1a1a; stroke: #1a1a1a"/>
    </g>
   </g>
   <g id="line2d_3">
    <path d="M 112.7925 855.954375 
L 112.7925 671.335507 
L 112.7925 558.512866 
L 112.7925 502.101545 
L 112.7925 450.818526 
L 112.7925 425.177017 
L 112.7925 394.407205 
L 112.7925 389.278903 
L 116.816538 373.893998 
L 116.816538 363.637394 
L 116.816538 332.867583 
L 116.816538 317.482677 
L 116.816538 296.969469 
L 120.840577 296.969469 
L 124.864615 286.712866 
L 124.864615 276.456262 
L 124.864615 266.199658 
L 128.888654 250.814752 
L 128.888654 245.68645 
L 128.888654 230.301545 
L 128.888654 225.173243 
L 132.912692 225.173243 
L 132.912692 214.916639 
L 132.912692 189.27513 
L 136.936731 189.27513 
L 136.936731 184.146828 
L 136.936731 163.63362 
L 140.960769 163.63362 
L 140.960769 143.120413 
L 144.984808 127.735507 
L 149.008846 122.607205 
L 149.008846 117.478903 
L 157.056923 117.478903 
L 165.105 117.478903 
L 169.129038 112.350601 
L 169.129038 102.093998 
L 173.153077 102.093998 
L 181.201154 96.965696 
L 185.225192 96.965696 
L 189.249231 86.709092 
L 193.273269 86.709092 
L 197.297308 81.58079 
L 197.297308 76.452488 
L 205.345385 76.452488 
L 221.441538 76.452488 
L 225.465577 76.452488 
L 241.561731 76.452488 
L 253.633846 76.452488 
L 257.657885 76.452488 
L 273.754038 76.452488 
L 281.802115 76.452488 
L 285.826154 76.452488 
L 293.874231 76.452488 
L 301.922308 71.324186 
L 305.946346 71.324186 
L 313.994423 66.195884 
L 326.066538 66.195884 
L 334.114615 66.195884 
L 350.210769 66.195884 
L 366.306923 61.067583 
L 370.330962 61.067583 
L 386.427115 61.067583 
L 406.547308 61.067583 
L 422.643462 55.939281 
L 454.835769 55.939281 
L 527.268462 55.939281 
L 547.388654 55.939281 
L 627.869423 55.939281 
L 660.061731 55.939281 
L 700.302115 55.939281 
L 756.638654 50.810979 
L 804.927115 45.682677 
L 869.311731 45.682677 
L 909.552115 45.682677 
L 949.7925 40.554375 
" clip-path="url(#p2982120745)" style="fill: none; stroke: #4ac16d; stroke-width: 5; stroke-linecap: round"/>
   </g>
   <g id="PathCollection_3">
    <g clip-path="url(#p2982120745)">
     <use xlink:href="#m31fba0e912" x="181.201154" y="96.965696" style="fill: #1a1a1a; stroke: #1a1a1a"/>
    </g>
   </g>
   <g id="line2d_4">
    <path d="M 112.7925 855.954375 
L 112.7925 779.029847 
L 112.7925 712.361922 
L 112.7925 666.207205 
L 112.7925 599.539281 
L 112.7925 527.743054 
L 112.7925 471.331733 
L 116.816538 450.818526 
L 124.864615 420.048715 
L 124.864615 409.792111 
L 124.864615 384.150601 
L 124.864615 373.893998 
L 124.864615 353.38079 
L 128.888654 337.995884 
L 132.912692 312.354375 
L 132.912692 291.841167 
L 132.912692 286.712866 
L 132.912692 271.32796 
L 132.912692 261.071356 
L 132.912692 250.814752 
L 132.912692 245.68645 
L 132.912692 235.429847 
L 140.960769 230.301545 
L 144.984808 230.301545 
L 144.984808 220.044941 
L 149.008846 214.916639 
L 149.008846 204.660035 
L 157.056923 204.660035 
L 161.080962 199.531733 
L 161.080962 189.27513 
L 165.105 189.27513 
L 165.105 173.890224 
L 169.129038 168.761922 
L 177.177115 168.761922 
L 181.201154 163.63362 
L 185.225192 153.377017 
L 189.249231 148.248715 
L 193.273269 148.248715 
L 193.273269 137.992111 
L 205.345385 137.992111 
L 213.393462 132.863809 
L 217.4175 127.735507 
L 225.465577 117.478903 
L 233.513654 117.478903 
L 245.585769 117.478903 
L 249.609808 117.478903 
L 249.609808 112.350601 
L 257.657885 112.350601 
L 261.681923 112.350601 
L 265.705962 107.2223 
L 265.705962 96.965696 
L 285.826154 96.965696 
L 289.850192 96.965696 
L 293.874231 91.837394 
L 309.970385 91.837394 
L 318.018462 91.837394 
L 322.0425 91.837394 
L 338.138654 91.837394 
L 342.162692 91.837394 
L 350.210769 81.58079 
L 354.234808 81.58079 
L 366.306923 81.58079 
L 382.403077 81.58079 
L 410.571346 81.58079 
L 414.595385 81.58079 
L 434.715577 81.58079 
L 438.739615 76.452488 
L 458.859808 71.324186 
L 487.028077 66.195884 
L 491.052115 66.195884 
L 531.2925 55.939281 
L 559.460769 50.810979 
L 579.580962 50.810979 
L 611.773269 50.810979 
L 660.061731 50.810979 
L 696.278077 50.810979 
L 808.951154 40.554375 
L 861.263654 40.554375 
L 885.407885 40.554375 
L 933.696346 40.554375 
L 949.7925 40.554375 
" clip-path="url(#p2982120745)" style="fill: none; stroke: #1f988b; stroke-width: 5; stroke-linecap: round"/>
   </g>
   <g id="PathCollection_4">
    <g clip-path="url(#p2982120745)">
     <use xlink:href="#m31fba0e912" x="193.273269" y="137.992111" style="fill: #1a1a1a; stroke: #1a1a1a"/>
    </g>
   </g>
   <g id="line2d_5">
    <path d="M 112.7925 855.954375 
L 112.7925 779.029847 
L 116.816538 738.003432 
L 120.840577 712.361922 
L 120.840577 702.105318 
L 120.840577 686.720413 
L 124.864615 666.207205 
L 124.864615 661.078903 
L 128.888654 650.8223 
L 128.888654 645.693998 
L 128.888654 630.309092 
L 136.936731 630.309092 
L 140.960769 630.309092 
L 140.960769 599.539281 
L 140.960769 579.026073 
L 144.984808 558.512866 
L 153.032885 517.48645 
L 153.032885 486.716639 
L 153.032885 476.460035 
L 157.056923 461.07513 
L 157.056923 445.690224 
L 165.105 435.43362 
L 169.129038 425.177017 
L 169.129038 394.407205 
L 169.129038 368.765696 
L 177.177115 348.252488 
L 177.177115 332.867583 
L 181.201154 332.867583 
L 189.249231 322.610979 
L 193.273269 322.610979 
L 197.297308 312.354375 
L 201.321346 307.226073 
L 209.369423 281.584564 
L 209.369423 271.32796 
L 229.489615 266.199658 
L 229.489615 245.68645 
L 233.513654 235.429847 
L 245.585769 235.429847 
L 257.657885 220.044941 
L 257.657885 209.788337 
L 265.705962 204.660035 
L 265.705962 199.531733 
L 273.754038 189.27513 
L 281.802115 184.146828 
L 281.802115 168.761922 
L 289.850192 168.761922 
L 289.850192 158.505318 
L 297.898269 158.505318 
L 301.922308 158.505318 
L 309.970385 153.377017 
L 322.0425 153.377017 
L 330.090577 148.248715 
L 334.114615 143.120413 
L 338.138654 143.120413 
L 342.162692 137.992111 
L 346.186731 137.992111 
L 350.210769 132.863809 
L 350.210769 127.735507 
L 358.258846 127.735507 
L 362.282885 122.607205 
L 374.355 122.607205 
L 378.379038 112.350601 
L 390.451154 107.2223 
L 402.523269 107.2223 
L 418.619423 96.965696 
L 418.619423 91.837394 
L 434.715577 91.837394 
L 458.859808 91.837394 
L 474.955962 81.58079 
L 487.028077 71.324186 
L 507.148269 71.324186 
L 519.220385 66.195884 
L 527.268462 66.195884 
L 539.340577 61.067583 
L 559.460769 61.067583 
L 587.629038 50.810979 
L 595.677115 50.810979 
L 611.773269 50.810979 
L 619.821346 50.810979 
L 631.893462 50.810979 
L 647.989615 50.810979 
L 672.133846 45.682677 
L 704.326154 40.554375 
L 740.5425 40.554375 
L 821.023269 40.554375 
L 889.431923 40.554375 
L 949.7925 40.554375 
" clip-path="url(#p2982120745)" style="fill: none; stroke: #2a788e; stroke-width: 5; stroke-linecap: round"/>
   </g>
   <g id="PathCollection_5">
    <g clip-path="url(#p2982120745)">
     <use xlink:href="#m31fba0e912" x="273.754038" y="189.27513" style="fill: #1a1a1a; stroke: #1a1a1a"/>
    </g>
   </g>
   <g id="line2d_6">
    <path d="M 112.7925 855.954375 
L 128.888654 712.361922 
L 140.960769 681.592111 
L 144.984808 655.950601 
L 153.032885 630.309092 
L 153.032885 620.052488 
L 153.032885 589.282677 
L 161.080962 589.282677 
L 165.105 584.154375 
L 169.129038 584.154375 
L 181.201154 573.897771 
L 193.273269 568.769469 
L 193.273269 558.512866 
L 197.297308 548.256262 
L 201.321346 543.12796 
L 201.321346 537.999658 
L 209.369423 537.999658 
L 213.393462 532.871356 
L 221.441538 522.614752 
L 245.585769 502.101545 
L 253.633846 471.331733 
L 261.681923 471.331733 
L 261.681923 466.203432 
L 273.754038 455.946828 
L 273.754038 445.690224 
L 273.754038 440.561922 
L 301.922308 425.177017 
L 318.018462 420.048715 
L 330.090577 420.048715 
L 334.114615 404.663809 
L 354.234808 399.535507 
L 362.282885 399.535507 
L 370.330962 389.278903 
L 382.403077 389.278903 
L 398.499231 389.278903 
L 410.571346 389.278903 
L 410.571346 379.0223 
L 414.595385 379.0223 
L 422.643462 368.765696 
L 430.691538 363.637394 
L 446.787692 353.38079 
L 450.811731 353.38079 
L 462.883846 343.124186 
L 466.907885 327.739281 
L 474.955962 322.610979 
L 483.004038 312.354375 
L 483.004038 307.226073 
L 487.028077 307.226073 
L 495.076154 307.226073 
L 507.148269 276.456262 
L 515.196346 261.071356 
L 527.268462 250.814752 
L 527.268462 245.68645 
L 539.340577 225.173243 
L 551.412692 209.788337 
L 551.412692 199.531733 
L 567.508846 199.531733 
L 579.580962 199.531733 
L 583.605 189.27513 
L 583.605 184.146828 
L 595.677115 168.761922 
L 611.773269 148.248715 
L 619.821346 148.248715 
L 623.845385 143.120413 
L 635.9175 143.120413 
L 652.013654 143.120413 
L 672.133846 137.992111 
L 676.157885 122.607205 
L 692.254038 122.607205 
L 704.326154 117.478903 
L 720.422308 107.2223 
L 724.446346 81.58079 
L 748.590577 81.58079 
L 804.927115 61.067583 
L 949.7925 40.554375 
" clip-path="url(#p2982120745)" style="fill: none; stroke: #414487; stroke-width: 5; stroke-linecap: round"/>
   </g>
   <g id="PathCollection_6">
    <g clip-path="url(#p2982120745)">
     <use xlink:href="#m31fba0e912" x="410.571346" y="384.150601" style="fill: #1a1a1a; stroke: #1a1a1a"/>
    </g>
   </g>
   <g id="line2d_7">
    <path d="M 112.7925 855.954375 
L 128.888654 712.361922 
L 140.960769 681.592111 
L 144.984808 655.950601 
L 153.032885 630.309092 
L 153.032885 620.052488 
L 153.032885 589.282677 
L 161.080962 589.282677 
L 165.105 584.154375 
L 169.129038 584.154375 
L 181.201154 573.897771 
L 193.273269 568.769469 
L 193.273269 558.512866 
L 197.297308 548.256262 
L 201.321346 543.12796 
L 201.321346 537.999658 
L 209.369423 537.999658 
L 213.393462 532.871356 
L 221.441538 522.614752 
L 245.585769 502.101545 
L 253.633846 471.331733 
L 261.681923 471.331733 
L 261.681923 466.203432 
L 273.754038 455.946828 
L 273.754038 445.690224 
L 273.754038 440.561922 
L 301.922308 425.177017 
L 318.018462 420.048715 
L 330.090577 420.048715 
L 334.114615 404.663809 
L 354.234808 399.535507 
L 362.282885 399.535507 
L 370.330962 389.278903 
L 382.403077 389.278903 
L 398.499231 389.278903 
L 410.571346 389.278903 
L 410.571346 379.0223 
L 414.595385 379.0223 
L 422.643462 368.765696 
L 430.691538 363.637394 
L 446.787692 353.38079 
L 450.811731 353.38079 
L 462.883846 343.124186 
L 466.907885 327.739281 
L 474.955962 322.610979 
L 483.004038 312.354375 
L 483.004038 307.226073 
L 487.028077 307.226073 
L 495.076154 307.226073 
L 507.148269 276.456262 
L 515.196346 261.071356 
L 527.268462 250.814752 
L 527.268462 245.68645 
L 539.340577 225.173243 
L 551.412692 209.788337 
L 551.412692 199.531733 
L 567.508846 199.531733 
L 579.580962 199.531733 
L 583.605 189.27513 
L 583.605 184.146828 
L 595.677115 168.761922 
L 611.773269 148.248715 
L 619.821346 148.248715 
L 623.845385 143.120413 
L 635.9175 143.120413 
L 652.013654 143.120413 
L 672.133846 137.992111 
L 676.157885 122.607205 
L 692.254038 122.607205 
L 704.326154 117.478903 
L 720.422308 107.2223 
L 724.446346 81.58079 
L 748.590577 81.58079 
L 804.927115 61.067583 
L 949.7925 40.554375 
" clip-path="url(#p2982120745)" style="fill: none; stroke: #440154; stroke-width: 5; stroke-linecap: round"/>
   </g>
   <g id="PathCollection_7">
    <g clip-path="url(#p2982120745)">
     <use xlink:href="#m31fba0e912" x="410.571346" y="384.150601" style="fill: #1a1a1a; stroke: #1a1a1a"/>
    </g>
   </g>
   <g id="patch_3">
    <path d="M 112.7925 855.954375 
L 112.7925 40.554375 
" style="fill: none; stroke: #262626; stroke-width: 1.25; stroke-linejoin: miter; stroke-linecap: square"/>
   </g>
   <g id="patch_4">
    <path d="M 949.7925 855.954375 
L 949.7925 40.554375 
" style="fill: none; stroke: #262626; stroke-width: 1.25; stroke-linejoin: miter; stroke-linecap: square"/>
   </g>
   <g id="patch_5">
    <path d="M 112.7925 855.954375 
L 949.7925 855.954375 
" style="fill: none; stroke: #262626; stroke-width: 1.25; stroke-linejoin: miter; stroke-linecap: square"/>
   </g>
   <g id="patch_6">
    <path d="M 112.7925 40.554375 
L 949.7925 40.554375 
" style="fill: none; stroke: #262626; stroke-width: 1.25; stroke-linejoin: miter; stroke-linecap: square"/>
   </g>
   <g id="text_15">
    <text style="fill: #262626; font: 36px 'sans-serif'; text-anchor: middle" x="531.2925" y="34.554375" transform="rotate(-0 531.2925 34.554375)">Figure 4. NK Cells</text>
   </g>
   <g id="legend_1">
    <g id="patch_7">
     <path d="M 54.2925 1336.183125 
L 1063.54125 1336.183125 
Q 1070.74125 1336.183125 1070.74125 1328.983125 
L 1070.74125 962.694375 
Q 1070.74125 955.494375 1063.54125 955.494375 
L 54.2925 955.494375 
Q 47.0925 955.494375 47.0925 962.694375 
L 47.0925 1328.983125 
Q 47.0925 1336.183125 54.2925 1336.183125 
z
" style="fill: #ffffff; opacity: 0.8; stroke: #cccccc; stroke-linejoin: miter"/>
    </g>
    <g id="line2d_8">
     <path d="M 61.4925 984.64875 
L 97.4925 984.64875 
L 133.4925 984.64875 
" style="fill: none; stroke: #fde725; stroke-width: 5; stroke-linecap: round"/>
    </g>
    <g id="text_16">
     <text style="fill: #262626; font: 36px 'sans-serif'; text-anchor: start" x="162.2925" y="997.24875" transform="rotate(-0 162.2925 997.24875)">All variables (ROC AUC = 0.96)</text>
    </g>
    <g id="line2d_9">
     <path d="M 61.4925 1037.49 
L 97.4925 1037.49 
L 133.4925 1037.49 
" style="fill: none; stroke: #a5db36; stroke-width: 5; stroke-linecap: round"/>
    </g>
    <g id="text_17">
     <text style="fill: #262626; font: 36px 'sans-serif'; text-anchor: start" x="162.2925" y="1050.09" transform="rotate(-0 162.2925 1050.09)">NAD(P)H variables + Cell Size (ROC AUC = 0.96)</text>
    </g>
    <g id="line2d_10">
     <path d="M 61.4925 1090.33125 
L 97.4925 1090.33125 
L 133.4925 1090.33125 
" style="fill: none; stroke: #4ac16d; stroke-width: 5; stroke-linecap: round"/>
    </g>
    <g id="text_18">
     <text style="fill: #262626; font: 36px 'sans-serif'; text-anchor: start" x="162.2925" y="1102.93125" transform="rotate(-0 162.2925 1102.93125)">Top four variables (ROC AUC) = 0.97)</text>
    </g>
    <g id="line2d_11">
     <path d="M 61.4925 1143.1725 
L 97.4925 1143.1725 
L 133.4925 1143.1725 
" style="fill: none; stroke: #1f988b; stroke-width: 5; stroke-linecap: round"/>
    </g>
    <g id="text_19">
     <text style="fill: #262626; font: 36px 'sans-serif'; text-anchor: start" x="162.2925" y="1155.7725" transform="rotate(-0 162.2925 1155.7725)">Top three variables (ROC AUC) = 0.95)</text>
    </g>
    <g id="line2d_12">
     <path d="M 61.4925 1196.01375 
L 97.4925 1196.01375 
L 133.4925 1196.01375 
" style="fill: none; stroke: #2a788e; stroke-width: 5; stroke-linecap: round"/>
    </g>
    <g id="text_20">
     <text style="fill: #262626; font: 36px 'sans-serif'; text-anchor: start" x="162.2925" y="1208.61375" transform="rotate(-0 162.2925 1208.61375)">Top two variables (ROC AUC) = 0.89)</text>
    </g>
    <g id="line2d_13">
     <path d="M 61.4925 1248.855 
L 97.4925 1248.855 
L 133.4925 1248.855 
" style="fill: none; stroke: #414487; stroke-width: 5; stroke-linecap: round"/>
    </g>
    <g id="text_21">
     <text style="fill: #262626; font: 36px 'sans-serif'; text-anchor: start" x="162.2925" y="1261.455" transform="rotate(-0 162.2925 1261.455)">Top variable (ROC AUC) = 0.71)</text>
    </g>
    <g id="line2d_14">
     <path d="M 61.4925 1301.69625 
L 97.4925 1301.69625 
L 133.4925 1301.69625 
" style="fill: none; stroke: #440154; stroke-width: 5; stroke-linecap: round"/>
    </g>
    <g id="text_22">
     <text style="fill: #262626; font: 36px 'sans-serif'; text-anchor: start" x="162.2925" y="1314.29625" transform="rotate(-0 162.2925 1314.29625)">Norm. Redox Ratio + Cell Size (ROC AUC) = 0.71)</text>
    </g>
   </g>
  </g>
 </g>
 <defs>
  <clipPath id="p2982120745">
   <rect x="112.7925" y="40.554375" width="837" height="815.4"/>
  </clipPath>
 </defs>
</svg>
