<?xml version="1.0" encoding="utf-8" standalone="no"?>
<!DOCTYPE svg PUBLIC "-//W3C//DTD SVG 1.1//EN"
  "http://www.w3.org/Graphics/SVG/1.1/DTD/svg11.dtd">
<svg xmlns:xlink="http://www.w3.org/1999/xlink" width="1077.94125pt" height="1343.383125pt" viewBox="0 0 1077.94125 1343.383125" xmlns="http://www.w3.org/2000/svg" version="1.1">
 <metadata>
  <rdf:RDF xmlns:dc="http://purl.org/dc/elements/1.1/" xmlns:cc="http://creativecommons.org/ns#" xmlns:rdf="http://www.w3.org/1999/02/22-rdf-syntax-ns#">
   <cc:Work>
    <dc:type rdf:resource="http://purl.org/dc/dcmitype/StillImage"/>
    <dc:date>2022-12-01T09:07:28.920769</dc:date>
    <dc:format>image/svg+xml</dc:format>
    <dc:creator>
     <cc:Agent>
      <dc:title>Matplotlib v3.6.0, https://matplotlib.org/</dc:title>
     </cc:Agent>
    </dc:creator>
   </cc:Work>
  </rdf:RDF>
 </metadata>
 <defs>
  <style type="text/css">*{stroke-linejoin: round; stroke-linecap: butt}</style>
 </defs>
 <g id="figure_1">
  <g id="patch_1">
   <path d="M 0 1343.383125 
L 1077.94125 1343.383125 
L 1077.94125 0 
L 0 0 
z
" style="fill: #ffffff"/>
  </g>
  <g id="axes_1">
   <g id="patch_2">
    <path d="M 112.7925 855.954375 
L 949.7925 855.954375 
L 949.7925 40.554375 
L 112.7925 40.554375 
z
" style="fill: #ffffff"/>
   </g>
   <g id="matplotlib.axis_1">
    <g id="xtick_1">
     <g id="text_1">
      <text style="fill: #262626; font: 36px 'sans-serif'; text-anchor: middle" x="112.7925" y="892.80875" transform="rotate(-0 112.7925 892.80875)">0.0</text>
     </g>
    </g>
    <g id="xtick_2">
     <g id="text_2">
      <text style="fill: #262626; font: 36px 'sans-serif'; text-anchor: middle" x="280.1925" y="892.80875" transform="rotate(-0 280.1925 892.80875)">0.2</text>
     </g>
    </g>
    <g id="xtick_3">
     <g id="text_3">
      <text style="fill: #262626; font: 36px 'sans-serif'; text-anchor: middle" x="447.5925" y="892.80875" transform="rotate(-0 447.5925 892.80875)">0.4</text>
     </g>
    </g>
    <g id="xtick_4">
     <g id="text_4">
      <text style="fill: #262626; font: 36px 'sans-serif'; text-anchor: middle" x="614.9925" y="892.80875" transform="rotate(-0 614.9925 892.80875)">0.6</text>
     </g>
    </g>
    <g id="xtick_5">
     <g id="text_5">
      <text style="fill: #262626; font: 36px 'sans-serif'; text-anchor: middle" x="782.3925" y="892.80875" transform="rotate(-0 782.3925 892.80875)">0.8</text>
     </g>
    </g>
    <g id="xtick_6">
     <g id="text_6">
      <text style="fill: #262626; font: 36px 'sans-serif'; text-anchor: middle" x="949.7925" y="892.80875" transform="rotate(-0 949.7925 892.80875)">1.0</text>
     </g>
    </g>
    <g id="text_7">
     <text style="fill: #262626; font: 36px 'sans-serif'; text-anchor: middle" x="531.2925" y="931.65" transform="rotate(-0 531.2925 931.65)">False Positive Rate</text>
    </g>
   </g>
   <g id="matplotlib.axis_2">
    <g id="ytick_1">
     <g id="text_8">
      <text style="fill: #262626; font: 36px 'sans-serif'; text-anchor: end" x="103.2925" y="869.631562" transform="rotate(-0 103.2925 869.631562)">0.0</text>
     </g>
    </g>
    <g id="ytick_2">
     <g id="text_9">
      <text style="fill: #262626; font: 36px 'sans-serif'; text-anchor: end" x="103.2925" y="706.551562" transform="rotate(-0 103.2925 706.551562)">0.2</text>
     </g>
    </g>
    <g id="ytick_3">
     <g id="text_10">
      <text style="fill: #262626; font: 36px 'sans-serif'; text-anchor: end" x="103.2925" y="543.471562" transform="rotate(-0 103.2925 543.471562)">0.4</text>
     </g>
    </g>
    <g id="ytick_4">
     <g id="text_11">
      <text style="fill: #262626; font: 36px 'sans-serif'; text-anchor: end" x="103.2925" y="380.391562" transform="rotate(-0 103.2925 380.391562)">0.6</text>
     </g>
    </g>
    <g id="ytick_5">
     <g id="text_12">
      <text style="fill: #262626; font: 36px 'sans-serif'; text-anchor: end" x="103.2925" y="217.311562" transform="rotate(-0 103.2925 217.311562)">0.8</text>
     </g>
    </g>
    <g id="ytick_6">
     <g id="text_13">
      <text style="fill: #262626; font: 36px 'sans-serif'; text-anchor: end" x="103.2925" y="54.231562" transform="rotate(-0 103.2925 54.231562)">1.0</text>
     </g>
    </g>
    <g id="text_14">
     <text style="fill: #262626; font: 36px 'sans-serif'; text-anchor: middle" x="34.554375" y="448.254375" transform="rotate(-90 34.554375 448.254375)">True Positive Rate</text>
    </g>
   </g>
   <g id="line2d_1">
    <path d="M 112.7925 855.954375 
L 112.7925 835.348599 
L 112.7925 817.686505 
L 112.7925 794.137046 
L 112.7925 764.700223 
L 112.7925 752.925494 
L 112.7925 732.319718 
L 112.7925 708.770259 
L 112.7925 691.108166 
L 112.7925 658.72766 
L 112.7925 617.516108 
L 112.7925 599.854014 
L 114.911487 588.079285 
L 114.911487 573.360873 
L 117.030475 558.642462 
L 117.030475 546.867732 
L 117.030475 543.92405 
L 117.030475 535.093003 
L 117.030475 532.149321 
L 117.030475 514.487227 
L 119.149462 490.937769 
L 119.149462 482.106722 
L 119.149462 458.557263 
L 119.149462 452.669898 
L 121.268449 449.726216 
L 121.268449 440.895169 
L 127.625411 429.12044 
L 127.625411 417.345711 
L 127.625411 414.402028 
L 127.625411 399.683617 
L 129.744399 387.908888 
L 129.744399 376.134158 
L 129.744399 370.246794 
L 131.863386 367.303111 
L 131.863386 358.472065 
L 136.101361 355.528382 
L 138.220348 340.809971 
L 140.339335 334.922606 
L 144.57731 320.204194 
L 144.57731 305.485783 
L 148.815285 296.654736 
L 150.934272 293.711054 
L 153.053259 284.880007 
L 157.291234 281.936324 
L 159.410222 281.936324 
L 163.648196 261.330548 
L 165.767184 252.499501 
L 170.005158 246.612137 
L 176.36212 243.668454 
L 180.600095 226.006361 
L 184.83807 220.118996 
L 191.195032 208.344267 
L 193.314019 205.400584 
L 197.551994 196.569537 
L 201.789968 193.625855 
L 214.503892 178.907444 
L 225.098829 167.132714 
L 237.812753 158.301667 
L 242.050728 152.414303 
L 252.645665 143.583256 
L 259.002627 137.695891 
L 275.954525 131.808527 
L 284.430475 131.808527 
L 290.787437 128.864844 
L 311.97731 122.97748 
L 324.691234 122.97748 
L 341.643133 114.146433 
L 345.881108 114.146433 
L 354.357057 114.146433 
L 367.070981 108.259068 
L 381.903892 105.315386 
L 403.093766 105.315386 
L 409.450728 102.371704 
L 426.402627 99.428021 
L 439.116551 96.484339 
L 464.544399 90.596974 
L 479.37731 90.596974 
L 494.210222 84.70961 
L 515.400095 81.765927 
L 536.589968 75.878563 
L 564.136804 75.878563 
L 591.683639 72.93488 
L 610.754525 67.047516 
L 657.372247 64.103833 
L 684.919082 58.216469 
L 706.108956 52.329104 
L 737.893766 43.498057 
L 761.202627 43.498057 
L 797.225411 43.498057 
L 826.891234 40.554375 
L 869.270981 40.554375 
L 888.341867 40.554375 
L 922.245665 40.554375 
L 941.316551 40.554375 
L 949.7925 40.554375 
" clip-path="url(#p57d4a23812)" style="fill: none; stroke: #fde725; stroke-width: 5; stroke-linecap: round"/>
   </g>
   <g id="PathCollection_1">
    <defs>
     <path id="mfe65456e47" d="M 0 11.18034 
C 2.965061 11.18034 5.80908 10.002309 7.905694 7.905694 
C 10.002309 5.80908 11.18034 2.965061 11.18034 0 
C 11.18034 -2.965061 10.002309 -5.80908 7.905694 -7.905694 
C 5.80908 -10.002309 2.965061 -11.18034 0 -11.18034 
C -2.965061 -11.18034 -5.80908 -10.002309 -7.905694 -7.905694 
C -10.002309 -5.80908 -11.18034 -2.965061 -11.18034 0 
C -11.18034 2.965061 -10.002309 5.80908 -7.905694 7.905694 
C -5.80908 10.002309 -2.965061 11.18034 0 11.18034 
z
" style="stroke: #1a1a1a"/>
    </defs>
    <g clip-path="url(#p57d4a23812)">
     <use xlink:href="#mfe65456e47" x="167.886171" y="249.555819" style="fill: #1a1a1a; stroke: #1a1a1a"/>
    </g>
   </g>
   <g id="line2d_2">
    <path d="M 112.7925 855.954375 
L 112.7925 805.911776 
L 112.7925 773.53127 
L 112.7925 720.544989 
L 112.7925 696.99553 
L 112.7925 679.333436 
L 112.7925 649.896613 
L 114.911487 644.009249 
L 114.911487 620.45979 
L 114.911487 605.741379 
L 117.030475 596.910332 
L 117.030475 588.079285 
L 117.030475 573.360873 
L 117.030475 552.755097 
L 117.030475 538.036685 
L 117.030475 514.487227 
L 119.149462 508.599862 
L 121.268449 487.994086 
L 121.268449 473.275675 
L 121.268449 467.38831 
L 121.268449 458.557263 
L 121.268449 435.007805 
L 121.268449 426.176758 
L 123.387437 423.233075 
L 123.387437 420.289393 
L 123.387437 411.458346 
L 125.506424 402.627299 
L 129.744399 396.739935 
L 129.744399 379.077841 
L 129.744399 376.134158 
L 136.101361 355.528382 
L 136.101361 346.697335 
L 138.220348 337.866288 
L 140.339335 331.978924 
L 148.815285 326.091559 
L 153.053259 320.204194 
L 157.291234 308.429465 
L 163.648196 302.542101 
L 165.767184 299.598418 
L 167.886171 287.823689 
L 174.243133 281.936324 
L 176.36212 276.04896 
L 178.481108 264.274231 
L 180.600095 258.386866 
L 184.83807 249.555819 
L 186.957057 246.612137 
L 193.314019 240.724772 
L 193.314019 234.837407 
L 199.670981 231.893725 
L 201.789968 231.893725 
L 208.14693 226.006361 
L 210.265918 217.175314 
L 214.503892 205.400584 
L 225.098829 196.569537 
L 229.336804 190.682173 
L 233.574778 178.907444 
L 237.812753 175.963761 
L 239.931741 170.076397 
L 250.526677 164.189032 
L 259.002627 152.414303 
L 273.835538 152.414303 
L 280.1925 149.47062 
L 282.311487 149.47062 
L 290.787437 140.639574 
L 297.144399 140.639574 
L 316.215285 137.695891 
L 320.453259 134.752209 
L 331.048196 134.752209 
L 356.476044 128.864844 
L 362.833006 128.864844 
L 364.951994 125.921162 
L 386.141867 125.921162 
L 400.974778 125.921162 
L 415.80769 117.090115 
L 428.521614 114.146433 
L 445.473513 108.259068 
L 458.187437 108.259068 
L 475.139335 102.371704 
L 496.329209 99.428021 
L 519.63807 93.540657 
L 547.184905 90.596974 
L 566.255791 90.596974 
L 587.445665 84.70961 
L 606.516551 75.878563 
L 631.944399 75.878563 
L 659.491234 75.878563 
L 674.324146 69.991198 
L 689.157057 67.047516 
L 720.941867 64.103833 
L 754.845665 61.160151 
L 773.916551 58.216469 
L 814.17731 52.329104 
L 869.270981 46.44174 
L 924.364652 40.554375 
L 949.7925 40.554375 
" clip-path="url(#p57d4a23812)" style="fill: none; stroke: #a5db36; stroke-width: 5; stroke-linecap: round"/>
   </g>
   <g id="PathCollection_2">
    <g clip-path="url(#p57d4a23812)">
     <use xlink:href="#mfe65456e47" x="193.314019" y="240.724772" style="fill: #1a1a1a; stroke: #1a1a1a"/>
    </g>
   </g>
   <g id="line2d_3">
    <path d="M 112.7925 855.954375 
L 112.7925 791.193364 
L 112.7925 744.094447 
L 112.7925 714.657624 
L 112.7925 679.333436 
L 112.7925 641.065566 
L 114.911487 614.572426 
L 114.911487 588.079285 
L 114.911487 570.417191 
L 114.911487 564.529826 
L 117.030475 543.92405 
L 117.030475 526.261956 
L 117.030475 511.543545 
L 119.149462 505.65618 
L 119.149462 493.881451 
L 119.149462 476.219357 
L 119.149462 470.331992 
L 119.149462 467.38831 
L 119.149462 461.500945 
L 119.149462 452.669898 
L 123.387437 443.838852 
L 123.387437 437.951487 
L 127.625411 426.176758 
L 129.744399 417.345711 
L 131.863386 411.458346 
L 131.863386 408.514664 
L 131.863386 399.683617 
L 131.863386 396.739935 
L 131.863386 384.965205 
L 131.863386 373.190476 
L 133.982373 370.246794 
L 136.101361 358.472065 
L 136.101361 343.753653 
L 142.458323 331.978924 
L 142.458323 329.035241 
L 150.934272 329.035241 
L 153.053259 320.204194 
L 159.410222 320.204194 
L 161.529209 314.31683 
L 161.529209 311.373148 
L 170.005158 308.429465 
L 170.005158 296.654736 
L 172.124146 287.823689 
L 176.36212 287.823689 
L 176.36212 281.936324 
L 178.481108 276.04896 
L 182.719082 270.161595 
L 193.314019 267.217913 
L 195.433006 261.330548 
L 197.551994 258.386866 
L 197.551994 252.499501 
L 201.789968 249.555819 
L 203.908956 246.612137 
L 212.384905 243.668454 
L 218.741867 223.062678 
L 222.979842 214.231631 
L 235.693766 205.400584 
L 242.050728 202.456902 
L 250.526677 202.456902 
L 259.002627 199.51322 
L 259.002627 190.682173 
L 263.240601 178.907444 
L 273.835538 170.076397 
L 290.787437 170.076397 
L 292.906424 167.132714 
L 305.620348 167.132714 
L 314.096297 161.24535 
L 326.810222 155.357985 
L 331.048196 149.47062 
L 345.881108 146.526938 
L 358.595032 146.526938 
L 381.903892 137.695891 
L 390.379842 125.921162 
L 396.736804 120.033797 
L 411.569715 114.146433 
L 430.640601 108.259068 
L 451.830475 102.371704 
L 479.37731 102.371704 
L 489.972247 96.484339 
L 500.567184 93.540657 
L 519.63807 87.653292 
L 538.708956 87.653292 
L 574.731741 87.653292 
L 602.278576 78.822245 
L 625.587437 75.878563 
L 663.729209 69.991198 
L 689.157057 69.991198 
L 714.584905 67.047516 
L 744.250728 64.103833 
L 767.559589 61.160151 
L 814.17731 49.385422 
L 867.151994 49.385422 
L 905.293766 43.498057 
L 949.7925 40.554375 
" clip-path="url(#p57d4a23812)" style="fill: none; stroke: #4ac16d; stroke-width: 5; stroke-linecap: round"/>
   </g>
   <g id="PathCollection_3">
    <g clip-path="url(#p57d4a23812)">
     <use xlink:href="#mfe65456e47" x="178.481108" y="276.04896" style="fill: #1a1a1a; stroke: #1a1a1a"/>
    </g>
   </g>
   <g id="line2d_4">
    <path d="M 112.7925 855.954375 
L 112.7925 844.179646 
L 112.7925 823.57387 
L 114.911487 802.968093 
L 114.911487 776.474953 
L 114.911487 758.812859 
L 114.911487 744.094447 
L 114.911487 720.544989 
L 114.911487 679.333436 
L 117.030475 655.783978 
L 119.149462 635.178202 
L 119.149462 623.403472 
L 123.387437 599.854014 
L 127.625411 591.022967 
L 131.863386 576.304556 
L 133.982373 558.642462 
L 133.982373 552.755097 
L 138.220348 538.036685 
L 140.339335 523.318274 
L 146.696297 511.543545 
L 146.696297 499.768815 
L 150.934272 487.994086 
L 153.053259 470.331992 
L 155.172247 467.38831 
L 157.291234 446.782534 
L 157.291234 440.895169 
L 161.529209 432.064122 
L 161.529209 426.176758 
L 163.648196 405.570981 
L 167.886171 399.683617 
L 167.886171 396.739935 
L 170.005158 390.85257 
L 172.124146 387.908888 
L 172.124146 379.077841 
L 174.243133 379.077841 
L 174.243133 376.134158 
L 176.36212 367.303111 
L 178.481108 361.415747 
L 184.83807 352.5847 
L 189.076044 343.753653 
L 191.195032 340.809971 
L 193.314019 326.091559 
L 197.551994 323.147877 
L 201.789968 323.147877 
L 203.908956 320.204194 
L 203.908956 317.260512 
L 212.384905 308.429465 
L 218.741867 302.542101 
L 218.741867 296.654736 
L 222.979842 293.711054 
L 227.217816 293.711054 
L 227.217816 290.767371 
L 235.693766 281.936324 
L 237.812753 278.992642 
L 244.169715 278.992642 
L 248.40769 273.105278 
L 250.526677 264.274231 
L 259.002627 258.386866 
L 259.002627 255.443184 
L 269.597563 252.499501 
L 273.835538 240.724772 
L 284.430475 237.78109 
L 290.787437 234.837407 
L 295.025411 231.893725 
L 301.382373 226.006361 
L 303.501361 217.175314 
L 307.739335 217.175314 
L 324.691234 211.287949 
L 328.929209 208.344267 
L 348.000095 196.569537 
L 362.833006 190.682173 
L 369.189968 184.794808 
L 386.141867 181.851126 
L 396.736804 170.076397 
L 407.331741 167.132714 
L 422.164652 167.132714 
L 439.116551 167.132714 
L 451.830475 164.189032 
L 456.068449 161.24535 
L 470.901361 152.414303 
L 481.496297 152.414303 
L 489.972247 146.526938 
L 521.757057 140.639574 
L 540.827943 128.864844 
L 559.898829 120.033797 
L 574.731741 111.20275 
L 598.040601 105.315386 
L 614.9925 102.371704 
L 642.539335 84.70961 
L 687.03807 78.822245 
L 727.298829 69.991198 
L 756.964652 64.103833 
L 776.035538 52.329104 
L 805.701361 52.329104 
L 848.081108 49.385422 
L 888.341867 43.498057 
L 913.769715 40.554375 
L 932.840601 40.554375 
L 949.7925 40.554375 
" clip-path="url(#p57d4a23812)" style="fill: none; stroke: #1f988b; stroke-width: 5; stroke-linecap: round"/>
   </g>
   <g id="PathCollection_4">
    <g clip-path="url(#p57d4a23812)">
     <use xlink:href="#mfe65456e47" x="218.741867" y="296.654736" style="fill: #1a1a1a; stroke: #1a1a1a"/>
    </g>
   </g>
   <g id="line2d_5">
    <path d="M 112.7925 855.954375 
L 119.149462 814.742823 
L 119.149462 785.306 
L 121.268449 752.925494 
L 125.506424 735.2634 
L 127.625411 726.432353 
L 129.744399 714.657624 
L 129.744399 702.882895 
L 133.982373 676.389754 
L 133.982373 664.615025 
L 133.982373 644.009249 
L 136.101361 638.121884 
L 138.220348 626.347155 
L 138.220348 614.572426 
L 142.458323 599.854014 
L 142.458323 591.022967 
L 146.696297 582.19192 
L 146.696297 570.417191 
L 146.696297 567.473509 
L 146.696297 549.811415 
L 153.053259 538.036685 
L 157.291234 535.093003 
L 159.410222 532.149321 
L 159.410222 514.487227 
L 163.648196 508.599862 
L 165.767184 502.712498 
L 167.886171 490.937769 
L 174.243133 485.050404 
L 174.243133 479.163039 
L 180.600095 470.331992 
L 184.83807 470.331992 
L 184.83807 461.500945 
L 184.83807 449.726216 
L 186.957057 446.782534 
L 197.551994 440.895169 
L 203.908956 426.176758 
L 212.384905 417.345711 
L 214.503892 411.458346 
L 222.979842 408.514664 
L 225.098829 402.627299 
L 229.336804 402.627299 
L 229.336804 396.739935 
L 231.455791 393.796252 
L 233.574778 376.134158 
L 239.931741 367.303111 
L 244.169715 361.415747 
L 252.645665 358.472065 
L 252.645665 352.5847 
L 256.883639 343.753653 
L 261.121614 340.809971 
L 261.121614 334.922606 
L 269.597563 331.978924 
L 271.716551 323.147877 
L 273.835538 323.147877 
L 284.430475 314.31683 
L 288.668449 308.429465 
L 297.144399 296.654736 
L 303.501361 293.711054 
L 311.97731 284.880007 
L 314.096297 276.04896 
L 322.572247 270.161595 
L 324.691234 267.217913 
L 337.405158 255.443184 
L 354.357057 249.555819 
L 358.595032 246.612137 
L 362.833006 240.724772 
L 364.951994 237.78109 
L 373.427943 226.006361 
L 384.02288 226.006361 
L 400.974778 220.118996 
L 411.569715 211.287949 
L 424.283639 211.287949 
L 436.997563 205.400584 
L 449.711487 196.569537 
L 458.187437 193.625855 
L 477.258323 190.682173 
L 487.853259 184.794808 
L 498.448196 175.963761 
L 502.686171 170.076397 
L 515.400095 164.189032 
L 523.876044 161.24535 
L 538.708956 149.47062 
L 542.94693 149.47062 
L 549.303892 149.47062 
L 566.255791 143.583256 
L 572.612753 143.583256 
L 583.20769 137.695891 
L 598.040601 131.808527 
L 612.873513 120.033797 
L 640.420348 114.146433 
L 644.658323 111.20275 
L 672.205158 105.315386 
L 695.514019 90.596974 
L 731.536804 87.653292 
L 769.678576 84.70961 
L 820.534272 81.765927 
L 848.081108 69.991198 
L 894.698829 58.216469 
L 949.7925 40.554375 
" clip-path="url(#p57d4a23812)" style="fill: none; stroke: #2a788e; stroke-width: 5; stroke-linecap: round"/>
   </g>
   <g id="PathCollection_5">
    <g clip-path="url(#p57d4a23812)">
     <use xlink:href="#mfe65456e47" x="252.645665" y="352.5847" style="fill: #1a1a1a; stroke: #1a1a1a"/>
    </g>
   </g>
   <g id="line2d_6">
    <path d="M 112.7925 855.954375 
L 133.982373 800.024411 
L 148.815285 776.474953 
L 157.291234 741.150765 
L 159.410222 738.207083 
L 161.529209 729.376036 
L 165.767184 717.601306 
L 165.767184 708.770259 
L 172.124146 685.220801 
L 186.957057 679.333436 
L 193.314019 667.558707 
L 201.789968 652.840296 
L 208.14693 638.121884 
L 212.384905 629.290837 
L 222.979842 617.516108 
L 225.098829 614.572426 
L 233.574778 605.741379 
L 239.931741 596.910332 
L 244.169715 593.966649 
L 250.526677 591.022967 
L 252.645665 591.022967 
L 254.764652 588.079285 
L 254.764652 582.19192 
L 254.764652 570.417191 
L 263.240601 555.698779 
L 267.478576 549.811415 
L 280.1925 546.867732 
L 284.430475 538.036685 
L 290.787437 535.093003 
L 297.144399 520.374592 
L 301.382373 505.65618 
L 316.215285 490.937769 
L 322.572247 487.994086 
L 326.810222 482.106722 
L 333.167184 479.163039 
L 341.643133 470.331992 
L 354.357057 467.38831 
L 360.714019 464.444628 
L 373.427943 458.557263 
L 379.784905 446.782534 
L 381.903892 440.895169 
L 384.02288 432.064122 
L 388.260854 429.12044 
L 390.379842 426.176758 
L 394.617816 426.176758 
L 396.736804 423.233075 
L 400.974778 423.233075 
L 400.974778 420.289393 
L 403.093766 414.402028 
L 403.093766 408.514664 
L 405.212753 396.739935 
L 405.212753 393.796252 
L 409.450728 390.85257 
L 413.688703 379.077841 
L 415.80769 373.190476 
L 420.045665 364.359429 
L 422.164652 358.472065 
L 422.164652 352.5847 
L 434.878576 329.035241 
L 439.116551 323.147877 
L 443.354525 311.373148 
L 449.711487 296.654736 
L 460.306424 293.711054 
L 464.544399 284.880007 
L 475.139335 276.04896 
L 483.615285 267.217913 
L 496.329209 261.330548 
L 509.043133 258.386866 
L 521.757057 258.386866 
L 521.757057 252.499501 
L 523.876044 252.499501 
L 530.233006 249.555819 
L 532.351994 249.555819 
L 542.94693 243.668454 
L 551.42288 237.78109 
L 555.660854 234.837407 
L 564.136804 226.006361 
L 568.374778 220.118996 
L 585.326677 214.231631 
L 593.802627 214.231631 
L 606.516551 208.344267 
L 623.468449 196.569537 
L 631.944399 184.794808 
L 642.539335 175.963761 
L 653.134272 170.076397 
L 663.729209 161.24535 
L 678.56212 149.47062 
L 693.395032 140.639574 
L 718.82288 122.97748 
L 754.845665 117.090115 
L 949.7925 40.554375 
" clip-path="url(#p57d4a23812)" style="fill: none; stroke: #414487; stroke-width: 5; stroke-linecap: round"/>
   </g>
   <g id="PathCollection_6">
    <g clip-path="url(#p57d4a23812)">
     <use xlink:href="#mfe65456e47" x="400.974778" y="423.233075" style="fill: #1a1a1a; stroke: #1a1a1a"/>
    </g>
   </g>
   <g id="line2d_7">
    <path d="M 112.7925 855.954375 
L 112.7925 838.292281 
L 112.7925 826.517552 
L 112.7925 811.79914 
L 119.149462 800.024411 
L 123.387437 797.080729 
L 123.387437 788.249682 
L 123.387437 785.306 
L 125.506424 779.418635 
L 127.625411 776.474953 
L 127.625411 767.643906 
L 129.744399 755.869176 
L 131.863386 752.925494 
L 136.101361 747.03813 
L 138.220348 738.207083 
L 142.458323 732.319718 
L 142.458323 729.376036 
L 144.57731 729.376036 
L 148.815285 714.657624 
L 157.291234 705.826577 
L 163.648196 699.939213 
L 167.886171 694.051848 
L 167.886171 691.108166 
L 176.36212 685.220801 
L 178.481108 673.446072 
L 180.600095 664.615025 
L 182.719082 664.615025 
L 186.957057 658.72766 
L 189.076044 655.783978 
L 197.551994 655.783978 
L 201.789968 649.896613 
L 210.265918 644.009249 
L 214.503892 644.009249 
L 216.62288 638.121884 
L 220.860854 620.45979 
L 225.098829 620.45979 
L 229.336804 605.741379 
L 237.812753 596.910332 
L 246.288703 593.966649 
L 252.645665 588.079285 
L 261.121614 558.642462 
L 269.597563 538.036685 
L 273.835538 529.205639 
L 286.549462 526.261956 
L 288.668449 517.430909 
L 301.382373 508.599862 
L 307.739335 502.712498 
L 314.096297 493.881451 
L 326.810222 476.219357 
L 328.929209 470.331992 
L 345.881108 458.557263 
L 356.476044 446.782534 
L 364.951994 437.951487 
L 373.427943 432.064122 
L 384.02288 417.345711 
L 398.855791 411.458346 
L 407.331741 402.627299 
L 411.569715 396.739935 
L 422.164652 390.85257 
L 430.640601 384.965205 
L 439.116551 373.190476 
L 441.235538 364.359429 
L 445.473513 352.5847 
L 460.306424 346.697335 
L 464.544399 343.753653 
L 473.020348 331.978924 
L 477.258323 320.204194 
L 483.615285 311.373148 
L 489.972247 293.711054 
L 502.686171 278.992642 
L 509.043133 270.161595 
L 525.995032 252.499501 
L 534.470981 243.668454 
L 542.94693 237.78109 
L 555.660854 228.950043 
L 562.017816 220.118996 
L 589.564652 211.287949 
L 602.278576 202.456902 
L 610.754525 193.625855 
L 621.349462 193.625855 
L 629.825411 184.794808 
L 638.301361 173.020079 
L 651.015285 161.24535 
L 667.967184 161.24535 
L 674.324146 155.357985 
L 678.56212 146.526938 
L 693.395032 134.752209 
L 718.82288 131.808527 
L 729.417816 125.921162 
L 746.369715 117.090115 
L 769.678576 111.20275 
L 786.630475 102.371704 
L 809.939335 90.596974 
L 837.486171 90.596974 
L 871.389968 78.822245 
L 892.579842 69.991198 
L 924.364652 58.216469 
L 949.7925 40.554375 
" clip-path="url(#p57d4a23812)" style="fill: none; stroke: #440154; stroke-width: 5; stroke-linecap: round"/>
   </g>
   <g id="PathCollection_7">
    <g clip-path="url(#p57d4a23812)">
     <use xlink:href="#mfe65456e47" x="314.096297" y="493.881451" style="fill: #1a1a1a; stroke: #1a1a1a"/>
    </g>
   </g>
   <g id="patch_3">
    <path d="M 112.7925 855.954375 
L 112.7925 40.554375 
" style="fill: none; stroke: #262626; stroke-width: 1.25; stroke-linejoin: miter; stroke-linecap: square"/>
   </g>
   <g id="patch_4">
    <path d="M 949.7925 855.954375 
L 949.7925 40.554375 
" style="fill: none; stroke: #262626; stroke-width: 1.25; stroke-linejoin: miter; stroke-linecap: square"/>
   </g>
   <g id="patch_5">
    <path d="M 112.7925 855.954375 
L 949.7925 855.954375 
" style="fill: none; stroke: #262626; stroke-width: 1.25; stroke-linejoin: miter; stroke-linecap: square"/>
   </g>
   <g id="patch_6">
    <path d="M 112.7925 40.554375 
L 949.7925 40.554375 
" style="fill: none; stroke: #262626; stroke-width: 1.25; stroke-linejoin: miter; stroke-linecap: square"/>
   </g>
   <g id="text_15">
    <text style="fill: #262626; font: 36px 'sans-serif'; text-anchor: middle" x="531.2925" y="34.554375" transform="rotate(-0 531.2925 34.554375)">Figure 4. NK Cells</text>
   </g>
   <g id="legend_1">
    <g id="patch_7">
     <path d="M 54.2925 1336.183125 
L 1063.54125 1336.183125 
Q 1070.74125 1336.183125 1070.74125 1328.983125 
L 1070.74125 962.694375 
Q 1070.74125 955.494375 1063.54125 955.494375 
L 54.2925 955.494375 
Q 47.0925 955.494375 47.0925 962.694375 
L 47.0925 1328.983125 
Q 47.0925 1336.183125 54.2925 1336.183125 
z
" style="fill: #ffffff; opacity: 0.8; stroke: #cccccc; stroke-linejoin: miter"/>
    </g>
    <g id="line2d_8">
     <path d="M 61.4925 984.64875 
L 97.4925 984.64875 
L 133.4925 984.64875 
" style="fill: none; stroke: #fde725; stroke-width: 5; stroke-linecap: round"/>
    </g>
    <g id="text_16">
     <text style="fill: #262626; font: 36px 'sans-serif'; text-anchor: start" x="162.2925" y="997.24875" transform="rotate(-0 162.2925 997.24875)">All variables (ROC AUC = 0.92)</text>
    </g>
    <g id="line2d_9">
     <path d="M 61.4925 1037.49 
L 97.4925 1037.49 
L 133.4925 1037.49 
" style="fill: none; stroke: #a5db36; stroke-width: 5; stroke-linecap: round"/>
    </g>
    <g id="text_17">
     <text style="fill: #262626; font: 36px 'sans-serif'; text-anchor: start" x="162.2925" y="1050.09" transform="rotate(-0 162.2925 1050.09)">NAD(P)H variables + Cell Size (ROC AUC = 0.90)</text>
    </g>
    <g id="line2d_10">
     <path d="M 61.4925 1090.33125 
L 97.4925 1090.33125 
L 133.4925 1090.33125 
" style="fill: none; stroke: #4ac16d; stroke-width: 5; stroke-linecap: round"/>
    </g>
    <g id="text_18">
     <text style="fill: #262626; font: 36px 'sans-serif'; text-anchor: start" x="162.2925" y="1102.93125" transform="rotate(-0 162.2925 1102.93125)">Top four variables (ROC AUC) = 0.90)</text>
    </g>
    <g id="line2d_11">
     <path d="M 61.4925 1143.1725 
L 97.4925 1143.1725 
L 133.4925 1143.1725 
" style="fill: none; stroke: #1f988b; stroke-width: 5; stroke-linecap: round"/>
    </g>
    <g id="text_19">
     <text style="fill: #262626; font: 36px 'sans-serif'; text-anchor: start" x="162.2925" y="1155.7725" transform="rotate(-0 162.2925 1155.7725)">Top three variables (ROC AUC) = 0.85)</text>
    </g>
    <g id="line2d_12">
     <path d="M 61.4925 1196.01375 
L 97.4925 1196.01375 
L 133.4925 1196.01375 
" style="fill: none; stroke: #2a788e; stroke-width: 5; stroke-linecap: round"/>
    </g>
    <g id="text_20">
     <text style="fill: #262626; font: 36px 'sans-serif'; text-anchor: start" x="162.2925" y="1208.61375" transform="rotate(-0 162.2925 1208.61375)">Top two variables (ROC AUC) = 0.79)</text>
    </g>
    <g id="line2d_13">
     <path d="M 61.4925 1248.855 
L 97.4925 1248.855 
L 133.4925 1248.855 
" style="fill: none; stroke: #414487; stroke-width: 5; stroke-linecap: round"/>
    </g>
    <g id="text_21">
     <text style="fill: #262626; font: 36px 'sans-serif'; text-anchor: start" x="162.2925" y="1261.455" transform="rotate(-0 162.2925 1261.455)">Top variable (ROC AUC) = 0.66)</text>
    </g>
    <g id="line2d_14">
     <path d="M 61.4925 1301.69625 
L 97.4925 1301.69625 
L 133.4925 1301.69625 
" style="fill: none; stroke: #440154; stroke-width: 5; stroke-linecap: round"/>
    </g>
    <g id="text_22">
     <text style="fill: #262626; font: 36px 'sans-serif'; text-anchor: start" x="162.2925" y="1314.29625" transform="rotate(-0 162.2925 1314.29625)">Norm. Redox Ratio + Cell Size (ROC AUC) = 0.66)</text>
    </g>
   </g>
  </g>
 </g>
 <defs>
  <clipPath id="p57d4a23812">
   <rect x="112.7925" y="40.554375" width="837" height="815.4"/>
  </clipPath>
 </defs>
</svg>
