<?xml version="1.0" encoding="utf-8" standalone="no"?>
<!DOCTYPE svg PUBLIC "-//W3C//DTD SVG 1.1//EN"
  "http://www.w3.org/Graphics/SVG/1.1/DTD/svg11.dtd">
<svg xmlns:xlink="http://www.w3.org/1999/xlink" width="985.618125pt" height="1132.175625pt" viewBox="0 0 985.618125 1132.175625" xmlns="http://www.w3.org/2000/svg" version="1.1">
 <metadata>
  <rdf:RDF xmlns:dc="http://purl.org/dc/elements/1.1/" xmlns:cc="http://creativecommons.org/ns#" xmlns:rdf="http://www.w3.org/1999/02/22-rdf-syntax-ns#">
   <cc:Work>
    <dc:type rdf:resource="http://purl.org/dc/dcmitype/StillImage"/>
    <dc:date>2022-11-30T08:14:15.822004</dc:date>
    <dc:format>image/svg+xml</dc:format>
    <dc:creator>
     <cc:Agent>
      <dc:title>Matplotlib v3.6.0, https://matplotlib.org/</dc:title>
     </cc:Agent>
    </dc:creator>
   </cc:Work>
  </rdf:RDF>
 </metadata>
 <defs>
  <style type="text/css">*{stroke-linejoin: round; stroke-linecap: butt}</style>
 </defs>
 <g id="figure_1">
  <g id="patch_1">
   <path d="M 0 1132.175625 
L 985.618125 1132.175625 
L 985.618125 0 
L 0 0 
z
" style="fill: #ffffff"/>
  </g>
  <g id="axes_1">
   <g id="patch_2">
    <path d="M 112.7925 856.111875 
L 949.7925 856.111875 
L 949.7925 40.711875 
L 112.7925 40.711875 
z
" style="fill: #ffffff"/>
   </g>
   <g id="matplotlib.axis_1">
    <g id="xtick_1">
     <g id="text_1">
      <text style="fill: #262626; font: 36px 'sans-serif'; text-anchor: middle" x="112.7925" y="892.96625" transform="rotate(-0 112.7925 892.96625)">0.0</text>
     </g>
    </g>
    <g id="xtick_2">
     <g id="text_2">
      <text style="fill: #262626; font: 36px 'sans-serif'; text-anchor: middle" x="280.1925" y="892.96625" transform="rotate(-0 280.1925 892.96625)">0.2</text>
     </g>
    </g>
    <g id="xtick_3">
     <g id="text_3">
      <text style="fill: #262626; font: 36px 'sans-serif'; text-anchor: middle" x="447.5925" y="892.96625" transform="rotate(-0 447.5925 892.96625)">0.4</text>
     </g>
    </g>
    <g id="xtick_4">
     <g id="text_4">
      <text style="fill: #262626; font: 36px 'sans-serif'; text-anchor: middle" x="614.9925" y="892.96625" transform="rotate(-0 614.9925 892.96625)">0.6</text>
     </g>
    </g>
    <g id="xtick_5">
     <g id="text_5">
      <text style="fill: #262626; font: 36px 'sans-serif'; text-anchor: middle" x="782.3925" y="892.96625" transform="rotate(-0 782.3925 892.96625)">0.8</text>
     </g>
    </g>
    <g id="xtick_6">
     <g id="text_6">
      <text style="fill: #262626; font: 36px 'sans-serif'; text-anchor: middle" x="949.7925" y="892.96625" transform="rotate(-0 949.7925 892.96625)">1.0</text>
     </g>
    </g>
    <g id="text_7">
     <text style="fill: #262626; font: 36px 'sans-serif'; text-anchor: middle" x="531.2925" y="931.8075" transform="rotate(-0 531.2925 931.8075)">False Positive Rate</text>
    </g>
   </g>
   <g id="matplotlib.axis_2">
    <g id="ytick_1">
     <g id="text_8">
      <text style="fill: #262626; font: 36px 'sans-serif'; text-anchor: end" x="103.2925" y="869.789062" transform="rotate(-0 103.2925 869.789062)">0.0</text>
     </g>
    </g>
    <g id="ytick_2">
     <g id="text_9">
      <text style="fill: #262626; font: 36px 'sans-serif'; text-anchor: end" x="103.2925" y="706.709062" transform="rotate(-0 103.2925 706.709062)">0.2</text>
     </g>
    </g>
    <g id="ytick_3">
     <g id="text_10">
      <text style="fill: #262626; font: 36px 'sans-serif'; text-anchor: end" x="103.2925" y="543.629062" transform="rotate(-0 103.2925 543.629062)">0.4</text>
     </g>
    </g>
    <g id="ytick_4">
     <g id="text_11">
      <text style="fill: #262626; font: 36px 'sans-serif'; text-anchor: end" x="103.2925" y="380.549062" transform="rotate(-0 103.2925 380.549062)">0.6</text>
     </g>
    </g>
    <g id="ytick_5">
     <g id="text_12">
      <text style="fill: #262626; font: 36px 'sans-serif'; text-anchor: end" x="103.2925" y="217.469062" transform="rotate(-0 103.2925 217.469062)">0.8</text>
     </g>
    </g>
    <g id="ytick_6">
     <g id="text_13">
      <text style="fill: #262626; font: 36px 'sans-serif'; text-anchor: end" x="103.2925" y="54.389062" transform="rotate(-0 103.2925 54.389062)">1.0</text>
     </g>
    </g>
    <g id="text_14">
     <text style="fill: #262626; font: 36px 'sans-serif'; text-anchor: middle" x="34.554375" y="448.411875" transform="rotate(-90 34.554375 448.411875)">True Positive Rate</text>
    </g>
   </g>
   <g id="line2d_1">
    <path d="M 112.7925 856.111875 
L 112.7925 854.427164 
L 112.7925 852.742454 
L 112.7925 849.373032 
L 112.7925 846.003611 
L 112.7925 840.949478 
L 114.628026 825.787082 
L 114.628026 819.048239 
L 118.299079 819.048239 
L 118.299079 813.994106 
L 118.299079 803.885842 
L 121.970132 793.777577 
L 121.970132 783.669313 
L 129.312237 763.452784 
L 129.312237 756.713941 
L 131.147763 738.182123 
L 136.654342 728.073858 
L 138.489868 719.650305 
L 140.325395 707.85733 
L 149.503026 684.271379 
L 153.174079 665.739561 
L 156.845132 650.577164 
L 160.516184 638.784189 
L 164.187237 628.675925 
L 169.693816 611.828817 
L 177.035921 605.089974 
L 184.378026 593.296999 
L 191.720132 576.449892 
L 204.568816 564.656916 
L 210.075395 556.233363 
L 213.746447 542.755677 
L 213.746447 536.016834 
L 222.924079 517.485015 
L 224.759605 507.376751 
L 230.266184 500.637908 
L 239.443816 497.268487 
L 248.621447 487.160222 
L 255.963553 461.889561 
L 266.976711 450.096586 
L 272.483289 439.988321 
L 283.496447 418.087082 
L 298.180658 406.294106 
L 303.687237 392.81642 
L 311.029342 386.077577 
L 320.206974 377.654024 
L 333.055658 369.23047 
L 349.575395 359.122206 
L 358.753026 349.013941 
L 371.601711 337.220966 
L 377.108289 328.797412 
L 389.956974 322.058569 
L 400.970132 317.004437 
L 410.147763 303.526751 
L 422.996447 293.418487 
L 428.503026 283.310222 
L 452.364868 271.517247 
L 465.213553 263.093693 
L 472.555658 254.670139 
L 479.897763 247.931296 
L 492.746447 239.507743 
L 503.759605 229.399478 
L 523.950395 222.660635 
L 531.2925 214.237082 
L 551.483289 204.128817 
L 573.509605 190.651131 
L 597.371447 185.596999 
L 613.891184 172.119313 
L 630.410921 163.695759 
L 639.588553 162.011049 
L 659.779342 156.956916 
L 672.628026 133.370966 
L 687.312237 128.316834 
L 701.996447 119.89328 
L 716.680658 113.154437 
L 729.529342 111.469726 
L 755.226711 99.676751 
L 775.4175 97.99204 
L 793.772763 94.622619 
L 806.621447 86.199065 
L 815.799079 74.40609 
L 826.812237 65.982536 
L 839.660921 64.297825 
L 852.509605 59.243693 
L 881.878026 59.243693 
L 892.891184 57.558982 
L 907.575395 54.189561 
L 918.588553 52.50485 
L 925.930658 50.820139 
L 927.766184 49.135429 
L 936.943816 45.766007 
L 938.779342 44.081296 
L 946.121447 42.396586 
L 946.121447 40.711875 
L 949.7925 40.711875 
" clip-path="url(#p877a7e57ba)" style="fill: none; stroke: #fde725; stroke-width: 7; stroke-linecap: round"/>
   </g>
   <g id="PathCollection_1">
    <defs>
     <path id="mbdfc8ace07" d="M 0 11.18034 
C 2.965061 11.18034 5.80908 10.002309 7.905694 7.905694 
C 10.002309 5.80908 11.18034 2.965061 11.18034 0 
C 11.18034 -2.965061 10.002309 -5.80908 7.905694 -7.905694 
C 5.80908 -10.002309 2.965061 -11.18034 0 -11.18034 
C -2.965061 -11.18034 -5.80908 -10.002309 -7.905694 -7.905694 
C -10.002309 -5.80908 -11.18034 -2.965061 -11.18034 0 
C -11.18034 2.965061 -10.002309 5.80908 -7.905694 7.905694 
C -5.80908 10.002309 -2.965061 11.18034 0 11.18034 
z
" style="stroke: #1a1a1a"/>
    </defs>
    <g clip-path="url(#p877a7e57ba)">
     <use xlink:href="#mbdfc8ace07" x="349.575395" y="359.122206" style="fill: #1a1a1a; stroke: #1a1a1a"/>
    </g>
   </g>
   <g id="line2d_2">
    <path d="M 112.7925 856.111875 
L 112.7925 849.373032 
L 118.299079 849.373032 
L 118.299079 847.688321 
L 120.134605 847.688321 
L 120.134605 839.264768 
L 121.970132 839.264768 
L 121.970132 807.255263 
L 123.805658 807.255263 
L 123.805658 795.462288 
L 125.641184 795.462288 
L 125.641184 793.777577 
L 127.476711 793.777577 
L 127.476711 792.092867 
L 129.312237 792.092867 
L 129.312237 785.354024 
L 131.147763 785.354024 
L 131.147763 780.299892 
L 132.983289 780.299892 
L 132.983289 778.615181 
L 134.818816 778.615181 
L 134.818816 776.93047 
L 136.654342 776.93047 
L 136.654342 773.561049 
L 142.160921 773.561049 
L 142.160921 743.236255 
L 143.996447 743.236255 
L 143.996447 739.866834 
L 145.831974 739.866834 
L 145.831974 736.497412 
L 147.6675 736.497412 
L 147.6675 728.073858 
L 151.338553 728.073858 
L 151.338553 726.389148 
L 153.174079 726.389148 
L 153.174079 717.965594 
L 155.009605 717.965594 
L 155.009605 711.226751 
L 156.845132 711.226751 
L 156.845132 706.172619 
L 160.516184 706.172619 
L 160.516184 702.803197 
L 164.187237 702.803197 
L 164.187237 701.118487 
L 166.022763 701.118487 
L 166.022763 677.532536 
L 167.858289 677.532536 
L 167.858289 659.000718 
L 169.693816 659.000718 
L 169.693816 657.316007 
L 171.529342 657.316007 
L 171.529342 655.631296 
L 173.364868 655.631296 
L 173.364868 652.261875 
L 175.200395 652.261875 
L 175.200395 642.153611 
L 177.035921 642.153611 
L 177.035921 640.4689 
L 178.871447 640.4689 
L 178.871447 638.784189 
L 182.5425 638.784189 
L 182.5425 626.991214 
L 184.378026 626.991214 
L 184.378026 621.937082 
L 189.884605 621.937082 
L 189.884605 620.252371 
L 191.720132 620.252371 
L 191.720132 615.198239 
L 193.555658 615.198239 
L 193.555658 610.144106 
L 199.062237 610.144106 
L 199.062237 600.035842 
L 200.897763 600.035842 
L 200.897763 596.66642 
L 202.733289 596.66642 
L 202.733289 584.873445 
L 204.568816 584.873445 
L 204.568816 578.134602 
L 206.404342 578.134602 
L 206.404342 574.765181 
L 210.075395 574.765181 
L 210.075395 573.08047 
L 213.746447 573.08047 
L 213.746447 569.711049 
L 215.581974 569.711049 
L 215.581974 564.656916 
L 217.4175 564.656916 
L 217.4175 561.287495 
L 221.088553 561.287495 
L 221.088553 557.918073 
L 222.924079 557.918073 
L 222.924079 556.233363 
L 224.759605 556.233363 
L 224.759605 549.49452 
L 233.937237 549.49452 
L 233.937237 544.440387 
L 237.608289 544.440387 
L 237.608289 542.755677 
L 239.443816 542.755677 
L 239.443816 539.386255 
L 241.279342 539.386255 
L 241.279342 537.701544 
L 243.114868 537.701544 
L 243.114868 536.016834 
L 244.950395 536.016834 
L 244.950395 529.277991 
L 246.785921 529.277991 
L 246.785921 525.908569 
L 252.2925 525.908569 
L 252.2925 520.854437 
L 255.963553 520.854437 
L 255.963553 519.169726 
L 257.799079 519.169726 
L 257.799079 515.800305 
L 259.634605 515.800305 
L 259.634605 514.115594 
L 261.470132 514.115594 
L 261.470132 509.061462 
L 265.141184 509.061462 
L 265.141184 507.376751 
L 266.976711 507.376751 
L 266.976711 497.268487 
L 268.812237 497.268487 
L 268.812237 495.583776 
L 270.647763 495.583776 
L 270.647763 493.899065 
L 272.483289 493.899065 
L 272.483289 490.529644 
L 274.318816 490.529644 
L 274.318816 488.844933 
L 276.154342 488.844933 
L 276.154342 480.421379 
L 279.825395 480.421379 
L 279.825395 477.051958 
L 281.660921 477.051958 
L 281.660921 470.313115 
L 283.496447 470.313115 
L 283.496447 465.258982 
L 285.331974 465.258982 
L 285.331974 461.889561 
L 287.1675 461.889561 
L 287.1675 450.096586 
L 290.838553 450.096586 
L 290.838553 439.988321 
L 292.674079 439.988321 
L 292.674079 438.303611 
L 294.509605 438.303611 
L 294.509605 436.6189 
L 298.180658 436.6189 
L 298.180658 429.880057 
L 300.016184 429.880057 
L 300.016184 424.825925 
L 301.851711 424.825925 
L 301.851711 421.456503 
L 303.687237 421.456503 
L 303.687237 418.087082 
L 311.029342 418.087082 
L 311.029342 416.402371 
L 314.700395 416.402371 
L 314.700395 411.348239 
L 318.371447 411.348239 
L 318.371447 409.663528 
L 320.206974 409.663528 
L 320.206974 399.555263 
L 322.0425 399.555263 
L 322.0425 394.501131 
L 325.713553 394.501131 
L 325.713553 391.13171 
L 327.549079 391.13171 
L 327.549079 382.708156 
L 333.055658 382.708156 
L 333.055658 381.023445 
L 338.562237 381.023445 
L 338.562237 379.338735 
L 342.233289 379.338735 
L 342.233289 377.654024 
L 345.904342 377.654024 
L 345.904342 374.284602 
L 347.739868 374.284602 
L 347.739868 369.23047 
L 355.081974 369.23047 
L 355.081974 367.545759 
L 356.9175 367.545759 
L 356.9175 360.806916 
L 358.753026 360.806916 
L 358.753026 357.437495 
L 362.424079 357.437495 
L 362.424079 354.068073 
L 364.259605 354.068073 
L 364.259605 352.383363 
L 367.930658 352.383363 
L 367.930658 350.698652 
L 371.601711 350.698652 
L 371.601711 349.013941 
L 373.437237 349.013941 
L 373.437237 343.959809 
L 378.943816 343.959809 
L 378.943816 340.590387 
L 382.614868 340.590387 
L 382.614868 333.851544 
L 384.450395 333.851544 
L 384.450395 332.166834 
L 389.956974 332.166834 
L 389.956974 330.482123 
L 395.463553 330.482123 
L 395.463553 328.797412 
L 399.134605 328.797412 
L 399.134605 327.112701 
L 400.970132 327.112701 
L 400.970132 325.427991 
L 404.641184 325.427991 
L 404.641184 323.74328 
L 406.476711 323.74328 
L 406.476711 320.373858 
L 408.312237 320.373858 
L 408.312237 318.689148 
L 410.147763 318.689148 
L 410.147763 315.319726 
L 411.983289 315.319726 
L 411.983289 313.635015 
L 413.818816 313.635015 
L 413.818816 310.265594 
L 415.654342 310.265594 
L 415.654342 308.580883 
L 421.160921 308.580883 
L 421.160921 305.211462 
L 426.6675 305.211462 
L 426.6675 298.472619 
L 428.503026 298.472619 
L 428.503026 296.787908 
L 434.009605 296.787908 
L 434.009605 295.103197 
L 439.516184 295.103197 
L 439.516184 291.733776 
L 443.187237 291.733776 
L 443.187237 290.049065 
L 445.022763 290.049065 
L 445.022763 286.679644 
L 450.529342 286.679644 
L 450.529342 283.310222 
L 452.364868 283.310222 
L 452.364868 281.625511 
L 454.200395 281.625511 
L 454.200395 279.940801 
L 457.871447 279.940801 
L 457.871447 274.886668 
L 468.884605 274.886668 
L 468.884605 273.201958 
L 470.720132 273.201958 
L 470.720132 271.517247 
L 474.391184 271.517247 
L 474.391184 269.832536 
L 478.062237 269.832536 
L 478.062237 266.463115 
L 481.733289 266.463115 
L 481.733289 261.408982 
L 485.404342 261.408982 
L 485.404342 256.35485 
L 489.075395 256.35485 
L 489.075395 254.670139 
L 496.4175 254.670139 
L 496.4175 252.985429 
L 498.253026 252.985429 
L 498.253026 251.300718 
L 501.924079 251.300718 
L 501.924079 249.616007 
L 507.430658 249.616007 
L 507.430658 247.931296 
L 509.266184 247.931296 
L 509.266184 246.246586 
L 514.772763 246.246586 
L 514.772763 242.877164 
L 516.608289 242.877164 
L 516.608289 239.507743 
L 520.279342 239.507743 
L 520.279342 232.7689 
L 522.114868 232.7689 
L 522.114868 231.084189 
L 523.950395 231.084189 
L 523.950395 226.030057 
L 525.785921 226.030057 
L 525.785921 222.660635 
L 527.621447 222.660635 
L 527.621447 220.975925 
L 534.963553 220.975925 
L 534.963553 219.291214 
L 536.799079 219.291214 
L 536.799079 217.606503 
L 544.141184 217.606503 
L 544.141184 212.552371 
L 556.989868 212.552371 
L 556.989868 210.86766 
L 562.496447 210.86766 
L 562.496447 209.182949 
L 569.838553 209.182949 
L 569.838553 207.498239 
L 571.674079 207.498239 
L 571.674079 205.813528 
L 577.180658 205.813528 
L 577.180658 204.128817 
L 582.687237 204.128817 
L 582.687237 202.444106 
L 584.522763 202.444106 
L 584.522763 200.759396 
L 588.193816 200.759396 
L 588.193816 199.074685 
L 590.029342 199.074685 
L 590.029342 197.389974 
L 593.700395 197.389974 
L 593.700395 195.705263 
L 597.371447 195.705263 
L 597.371447 194.020553 
L 601.0425 194.020553 
L 601.0425 192.335842 
L 604.713553 192.335842 
L 604.713553 188.96642 
L 613.891184 188.96642 
L 613.891184 183.912288 
L 624.904342 183.912288 
L 624.904342 182.227577 
L 628.575395 182.227577 
L 628.575395 180.542867 
L 632.246447 180.542867 
L 632.246447 178.858156 
L 634.081974 178.858156 
L 634.081974 175.488735 
L 635.9175 175.488735 
L 635.9175 173.804024 
L 637.753026 173.804024 
L 637.753026 172.119313 
L 639.588553 172.119313 
L 639.588553 167.065181 
L 641.424079 167.065181 
L 641.424079 165.38047 
L 650.601711 165.38047 
L 650.601711 162.011049 
L 663.450395 162.011049 
L 663.450395 160.326338 
L 665.285921 160.326338 
L 665.285921 151.902784 
L 668.956974 151.902784 
L 668.956974 150.218073 
L 676.299079 150.218073 
L 676.299079 148.533363 
L 679.970132 148.533363 
L 679.970132 145.163941 
L 681.805658 145.163941 
L 681.805658 141.79452 
L 687.312237 141.79452 
L 687.312237 140.109809 
L 690.983289 140.109809 
L 690.983289 138.425098 
L 696.489868 138.425098 
L 696.489868 136.740387 
L 698.325395 136.740387 
L 698.325395 135.055677 
L 700.160921 135.055677 
L 700.160921 133.370966 
L 703.831974 133.370966 
L 703.831974 131.686255 
L 707.503026 131.686255 
L 707.503026 130.001544 
L 720.351711 130.001544 
L 720.351711 128.316834 
L 722.187237 128.316834 
L 722.187237 126.632123 
L 725.858289 126.632123 
L 725.858289 123.262701 
L 727.693816 123.262701 
L 727.693816 121.577991 
L 733.200395 121.577991 
L 733.200395 118.208569 
L 735.035921 118.208569 
L 735.035921 113.154437 
L 736.871447 113.154437 
L 736.871447 109.785015 
L 744.213553 109.785015 
L 744.213553 106.415594 
L 746.049079 106.415594 
L 746.049079 103.046173 
L 747.884605 103.046173 
L 747.884605 101.361462 
L 751.555658 101.361462 
L 751.555658 97.99204 
L 760.733289 97.99204 
L 760.733289 94.622619 
L 769.910921 94.622619 
L 769.910921 92.937908 
L 771.746447 92.937908 
L 771.746447 91.253197 
L 784.595132 91.253197 
L 784.595132 84.514354 
L 788.266184 84.514354 
L 788.266184 82.829644 
L 790.101711 82.829644 
L 790.101711 81.144933 
L 793.772763 81.144933 
L 793.772763 79.460222 
L 799.279342 79.460222 
L 799.279342 77.775511 
L 801.114868 77.775511 
L 801.114868 76.090801 
L 812.128026 76.090801 
L 812.128026 74.40609 
L 813.963553 74.40609 
L 813.963553 72.721379 
L 821.305658 72.721379 
L 821.305658 71.036668 
L 845.1675 71.036668 
L 845.1675 69.351958 
L 847.003026 69.351958 
L 847.003026 67.667247 
L 850.674079 67.667247 
L 850.674079 64.297825 
L 874.535921 64.297825 
L 874.535921 60.928404 
L 881.878026 60.928404 
L 881.878026 59.243693 
L 896.562237 59.243693 
L 896.562237 57.558982 
L 900.233289 57.558982 
L 900.233289 55.874272 
L 907.575395 55.874272 
L 907.575395 52.50485 
L 918.588553 52.50485 
L 918.588553 49.135429 
L 924.095132 49.135429 
L 924.095132 47.450718 
L 931.437237 47.450718 
L 931.437237 45.766007 
L 935.108289 45.766007 
L 935.108289 44.081296 
L 949.7925 44.081296 
L 949.7925 40.711875 
L 949.7925 40.711875 
" clip-path="url(#p877a7e57ba)" style="fill: none; stroke: #1f988b; stroke-width: 7; stroke-linecap: round"/>
   </g>
   <g id="PathCollection_2">
    <g clip-path="url(#p877a7e57ba)">
     <use xlink:href="#mbdfc8ace07" x="333.055658" y="381.023445" style="fill: #1a1a1a; stroke: #1a1a1a"/>
    </g>
   </g>
   <g id="PathCollection_3">
    <g clip-path="url(#p877a7e57ba)">
     <use xlink:href="#mbdfc8ace07" x="371.601711" y="409.663528" style="fill: #1a1a1a; stroke: #1a1a1a"/>
    </g>
   </g>
   <g id="line2d_3">
    <path d="M 112.7925 856.111875 
L 112.7925 852.742454 
L 114.628026 852.742454 
L 114.628026 847.688321 
L 116.463553 847.688321 
L 116.463553 846.003611 
L 120.134605 846.003611 
L 120.134605 827.471792 
L 123.805658 827.471792 
L 123.805658 822.41766 
L 125.641184 822.41766 
L 125.641184 803.885842 
L 127.476711 803.885842 
L 127.476711 795.462288 
L 132.983289 795.462288 
L 132.983289 793.777577 
L 134.818816 793.777577 
L 134.818816 775.245759 
L 138.489868 775.245759 
L 138.489868 773.561049 
L 147.6675 773.561049 
L 147.6675 760.083363 
L 151.338553 760.083363 
L 151.338553 758.398652 
L 153.174079 758.398652 
L 153.174079 755.02923 
L 155.009605 755.02923 
L 155.009605 753.34452 
L 158.680658 753.34452 
L 158.680658 746.605677 
L 160.516184 746.605677 
L 160.516184 739.866834 
L 162.351711 739.866834 
L 162.351711 738.182123 
L 164.187237 738.182123 
L 164.187237 733.127991 
L 166.022763 733.127991 
L 166.022763 728.073858 
L 167.858289 728.073858 
L 167.858289 723.019726 
L 169.693816 723.019726 
L 169.693816 714.596173 
L 171.529342 714.596173 
L 171.529342 711.226751 
L 175.200395 711.226751 
L 175.200395 709.54204 
L 178.871447 709.54204 
L 178.871447 689.325511 
L 186.213553 689.325511 
L 186.213553 687.640801 
L 191.720132 687.640801 
L 191.720132 679.217247 
L 193.555658 679.217247 
L 193.555658 669.108982 
L 197.226711 669.108982 
L 197.226711 655.631296 
L 200.897763 655.631296 
L 200.897763 653.946586 
L 202.733289 653.946586 
L 202.733289 640.4689 
L 204.568816 640.4689 
L 204.568816 637.099478 
L 206.404342 637.099478 
L 206.404342 635.414768 
L 208.239868 635.414768 
L 208.239868 632.045346 
L 210.075395 632.045346 
L 210.075395 626.991214 
L 211.910921 626.991214 
L 211.910921 615.198239 
L 213.746447 615.198239 
L 213.746447 606.774685 
L 217.4175 606.774685 
L 217.4175 603.405263 
L 222.924079 603.405263 
L 222.924079 598.351131 
L 224.759605 598.351131 
L 224.759605 596.66642 
L 226.595132 596.66642 
L 226.595132 594.98171 
L 230.266184 594.98171 
L 230.266184 593.296999 
L 232.101711 593.296999 
L 232.101711 584.873445 
L 235.772763 584.873445 
L 235.772763 583.188735 
L 246.785921 583.188735 
L 246.785921 581.504024 
L 248.621447 581.504024 
L 248.621447 579.819313 
L 250.456974 579.819313 
L 250.456974 578.134602 
L 252.2925 578.134602 
L 252.2925 574.765181 
L 255.963553 574.765181 
L 255.963553 569.711049 
L 261.470132 569.711049 
L 261.470132 568.026338 
L 266.976711 568.026338 
L 266.976711 566.341627 
L 270.647763 566.341627 
L 270.647763 564.656916 
L 272.483289 564.656916 
L 272.483289 561.287495 
L 276.154342 561.287495 
L 276.154342 557.918073 
L 283.496447 557.918073 
L 283.496447 546.125098 
L 285.331974 546.125098 
L 285.331974 542.755677 
L 287.1675 542.755677 
L 287.1675 541.070966 
L 290.838553 541.070966 
L 290.838553 539.386255 
L 292.674079 539.386255 
L 292.674079 529.277991 
L 294.509605 529.277991 
L 294.509605 522.539148 
L 296.345132 522.539148 
L 296.345132 520.854437 
L 298.180658 520.854437 
L 298.180658 519.169726 
L 305.522763 519.169726 
L 305.522763 510.746173 
L 311.029342 510.746173 
L 311.029342 505.69204 
L 314.700395 505.69204 
L 314.700395 500.637908 
L 316.535921 500.637908 
L 316.535921 498.953197 
L 322.0425 498.953197 
L 322.0425 497.268487 
L 323.878026 497.268487 
L 323.878026 495.583776 
L 325.713553 495.583776 
L 325.713553 492.214354 
L 327.549079 492.214354 
L 327.549079 488.844933 
L 329.384605 488.844933 
L 329.384605 482.10609 
L 331.220132 482.10609 
L 331.220132 473.682536 
L 333.055658 473.682536 
L 333.055658 470.313115 
L 334.891184 470.313115 
L 334.891184 468.628404 
L 336.726711 468.628404 
L 336.726711 466.943693 
L 338.562237 466.943693 
L 338.562237 465.258982 
L 342.233289 465.258982 
L 342.233289 461.889561 
L 344.068816 461.889561 
L 344.068816 453.466007 
L 345.904342 453.466007 
L 345.904342 451.781296 
L 349.575395 451.781296 
L 349.575395 434.934189 
L 351.410921 434.934189 
L 351.410921 433.249478 
L 353.246447 433.249478 
L 353.246447 431.564768 
L 356.9175 431.564768 
L 356.9175 421.456503 
L 367.930658 421.456503 
L 367.930658 411.348239 
L 371.601711 411.348239 
L 371.601711 409.663528 
L 384.450395 391.13171 
L 384.450395 387.762288 
L 388.121447 387.762288 
L 388.121447 379.338735 
L 389.956974 379.338735 
L 389.956974 377.654024 
L 391.7925 377.654024 
L 391.7925 374.284602 
L 393.628026 374.284602 
L 393.628026 370.915181 
L 395.463553 370.915181 
L 395.463553 369.23047 
L 399.134605 369.23047 
L 399.134605 364.176338 
L 402.805658 364.176338 
L 402.805658 362.491627 
L 404.641184 362.491627 
L 404.641184 359.122206 
L 410.147763 359.122206 
L 410.147763 354.068073 
L 413.818816 354.068073 
L 413.818816 352.383363 
L 417.489868 352.383363 
L 417.489868 350.698652 
L 419.325395 350.698652 
L 419.325395 349.013941 
L 421.160921 349.013941 
L 421.160921 347.32923 
L 422.996447 347.32923 
L 422.996447 342.275098 
L 426.6675 342.275098 
L 426.6675 337.220966 
L 428.503026 337.220966 
L 428.503026 330.482123 
L 435.845132 330.482123 
L 435.845132 328.797412 
L 439.516184 328.797412 
L 439.516184 323.74328 
L 441.351711 323.74328 
L 441.351711 318.689148 
L 445.022763 318.689148 
L 445.022763 317.004437 
L 446.858289 317.004437 
L 446.858289 315.319726 
L 448.693816 315.319726 
L 448.693816 311.950305 
L 454.200395 311.950305 
L 454.200395 308.580883 
L 456.035921 308.580883 
L 456.035921 301.84204 
L 459.706974 301.84204 
L 459.706974 300.15733 
L 461.5425 300.15733 
L 461.5425 298.472619 
L 465.213553 298.472619 
L 465.213553 295.103197 
L 467.049079 295.103197 
L 467.049079 290.049065 
L 468.884605 290.049065 
L 468.884605 283.310222 
L 470.720132 283.310222 
L 470.720132 281.625511 
L 474.391184 281.625511 
L 474.391184 273.201958 
L 478.062237 273.201958 
L 478.062237 271.517247 
L 481.733289 271.517247 
L 481.733289 269.832536 
L 483.568816 269.832536 
L 483.568816 266.463115 
L 485.404342 266.463115 
L 485.404342 263.093693 
L 496.4175 263.093693 
L 496.4175 258.039561 
L 498.253026 258.039561 
L 498.253026 256.35485 
L 500.088553 256.35485 
L 500.088553 251.300718 
L 501.924079 251.300718 
L 501.924079 244.561875 
L 503.759605 244.561875 
L 503.759605 242.877164 
L 507.430658 242.877164 
L 507.430658 241.192454 
L 509.266184 241.192454 
L 509.266184 239.507743 
L 512.937237 239.507743 
L 512.937237 237.823032 
L 525.785921 237.823032 
L 525.785921 234.453611 
L 527.621447 234.453611 
L 527.621447 231.084189 
L 529.456974 231.084189 
L 529.456974 220.975925 
L 536.799079 220.975925 
L 536.799079 215.921792 
L 538.634605 215.921792 
L 538.634605 209.182949 
L 549.647763 209.182949 
L 549.647763 207.498239 
L 560.660921 207.498239 
L 560.660921 205.813528 
L 562.496447 205.813528 
L 562.496447 204.128817 
L 564.331974 204.128817 
L 564.331974 200.759396 
L 566.1675 200.759396 
L 566.1675 199.074685 
L 569.838553 199.074685 
L 569.838553 197.389974 
L 573.509605 197.389974 
L 573.509605 195.705263 
L 575.345132 195.705263 
L 575.345132 194.020553 
L 580.851711 194.020553 
L 580.851711 192.335842 
L 582.687237 192.335842 
L 582.687237 190.651131 
L 588.193816 190.651131 
L 588.193816 188.96642 
L 593.700395 188.96642 
L 593.700395 183.912288 
L 595.535921 183.912288 
L 595.535921 182.227577 
L 606.549079 182.227577 
L 606.549079 180.542867 
L 608.384605 180.542867 
L 608.384605 178.858156 
L 615.726711 178.858156 
L 615.726711 177.173445 
L 619.397763 177.173445 
L 619.397763 175.488735 
L 623.068816 175.488735 
L 623.068816 170.434602 
L 626.739868 170.434602 
L 626.739868 168.749892 
L 630.410921 168.749892 
L 630.410921 165.38047 
L 632.246447 165.38047 
L 632.246447 162.011049 
L 635.9175 162.011049 
L 635.9175 160.326338 
L 643.259605 160.326338 
L 643.259605 158.641627 
L 654.272763 158.641627 
L 654.272763 156.956916 
L 657.943816 156.956916 
L 657.943816 155.272206 
L 663.450395 155.272206 
L 663.450395 153.587495 
L 665.285921 153.587495 
L 665.285921 151.902784 
L 667.121447 151.902784 
L 667.121447 146.848652 
L 668.956974 146.848652 
L 668.956974 145.163941 
L 670.7925 145.163941 
L 670.7925 143.47923 
L 674.463553 143.47923 
L 674.463553 140.109809 
L 676.299079 140.109809 
L 676.299079 138.425098 
L 683.641184 138.425098 
L 683.641184 136.740387 
L 690.983289 136.740387 
L 690.983289 131.686255 
L 692.818816 131.686255 
L 692.818816 130.001544 
L 711.174079 130.001544 
L 711.174079 124.947412 
L 718.516184 124.947412 
L 718.516184 123.262701 
L 720.351711 123.262701 
L 720.351711 119.89328 
L 722.187237 119.89328 
L 722.187237 118.208569 
L 729.529342 118.208569 
L 729.529342 114.839148 
L 735.035921 114.839148 
L 735.035921 113.154437 
L 740.5425 113.154437 
L 740.5425 108.100305 
L 751.555658 108.100305 
L 751.555658 104.730883 
L 753.391184 104.730883 
L 753.391184 103.046173 
L 755.226711 103.046173 
L 755.226711 101.361462 
L 760.733289 101.361462 
L 760.733289 99.676751 
L 764.404342 99.676751 
L 764.404342 97.99204 
L 768.075395 97.99204 
L 768.075395 96.30733 
L 769.910921 96.30733 
L 769.910921 94.622619 
L 771.746447 94.622619 
L 771.746447 92.937908 
L 775.4175 92.937908 
L 775.4175 91.253197 
L 786.430658 91.253197 
L 786.430658 87.883776 
L 797.443816 87.883776 
L 797.443816 84.514354 
L 801.114868 84.514354 
L 801.114868 82.829644 
L 817.634605 82.829644 
L 817.634605 81.144933 
L 823.141184 81.144933 
L 823.141184 79.460222 
L 828.647763 79.460222 
L 828.647763 77.775511 
L 835.989868 77.775511 
L 835.989868 76.090801 
L 837.825395 76.090801 
L 837.825395 74.40609 
L 848.838553 74.40609 
L 848.838553 72.721379 
L 852.509605 72.721379 
L 852.509605 71.036668 
L 859.851711 71.036668 
L 859.851711 69.351958 
L 867.193816 69.351958 
L 867.193816 65.982536 
L 876.371447 65.982536 
L 876.371447 64.297825 
L 889.220132 64.297825 
L 889.220132 62.613115 
L 891.055658 62.613115 
L 891.055658 60.928404 
L 905.739868 60.928404 
L 905.739868 59.243693 
L 909.410921 59.243693 
L 909.410921 55.874272 
L 911.246447 55.874272 
L 911.246447 54.189561 
L 914.9175 54.189561 
L 914.9175 52.50485 
L 916.753026 52.50485 
L 916.753026 50.820139 
L 938.779342 50.820139 
L 938.779342 45.766007 
L 942.450395 45.766007 
L 942.450395 44.081296 
L 947.956974 44.081296 
L 947.956974 42.396586 
L 949.7925 42.396586 
L 949.7925 40.711875 
L 949.7925 40.711875 
" clip-path="url(#p877a7e57ba)" style="fill: none; stroke: #440154; stroke-width: 7; stroke-linecap: round"/>
   </g>
   <g id="patch_3">
    <path d="M 112.7925 856.111875 
L 112.7925 40.711875 
" style="fill: none; stroke: #262626; stroke-width: 1.25; stroke-linejoin: miter; stroke-linecap: square"/>
   </g>
   <g id="patch_4">
    <path d="M 949.7925 856.111875 
L 949.7925 40.711875 
" style="fill: none; stroke: #262626; stroke-width: 1.25; stroke-linejoin: miter; stroke-linecap: square"/>
   </g>
   <g id="patch_5">
    <path d="M 112.7925 856.111875 
L 949.7925 856.111875 
" style="fill: none; stroke: #262626; stroke-width: 1.25; stroke-linejoin: miter; stroke-linecap: square"/>
   </g>
   <g id="patch_6">
    <path d="M 112.7925 40.711875 
L 949.7925 40.711875 
" style="fill: none; stroke: #262626; stroke-width: 1.25; stroke-linejoin: miter; stroke-linecap: square"/>
   </g>
   <g id="text_15">
    <text style="fill: #262626; font: 36px 'sans-serif'; text-anchor: middle" x="531.2925" y="34.711875" transform="rotate(-0 531.2925 34.711875)">NK Cells | class_weight: None</text>
   </g>
   <g id="legend_1">
    <g id="patch_7">
     <path d="M 54.2925 1124.975625 
L 938.896875 1124.975625 
Q 946.096875 1124.975625 946.096875 1117.775625 
L 946.096875 962.851875 
Q 946.096875 955.651875 938.896875 955.651875 
L 54.2925 955.651875 
Q 47.0925 955.651875 47.0925 962.851875 
L 47.0925 1117.775625 
Q 47.0925 1124.975625 54.2925 1124.975625 
z
" style="fill: #ffffff; opacity: 0.8; stroke: #cccccc; stroke-linejoin: miter"/>
    </g>
    <g id="line2d_4">
     <path d="M 61.4925 984.80625 
L 97.4925 984.80625 
L 133.4925 984.80625 
" style="fill: none; stroke: #fde725; stroke-width: 7; stroke-linecap: round"/>
    </g>
    <g id="text_16">
     <text style="fill: #262626; font: 36px 'sans-serif'; text-anchor: start" x="162.2925" y="997.40625" transform="rotate(-0 162.2925 997.40625)">Random Forest (ROC AUC = 0.72)</text>
    </g>
    <g id="line2d_5">
     <path d="M 61.4925 1037.6475 
L 97.4925 1037.6475 
L 133.4925 1037.6475 
" style="fill: none; stroke: #1f988b; stroke-width: 7; stroke-linecap: round"/>
    </g>
    <g id="text_17">
     <text style="fill: #262626; font: 36px 'sans-serif'; text-anchor: start" x="162.2925" y="1050.2475" transform="rotate(-0 162.2925 1050.2475)">Logistic Regression (ROC AUC = 0.70)</text>
    </g>
    <g id="line2d_6">
     <path d="M 61.4925 1090.48875 
L 97.4925 1090.48875 
L 133.4925 1090.48875 
" style="fill: none; stroke: #440154; stroke-width: 7; stroke-linecap: round"/>
    </g>
    <g id="text_18">
     <text style="fill: #262626; font: 36px 'sans-serif'; text-anchor: start" x="162.2925" y="1103.08875" transform="rotate(-0 162.2925 1103.08875)">Support Vector Machine (ROC AUC = 0.67)</text>
    </g>
   </g>
  </g>
 </g>
 <defs>
  <clipPath id="p877a7e57ba">
   <rect x="112.7925" y="40.711875" width="837" height="815.4"/>
  </clipPath>
 </defs>
</svg>
