<?xml version="1.0" encoding="utf-8" standalone="no"?>
<!DOCTYPE svg PUBLIC "-//W3C//DTD SVG 1.1//EN"
  "http://www.w3.org/Graphics/SVG/1.1/DTD/svg11.dtd">
<svg xmlns:xlink="http://www.w3.org/1999/xlink" width="985.618125pt" height="1132.175625pt" viewBox="0 0 985.618125 1132.175625" xmlns="http://www.w3.org/2000/svg" version="1.1">
 <metadata>
  <rdf:RDF xmlns:dc="http://purl.org/dc/elements/1.1/" xmlns:cc="http://creativecommons.org/ns#" xmlns:rdf="http://www.w3.org/1999/02/22-rdf-syntax-ns#">
   <cc:Work>
    <dc:type rdf:resource="http://purl.org/dc/dcmitype/StillImage"/>
    <dc:date>2022-12-01T09:12:46.576735</dc:date>
    <dc:format>image/svg+xml</dc:format>
    <dc:creator>
     <cc:Agent>
      <dc:title>Matplotlib v3.6.0, https://matplotlib.org/</dc:title>
     </cc:Agent>
    </dc:creator>
   </cc:Work>
  </rdf:RDF>
 </metadata>
 <defs>
  <style type="text/css">*{stroke-linejoin: round; stroke-linecap: butt}</style>
 </defs>
 <g id="figure_1">
  <g id="patch_1">
   <path d="M 0 1132.175625 
L 985.618125 1132.175625 
L 985.618125 0 
L 0 0 
z
" style="fill: #ffffff"/>
  </g>
  <g id="axes_1">
   <g id="patch_2">
    <path d="M 112.7925 856.111875 
L 949.7925 856.111875 
L 949.7925 40.711875 
L 112.7925 40.711875 
z
" style="fill: #ffffff"/>
   </g>
   <g id="matplotlib.axis_1">
    <g id="xtick_1">
     <g id="text_1">
      <text style="fill: #262626; font: 36px 'sans-serif'; text-anchor: middle" x="112.7925" y="892.96625" transform="rotate(-0 112.7925 892.96625)">0.0</text>
     </g>
    </g>
    <g id="xtick_2">
     <g id="text_2">
      <text style="fill: #262626; font: 36px 'sans-serif'; text-anchor: middle" x="280.1925" y="892.96625" transform="rotate(-0 280.1925 892.96625)">0.2</text>
     </g>
    </g>
    <g id="xtick_3">
     <g id="text_3">
      <text style="fill: #262626; font: 36px 'sans-serif'; text-anchor: middle" x="447.5925" y="892.96625" transform="rotate(-0 447.5925 892.96625)">0.4</text>
     </g>
    </g>
    <g id="xtick_4">
     <g id="text_4">
      <text style="fill: #262626; font: 36px 'sans-serif'; text-anchor: middle" x="614.9925" y="892.96625" transform="rotate(-0 614.9925 892.96625)">0.6</text>
     </g>
    </g>
    <g id="xtick_5">
     <g id="text_5">
      <text style="fill: #262626; font: 36px 'sans-serif'; text-anchor: middle" x="782.3925" y="892.96625" transform="rotate(-0 782.3925 892.96625)">0.8</text>
     </g>
    </g>
    <g id="xtick_6">
     <g id="text_6">
      <text style="fill: #262626; font: 36px 'sans-serif'; text-anchor: middle" x="949.7925" y="892.96625" transform="rotate(-0 949.7925 892.96625)">1.0</text>
     </g>
    </g>
    <g id="text_7">
     <text style="fill: #262626; font: 36px 'sans-serif'; text-anchor: middle" x="531.2925" y="931.8075" transform="rotate(-0 531.2925 931.8075)">False Positive Rate</text>
    </g>
   </g>
   <g id="matplotlib.axis_2">
    <g id="ytick_1">
     <g id="text_8">
      <text style="fill: #262626; font: 36px 'sans-serif'; text-anchor: end" x="103.2925" y="869.789062" transform="rotate(-0 103.2925 869.789062)">0.0</text>
     </g>
    </g>
    <g id="ytick_2">
     <g id="text_9">
      <text style="fill: #262626; font: 36px 'sans-serif'; text-anchor: end" x="103.2925" y="706.709062" transform="rotate(-0 103.2925 706.709062)">0.2</text>
     </g>
    </g>
    <g id="ytick_3">
     <g id="text_10">
      <text style="fill: #262626; font: 36px 'sans-serif'; text-anchor: end" x="103.2925" y="543.629062" transform="rotate(-0 103.2925 543.629062)">0.4</text>
     </g>
    </g>
    <g id="ytick_4">
     <g id="text_11">
      <text style="fill: #262626; font: 36px 'sans-serif'; text-anchor: end" x="103.2925" y="380.549062" transform="rotate(-0 103.2925 380.549062)">0.6</text>
     </g>
    </g>
    <g id="ytick_5">
     <g id="text_12">
      <text style="fill: #262626; font: 36px 'sans-serif'; text-anchor: end" x="103.2925" y="217.469062" transform="rotate(-0 103.2925 217.469062)">0.8</text>
     </g>
    </g>
    <g id="ytick_6">
     <g id="text_13">
      <text style="fill: #262626; font: 36px 'sans-serif'; text-anchor: end" x="103.2925" y="54.389062" transform="rotate(-0 103.2925 54.389062)">1.0</text>
     </g>
    </g>
    <g id="text_14">
     <text style="fill: #262626; font: 36px 'sans-serif'; text-anchor: middle" x="34.554375" y="448.411875" transform="rotate(-90 34.554375 448.411875)">True Positive Rate</text>
    </g>
   </g>
   <g id="line2d_1">
    <path d="M 112.7925 856.111875 
L 112.7925 835.506099 
L 112.7925 817.844005 
L 112.7925 794.294546 
L 112.7925 764.857723 
L 112.7925 753.082994 
L 112.7925 732.477218 
L 112.7925 708.927759 
L 112.7925 691.265666 
L 112.7925 658.88516 
L 112.7925 617.673608 
L 112.7925 600.011514 
L 114.911487 588.236785 
L 114.911487 573.518373 
L 117.030475 558.799962 
L 117.030475 547.025232 
L 117.030475 544.08155 
L 117.030475 535.250503 
L 117.030475 532.306821 
L 117.030475 514.644727 
L 119.149462 491.095269 
L 119.149462 482.264222 
L 119.149462 458.714763 
L 119.149462 452.827398 
L 121.268449 449.883716 
L 121.268449 441.052669 
L 127.625411 429.27794 
L 127.625411 417.503211 
L 127.625411 414.559528 
L 127.625411 399.841117 
L 129.744399 388.066388 
L 129.744399 376.291658 
L 129.744399 370.404294 
L 131.863386 367.460611 
L 131.863386 358.629565 
L 136.101361 355.685882 
L 138.220348 340.967471 
L 140.339335 335.080106 
L 144.57731 320.361694 
L 144.57731 305.643283 
L 148.815285 296.812236 
L 150.934272 293.868554 
L 153.053259 285.037507 
L 157.291234 282.093824 
L 159.410222 282.093824 
L 163.648196 261.488048 
L 165.767184 252.657001 
L 170.005158 246.769637 
L 176.36212 243.825954 
L 180.600095 226.163861 
L 184.83807 220.276496 
L 191.195032 208.501767 
L 193.314019 205.558084 
L 197.551994 196.727037 
L 201.789968 193.783355 
L 214.503892 179.064944 
L 225.098829 167.290214 
L 237.812753 158.459167 
L 242.050728 152.571803 
L 252.645665 143.740756 
L 259.002627 137.853391 
L 275.954525 131.966027 
L 284.430475 131.966027 
L 290.787437 129.022344 
L 311.97731 123.13498 
L 324.691234 123.13498 
L 341.643133 114.303933 
L 345.881108 114.303933 
L 354.357057 114.303933 
L 367.070981 108.416568 
L 381.903892 105.472886 
L 403.093766 105.472886 
L 409.450728 102.529204 
L 426.402627 99.585521 
L 439.116551 96.641839 
L 464.544399 90.754474 
L 479.37731 90.754474 
L 494.210222 84.86711 
L 515.400095 81.923427 
L 536.589968 76.036063 
L 564.136804 76.036063 
L 591.683639 73.09238 
L 610.754525 67.205016 
L 657.372247 64.261333 
L 684.919082 58.373969 
L 706.108956 52.486604 
L 737.893766 43.655557 
L 761.202627 43.655557 
L 797.225411 43.655557 
L 826.891234 40.711875 
L 869.270981 40.711875 
L 888.341867 40.711875 
L 922.245665 40.711875 
L 941.316551 40.711875 
L 949.7925 40.711875 
" clip-path="url(#p05605bac61)" style="fill: none; stroke: #fde725; stroke-width: 7; stroke-linecap: round"/>
   </g>
   <g id="PathCollection_1">
    <defs>
     <path id="m2e29087f62" d="M 0 11.18034 
C 2.965061 11.18034 5.80908 10.002309 7.905694 7.905694 
C 10.002309 5.80908 11.18034 2.965061 11.18034 0 
C 11.18034 -2.965061 10.002309 -5.80908 7.905694 -7.905694 
C 5.80908 -10.002309 2.965061 -11.18034 0 -11.18034 
C -2.965061 -11.18034 -5.80908 -10.002309 -7.905694 -7.905694 
C -10.002309 -5.80908 -11.18034 -2.965061 -11.18034 0 
C -11.18034 2.965061 -10.002309 5.80908 -7.905694 7.905694 
C -5.80908 10.002309 -2.965061 11.18034 0 11.18034 
z
" style="stroke: #1a1a1a"/>
    </defs>
    <g clip-path="url(#p05605bac61)">
     <use xlink:href="#m2e29087f62" x="167.886171" y="249.713319" style="fill: #1a1a1a; stroke: #1a1a1a"/>
    </g>
   </g>
   <g id="line2d_2">
    <path d="M 112.7925 856.111875 
L 112.7925 708.927759 
L 114.911487 708.927759 
L 114.911487 676.547254 
L 117.030475 676.547254 
L 117.030475 655.941478 
L 119.149462 655.941478 
L 119.149462 641.223066 
L 121.268449 641.223066 
L 121.268449 638.279384 
L 125.506424 638.279384 
L 125.506424 582.34942 
L 127.625411 582.34942 
L 127.625411 561.743644 
L 129.744399 561.743644 
L 129.744399 558.799962 
L 131.863386 558.799962 
L 131.863386 538.194185 
L 133.982373 538.194185 
L 133.982373 511.701045 
L 136.101361 511.701045 
L 136.101361 508.757362 
L 138.220348 508.757362 
L 138.220348 482.264222 
L 140.339335 482.264222 
L 140.339335 461.658445 
L 142.458323 461.658445 
L 142.458323 452.827398 
L 144.57731 452.827398 
L 144.57731 449.883716 
L 146.696297 449.883716 
L 146.696297 426.334258 
L 148.815285 426.334258 
L 148.815285 414.559528 
L 153.053259 414.559528 
L 153.053259 405.728481 
L 155.172247 405.728481 
L 155.172247 399.841117 
L 157.291234 399.841117 
L 157.291234 391.01007 
L 163.648196 391.01007 
L 163.648196 388.066388 
L 165.767184 388.066388 
L 165.767184 370.404294 
L 167.886171 370.404294 
L 167.886171 349.798518 
L 172.124146 349.798518 
L 172.124146 340.967471 
L 174.243133 340.967471 
L 174.243133 338.023788 
L 176.36212 338.023788 
L 176.36212 335.080106 
L 178.481108 335.080106 
L 178.481108 332.136424 
L 180.600095 332.136424 
L 180.600095 314.47433 
L 182.719082 314.47433 
L 182.719082 302.699601 
L 186.957057 302.699601 
L 186.957057 299.755918 
L 197.551994 299.755918 
L 197.551994 296.812236 
L 201.789968 296.812236 
L 201.789968 285.037507 
L 203.908956 285.037507 
L 203.908956 279.150142 
L 206.027943 279.150142 
L 206.027943 276.20646 
L 214.503892 276.20646 
L 214.503892 273.262778 
L 216.62288 273.262778 
L 216.62288 270.319095 
L 220.860854 270.319095 
L 220.860854 267.375413 
L 227.217816 267.375413 
L 227.217816 264.431731 
L 231.455791 264.431731 
L 231.455791 261.488048 
L 239.931741 261.488048 
L 239.931741 258.544366 
L 250.526677 258.544366 
L 250.526677 255.600684 
L 261.121614 255.600684 
L 261.121614 252.657001 
L 267.478576 252.657001 
L 267.478576 246.769637 
L 269.597563 246.769637 
L 269.597563 240.882272 
L 273.835538 240.882272 
L 273.835538 237.93859 
L 278.073513 237.93859 
L 278.073513 234.994907 
L 280.1925 234.994907 
L 280.1925 232.051225 
L 282.311487 232.051225 
L 282.311487 229.107543 
L 286.549462 229.107543 
L 286.549462 226.163861 
L 288.668449 226.163861 
L 288.668449 223.220178 
L 297.144399 223.220178 
L 297.144399 214.389131 
L 309.858323 214.389131 
L 309.858323 211.445449 
L 311.97731 211.445449 
L 311.97731 199.67072 
L 320.453259 199.67072 
L 320.453259 196.727037 
L 322.572247 196.727037 
L 322.572247 193.783355 
L 328.929209 193.783355 
L 328.929209 187.895991 
L 339.524146 187.895991 
L 339.524146 184.952308 
L 360.714019 184.952308 
L 360.714019 179.064944 
L 362.833006 179.064944 
L 362.833006 176.121261 
L 371.308956 176.121261 
L 371.308956 173.177579 
L 375.54693 173.177579 
L 375.54693 170.233897 
L 377.665918 170.233897 
L 377.665918 167.290214 
L 384.02288 167.290214 
L 384.02288 161.40285 
L 403.093766 161.40285 
L 403.093766 158.459167 
L 413.688703 158.459167 
L 413.688703 155.515485 
L 415.80769 155.515485 
L 415.80769 152.571803 
L 420.045665 152.571803 
L 420.045665 146.684438 
L 422.164652 146.684438 
L 422.164652 143.740756 
L 424.283639 143.740756 
L 424.283639 140.797074 
L 434.878576 140.797074 
L 434.878576 137.853391 
L 449.711487 137.853391 
L 449.711487 134.909709 
L 468.782373 134.909709 
L 468.782373 131.966027 
L 470.901361 131.966027 
L 470.901361 129.022344 
L 475.139335 129.022344 
L 475.139335 126.078662 
L 515.400095 126.078662 
L 515.400095 123.13498 
L 525.995032 123.13498 
L 525.995032 120.191297 
L 534.470981 120.191297 
L 534.470981 117.247615 
L 536.589968 117.247615 
L 536.589968 114.303933 
L 538.708956 114.303933 
L 538.708956 111.36025 
L 595.921614 111.36025 
L 595.921614 108.416568 
L 598.040601 108.416568 
L 598.040601 105.472886 
L 610.754525 105.472886 
L 610.754525 102.529204 
L 614.9925 102.529204 
L 614.9925 96.641839 
L 627.706424 96.641839 
L 627.706424 90.754474 
L 636.182373 90.754474 
L 636.182373 87.810792 
L 640.420348 87.810792 
L 640.420348 84.86711 
L 651.015285 84.86711 
L 651.015285 81.923427 
L 655.253259 81.923427 
L 655.253259 78.979745 
L 701.870981 78.979745 
L 701.870981 76.036063 
L 723.060854 76.036063 
L 723.060854 73.09238 
L 763.321614 73.09238 
L 763.321614 70.148698 
L 778.154525 70.148698 
L 778.154525 67.205016 
L 816.296297 67.205016 
L 816.296297 64.261333 
L 903.174778 64.261333 
L 903.174778 58.373969 
L 911.650728 58.373969 
L 911.650728 55.430287 
L 928.602627 55.430287 
L 928.602627 49.542922 
L 930.721614 49.542922 
L 930.721614 46.59924 
L 943.435538 46.59924 
L 943.435538 43.655557 
L 945.554525 43.655557 
L 945.554525 40.711875 
L 949.7925 40.711875 
L 949.7925 40.711875 
" clip-path="url(#p05605bac61)" style="fill: none; stroke: #1f988b; stroke-width: 7; stroke-linecap: round"/>
   </g>
   <g id="PathCollection_2">
    <g clip-path="url(#p05605bac61)">
     <use xlink:href="#m2e29087f62" x="220.860854" y="270.319095" style="fill: #1a1a1a; stroke: #1a1a1a"/>
    </g>
   </g>
   <g id="PathCollection_3">
    <g clip-path="url(#p05605bac61)">
     <use xlink:href="#m2e29087f62" x="290.787437" y="335.080106" style="fill: #1a1a1a; stroke: #1a1a1a"/>
    </g>
   </g>
   <g id="line2d_3">
    <path d="M 112.7925 856.111875 
L 112.7925 841.393463 
L 114.911487 841.393463 
L 114.911487 823.73137 
L 117.030475 823.73137 
L 117.030475 800.181911 
L 119.149462 800.181911 
L 119.149462 791.350864 
L 121.268449 791.350864 
L 121.268449 788.407182 
L 123.387437 788.407182 
L 123.387437 770.745088 
L 125.506424 770.745088 
L 125.506424 764.857723 
L 127.625411 764.857723 
L 127.625411 753.082994 
L 129.744399 753.082994 
L 129.744399 741.308265 
L 131.863386 741.308265 
L 131.863386 711.871442 
L 133.982373 711.871442 
L 133.982373 708.927759 
L 136.101361 708.927759 
L 136.101361 703.040395 
L 142.458323 703.040395 
L 142.458323 685.378301 
L 144.57731 685.378301 
L 144.57731 676.547254 
L 146.696297 676.547254 
L 146.696297 658.88516 
L 148.815285 658.88516 
L 148.815285 655.941478 
L 153.053259 655.941478 
L 153.053259 652.997796 
L 157.291234 652.997796 
L 157.291234 620.61729 
L 159.410222 620.61729 
L 159.410222 617.673608 
L 161.529209 617.673608 
L 161.529209 611.786243 
L 163.648196 611.786243 
L 163.648196 576.462056 
L 167.886171 576.462056 
L 167.886171 573.518373 
L 170.005158 573.518373 
L 170.005158 567.631009 
L 172.124146 567.631009 
L 172.124146 561.743644 
L 174.243133 561.743644 
L 174.243133 558.799962 
L 178.481108 558.799962 
L 178.481108 555.856279 
L 180.600095 555.856279 
L 180.600095 552.912597 
L 182.719082 552.912597 
L 182.719082 544.08155 
L 184.83807 544.08155 
L 184.83807 541.137868 
L 189.076044 541.137868 
L 189.076044 538.194185 
L 191.195032 538.194185 
L 191.195032 535.250503 
L 193.314019 535.250503 
L 193.314019 529.363139 
L 195.433006 529.363139 
L 195.433006 523.475774 
L 197.551994 523.475774 
L 197.551994 511.701045 
L 199.670981 511.701045 
L 199.670981 505.81368 
L 201.789968 505.81368 
L 201.789968 499.926315 
L 203.908956 499.926315 
L 203.908956 496.982633 
L 206.027943 496.982633 
L 206.027943 488.151586 
L 210.265918 488.151586 
L 210.265918 473.433175 
L 212.384905 473.433175 
L 212.384905 443.996352 
L 218.741867 443.996352 
L 218.741867 435.165305 
L 220.860854 435.165305 
L 220.860854 432.221622 
L 225.098829 432.221622 
L 225.098829 423.390575 
L 227.217816 423.390575 
L 227.217816 408.672164 
L 233.574778 408.672164 
L 233.574778 405.728481 
L 235.693766 405.728481 
L 235.693766 402.784799 
L 237.812753 402.784799 
L 237.812753 393.953752 
L 248.40769 393.953752 
L 248.40769 388.066388 
L 256.883639 388.066388 
L 256.883639 382.179023 
L 259.002627 382.179023 
L 259.002627 367.460611 
L 263.240601 367.460611 
L 263.240601 361.573247 
L 265.359589 361.573247 
L 265.359589 352.7422 
L 267.478576 352.7422 
L 267.478576 346.854835 
L 269.597563 346.854835 
L 269.597563 343.911153 
L 271.716551 343.911153 
L 271.716551 340.967471 
L 280.1925 340.967471 
L 280.1925 338.023788 
L 290.787437 338.023788 
L 290.787437 335.080106 
L 299.263386 317.418012 
L 303.501361 317.418012 
L 303.501361 314.47433 
L 314.096297 314.47433 
L 314.096297 308.586965 
L 316.215285 308.586965 
L 316.215285 305.643283 
L 322.572247 305.643283 
L 322.572247 293.868554 
L 326.810222 293.868554 
L 326.810222 290.924871 
L 331.048196 290.924871 
L 331.048196 287.981189 
L 339.524146 287.981189 
L 339.524146 285.037507 
L 343.76212 285.037507 
L 343.76212 282.093824 
L 358.595032 282.093824 
L 358.595032 270.319095 
L 360.714019 270.319095 
L 360.714019 252.657001 
L 362.833006 252.657001 
L 362.833006 249.713319 
L 364.951994 249.713319 
L 364.951994 246.769637 
L 369.189968 246.769637 
L 369.189968 243.825954 
L 381.903892 243.825954 
L 381.903892 240.882272 
L 384.02288 240.882272 
L 384.02288 237.93859 
L 388.260854 237.93859 
L 388.260854 232.051225 
L 394.617816 232.051225 
L 394.617816 223.220178 
L 403.093766 223.220178 
L 403.093766 217.332814 
L 417.926677 217.332814 
L 417.926677 211.445449 
L 422.164652 211.445449 
L 422.164652 208.501767 
L 428.521614 208.501767 
L 428.521614 199.67072 
L 439.116551 199.67072 
L 439.116551 196.727037 
L 441.235538 196.727037 
L 441.235538 193.783355 
L 443.354525 193.783355 
L 443.354525 182.008626 
L 449.711487 182.008626 
L 449.711487 176.121261 
L 460.306424 176.121261 
L 460.306424 173.177579 
L 470.901361 173.177579 
L 470.901361 170.233897 
L 475.139335 170.233897 
L 475.139335 164.346532 
L 477.258323 164.346532 
L 477.258323 158.459167 
L 494.210222 158.459167 
L 494.210222 155.515485 
L 504.805158 155.515485 
L 504.805158 152.571803 
L 509.043133 152.571803 
L 509.043133 146.684438 
L 515.400095 146.684438 
L 515.400095 143.740756 
L 521.757057 143.740756 
L 521.757057 140.797074 
L 530.233006 140.797074 
L 530.233006 137.853391 
L 532.351994 137.853391 
L 532.351994 134.909709 
L 564.136804 134.909709 
L 564.136804 131.966027 
L 583.20769 131.966027 
L 583.20769 129.022344 
L 591.683639 129.022344 
L 591.683639 126.078662 
L 604.397563 126.078662 
L 604.397563 123.13498 
L 606.516551 123.13498 
L 606.516551 120.191297 
L 619.230475 120.191297 
L 619.230475 117.247615 
L 627.706424 117.247615 
L 627.706424 114.303933 
L 636.182373 114.303933 
L 636.182373 111.36025 
L 640.420348 111.36025 
L 640.420348 108.416568 
L 653.134272 108.416568 
L 653.134272 105.472886 
L 657.372247 105.472886 
L 657.372247 99.585521 
L 682.800095 99.585521 
L 682.800095 90.754474 
L 703.989968 90.754474 
L 703.989968 87.810792 
L 720.941867 87.810792 
L 720.941867 84.86711 
L 733.655791 84.86711 
L 733.655791 81.923427 
L 754.845665 81.923427 
L 754.845665 78.979745 
L 814.17731 78.979745 
L 814.17731 76.036063 
L 816.296297 76.036063 
L 816.296297 73.09238 
L 824.772247 73.09238 
L 824.772247 70.148698 
L 848.081108 70.148698 
L 848.081108 67.205016 
L 862.914019 67.205016 
L 862.914019 61.317651 
L 881.984905 61.317651 
L 881.984905 58.373969 
L 892.579842 58.373969 
L 892.579842 55.430287 
L 905.293766 55.430287 
L 905.293766 52.486604 
L 937.078576 52.486604 
L 937.078576 49.542922 
L 941.316551 49.542922 
L 941.316551 46.59924 
L 943.435538 46.59924 
L 943.435538 43.655557 
L 945.554525 43.655557 
L 945.554525 40.711875 
L 949.7925 40.711875 
L 949.7925 40.711875 
" clip-path="url(#p05605bac61)" style="fill: none; stroke: #440154; stroke-width: 7; stroke-linecap: round"/>
   </g>
   <g id="patch_3">
    <path d="M 112.7925 856.111875 
L 112.7925 40.711875 
" style="fill: none; stroke: #262626; stroke-width: 1.25; stroke-linejoin: miter; stroke-linecap: square"/>
   </g>
   <g id="patch_4">
    <path d="M 949.7925 856.111875 
L 949.7925 40.711875 
" style="fill: none; stroke: #262626; stroke-width: 1.25; stroke-linejoin: miter; stroke-linecap: square"/>
   </g>
   <g id="patch_5">
    <path d="M 112.7925 856.111875 
L 949.7925 856.111875 
" style="fill: none; stroke: #262626; stroke-width: 1.25; stroke-linejoin: miter; stroke-linecap: square"/>
   </g>
   <g id="patch_6">
    <path d="M 112.7925 40.711875 
L 949.7925 40.711875 
" style="fill: none; stroke: #262626; stroke-width: 1.25; stroke-linejoin: miter; stroke-linecap: square"/>
   </g>
   <g id="text_15">
    <text style="fill: #262626; font: 36px 'sans-serif'; text-anchor: middle" x="531.2925" y="34.711875" transform="rotate(-0 531.2925 34.711875)">NK Cells | class_weight: None</text>
   </g>
   <g id="legend_1">
    <g id="patch_7">
     <path d="M 54.2925 1124.975625 
L 938.896875 1124.975625 
Q 946.096875 1124.975625 946.096875 1117.775625 
L 946.096875 962.851875 
Q 946.096875 955.651875 938.896875 955.651875 
L 54.2925 955.651875 
Q 47.0925 955.651875 47.0925 962.851875 
L 47.0925 1117.775625 
Q 47.0925 1124.975625 54.2925 1124.975625 
z
" style="fill: #ffffff; opacity: 0.8; stroke: #cccccc; stroke-linejoin: miter"/>
    </g>
    <g id="line2d_4">
     <path d="M 61.4925 984.80625 
L 97.4925 984.80625 
L 133.4925 984.80625 
" style="fill: none; stroke: #fde725; stroke-width: 7; stroke-linecap: round"/>
    </g>
    <g id="text_16">
     <text style="fill: #262626; font: 36px 'sans-serif'; text-anchor: start" x="162.2925" y="997.40625" transform="rotate(-0 162.2925 997.40625)">Random Forest (ROC AUC = 0.92)</text>
    </g>
    <g id="line2d_5">
     <path d="M 61.4925 1037.6475 
L 97.4925 1037.6475 
L 133.4925 1037.6475 
" style="fill: none; stroke: #1f988b; stroke-width: 7; stroke-linecap: round"/>
    </g>
    <g id="text_17">
     <text style="fill: #262626; font: 36px 'sans-serif'; text-anchor: start" x="162.2925" y="1050.2475" transform="rotate(-0 162.2925 1050.2475)">Logistic Regression (ROC AUC = 0.86)</text>
    </g>
    <g id="line2d_6">
     <path d="M 61.4925 1090.48875 
L 97.4925 1090.48875 
L 133.4925 1090.48875 
" style="fill: none; stroke: #440154; stroke-width: 7; stroke-linecap: round"/>
    </g>
    <g id="text_18">
     <text style="fill: #262626; font: 36px 'sans-serif'; text-anchor: start" x="162.2925" y="1103.08875" transform="rotate(-0 162.2925 1103.08875)">Support Vector Machine (ROC AUC = 0.78)</text>
    </g>
   </g>
  </g>
 </g>
 <defs>
  <clipPath id="p05605bac61">
   <rect x="112.7925" y="40.711875" width="837" height="815.4"/>
  </clipPath>
 </defs>
</svg>
