<?xml version="1.0" encoding="utf-8" standalone="no"?>
<!DOCTYPE svg PUBLIC "-//W3C//DTD SVG 1.1//EN"
  "http://www.w3.org/Graphics/SVG/1.1/DTD/svg11.dtd">
<svg xmlns:xlink="http://www.w3.org/1999/xlink" width="985.618125pt" height="1132.175625pt" viewBox="0 0 985.618125 1132.175625" xmlns="http://www.w3.org/2000/svg" version="1.1">
 <metadata>
  <rdf:RDF xmlns:dc="http://purl.org/dc/elements/1.1/" xmlns:cc="http://creativecommons.org/ns#" xmlns:rdf="http://www.w3.org/1999/02/22-rdf-syntax-ns#">
   <cc:Work>
    <dc:type rdf:resource="http://purl.org/dc/dcmitype/StillImage"/>
    <dc:date>2022-12-06T15:42:49.594562</dc:date>
    <dc:format>image/svg+xml</dc:format>
    <dc:creator>
     <cc:Agent>
      <dc:title>Matplotlib v3.6.0, https://matplotlib.org/</dc:title>
     </cc:Agent>
    </dc:creator>
   </cc:Work>
  </rdf:RDF>
 </metadata>
 <defs>
  <style type="text/css">*{stroke-linejoin: round; stroke-linecap: butt}</style>
 </defs>
 <g id="figure_1">
  <g id="patch_1">
   <path d="M 0 1132.175625 
L 985.618125 1132.175625 
L 985.618125 0 
L 0 0 
z
" style="fill: #ffffff"/>
  </g>
  <g id="axes_1">
   <g id="patch_2">
    <path d="M 112.7925 856.111875 
L 949.7925 856.111875 
L 949.7925 40.711875 
L 112.7925 40.711875 
z
" style="fill: #ffffff"/>
   </g>
   <g id="matplotlib.axis_1">
    <g id="xtick_1">
     <g id="text_1">
      <text style="fill: #262626; font: 36px 'sans-serif'; text-anchor: middle" x="112.7925" y="892.96625" transform="rotate(-0 112.7925 892.96625)">0.0</text>
     </g>
    </g>
    <g id="xtick_2">
     <g id="text_2">
      <text style="fill: #262626; font: 36px 'sans-serif'; text-anchor: middle" x="280.1925" y="892.96625" transform="rotate(-0 280.1925 892.96625)">0.2</text>
     </g>
    </g>
    <g id="xtick_3">
     <g id="text_3">
      <text style="fill: #262626; font: 36px 'sans-serif'; text-anchor: middle" x="447.5925" y="892.96625" transform="rotate(-0 447.5925 892.96625)">0.4</text>
     </g>
    </g>
    <g id="xtick_4">
     <g id="text_4">
      <text style="fill: #262626; font: 36px 'sans-serif'; text-anchor: middle" x="614.9925" y="892.96625" transform="rotate(-0 614.9925 892.96625)">0.6</text>
     </g>
    </g>
    <g id="xtick_5">
     <g id="text_5">
      <text style="fill: #262626; font: 36px 'sans-serif'; text-anchor: middle" x="782.3925" y="892.96625" transform="rotate(-0 782.3925 892.96625)">0.8</text>
     </g>
    </g>
    <g id="xtick_6">
     <g id="text_6">
      <text style="fill: #262626; font: 36px 'sans-serif'; text-anchor: middle" x="949.7925" y="892.96625" transform="rotate(-0 949.7925 892.96625)">1.0</text>
     </g>
    </g>
    <g id="text_7">
     <text style="fill: #262626; font: 36px 'sans-serif'; text-anchor: middle" x="531.2925" y="931.8075" transform="rotate(-0 531.2925 931.8075)">False Positive Rate</text>
    </g>
   </g>
   <g id="matplotlib.axis_2">
    <g id="ytick_1">
     <g id="text_8">
      <text style="fill: #262626; font: 36px 'sans-serif'; text-anchor: end" x="103.2925" y="869.789062" transform="rotate(-0 103.2925 869.789062)">0.0</text>
     </g>
    </g>
    <g id="ytick_2">
     <g id="text_9">
      <text style="fill: #262626; font: 36px 'sans-serif'; text-anchor: end" x="103.2925" y="706.709062" transform="rotate(-0 103.2925 706.709062)">0.2</text>
     </g>
    </g>
    <g id="ytick_3">
     <g id="text_10">
      <text style="fill: #262626; font: 36px 'sans-serif'; text-anchor: end" x="103.2925" y="543.629062" transform="rotate(-0 103.2925 543.629062)">0.4</text>
     </g>
    </g>
    <g id="ytick_4">
     <g id="text_11">
      <text style="fill: #262626; font: 36px 'sans-serif'; text-anchor: end" x="103.2925" y="380.549062" transform="rotate(-0 103.2925 380.549062)">0.6</text>
     </g>
    </g>
    <g id="ytick_5">
     <g id="text_12">
      <text style="fill: #262626; font: 36px 'sans-serif'; text-anchor: end" x="103.2925" y="217.469062" transform="rotate(-0 103.2925 217.469062)">0.8</text>
     </g>
    </g>
    <g id="ytick_6">
     <g id="text_13">
      <text style="fill: #262626; font: 36px 'sans-serif'; text-anchor: end" x="103.2925" y="54.389062" transform="rotate(-0 103.2925 54.389062)">1.0</text>
     </g>
    </g>
    <g id="text_14">
     <text style="fill: #262626; font: 36px 'sans-serif'; text-anchor: middle" x="34.554375" y="448.411875" transform="rotate(-90 34.554375 448.411875)">True Positive Rate</text>
    </g>
   </g>
   <g id="line2d_1">
    <path d="M 112.7925 856.111875 
L 112.7925 763.802441 
L 112.7925 697.134517 
L 112.7925 645.851498 
L 112.7925 609.953384 
L 112.7925 568.926969 
L 112.7925 517.64395 
L 112.7925 486.874139 
L 116.816538 456.104328 
L 116.816538 430.462818 
L 116.816538 399.693007 
L 116.816538 384.308101 
L 116.816538 322.768479 
L 116.816538 307.383573 
L 116.816538 297.126969 
L 120.840577 286.870366 
L 120.840577 276.613762 
L 124.864615 271.48546 
L 124.864615 261.228856 
L 128.888654 250.972252 
L 128.888654 235.587347 
L 128.888654 215.074139 
L 128.888654 209.945837 
L 128.888654 199.689233 
L 128.888654 184.304328 
L 132.912692 184.304328 
L 136.936731 174.047724 
L 136.936731 163.79112 
L 140.960769 158.662818 
L 140.960769 153.534517 
L 140.960769 138.149611 
L 144.984808 138.149611 
L 144.984808 133.021309 
L 144.984808 122.764705 
L 149.008846 122.764705 
L 157.056923 122.764705 
L 157.056923 117.636403 
L 165.105 117.636403 
L 173.153077 117.636403 
L 177.177115 107.3798 
L 181.201154 107.3798 
L 185.225192 102.251498 
L 201.321346 102.251498 
L 209.369423 97.123196 
L 217.4175 97.123196 
L 217.4175 81.73829 
L 221.441538 76.609988 
L 225.465577 76.609988 
L 233.513654 71.481686 
L 245.585769 71.481686 
L 261.681923 71.481686 
L 273.754038 71.481686 
L 281.802115 71.481686 
L 297.898269 71.481686 
L 309.970385 71.481686 
L 313.994423 71.481686 
L 338.138654 71.481686 
L 346.186731 71.481686 
L 358.258846 71.481686 
L 366.306923 71.481686 
L 370.330962 71.481686 
L 394.475192 71.481686 
L 398.499231 66.353384 
L 414.595385 66.353384 
L 438.739615 66.353384 
L 458.859808 66.353384 
L 503.124231 66.353384 
L 527.268462 66.353384 
L 555.436731 66.353384 
L 567.508846 61.225083 
L 619.821346 61.225083 
L 656.037692 56.096781 
L 700.302115 50.968479 
L 728.470385 50.968479 
L 760.662692 50.968479 
L 808.951154 50.968479 
L 849.191538 50.968479 
L 897.48 40.711875 
L 921.624231 40.711875 
L 949.7925 40.711875 
" clip-path="url(#p7d39f2c220)" style="fill: none; stroke: #fde725; stroke-width: 7; stroke-linecap: round"/>
   </g>
   <g id="PathCollection_1">
    <defs>
     <path id="m5dab26ed63" d="M 0 11.18034 
C 2.965061 11.18034 5.80908 10.002309 7.905694 7.905694 
C 10.002309 5.80908 11.18034 2.965061 11.18034 0 
C 11.18034 -2.965061 10.002309 -5.80908 7.905694 -7.905694 
C 5.80908 -10.002309 2.965061 -11.18034 0 -11.18034 
C -2.965061 -11.18034 -5.80908 -10.002309 -7.905694 -7.905694 
C -10.002309 -5.80908 -11.18034 -2.965061 -11.18034 0 
C -11.18034 2.965061 -10.002309 5.80908 -7.905694 7.905694 
C -5.80908 10.002309 -2.965061 11.18034 0 11.18034 
z
" style="stroke: #1a1a1a"/>
    </defs>
    <g clip-path="url(#p7d39f2c220)">
     <use xlink:href="#m5dab26ed63" x="161.080962" y="117.636403" style="fill: #1a1a1a; stroke: #1a1a1a"/>
    </g>
   </g>
   <g id="line2d_2">
    <path d="M 112.7925 856.111875 
L 112.7925 850.983573 
L 112.7925 640.723196 
L 116.816538 640.723196 
L 116.816538 348.409988 
L 120.840577 348.409988 
L 120.840577 307.383573 
L 124.864615 307.383573 
L 124.864615 297.126969 
L 132.912692 297.126969 
L 132.912692 245.84395 
L 140.960769 245.84395 
L 140.960769 235.587347 
L 157.056923 235.587347 
L 157.056923 225.330743 
L 161.080962 225.330743 
L 161.080962 220.202441 
L 169.129038 220.202441 
L 169.129038 215.074139 
L 173.153077 215.074139 
L 173.153077 209.945837 
L 177.177115 209.945837 
L 177.177115 204.817535 
L 185.225192 204.817535 
L 185.225192 199.689233 
L 193.273269 199.689233 
L 193.273269 168.919422 
L 209.369423 168.919422 
L 209.369423 163.79112 
L 213.393462 163.79112 
L 213.393462 148.406215 
L 217.4175 148.406215 
L 217.4175 138.149611 
L 221.441538 138.149611 
L 221.441538 133.021309 
L 225.465577 133.021309 
L 225.465577 127.893007 
L 229.489615 127.893007 
L 229.489615 122.764705 
L 237.537692 122.764705 
L 237.537692 117.636403 
L 241.561731 117.636403 
L 241.561731 112.508101 
L 249.609808 112.508101 
L 249.609808 102.251498 
L 257.657885 102.251498 
L 257.657885 97.123196 
L 269.73 97.123196 
L 269.73 91.994894 
L 305.946346 91.994894 
L 305.946346 86.866592 
L 313.994423 86.866592 
L 313.994423 81.73829 
L 318.018462 81.73829 
L 318.018462 76.609988 
L 334.114615 76.609988 
L 334.114615 71.481686 
L 354.234808 71.481686 
L 354.234808 66.353384 
L 394.475192 66.353384 
L 394.475192 61.225083 
L 474.955962 61.225083 
L 474.955962 56.096781 
L 499.100192 56.096781 
L 499.100192 50.968479 
L 519.220385 50.968479 
L 519.220385 45.840177 
L 603.725192 45.840177 
L 603.725192 40.711875 
L 949.7925 40.711875 
" clip-path="url(#p7d39f2c220)" style="fill: none; stroke: #1f988b; stroke-width: 7; stroke-linecap: round"/>
   </g>
   <g id="PathCollection_2">
    <g clip-path="url(#p7d39f2c220)">
     <use xlink:href="#m5dab26ed63" x="221.441538" y="138.149611" style="fill: #1a1a1a; stroke: #1a1a1a"/>
    </g>
   </g>
   <g id="PathCollection_3">
    <g clip-path="url(#p7d39f2c220)">
     <use xlink:href="#m5dab26ed63" x="229.489615" y="143.277913" style="fill: #1a1a1a; stroke: #1a1a1a"/>
    </g>
   </g>
   <g id="line2d_3">
    <path d="M 112.7925 856.111875 
L 112.7925 850.983573 
L 112.7925 486.874139 
L 116.816538 486.874139 
L 116.816538 445.847724 
L 120.840577 445.847724 
L 120.840577 322.768479 
L 128.888654 322.768479 
L 128.888654 291.998667 
L 136.936731 291.998667 
L 136.936731 261.228856 
L 140.960769 261.228856 
L 140.960769 250.972252 
L 157.056923 250.972252 
L 157.056923 235.587347 
L 161.080962 235.587347 
L 161.080962 225.330743 
L 165.105 225.330743 
L 165.105 215.074139 
L 169.129038 215.074139 
L 169.129038 209.945837 
L 173.153077 209.945837 
L 173.153077 204.817535 
L 177.177115 204.817535 
L 177.177115 194.560932 
L 181.201154 194.560932 
L 181.201154 189.43263 
L 185.225192 189.43263 
L 185.225192 184.304328 
L 189.249231 184.304328 
L 189.249231 179.176026 
L 201.321346 179.176026 
L 201.321346 174.047724 
L 205.345385 174.047724 
L 205.345385 163.79112 
L 213.393462 163.79112 
L 213.393462 153.534517 
L 225.465577 153.534517 
L 225.465577 143.277913 
L 229.489615 143.277913 
L 237.537692 138.149611 
L 237.537692 133.021309 
L 241.561731 133.021309 
L 241.561731 127.893007 
L 249.609808 127.893007 
L 249.609808 122.764705 
L 285.826154 122.764705 
L 285.826154 117.636403 
L 301.922308 117.636403 
L 301.922308 112.508101 
L 322.0425 112.508101 
L 322.0425 91.994894 
L 326.066538 91.994894 
L 326.066538 81.73829 
L 370.330962 81.73829 
L 370.330962 71.481686 
L 398.499231 71.481686 
L 398.499231 66.353384 
L 567.508846 66.353384 
L 567.508846 61.225083 
L 579.580962 61.225083 
L 579.580962 56.096781 
L 599.701154 56.096781 
L 599.701154 50.968479 
L 668.109808 50.968479 
L 668.109808 40.711875 
L 949.7925 40.711875 
" clip-path="url(#p7d39f2c220)" style="fill: none; stroke: #440154; stroke-width: 7; stroke-linecap: round"/>
   </g>
   <g id="patch_3">
    <path d="M 112.7925 856.111875 
L 112.7925 40.711875 
" style="fill: none; stroke: #262626; stroke-width: 1.25; stroke-linejoin: miter; stroke-linecap: square"/>
   </g>
   <g id="patch_4">
    <path d="M 949.7925 856.111875 
L 949.7925 40.711875 
" style="fill: none; stroke: #262626; stroke-width: 1.25; stroke-linejoin: miter; stroke-linecap: square"/>
   </g>
   <g id="patch_5">
    <path d="M 112.7925 856.111875 
L 949.7925 856.111875 
" style="fill: none; stroke: #262626; stroke-width: 1.25; stroke-linejoin: miter; stroke-linecap: square"/>
   </g>
   <g id="patch_6">
    <path d="M 112.7925 40.711875 
L 949.7925 40.711875 
" style="fill: none; stroke: #262626; stroke-width: 1.25; stroke-linejoin: miter; stroke-linecap: square"/>
   </g>
   <g id="text_15">
    <text style="fill: #262626; font: 36px 'sans-serif'; text-anchor: middle" x="531.2925" y="34.711875" transform="rotate(-0 531.2925 34.711875)">NK Cells | class_weight: None</text>
   </g>
   <g id="legend_1">
    <g id="patch_7">
     <path d="M 54.2925 1124.975625 
L 938.896875 1124.975625 
Q 946.096875 1124.975625 946.096875 1117.775625 
L 946.096875 962.851875 
Q 946.096875 955.651875 938.896875 955.651875 
L 54.2925 955.651875 
Q 47.0925 955.651875 47.0925 962.851875 
L 47.0925 1117.775625 
Q 47.0925 1124.975625 54.2925 1124.975625 
z
" style="fill: #ffffff; opacity: 0.8; stroke: #cccccc; stroke-linejoin: miter"/>
    </g>
    <g id="line2d_4">
     <path d="M 61.4925 984.80625 
L 97.4925 984.80625 
L 133.4925 984.80625 
" style="fill: none; stroke: #fde725; stroke-width: 7; stroke-linecap: round"/>
    </g>
    <g id="text_16">
     <text style="fill: #262626; font: 36px 'sans-serif'; text-anchor: start" x="162.2925" y="997.40625" transform="rotate(-0 162.2925 997.40625)">Random Forest (ROC AUC = 0.96)</text>
    </g>
    <g id="line2d_5">
     <path d="M 61.4925 1037.6475 
L 97.4925 1037.6475 
L 133.4925 1037.6475 
" style="fill: none; stroke: #1f988b; stroke-width: 7; stroke-linecap: round"/>
    </g>
    <g id="text_17">
     <text style="fill: #262626; font: 36px 'sans-serif'; text-anchor: start" x="162.2925" y="1050.2475" transform="rotate(-0 162.2925 1050.2475)">Logistic Regression (ROC AUC = 0.95)</text>
    </g>
    <g id="line2d_6">
     <path d="M 61.4925 1090.48875 
L 97.4925 1090.48875 
L 133.4925 1090.48875 
" style="fill: none; stroke: #440154; stroke-width: 7; stroke-linecap: round"/>
    </g>
    <g id="text_18">
     <text style="fill: #262626; font: 36px 'sans-serif'; text-anchor: start" x="162.2925" y="1103.08875" transform="rotate(-0 162.2925 1103.08875)">Support Vector Machine (ROC AUC = 0.94)</text>
    </g>
   </g>
  </g>
 </g>
 <defs>
  <clipPath id="p7d39f2c220">
   <rect x="112.7925" y="40.711875" width="837" height="815.4"/>
  </clipPath>
 </defs>
</svg>
