<?xml version="1.0" encoding="utf-8" standalone="no"?>
<!DOCTYPE svg PUBLIC "-//W3C//DTD SVG 1.1//EN"
  "http://www.w3.org/Graphics/SVG/1.1/DTD/svg11.dtd">
<svg xmlns:xlink="http://www.w3.org/1999/xlink" width="985.010625pt" height="1334.551875pt" viewBox="0 0 985.010625 1334.551875" xmlns="http://www.w3.org/2000/svg" version="1.1">
 <metadata>
  <rdf:RDF xmlns:dc="http://purl.org/dc/elements/1.1/" xmlns:cc="http://creativecommons.org/ns#" xmlns:rdf="http://www.w3.org/1999/02/22-rdf-syntax-ns#">
   <cc:Work>
    <dc:type rdf:resource="http://purl.org/dc/dcmitype/StillImage"/>
    <dc:date>2022-10-03T15:26:41.492301</dc:date>
    <dc:format>image/svg+xml</dc:format>
    <dc:creator>
     <cc:Agent>
      <dc:title>Matplotlib v3.6.0, https://matplotlib.org/</dc:title>
     </cc:Agent>
    </dc:creator>
   </cc:Work>
  </rdf:RDF>
 </metadata>
 <defs>
  <style type="text/css">*{stroke-linejoin: round; stroke-linecap: butt}</style>
 </defs>
 <g id="figure_1">
  <g id="patch_1">
   <path d="M 0 1334.551875 
L 985.010625 1334.551875 
L 985.010625 0 
L 0 0 
z
" style="fill: #ffffff"/>
  </g>
  <g id="axes_1">
   <g id="patch_2">
    <path d="M 103.663125 854.368125 
L 940.663125 854.368125 
L 940.663125 38.968125 
L 103.663125 38.968125 
z
" style="fill: #ffffff"/>
   </g>
   <g id="matplotlib.axis_1">
    <g id="xtick_1">
     <g id="text_1">
      <text style="fill: #262626; font: 36px 'sans-serif'; text-anchor: middle" x="103.663125" y="889.63625" transform="rotate(-0 103.663125 889.63625)">0.0</text>
     </g>
    </g>
    <g id="xtick_2">
     <g id="text_2">
      <text style="fill: #262626; font: 36px 'sans-serif'; text-anchor: middle" x="271.063125" y="889.63625" transform="rotate(-0 271.063125 889.63625)">0.2</text>
     </g>
    </g>
    <g id="xtick_3">
     <g id="text_3">
      <text style="fill: #262626; font: 36px 'sans-serif'; text-anchor: middle" x="438.463125" y="889.63625" transform="rotate(-0 438.463125 889.63625)">0.4</text>
     </g>
    </g>
    <g id="xtick_4">
     <g id="text_4">
      <text style="fill: #262626; font: 36px 'sans-serif'; text-anchor: middle" x="605.863125" y="889.63625" transform="rotate(-0 605.863125 889.63625)">0.6</text>
     </g>
    </g>
    <g id="xtick_5">
     <g id="text_5">
      <text style="fill: #262626; font: 36px 'sans-serif'; text-anchor: middle" x="773.263125" y="889.63625" transform="rotate(-0 773.263125 889.63625)">0.8</text>
     </g>
    </g>
    <g id="xtick_6">
     <g id="text_6">
      <text style="fill: #262626; font: 36px 'sans-serif'; text-anchor: middle" x="940.663125" y="889.63625" transform="rotate(-0 940.663125 889.63625)">1.0</text>
     </g>
    </g>
    <g id="text_7">
     <text style="fill: #262626; font: 36px 'sans-serif'; text-anchor: middle" x="522.163125" y="926.559375" transform="rotate(-0 522.163125 926.559375)">False Positive Rate</text>
    </g>
   </g>
   <g id="matplotlib.axis_2">
    <g id="ytick_1">
     <g id="text_8">
      <text style="fill: #262626; font: 36px 'sans-serif'; text-anchor: end" x="94.163125" y="867.252187" transform="rotate(-0 94.163125 867.252187)">0.0</text>
     </g>
    </g>
    <g id="ytick_2">
     <g id="text_9">
      <text style="fill: #262626; font: 36px 'sans-serif'; text-anchor: end" x="94.163125" y="704.172187" transform="rotate(-0 94.163125 704.172187)">0.2</text>
     </g>
    </g>
    <g id="ytick_3">
     <g id="text_10">
      <text style="fill: #262626; font: 36px 'sans-serif'; text-anchor: end" x="94.163125" y="541.092187" transform="rotate(-0 94.163125 541.092187)">0.4</text>
     </g>
    </g>
    <g id="ytick_4">
     <g id="text_11">
      <text style="fill: #262626; font: 36px 'sans-serif'; text-anchor: end" x="94.163125" y="378.012187" transform="rotate(-0 94.163125 378.012187)">0.6</text>
     </g>
    </g>
    <g id="ytick_5">
     <g id="text_12">
      <text style="fill: #262626; font: 36px 'sans-serif'; text-anchor: end" x="94.163125" y="214.932187" transform="rotate(-0 94.163125 214.932187)">0.8</text>
     </g>
    </g>
    <g id="ytick_6">
     <g id="text_13">
      <text style="fill: #262626; font: 36px 'sans-serif'; text-anchor: end" x="94.163125" y="51.852187" transform="rotate(-0 94.163125 51.852187)">1.0</text>
     </g>
    </g>
    <g id="text_14">
     <text style="fill: #262626; font: 36px 'sans-serif'; text-anchor: middle" x="32.968125" y="446.668125" transform="rotate(-90 32.968125 446.668125)">True Positive Rate</text>
    </g>
   </g>
   <g id="line2d_1">
    <path d="M 103.663125 854.368125 
L 103.663125 792.378651 
L 103.663125 768.536546 
L 103.663125 754.231283 
L 103.663125 697.01023 
L 103.663125 673.168125 
L 103.663125 654.094441 
L 103.663125 644.557599 
L 103.663125 625.483914 
L 103.663125 601.641809 
L 103.663125 582.568125 
L 103.663125 577.799704 
L 106.12489 558.72602 
L 108.586654 549.189178 
L 111.048419 549.189178 
L 111.048419 544.420757 
L 111.048419 525.347072 
L 111.048419 515.81023 
L 115.971949 511.041809 
L 120.895478 501.504967 
L 123.357243 487.199704 
L 125.819007 487.199704 
L 125.819007 472.894441 
L 125.819007 463.357599 
L 128.280772 453.820757 
L 128.280772 449.052336 
L 128.280772 439.515493 
L 128.280772 425.21023 
L 133.204301 406.136546 
L 133.204301 391.831283 
L 135.666066 387.062862 
L 140.589596 363.220757 
L 143.05136 363.220757 
L 147.97489 348.915493 
L 150.436654 344.147072 
L 152.898419 334.61023 
L 152.898419 329.841809 
L 152.898419 320.304967 
L 155.360184 320.304967 
L 157.821949 305.999704 
L 162.745478 305.999704 
L 162.745478 301.231283 
L 167.669007 296.462862 
L 170.130772 291.694441 
L 177.516066 286.92602 
L 182.439596 277.389178 
L 182.439596 263.083914 
L 182.439596 258.315493 
L 184.90136 248.778651 
L 187.363125 248.778651 
L 189.82489 239.241809 
L 194.748419 239.241809 
L 194.748419 229.704967 
L 199.671949 215.399704 
L 204.595478 210.631283 
L 209.519007 210.631283 
L 226.75136 201.094441 
L 229.213125 191.557599 
L 239.060184 191.557599 
L 248.907243 182.020757 
L 258.754301 182.020757 
L 266.139596 182.020757 
L 271.063125 182.020757 
L 273.52489 177.252336 
L 283.371949 177.252336 
L 288.295478 158.178651 
L 293.219007 143.873388 
L 310.45136 139.104967 
L 325.221949 129.568125 
L 337.530772 120.031283 
L 347.377831 115.262862 
L 349.839596 110.494441 
L 369.533713 110.494441 
L 389.227831 91.420757 
L 406.460184 86.652336 
L 426.154301 77.115493 
L 440.92489 77.115493 
L 460.619007 67.578651 
L 475.389596 67.578651 
L 497.545478 67.578651 
L 524.62489 62.81023 
L 556.627831 62.81023 
L 591.092537 58.041809 
L 647.713125 58.041809 
L 706.795478 48.504967 
L 792.957243 48.504967 
L 856.963125 38.968125 
L 940.663125 38.968125 
" clip-path="url(#p94c48b3b85)" style="fill: none; stroke: #fde725; stroke-width: 5; stroke-linecap: round"/>
   </g>
   <g id="line2d_2">
    <path d="M 103.663125 854.368125 
L 106.12489 820.989178 
L 108.586654 787.61023 
L 108.586654 730.389178 
L 108.586654 720.852336 
L 108.586654 697.01023 
L 111.048419 673.168125 
L 111.048419 668.399704 
L 111.048419 649.32602 
L 113.510184 630.252336 
L 115.971949 615.947072 
L 118.433713 606.41023 
L 118.433713 592.104967 
L 123.357243 592.104967 
L 125.819007 577.799704 
L 128.280772 573.031283 
L 128.280772 558.72602 
L 128.280772 530.115493 
L 130.742537 530.115493 
L 130.742537 520.578651 
L 130.742537 515.81023 
L 130.742537 506.273388 
L 138.127831 487.199704 
L 140.589596 468.12602 
L 140.589596 453.820757 
L 140.589596 444.283914 
L 145.513125 439.515493 
L 150.436654 439.515493 
L 160.283713 420.441809 
L 160.283713 396.599704 
L 162.745478 391.831283 
L 167.669007 387.062862 
L 170.130772 382.294441 
L 175.054301 377.52602 
L 175.054301 358.452336 
L 177.516066 358.452336 
L 177.516066 348.915493 
L 177.516066 344.147072 
L 179.977831 334.61023 
L 184.90136 334.61023 
L 187.363125 329.841809 
L 189.82489 329.841809 
L 202.133713 320.304967 
L 202.133713 310.768125 
L 204.595478 305.999704 
L 207.057243 305.999704 
L 209.519007 286.92602 
L 211.980772 286.92602 
L 219.366066 282.157599 
L 229.213125 272.620757 
L 229.213125 267.852336 
L 231.67489 267.852336 
L 234.136654 258.315493 
L 239.060184 258.315493 
L 241.521949 253.547072 
L 241.521949 239.241809 
L 246.445478 239.241809 
L 246.445478 234.473388 
L 248.907243 234.473388 
L 251.369007 224.936546 
L 258.754301 210.631283 
L 261.216066 210.631283 
L 263.677831 201.094441 
L 268.60136 201.094441 
L 271.063125 196.32602 
L 280.910184 196.32602 
L 295.680772 186.789178 
L 307.989596 177.252336 
L 322.760184 172.483914 
L 327.683713 162.947072 
L 335.069007 148.641809 
L 344.916066 139.104967 
L 357.22489 129.568125 
L 381.842537 120.031283 
L 396.613125 120.031283 
L 408.921949 120.031283 
L 423.692537 115.262862 
L 438.463125 115.262862 
L 480.313125 100.957599 
L 504.930772 86.652336 
L 544.319007 81.883914 
L 576.321949 67.578651 
L 615.710184 58.041809 
L 677.254301 43.736546 
L 738.798419 38.968125 
L 807.727831 38.968125 
L 940.663125 38.968125 
" clip-path="url(#p94c48b3b85)" style="fill: none; stroke: #a5db36; stroke-width: 5; stroke-linecap: round"/>
   </g>
   <g id="line2d_3">
    <path d="M 103.663125 854.368125 
L 103.663125 768.536546 
L 103.663125 735.157599 
L 106.12489 701.778651 
L 108.586654 673.168125 
L 113.510184 663.631283 
L 113.510184 649.32602 
L 113.510184 639.789178 
L 113.510184 620.715493 
L 113.510184 606.41023 
L 115.971949 592.104967 
L 115.971949 563.494441 
L 118.433713 553.957599 
L 120.895478 539.652336 
L 125.819007 534.883914 
L 128.280772 525.347072 
L 135.666066 525.347072 
L 135.666066 515.81023 
L 135.666066 511.041809 
L 135.666066 501.504967 
L 143.05136 482.431283 
L 145.513125 472.894441 
L 145.513125 468.12602 
L 147.97489 468.12602 
L 150.436654 458.589178 
L 155.360184 453.820757 
L 155.360184 434.747072 
L 155.360184 429.978651 
L 157.821949 425.21023 
L 157.821949 410.904967 
L 157.821949 401.368125 
L 160.283713 391.831283 
L 160.283713 382.294441 
L 160.283713 377.52602 
L 165.207243 372.757599 
L 165.207243 363.220757 
L 167.669007 363.220757 
L 167.669007 344.147072 
L 170.130772 329.841809 
L 170.130772 325.073388 
L 172.592537 320.304967 
L 172.592537 310.768125 
L 175.054301 310.768125 
L 177.516066 305.999704 
L 182.439596 305.999704 
L 184.90136 305.999704 
L 184.90136 301.231283 
L 187.363125 291.694441 
L 192.286654 291.694441 
L 192.286654 277.389178 
L 194.748419 277.389178 
L 197.210184 272.620757 
L 197.210184 267.852336 
L 202.133713 267.852336 
L 202.133713 263.083914 
L 207.057243 258.315493 
L 209.519007 258.315493 
L 214.442537 253.547072 
L 214.442537 248.778651 
L 219.366066 239.241809 
L 221.827831 234.473388 
L 229.213125 229.704967 
L 239.060184 229.704967 
L 246.445478 229.704967 
L 261.216066 224.936546 
L 268.60136 215.399704 
L 273.52489 215.399704 
L 283.371949 196.32602 
L 283.371949 191.557599 
L 293.219007 186.789178 
L 300.604301 186.789178 
L 303.066066 186.789178 
L 310.45136 182.020757 
L 320.298419 182.020757 
L 330.145478 172.483914 
L 359.686654 162.947072 
L 364.610184 153.41023 
L 384.304301 153.41023 
L 403.998419 148.641809 
L 418.769007 143.873388 
L 436.00136 139.104967 
L 460.619007 129.568125 
L 470.466066 120.031283 
L 502.469007 115.262862 
L 536.933713 115.262862 
L 564.013125 100.957599 
L 600.939596 86.652336 
L 647.713125 77.115493 
L 714.180772 62.81023 
L 775.72489 53.273388 
L 940.663125 38.968125 
" clip-path="url(#p94c48b3b85)" style="fill: none; stroke: #4ac16d; stroke-width: 5; stroke-linecap: round"/>
   </g>
   <g id="line2d_4">
    <path d="M 103.663125 854.368125 
L 106.12489 787.61023 
L 106.12489 735.157599 
L 106.12489 720.852336 
L 108.586654 692.241809 
L 111.048419 668.399704 
L 113.510184 654.094441 
L 113.510184 644.557599 
L 118.433713 625.483914 
L 123.357243 615.947072 
L 123.357243 606.41023 
L 123.357243 592.104967 
L 125.819007 582.568125 
L 125.819007 573.031283 
L 125.819007 563.494441 
L 128.280772 549.189178 
L 130.742537 539.652336 
L 130.742537 525.347072 
L 133.204301 520.578651 
L 133.204301 501.504967 
L 133.204301 491.968125 
L 138.127831 487.199704 
L 138.127831 482.431283 
L 138.127831 458.589178 
L 138.127831 453.820757 
L 140.589596 429.978651 
L 140.589596 410.904967 
L 140.589596 406.136546 
L 143.05136 401.368125 
L 147.97489 391.831283 
L 150.436654 391.831283 
L 155.360184 382.294441 
L 155.360184 372.757599 
L 157.821949 372.757599 
L 160.283713 363.220757 
L 165.207243 358.452336 
L 165.207243 353.683914 
L 167.669007 348.915493 
L 170.130772 339.378651 
L 170.130772 334.61023 
L 170.130772 325.073388 
L 177.516066 325.073388 
L 182.439596 320.304967 
L 184.90136 315.536546 
L 194.748419 315.536546 
L 197.210184 315.536546 
L 197.210184 310.768125 
L 207.057243 310.768125 
L 209.519007 296.462862 
L 216.904301 286.92602 
L 221.827831 277.389178 
L 226.75136 277.389178 
L 234.136654 267.852336 
L 243.983713 258.315493 
L 251.369007 248.778651 
L 253.830772 248.778651 
L 253.830772 244.01023 
L 258.754301 229.704967 
L 266.139596 220.168125 
L 273.52489 220.168125 
L 283.371949 220.168125 
L 285.833713 210.631283 
L 288.295478 210.631283 
L 290.757243 205.862862 
L 307.989596 205.862862 
L 312.913125 205.862862 
L 330.145478 201.094441 
L 330.145478 196.32602 
L 339.992537 196.32602 
L 352.30136 191.557599 
L 367.071949 186.789178 
L 371.995478 182.020757 
L 376.919007 162.947072 
L 394.15136 162.947072 
L 401.536654 158.178651 
L 408.921949 158.178651 
L 416.307243 153.41023 
L 436.00136 143.873388 
L 458.157243 134.336546 
L 477.85136 115.262862 
L 495.083713 115.262862 
L 522.163125 100.957599 
L 564.013125 86.652336 
L 610.786654 77.115493 
L 669.869007 67.578651 
L 716.642537 53.273388 
L 775.72489 53.273388 
L 864.348419 38.968125 
L 940.663125 38.968125 
" clip-path="url(#p94c48b3b85)" style="fill: none; stroke: #1f988b; stroke-width: 5; stroke-linecap: round"/>
   </g>
   <g id="line2d_5">
    <path d="M 103.663125 854.368125 
L 111.048419 744.694441 
L 111.048419 692.241809 
L 111.048419 682.704967 
L 111.048419 668.399704 
L 111.048419 644.557599 
L 113.510184 635.020757 
L 113.510184 630.252336 
L 115.971949 606.41023 
L 118.433713 606.41023 
L 120.895478 601.641809 
L 120.895478 596.873388 
L 123.357243 587.336546 
L 123.357243 573.031283 
L 123.357243 568.262862 
L 123.357243 549.189178 
L 123.357243 544.420757 
L 125.819007 544.420757 
L 125.819007 534.883914 
L 125.819007 520.578651 
L 128.280772 520.578651 
L 128.280772 511.041809 
L 133.204301 496.736546 
L 133.204301 487.199704 
L 140.589596 477.662862 
L 143.05136 472.894441 
L 145.513125 463.357599 
L 152.898419 458.589178 
L 160.283713 449.052336 
L 160.283713 444.283914 
L 165.207243 439.515493 
L 167.669007 429.978651 
L 167.669007 415.673388 
L 170.130772 410.904967 
L 170.130772 396.599704 
L 177.516066 391.831283 
L 179.977831 387.062862 
L 184.90136 372.757599 
L 189.82489 372.757599 
L 194.748419 358.452336 
L 197.210184 358.452336 
L 199.671949 353.683914 
L 204.595478 353.683914 
L 209.519007 348.915493 
L 211.980772 339.378651 
L 229.213125 334.61023 
L 234.136654 334.61023 
L 241.521949 329.841809 
L 246.445478 325.073388 
L 246.445478 310.768125 
L 251.369007 310.768125 
L 253.830772 310.768125 
L 258.754301 310.768125 
L 263.677831 305.999704 
L 266.139596 291.694441 
L 273.52489 282.157599 
L 280.910184 277.389178 
L 288.295478 277.389178 
L 293.219007 272.620757 
L 295.680772 267.852336 
L 300.604301 263.083914 
L 305.527831 263.083914 
L 307.989596 258.315493 
L 315.37489 253.547072 
L 320.298419 253.547072 
L 322.760184 248.778651 
L 325.221949 248.778651 
L 332.607243 248.778651 
L 335.069007 244.01023 
L 337.530772 244.01023 
L 342.454301 224.936546 
L 349.839596 220.168125 
L 349.839596 210.631283 
L 359.686654 205.862862 
L 367.071949 196.32602 
L 384.304301 196.32602 
L 389.227831 196.32602 
L 396.613125 191.557599 
L 411.383713 191.557599 
L 421.230772 191.557599 
L 436.00136 172.483914 
L 450.771949 167.715493 
L 468.004301 167.715493 
L 477.85136 167.715493 
L 492.621949 158.178651 
L 507.392537 158.178651 
L 512.316066 158.178651 
L 517.239596 148.641809 
L 541.857243 143.873388 
L 556.627831 129.568125 
L 610.786654 100.957599 
L 645.25136 86.652336 
L 758.492537 67.578651 
L 940.663125 38.968125 
" clip-path="url(#p94c48b3b85)" style="fill: none; stroke: #2a788e; stroke-width: 5; stroke-linecap: round"/>
   </g>
   <g id="line2d_6">
    <path d="M 103.663125 854.368125 
L 133.204301 682.704967 
L 133.204301 658.862862 
L 133.204301 644.557599 
L 138.127831 635.020757 
L 140.589596 606.41023 
L 147.97489 596.873388 
L 152.898419 587.336546 
L 157.821949 568.262862 
L 162.745478 553.957599 
L 162.745478 544.420757 
L 165.207243 544.420757 
L 172.592537 534.883914 
L 172.592537 520.578651 
L 175.054301 511.041809 
L 177.516066 511.041809 
L 177.516066 491.968125 
L 177.516066 482.431283 
L 179.977831 482.431283 
L 179.977831 472.894441 
L 182.439596 449.052336 
L 182.439596 444.283914 
L 189.82489 429.978651 
L 189.82489 425.21023 
L 189.82489 415.673388 
L 192.286654 410.904967 
L 209.519007 396.599704 
L 211.980772 396.599704 
L 221.827831 391.831283 
L 224.289596 391.831283 
L 236.598419 391.831283 
L 251.369007 382.294441 
L 253.830772 382.294441 
L 261.216066 377.52602 
L 266.139596 377.52602 
L 273.52489 377.52602 
L 275.986654 377.52602 
L 275.986654 367.989178 
L 278.448419 367.989178 
L 278.448419 358.452336 
L 280.910184 348.915493 
L 280.910184 325.073388 
L 280.910184 315.536546 
L 283.371949 315.536546 
L 285.833713 310.768125 
L 288.295478 301.231283 
L 290.757243 301.231283 
L 290.757243 286.92602 
L 303.066066 277.389178 
L 303.066066 267.852336 
L 305.527831 267.852336 
L 310.45136 263.083914 
L 322.760184 244.01023 
L 337.530772 234.473388 
L 342.454301 234.473388 
L 347.377831 234.473388 
L 352.30136 220.168125 
L 357.22489 220.168125 
L 359.686654 215.399704 
L 359.686654 210.631283 
L 362.148419 210.631283 
L 367.071949 210.631283 
L 396.613125 210.631283 
L 403.998419 205.862862 
L 411.383713 205.862862 
L 418.769007 201.094441 
L 433.539596 201.094441 
L 440.92489 196.32602 
L 460.619007 191.557599 
L 487.698419 182.020757 
L 536.933713 167.715493 
L 940.663125 38.968125 
" clip-path="url(#p94c48b3b85)" style="fill: none; stroke: #414487; stroke-width: 5; stroke-linecap: round"/>
   </g>
   <g id="line2d_7">
    <path d="M 103.663125 854.368125 
L 106.12489 806.683914 
L 111.048419 763.768125 
L 115.971949 749.462862 
L 123.357243 720.852336 
L 123.357243 711.315493 
L 125.819007 706.547072 
L 125.819007 697.01023 
L 128.280772 692.241809 
L 128.280772 677.936546 
L 130.742537 673.168125 
L 130.742537 663.631283 
L 133.204301 658.862862 
L 135.666066 649.32602 
L 135.666066 639.789178 
L 138.127831 639.789178 
L 140.589596 625.483914 
L 145.513125 625.483914 
L 147.97489 615.947072 
L 147.97489 606.41023 
L 150.436654 601.641809 
L 150.436654 596.873388 
L 152.898419 596.873388 
L 160.283713 592.104967 
L 162.745478 587.336546 
L 167.669007 587.336546 
L 177.516066 568.262862 
L 179.977831 563.494441 
L 187.363125 549.189178 
L 192.286654 539.652336 
L 202.133713 539.652336 
L 214.442537 530.115493 
L 219.366066 530.115493 
L 239.060184 530.115493 
L 239.060184 525.347072 
L 243.983713 515.81023 
L 243.983713 511.041809 
L 253.830772 501.504967 
L 258.754301 496.736546 
L 263.677831 496.736546 
L 271.063125 487.199704 
L 293.219007 472.894441 
L 295.680772 468.12602 
L 298.142537 458.589178 
L 303.066066 449.052336 
L 317.836654 439.515493 
L 320.298419 429.978651 
L 325.221949 415.673388 
L 335.069007 406.136546 
L 337.530772 396.599704 
L 342.454301 396.599704 
L 357.22489 387.062862 
L 369.533713 377.52602 
L 374.457243 372.757599 
L 384.304301 363.220757 
L 391.689596 363.220757 
L 399.07489 358.452336 
L 411.383713 348.915493 
L 416.307243 348.915493 
L 433.539596 348.915493 
L 450.771949 339.378651 
L 465.542537 329.841809 
L 472.927831 320.304967 
L 482.77489 301.231283 
L 490.160184 286.92602 
L 502.469007 267.852336 
L 514.777831 267.852336 
L 564.013125 248.778651 
L 583.707243 248.778651 
L 603.40136 234.473388 
L 613.248419 229.704967 
L 635.404301 205.862862 
L 655.098419 191.557599 
L 669.869007 186.789178 
L 694.486654 177.252336 
L 724.027831 153.41023 
L 736.336654 143.873388 
L 780.648419 129.568125 
L 820.036654 96.189178 
L 849.577831 72.347072 
L 911.121949 62.81023 
L 940.663125 38.968125 
" clip-path="url(#p94c48b3b85)" style="fill: none; stroke: #440154; stroke-width: 5; stroke-linecap: round"/>
   </g>
   <g id="patch_3">
    <path d="M 103.663125 854.368125 
L 103.663125 38.968125 
" style="fill: none; stroke: #262626; stroke-width: 1.25; stroke-linejoin: miter; stroke-linecap: square"/>
   </g>
   <g id="patch_4">
    <path d="M 940.663125 854.368125 
L 940.663125 38.968125 
" style="fill: none; stroke: #262626; stroke-width: 1.25; stroke-linejoin: miter; stroke-linecap: square"/>
   </g>
   <g id="patch_5">
    <path d="M 103.663125 854.368125 
L 940.663125 854.368125 
" style="fill: none; stroke: #262626; stroke-width: 1.25; stroke-linejoin: miter; stroke-linecap: square"/>
   </g>
   <g id="patch_6">
    <path d="M 103.663125 38.968125 
L 940.663125 38.968125 
" style="fill: none; stroke: #262626; stroke-width: 1.25; stroke-linejoin: miter; stroke-linecap: square"/>
   </g>
   <g id="text_15">
    <text style="fill: #262626; font: 36px 'sans-serif'; text-anchor: middle" x="522.163125" y="32.968125" transform="rotate(-0 522.163125 32.968125)">Figure 4. B,NK,T cells</text>
   </g>
   <g id="legend_1">
    <g id="patch_7">
     <path d="M 45.163125 1327.351875 
L 970.610625 1327.351875 
Q 977.810625 1327.351875 977.810625 1320.151875 
L 977.810625 961.108125 
Q 977.810625 953.908125 970.610625 953.908125 
L 45.163125 953.908125 
Q 37.963125 953.908125 37.963125 961.108125 
L 37.963125 1320.151875 
Q 37.963125 1327.351875 45.163125 1327.351875 
z
" style="fill: #ffffff; opacity: 0.8; stroke: #cccccc; stroke-linejoin: miter"/>
    </g>
    <g id="line2d_8">
     <path d="M 52.363125 981.9375 
L 88.363125 981.9375 
L 124.363125 981.9375 
" style="fill: none; stroke: #fde725; stroke-width: 5; stroke-linecap: round"/>
    </g>
    <g id="text_16">
     <text style="fill: #262626; font: 36px 'sans-serif'; text-anchor: start" x="153.163125" y="994.5375" transform="rotate(-0 153.163125 994.5375)">All variables (ROC AUC = 0.84)</text>
    </g>
    <g id="line2d_9">
     <path d="M 52.363125 1033.74375 
L 88.363125 1033.74375 
L 124.363125 1033.74375 
" style="fill: none; stroke: #a5db36; stroke-width: 5; stroke-linecap: round"/>
    </g>
    <g id="text_17">
     <text style="fill: #262626; font: 36px 'sans-serif'; text-anchor: start" x="153.163125" y="1046.34375" transform="rotate(-0 153.163125 1046.34375)">NAD(P)H variables + Cell Size (ROC AUC = 0.81)</text>
    </g>
    <g id="line2d_10">
     <path d="M 52.363125 1085.55 
L 88.363125 1085.55 
L 124.363125 1085.55 
" style="fill: none; stroke: #4ac16d; stroke-width: 5; stroke-linecap: round"/>
    </g>
    <g id="text_18">
     <text style="fill: #262626; font: 36px 'sans-serif'; text-anchor: start" x="153.163125" y="1098.15" transform="rotate(-0 153.163125 1098.15)">Top four variables (ROC AUC) = 0.83)</text>
    </g>
    <g id="line2d_11">
     <path d="M 52.363125 1137.35625 
L 88.363125 1137.35625 
L 124.363125 1137.35625 
" style="fill: none; stroke: #1f988b; stroke-width: 5; stroke-linecap: round"/>
    </g>
    <g id="text_19">
     <text style="fill: #262626; font: 36px 'sans-serif'; text-anchor: start" x="153.163125" y="1149.95625" transform="rotate(-0 153.163125 1149.95625)">Top three variables (ROC AUC) = 0.83)</text>
    </g>
    <g id="line2d_12">
     <path d="M 52.363125 1189.1625 
L 88.363125 1189.1625 
L 124.363125 1189.1625 
" style="fill: none; stroke: #2a788e; stroke-width: 5; stroke-linecap: round"/>
    </g>
    <g id="text_20">
     <text style="fill: #262626; font: 36px 'sans-serif'; text-anchor: start" x="153.163125" y="1201.7625" transform="rotate(-0 153.163125 1201.7625)">Top two variables (ROC AUC) = 0.79)</text>
    </g>
    <g id="line2d_13">
     <path d="M 52.363125 1240.96875 
L 88.363125 1240.96875 
L 124.363125 1240.96875 
" style="fill: none; stroke: #414487; stroke-width: 5; stroke-linecap: round"/>
    </g>
    <g id="text_21">
     <text style="fill: #262626; font: 36px 'sans-serif'; text-anchor: start" x="153.163125" y="1253.56875" transform="rotate(-0 153.163125 1253.56875)">Top variable (ROC AUC) = 0.72)</text>
    </g>
    <g id="line2d_14">
     <path d="M 52.363125 1292.775 
L 88.363125 1292.775 
L 124.363125 1292.775 
" style="fill: none; stroke: #440154; stroke-width: 5; stroke-linecap: round"/>
    </g>
    <g id="text_22">
     <text style="fill: #262626; font: 36px 'sans-serif'; text-anchor: start" x="153.163125" y="1305.375" transform="rotate(-0 153.163125 1305.375)">Norm. Redox Ratio + Cell Size (ROC AUC) = 0.69)</text>
    </g>
   </g>
  </g>
 </g>
 <defs>
  <clipPath id="p94c48b3b85">
   <rect x="103.663125" y="38.968125" width="837" height="815.4"/>
  </clipPath>
 </defs>
</svg>
