<?xml version="1.0" encoding="utf-8" standalone="no"?>
<!DOCTYPE svg PUBLIC "-//W3C//DTD SVG 1.1//EN"
  "http://www.w3.org/Graphics/SVG/1.1/DTD/svg11.dtd">
<svg xmlns:xlink="http://www.w3.org/1999/xlink" width="972.883125pt" height="1108.442812pt" viewBox="0 0 972.883125 1108.442812" xmlns="http://www.w3.org/2000/svg" version="1.1">
 <metadata>
  <rdf:RDF xmlns:dc="http://purl.org/dc/elements/1.1/" xmlns:cc="http://creativecommons.org/ns#" xmlns:rdf="http://www.w3.org/1999/02/22-rdf-syntax-ns#">
   <cc:Work>
    <dc:type rdf:resource="http://purl.org/dc/dcmitype/StillImage"/>
    <dc:date>2022-09-21T14:25:16.353644</dc:date>
    <dc:format>image/svg+xml</dc:format>
    <dc:creator>
     <cc:Agent>
      <dc:title>Matplotlib v3.5.1, https://matplotlib.org/</dc:title>
     </cc:Agent>
    </dc:creator>
   </cc:Work>
  </rdf:RDF>
 </metadata>
 <defs>
  <style type="text/css">*{stroke-linejoin: round; stroke-linecap: butt}</style>
 </defs>
 <g id="figure_1">
  <g id="patch_1">
   <path d="M 0 1108.442812 
L 972.883125 1108.442812 
L 972.883125 0 
L 0 0 
z
" style="fill: #ffffff"/>
  </g>
  <g id="axes_1">
   <g id="patch_2">
    <path d="M 103.663125 835.484062 
L 940.663125 835.484062 
L 940.663125 20.084062 
L 103.663125 20.084062 
z
" style="fill: #ffffff"/>
   </g>
   <g id="matplotlib.axis_1">
    <g id="xtick_1">
     <g id="text_1">
      <text style="fill: #262626; font: 36px 'sans-serif'; text-anchor: middle" x="103.663125" y="870.752187" transform="rotate(-0, 103.663125, 870.752187)">0.0</text>
     </g>
    </g>
    <g id="xtick_2">
     <g id="text_2">
      <text style="fill: #262626; font: 36px 'sans-serif'; text-anchor: middle" x="271.063125" y="870.752187" transform="rotate(-0, 271.063125, 870.752187)">0.2</text>
     </g>
    </g>
    <g id="xtick_3">
     <g id="text_3">
      <text style="fill: #262626; font: 36px 'sans-serif'; text-anchor: middle" x="438.463125" y="870.752187" transform="rotate(-0, 438.463125, 870.752187)">0.4</text>
     </g>
    </g>
    <g id="xtick_4">
     <g id="text_4">
      <text style="fill: #262626; font: 36px 'sans-serif'; text-anchor: middle" x="605.863125" y="870.752187" transform="rotate(-0, 605.863125, 870.752187)">0.6</text>
     </g>
    </g>
    <g id="xtick_5">
     <g id="text_5">
      <text style="fill: #262626; font: 36px 'sans-serif'; text-anchor: middle" x="773.263125" y="870.752187" transform="rotate(-0, 773.263125, 870.752187)">0.8</text>
     </g>
    </g>
    <g id="xtick_6">
     <g id="text_6">
      <text style="fill: #262626; font: 36px 'sans-serif'; text-anchor: middle" x="940.663125" y="870.752187" transform="rotate(-0, 940.663125, 870.752187)">1.0</text>
     </g>
    </g>
    <g id="text_7">
     <text style="fill: #262626; font: 36px 'sans-serif'; text-anchor: middle" x="522.163125" y="907.675312" transform="rotate(-0, 522.163125, 907.675312)">False Positive Rate</text>
    </g>
   </g>
   <g id="matplotlib.axis_2">
    <g id="ytick_1">
     <g id="text_8">
      <text style="fill: #262626; font: 36px 'sans-serif'; text-anchor: end" x="94.163125" y="848.368125" transform="rotate(-0, 94.163125, 848.368125)">0.0</text>
     </g>
    </g>
    <g id="ytick_2">
     <g id="text_9">
      <text style="fill: #262626; font: 36px 'sans-serif'; text-anchor: end" x="94.163125" y="685.288125" transform="rotate(-0, 94.163125, 685.288125)">0.2</text>
     </g>
    </g>
    <g id="ytick_3">
     <g id="text_10">
      <text style="fill: #262626; font: 36px 'sans-serif'; text-anchor: end" x="94.163125" y="522.208125" transform="rotate(-0, 94.163125, 522.208125)">0.4</text>
     </g>
    </g>
    <g id="ytick_4">
     <g id="text_11">
      <text style="fill: #262626; font: 36px 'sans-serif'; text-anchor: end" x="94.163125" y="359.128125" transform="rotate(-0, 94.163125, 359.128125)">0.6</text>
     </g>
    </g>
    <g id="ytick_5">
     <g id="text_12">
      <text style="fill: #262626; font: 36px 'sans-serif'; text-anchor: end" x="94.163125" y="196.048125" transform="rotate(-0, 94.163125, 196.048125)">0.8</text>
     </g>
    </g>
    <g id="ytick_6">
     <g id="text_13">
      <text style="fill: #262626; font: 36px 'sans-serif'; text-anchor: end" x="94.163125" y="32.968125" transform="rotate(-0, 94.163125, 32.968125)">1.0</text>
     </g>
    </g>
    <g id="text_14">
     <text style="fill: #262626; font: 36px 'sans-serif'; text-anchor: middle" x="32.968125" y="427.784062" transform="rotate(-90, 32.968125, 427.784062)">True Positive Rate</text>
    </g>
   </g>
   <g id="line2d_1">
    <path d="M 103.663125 835.484062 
L 103.663125 667.936117 
L 103.663125 603.963265 
L 103.663125 538.974972 
L 103.663125 499.37273 
L 103.663125 461.801373 
L 103.663125 433.368994 
L 103.663125 412.04471 
L 103.663125 394.782195 
L 103.663125 378.535121 
L 103.663125 365.334374 
L 103.663125 340.963764 
L 103.663125 327.763016 
L 103.663125 315.577711 
L 103.663125 300.34608 
L 104.214145 295.268869 
L 104.214145 281.05268 
L 104.214145 272.929143 
L 104.214145 258.712954 
L 104.765166 250.589417 
L 106.418227 241.450439 
L 106.969247 238.404112 
L 107.520268 232.31146 
L 109.173329 220.126155 
L 109.173329 210.987176 
L 109.173329 205.909965 
L 110.27537 201.848197 
L 111.928431 193.72466 
L 112.479452 190.678334 
L 112.479452 180.523913 
L 113.030472 174.431261 
L 114.132513 171.384934 
L 114.132513 169.35405 
L 114.683533 166.307724 
L 116.887615 166.307724 
L 117.438635 166.307724 
L 117.989656 161.230513 
L 118.540676 157.168745 
L 118.540676 153.106977 
L 119.642717 148.029766 
L 121.846798 142.952556 
L 124.05088 140.921671 
L 125.703941 137.875345 
L 127.357003 135.844461 
L 129.010064 131.782693 
L 129.561084 128.736366 
L 130.663125 127.720924 
L 136.173329 125.69004 
L 138.377411 122.643714 
L 139.479452 120.61283 
L 140.030472 115.535619 
L 141.683533 113.504735 
L 142.785574 112.489293 
L 143.887615 110.458409 
L 146.642717 108.427525 
L 147.744758 103.350314 
L 149.397819 103.350314 
L 150.49986 98.273104 
L 152.152921 92.180451 
L 153.805982 91.165009 
L 157.112105 88.118683 
L 158.214145 84.056914 
L 158.765166 82.02603 
L 160.418227 79.995146 
L 163.173329 79.995146 
L 164.82639 78.979704 
L 170.887615 76.94882 
L 173.091696 75.933378 
L 178.601901 71.871609 
L 183.561084 70.856167 
L 187.418227 66.794399 
L 190.724349 61.717188 
L 194.581492 60.701746 
L 198.438635 58.670862 
L 205.05088 55.624536 
L 210.561084 51.562767 
L 217.173329 50.547325 
L 224.887615 49.531883 
L 233.703941 49.531883 
L 242.520268 48.516441 
L 249.683533 47.500999 
L 254.091696 46.485557 
L 260.703941 45.470115 
L 271.173329 44.454673 
L 282.744758 43.439231 
L 293.765166 41.408346 
L 306.989656 38.36202 
L 323.520268 34.300252 
L 340.601901 30.238483 
L 359.887615 30.238483 
L 391.295778 28.207599 
L 421.601901 26.176715 
L 472.846798 25.161273 
L 522.989656 24.145831 
L 597.377411 24.145831 
L 704.82639 23.130389 
L 940.663125 20.084062 
" clip-path="url(#pb59394c0e0)" style="fill: none; stroke: #fde725; stroke-width: 7; stroke-linecap: round"/>
   </g>
   <g id="line2d_2">
    <path d="M 103.663125 835.484062 
L 103.663125 832.437736 
L 104.214145 832.437736 
L 104.214145 820.252431 
L 104.765166 820.252431 
L 104.765166 810.09801 
L 105.316186 810.09801 
L 105.316186 808.067126 
L 105.867207 808.067126 
L 105.867207 805.0208 
L 106.418227 805.0208 
L 106.418227 793.850937 
L 106.969247 793.850937 
L 106.969247 787.758284 
L 107.520268 787.758284 
L 107.520268 783.696516 
L 108.071288 783.696516 
L 108.071288 779.634747 
L 108.622309 779.634747 
L 108.622309 770.495769 
L 109.173329 770.495769 
L 109.173329 764.403116 
L 109.724349 764.403116 
L 109.724349 760.341348 
L 110.27537 760.341348 
L 110.27537 752.217811 
L 110.82639 752.217811 
L 110.82639 746.125158 
L 111.377411 746.125158 
L 111.377411 723.785432 
L 111.928431 723.785432 
L 111.928431 715.661896 
L 112.479452 715.661896 
L 112.479452 699.414822 
L 113.030472 699.414822 
L 113.030472 644.580949 
L 113.581492 644.580949 
L 113.581492 636.457412 
L 114.132513 636.457412 
L 114.132513 635.44197 
L 114.683533 635.44197 
L 114.683533 624.272107 
L 115.234554 624.272107 
L 115.234554 618.179455 
L 115.785574 618.179455 
L 115.785574 615.133129 
L 116.336594 615.133129 
L 116.336594 612.086802 
L 116.887615 612.086802 
L 116.887615 572.484561 
L 117.438635 572.484561 
L 117.438635 546.083066 
L 117.989656 546.083066 
L 117.989656 544.052182 
L 118.540676 544.052182 
L 118.540676 539.990414 
L 119.091696 539.990414 
L 119.091696 535.928645 
L 119.642717 535.928645 
L 119.642717 499.37273 
L 120.193737 499.37273 
L 120.193737 489.218309 
L 121.295778 489.218309 
L 121.295778 486.171983 
L 121.846798 486.171983 
L 121.846798 482.110214 
L 122.397819 482.110214 
L 122.397819 475.00212 
L 122.948839 475.00212 
L 122.948839 446.569741 
L 123.49986 446.569741 
L 123.49986 443.523415 
L 124.05088 443.523415 
L 124.05088 435.399878 
L 124.601901 435.399878 
L 124.601901 421.183689 
L 125.152921 421.183689 
L 125.152921 417.121921 
L 126.254962 417.121921 
L 126.254962 416.106478 
L 126.805982 416.106478 
L 126.805982 415.091036 
L 127.357003 415.091036 
L 127.357003 413.060152 
L 127.908023 413.060152 
L 127.908023 412.04471 
L 128.459043 412.04471 
L 128.459043 408.998384 
L 129.010064 408.998384 
L 129.010064 407.982942 
L 129.561084 407.982942 
L 129.561084 398.843963 
L 130.112105 398.843963 
L 130.112105 389.704984 
L 131.214145 389.704984 
L 131.214145 340.963764 
L 132.316186 340.963764 
L 132.316186 337.917437 
L 132.867207 337.917437 
L 132.867207 336.901995 
L 133.969247 336.901995 
L 133.969247 323.701248 
L 134.520268 323.701248 
L 134.520268 319.63948 
L 136.173329 319.63948 
L 136.173329 314.562269 
L 136.724349 314.562269 
L 136.724349 305.42329 
L 137.27537 305.42329 
L 137.27537 303.392406 
L 137.82639 303.392406 
L 137.82639 284.099006 
L 138.377411 284.099006 
L 138.377411 280.037238 
L 138.928431 280.037238 
L 138.928431 279.021796 
L 139.479452 279.021796 
L 139.479452 276.990912 
L 140.030472 276.990912 
L 140.030472 274.960028 
L 141.132513 274.960028 
L 141.132513 271.913701 
L 141.683533 271.913701 
L 141.683533 269.882817 
L 142.234554 269.882817 
L 142.234554 260.743838 
L 142.785574 260.743838 
L 142.785574 259.728396 
L 143.336594 259.728396 
L 143.336594 254.651186 
L 143.887615 254.651186 
L 143.887615 246.527649 
L 144.989656 246.527649 
L 144.989656 244.496765 
L 145.540676 244.496765 
L 145.540676 242.465881 
L 146.642717 242.465881 
L 146.642717 239.419554 
L 147.744758 239.419554 
L 147.744758 238.404112 
L 148.295778 238.404112 
L 148.295778 237.38867 
L 148.846798 237.38867 
L 148.846798 236.373228 
L 149.948839 236.373228 
L 149.948839 235.357786 
L 150.49986 235.357786 
L 150.49986 228.249691 
L 151.05088 228.249691 
L 151.05088 227.234249 
L 151.601901 227.234249 
L 151.601901 223.172481 
L 152.152921 223.172481 
L 152.152921 222.157039 
L 153.805982 222.157039 
L 153.805982 217.079828 
L 155.459043 217.079828 
L 155.459043 209.971734 
L 156.010064 209.971734 
L 156.010064 204.894523 
L 158.214145 204.894523 
L 158.214145 201.848197 
L 158.765166 201.848197 
L 158.765166 198.801871 
L 159.316186 198.801871 
L 159.316186 194.740102 
L 159.867207 194.740102 
L 159.867207 193.72466 
L 160.418227 193.72466 
L 160.418227 192.709218 
L 162.071288 192.709218 
L 162.071288 190.678334 
L 162.622309 190.678334 
L 162.622309 189.662892 
L 163.173329 189.662892 
L 163.173329 188.64745 
L 164.82639 188.64745 
L 164.82639 187.632008 
L 167.030472 187.632008 
L 167.030472 186.616566 
L 169.785574 186.616566 
L 169.785574 184.585681 
L 170.336594 184.585681 
L 170.336594 182.554797 
L 170.887615 182.554797 
L 170.887615 181.539355 
L 171.438635 181.539355 
L 171.438635 179.508471 
L 173.091696 179.508471 
L 173.091696 178.493029 
L 173.642717 178.493029 
L 173.642717 177.477587 
L 174.193737 177.477587 
L 174.193737 176.462145 
L 175.846798 176.462145 
L 175.846798 175.446703 
L 179.703941 175.446703 
L 179.703941 174.431261 
L 181.357003 174.431261 
L 181.357003 171.384934 
L 184.112105 171.384934 
L 184.112105 170.369492 
L 185.214145 170.369492 
L 185.214145 169.35405 
L 186.867207 169.35405 
L 186.867207 167.323166 
L 187.418227 167.323166 
L 187.418227 164.27684 
L 189.071288 164.27684 
L 189.071288 163.261397 
L 191.27537 163.261397 
L 191.27537 162.245955 
L 194.030472 162.245955 
L 194.030472 161.230513 
L 194.581492 161.230513 
L 194.581492 160.215071 
L 196.234554 160.215071 
L 196.234554 159.199629 
L 197.887615 159.199629 
L 197.887615 156.153303 
L 199.540676 156.153303 
L 199.540676 153.106977 
L 208.908023 153.106977 
L 208.908023 152.091534 
L 209.459043 152.091534 
L 209.459043 151.076092 
L 214.969247 151.076092 
L 214.969247 150.06065 
L 216.071288 150.06065 
L 216.071288 149.045208 
L 218.82639 149.045208 
L 218.82639 148.029766 
L 223.785574 148.029766 
L 223.785574 147.014324 
L 224.336594 147.014324 
L 224.336594 145.998882 
L 224.887615 145.998882 
L 224.887615 144.98344 
L 225.438635 144.98344 
L 225.438635 143.967998 
L 227.091696 143.967998 
L 227.091696 142.952556 
L 230.948839 142.952556 
L 230.948839 141.937114 
L 232.601901 141.937114 
L 232.601901 140.921671 
L 235.357003 140.921671 
L 235.357003 138.890787 
L 239.214145 138.890787 
L 239.214145 137.875345 
L 243.622309 137.875345 
L 243.622309 135.844461 
L 253.540676 135.844461 
L 253.540676 133.813577 
L 257.948839 133.813577 
L 257.948839 132.798135 
L 258.49986 132.798135 
L 258.49986 131.782693 
L 259.05088 131.782693 
L 259.05088 130.767251 
L 259.601901 130.767251 
L 259.601901 129.751808 
L 261.805982 129.751808 
L 261.805982 128.736366 
L 262.357003 128.736366 
L 262.357003 126.705482 
L 263.459043 126.705482 
L 263.459043 125.69004 
L 265.112105 125.69004 
L 265.112105 124.674598 
L 266.765166 124.674598 
L 266.765166 123.659156 
L 276.683533 123.659156 
L 276.683533 121.628272 
L 278.336594 121.628272 
L 278.336594 119.597388 
L 280.540676 119.597388 
L 280.540676 118.581945 
L 285.49986 118.581945 
L 285.49986 117.566503 
L 289.908023 117.566503 
L 289.908023 116.551061 
L 297.071288 116.551061 
L 297.071288 115.535619 
L 298.724349 115.535619 
L 298.724349 114.520177 
L 301.479452 114.520177 
L 301.479452 113.504735 
L 313.05088 113.504735 
L 313.05088 112.489293 
L 314.152921 112.489293 
L 314.152921 111.473851 
L 315.805982 111.473851 
L 315.805982 110.458409 
L 318.010064 110.458409 
L 318.010064 108.427525 
L 319.663125 108.427525 
L 319.663125 107.412082 
L 336.744758 107.412082 
L 336.744758 106.39664 
L 351.071288 106.39664 
L 351.071288 105.381198 
L 353.82639 105.381198 
L 353.82639 104.365756 
L 358.234554 104.365756 
L 358.234554 103.350314 
L 363.744758 103.350314 
L 363.744758 102.334872 
L 367.05088 102.334872 
L 367.05088 101.31943 
L 379.724349 101.31943 
L 379.724349 100.303988 
L 381.928431 100.303988 
L 381.928431 99.288546 
L 384.683533 99.288546 
L 384.683533 98.273104 
L 390.193737 98.273104 
L 390.193737 96.242219 
L 395.703941 96.242219 
L 395.703941 95.226777 
L 408.928431 95.226777 
L 408.928431 94.211335 
L 410.030472 94.211335 
L 410.030472 92.180451 
L 412.785574 92.180451 
L 412.785574 91.165009 
L 427.663125 91.165009 
L 427.663125 89.134125 
L 429.316186 89.134125 
L 429.316186 88.118683 
L 437.581492 88.118683 
L 437.581492 87.103241 
L 446.397819 87.103241 
L 446.397819 85.072356 
L 466.234554 85.072356 
L 466.234554 84.056914 
L 486.071288 84.056914 
L 486.071288 82.02603 
L 507.010064 82.02603 
L 507.010064 81.010588 
L 510.867207 81.010588 
L 510.867207 79.995146 
L 541.173329 79.995146 
L 541.173329 78.979704 
L 541.724349 78.979704 
L 541.724349 77.964262 
L 542.82639 77.964262 
L 542.82639 76.94882 
L 551.642717 76.94882 
L 551.642717 75.933378 
L 557.703941 75.933378 
L 557.703941 74.917935 
L 558.805982 74.917935 
L 558.805982 73.902493 
L 559.357003 73.902493 
L 559.357003 72.887051 
L 569.27537 72.887051 
L 569.27537 71.871609 
L 572.581492 71.871609 
L 572.581492 70.856167 
L 575.887615 70.856167 
L 575.887615 68.825283 
L 590.765166 68.825283 
L 590.765166 67.809841 
L 594.071288 67.809841 
L 594.071288 66.794399 
L 599.581492 66.794399 
L 599.581492 65.778957 
L 603.989656 65.778957 
L 603.989656 64.763515 
L 627.683533 64.763515 
L 627.683533 62.73263 
L 634.295778 62.73263 
L 634.295778 61.717188 
L 636.49986 61.717188 
L 636.49986 60.701746 
L 662.948839 60.701746 
L 662.948839 59.686304 
L 668.459043 59.686304 
L 668.459043 58.670862 
L 677.27537 58.670862 
L 677.27537 57.65542 
L 684.438635 57.65542 
L 684.438635 56.639978 
L 687.193737 56.639978 
L 687.193737 55.624536 
L 691.05088 55.624536 
L 691.05088 53.593652 
L 705.928431 53.593652 
L 705.928431 52.578209 
L 706.479452 52.578209 
L 706.479452 51.562767 
L 708.132513 51.562767 
L 708.132513 50.547325 
L 709.234554 50.547325 
L 709.234554 49.531883 
L 710.887615 49.531883 
L 710.887615 48.516441 
L 713.642717 48.516441 
L 713.642717 46.485557 
L 714.744758 46.485557 
L 714.744758 45.470115 
L 719.152921 45.470115 
L 719.152921 44.454673 
L 724.112105 44.454673 
L 724.112105 42.423789 
L 726.316186 42.423789 
L 726.316186 41.408346 
L 737.336594 41.408346 
L 737.336594 40.392904 
L 743.397819 40.392904 
L 743.397819 39.377462 
L 755.520268 39.377462 
L 755.520268 38.36202 
L 758.82639 38.36202 
L 758.82639 36.331136 
L 768.744758 36.331136 
L 768.744758 35.315694 
L 780.867207 35.315694 
L 780.867207 34.300252 
L 782.520268 34.300252 
L 782.520268 33.28481 
L 783.622309 33.28481 
L 783.622309 32.269368 
L 788.030472 32.269368 
L 788.030472 31.253926 
L 791.887615 31.253926 
L 791.887615 30.238483 
L 793.540676 30.238483 
L 793.540676 29.223041 
L 799.05088 29.223041 
L 799.05088 28.207599 
L 801.805982 28.207599 
L 801.805982 27.192157 
L 805.112105 27.192157 
L 805.112105 26.176715 
L 819.438635 26.176715 
L 819.438635 25.161273 
L 837.622309 25.161273 
L 837.622309 24.145831 
L 840.377411 24.145831 
L 840.377411 23.130389 
L 903.744758 23.130389 
L 903.744758 22.114947 
L 929.642717 22.114947 
L 929.642717 21.099505 
L 933.49986 21.099505 
L 933.49986 20.084062 
L 940.663125 20.084062 
L 940.663125 20.084062 
" clip-path="url(#pb59394c0e0)" style="fill: none; stroke: #1f988b; stroke-width: 7; stroke-linecap: round"/>
   </g>
   <g id="line2d_3">
    <path d="M 103.663125 835.484062 
L 103.663125 798.928147 
L 104.214145 798.928147 
L 104.214145 775.572979 
L 104.765166 775.572979 
L 104.765166 760.341348 
L 105.316186 760.341348 
L 105.316186 730.893527 
L 105.867207 730.893527 
L 105.867207 727.847201 
L 106.418227 727.847201 
L 106.418227 720.739106 
L 106.969247 720.739106 
L 106.969247 715.661896 
L 107.520268 715.661896 
L 107.520268 697.383938 
L 108.071288 697.383938 
L 108.071288 676.059654 
L 108.622309 676.059654 
L 108.622309 656.766254 
L 109.173329 656.766254 
L 109.173329 653.719928 
L 109.724349 653.719928 
L 109.724349 650.673602 
L 110.27537 650.673602 
L 110.27537 633.411086 
L 110.82639 633.411086 
L 110.82639 627.318434 
L 111.377411 627.318434 
L 111.377411 625.287549 
L 111.928431 625.287549 
L 111.928431 613.102244 
L 112.479452 613.102244 
L 112.479452 612.086802 
L 113.030472 612.086802 
L 113.030472 609.040476 
L 113.581492 609.040476 
L 113.581492 595.839729 
L 114.132513 595.839729 
L 114.132513 585.685308 
L 114.683533 585.685308 
L 114.683533 579.592655 
L 115.234554 579.592655 
L 115.234554 569.438234 
L 115.785574 569.438234 
L 115.785574 562.33014 
L 116.336594 562.33014 
L 116.336594 546.083066 
L 116.887615 546.083066 
L 116.887615 515.619803 
L 117.438635 515.619803 
L 117.438635 511.558035 
L 117.989656 511.558035 
L 117.989656 507.496267 
L 118.540676 507.496267 
L 118.540676 504.44994 
L 119.091696 504.44994 
L 119.091696 502.419056 
L 119.642717 502.419056 
L 119.642717 496.326404 
L 120.193737 496.326404 
L 120.193737 495.310962 
L 120.744758 495.310962 
L 120.744758 483.125657 
L 121.295778 483.125657 
L 121.295778 480.07933 
L 121.846798 480.07933 
L 121.846798 473.986678 
L 122.397819 473.986678 
L 122.397819 469.924909 
L 122.948839 469.924909 
L 122.948839 468.909467 
L 123.49986 468.909467 
L 123.49986 467.894025 
L 124.05088 467.894025 
L 124.05088 447.585183 
L 124.601901 447.585183 
L 124.601901 434.384436 
L 125.152921 434.384436 
L 125.152921 432.353552 
L 125.703941 432.353552 
L 125.703941 422.199131 
L 126.254962 422.199131 
L 126.254962 405.952058 
L 126.805982 405.952058 
L 126.805982 402.905731 
L 127.357003 402.905731 
L 127.357003 398.843963 
L 127.908023 398.843963 
L 127.908023 396.813079 
L 128.459043 396.813079 
L 128.459043 392.75131 
L 129.010064 392.75131 
L 129.010064 388.689542 
L 129.561084 388.689542 
L 129.561084 379.550563 
L 130.112105 379.550563 
L 130.112105 372.442468 
L 130.663125 372.442468 
L 130.663125 367.365258 
L 131.765166 367.365258 
L 131.765166 356.195395 
L 132.316186 356.195395 
L 132.316186 350.102742 
L 132.867207 350.102742 
L 132.867207 348.071858 
L 133.418227 348.071858 
L 133.418227 345.025532 
L 134.520268 345.025532 
L 134.520268 342.994648 
L 135.071288 342.994648 
L 135.071288 341.979206 
L 135.622309 341.979206 
L 135.622309 336.901995 
L 136.724349 336.901995 
L 136.724349 332.840227 
L 137.82639 332.840227 
L 137.82639 331.824785 
L 138.377411 331.824785 
L 138.377411 324.71669 
L 140.030472 324.71669 
L 140.030472 323.701248 
L 140.581492 323.701248 
L 140.581492 318.624038 
L 141.132513 318.624038 
L 141.132513 317.608596 
L 142.785574 317.608596 
L 142.785574 311.515943 
L 143.336594 311.515943 
L 143.336594 306.438732 
L 143.887615 306.438732 
L 143.887615 304.407848 
L 144.989656 304.407848 
L 144.989656 301.361522 
L 146.091696 301.361522 
L 146.091696 298.315196 
L 147.193737 298.315196 
L 147.193737 295.268869 
L 147.744758 295.268869 
L 147.744758 290.191659 
L 149.397819 290.191659 
L 149.397819 284.099006 
L 149.948839 284.099006 
L 149.948839 282.068122 
L 150.49986 282.068122 
L 150.49986 279.021796 
L 151.05088 279.021796 
L 151.05088 278.006354 
L 152.152921 278.006354 
L 152.152921 264.805607 
L 152.703941 264.805607 
L 152.703941 263.790165 
L 153.254962 263.790165 
L 153.254962 261.75928 
L 153.805982 261.75928 
L 153.805982 259.728396 
L 154.357003 259.728396 
L 154.357003 251.60486 
L 154.908023 251.60486 
L 154.908023 250.589417 
L 156.010064 250.589417 
L 156.010064 247.543091 
L 156.561084 247.543091 
L 156.561084 244.496765 
L 157.663125 244.496765 
L 157.663125 234.342344 
L 158.214145 234.342344 
L 158.214145 233.326902 
L 159.316186 233.326902 
L 159.316186 228.249691 
L 160.969247 228.249691 
L 160.969247 219.110713 
L 162.622309 219.110713 
L 162.622309 218.09527 
L 163.724349 218.09527 
L 163.724349 214.033502 
L 164.82639 214.033502 
L 164.82639 210.987176 
L 165.928431 210.987176 
L 165.928431 209.971734 
L 166.479452 209.971734 
L 166.479452 203.879081 
L 167.030472 203.879081 
L 167.030472 202.863639 
L 167.581492 202.863639 
L 167.581492 200.832755 
L 168.132513 200.832755 
L 168.132513 198.801871 
L 169.234554 198.801871 
L 169.234554 197.786429 
L 169.785574 197.786429 
L 169.785574 195.755544 
L 170.336594 195.755544 
L 170.336594 191.693776 
L 171.438635 191.693776 
L 171.438635 187.632008 
L 171.989656 187.632008 
L 171.989656 185.601124 
L 172.540676 185.601124 
L 172.540676 183.570239 
L 173.642717 183.570239 
L 173.642717 182.554797 
L 175.846798 182.554797 
L 175.846798 180.523913 
L 176.397819 180.523913 
L 176.397819 179.508471 
L 179.703941 179.508471 
L 179.703941 178.493029 
L 180.254962 178.493029 
L 180.254962 177.477587 
L 181.357003 177.477587 
L 181.357003 176.462145 
L 181.908023 176.462145 
L 181.908023 173.415818 
L 182.459043 173.415818 
L 182.459043 172.400376 
L 183.561084 172.400376 
L 183.561084 171.384934 
L 184.112105 171.384934 
L 184.112105 170.369492 
L 184.663125 170.369492 
L 184.663125 169.35405 
L 185.214145 169.35405 
L 185.214145 168.338608 
L 186.316186 168.338608 
L 186.316186 167.323166 
L 187.418227 167.323166 
L 187.418227 165.292282 
L 190.724349 165.292282 
L 190.724349 164.27684 
L 191.27537 164.27684 
L 191.27537 163.261397 
L 191.82639 163.261397 
L 191.82639 162.245955 
L 194.030472 162.245955 
L 194.030472 158.184187 
L 200.642717 158.184187 
L 200.642717 157.168745 
L 202.295778 157.168745 
L 202.295778 156.153303 
L 202.846798 156.153303 
L 202.846798 154.122419 
L 204.49986 154.122419 
L 204.49986 151.076092 
L 205.05088 151.076092 
L 205.05088 150.06065 
L 207.805982 150.06065 
L 207.805982 149.045208 
L 210.010064 149.045208 
L 210.010064 147.014324 
L 210.561084 147.014324 
L 210.561084 144.98344 
L 211.112105 144.98344 
L 211.112105 143.967998 
L 212.765166 143.967998 
L 212.765166 140.921671 
L 213.316186 140.921671 
L 213.316186 139.906229 
L 215.520268 139.906229 
L 215.520268 137.875345 
L 217.724349 137.875345 
L 217.724349 136.859903 
L 219.928431 136.859903 
L 219.928431 135.844461 
L 221.030472 135.844461 
L 221.030472 134.829019 
L 222.132513 134.829019 
L 222.132513 132.798135 
L 227.642717 132.798135 
L 227.642717 131.782693 
L 228.744758 131.782693 
L 228.744758 128.736366 
L 229.846798 128.736366 
L 229.846798 127.720924 
L 230.948839 127.720924 
L 230.948839 126.705482 
L 232.05088 126.705482 
L 232.05088 125.69004 
L 232.601901 125.69004 
L 232.601901 123.659156 
L 235.357003 123.659156 
L 235.357003 122.643714 
L 236.459043 122.643714 
L 236.459043 121.628272 
L 237.561084 121.628272 
L 237.561084 120.61283 
L 239.214145 120.61283 
L 239.214145 119.597388 
L 240.867207 119.597388 
L 240.867207 118.581945 
L 245.82639 118.581945 
L 245.82639 114.520177 
L 246.377411 114.520177 
L 246.377411 113.504735 
L 248.581492 113.504735 
L 248.581492 112.489293 
L 252.438635 112.489293 
L 252.438635 109.442967 
L 258.49986 109.442967 
L 258.49986 108.427525 
L 266.214145 108.427525 
L 266.214145 107.412082 
L 267.316186 107.412082 
L 267.316186 106.39664 
L 268.418227 106.39664 
L 268.418227 105.381198 
L 275.030472 105.381198 
L 275.030472 104.365756 
L 278.887615 104.365756 
L 278.887615 101.31943 
L 285.49986 101.31943 
L 285.49986 99.288546 
L 297.071288 99.288546 
L 297.071288 98.273104 
L 308.642717 98.273104 
L 308.642717 96.242219 
L 313.05088 96.242219 
L 313.05088 95.226777 
L 315.254962 95.226777 
L 315.254962 92.180451 
L 324.071288 92.180451 
L 324.071288 90.149567 
L 327.377411 90.149567 
L 327.377411 89.134125 
L 331.234554 89.134125 
L 331.234554 87.103241 
L 332.336594 87.103241 
L 332.336594 86.087798 
L 332.887615 86.087798 
L 332.887615 85.072356 
L 333.989656 85.072356 
L 333.989656 84.056914 
L 336.193737 84.056914 
L 336.193737 83.041472 
L 347.214145 83.041472 
L 347.214145 82.02603 
L 360.989656 82.02603 
L 360.989656 81.010588 
L 370.908023 81.010588 
L 370.908023 79.995146 
L 375.867207 79.995146 
L 375.867207 78.979704 
L 376.418227 78.979704 
L 376.418227 77.964262 
L 378.071288 77.964262 
L 378.071288 76.94882 
L 381.928431 76.94882 
L 381.928431 75.933378 
L 383.581492 75.933378 
L 383.581492 74.917935 
L 388.540676 74.917935 
L 388.540676 73.902493 
L 400.663125 73.902493 
L 400.663125 72.887051 
L 409.479452 72.887051 
L 409.479452 71.871609 
L 412.234554 71.871609 
L 412.234554 70.856167 
L 416.091696 70.856167 
L 416.091696 69.840725 
L 421.05088 69.840725 
L 421.05088 68.825283 
L 441.438635 68.825283 
L 441.438635 67.809841 
L 449.703941 67.809841 
L 449.703941 66.794399 
L 457.969247 66.794399 
L 457.969247 65.778957 
L 465.683533 65.778957 
L 465.683533 64.763515 
L 469.540676 64.763515 
L 469.540676 63.748072 
L 472.295778 63.748072 
L 472.295778 62.73263 
L 480.010064 62.73263 
L 480.010064 61.717188 
L 493.234554 61.717188 
L 493.234554 60.701746 
L 502.601901 60.701746 
L 502.601901 59.686304 
L 511.969247 59.686304 
L 511.969247 58.670862 
L 516.377411 58.670862 
L 516.377411 57.65542 
L 525.193737 57.65542 
L 525.193737 56.639978 
L 533.459043 56.639978 
L 533.459043 55.624536 
L 534.010064 55.624536 
L 534.010064 54.609094 
L 537.867207 54.609094 
L 537.867207 53.593652 
L 556.05088 53.593652 
L 556.05088 52.578209 
L 567.071288 52.578209 
L 567.071288 51.562767 
L 567.622309 51.562767 
L 567.622309 50.547325 
L 571.479452 50.547325 
L 571.479452 49.531883 
L 590.214145 49.531883 
L 590.214145 48.516441 
L 600.132513 48.516441 
L 600.132513 47.500999 
L 600.683533 47.500999 
L 600.683533 46.485557 
L 605.642717 46.485557 
L 605.642717 45.470115 
L 608.397819 45.470115 
L 608.397819 44.454673 
L 609.49986 44.454673 
L 609.49986 43.439231 
L 611.703941 43.439231 
L 611.703941 42.423789 
L 616.663125 42.423789 
L 616.663125 41.408346 
L 627.132513 41.408346 
L 627.132513 40.392904 
L 651.928431 40.392904 
L 651.928431 39.377462 
L 657.438635 39.377462 
L 657.438635 38.36202 
L 661.846798 38.36202 
L 661.846798 37.346578 
L 671.214145 37.346578 
L 671.214145 36.331136 
L 684.989656 36.331136 
L 684.989656 35.315694 
L 688.846798 35.315694 
L 688.846798 34.300252 
L 697.663125 34.300252 
L 697.663125 33.28481 
L 716.397819 33.28481 
L 716.397819 32.269368 
L 724.663125 32.269368 
L 724.663125 31.253926 
L 750.561084 31.253926 
L 750.561084 30.238483 
L 758.27537 30.238483 
L 758.27537 29.223041 
L 760.479452 29.223041 
L 760.479452 28.207599 
L 776.459043 28.207599 
L 776.459043 27.192157 
L 781.418227 27.192157 
L 781.418227 26.176715 
L 790.785574 26.176715 
L 790.785574 25.161273 
L 795.193737 25.161273 
L 795.193737 24.145831 
L 811.173329 24.145831 
L 811.173329 23.130389 
L 861.316186 23.130389 
L 861.316186 22.114947 
L 905.948839 22.114947 
L 905.948839 21.099505 
L 918.071288 21.099505 
L 918.071288 20.084062 
L 940.663125 20.084062 
L 940.663125 20.084062 
" clip-path="url(#pb59394c0e0)" style="fill: none; stroke: #440154; stroke-width: 7; stroke-linecap: round"/>
   </g>
   <g id="patch_3">
    <path d="M 103.663125 835.484062 
L 103.663125 20.084062 
" style="fill: none; stroke: #262626; stroke-width: 1.25; stroke-linejoin: miter; stroke-linecap: square"/>
   </g>
   <g id="patch_4">
    <path d="M 940.663125 835.484062 
L 940.663125 20.084062 
" style="fill: none; stroke: #262626; stroke-width: 1.25; stroke-linejoin: miter; stroke-linecap: square"/>
   </g>
   <g id="patch_5">
    <path d="M 103.663125 835.484062 
L 940.663125 835.484062 
" style="fill: none; stroke: #262626; stroke-width: 1.25; stroke-linejoin: miter; stroke-linecap: square"/>
   </g>
   <g id="patch_6">
    <path d="M 103.663125 20.084062 
L 940.663125 20.084062 
" style="fill: none; stroke: #262626; stroke-width: 1.25; stroke-linejoin: miter; stroke-linecap: square"/>
   </g>
   <g id="legend_1">
    <g id="patch_7">
     <path d="M 45.163125 1101.242812 
L 853.66125 1101.242812 
Q 860.86125 1101.242812 860.86125 1094.042812 
L 860.86125 942.224062 
Q 860.86125 935.024062 853.66125 935.024062 
L 45.163125 935.024062 
Q 37.963125 935.024062 37.963125 942.224062 
L 37.963125 1094.042812 
Q 37.963125 1101.242812 45.163125 1101.242812 
z
" style="fill: #ffffff; opacity: 0.8; stroke: #cccccc; stroke-linejoin: miter"/>
    </g>
    <g id="line2d_4">
     <path d="M 52.363125 963.053437 
L 88.363125 963.053437 
L 124.363125 963.053437 
" style="fill: none; stroke: #fde725; stroke-width: 7; stroke-linecap: round"/>
    </g>
    <g id="text_15">
     <text style="fill: #262626; font: 36px 'sans-serif'; text-anchor: start" x="153.163125" y="975.653437" transform="rotate(-0, 153.163125, 975.653437)">Random Forest (ROC AUC = 0.98)</text>
    </g>
    <g id="line2d_5">
     <path d="M 52.363125 1014.859687 
L 88.363125 1014.859687 
L 124.363125 1014.859687 
" style="fill: none; stroke: #1f988b; stroke-width: 7; stroke-linecap: round"/>
    </g>
    <g id="text_16">
     <text style="fill: #262626; font: 36px 'sans-serif'; text-anchor: start" x="153.163125" y="1027.459687" transform="rotate(-0, 153.163125, 1027.459687)">Logistic Regression (ROC AUC = 0.90)</text>
    </g>
    <g id="line2d_6">
     <path d="M 52.363125 1066.665937 
L 88.363125 1066.665937 
L 124.363125 1066.665937 
" style="fill: none; stroke: #440154; stroke-width: 7; stroke-linecap: round"/>
    </g>
    <g id="text_17">
     <text style="fill: #262626; font: 36px 'sans-serif'; text-anchor: start" x="153.163125" y="1079.265937" transform="rotate(-0, 153.163125, 1079.265937)">Support Vector Machine (ROC AUC = 0.92)</text>
    </g>
   </g>
  </g>
 </g>
 <defs>
  <clipPath id="pb59394c0e0">
   <rect x="103.663125" y="20.084062" width="837" height="815.4"/>
  </clipPath>
 </defs>
</svg>
