<?xml version="1.0" encoding="utf-8" standalone="no"?>
<!DOCTYPE svg PUBLIC "-//W3C//DTD SVG 1.1//EN"
  "http://www.w3.org/Graphics/SVG/1.1/DTD/svg11.dtd">
<svg xmlns:xlink="http://www.w3.org/1999/xlink" width="961.910625pt" height="1322.687812pt" viewBox="0 0 961.910625 1322.687812" xmlns="http://www.w3.org/2000/svg" version="1.1">
 <metadata>
  <rdf:RDF xmlns:dc="http://purl.org/dc/elements/1.1/" xmlns:cc="http://creativecommons.org/ns#" xmlns:rdf="http://www.w3.org/1999/02/22-rdf-syntax-ns#">
   <cc:Work>
    <dc:type rdf:resource="http://purl.org/dc/dcmitype/StillImage"/>
    <dc:date>2022-09-07T15:11:57.721419</dc:date>
    <dc:format>image/svg+xml</dc:format>
    <dc:creator>
     <cc:Agent>
      <dc:title>Matplotlib v3.5.1, https://matplotlib.org/</dc:title>
     </cc:Agent>
    </dc:creator>
   </cc:Work>
  </rdf:RDF>
 </metadata>
 <defs>
  <style type="text/css">*{stroke-linejoin: round; stroke-linecap: butt}</style>
 </defs>
 <g id="figure_1">
  <g id="patch_1">
   <path d="M 0 1322.687812 
L 961.910625 1322.687812 
L 961.910625 0 
L 0 0 
z
" style="fill: #ffffff"/>
  </g>
  <g id="axes_1">
   <g id="patch_2">
    <path d="M 102.163125 851.684062 
L 939.163125 851.684062 
L 939.163125 20.084063 
L 102.163125 20.084063 
z
" style="fill: #ffffff"/>
   </g>
   <g id="matplotlib.axis_1">
    <g id="xtick_1">
     <g id="text_1">
      <text style="font: 36px 'sans-serif'; text-anchor: middle" x="102.163125" y="885.452188" transform="rotate(-0, 102.163125, 885.452188)">0</text>
     </g>
    </g>
    <g id="xtick_2">
     <g id="text_2">
      <text style="font: 36px 'sans-serif'; text-anchor: middle" x="269.563125" y="885.452188" transform="rotate(-0, 269.563125, 885.452188)">0.2</text>
     </g>
    </g>
    <g id="xtick_3">
     <g id="text_3">
      <text style="font: 36px 'sans-serif'; text-anchor: middle" x="436.963125" y="885.452188" transform="rotate(-0, 436.963125, 885.452188)">0.4</text>
     </g>
    </g>
    <g id="xtick_4">
     <g id="text_4">
      <text style="font: 36px 'sans-serif'; text-anchor: middle" x="604.363125" y="885.452188" transform="rotate(-0, 604.363125, 885.452188)">0.6</text>
     </g>
    </g>
    <g id="xtick_5">
     <g id="text_5">
      <text style="font: 36px 'sans-serif'; text-anchor: middle" x="771.763125" y="885.452188" transform="rotate(-0, 771.763125, 885.452188)">0.8</text>
     </g>
    </g>
    <g id="xtick_6">
     <g id="text_6">
      <text style="font: 36px 'sans-serif'; text-anchor: middle" x="939.163125" y="885.452188" transform="rotate(-0, 939.163125, 885.452188)">1</text>
     </g>
    </g>
    <g id="xtick_7"/>
    <g id="xtick_8"/>
    <g id="xtick_9"/>
    <g id="xtick_10"/>
    <g id="xtick_11"/>
    <g id="xtick_12"/>
    <g id="xtick_13"/>
    <g id="xtick_14"/>
    <g id="xtick_15"/>
    <g id="xtick_16"/>
    <g id="xtick_17"/>
    <g id="xtick_18"/>
    <g id="xtick_19"/>
    <g id="xtick_20"/>
    <g id="xtick_21"/>
    <g id="text_7">
     <text style="fill: #262626; font: 36px 'sans-serif'; text-anchor: middle" x="520.663125" y="922.375313" transform="rotate(-0, 520.663125, 922.375313)">False Positive Rate</text>
    </g>
   </g>
   <g id="matplotlib.axis_2">
    <g id="ytick_1">
     <g id="text_8">
      <text style="font: 36px 'sans-serif'; text-anchor: end" x="94.163125" y="864.568125" transform="rotate(-0, 94.163125, 864.568125)">0</text>
     </g>
    </g>
    <g id="ytick_2">
     <g id="text_9">
      <text style="font: 36px 'sans-serif'; text-anchor: end" x="94.163125" y="698.248125" transform="rotate(-0, 94.163125, 698.248125)">0.2</text>
     </g>
    </g>
    <g id="ytick_3">
     <g id="text_10">
      <text style="font: 36px 'sans-serif'; text-anchor: end" x="94.163125" y="531.928125" transform="rotate(-0, 94.163125, 531.928125)">0.4</text>
     </g>
    </g>
    <g id="ytick_4">
     <g id="text_11">
      <text style="font: 36px 'sans-serif'; text-anchor: end" x="94.163125" y="365.608125" transform="rotate(-0, 94.163125, 365.608125)">0.6</text>
     </g>
    </g>
    <g id="ytick_5">
     <g id="text_12">
      <text style="font: 36px 'sans-serif'; text-anchor: end" x="94.163125" y="199.288125" transform="rotate(-0, 94.163125, 199.288125)">0.8</text>
     </g>
    </g>
    <g id="ytick_6">
     <g id="text_13">
      <text style="font: 36px 'sans-serif'; text-anchor: end" x="94.163125" y="32.968125" transform="rotate(-0, 94.163125, 32.968125)">1</text>
     </g>
    </g>
    <g id="ytick_7"/>
    <g id="ytick_8"/>
    <g id="ytick_9"/>
    <g id="ytick_10"/>
    <g id="ytick_11"/>
    <g id="ytick_12"/>
    <g id="ytick_13"/>
    <g id="ytick_14"/>
    <g id="ytick_15"/>
    <g id="ytick_16"/>
    <g id="ytick_17"/>
    <g id="ytick_18"/>
    <g id="ytick_19"/>
    <g id="ytick_20"/>
    <g id="ytick_21"/>
    <g id="text_14">
     <text style="fill: #262626; font: 36px 'sans-serif'; text-anchor: middle" x="32.968125" y="435.884063" transform="rotate(-90, 32.968125, 435.884063)">True Positive Rate</text>
    </g>
   </g>
   <g id="line2d_1">
    <path d="M 102.163125 851.684062 
L 102.163125 680.80735 
L 102.163125 615.563515 
L 102.163125 549.284063 
L 102.163125 508.895021 
L 102.163125 470.577213 
L 102.163125 441.579953 
L 102.163125 419.832008 
L 102.163125 402.226528 
L 102.163125 385.656665 
L 102.163125 372.193652 
L 102.163125 347.338857 
L 102.163125 333.875843 
L 102.163125 321.448446 
L 102.163125 305.914199 
L 102.714145 300.736117 
L 102.714145 286.237487 
L 102.714145 277.952556 
L 102.714145 263.453926 
L 103.265166 255.168994 
L 104.918227 245.848446 
L 105.469247 242.741597 
L 106.020268 236.527898 
L 107.673329 224.100501 
L 107.673329 214.779953 
L 107.673329 209.601871 
L 108.77537 205.459405 
L 110.428431 197.174473 
L 110.979452 194.067624 
L 110.979452 183.71146 
L 111.530472 177.497761 
L 112.632513 174.390912 
L 112.632513 172.319679 
L 113.183533 169.21283 
L 115.387615 169.21283 
L 115.938635 169.21283 
L 116.489656 164.034747 
L 117.040676 159.892282 
L 117.040676 155.749816 
L 118.142717 150.571734 
L 120.346798 145.393652 
L 122.55088 143.322419 
L 124.203941 140.215569 
L 125.857003 138.144336 
L 127.510064 134.001871 
L 128.061084 130.895021 
L 129.163125 129.859405 
L 134.673329 127.788172 
L 136.877411 124.681323 
L 137.979452 122.61009 
L 138.530472 117.432008 
L 140.183533 115.360775 
L 141.285574 114.325158 
L 142.387615 112.253926 
L 145.142717 110.182693 
L 146.244758 105.00461 
L 147.897819 105.00461 
L 148.99986 99.826528 
L 150.652921 93.61283 
L 152.305982 92.577213 
L 155.612105 89.470364 
L 156.714145 85.327898 
L 157.265166 83.256665 
L 158.918227 81.185432 
L 161.673329 81.185432 
L 163.32639 80.149816 
L 169.387615 78.078583 
L 171.591696 77.042967 
L 177.101901 72.900501 
L 182.061084 71.864884 
L 185.918227 67.722419 
L 189.224349 62.544336 
L 193.081492 61.50872 
L 196.938635 59.437487 
L 203.55088 56.330638 
L 209.061084 52.188172 
L 215.673329 51.152556 
L 223.387615 50.116939 
L 232.203941 50.116939 
L 241.020268 49.081323 
L 248.183533 48.045706 
L 252.591696 47.01009 
L 259.203941 45.974473 
L 269.673329 44.938857 
L 281.244758 43.903241 
L 292.265166 41.832008 
L 305.489656 38.725158 
L 322.020268 34.582693 
L 339.101901 30.440227 
L 358.387615 30.440227 
L 389.795778 28.368994 
L 420.101901 26.297761 
L 471.346798 25.262145 
L 521.489656 24.226528 
L 595.877411 24.226528 
L 703.32639 23.190912 
L 939.163125 20.084063 
" clip-path="url(#padae8613c4)" style="fill: none; stroke: #fde725; stroke-width: 5; stroke-linecap: round"/>
   </g>
   <g id="line2d_2">
    <path d="M 102.163125 851.684062 
L 102.163125 636.275843 
L 102.714145 552.390912 
L 102.714145 491.289542 
L 103.816186 455.042967 
L 104.367207 418.796391 
L 104.918227 406.368994 
L 105.469247 389.799131 
L 105.469247 381.514199 
L 107.122309 371.158035 
L 107.673329 352.516939 
L 108.224349 334.91146 
L 108.77537 329.733378 
L 109.32639 316.270364 
L 109.877411 305.914199 
L 109.877411 298.664884 
L 110.979452 287.273104 
L 111.530472 283.130638 
L 111.530472 278.988172 
L 112.081492 274.845706 
L 112.081492 263.453926 
L 112.081492 257.240227 
L 112.081492 253.097761 
L 112.632513 245.848446 
L 112.632513 243.777213 
L 113.734554 239.634747 
L 114.285574 232.385432 
L 114.836594 229.278583 
L 114.836594 224.100501 
L 116.489656 219.958035 
L 117.040676 215.815569 
L 117.040676 208.566254 
L 118.693737 206.495021 
L 121.99986 202.352556 
L 123.652921 198.21009 
L 125.305982 185.782693 
L 128.061084 183.71146 
L 128.612105 180.60461 
L 128.612105 178.533378 
L 131.918227 178.533378 
L 134.122309 177.497761 
L 136.877411 172.319679 
L 138.530472 170.248446 
L 139.632513 164.034747 
L 139.632513 161.963515 
L 141.285574 157.821049 
L 142.938635 157.821049 
L 143.489656 155.749816 
L 144.040676 151.60735 
L 147.346798 147.464884 
L 150.101901 145.393652 
L 152.305982 145.393652 
L 155.061084 142.286802 
L 156.163125 141.251186 
L 157.265166 139.179953 
L 159.469247 137.10872 
L 161.673329 134.001871 
L 161.673329 131.930638 
L 163.32639 128.823789 
L 165.530472 122.61009 
L 166.632513 121.574473 
L 169.387615 117.432008 
L 170.489656 116.396391 
L 172.693737 113.289542 
L 173.795778 111.218309 
L 178.203941 110.182693 
L 182.612105 108.11146 
L 183.714145 103.968994 
L 185.918227 101.897761 
L 190.877411 98.790912 
L 193.081492 98.790912 
L 193.632513 97.755295 
L 197.489656 97.755295 
L 201.346798 96.719679 
L 206.305982 95.684063 
L 209.061084 92.577213 
L 214.020268 88.434747 
L 217.877411 87.399131 
L 221.183533 82.221049 
L 228.897819 78.078583 
L 234.408023 76.00735 
L 237.714145 73.936117 
L 242.673329 72.900501 
L 248.183533 70.829268 
L 252.591696 67.722419 
L 260.857003 66.686802 
L 269.122309 60.473104 
L 284.55088 60.473104 
L 302.183533 56.330638 
L 314.857003 54.259405 
L 332.489656 53.223789 
L 353.979452 48.045706 
L 378.224349 45.974473 
L 416.244758 42.867624 
L 450.408023 35.618309 
L 506.061084 31.475843 
L 576.040676 29.40461 
L 692.857003 25.262145 
L 939.163125 20.084063 
" clip-path="url(#padae8613c4)" style="fill: none; stroke: #a5db36; stroke-width: 5; stroke-linecap: round"/>
   </g>
   <g id="line2d_3">
    <path d="M 102.163125 851.684062 
L 102.163125 619.70598 
L 102.163125 555.497761 
L 102.163125 509.930638 
L 103.265166 472.648446 
L 103.265166 443.651186 
L 103.816186 431.223789 
L 103.816186 406.368994 
L 104.367207 389.799131 
L 106.571288 375.300501 
L 106.571288 358.730638 
L 107.673329 342.160775 
L 108.224349 332.840227 
L 108.224349 325.590912 
L 108.224349 317.30598 
L 109.32639 305.914199 
L 110.979452 298.664884 
L 110.979452 288.30872 
L 112.081492 277.952556 
L 112.632513 273.81009 
L 112.632513 259.31146 
L 114.285574 254.133378 
L 114.285574 249.990912 
L 114.285574 237.563515 
L 114.836594 230.314199 
L 115.938635 220.993652 
L 118.693737 215.815569 
L 118.693737 213.744336 
L 119.244758 211.673104 
L 119.244758 206.495021 
L 119.244758 204.423789 
L 120.346798 204.423789 
L 120.346798 200.281323 
L 122.55088 196.138857 
L 124.754962 195.103241 
L 125.857003 193.032008 
L 125.857003 187.853926 
L 126.959043 181.640227 
L 128.612105 177.497761 
L 129.714145 175.426528 
L 130.816186 170.248446 
L 130.816186 165.070364 
L 131.918227 165.070364 
L 134.122309 162.999131 
L 136.32639 159.892282 
L 139.081492 155.749816 
L 140.734554 153.678583 
L 141.836594 151.60735 
L 142.387615 148.500501 
L 145.142717 147.464884 
L 147.897819 141.251186 
L 150.101901 139.179953 
L 151.203941 137.10872 
L 152.857003 136.073104 
L 155.061084 134.001871 
L 156.163125 132.966254 
L 157.816186 130.895021 
L 160.571288 127.788172 
L 162.224349 125.716939 
L 164.428431 123.645706 
L 168.836594 121.574473 
L 171.591696 118.467624 
L 171.591696 113.289542 
L 174.346798 113.289542 
L 179.305982 111.218309 
L 181.510064 109.147076 
L 183.714145 108.11146 
L 185.918227 106.040227 
L 191.428431 103.968994 
L 193.632513 103.968994 
L 195.285574 100.862145 
L 200.795778 96.719679 
L 204.101901 94.648446 
L 205.754962 92.577213 
L 212.918227 89.470364 
L 217.877411 88.434747 
L 223.938635 88.434747 
L 234.408023 85.327898 
L 238.265166 83.256665 
L 243.77537 82.221049 
L 254.795778 81.185432 
L 256.99986 78.078583 
L 269.122309 74.971734 
L 279.040676 73.936117 
L 287.857003 70.829268 
L 301.632513 67.722419 
L 313.754962 60.473104 
L 340.754962 57.366254 
L 362.795778 55.295021 
L 379.877411 51.152556 
L 405.77537 45.974473 
L 441.591696 42.867624 
L 475.203941 42.867624 
L 518.183533 40.796391 
L 576.040676 37.689542 
L 674.673329 30.440227 
L 939.163125 20.084063 
" clip-path="url(#padae8613c4)" style="fill: none; stroke: #4ac16d; stroke-width: 5; stroke-linecap: round"/>
   </g>
   <g id="line2d_4">
    <path d="M 102.163125 851.684062 
L 102.714145 672.522419 
L 102.714145 614.527898 
L 102.714145 582.423789 
L 102.714145 556.533378 
L 103.265166 526.500501 
L 103.816186 502.681323 
L 103.816186 487.147076 
L 104.918227 470.577213 
L 105.469247 455.042967 
L 107.122309 438.473104 
L 107.673329 415.689542 
L 108.224349 406.368994 
L 108.77537 396.01283 
L 108.77537 383.585432 
L 110.428431 378.40735 
L 111.530472 370.122419 
L 112.081492 353.552556 
L 113.183533 340.089542 
L 114.836594 334.91146 
L 115.938635 323.519679 
L 116.489656 319.377213 
L 118.142717 310.056665 
L 118.142717 295.558035 
L 118.693737 288.30872 
L 120.346798 283.130638 
L 120.897819 277.952556 
L 120.897819 276.916939 
L 121.448839 270.703241 
L 121.448839 265.525158 
L 121.448839 263.453926 
L 121.99986 259.31146 
L 123.652921 256.20461 
L 124.754962 253.097761 
L 127.510064 249.990912 
L 128.061084 246.884063 
L 128.612105 242.741597 
L 129.163125 240.670364 
L 130.265166 235.492282 
L 130.265166 231.349816 
L 131.918227 224.100501 
L 135.224349 223.064884 
L 137.428431 220.993652 
L 140.734554 217.886802 
L 142.387615 214.779953 
L 144.591696 213.744336 
L 148.99986 209.601871 
L 151.203941 205.459405 
L 155.612105 203.388172 
L 157.816186 201.316939 
L 159.469247 199.245706 
L 161.122309 195.103241 
L 162.77537 194.067624 
L 164.979452 191.996391 
L 165.530472 190.960775 
L 168.285574 185.782693 
L 169.938635 182.675843 
L 171.591696 178.533378 
L 173.244758 175.426528 
L 177.101901 172.319679 
L 179.857003 169.21283 
L 185.367207 168.177213 
L 188.673329 160.927898 
L 193.081492 152.642967 
L 196.387615 146.429268 
L 201.897819 145.393652 
L 203.55088 143.322419 
L 206.857003 138.144336 
L 210.714145 135.037487 
L 214.571288 130.895021 
L 218.979452 127.788172 
L 222.285574 121.574473 
L 226.693737 115.360775 
L 227.244758 112.253926 
L 234.408023 111.218309 
L 240.469247 108.11146 
L 247.632513 106.040227 
L 254.244758 101.897761 
L 259.754962 100.862145 
L 270.77537 99.826528 
L 280.142717 98.790912 
L 287.305982 95.684063 
L 298.32639 90.50598 
L 306.591696 88.434747 
L 315.408023 86.363515 
L 327.530472 78.078583 
L 337.99986 76.00735 
L 354.530472 71.864884 
L 369.959043 69.793652 
L 390.346798 65.651186 
L 414.040676 61.50872 
L 437.183533 60.473104 
L 466.938635 55.295021 
L 504.408023 50.116939 
L 549.040676 49.081323 
L 597.530472 41.832008 
L 657.591696 35.618309 
L 768.897819 28.368994 
L 939.163125 20.084063 
" clip-path="url(#padae8613c4)" style="fill: none; stroke: #1f988b; stroke-width: 5; stroke-linecap: round"/>
   </g>
   <g id="line2d_5">
    <path d="M 102.163125 851.684062 
L 102.714145 672.522419 
L 102.714145 619.70598 
L 102.714145 588.637487 
L 103.816186 565.853926 
L 104.918227 557.568994 
L 105.469247 545.141597 
L 107.122309 540.999131 
L 107.673329 530.642967 
L 108.77537 520.286802 
L 110.979452 509.930638 
L 114.285574 497.503241 
L 114.285574 487.147076 
L 115.387615 479.897761 
L 117.040676 470.577213 
L 118.142717 462.292282 
L 118.142717 454.00735 
L 119.244758 450.900501 
L 120.897819 446.758035 
L 121.99986 436.401871 
L 123.652921 425.01009 
L 125.857003 419.832008 
L 127.510064 416.725158 
L 129.163125 410.51146 
L 130.265166 402.226528 
L 131.918227 393.941597 
L 134.673329 385.656665 
L 136.32639 378.40735 
L 137.979452 374.264884 
L 139.632513 367.015569 
L 140.734554 362.873104 
L 142.938635 356.659405 
L 146.244758 349.41009 
L 148.99986 342.160775 
L 150.101901 334.91146 
L 151.754962 327.662145 
L 152.857003 324.555295 
L 155.061084 320.41283 
L 155.612105 318.341597 
L 157.265166 314.199131 
L 159.469247 312.127898 
L 161.122309 310.056665 
L 163.877411 309.021049 
L 166.081492 302.80735 
L 171.040676 298.664884 
L 172.693737 295.558035 
L 174.346798 291.415569 
L 178.203941 285.201871 
L 179.857003 277.952556 
L 182.061084 276.916939 
L 185.367207 275.881323 
L 187.571288 266.560775 
L 190.32639 264.489542 
L 191.979452 259.31146 
L 194.734554 247.919679 
L 196.938635 241.70598 
L 200.795778 237.563515 
L 203.55088 236.527898 
L 205.754962 232.385432 
L 210.714145 228.242967 
L 215.122309 222.029268 
L 221.734554 219.958035 
L 224.489656 215.815569 
L 230.55088 212.70872 
L 232.754962 206.495021 
L 236.612105 202.352556 
L 244.877411 201.316939 
L 248.183533 200.281323 
L 255.346798 197.174473 
L 259.754962 187.853926 
L 263.612105 186.818309 
L 269.673329 185.782693 
L 275.734554 181.640227 
L 279.591696 176.462145 
L 281.795778 173.355295 
L 287.857003 167.141597 
L 291.714145 166.10598 
L 295.571288 164.034747 
L 301.081492 160.927898 
L 303.836594 156.785432 
L 311.55088 151.60735 
L 315.408023 145.393652 
L 320.367207 143.322419 
L 329.183533 139.179953 
L 339.101901 134.001871 
L 348.469247 127.788172 
L 360.591696 122.61009 
L 369.959043 117.432008 
L 384.836594 115.360775 
L 405.224349 111.218309 
L 422.857003 106.040227 
L 437.734554 99.826528 
L 461.428431 93.61283 
L 482.918227 88.434747 
L 502.754962 83.256665 
L 532.510064 76.00735 
L 565.571288 69.793652 
L 604.693737 59.437487 
L 668.061084 50.116939 
L 750.163125 41.832008 
L 939.163125 20.084063 
" clip-path="url(#padae8613c4)" style="fill: none; stroke: #2a788e; stroke-width: 5; stroke-linecap: round"/>
   </g>
   <g id="line2d_6">
    <path d="M 102.163125 851.684062 
L 104.367207 678.736117 
L 106.020268 617.634747 
L 108.224349 583.459405 
L 109.32639 557.568994 
L 110.979452 539.963515 
L 113.183533 527.536117 
L 114.285574 517.179953 
L 114.836594 506.823789 
L 115.387615 499.574473 
L 116.489656 490.253926 
L 116.489656 485.075843 
L 116.489656 473.684063 
L 117.040676 469.541597 
L 117.591696 463.327898 
L 118.142717 461.256665 
L 120.346798 449.864884 
L 120.346798 445.722419 
L 120.897819 441.579953 
L 120.897819 438.473104 
L 121.448839 433.295021 
L 121.99986 432.259405 
L 123.101901 429.152556 
L 125.305982 423.974473 
L 126.959043 421.903241 
L 129.163125 418.796391 
L 130.816186 413.618309 
L 133.020268 411.547076 
L 134.122309 408.440227 
L 135.224349 403.262145 
L 136.877411 398.084063 
L 139.081492 392.90598 
L 142.387615 387.727898 
L 145.142717 385.656665 
L 146.795778 383.585432 
L 149.55088 376.336117 
L 151.754962 369.086802 
L 153.408023 363.90872 
L 156.714145 360.801871 
L 160.020268 358.730638 
L 163.877411 354.588172 
L 166.632513 351.481323 
L 167.734554 347.338857 
L 171.591696 346.303241 
L 173.795778 343.196391 
L 177.101901 340.089542 
L 179.857003 335.947076 
L 180.408023 333.875843 
L 184.816186 331.80461 
L 185.918227 327.662145 
L 189.77537 322.484063 
L 195.836594 317.30598 
L 198.591696 313.163515 
L 202.99986 311.092282 
L 208.510064 305.914199 
L 211.816186 299.700501 
L 214.020268 293.486802 
L 216.77537 288.30872 
L 222.836594 286.237487 
L 225.591696 281.059405 
L 228.897819 277.952556 
L 231.652921 272.774473 
L 235.510064 270.703241 
L 242.122309 266.560775 
L 247.081492 263.453926 
L 254.795778 258.275843 
L 261.408023 249.990912 
L 267.469247 244.81283 
L 272.428431 239.634747 
L 277.387615 237.563515 
L 283.448839 234.456665 
L 287.857003 232.385432 
L 291.714145 225.136117 
L 299.428431 222.029268 
L 309.346798 211.673104 
L 316.510064 208.566254 
L 324.224349 204.423789 
L 327.530472 200.281323 
L 333.040676 195.103241 
L 344.061084 190.960775 
L 352.32639 183.71146 
L 357.836594 177.497761 
L 365.55088 174.390912 
L 374.918227 168.177213 
L 388.693737 161.963515 
L 399.163125 159.892282 
L 410.183533 152.642967 
L 417.897819 147.464884 
L 431.122309 144.358035 
L 444.897819 140.215569 
L 463.632513 129.859405 
L 484.571288 122.61009 
L 502.754962 117.432008 
L 525.897819 115.360775 
L 544.081492 107.075843 
L 568.877411 99.826528 
L 593.673329 95.684063 
L 632.795778 86.363515 
L 668.612105 72.900501 
L 711.591696 65.651186 
L 796.448839 43.903241 
L 939.163125 20.084063 
" clip-path="url(#padae8613c4)" style="fill: none; stroke: #414487; stroke-width: 5; stroke-linecap: round"/>
   </g>
   <g id="line2d_7">
    <path d="M 102.163125 851.684062 
L 114.285574 648.703241 
L 121.448839 615.563515 
L 124.754962 596.922419 
L 127.510064 577.245706 
L 129.714145 571.032008 
L 130.265166 557.568994 
L 134.122309 552.390912 
L 135.77537 547.21283 
L 141.836594 539.963515 
L 144.591696 528.571734 
L 147.897819 519.251186 
L 152.305982 509.930638 
L 153.408023 502.681323 
L 155.061084 498.538857 
L 160.020268 488.182693 
L 162.224349 487.147076 
L 164.979452 484.040227 
L 164.979452 479.897761 
L 165.530472 476.790912 
L 166.632513 474.719679 
L 167.734554 471.61283 
L 169.387615 469.541597 
L 170.489656 463.327898 
L 174.897819 458.149816 
L 177.101901 454.00735 
L 178.754962 447.793652 
L 183.714145 440.544336 
L 186.469247 439.50872 
L 193.081492 435.366254 
L 195.285574 429.152556 
L 198.591696 423.974473 
L 200.244758 419.832008 
L 206.305982 415.689542 
L 212.367207 406.368994 
L 214.020268 397.048446 
L 220.081492 392.90598 
L 227.244758 385.656665 
L 232.754962 376.336117 
L 244.877411 368.051186 
L 249.836594 365.979953 
L 254.244758 361.837487 
L 256.99986 360.801871 
L 259.754962 360.801871 
L 261.408023 360.801871 
L 263.612105 358.730638 
L 264.714145 356.659405 
L 265.265166 356.659405 
L 265.265166 354.588172 
L 265.265166 353.552556 
L 265.816186 352.516939 
L 267.469247 351.481323 
L 267.469247 349.41009 
L 269.673329 349.41009 
L 270.224349 344.232008 
L 272.979452 338.018309 
L 274.081492 330.768994 
L 276.836594 325.590912 
L 280.693737 318.341597 
L 283.99986 315.234747 
L 288.959043 311.092282 
L 295.020268 299.700501 
L 301.081492 290.379953 
L 304.938635 285.201871 
L 310.99986 269.667624 
L 316.510064 261.382693 
L 322.571288 256.20461 
L 329.183533 249.990912 
L 336.346798 245.848446 
L 341.305982 239.634747 
L 349.020268 227.20735 
L 352.32639 222.029268 
L 356.734554 220.993652 
L 359.489656 215.815569 
L 362.244758 211.673104 
L 363.897819 205.459405 
L 364.99986 202.352556 
L 368.857003 198.21009 
L 374.367207 196.138857 
L 380.428431 190.960775 
L 390.346798 189.925158 
L 402.469247 186.818309 
L 409.632513 179.568994 
L 418.448839 175.426528 
L 428.367207 172.319679 
L 442.142717 162.999131 
L 453.714145 154.714199 
L 463.081492 150.571734 
L 475.754962 147.464884 
L 491.183533 139.179953 
L 512.673329 123.645706 
L 550.693737 101.897761 
L 939.163125 20.084063 
" clip-path="url(#padae8613c4)" style="fill: none; stroke: #440154; stroke-width: 5; stroke-linecap: round"/>
   </g>
   <g id="patch_3">
    <path d="M 102.163125 851.684062 
L 102.163125 20.084063 
" style="fill: none; stroke: #262626; stroke-width: 1.25; stroke-linejoin: miter; stroke-linecap: square"/>
   </g>
   <g id="patch_4">
    <path d="M 939.163125 851.684062 
L 939.163125 20.084063 
" style="fill: none; stroke: #262626; stroke-width: 1.25; stroke-linejoin: miter; stroke-linecap: square"/>
   </g>
   <g id="patch_5">
    <path d="M 102.163125 851.684062 
L 939.163125 851.684062 
" style="fill: none; stroke: #262626; stroke-width: 1.25; stroke-linejoin: miter; stroke-linecap: square"/>
   </g>
   <g id="patch_6">
    <path d="M 102.163125 20.084063 
L 939.163125 20.084063 
" style="fill: none; stroke: #262626; stroke-width: 1.25; stroke-linejoin: miter; stroke-linecap: square"/>
   </g>
   <g id="legend_1">
    <g id="patch_7">
     <path d="M 18.463125 1315.487813 
L 954.710625 1315.487813 
L 954.710625 934.844062 
L 18.463125 934.844062 
z
" style="fill: #ffffff; opacity: 0.8; stroke: #000000; stroke-linejoin: miter"/>
    </g>
    <g id="line2d_8">
     <path d="M 36.463125 966.473437 
L 72.463125 966.473437 
L 108.463125 966.473437 
" style="fill: none; stroke: #fde725; stroke-width: 5; stroke-linecap: round"/>
    </g>
    <g id="text_15">
     <text style="fill: #262626; font: 36px 'sans-serif'; text-anchor: start" x="126.463125" y="979.073437" transform="rotate(-0, 126.463125, 979.073437)">All variables (ROC AUC = 0.98)</text>
    </g>
    <g id="line2d_9">
     <path d="M 36.463125 1018.279687 
L 72.463125 1018.279687 
L 108.463125 1018.279687 
" style="fill: none; stroke: #a5db36; stroke-width: 5; stroke-linecap: round"/>
    </g>
    <g id="text_16">
     <text style="fill: #262626; font: 36px 'sans-serif'; text-anchor: start" x="126.463125" y="1030.879687" transform="rotate(-0, 126.463125, 1030.879687)">NAD(P)H variables + Cell Size (ROC AUC = 0.96)</text>
    </g>
    <g id="line2d_10">
     <path d="M 36.463125 1070.085938 
L 72.463125 1070.085938 
L 108.463125 1070.085938 
" style="fill: none; stroke: #4ac16d; stroke-width: 5; stroke-linecap: round"/>
    </g>
    <g id="text_17">
     <text style="fill: #262626; font: 36px 'sans-serif'; text-anchor: start" x="126.463125" y="1082.685937" transform="rotate(-0, 126.463125, 1082.685937)">Top four variables (ROC AUC) = 0.96)</text>
    </g>
    <g id="line2d_11">
     <path d="M 36.463125 1121.892188 
L 72.463125 1121.892188 
L 108.463125 1121.892188 
" style="fill: none; stroke: #1f988b; stroke-width: 5; stroke-linecap: round"/>
    </g>
    <g id="text_18">
     <text style="fill: #262626; font: 36px 'sans-serif'; text-anchor: start" x="126.463125" y="1134.492188" transform="rotate(-0, 126.463125, 1134.492188)">Top three variables (ROC AUC) = 0.94)</text>
    </g>
    <g id="line2d_12">
     <path d="M 36.463125 1173.698437 
L 72.463125 1173.698437 
L 108.463125 1173.698437 
" style="fill: none; stroke: #2a788e; stroke-width: 5; stroke-linecap: round"/>
    </g>
    <g id="text_19">
     <text style="fill: #262626; font: 36px 'sans-serif'; text-anchor: start" x="126.463125" y="1186.298437" transform="rotate(-0, 126.463125, 1186.298437)">Top two variables (ROC AUC) = 0.88)</text>
    </g>
    <g id="line2d_13">
     <path d="M 36.463125 1225.504688 
L 72.463125 1225.504688 
L 108.463125 1225.504688 
" style="fill: none; stroke: #414487; stroke-width: 5; stroke-linecap: round"/>
    </g>
    <g id="text_20">
     <text style="fill: #262626; font: 36px 'sans-serif'; text-anchor: start" x="126.463125" y="1238.104687" transform="rotate(-0, 126.463125, 1238.104687)">Norm. Redox Ratio + Cell Size (ROC AUC) = 0.84)</text>
    </g>
    <g id="line2d_14">
     <path d="M 36.463125 1277.310937 
L 72.463125 1277.310937 
L 108.463125 1277.310937 
" style="fill: none; stroke: #440154; stroke-width: 5; stroke-linecap: round"/>
    </g>
    <g id="text_21">
     <text style="fill: #262626; font: 36px 'sans-serif'; text-anchor: start" x="126.463125" y="1289.910937" transform="rotate(-0, 126.463125, 1289.910937)">Top variable (ROC AUC) = 0.80)</text>
    </g>
   </g>
  </g>
 </g>
 <defs>
  <clipPath id="padae8613c4">
   <rect x="102.163125" y="20.084063" width="837" height="831.6"/>
  </clipPath>
 </defs>
</svg>
