<?xml version="1.0" encoding="utf-8" standalone="no"?>
<!DOCTYPE svg PUBLIC "-//W3C//DTD SVG 1.1//EN"
  "http://www.w3.org/Graphics/SVG/1.1/DTD/svg11.dtd">
<svg xmlns:xlink="http://www.w3.org/1999/xlink" width="985.010625pt" height="1315.667812pt" viewBox="0 0 985.010625 1315.667812" xmlns="http://www.w3.org/2000/svg" version="1.1">
 <metadata>
  <rdf:RDF xmlns:dc="http://purl.org/dc/elements/1.1/" xmlns:cc="http://creativecommons.org/ns#" xmlns:rdf="http://www.w3.org/1999/02/22-rdf-syntax-ns#">
   <cc:Work>
    <dc:type rdf:resource="http://purl.org/dc/dcmitype/StillImage"/>
    <dc:date>2022-09-21T11:15:19.263778</dc:date>
    <dc:format>image/svg+xml</dc:format>
    <dc:creator>
     <cc:Agent>
      <dc:title>Matplotlib v3.5.1, https://matplotlib.org/</dc:title>
     </cc:Agent>
    </dc:creator>
   </cc:Work>
  </rdf:RDF>
 </metadata>
 <defs>
  <style type="text/css">*{stroke-linejoin: round; stroke-linecap: butt}</style>
 </defs>
 <g id="figure_1">
  <g id="patch_1">
   <path d="M 0 1315.667812 
L 985.010625 1315.667812 
L 985.010625 0 
L 0 0 
z
" style="fill: #ffffff"/>
  </g>
  <g id="axes_1">
   <g id="patch_2">
    <path d="M 103.663125 835.484062 
L 940.663125 835.484062 
L 940.663125 20.084063 
L 103.663125 20.084063 
z
" style="fill: #ffffff"/>
   </g>
   <g id="matplotlib.axis_1">
    <g id="xtick_1">
     <g id="text_1">
      <text style="fill: #262626; font: 36px 'sans-serif'; text-anchor: middle" x="103.663125" y="870.752187" transform="rotate(-0, 103.663125, 870.752187)">0.0</text>
     </g>
    </g>
    <g id="xtick_2">
     <g id="text_2">
      <text style="fill: #262626; font: 36px 'sans-serif'; text-anchor: middle" x="271.063125" y="870.752187" transform="rotate(-0, 271.063125, 870.752187)">0.2</text>
     </g>
    </g>
    <g id="xtick_3">
     <g id="text_3">
      <text style="fill: #262626; font: 36px 'sans-serif'; text-anchor: middle" x="438.463125" y="870.752187" transform="rotate(-0, 438.463125, 870.752187)">0.4</text>
     </g>
    </g>
    <g id="xtick_4">
     <g id="text_4">
      <text style="fill: #262626; font: 36px 'sans-serif'; text-anchor: middle" x="605.863125" y="870.752187" transform="rotate(-0, 605.863125, 870.752187)">0.6</text>
     </g>
    </g>
    <g id="xtick_5">
     <g id="text_5">
      <text style="fill: #262626; font: 36px 'sans-serif'; text-anchor: middle" x="773.263125" y="870.752187" transform="rotate(-0, 773.263125, 870.752187)">0.8</text>
     </g>
    </g>
    <g id="xtick_6">
     <g id="text_6">
      <text style="fill: #262626; font: 36px 'sans-serif'; text-anchor: middle" x="940.663125" y="870.752187" transform="rotate(-0, 940.663125, 870.752187)">1.0</text>
     </g>
    </g>
    <g id="text_7">
     <text style="fill: #262626; font: 36px 'sans-serif'; text-anchor: middle" x="522.163125" y="907.675313" transform="rotate(-0, 522.163125, 907.675313)">False Positive Rate</text>
    </g>
   </g>
   <g id="matplotlib.axis_2">
    <g id="ytick_1">
     <g id="text_8">
      <text style="fill: #262626; font: 36px 'sans-serif'; text-anchor: end" x="94.163125" y="848.368125" transform="rotate(-0, 94.163125, 848.368125)">0.0</text>
     </g>
    </g>
    <g id="ytick_2">
     <g id="text_9">
      <text style="fill: #262626; font: 36px 'sans-serif'; text-anchor: end" x="94.163125" y="685.288125" transform="rotate(-0, 94.163125, 685.288125)">0.2</text>
     </g>
    </g>
    <g id="ytick_3">
     <g id="text_10">
      <text style="fill: #262626; font: 36px 'sans-serif'; text-anchor: end" x="94.163125" y="522.208125" transform="rotate(-0, 94.163125, 522.208125)">0.4</text>
     </g>
    </g>
    <g id="ytick_4">
     <g id="text_11">
      <text style="fill: #262626; font: 36px 'sans-serif'; text-anchor: end" x="94.163125" y="359.128125" transform="rotate(-0, 94.163125, 359.128125)">0.6</text>
     </g>
    </g>
    <g id="ytick_5">
     <g id="text_12">
      <text style="fill: #262626; font: 36px 'sans-serif'; text-anchor: end" x="94.163125" y="196.048125" transform="rotate(-0, 94.163125, 196.048125)">0.8</text>
     </g>
    </g>
    <g id="ytick_6">
     <g id="text_13">
      <text style="fill: #262626; font: 36px 'sans-serif'; text-anchor: end" x="94.163125" y="32.968125" transform="rotate(-0, 94.163125, 32.968125)">1.0</text>
     </g>
    </g>
    <g id="text_14">
     <text style="fill: #262626; font: 36px 'sans-serif'; text-anchor: middle" x="32.968125" y="427.784063" transform="rotate(-90, 32.968125, 427.784063)">True Positive Rate</text>
    </g>
   </g>
   <g id="line2d_1">
    <path d="M 103.663125 835.484062 
L 103.663125 667.936117 
L 103.663125 603.963265 
L 103.663125 538.974972 
L 103.663125 499.37273 
L 103.663125 461.801373 
L 103.663125 433.368994 
L 103.663125 412.04471 
L 103.663125 394.782195 
L 103.663125 378.535121 
L 103.663125 365.334374 
L 103.663125 340.963764 
L 103.663125 327.763016 
L 103.663125 315.577711 
L 103.663125 300.34608 
L 104.214145 295.268869 
L 104.214145 281.05268 
L 104.214145 272.929143 
L 104.214145 258.712954 
L 104.765166 250.589417 
L 106.418227 241.450439 
L 106.969247 238.404112 
L 107.520268 232.31146 
L 109.173329 220.126155 
L 109.173329 210.987176 
L 109.173329 205.909965 
L 110.27537 201.848197 
L 111.928431 193.72466 
L 112.479452 190.678334 
L 112.479452 180.523913 
L 113.030472 174.431261 
L 114.132513 171.384934 
L 114.132513 169.35405 
L 114.683533 166.307724 
L 116.887615 166.307724 
L 117.438635 166.307724 
L 117.989656 161.230513 
L 118.540676 157.168745 
L 118.540676 153.106977 
L 119.642717 148.029766 
L 121.846798 142.952556 
L 124.05088 140.921671 
L 125.703941 137.875345 
L 127.357003 135.844461 
L 129.010064 131.782693 
L 129.561084 128.736366 
L 130.663125 127.720924 
L 136.173329 125.69004 
L 138.377411 122.643714 
L 139.479452 120.61283 
L 140.030472 115.535619 
L 141.683533 113.504735 
L 142.785574 112.489293 
L 143.887615 110.458409 
L 146.642717 108.427525 
L 147.744758 103.350314 
L 149.397819 103.350314 
L 150.49986 98.273104 
L 152.152921 92.180451 
L 153.805982 91.165009 
L 157.112105 88.118683 
L 158.214145 84.056914 
L 158.765166 82.02603 
L 160.418227 79.995146 
L 163.173329 79.995146 
L 164.82639 78.979704 
L 170.887615 76.94882 
L 173.091696 75.933378 
L 178.601901 71.871609 
L 183.561084 70.856167 
L 187.418227 66.794399 
L 190.724349 61.717188 
L 194.581492 60.701746 
L 198.438635 58.670862 
L 205.05088 55.624536 
L 210.561084 51.562767 
L 217.173329 50.547325 
L 224.887615 49.531883 
L 233.703941 49.531883 
L 242.520268 48.516441 
L 249.683533 47.500999 
L 254.091696 46.485557 
L 260.703941 45.470115 
L 271.173329 44.454673 
L 282.744758 43.439231 
L 293.765166 41.408346 
L 306.989656 38.36202 
L 323.520268 34.300252 
L 340.601901 30.238483 
L 359.887615 30.238483 
L 391.295778 28.207599 
L 421.601901 26.176715 
L 472.846798 25.161273 
L 522.989656 24.145831 
L 597.377411 24.145831 
L 704.82639 23.130389 
L 940.663125 20.084063 
" clip-path="url(#p5a5e50a543)" style="fill: none; stroke: #fde725; stroke-width: 5; stroke-linecap: round"/>
   </g>
   <g id="line2d_2">
    <path d="M 103.663125 835.484062 
L 103.663125 624.272107 
L 104.214145 542.021298 
L 104.214145 482.110214 
L 105.316186 446.569741 
L 105.867207 411.029268 
L 106.418227 398.843963 
L 106.969247 382.596889 
L 106.969247 374.473353 
L 108.622309 364.318932 
L 109.173329 346.040974 
L 109.724349 328.778459 
L 110.27537 323.701248 
L 110.82639 310.500501 
L 111.377411 300.34608 
L 111.377411 293.237985 
L 112.479452 282.068122 
L 113.030472 278.006354 
L 113.030472 273.944586 
L 113.581492 269.882817 
L 113.581492 258.712954 
L 113.581492 252.620302 
L 113.581492 248.558533 
L 114.132513 241.450439 
L 114.132513 239.419554 
L 115.234554 235.357786 
L 115.785574 228.249691 
L 116.336594 225.203365 
L 116.336594 220.126155 
L 117.989656 216.064386 
L 118.540676 212.002618 
L 118.540676 204.894523 
L 120.193737 202.863639 
L 123.49986 198.801871 
L 125.152921 194.740102 
L 126.805982 182.554797 
L 129.561084 180.523913 
L 130.112105 177.477587 
L 130.112105 175.446703 
L 133.418227 175.446703 
L 135.622309 174.431261 
L 138.377411 169.35405 
L 140.030472 167.323166 
L 141.132513 161.230513 
L 141.132513 159.199629 
L 142.785574 155.137861 
L 144.438635 155.137861 
L 144.989656 153.106977 
L 145.540676 149.045208 
L 148.846798 144.98344 
L 151.601901 142.952556 
L 153.805982 142.952556 
L 156.561084 139.906229 
L 157.663125 138.890787 
L 158.765166 136.859903 
L 160.969247 134.829019 
L 163.173329 131.782693 
L 163.173329 129.751808 
L 164.82639 126.705482 
L 167.030472 120.61283 
L 168.132513 119.597388 
L 170.887615 115.535619 
L 171.989656 114.520177 
L 174.193737 111.473851 
L 175.295778 109.442967 
L 179.703941 108.427525 
L 184.112105 106.39664 
L 185.214145 102.334872 
L 187.418227 100.303988 
L 192.377411 97.257662 
L 194.581492 97.257662 
L 195.132513 96.242219 
L 198.989656 96.242219 
L 202.846798 95.226777 
L 207.805982 94.211335 
L 210.561084 91.165009 
L 215.520268 87.103241 
L 219.377411 86.087798 
L 222.683533 81.010588 
L 230.397819 76.94882 
L 235.908023 74.917935 
L 239.214145 72.887051 
L 244.173329 71.871609 
L 249.683533 69.840725 
L 254.091696 66.794399 
L 262.357003 65.778957 
L 270.622309 59.686304 
L 286.05088 59.686304 
L 303.683533 55.624536 
L 316.357003 53.593652 
L 333.989656 52.578209 
L 355.479452 47.500999 
L 379.724349 45.470115 
L 417.744758 42.423789 
L 451.908023 35.315694 
L 507.561084 31.253926 
L 577.540676 29.223041 
L 694.357003 25.161273 
L 940.663125 20.084063 
" clip-path="url(#p5a5e50a543)" style="fill: none; stroke: #a5db36; stroke-width: 5; stroke-linecap: round"/>
   </g>
   <g id="line2d_3">
    <path d="M 103.663125 835.484062 
L 103.663125 608.025034 
L 103.663125 545.067624 
L 103.663125 500.388172 
L 104.765166 463.832257 
L 104.765166 435.399878 
L 105.316186 423.214573 
L 105.316186 398.843963 
L 105.867207 382.596889 
L 108.071288 368.3807 
L 108.071288 352.133627 
L 109.173329 335.886553 
L 109.724349 326.747574 
L 109.724349 319.63948 
L 109.724349 311.515943 
L 110.82639 300.34608 
L 112.479452 293.237985 
L 112.479452 283.083564 
L 113.581492 272.929143 
L 114.132513 268.867375 
L 114.132513 254.651186 
L 115.785574 249.573975 
L 115.785574 245.512207 
L 115.785574 233.326902 
L 116.336594 226.218807 
L 117.438635 217.079828 
L 120.193737 212.002618 
L 120.193737 209.971734 
L 120.744758 207.94085 
L 120.744758 202.863639 
L 120.744758 200.832755 
L 121.846798 200.832755 
L 121.846798 196.770987 
L 124.05088 192.709218 
L 126.254962 191.693776 
L 127.357003 189.662892 
L 127.357003 184.585681 
L 128.459043 178.493029 
L 130.112105 174.431261 
L 131.214145 172.400376 
L 132.316186 167.323166 
L 132.316186 162.245955 
L 133.418227 162.245955 
L 135.622309 160.215071 
L 137.82639 157.168745 
L 140.581492 153.106977 
L 142.234554 151.076092 
L 143.336594 149.045208 
L 143.887615 145.998882 
L 146.642717 144.98344 
L 149.397819 138.890787 
L 151.601901 136.859903 
L 152.703941 134.829019 
L 154.357003 133.813577 
L 156.561084 131.782693 
L 157.663125 130.767251 
L 159.316186 128.736366 
L 162.071288 125.69004 
L 163.724349 123.659156 
L 165.928431 121.628272 
L 170.336594 119.597388 
L 173.091696 116.551061 
L 173.091696 111.473851 
L 175.846798 111.473851 
L 180.805982 109.442967 
L 183.010064 107.412082 
L 185.214145 106.39664 
L 187.418227 104.365756 
L 192.928431 102.334872 
L 195.132513 102.334872 
L 196.785574 99.288546 
L 202.295778 95.226777 
L 205.601901 93.195893 
L 207.254962 91.165009 
L 214.418227 88.118683 
L 219.377411 87.103241 
L 225.438635 87.103241 
L 235.908023 84.056914 
L 239.765166 82.02603 
L 245.27537 81.010588 
L 256.295778 79.995146 
L 258.49986 76.94882 
L 270.622309 73.902493 
L 280.540676 72.887051 
L 289.357003 69.840725 
L 303.132513 66.794399 
L 315.254962 59.686304 
L 342.254962 56.639978 
L 364.295778 54.609094 
L 381.377411 50.547325 
L 407.27537 45.470115 
L 443.091696 42.423789 
L 476.703941 42.423789 
L 519.683533 40.392904 
L 577.540676 37.346578 
L 676.173329 30.238483 
L 940.663125 20.084063 
" clip-path="url(#p5a5e50a543)" style="fill: none; stroke: #4ac16d; stroke-width: 5; stroke-linecap: round"/>
   </g>
   <g id="line2d_4">
    <path d="M 103.663125 835.484062 
L 104.214145 659.812581 
L 104.214145 602.947823 
L 104.214145 571.469119 
L 104.214145 546.083066 
L 104.765166 516.635246 
L 105.316186 493.280077 
L 105.316186 478.048446 
L 106.418227 461.801373 
L 106.969247 446.569741 
L 108.622309 430.322668 
L 109.173329 407.982942 
L 109.724349 398.843963 
L 110.27537 388.689542 
L 110.27537 376.504237 
L 111.928431 371.427026 
L 113.030472 363.30349 
L 113.581492 347.056416 
L 114.683533 333.855669 
L 116.336594 328.778459 
L 117.438635 317.608596 
L 117.989656 313.546827 
L 119.642717 304.407848 
L 119.642717 290.191659 
L 120.193737 283.083564 
L 121.846798 278.006354 
L 122.397819 272.929143 
L 122.397819 271.913701 
L 122.948839 265.821049 
L 122.948839 260.743838 
L 122.948839 258.712954 
L 123.49986 254.651186 
L 125.152921 251.60486 
L 126.254962 248.558533 
L 129.010064 245.512207 
L 129.561084 242.465881 
L 130.112105 238.404112 
L 130.663125 236.373228 
L 131.765166 231.296018 
L 131.765166 227.234249 
L 133.418227 220.126155 
L 136.724349 219.110713 
L 138.928431 217.079828 
L 142.234554 214.033502 
L 143.887615 210.987176 
L 146.091696 209.971734 
L 150.49986 205.909965 
L 152.703941 201.848197 
L 157.112105 199.817313 
L 159.316186 197.786429 
L 160.969247 195.755544 
L 162.622309 191.693776 
L 164.27537 190.678334 
L 166.479452 188.64745 
L 167.030472 187.632008 
L 169.785574 182.554797 
L 171.438635 179.508471 
L 173.091696 175.446703 
L 174.744758 172.400376 
L 178.601901 169.35405 
L 181.357003 166.307724 
L 186.867207 165.292282 
L 190.173329 158.184187 
L 194.581492 150.06065 
L 197.887615 143.967998 
L 203.397819 142.952556 
L 205.05088 140.921671 
L 208.357003 135.844461 
L 212.214145 132.798135 
L 216.071288 128.736366 
L 220.479452 125.69004 
L 223.785574 119.597388 
L 228.193737 113.504735 
L 228.744758 110.458409 
L 235.908023 109.442967 
L 241.969247 106.39664 
L 249.132513 104.365756 
L 255.744758 100.303988 
L 261.254962 99.288546 
L 272.27537 98.273104 
L 281.642717 97.257662 
L 288.805982 94.211335 
L 299.82639 89.134125 
L 308.091696 87.103241 
L 316.908023 85.072356 
L 329.030472 76.94882 
L 339.49986 74.917935 
L 356.030472 70.856167 
L 371.459043 68.825283 
L 391.846798 64.763515 
L 415.540676 60.701746 
L 438.683533 59.686304 
L 468.438635 54.609094 
L 505.908023 49.531883 
L 550.540676 48.516441 
L 599.030472 41.408346 
L 659.091696 35.315694 
L 770.397819 28.207599 
L 940.663125 20.084063 
" clip-path="url(#p5a5e50a543)" style="fill: none; stroke: #1f988b; stroke-width: 5; stroke-linecap: round"/>
   </g>
   <g id="line2d_5">
    <path d="M 103.663125 835.484062 
L 104.214145 659.812581 
L 104.214145 608.025034 
L 104.214145 577.561771 
L 105.316186 555.222045 
L 106.418227 547.098508 
L 106.969247 534.913203 
L 108.622309 530.851435 
L 109.173329 520.697014 
L 110.27537 510.542593 
L 112.479452 500.388172 
L 115.785574 488.202867 
L 115.785574 478.048446 
L 116.887615 470.940351 
L 118.540676 461.801373 
L 119.642717 453.677836 
L 119.642717 445.554299 
L 120.744758 442.507973 
L 122.397819 438.446204 
L 123.49986 428.291784 
L 125.152921 417.121921 
L 127.357003 412.04471 
L 129.010064 408.998384 
L 130.663125 402.905731 
L 131.765166 394.782195 
L 133.418227 386.658658 
L 136.173329 378.535121 
L 137.82639 371.427026 
L 139.479452 367.365258 
L 141.132513 360.257163 
L 142.234554 356.195395 
L 144.438635 350.102742 
L 147.744758 342.994648 
L 150.49986 335.886553 
L 151.601901 328.778459 
L 153.254962 321.670364 
L 154.357003 318.624038 
L 156.561084 314.562269 
L 157.112105 312.531385 
L 158.765166 308.469617 
L 160.969247 306.438732 
L 162.622309 304.407848 
L 165.377411 303.392406 
L 167.581492 297.299754 
L 172.540676 293.237985 
L 174.193737 290.191659 
L 175.846798 286.129891 
L 179.703941 280.037238 
L 181.357003 272.929143 
L 183.561084 271.913701 
L 186.867207 270.898259 
L 189.071288 261.75928 
L 191.82639 259.728396 
L 193.479452 254.651186 
L 196.234554 243.481323 
L 198.438635 237.38867 
L 202.295778 233.326902 
L 205.05088 232.31146 
L 207.254962 228.249691 
L 212.214145 224.187923 
L 216.622309 218.09527 
L 223.234554 216.064386 
L 225.989656 212.002618 
L 232.05088 208.956292 
L 234.254962 202.863639 
L 238.112105 198.801871 
L 246.377411 197.786429 
L 249.683533 196.770987 
L 256.846798 193.72466 
L 261.254962 184.585681 
L 265.112105 183.570239 
L 271.173329 182.554797 
L 277.234554 178.493029 
L 281.091696 173.415818 
L 283.295778 170.369492 
L 289.357003 164.27684 
L 293.214145 163.261397 
L 297.071288 161.230513 
L 302.581492 158.184187 
L 305.336594 154.122419 
L 313.05088 149.045208 
L 316.908023 142.952556 
L 321.867207 140.921671 
L 330.683533 136.859903 
L 340.601901 131.782693 
L 349.969247 125.69004 
L 362.091696 120.61283 
L 371.459043 115.535619 
L 386.336594 113.504735 
L 406.724349 109.442967 
L 424.357003 104.365756 
L 439.234554 98.273104 
L 462.928431 92.180451 
L 484.418227 87.103241 
L 504.254962 82.02603 
L 534.010064 74.917935 
L 567.071288 68.825283 
L 606.193737 58.670862 
L 669.561084 49.531883 
L 751.663125 41.408346 
L 940.663125 20.084063 
" clip-path="url(#p5a5e50a543)" style="fill: none; stroke: #2a788e; stroke-width: 5; stroke-linecap: round"/>
   </g>
   <g id="line2d_6">
    <path d="M 103.663125 835.484062 
L 105.867207 665.905233 
L 107.520268 605.99415 
L 109.724349 572.484561 
L 110.82639 547.098508 
L 112.479452 529.835993 
L 114.683533 517.650688 
L 115.785574 507.496267 
L 116.336594 497.341846 
L 116.887615 490.233751 
L 117.989656 481.094772 
L 117.989656 476.017562 
L 117.989656 464.847699 
L 118.540676 460.78593 
L 119.091696 454.693278 
L 119.642717 452.662394 
L 121.846798 441.492531 
L 121.846798 437.430762 
L 122.397819 433.368994 
L 122.397819 430.322668 
L 122.948839 425.245457 
L 123.49986 424.230015 
L 124.601901 421.183689 
L 126.805982 416.106478 
L 128.459043 414.075594 
L 130.663125 411.029268 
L 132.316186 405.952058 
L 134.520268 403.921173 
L 135.622309 400.874847 
L 136.724349 395.797637 
L 138.377411 390.720426 
L 140.581492 385.643216 
L 143.887615 380.566005 
L 146.642717 378.535121 
L 148.295778 376.504237 
L 151.05088 369.396142 
L 153.254962 362.288048 
L 154.908023 357.210837 
L 158.214145 354.164511 
L 161.520268 352.133627 
L 165.377411 348.071858 
L 168.132513 345.025532 
L 169.234554 340.963764 
L 173.091696 339.948322 
L 175.295778 336.901995 
L 178.601901 333.855669 
L 181.357003 329.793901 
L 181.908023 327.763016 
L 186.316186 325.732132 
L 187.418227 321.670364 
L 191.27537 316.593153 
L 197.336594 311.515943 
L 200.091696 307.454175 
L 204.49986 305.42329 
L 210.010064 300.34608 
L 213.316186 294.253427 
L 215.520268 288.160775 
L 218.27537 283.083564 
L 224.336594 281.05268 
L 227.091696 275.97547 
L 230.397819 272.929143 
L 233.152921 267.851933 
L 237.010064 265.821049 
L 243.622309 261.75928 
L 248.581492 258.712954 
L 256.295778 253.635744 
L 262.908023 245.512207 
L 268.969247 240.434996 
L 273.928431 235.357786 
L 278.887615 233.326902 
L 284.948839 230.280576 
L 289.357003 228.249691 
L 293.214145 221.141597 
L 300.928431 218.09527 
L 310.846798 207.94085 
L 318.010064 204.894523 
L 325.724349 200.832755 
L 329.030472 196.770987 
L 334.540676 191.693776 
L 345.561084 187.632008 
L 353.82639 180.523913 
L 359.336594 174.431261 
L 367.05088 171.384934 
L 376.418227 165.292282 
L 390.193737 159.199629 
L 400.663125 157.168745 
L 411.683533 150.06065 
L 419.397819 144.98344 
L 432.622309 141.937114 
L 446.397819 137.875345 
L 465.132513 127.720924 
L 486.071288 120.61283 
L 504.254962 115.535619 
L 527.397819 113.504735 
L 545.581492 105.381198 
L 570.377411 98.273104 
L 595.173329 94.211335 
L 634.295778 85.072356 
L 670.112105 71.871609 
L 713.091696 64.763515 
L 797.948839 43.439231 
L 940.663125 20.084063 
" clip-path="url(#p5a5e50a543)" style="fill: none; stroke: #414487; stroke-width: 5; stroke-linecap: round"/>
   </g>
   <g id="line2d_7">
    <path d="M 103.663125 835.484062 
L 115.785574 636.457412 
L 122.948839 603.963265 
L 126.254962 585.685308 
L 129.010064 566.391908 
L 131.214145 560.299256 
L 131.765166 547.098508 
L 135.622309 542.021298 
L 137.27537 536.944087 
L 143.336594 529.835993 
L 146.091696 518.66613 
L 149.397819 509.527151 
L 153.805982 500.388172 
L 154.908023 493.280077 
L 156.561084 489.218309 
L 161.520268 479.063888 
L 163.724349 478.048446 
L 166.479452 475.00212 
L 166.479452 470.940351 
L 167.030472 467.894025 
L 168.132513 465.863141 
L 169.234554 462.816815 
L 170.887615 460.78593 
L 171.989656 454.693278 
L 176.397819 449.616067 
L 178.601901 445.554299 
L 180.254962 439.461647 
L 185.214145 432.353552 
L 187.969247 431.33811 
L 194.581492 427.276341 
L 196.785574 421.183689 
L 200.091696 416.106478 
L 201.744758 412.04471 
L 207.805982 407.982942 
L 213.867207 398.843963 
L 215.520268 389.704984 
L 221.581492 385.643216 
L 228.744758 378.535121 
L 234.254962 369.396142 
L 246.377411 361.272605 
L 251.336594 359.241721 
L 255.744758 355.179953 
L 258.49986 354.164511 
L 261.254962 354.164511 
L 262.908023 354.164511 
L 265.112105 352.133627 
L 266.214145 350.102742 
L 266.765166 350.102742 
L 266.765166 348.071858 
L 266.765166 347.056416 
L 267.316186 346.040974 
L 268.969247 345.025532 
L 268.969247 342.994648 
L 271.173329 342.994648 
L 271.724349 337.917437 
L 274.479452 331.824785 
L 275.581492 324.71669 
L 278.336594 319.63948 
L 282.193737 312.531385 
L 285.49986 309.485059 
L 290.459043 305.42329 
L 296.520268 294.253427 
L 302.581492 285.114449 
L 306.438635 280.037238 
L 312.49986 264.805607 
L 318.010064 256.68207 
L 324.071288 251.60486 
L 330.683533 245.512207 
L 337.846798 241.450439 
L 342.805982 235.357786 
L 350.520268 223.172481 
L 353.82639 218.09527 
L 358.234554 217.079828 
L 360.989656 212.002618 
L 363.744758 207.94085 
L 365.397819 201.848197 
L 366.49986 198.801871 
L 370.357003 194.740102 
L 375.867207 192.709218 
L 381.928431 187.632008 
L 391.846798 186.616566 
L 403.969247 183.570239 
L 411.132513 176.462145 
L 419.948839 172.400376 
L 429.867207 169.35405 
L 443.642717 160.215071 
L 455.214145 152.091534 
L 464.581492 148.029766 
L 477.254962 144.98344 
L 492.683533 136.859903 
L 514.173329 121.628272 
L 552.193737 100.303988 
L 940.663125 20.084063 
" clip-path="url(#p5a5e50a543)" style="fill: none; stroke: #440154; stroke-width: 5; stroke-linecap: round"/>
   </g>
   <g id="patch_3">
    <path d="M 103.663125 835.484062 
L 103.663125 20.084063 
" style="fill: none; stroke: #262626; stroke-width: 1.25; stroke-linejoin: miter; stroke-linecap: square"/>
   </g>
   <g id="patch_4">
    <path d="M 940.663125 835.484062 
L 940.663125 20.084063 
" style="fill: none; stroke: #262626; stroke-width: 1.25; stroke-linejoin: miter; stroke-linecap: square"/>
   </g>
   <g id="patch_5">
    <path d="M 103.663125 835.484062 
L 940.663125 835.484062 
" style="fill: none; stroke: #262626; stroke-width: 1.25; stroke-linejoin: miter; stroke-linecap: square"/>
   </g>
   <g id="patch_6">
    <path d="M 103.663125 20.084063 
L 940.663125 20.084063 
" style="fill: none; stroke: #262626; stroke-width: 1.25; stroke-linejoin: miter; stroke-linecap: square"/>
   </g>
   <g id="legend_1">
    <g id="patch_7">
     <path d="M 45.163125 1308.467812 
L 970.610625 1308.467812 
Q 977.810625 1308.467812 977.810625 1301.267812 
L 977.810625 942.224062 
Q 977.810625 935.024062 970.610625 935.024062 
L 45.163125 935.024062 
Q 37.963125 935.024062 37.963125 942.224062 
L 37.963125 1301.267812 
Q 37.963125 1308.467812 45.163125 1308.467812 
z
" style="fill: #ffffff; opacity: 0.8; stroke: #cccccc; stroke-linejoin: miter"/>
    </g>
    <g id="line2d_8">
     <path d="M 52.363125 963.053437 
L 88.363125 963.053437 
L 124.363125 963.053437 
" style="fill: none; stroke: #fde725; stroke-width: 5; stroke-linecap: round"/>
    </g>
    <g id="text_15">
     <text style="fill: #262626; font: 36px 'sans-serif'; text-anchor: start" x="153.163125" y="975.653437" transform="rotate(-0, 153.163125, 975.653437)">All variables (ROC AUC = 0.98)</text>
    </g>
    <g id="line2d_9">
     <path d="M 52.363125 1014.859687 
L 88.363125 1014.859687 
L 124.363125 1014.859687 
" style="fill: none; stroke: #a5db36; stroke-width: 5; stroke-linecap: round"/>
    </g>
    <g id="text_16">
     <text style="fill: #262626; font: 36px 'sans-serif'; text-anchor: start" x="153.163125" y="1027.459687" transform="rotate(-0, 153.163125, 1027.459687)">NAD(P)H variables + Cell Size (ROC AUC = 0.96)</text>
    </g>
    <g id="line2d_10">
     <path d="M 52.363125 1066.665937 
L 88.363125 1066.665937 
L 124.363125 1066.665937 
" style="fill: none; stroke: #4ac16d; stroke-width: 5; stroke-linecap: round"/>
    </g>
    <g id="text_17">
     <text style="fill: #262626; font: 36px 'sans-serif'; text-anchor: start" x="153.163125" y="1079.265937" transform="rotate(-0, 153.163125, 1079.265937)">Top four variables (ROC AUC) = 0.96)</text>
    </g>
    <g id="line2d_11">
     <path d="M 52.363125 1118.472188 
L 88.363125 1118.472188 
L 124.363125 1118.472188 
" style="fill: none; stroke: #1f988b; stroke-width: 5; stroke-linecap: round"/>
    </g>
    <g id="text_18">
     <text style="fill: #262626; font: 36px 'sans-serif'; text-anchor: start" x="153.163125" y="1131.072187" transform="rotate(-0, 153.163125, 1131.072187)">Top three variables (ROC AUC) = 0.94)</text>
    </g>
    <g id="line2d_12">
     <path d="M 52.363125 1170.278438 
L 88.363125 1170.278438 
L 124.363125 1170.278438 
" style="fill: none; stroke: #2a788e; stroke-width: 5; stroke-linecap: round"/>
    </g>
    <g id="text_19">
     <text style="fill: #262626; font: 36px 'sans-serif'; text-anchor: start" x="153.163125" y="1182.878438" transform="rotate(-0, 153.163125, 1182.878438)">Top two variables (ROC AUC) = 0.88)</text>
    </g>
    <g id="line2d_13">
     <path d="M 52.363125 1222.084687 
L 88.363125 1222.084687 
L 124.363125 1222.084687 
" style="fill: none; stroke: #414487; stroke-width: 5; stroke-linecap: round"/>
    </g>
    <g id="text_20">
     <text style="fill: #262626; font: 36px 'sans-serif'; text-anchor: start" x="153.163125" y="1234.684687" transform="rotate(-0, 153.163125, 1234.684687)">Norm. Redox Ratio + Cell Size (ROC AUC) = 0.84)</text>
    </g>
    <g id="line2d_14">
     <path d="M 52.363125 1273.890938 
L 88.363125 1273.890938 
L 124.363125 1273.890938 
" style="fill: none; stroke: #440154; stroke-width: 5; stroke-linecap: round"/>
    </g>
    <g id="text_21">
     <text style="fill: #262626; font: 36px 'sans-serif'; text-anchor: start" x="153.163125" y="1286.490937" transform="rotate(-0, 153.163125, 1286.490937)">Top variable (ROC AUC) = 0.80)</text>
    </g>
   </g>
  </g>
 </g>
 <defs>
  <clipPath id="p5a5e50a543">
   <rect x="103.663125" y="20.084063" width="837" height="815.4"/>
  </clipPath>
 </defs>
</svg>
