<?xml version="1.0" encoding="utf-8" standalone="no"?>
<!DOCTYPE svg PUBLIC "-//W3C//DTD SVG 1.1//EN"
  "http://www.w3.org/Graphics/SVG/1.1/DTD/svg11.dtd">
<svg xmlns:xlink="http://www.w3.org/1999/xlink" width="956.372813pt" height="1115.462812pt" viewBox="0 0 956.372813 1115.462812" xmlns="http://www.w3.org/2000/svg" version="1.1">
 <metadata>
  <rdf:RDF xmlns:dc="http://purl.org/dc/elements/1.1/" xmlns:cc="http://creativecommons.org/ns#" xmlns:rdf="http://www.w3.org/1999/02/22-rdf-syntax-ns#">
   <cc:Work>
    <dc:type rdf:resource="http://purl.org/dc/dcmitype/StillImage"/>
    <dc:date>2022-09-07T15:12:14.027118</dc:date>
    <dc:format>image/svg+xml</dc:format>
    <dc:creator>
     <cc:Agent>
      <dc:title>Matplotlib v3.5.1, https://matplotlib.org/</dc:title>
     </cc:Agent>
    </dc:creator>
   </cc:Work>
  </rdf:RDF>
 </metadata>
 <defs>
  <style type="text/css">*{stroke-linejoin: round; stroke-linecap: butt}</style>
 </defs>
 <g id="figure_1">
  <g id="patch_1">
   <path d="M 0 1115.462812 
L 956.372813 1115.462812 
L 956.372813 0 
L 0 0 
z
" style="fill: #ffffff"/>
  </g>
  <g id="axes_1">
   <g id="patch_2">
    <path d="M 102.163125 851.684062 
L 939.163125 851.684062 
L 939.163125 20.084063 
L 102.163125 20.084063 
z
" style="fill: #ffffff"/>
   </g>
   <g id="matplotlib.axis_1">
    <g id="xtick_1">
     <g id="text_1">
      <text style="font: 36px 'sans-serif'; text-anchor: middle" x="102.163125" y="885.452188" transform="rotate(-0, 102.163125, 885.452188)">0</text>
     </g>
    </g>
    <g id="xtick_2">
     <g id="text_2">
      <text style="font: 36px 'sans-serif'; text-anchor: middle" x="269.563125" y="885.452188" transform="rotate(-0, 269.563125, 885.452188)">0.2</text>
     </g>
    </g>
    <g id="xtick_3">
     <g id="text_3">
      <text style="font: 36px 'sans-serif'; text-anchor: middle" x="436.963125" y="885.452188" transform="rotate(-0, 436.963125, 885.452188)">0.4</text>
     </g>
    </g>
    <g id="xtick_4">
     <g id="text_4">
      <text style="font: 36px 'sans-serif'; text-anchor: middle" x="604.363125" y="885.452188" transform="rotate(-0, 604.363125, 885.452188)">0.6</text>
     </g>
    </g>
    <g id="xtick_5">
     <g id="text_5">
      <text style="font: 36px 'sans-serif'; text-anchor: middle" x="771.763125" y="885.452188" transform="rotate(-0, 771.763125, 885.452188)">0.8</text>
     </g>
    </g>
    <g id="xtick_6">
     <g id="text_6">
      <text style="font: 36px 'sans-serif'; text-anchor: middle" x="939.163125" y="885.452188" transform="rotate(-0, 939.163125, 885.452188)">1</text>
     </g>
    </g>
    <g id="xtick_7"/>
    <g id="xtick_8"/>
    <g id="xtick_9"/>
    <g id="xtick_10"/>
    <g id="xtick_11"/>
    <g id="xtick_12"/>
    <g id="xtick_13"/>
    <g id="xtick_14"/>
    <g id="xtick_15"/>
    <g id="xtick_16"/>
    <g id="xtick_17"/>
    <g id="xtick_18"/>
    <g id="xtick_19"/>
    <g id="xtick_20"/>
    <g id="xtick_21"/>
    <g id="text_7">
     <text style="fill: #262626; font: 36px 'sans-serif'; text-anchor: middle" x="520.663125" y="922.375312" transform="rotate(-0, 520.663125, 922.375312)">False Positive Rate</text>
    </g>
   </g>
   <g id="matplotlib.axis_2">
    <g id="ytick_1">
     <g id="text_8">
      <text style="font: 36px 'sans-serif'; text-anchor: end" x="94.163125" y="864.568125" transform="rotate(-0, 94.163125, 864.568125)">0</text>
     </g>
    </g>
    <g id="ytick_2">
     <g id="text_9">
      <text style="font: 36px 'sans-serif'; text-anchor: end" x="94.163125" y="698.248125" transform="rotate(-0, 94.163125, 698.248125)">0.2</text>
     </g>
    </g>
    <g id="ytick_3">
     <g id="text_10">
      <text style="font: 36px 'sans-serif'; text-anchor: end" x="94.163125" y="531.928125" transform="rotate(-0, 94.163125, 531.928125)">0.4</text>
     </g>
    </g>
    <g id="ytick_4">
     <g id="text_11">
      <text style="font: 36px 'sans-serif'; text-anchor: end" x="94.163125" y="365.608125" transform="rotate(-0, 94.163125, 365.608125)">0.6</text>
     </g>
    </g>
    <g id="ytick_5">
     <g id="text_12">
      <text style="font: 36px 'sans-serif'; text-anchor: end" x="94.163125" y="199.288125" transform="rotate(-0, 94.163125, 199.288125)">0.8</text>
     </g>
    </g>
    <g id="ytick_6">
     <g id="text_13">
      <text style="font: 36px 'sans-serif'; text-anchor: end" x="94.163125" y="32.968125" transform="rotate(-0, 94.163125, 32.968125)">1</text>
     </g>
    </g>
    <g id="ytick_7"/>
    <g id="ytick_8"/>
    <g id="ytick_9"/>
    <g id="ytick_10"/>
    <g id="ytick_11"/>
    <g id="ytick_12"/>
    <g id="ytick_13"/>
    <g id="ytick_14"/>
    <g id="ytick_15"/>
    <g id="ytick_16"/>
    <g id="ytick_17"/>
    <g id="ytick_18"/>
    <g id="ytick_19"/>
    <g id="ytick_20"/>
    <g id="ytick_21"/>
    <g id="text_14">
     <text style="fill: #262626; font: 36px 'sans-serif'; text-anchor: middle" x="32.968125" y="435.884063" transform="rotate(-90, 32.968125, 435.884063)">True Positive Rate</text>
    </g>
   </g>
   <g id="line2d_1">
    <path d="M 102.163125 851.684062 
L 102.163125 680.80735 
L 102.163125 615.563515 
L 102.163125 549.284063 
L 102.163125 508.895021 
L 102.163125 470.577213 
L 102.163125 441.579953 
L 102.163125 419.832008 
L 102.163125 402.226528 
L 102.163125 385.656665 
L 102.163125 372.193652 
L 102.163125 347.338857 
L 102.163125 333.875843 
L 102.163125 321.448446 
L 102.163125 305.914199 
L 102.714145 300.736117 
L 102.714145 286.237487 
L 102.714145 277.952556 
L 102.714145 263.453926 
L 103.265166 255.168994 
L 104.918227 245.848446 
L 105.469247 242.741597 
L 106.020268 236.527898 
L 107.673329 224.100501 
L 107.673329 214.779953 
L 107.673329 209.601871 
L 108.77537 205.459405 
L 110.428431 197.174473 
L 110.979452 194.067624 
L 110.979452 183.71146 
L 111.530472 177.497761 
L 112.632513 174.390912 
L 112.632513 172.319679 
L 113.183533 169.21283 
L 115.387615 169.21283 
L 115.938635 169.21283 
L 116.489656 164.034747 
L 117.040676 159.892282 
L 117.040676 155.749816 
L 118.142717 150.571734 
L 120.346798 145.393652 
L 122.55088 143.322419 
L 124.203941 140.215569 
L 125.857003 138.144336 
L 127.510064 134.001871 
L 128.061084 130.895021 
L 129.163125 129.859405 
L 134.673329 127.788172 
L 136.877411 124.681323 
L 137.979452 122.61009 
L 138.530472 117.432008 
L 140.183533 115.360775 
L 141.285574 114.325158 
L 142.387615 112.253926 
L 145.142717 110.182693 
L 146.244758 105.00461 
L 147.897819 105.00461 
L 148.99986 99.826528 
L 150.652921 93.61283 
L 152.305982 92.577213 
L 155.612105 89.470364 
L 156.714145 85.327898 
L 157.265166 83.256665 
L 158.918227 81.185432 
L 161.673329 81.185432 
L 163.32639 80.149816 
L 169.387615 78.078583 
L 171.591696 77.042967 
L 177.101901 72.900501 
L 182.061084 71.864884 
L 185.918227 67.722419 
L 189.224349 62.544336 
L 193.081492 61.50872 
L 196.938635 59.437487 
L 203.55088 56.330638 
L 209.061084 52.188172 
L 215.673329 51.152556 
L 223.387615 50.116939 
L 232.203941 50.116939 
L 241.020268 49.081323 
L 248.183533 48.045706 
L 252.591696 47.01009 
L 259.203941 45.974473 
L 269.673329 44.938857 
L 281.244758 43.903241 
L 292.265166 41.832008 
L 305.489656 38.725158 
L 322.020268 34.582693 
L 339.101901 30.440227 
L 358.387615 30.440227 
L 389.795778 28.368994 
L 420.101901 26.297761 
L 471.346798 25.262145 
L 521.489656 24.226528 
L 595.877411 24.226528 
L 703.32639 23.190912 
L 939.163125 20.084063 
" clip-path="url(#pe3bcd3c8b1)" style="fill: none; stroke: #fde725; stroke-width: 7; stroke-linecap: round"/>
   </g>
   <g id="line2d_2">
    <path d="M 102.163125 851.684062 
L 102.163125 847.541597 
L 102.714145 847.541597 
L 102.714145 822.686802 
L 103.265166 822.686802 
L 103.265166 812.330638 
L 103.816186 812.330638 
L 103.816186 791.618309 
L 104.367207 791.618309 
L 104.367207 790.582693 
L 104.918227 790.582693 
L 104.918227 789.547076 
L 105.469247 789.547076 
L 105.469247 783.333378 
L 106.571288 783.333378 
L 106.571288 782.297761 
L 107.122309 782.297761 
L 107.122309 768.834747 
L 107.673329 768.834747 
L 107.673329 760.549816 
L 108.224349 760.549816 
L 108.224349 750.193652 
L 109.32639 750.193652 
L 109.32639 742.944336 
L 109.877411 742.944336 
L 109.877411 721.196391 
L 110.428431 721.196391 
L 110.428431 711.875843 
L 110.979452 711.875843 
L 110.979452 699.448446 
L 111.530472 699.448446 
L 111.530472 668.379953 
L 112.081492 668.379953 
L 112.081492 632.133378 
L 112.632513 632.133378 
L 112.632513 616.599131 
L 113.183533 616.599131 
L 113.183533 615.563515 
L 113.734554 615.563515 
L 113.734554 607.278583 
L 114.285574 607.278583 
L 114.285574 591.744336 
L 114.836594 591.744336 
L 114.836594 590.70872 
L 115.387615 590.70872 
L 115.387615 589.673104 
L 115.938635 589.673104 
L 115.938635 576.21009 
L 116.489656 576.21009 
L 116.489656 535.821049 
L 117.591696 535.821049 
L 117.591696 528.571734 
L 118.142717 528.571734 
L 118.142717 524.429268 
L 119.244758 524.429268 
L 119.244758 494.396391 
L 119.795778 494.396391 
L 119.795778 485.075843 
L 120.346798 485.075843 
L 120.346798 481.968994 
L 120.897819 481.968994 
L 120.897819 459.185432 
L 121.448839 459.185432 
L 121.448839 452.971734 
L 121.99986 452.971734 
L 121.99986 447.793652 
L 123.652921 447.793652 
L 123.652921 437.437487 
L 124.203941 437.437487 
L 124.203941 435.366254 
L 124.754962 435.366254 
L 124.754962 418.796391 
L 125.305982 418.796391 
L 125.305982 414.653926 
L 125.857003 414.653926 
L 125.857003 412.582693 
L 126.408023 412.582693 
L 126.408023 404.297761 
L 126.959043 404.297761 
L 126.959043 399.119679 
L 127.510064 399.119679 
L 127.510064 397.048446 
L 128.061084 397.048446 
L 128.061084 396.01283 
L 128.612105 396.01283 
L 128.612105 368.051186 
L 129.163125 368.051186 
L 129.163125 363.90872 
L 129.714145 363.90872 
L 129.714145 360.801871 
L 130.816186 360.801871 
L 130.816186 328.697761 
L 131.367207 328.697761 
L 131.367207 323.519679 
L 131.918227 323.519679 
L 131.918227 318.341597 
L 133.020268 318.341597 
L 133.020268 307.985432 
L 133.571288 307.985432 
L 133.571288 299.700501 
L 134.122309 299.700501 
L 134.122309 294.522419 
L 134.673329 294.522419 
L 134.673329 292.451186 
L 135.77537 292.451186 
L 135.77537 290.379953 
L 136.32639 290.379953 
L 136.32639 288.30872 
L 137.979452 288.30872 
L 137.979452 273.81009 
L 138.530472 273.81009 
L 138.530472 269.667624 
L 139.081492 269.667624 
L 139.081492 261.382693 
L 139.632513 261.382693 
L 139.632513 260.347076 
L 140.183533 260.347076 
L 140.183533 258.275843 
L 140.734554 258.275843 
L 140.734554 252.062145 
L 141.285574 252.062145 
L 141.285574 251.026528 
L 141.836594 251.026528 
L 141.836594 247.919679 
L 142.938635 247.919679 
L 142.938635 240.670364 
L 143.489656 240.670364 
L 143.489656 236.527898 
L 144.591696 236.527898 
L 144.591696 234.456665 
L 145.142717 234.456665 
L 145.142717 231.349816 
L 146.244758 231.349816 
L 146.244758 229.278583 
L 146.795778 229.278583 
L 146.795778 224.100501 
L 147.897819 224.100501 
L 147.897819 223.064884 
L 148.448839 223.064884 
L 148.448839 222.029268 
L 148.99986 222.029268 
L 148.99986 220.993652 
L 151.203941 220.993652 
L 151.203941 219.958035 
L 152.857003 219.958035 
L 152.857003 217.886802 
L 153.408023 217.886802 
L 153.408023 216.851186 
L 154.510064 216.851186 
L 154.510064 215.815569 
L 155.061084 215.815569 
L 155.061084 214.779953 
L 155.612105 214.779953 
L 155.612105 213.744336 
L 156.714145 213.744336 
L 156.714145 212.70872 
L 157.265166 212.70872 
L 157.265166 211.673104 
L 157.816186 211.673104 
L 157.816186 208.566254 
L 158.367207 208.566254 
L 158.367207 205.459405 
L 158.918227 205.459405 
L 158.918227 202.352556 
L 159.469247 202.352556 
L 159.469247 201.316939 
L 160.571288 201.316939 
L 160.571288 198.21009 
L 161.122309 198.21009 
L 161.122309 195.103241 
L 162.224349 195.103241 
L 162.224349 194.067624 
L 162.77537 194.067624 
L 162.77537 193.032008 
L 165.530472 193.032008 
L 165.530472 191.996391 
L 166.081492 191.996391 
L 166.081492 190.960775 
L 166.632513 190.960775 
L 166.632513 188.889542 
L 167.183533 188.889542 
L 167.183533 185.782693 
L 171.040676 185.782693 
L 171.040676 183.71146 
L 172.693737 183.71146 
L 172.693737 181.640227 
L 173.795778 181.640227 
L 173.795778 180.60461 
L 174.346798 180.60461 
L 174.346798 178.533378 
L 177.101901 178.533378 
L 177.101901 177.497761 
L 178.754962 177.497761 
L 178.754962 176.462145 
L 179.857003 176.462145 
L 179.857003 174.390912 
L 180.408023 174.390912 
L 180.408023 173.355295 
L 180.959043 173.355295 
L 180.959043 170.248446 
L 181.510064 170.248446 
L 181.510064 169.21283 
L 187.571288 169.21283 
L 187.571288 167.141597 
L 188.673329 167.141597 
L 188.673329 166.10598 
L 189.77537 166.10598 
L 189.77537 165.070364 
L 192.530472 165.070364 
L 192.530472 164.034747 
L 194.183533 164.034747 
L 194.183533 162.999131 
L 195.285574 162.999131 
L 195.285574 161.963515 
L 195.836594 161.963515 
L 195.836594 160.927898 
L 196.387615 160.927898 
L 196.387615 159.892282 
L 197.489656 159.892282 
L 197.489656 158.856665 
L 198.040676 158.856665 
L 198.040676 157.821049 
L 199.693737 157.821049 
L 199.693737 155.749816 
L 201.897819 155.749816 
L 201.897819 153.678583 
L 203.55088 153.678583 
L 203.55088 152.642967 
L 205.203941 152.642967 
L 205.203941 151.60735 
L 206.857003 151.60735 
L 206.857003 150.571734 
L 209.061084 150.571734 
L 209.061084 149.536117 
L 210.714145 149.536117 
L 210.714145 148.500501 
L 211.265166 148.500501 
L 211.265166 147.464884 
L 215.673329 147.464884 
L 215.673329 146.429268 
L 216.77537 146.429268 
L 216.77537 145.393652 
L 223.387615 145.393652 
L 223.387615 144.358035 
L 229.99986 144.358035 
L 229.99986 143.322419 
L 231.652921 143.322419 
L 231.652921 142.286802 
L 232.203941 142.286802 
L 232.203941 140.215569 
L 236.061084 140.215569 
L 236.061084 139.179953 
L 239.918227 139.179953 
L 239.918227 138.144336 
L 242.122309 138.144336 
L 242.122309 137.10872 
L 243.224349 137.10872 
L 243.224349 136.073104 
L 244.877411 136.073104 
L 244.877411 135.037487 
L 249.285574 135.037487 
L 249.285574 134.001871 
L 253.142717 134.001871 
L 253.142717 131.930638 
L 261.959043 131.930638 
L 261.959043 130.895021 
L 262.510064 130.895021 
L 262.510064 129.859405 
L 263.612105 129.859405 
L 263.612105 128.823789 
L 266.918227 128.823789 
L 266.918227 127.788172 
L 276.285574 127.788172 
L 276.285574 126.752556 
L 277.938635 126.752556 
L 277.938635 124.681323 
L 280.142717 124.681323 
L 280.142717 123.645706 
L 286.754962 123.645706 
L 286.754962 122.61009 
L 290.612105 122.61009 
L 290.612105 120.538857 
L 293.918227 120.538857 
L 293.918227 119.503241 
L 299.979452 119.503241 
L 299.979452 118.467624 
L 305.489656 118.467624 
L 305.489656 117.432008 
L 306.040676 117.432008 
L 306.040676 116.396391 
L 309.897819 116.396391 
L 309.897819 115.360775 
L 314.857003 115.360775 
L 314.857003 114.325158 
L 322.020268 114.325158 
L 322.020268 113.289542 
L 331.938635 113.289542 
L 331.938635 112.253926 
L 341.857003 112.253926 
L 341.857003 111.218309 
L 342.408023 111.218309 
L 342.408023 110.182693 
L 349.571288 110.182693 
L 349.571288 109.147076 
L 363.897819 109.147076 
L 363.897819 108.11146 
L 369.959043 108.11146 
L 369.959043 107.075843 
L 373.265166 107.075843 
L 373.265166 105.00461 
L 373.816186 105.00461 
L 373.816186 103.968994 
L 376.571288 103.968994 
L 376.571288 101.897761 
L 377.122309 101.897761 
L 377.122309 100.862145 
L 378.224349 100.862145 
L 378.224349 99.826528 
L 379.32639 99.826528 
L 379.32639 98.790912 
L 383.183533 98.790912 
L 383.183533 97.755295 
L 388.693737 97.755295 
L 388.693737 96.719679 
L 389.795778 96.719679 
L 389.795778 95.684063 
L 392.55088 95.684063 
L 392.55088 94.648446 
L 398.061084 94.648446 
L 398.061084 93.61283 
L 399.163125 93.61283 
L 399.163125 92.577213 
L 421.754962 92.577213 
L 421.754962 91.541597 
L 424.510064 91.541597 
L 424.510064 90.50598 
L 445.99986 90.50598 
L 445.99986 89.470364 
L 458.673329 89.470364 
L 458.673329 88.434747 
L 471.897819 88.434747 
L 471.897819 87.399131 
L 474.101901 87.399131 
L 474.101901 86.363515 
L 476.857003 86.363515 
L 476.857003 85.327898 
L 492.836594 85.327898 
L 492.836594 84.292282 
L 505.510064 84.292282 
L 505.510064 83.256665 
L 513.77537 83.256665 
L 513.77537 82.221049 
L 519.836594 82.221049 
L 519.836594 81.185432 
L 528.101901 81.185432 
L 528.101901 80.149816 
L 536.367207 80.149816 
L 536.367207 79.114199 
L 544.081492 79.114199 
L 544.081492 78.078583 
L 546.285574 78.078583 
L 546.285574 77.042967 
L 546.836594 77.042967 
L 546.836594 76.00735 
L 554.55088 76.00735 
L 554.55088 74.971734 
L 566.122309 74.971734 
L 566.122309 72.900501 
L 570.530472 72.900501 
L 570.530472 71.864884 
L 578.795778 71.864884 
L 578.795778 70.829268 
L 585.408023 70.829268 
L 585.408023 69.793652 
L 604.693737 69.793652 
L 604.693737 68.758035 
L 606.346798 68.758035 
L 606.346798 67.722419 
L 616.816186 67.722419 
L 616.816186 66.686802 
L 637.203941 66.686802 
L 637.203941 65.651186 
L 640.510064 65.651186 
L 640.510064 64.615569 
L 653.734554 64.615569 
L 653.734554 63.579953 
L 660.346798 63.579953 
L 660.346798 62.544336 
L 661.448839 62.544336 
L 661.448839 60.473104 
L 668.061084 60.473104 
L 668.061084 59.437487 
L 669.714145 59.437487 
L 669.714145 58.401871 
L 671.367207 58.401871 
L 671.367207 56.330638 
L 680.734554 56.330638 
L 680.734554 55.295021 
L 687.897819 55.295021 
L 687.897819 54.259405 
L 693.959043 54.259405 
L 693.959043 53.223789 
L 701.122309 53.223789 
L 701.122309 52.188172 
L 710.489656 52.188172 
L 710.489656 51.152556 
L 711.040676 51.152556 
L 711.040676 49.081323 
L 714.897819 49.081323 
L 714.897819 48.045706 
L 717.101901 48.045706 
L 717.101901 47.01009 
L 718.203941 47.01009 
L 718.203941 45.974473 
L 719.857003 45.974473 
L 719.857003 44.938857 
L 720.408023 44.938857 
L 720.408023 42.867624 
L 729.224349 42.867624 
L 729.224349 41.832008 
L 744.101901 41.832008 
L 744.101901 40.796391 
L 752.918227 40.796391 
L 752.918227 39.760775 
L 759.530472 39.760775 
L 759.530472 38.725158 
L 760.081492 38.725158 
L 760.081492 37.689542 
L 762.285574 37.689542 
L 762.285574 36.653926 
L 763.387615 36.653926 
L 763.387615 35.618309 
L 776.061084 35.618309 
L 776.061084 34.582693 
L 782.673329 34.582693 
L 782.673329 33.547076 
L 786.530472 33.547076 
L 786.530472 32.51146 
L 788.183533 32.51146 
L 788.183533 31.475843 
L 795.346798 31.475843 
L 795.346798 29.40461 
L 800.305982 29.40461 
L 800.305982 28.368994 
L 803.612105 28.368994 
L 803.612105 27.333378 
L 808.020268 27.333378 
L 808.020268 26.297761 
L 817.938635 26.297761 
L 817.938635 25.262145 
L 841.081492 25.262145 
L 841.081492 24.226528 
L 853.754962 24.226528 
L 853.754962 23.190912 
L 893.428431 23.190912 
L 893.428431 22.155295 
L 905.55088 22.155295 
L 905.55088 21.119679 
L 931.99986 21.119679 
L 931.99986 20.084063 
L 939.163125 20.084063 
L 939.163125 20.084063 
" clip-path="url(#pe3bcd3c8b1)" style="fill: none; stroke: #1f988b; stroke-width: 7; stroke-linecap: round"/>
   </g>
   <g id="line2d_3">
    <path d="M 102.163125 851.684062 
L 102.163125 814.401871 
L 102.714145 814.401871 
L 102.714145 790.582693 
L 103.265166 790.582693 
L 103.265166 775.048446 
L 103.816186 775.048446 
L 103.816186 745.015569 
L 104.367207 745.015569 
L 104.367207 741.90872 
L 104.918227 741.90872 
L 104.918227 734.659405 
L 105.469247 734.659405 
L 105.469247 729.481323 
L 106.020268 729.481323 
L 106.020268 710.840227 
L 106.571288 710.840227 
L 106.571288 689.092282 
L 107.122309 689.092282 
L 107.122309 669.415569 
L 107.673329 669.415569 
L 107.673329 666.30872 
L 108.224349 666.30872 
L 108.224349 663.201871 
L 108.77537 663.201871 
L 108.77537 645.596391 
L 109.32639 645.596391 
L 109.32639 639.382693 
L 109.877411 639.382693 
L 109.877411 637.31146 
L 110.428431 637.31146 
L 110.428431 624.884063 
L 110.979452 624.884063 
L 110.979452 623.848446 
L 111.530472 623.848446 
L 111.530472 620.741597 
L 112.081492 620.741597 
L 112.081492 607.278583 
L 112.632513 607.278583 
L 112.632513 596.922419 
L 113.183533 596.922419 
L 113.183533 590.70872 
L 113.734554 590.70872 
L 113.734554 580.352556 
L 114.285574 580.352556 
L 114.285574 573.103241 
L 114.836594 573.103241 
L 114.836594 556.533378 
L 115.387615 556.533378 
L 115.387615 525.464884 
L 115.938635 525.464884 
L 115.938635 521.322419 
L 116.489656 521.322419 
L 116.489656 517.179953 
L 117.040676 517.179953 
L 117.040676 514.073104 
L 117.591696 514.073104 
L 117.591696 512.001871 
L 118.142717 512.001871 
L 118.142717 505.788172 
L 118.693737 505.788172 
L 118.693737 504.752556 
L 119.244758 504.752556 
L 119.244758 492.325158 
L 119.795778 492.325158 
L 119.795778 489.218309 
L 120.346798 489.218309 
L 120.346798 483.00461 
L 120.897819 483.00461 
L 120.897819 478.862145 
L 121.448839 478.862145 
L 121.448839 477.826528 
L 121.99986 477.826528 
L 121.99986 476.790912 
L 122.55088 476.790912 
L 122.55088 456.078583 
L 123.101901 456.078583 
L 123.101901 442.615569 
L 123.652921 442.615569 
L 123.652921 440.544336 
L 124.203941 440.544336 
L 124.203941 430.188172 
L 124.754962 430.188172 
L 124.754962 413.618309 
L 125.305982 413.618309 
L 125.305982 410.51146 
L 125.857003 410.51146 
L 125.857003 406.368994 
L 126.408023 406.368994 
L 126.408023 404.297761 
L 126.959043 404.297761 
L 126.959043 400.155295 
L 127.510064 400.155295 
L 127.510064 396.01283 
L 128.061084 396.01283 
L 128.061084 386.692282 
L 128.612105 386.692282 
L 128.612105 379.442967 
L 129.163125 379.442967 
L 129.163125 374.264884 
L 130.265166 374.264884 
L 130.265166 362.873104 
L 130.816186 362.873104 
L 130.816186 356.659405 
L 131.367207 356.659405 
L 131.367207 354.588172 
L 131.918227 354.588172 
L 131.918227 351.481323 
L 133.020268 351.481323 
L 133.020268 349.41009 
L 133.571288 349.41009 
L 133.571288 348.374473 
L 134.122309 348.374473 
L 134.122309 343.196391 
L 135.224349 343.196391 
L 135.224349 339.053926 
L 136.32639 339.053926 
L 136.32639 338.018309 
L 136.877411 338.018309 
L 136.877411 330.768994 
L 138.530472 330.768994 
L 138.530472 329.733378 
L 139.081492 329.733378 
L 139.081492 324.555295 
L 139.632513 324.555295 
L 139.632513 323.519679 
L 141.285574 323.519679 
L 141.285574 317.30598 
L 141.836594 317.30598 
L 141.836594 312.127898 
L 142.387615 312.127898 
L 142.387615 310.056665 
L 143.489656 310.056665 
L 143.489656 306.949816 
L 144.591696 306.949816 
L 144.591696 303.842967 
L 145.693737 303.842967 
L 145.693737 300.736117 
L 146.244758 300.736117 
L 146.244758 295.558035 
L 147.897819 295.558035 
L 147.897819 289.344336 
L 148.448839 289.344336 
L 148.448839 287.273104 
L 148.99986 287.273104 
L 148.99986 284.166254 
L 149.55088 284.166254 
L 149.55088 283.130638 
L 150.652921 283.130638 
L 150.652921 269.667624 
L 151.203941 269.667624 
L 151.203941 268.632008 
L 151.754962 268.632008 
L 151.754962 266.560775 
L 152.305982 266.560775 
L 152.305982 264.489542 
L 152.857003 264.489542 
L 152.857003 256.20461 
L 153.408023 256.20461 
L 153.408023 255.168994 
L 154.510064 255.168994 
L 154.510064 252.062145 
L 155.061084 252.062145 
L 155.061084 248.955295 
L 156.163125 248.955295 
L 156.163125 243.777213 
L 156.714145 237.563515 
L 157.816186 237.563515 
L 157.816186 232.385432 
L 159.469247 232.385432 
L 159.469247 223.064884 
L 161.122309 223.064884 
L 161.122309 222.029268 
L 162.224349 222.029268 
L 162.224349 217.886802 
L 163.32639 217.886802 
L 163.32639 214.779953 
L 164.428431 214.779953 
L 164.428431 213.744336 
L 164.979452 213.744336 
L 164.979452 207.530638 
L 165.530472 207.530638 
L 165.530472 206.495021 
L 166.081492 206.495021 
L 166.081492 204.423789 
L 166.632513 204.423789 
L 166.632513 202.352556 
L 167.734554 202.352556 
L 167.734554 201.316939 
L 168.285574 201.316939 
L 168.285574 199.245706 
L 168.836594 199.245706 
L 168.836594 195.103241 
L 169.938635 195.103241 
L 169.938635 190.960775 
L 170.489656 190.960775 
L 170.489656 188.889542 
L 171.040676 188.889542 
L 171.040676 186.818309 
L 172.142717 186.818309 
L 172.142717 185.782693 
L 174.346798 185.782693 
L 174.346798 183.71146 
L 174.897819 183.71146 
L 174.897819 182.675843 
L 178.203941 182.675843 
L 178.203941 181.640227 
L 178.754962 181.640227 
L 178.754962 180.60461 
L 179.857003 180.60461 
L 179.857003 179.568994 
L 180.408023 179.568994 
L 180.408023 176.462145 
L 180.959043 176.462145 
L 180.959043 175.426528 
L 182.061084 175.426528 
L 182.061084 174.390912 
L 182.612105 174.390912 
L 182.612105 173.355295 
L 183.163125 173.355295 
L 183.163125 172.319679 
L 183.714145 172.319679 
L 183.714145 171.284063 
L 184.816186 171.284063 
L 184.816186 170.248446 
L 185.918227 170.248446 
L 185.918227 168.177213 
L 189.224349 168.177213 
L 189.224349 167.141597 
L 189.77537 167.141597 
L 189.77537 166.10598 
L 190.32639 166.10598 
L 190.32639 165.070364 
L 192.530472 165.070364 
L 192.530472 160.927898 
L 199.142717 160.927898 
L 199.142717 159.892282 
L 200.795778 159.892282 
L 200.795778 158.856665 
L 201.346798 158.856665 
L 201.346798 156.785432 
L 202.99986 156.785432 
L 202.99986 153.678583 
L 203.55088 153.678583 
L 203.55088 152.642967 
L 206.305982 152.642967 
L 206.305982 151.60735 
L 208.510064 151.60735 
L 208.510064 149.536117 
L 209.061084 149.536117 
L 209.061084 147.464884 
L 209.612105 147.464884 
L 209.612105 146.429268 
L 211.265166 146.429268 
L 211.265166 143.322419 
L 211.816186 143.322419 
L 211.816186 142.286802 
L 214.020268 142.286802 
L 214.020268 140.215569 
L 216.224349 140.215569 
L 216.224349 139.179953 
L 218.428431 139.179953 
L 218.428431 138.144336 
L 219.530472 138.144336 
L 219.530472 137.10872 
L 220.632513 137.10872 
L 220.632513 135.037487 
L 226.142717 135.037487 
L 226.142717 134.001871 
L 227.244758 134.001871 
L 227.244758 130.895021 
L 228.346798 130.895021 
L 228.346798 129.859405 
L 229.448839 129.859405 
L 229.448839 128.823789 
L 230.55088 128.823789 
L 230.55088 127.788172 
L 231.101901 127.788172 
L 231.101901 125.716939 
L 233.857003 125.716939 
L 233.857003 124.681323 
L 234.959043 124.681323 
L 234.959043 123.645706 
L 236.061084 123.645706 
L 236.061084 122.61009 
L 237.714145 122.61009 
L 237.714145 121.574473 
L 239.367207 121.574473 
L 239.367207 120.538857 
L 244.32639 120.538857 
L 244.32639 116.396391 
L 244.877411 116.396391 
L 244.877411 115.360775 
L 247.081492 115.360775 
L 247.081492 114.325158 
L 250.938635 114.325158 
L 250.938635 111.218309 
L 256.99986 111.218309 
L 256.99986 110.182693 
L 264.714145 110.182693 
L 264.714145 109.147076 
L 265.816186 109.147076 
L 265.816186 108.11146 
L 266.918227 108.11146 
L 266.918227 107.075843 
L 273.530472 107.075843 
L 273.530472 106.040227 
L 277.387615 106.040227 
L 277.387615 102.933378 
L 283.99986 102.933378 
L 283.99986 100.862145 
L 295.571288 100.862145 
L 295.571288 99.826528 
L 307.142717 99.826528 
L 307.142717 97.755295 
L 311.55088 97.755295 
L 311.55088 96.719679 
L 313.754962 96.719679 
L 313.754962 93.61283 
L 322.571288 93.61283 
L 322.571288 91.541597 
L 325.877411 91.541597 
L 325.877411 90.50598 
L 329.734554 90.50598 
L 329.734554 88.434747 
L 330.836594 88.434747 
L 330.836594 87.399131 
L 331.387615 87.399131 
L 331.387615 86.363515 
L 332.489656 86.363515 
L 332.489656 85.327898 
L 334.693737 85.327898 
L 334.693737 84.292282 
L 345.714145 84.292282 
L 345.714145 83.256665 
L 359.489656 83.256665 
L 359.489656 82.221049 
L 369.408023 82.221049 
L 369.408023 81.185432 
L 374.367207 81.185432 
L 374.367207 80.149816 
L 374.918227 80.149816 
L 374.918227 79.114199 
L 376.571288 79.114199 
L 376.571288 78.078583 
L 380.428431 78.078583 
L 380.428431 77.042967 
L 382.081492 77.042967 
L 382.081492 76.00735 
L 387.040676 76.00735 
L 387.040676 74.971734 
L 399.163125 74.971734 
L 399.163125 73.936117 
L 407.979452 73.936117 
L 407.979452 72.900501 
L 410.734554 72.900501 
L 410.734554 71.864884 
L 414.591696 71.864884 
L 414.591696 70.829268 
L 419.55088 70.829268 
L 419.55088 69.793652 
L 439.938635 69.793652 
L 439.938635 68.758035 
L 448.203941 68.758035 
L 448.203941 67.722419 
L 456.469247 67.722419 
L 456.469247 66.686802 
L 464.183533 66.686802 
L 464.183533 65.651186 
L 468.040676 65.651186 
L 468.040676 64.615569 
L 470.795778 64.615569 
L 470.795778 63.579953 
L 478.510064 63.579953 
L 478.510064 62.544336 
L 491.734554 62.544336 
L 491.734554 61.50872 
L 501.101901 61.50872 
L 501.101901 60.473104 
L 510.469247 60.473104 
L 510.469247 59.437487 
L 514.877411 59.437487 
L 514.877411 58.401871 
L 523.693737 58.401871 
L 523.693737 57.366254 
L 531.959043 57.366254 
L 531.959043 56.330638 
L 532.510064 56.330638 
L 532.510064 55.295021 
L 536.367207 55.295021 
L 536.367207 54.259405 
L 554.55088 54.259405 
L 554.55088 53.223789 
L 565.571288 53.223789 
L 565.571288 52.188172 
L 566.122309 52.188172 
L 566.122309 51.152556 
L 569.979452 51.152556 
L 569.979452 50.116939 
L 588.714145 50.116939 
L 588.714145 49.081323 
L 598.632513 49.081323 
L 598.632513 48.045706 
L 599.183533 48.045706 
L 599.183533 47.01009 
L 604.142717 47.01009 
L 604.142717 45.974473 
L 606.897819 45.974473 
L 606.897819 44.938857 
L 607.99986 44.938857 
L 607.99986 43.903241 
L 610.203941 43.903241 
L 610.203941 42.867624 
L 615.163125 42.867624 
L 615.163125 41.832008 
L 625.632513 41.832008 
L 625.632513 40.796391 
L 650.428431 40.796391 
L 650.428431 39.760775 
L 655.938635 39.760775 
L 655.938635 38.725158 
L 660.346798 38.725158 
L 660.346798 37.689542 
L 669.714145 37.689542 
L 669.714145 36.653926 
L 683.489656 36.653926 
L 683.489656 35.618309 
L 688.99986 35.618309 
L 688.99986 34.582693 
L 697.816186 34.582693 
L 697.816186 33.547076 
L 714.897819 33.547076 
L 714.897819 32.51146 
L 723.163125 32.51146 
L 723.163125 31.475843 
L 749.061084 31.475843 
L 749.061084 30.440227 
L 756.77537 30.440227 
L 756.77537 29.40461 
L 758.979452 29.40461 
L 758.979452 28.368994 
L 774.959043 28.368994 
L 774.959043 27.333378 
L 779.918227 27.333378 
L 779.918227 26.297761 
L 789.285574 26.297761 
L 789.285574 25.262145 
L 793.693737 25.262145 
L 793.693737 24.226528 
L 809.673329 24.226528 
L 809.673329 23.190912 
L 859.816186 23.190912 
L 859.816186 22.155295 
L 904.448839 22.155295 
L 904.448839 21.119679 
L 916.571288 21.119679 
L 916.571288 20.084063 
L 939.163125 20.084063 
L 939.163125 20.084063 
" clip-path="url(#pe3bcd3c8b1)" style="fill: none; stroke: #440154; stroke-width: 7; stroke-linecap: round"/>
   </g>
   <g id="patch_3">
    <path d="M 102.163125 851.684062 
L 102.163125 20.084063 
" style="fill: none; stroke: #262626; stroke-width: 1.25; stroke-linejoin: miter; stroke-linecap: square"/>
   </g>
   <g id="patch_4">
    <path d="M 939.163125 851.684062 
L 939.163125 20.084063 
" style="fill: none; stroke: #262626; stroke-width: 1.25; stroke-linejoin: miter; stroke-linecap: square"/>
   </g>
   <g id="patch_5">
    <path d="M 102.163125 851.684062 
L 939.163125 851.684062 
" style="fill: none; stroke: #262626; stroke-width: 1.25; stroke-linejoin: miter; stroke-linecap: square"/>
   </g>
   <g id="patch_6">
    <path d="M 102.163125 20.084063 
L 939.163125 20.084063 
" style="fill: none; stroke: #262626; stroke-width: 1.25; stroke-linejoin: miter; stroke-linecap: square"/>
   </g>
   <g id="legend_1">
    <g id="patch_7">
     <path d="M 18.463125 1108.262812 
L 837.76125 1108.262812 
L 837.76125 934.844062 
L 18.463125 934.844062 
z
" style="fill: #ffffff; opacity: 0.8; stroke: #000000; stroke-linejoin: miter"/>
    </g>
    <g id="line2d_4">
     <path d="M 36.463125 966.473437 
L 72.463125 966.473437 
L 108.463125 966.473437 
" style="fill: none; stroke: #fde725; stroke-width: 7; stroke-linecap: round"/>
    </g>
    <g id="text_15">
     <text style="fill: #262626; font: 36px 'sans-serif'; text-anchor: start" x="126.463125" y="979.073437" transform="rotate(-0, 126.463125, 979.073437)">Random Forest (ROC AUC = 0.98)</text>
    </g>
    <g id="line2d_5">
     <path d="M 36.463125 1018.279688 
L 72.463125 1018.279688 
L 108.463125 1018.279688 
" style="fill: none; stroke: #1f988b; stroke-width: 7; stroke-linecap: round"/>
    </g>
    <g id="text_16">
     <text style="fill: #262626; font: 36px 'sans-serif'; text-anchor: start" x="126.463125" y="1030.879688" transform="rotate(-0, 126.463125, 1030.879688)">Logistic Regression (ROC AUC = 0.90)</text>
    </g>
    <g id="line2d_6">
     <path d="M 36.463125 1070.085938 
L 72.463125 1070.085938 
L 108.463125 1070.085938 
" style="fill: none; stroke: #440154; stroke-width: 7; stroke-linecap: round"/>
    </g>
    <g id="text_17">
     <text style="fill: #262626; font: 36px 'sans-serif'; text-anchor: start" x="126.463125" y="1082.685937" transform="rotate(-0, 126.463125, 1082.685937)">Support Vector Machine (ROC AUC = 0.92)</text>
    </g>
   </g>
  </g>
 </g>
 <defs>
  <clipPath id="pe3bcd3c8b1">
   <rect x="102.163125" y="20.084063" width="837" height="831.6"/>
  </clipPath>
 </defs>
</svg>
