<?xml version="1.0" encoding="utf-8" standalone="no"?>
<!DOCTYPE svg PUBLIC "-//W3C//DTD SVG 1.1//EN"
  "http://www.w3.org/Graphics/SVG/1.1/DTD/svg11.dtd">
<svg xmlns:xlink="http://www.w3.org/1999/xlink" width="961.910625pt" height="1322.687812pt" viewBox="0 0 961.910625 1322.687812" xmlns="http://www.w3.org/2000/svg" version="1.1">
 <metadata>
  <rdf:RDF xmlns:dc="http://purl.org/dc/elements/1.1/" xmlns:cc="http://creativecommons.org/ns#" xmlns:rdf="http://www.w3.org/1999/02/22-rdf-syntax-ns#">
   <cc:Work>
    <dc:type rdf:resource="http://purl.org/dc/dcmitype/StillImage"/>
    <dc:date>2022-09-07T15:10:33.995991</dc:date>
    <dc:format>image/svg+xml</dc:format>
    <dc:creator>
     <cc:Agent>
      <dc:title>Matplotlib v3.5.1, https://matplotlib.org/</dc:title>
     </cc:Agent>
    </dc:creator>
   </cc:Work>
  </rdf:RDF>
 </metadata>
 <defs>
  <style type="text/css">*{stroke-linejoin: round; stroke-linecap: butt}</style>
 </defs>
 <g id="figure_1">
  <g id="patch_1">
   <path d="M 0 1322.687812 
L 961.910625 1322.687812 
L 961.910625 0 
L 0 0 
z
" style="fill: #ffffff"/>
  </g>
  <g id="axes_1">
   <g id="patch_2">
    <path d="M 102.163125 851.684062 
L 939.163125 851.684062 
L 939.163125 20.084063 
L 102.163125 20.084063 
z
" style="fill: #ffffff"/>
   </g>
   <g id="matplotlib.axis_1">
    <g id="xtick_1">
     <g id="text_1">
      <text style="font: 36px 'sans-serif'; text-anchor: middle" x="102.163125" y="885.452188" transform="rotate(-0, 102.163125, 885.452188)">0</text>
     </g>
    </g>
    <g id="xtick_2">
     <g id="text_2">
      <text style="font: 36px 'sans-serif'; text-anchor: middle" x="269.563125" y="885.452188" transform="rotate(-0, 269.563125, 885.452188)">0.2</text>
     </g>
    </g>
    <g id="xtick_3">
     <g id="text_3">
      <text style="font: 36px 'sans-serif'; text-anchor: middle" x="436.963125" y="885.452188" transform="rotate(-0, 436.963125, 885.452188)">0.4</text>
     </g>
    </g>
    <g id="xtick_4">
     <g id="text_4">
      <text style="font: 36px 'sans-serif'; text-anchor: middle" x="604.363125" y="885.452188" transform="rotate(-0, 604.363125, 885.452188)">0.6</text>
     </g>
    </g>
    <g id="xtick_5">
     <g id="text_5">
      <text style="font: 36px 'sans-serif'; text-anchor: middle" x="771.763125" y="885.452188" transform="rotate(-0, 771.763125, 885.452188)">0.8</text>
     </g>
    </g>
    <g id="xtick_6">
     <g id="text_6">
      <text style="font: 36px 'sans-serif'; text-anchor: middle" x="939.163125" y="885.452188" transform="rotate(-0, 939.163125, 885.452188)">1</text>
     </g>
    </g>
    <g id="xtick_7"/>
    <g id="xtick_8"/>
    <g id="xtick_9"/>
    <g id="xtick_10"/>
    <g id="xtick_11"/>
    <g id="xtick_12"/>
    <g id="xtick_13"/>
    <g id="xtick_14"/>
    <g id="xtick_15"/>
    <g id="xtick_16"/>
    <g id="xtick_17"/>
    <g id="xtick_18"/>
    <g id="xtick_19"/>
    <g id="xtick_20"/>
    <g id="xtick_21"/>
    <g id="text_7">
     <text style="fill: #262626; font: 36px 'sans-serif'; text-anchor: middle" x="520.663125" y="922.375313" transform="rotate(-0, 520.663125, 922.375313)">False Positive Rate</text>
    </g>
   </g>
   <g id="matplotlib.axis_2">
    <g id="ytick_1">
     <g id="text_8">
      <text style="font: 36px 'sans-serif'; text-anchor: end" x="94.163125" y="864.568125" transform="rotate(-0, 94.163125, 864.568125)">0</text>
     </g>
    </g>
    <g id="ytick_2">
     <g id="text_9">
      <text style="font: 36px 'sans-serif'; text-anchor: end" x="94.163125" y="698.248125" transform="rotate(-0, 94.163125, 698.248125)">0.2</text>
     </g>
    </g>
    <g id="ytick_3">
     <g id="text_10">
      <text style="font: 36px 'sans-serif'; text-anchor: end" x="94.163125" y="531.928125" transform="rotate(-0, 94.163125, 531.928125)">0.4</text>
     </g>
    </g>
    <g id="ytick_4">
     <g id="text_11">
      <text style="font: 36px 'sans-serif'; text-anchor: end" x="94.163125" y="365.608125" transform="rotate(-0, 94.163125, 365.608125)">0.6</text>
     </g>
    </g>
    <g id="ytick_5">
     <g id="text_12">
      <text style="font: 36px 'sans-serif'; text-anchor: end" x="94.163125" y="199.288125" transform="rotate(-0, 94.163125, 199.288125)">0.8</text>
     </g>
    </g>
    <g id="ytick_6">
     <g id="text_13">
      <text style="font: 36px 'sans-serif'; text-anchor: end" x="94.163125" y="32.968125" transform="rotate(-0, 94.163125, 32.968125)">1</text>
     </g>
    </g>
    <g id="ytick_7"/>
    <g id="ytick_8"/>
    <g id="ytick_9"/>
    <g id="ytick_10"/>
    <g id="ytick_11"/>
    <g id="ytick_12"/>
    <g id="ytick_13"/>
    <g id="ytick_14"/>
    <g id="ytick_15"/>
    <g id="ytick_16"/>
    <g id="ytick_17"/>
    <g id="ytick_18"/>
    <g id="ytick_19"/>
    <g id="ytick_20"/>
    <g id="ytick_21"/>
    <g id="text_14">
     <text style="fill: #262626; font: 36px 'sans-serif'; text-anchor: middle" x="32.968125" y="435.884063" transform="rotate(-90, 32.968125, 435.884063)">True Positive Rate</text>
    </g>
   </g>
   <g id="line2d_1">
    <path d="M 102.163125 851.684062 
L 102.163125 678.884063 
L 102.163125 554.684062 
L 102.163125 506.084063 
L 102.163125 430.484063 
L 102.163125 419.684063 
L 102.163125 392.684063 
L 102.163125 349.484062 
L 102.163125 317.084062 
L 102.163125 300.884063 
L 102.163125 273.884063 
L 102.163125 268.484063 
L 102.163125 241.484063 
L 102.163125 230.684063 
L 102.163125 214.484063 
L 106.16791 214.484063 
L 106.16791 192.884063 
L 106.16791 182.084063 
L 110.172694 165.884063 
L 110.172694 122.684063 
L 114.177479 122.684063 
L 114.177479 117.284063 
L 118.182264 117.284063 
L 118.182264 101.084063 
L 122.187048 101.084063 
L 122.187048 95.684063 
L 126.191833 95.684063 
L 130.196618 90.284063 
L 134.201403 90.284063 
L 134.201403 84.884063 
L 138.206187 84.884063 
L 138.206187 79.484063 
L 146.215757 79.484063 
L 146.215757 68.684062 
L 154.225326 68.684062 
L 162.234895 63.284063 
L 166.23968 57.884063 
L 190.268388 57.884063 
L 202.282742 52.484063 
L 206.287527 47.084063 
L 214.297096 47.084063 
L 222.306666 47.084063 
L 226.31145 47.084063 
L 238.325804 47.084063 
L 246.335374 47.084063 
L 250.340158 47.084063 
L 258.349728 41.684063 
L 262.354513 36.284063 
L 286.383221 36.284063 
L 322.426283 36.284063 
L 354.46456 25.484063 
L 466.598532 20.084063 
L 939.163125 20.084063 
" clip-path="url(#p06fb902f2c)" style="fill: none; stroke: #fde725; stroke-width: 5; stroke-linecap: round"/>
   </g>
   <g id="line2d_2">
    <path d="M 102.163125 851.684062 
L 102.163125 592.484062 
L 102.163125 500.684063 
L 102.163125 435.884063 
L 102.163125 403.484062 
L 102.163125 365.684063 
L 106.16791 333.284063 
L 106.16791 306.284063 
L 110.172694 295.484063 
L 110.172694 279.284063 
L 110.172694 268.484063 
L 110.172694 252.284063 
L 110.172694 241.484063 
L 110.172694 230.684063 
L 110.172694 214.484063 
L 114.177479 198.284063 
L 114.177479 187.484063 
L 114.177479 171.284063 
L 114.177479 149.684063 
L 114.177479 138.884063 
L 118.182264 138.884063 
L 118.182264 133.484063 
L 122.187048 128.084063 
L 122.187048 117.284063 
L 126.191833 117.284063 
L 126.191833 106.484063 
L 126.191833 84.884063 
L 134.201403 84.884063 
L 138.206187 79.484063 
L 138.206187 74.084063 
L 146.215757 74.084063 
L 150.220541 68.684062 
L 158.230111 68.684062 
L 158.230111 63.284063 
L 166.23968 63.284063 
L 166.23968 57.884063 
L 174.249249 57.884063 
L 198.277958 57.884063 
L 202.282742 47.084063 
L 202.282742 36.284063 
L 206.287527 36.284063 
L 230.316235 36.284063 
L 250.340158 36.284063 
L 274.368867 30.884063 
L 298.397575 30.884063 
L 326.431068 25.484063 
L 346.454991 25.484063 
L 418.541115 20.084063 
L 522.665517 20.084063 
L 939.163125 20.084063 
" clip-path="url(#p06fb902f2c)" style="fill: none; stroke: #a5db36; stroke-width: 5; stroke-linecap: round"/>
   </g>
   <g id="line2d_3">
    <path d="M 102.163125 851.684062 
L 106.16791 597.884063 
L 106.16791 506.084063 
L 106.16791 457.484063 
L 110.172694 403.484062 
L 114.177479 371.084063 
L 114.177479 365.684063 
L 114.177479 344.084063 
L 118.182264 317.084062 
L 118.182264 290.084063 
L 118.182264 284.684063 
L 118.182264 273.884063 
L 118.182264 268.484063 
L 118.182264 252.284063 
L 122.187048 230.684063 
L 126.191833 225.284063 
L 130.196618 214.484063 
L 134.201403 198.284063 
L 134.201403 187.484063 
L 134.201403 182.084063 
L 138.206187 182.084063 
L 138.206187 171.284063 
L 150.220541 165.884063 
L 150.220541 155.084063 
L 150.220541 122.684063 
L 154.225326 122.684063 
L 154.225326 106.484063 
L 158.230111 106.484063 
L 158.230111 90.284063 
L 158.230111 68.684062 
L 158.230111 57.884063 
L 162.234895 57.884063 
L 170.244465 52.484063 
L 186.263603 52.484063 
L 194.273173 52.484063 
L 202.282742 52.484063 
L 202.282742 47.084063 
L 206.287527 47.084063 
L 214.297096 41.684063 
L 222.306666 41.684063 
L 230.316235 41.684063 
L 238.325804 36.284063 
L 242.330589 36.284063 
L 274.368867 36.284063 
L 282.378436 36.284063 
L 314.416714 36.284063 
L 338.445422 30.884063 
L 370.483699 25.484063 
L 446.574608 25.484063 
L 939.163125 20.084063 
" clip-path="url(#p06fb902f2c)" style="fill: none; stroke: #4ac16d; stroke-width: 5; stroke-linecap: round"/>
   </g>
   <g id="line2d_4">
    <path d="M 102.163125 851.684062 
L 106.16791 608.684062 
L 106.16791 527.684062 
L 110.172694 484.484063 
L 110.172694 462.884063 
L 110.172694 425.084063 
L 114.177479 371.084063 
L 114.177479 349.484062 
L 118.182264 322.484063 
L 126.191833 306.284063 
L 126.191833 290.084063 
L 130.196618 284.684063 
L 134.201403 268.484063 
L 134.201403 263.084063 
L 138.206187 257.684062 
L 138.206187 236.084063 
L 142.210972 219.884063 
L 146.215757 219.884063 
L 150.220541 214.484063 
L 150.220541 198.284063 
L 154.225326 192.884063 
L 158.230111 182.084063 
L 158.230111 171.284063 
L 158.230111 155.084063 
L 158.230111 138.884063 
L 158.230111 128.084063 
L 158.230111 111.884063 
L 162.234895 106.484063 
L 162.234895 68.684062 
L 174.249249 68.684062 
L 178.254034 63.284063 
L 186.263603 63.284063 
L 194.273173 63.284063 
L 202.282742 63.284063 
L 206.287527 57.884063 
L 214.297096 57.884063 
L 214.297096 52.484063 
L 226.31145 52.484063 
L 234.32102 52.484063 
L 234.32102 47.084063 
L 238.325804 47.084063 
L 246.335374 47.084063 
L 250.340158 47.084063 
L 274.368867 47.084063 
L 286.383221 47.084063 
L 294.39279 41.684063 
L 302.402359 41.684063 
L 334.440637 41.684063 
L 354.46456 41.684063 
L 418.541115 41.684063 
L 514.655948 36.284063 
L 939.163125 20.084063 
" clip-path="url(#p06fb902f2c)" style="fill: none; stroke: #1f988b; stroke-width: 5; stroke-linecap: round"/>
   </g>
   <g id="line2d_5">
    <path d="M 102.163125 851.684062 
L 118.182264 522.284063 
L 122.187048 462.884063 
L 122.187048 435.884063 
L 122.187048 371.084063 
L 122.187048 344.084063 
L 126.191833 327.884063 
L 126.191833 306.284063 
L 130.196618 284.684063 
L 130.196618 273.884063 
L 134.201403 263.084063 
L 138.206187 257.684062 
L 142.210972 236.084063 
L 142.210972 225.284063 
L 142.210972 209.084063 
L 146.215757 203.684062 
L 150.220541 203.684062 
L 154.225326 198.284063 
L 154.225326 192.884063 
L 158.230111 187.484063 
L 158.230111 155.084063 
L 158.230111 144.284063 
L 158.230111 128.084063 
L 162.234895 117.284063 
L 162.234895 95.684063 
L 170.244465 90.284063 
L 170.244465 79.484063 
L 174.249249 79.484063 
L 174.249249 68.684062 
L 182.258819 68.684062 
L 182.258819 63.284063 
L 186.263603 63.284063 
L 186.263603 57.884063 
L 194.273173 52.484063 
L 206.287527 52.484063 
L 222.306666 52.484063 
L 234.32102 52.484063 
L 238.325804 47.084063 
L 242.330589 47.084063 
L 254.344943 47.084063 
L 270.364082 47.084063 
L 274.368867 47.084063 
L 306.407144 47.084063 
L 374.488484 47.084063 
L 442.569824 41.684063 
L 939.163125 20.084063 
" clip-path="url(#p06fb902f2c)" style="fill: none; stroke: #2a788e; stroke-width: 5; stroke-linecap: round"/>
   </g>
   <g id="line2d_6">
    <path d="M 102.163125 851.684062 
L 142.210972 327.884063 
L 150.220541 300.884063 
L 150.220541 284.684063 
L 150.220541 263.084063 
L 150.220541 252.284063 
L 150.220541 219.884063 
L 150.220541 209.084063 
L 150.220541 203.684062 
L 150.220541 192.884063 
L 150.220541 182.084063 
L 158.230111 182.084063 
L 158.230111 171.284063 
L 158.230111 165.884063 
L 158.230111 155.084063 
L 162.234895 155.084063 
L 162.234895 149.684063 
L 162.234895 138.884063 
L 170.244465 138.884063 
L 170.244465 133.484063 
L 182.258819 133.484063 
L 182.258819 117.284063 
L 186.263603 101.084063 
L 190.268388 101.084063 
L 190.268388 90.284063 
L 198.277958 84.884063 
L 198.277958 74.084063 
L 206.287527 74.084063 
L 222.306666 74.084063 
L 226.31145 68.684062 
L 234.32102 68.684062 
L 238.325804 63.284063 
L 238.325804 52.484063 
L 242.330589 52.484063 
L 262.354513 52.484063 
L 939.163125 20.084063 
" clip-path="url(#p06fb902f2c)" style="fill: none; stroke: #414487; stroke-width: 5; stroke-linecap: round"/>
   </g>
   <g id="line2d_7">
    <path d="M 102.163125 851.684062 
L 102.163125 824.684062 
L 102.163125 792.284063 
L 102.163125 754.484062 
L 106.16791 749.084062 
L 106.16791 722.084062 
L 106.16791 716.684062 
L 106.16791 705.884063 
L 106.16791 689.684062 
L 106.16791 684.284063 
L 106.16791 662.684062 
L 106.16791 641.084063 
L 106.16791 624.884063 
L 106.16791 619.484063 
L 106.16791 608.684062 
L 110.172694 603.284063 
L 110.172694 592.484062 
L 110.172694 576.284063 
L 110.172694 560.084063 
L 114.177479 549.284063 
L 114.177479 543.884063 
L 122.187048 543.884063 
L 130.196618 533.084063 
L 134.201403 527.684062 
L 134.201403 516.884063 
L 138.206187 516.884063 
L 138.206187 506.084063 
L 142.210972 506.084063 
L 146.215757 500.684063 
L 146.215757 495.284063 
L 154.225326 489.884063 
L 166.23968 479.084063 
L 166.23968 468.284063 
L 166.23968 462.884063 
L 174.249249 462.884063 
L 178.254034 457.484063 
L 178.254034 446.684063 
L 182.258819 446.684063 
L 186.263603 435.884063 
L 190.268388 430.484063 
L 194.273173 430.484063 
L 210.292312 419.684063 
L 222.306666 419.684063 
L 230.316235 414.284063 
L 246.335374 392.684063 
L 258.349728 376.484063 
L 262.354513 376.484063 
L 266.359297 365.684063 
L 282.378436 354.884063 
L 294.39279 344.084063 
L 306.407144 344.084063 
L 306.407144 338.684062 
L 314.416714 338.684062 
L 326.431068 327.884063 
L 334.440637 327.884063 
L 342.450206 322.484063 
L 354.46456 317.084062 
L 358.469345 295.484063 
L 366.478914 295.484063 
L 370.483699 284.684063 
L 374.488484 279.284063 
L 382.498053 268.484063 
L 394.512407 263.084063 
L 398.517192 252.284063 
L 410.531546 252.284063 
L 418.541115 246.884063 
L 422.5459 241.484063 
L 430.555469 219.884063 
L 446.574608 214.484063 
L 450.579393 203.684062 
L 466.598532 203.684062 
L 474.608101 192.884063 
L 490.62724 176.684063 
L 510.651163 165.884063 
L 514.655948 165.884063 
L 530.675087 160.484063 
L 558.70858 144.284063 
L 562.713364 138.884063 
L 574.727718 122.684063 
L 590.746857 117.284063 
L 610.770781 106.484063 
L 630.794704 106.484063 
L 654.823412 106.484063 
L 686.86169 106.484063 
L 718.899967 90.284063 
L 746.93346 84.884063 
L 786.981307 57.884063 
L 827.029154 41.684063 
L 863.072216 36.284063 
L 895.110493 30.884063 
L 939.163125 20.084063 
" clip-path="url(#p06fb902f2c)" style="fill: none; stroke: #440154; stroke-width: 5; stroke-linecap: round"/>
   </g>
   <g id="patch_3">
    <path d="M 102.163125 851.684062 
L 102.163125 20.084063 
" style="fill: none; stroke: #262626; stroke-width: 1.25; stroke-linejoin: miter; stroke-linecap: square"/>
   </g>
   <g id="patch_4">
    <path d="M 939.163125 851.684062 
L 939.163125 20.084063 
" style="fill: none; stroke: #262626; stroke-width: 1.25; stroke-linejoin: miter; stroke-linecap: square"/>
   </g>
   <g id="patch_5">
    <path d="M 102.163125 851.684062 
L 939.163125 851.684062 
" style="fill: none; stroke: #262626; stroke-width: 1.25; stroke-linejoin: miter; stroke-linecap: square"/>
   </g>
   <g id="patch_6">
    <path d="M 102.163125 20.084063 
L 939.163125 20.084063 
" style="fill: none; stroke: #262626; stroke-width: 1.25; stroke-linejoin: miter; stroke-linecap: square"/>
   </g>
   <g id="legend_1">
    <g id="patch_7">
     <path d="M 18.463125 1315.487813 
L 954.710625 1315.487813 
L 954.710625 934.844062 
L 18.463125 934.844062 
z
" style="fill: #ffffff; opacity: 0.8; stroke: #000000; stroke-linejoin: miter"/>
    </g>
    <g id="line2d_8">
     <path d="M 36.463125 966.473437 
L 72.463125 966.473437 
L 108.463125 966.473437 
" style="fill: none; stroke: #fde725; stroke-width: 5; stroke-linecap: round"/>
    </g>
    <g id="text_15">
     <text style="fill: #262626; font: 36px 'sans-serif'; text-anchor: start" x="126.463125" y="979.073437" transform="rotate(-0, 126.463125, 979.073437)">All variables (ROC AUC = 0.99)</text>
    </g>
    <g id="line2d_9">
     <path d="M 36.463125 1018.279687 
L 72.463125 1018.279687 
L 108.463125 1018.279687 
" style="fill: none; stroke: #a5db36; stroke-width: 5; stroke-linecap: round"/>
    </g>
    <g id="text_16">
     <text style="fill: #262626; font: 36px 'sans-serif'; text-anchor: start" x="126.463125" y="1030.879687" transform="rotate(-0, 126.463125, 1030.879687)">NAD(P)H variables + Cell Size (ROC AUC = 0.99)</text>
    </g>
    <g id="line2d_10">
     <path d="M 36.463125 1070.085938 
L 72.463125 1070.085938 
L 108.463125 1070.085938 
" style="fill: none; stroke: #4ac16d; stroke-width: 5; stroke-linecap: round"/>
    </g>
    <g id="text_17">
     <text style="fill: #262626; font: 36px 'sans-serif'; text-anchor: start" x="126.463125" y="1082.685937" transform="rotate(-0, 126.463125, 1082.685937)">Top four variables (ROC AUC) = 0.97)</text>
    </g>
    <g id="line2d_11">
     <path d="M 36.463125 1121.892188 
L 72.463125 1121.892188 
L 108.463125 1121.892188 
" style="fill: none; stroke: #1f988b; stroke-width: 5; stroke-linecap: round"/>
    </g>
    <g id="text_18">
     <text style="fill: #262626; font: 36px 'sans-serif'; text-anchor: start" x="126.463125" y="1134.492188" transform="rotate(-0, 126.463125, 1134.492188)">Top three variables (ROC AUC) = 0.96)</text>
    </g>
    <g id="line2d_12">
     <path d="M 36.463125 1173.698437 
L 72.463125 1173.698437 
L 108.463125 1173.698437 
" style="fill: none; stroke: #2a788e; stroke-width: 5; stroke-linecap: round"/>
    </g>
    <g id="text_19">
     <text style="fill: #262626; font: 36px 'sans-serif'; text-anchor: start" x="126.463125" y="1186.298437" transform="rotate(-0, 126.463125, 1186.298437)">Top two variables (ROC AUC) = 0.95)</text>
    </g>
    <g id="line2d_13">
     <path d="M 36.463125 1225.504688 
L 72.463125 1225.504688 
L 108.463125 1225.504688 
" style="fill: none; stroke: #414487; stroke-width: 5; stroke-linecap: round"/>
    </g>
    <g id="text_20">
     <text style="fill: #262626; font: 36px 'sans-serif'; text-anchor: start" x="126.463125" y="1238.104687" transform="rotate(-0, 126.463125, 1238.104687)">Top variable (ROC AUC) = 0.94)</text>
    </g>
    <g id="line2d_14">
     <path d="M 36.463125 1277.310937 
L 72.463125 1277.310937 
L 108.463125 1277.310937 
" style="fill: none; stroke: #440154; stroke-width: 5; stroke-linecap: round"/>
    </g>
    <g id="text_21">
     <text style="fill: #262626; font: 36px 'sans-serif'; text-anchor: start" x="126.463125" y="1289.910937" transform="rotate(-0, 126.463125, 1289.910937)">Norm. Redox Ratio + Cell Size (ROC AUC) = 0.77)</text>
    </g>
   </g>
  </g>
 </g>
 <defs>
  <clipPath id="p06fb902f2c">
   <rect x="102.163125" y="20.084063" width="837" height="831.6"/>
  </clipPath>
 </defs>
</svg>
