<?xml version="1.0" encoding="utf-8" standalone="no"?>
<!DOCTYPE svg PUBLIC "-//W3C//DTD SVG 1.1//EN"
  "http://www.w3.org/Graphics/SVG/1.1/DTD/svg11.dtd">
<svg xmlns:xlink="http://www.w3.org/1999/xlink" width="985.010625pt" height="1315.667812pt" viewBox="0 0 985.010625 1315.667812" xmlns="http://www.w3.org/2000/svg" version="1.1">
 <metadata>
  <rdf:RDF xmlns:dc="http://purl.org/dc/elements/1.1/" xmlns:cc="http://creativecommons.org/ns#" xmlns:rdf="http://www.w3.org/1999/02/22-rdf-syntax-ns#">
   <cc:Work>
    <dc:type rdf:resource="http://purl.org/dc/dcmitype/StillImage"/>
    <dc:date>2022-09-21T10:05:06.524376</dc:date>
    <dc:format>image/svg+xml</dc:format>
    <dc:creator>
     <cc:Agent>
      <dc:title>Matplotlib v3.5.1, https://matplotlib.org/</dc:title>
     </cc:Agent>
    </dc:creator>
   </cc:Work>
  </rdf:RDF>
 </metadata>
 <defs>
  <style type="text/css">*{stroke-linejoin: round; stroke-linecap: butt}</style>
 </defs>
 <g id="figure_1">
  <g id="patch_1">
   <path d="M 0 1315.667812 
L 985.010625 1315.667812 
L 985.010625 0 
L 0 0 
z
" style="fill: #ffffff"/>
  </g>
  <g id="axes_1">
   <g id="patch_2">
    <path d="M 103.663125 835.484062 
L 940.663125 835.484062 
L 940.663125 20.084063 
L 103.663125 20.084063 
z
" style="fill: #ffffff"/>
   </g>
   <g id="matplotlib.axis_1">
    <g id="xtick_1">
     <g id="text_1">
      <text style="fill: #262626; font: 36px 'sans-serif'; text-anchor: middle" x="103.663125" y="870.752187" transform="rotate(-0, 103.663125, 870.752187)">0.0</text>
     </g>
    </g>
    <g id="xtick_2">
     <g id="text_2">
      <text style="fill: #262626; font: 36px 'sans-serif'; text-anchor: middle" x="271.063125" y="870.752187" transform="rotate(-0, 271.063125, 870.752187)">0.2</text>
     </g>
    </g>
    <g id="xtick_3">
     <g id="text_3">
      <text style="fill: #262626; font: 36px 'sans-serif'; text-anchor: middle" x="438.463125" y="870.752187" transform="rotate(-0, 438.463125, 870.752187)">0.4</text>
     </g>
    </g>
    <g id="xtick_4">
     <g id="text_4">
      <text style="fill: #262626; font: 36px 'sans-serif'; text-anchor: middle" x="605.863125" y="870.752187" transform="rotate(-0, 605.863125, 870.752187)">0.6</text>
     </g>
    </g>
    <g id="xtick_5">
     <g id="text_5">
      <text style="fill: #262626; font: 36px 'sans-serif'; text-anchor: middle" x="773.263125" y="870.752187" transform="rotate(-0, 773.263125, 870.752187)">0.8</text>
     </g>
    </g>
    <g id="xtick_6">
     <g id="text_6">
      <text style="fill: #262626; font: 36px 'sans-serif'; text-anchor: middle" x="940.663125" y="870.752187" transform="rotate(-0, 940.663125, 870.752187)">1.0</text>
     </g>
    </g>
    <g id="text_7">
     <text style="fill: #262626; font: 36px 'sans-serif'; text-anchor: middle" x="522.163125" y="907.675313" transform="rotate(-0, 522.163125, 907.675313)">False Positive Rate</text>
    </g>
   </g>
   <g id="matplotlib.axis_2">
    <g id="ytick_1">
     <g id="text_8">
      <text style="fill: #262626; font: 36px 'sans-serif'; text-anchor: end" x="94.163125" y="848.368125" transform="rotate(-0, 94.163125, 848.368125)">0.0</text>
     </g>
    </g>
    <g id="ytick_2">
     <g id="text_9">
      <text style="fill: #262626; font: 36px 'sans-serif'; text-anchor: end" x="94.163125" y="685.288125" transform="rotate(-0, 94.163125, 685.288125)">0.2</text>
     </g>
    </g>
    <g id="ytick_3">
     <g id="text_10">
      <text style="fill: #262626; font: 36px 'sans-serif'; text-anchor: end" x="94.163125" y="522.208125" transform="rotate(-0, 94.163125, 522.208125)">0.4</text>
     </g>
    </g>
    <g id="ytick_4">
     <g id="text_11">
      <text style="fill: #262626; font: 36px 'sans-serif'; text-anchor: end" x="94.163125" y="359.128125" transform="rotate(-0, 94.163125, 359.128125)">0.6</text>
     </g>
    </g>
    <g id="ytick_5">
     <g id="text_12">
      <text style="fill: #262626; font: 36px 'sans-serif'; text-anchor: end" x="94.163125" y="196.048125" transform="rotate(-0, 94.163125, 196.048125)">0.8</text>
     </g>
    </g>
    <g id="ytick_6">
     <g id="text_13">
      <text style="fill: #262626; font: 36px 'sans-serif'; text-anchor: end" x="94.163125" y="32.968125" transform="rotate(-0, 94.163125, 32.968125)">1.0</text>
     </g>
    </g>
    <g id="text_14">
     <text style="fill: #262626; font: 36px 'sans-serif'; text-anchor: middle" x="32.968125" y="427.784063" transform="rotate(-90, 32.968125, 427.784063)">True Positive Rate</text>
    </g>
   </g>
   <g id="line2d_1">
    <path d="M 103.663125 835.484062 
L 103.663125 666.050296 
L 103.663125 544.269777 
L 103.663125 496.61653 
L 103.663125 422.489257 
L 103.663125 411.899647 
L 103.663125 385.425621 
L 103.663125 343.067179 
L 103.663125 311.298348 
L 103.663125 295.413933 
L 103.663125 268.939907 
L 103.663125 263.645101 
L 103.663125 237.171075 
L 103.663125 226.581465 
L 103.663125 210.69705 
L 107.66791 210.69705 
L 107.66791 189.517829 
L 107.66791 178.928218 
L 111.672694 163.043803 
L 111.672694 120.685361 
L 115.677479 120.685361 
L 115.677479 115.390556 
L 119.682264 115.390556 
L 119.682264 99.50614 
L 123.687048 99.50614 
L 123.687048 94.211335 
L 127.691833 94.211335 
L 131.696618 88.91653 
L 135.701403 88.91653 
L 135.701403 83.621725 
L 139.706187 83.621725 
L 139.706187 78.32692 
L 147.715757 78.32692 
L 147.715757 67.737309 
L 155.725326 67.737309 
L 163.734895 62.442504 
L 167.73968 57.147699 
L 191.768388 57.147699 
L 203.782742 51.852894 
L 207.787527 46.558088 
L 215.797096 46.558088 
L 223.806666 46.558088 
L 227.81145 46.558088 
L 239.825804 46.558088 
L 247.835374 46.558088 
L 251.840158 46.558088 
L 259.849728 41.263283 
L 263.854513 35.968478 
L 287.883221 35.968478 
L 323.926283 35.968478 
L 355.96456 25.378868 
L 468.098532 20.084063 
L 940.663125 20.084063 
" clip-path="url(#pfdf82c22ca)" style="fill: none; stroke: #fde725; stroke-width: 5; stroke-linecap: round"/>
   </g>
   <g id="line2d_2">
    <path d="M 103.663125 835.484062 
L 103.663125 581.333413 
L 103.663125 491.321725 
L 103.663125 427.784063 
L 103.663125 396.015231 
L 103.663125 358.951595 
L 107.66791 327.182764 
L 107.66791 300.708738 
L 111.672694 290.119127 
L 111.672694 274.234712 
L 111.672694 263.645101 
L 111.672694 247.760686 
L 111.672694 237.171075 
L 111.672694 226.581465 
L 111.672694 210.69705 
L 115.677479 194.812634 
L 115.677479 184.223024 
L 115.677479 168.338608 
L 115.677479 147.159387 
L 115.677479 136.569777 
L 119.682264 136.569777 
L 119.682264 131.274972 
L 123.687048 125.980166 
L 123.687048 115.390556 
L 127.691833 115.390556 
L 127.691833 104.800946 
L 127.691833 83.621725 
L 135.701403 83.621725 
L 139.706187 78.32692 
L 139.706187 73.032114 
L 147.715757 73.032114 
L 151.720541 67.737309 
L 159.730111 67.737309 
L 159.730111 62.442504 
L 167.73968 62.442504 
L 167.73968 57.147699 
L 175.749249 57.147699 
L 199.777958 57.147699 
L 203.782742 46.558088 
L 203.782742 35.968478 
L 207.787527 35.968478 
L 231.816235 35.968478 
L 251.840158 35.968478 
L 275.868867 30.673673 
L 299.897575 30.673673 
L 327.931068 25.378868 
L 347.954991 25.378868 
L 420.041115 20.084063 
L 524.165517 20.084063 
L 940.663125 20.084063 
" clip-path="url(#pfdf82c22ca)" style="fill: none; stroke: #a5db36; stroke-width: 5; stroke-linecap: round"/>
   </g>
   <g id="line2d_3">
    <path d="M 103.663125 835.484062 
L 107.66791 586.628218 
L 107.66791 496.61653 
L 107.66791 448.963283 
L 111.672694 396.015231 
L 115.677479 364.2464 
L 115.677479 358.951595 
L 115.677479 337.772374 
L 119.682264 311.298348 
L 119.682264 284.824322 
L 119.682264 279.529517 
L 119.682264 268.939907 
L 119.682264 263.645101 
L 119.682264 247.760686 
L 123.687048 226.581465 
L 127.691833 221.28666 
L 131.696618 210.69705 
L 135.701403 194.812634 
L 135.701403 184.223024 
L 135.701403 178.928218 
L 139.706187 178.928218 
L 139.706187 168.338608 
L 151.720541 163.043803 
L 151.720541 152.454192 
L 151.720541 120.685361 
L 155.725326 120.685361 
L 155.725326 104.800946 
L 159.730111 104.800946 
L 159.730111 88.91653 
L 159.730111 67.737309 
L 159.730111 57.147699 
L 163.734895 57.147699 
L 171.744465 51.852894 
L 187.763603 51.852894 
L 195.773173 51.852894 
L 203.782742 51.852894 
L 203.782742 46.558088 
L 207.787527 46.558088 
L 215.797096 41.263283 
L 223.806666 41.263283 
L 231.816235 41.263283 
L 239.825804 35.968478 
L 243.830589 35.968478 
L 275.868867 35.968478 
L 283.878436 35.968478 
L 315.916714 35.968478 
L 339.945422 30.673673 
L 371.983699 25.378868 
L 448.074608 25.378868 
L 940.663125 20.084063 
" clip-path="url(#pfdf82c22ca)" style="fill: none; stroke: #4ac16d; stroke-width: 5; stroke-linecap: round"/>
   </g>
   <g id="line2d_4">
    <path d="M 103.663125 835.484062 
L 107.66791 597.217829 
L 107.66791 517.795751 
L 111.672694 475.437309 
L 111.672694 454.258088 
L 111.672694 417.194452 
L 115.677479 364.2464 
L 115.677479 343.067179 
L 119.682264 316.593153 
L 127.691833 300.708738 
L 127.691833 284.824322 
L 131.696618 279.529517 
L 135.701403 263.645101 
L 135.701403 258.350296 
L 139.706187 253.055491 
L 139.706187 231.87627 
L 143.710972 215.991855 
L 147.715757 215.991855 
L 151.720541 210.69705 
L 151.720541 194.812634 
L 155.725326 189.517829 
L 159.730111 178.928218 
L 159.730111 168.338608 
L 159.730111 152.454192 
L 159.730111 136.569777 
L 159.730111 125.980166 
L 159.730111 110.095751 
L 163.734895 104.800946 
L 163.734895 67.737309 
L 175.749249 67.737309 
L 179.754034 62.442504 
L 187.763603 62.442504 
L 195.773173 62.442504 
L 203.782742 62.442504 
L 207.787527 57.147699 
L 215.797096 57.147699 
L 215.797096 51.852894 
L 227.81145 51.852894 
L 235.82102 51.852894 
L 235.82102 46.558088 
L 239.825804 46.558088 
L 247.835374 46.558088 
L 251.840158 46.558088 
L 275.868867 46.558088 
L 287.883221 46.558088 
L 295.89279 41.263283 
L 303.902359 41.263283 
L 335.940637 41.263283 
L 355.96456 41.263283 
L 420.041115 41.263283 
L 516.155948 35.968478 
L 940.663125 20.084063 
" clip-path="url(#pfdf82c22ca)" style="fill: none; stroke: #1f988b; stroke-width: 5; stroke-linecap: round"/>
   </g>
   <g id="line2d_5">
    <path d="M 103.663125 835.484062 
L 119.682264 512.500946 
L 123.687048 454.258088 
L 123.687048 427.784063 
L 123.687048 364.2464 
L 123.687048 337.772374 
L 127.691833 321.887959 
L 127.691833 300.708738 
L 131.696618 279.529517 
L 131.696618 268.939907 
L 135.701403 258.350296 
L 139.706187 253.055491 
L 143.710972 231.87627 
L 143.710972 221.28666 
L 143.710972 205.402244 
L 147.715757 200.107439 
L 151.720541 200.107439 
L 155.725326 194.812634 
L 155.725326 189.517829 
L 159.730111 184.223024 
L 159.730111 152.454192 
L 159.730111 141.864582 
L 159.730111 125.980166 
L 163.734895 115.390556 
L 163.734895 94.211335 
L 171.744465 88.91653 
L 171.744465 78.32692 
L 175.749249 78.32692 
L 175.749249 67.737309 
L 183.758819 67.737309 
L 183.758819 62.442504 
L 187.763603 62.442504 
L 187.763603 57.147699 
L 195.773173 51.852894 
L 207.787527 51.852894 
L 223.806666 51.852894 
L 235.82102 51.852894 
L 239.825804 46.558088 
L 243.830589 46.558088 
L 255.844943 46.558088 
L 271.864082 46.558088 
L 275.868867 46.558088 
L 307.907144 46.558088 
L 375.988484 46.558088 
L 444.069824 41.263283 
L 940.663125 20.084063 
" clip-path="url(#pfdf82c22ca)" style="fill: none; stroke: #2a788e; stroke-width: 5; stroke-linecap: round"/>
   </g>
   <g id="line2d_6">
    <path d="M 103.663125 835.484062 
L 143.710972 321.887959 
L 151.720541 295.413933 
L 151.720541 279.529517 
L 151.720541 258.350296 
L 151.720541 247.760686 
L 151.720541 215.991855 
L 151.720541 205.402244 
L 151.720541 200.107439 
L 151.720541 189.517829 
L 151.720541 178.928218 
L 159.730111 178.928218 
L 159.730111 168.338608 
L 159.730111 163.043803 
L 159.730111 152.454192 
L 163.734895 152.454192 
L 163.734895 147.159387 
L 163.734895 136.569777 
L 171.744465 136.569777 
L 171.744465 131.274972 
L 183.758819 131.274972 
L 183.758819 115.390556 
L 187.763603 99.50614 
L 191.768388 99.50614 
L 191.768388 88.91653 
L 199.777958 83.621725 
L 199.777958 73.032114 
L 207.787527 73.032114 
L 223.806666 73.032114 
L 227.81145 67.737309 
L 235.82102 67.737309 
L 239.825804 62.442504 
L 239.825804 51.852894 
L 243.830589 51.852894 
L 263.854513 51.852894 
L 940.663125 20.084063 
" clip-path="url(#pfdf82c22ca)" style="fill: none; stroke: #414487; stroke-width: 5; stroke-linecap: round"/>
   </g>
   <g id="line2d_7">
    <path d="M 103.663125 835.484062 
L 103.663125 809.010037 
L 103.663125 777.241205 
L 103.663125 740.177569 
L 107.66791 734.882764 
L 107.66791 708.408738 
L 107.66791 703.113933 
L 107.66791 692.524322 
L 107.66791 676.639907 
L 107.66791 671.345101 
L 107.66791 650.165881 
L 107.66791 628.98666 
L 107.66791 613.102244 
L 107.66791 607.807439 
L 107.66791 597.217829 
L 111.672694 591.923024 
L 111.672694 581.333413 
L 111.672694 565.448998 
L 111.672694 549.564582 
L 115.677479 538.974972 
L 115.677479 533.680166 
L 123.687048 533.680166 
L 131.696618 523.090556 
L 135.701403 517.795751 
L 135.701403 507.20614 
L 139.706187 507.20614 
L 139.706187 496.61653 
L 143.710972 496.61653 
L 147.715757 491.321725 
L 147.715757 486.02692 
L 155.725326 480.732114 
L 167.73968 470.142504 
L 167.73968 459.552894 
L 167.73968 454.258088 
L 175.749249 454.258088 
L 179.754034 448.963283 
L 179.754034 438.373673 
L 183.758819 438.373673 
L 187.763603 427.784063 
L 191.768388 422.489257 
L 195.773173 422.489257 
L 211.792312 411.899647 
L 223.806666 411.899647 
L 231.816235 406.604842 
L 247.835374 385.425621 
L 259.849728 369.541205 
L 263.854513 369.541205 
L 267.859297 358.951595 
L 283.878436 348.361985 
L 295.89279 337.772374 
L 307.907144 337.772374 
L 307.907144 332.477569 
L 315.916714 332.477569 
L 327.931068 321.887959 
L 335.940637 321.887959 
L 343.950206 316.593153 
L 355.96456 311.298348 
L 359.969345 290.119127 
L 367.978914 290.119127 
L 371.983699 279.529517 
L 375.988484 274.234712 
L 383.998053 263.645101 
L 396.012407 258.350296 
L 400.017192 247.760686 
L 412.031546 247.760686 
L 420.041115 242.465881 
L 424.0459 237.171075 
L 432.055469 215.991855 
L 448.074608 210.69705 
L 452.079393 200.107439 
L 468.098532 200.107439 
L 476.108101 189.517829 
L 492.12724 173.633413 
L 512.151163 163.043803 
L 516.155948 163.043803 
L 532.175087 157.748998 
L 560.20858 141.864582 
L 564.213364 136.569777 
L 576.227718 120.685361 
L 592.246857 115.390556 
L 612.270781 104.800946 
L 632.294704 104.800946 
L 656.323412 104.800946 
L 688.36169 104.800946 
L 720.399967 88.91653 
L 748.43346 83.621725 
L 788.481307 57.147699 
L 828.529154 41.263283 
L 864.572216 35.968478 
L 896.610493 30.673673 
L 940.663125 20.084063 
" clip-path="url(#pfdf82c22ca)" style="fill: none; stroke: #440154; stroke-width: 5; stroke-linecap: round"/>
   </g>
   <g id="patch_3">
    <path d="M 103.663125 835.484062 
L 103.663125 20.084063 
" style="fill: none; stroke: #262626; stroke-width: 1.25; stroke-linejoin: miter; stroke-linecap: square"/>
   </g>
   <g id="patch_4">
    <path d="M 940.663125 835.484062 
L 940.663125 20.084063 
" style="fill: none; stroke: #262626; stroke-width: 1.25; stroke-linejoin: miter; stroke-linecap: square"/>
   </g>
   <g id="patch_5">
    <path d="M 103.663125 835.484062 
L 940.663125 835.484062 
" style="fill: none; stroke: #262626; stroke-width: 1.25; stroke-linejoin: miter; stroke-linecap: square"/>
   </g>
   <g id="patch_6">
    <path d="M 103.663125 20.084063 
L 940.663125 20.084063 
" style="fill: none; stroke: #262626; stroke-width: 1.25; stroke-linejoin: miter; stroke-linecap: square"/>
   </g>
   <g id="legend_1">
    <g id="patch_7">
     <path d="M 45.163125 1308.467812 
L 970.610625 1308.467812 
Q 977.810625 1308.467812 977.810625 1301.267812 
L 977.810625 942.224062 
Q 977.810625 935.024062 970.610625 935.024062 
L 45.163125 935.024062 
Q 37.963125 935.024062 37.963125 942.224062 
L 37.963125 1301.267812 
Q 37.963125 1308.467812 45.163125 1308.467812 
z
" style="fill: #ffffff; opacity: 0.8; stroke: #cccccc; stroke-linejoin: miter"/>
    </g>
    <g id="line2d_8">
     <path d="M 52.363125 963.053437 
L 88.363125 963.053437 
L 124.363125 963.053437 
" style="fill: none; stroke: #fde725; stroke-width: 5; stroke-linecap: round"/>
    </g>
    <g id="text_15">
     <text style="fill: #262626; font: 36px 'sans-serif'; text-anchor: start" x="153.163125" y="975.653437" transform="rotate(-0, 153.163125, 975.653437)">All variables (ROC AUC = 0.99)</text>
    </g>
    <g id="line2d_9">
     <path d="M 52.363125 1014.859687 
L 88.363125 1014.859687 
L 124.363125 1014.859687 
" style="fill: none; stroke: #a5db36; stroke-width: 5; stroke-linecap: round"/>
    </g>
    <g id="text_16">
     <text style="fill: #262626; font: 36px 'sans-serif'; text-anchor: start" x="153.163125" y="1027.459687" transform="rotate(-0, 153.163125, 1027.459687)">NAD(P)H variables + Cell Size (ROC AUC = 0.99)</text>
    </g>
    <g id="line2d_10">
     <path d="M 52.363125 1066.665937 
L 88.363125 1066.665937 
L 124.363125 1066.665937 
" style="fill: none; stroke: #4ac16d; stroke-width: 5; stroke-linecap: round"/>
    </g>
    <g id="text_17">
     <text style="fill: #262626; font: 36px 'sans-serif'; text-anchor: start" x="153.163125" y="1079.265937" transform="rotate(-0, 153.163125, 1079.265937)">Top four variables (ROC AUC) = 0.97)</text>
    </g>
    <g id="line2d_11">
     <path d="M 52.363125 1118.472188 
L 88.363125 1118.472188 
L 124.363125 1118.472188 
" style="fill: none; stroke: #1f988b; stroke-width: 5; stroke-linecap: round"/>
    </g>
    <g id="text_18">
     <text style="fill: #262626; font: 36px 'sans-serif'; text-anchor: start" x="153.163125" y="1131.072187" transform="rotate(-0, 153.163125, 1131.072187)">Top three variables (ROC AUC) = 0.96)</text>
    </g>
    <g id="line2d_12">
     <path d="M 52.363125 1170.278438 
L 88.363125 1170.278438 
L 124.363125 1170.278438 
" style="fill: none; stroke: #2a788e; stroke-width: 5; stroke-linecap: round"/>
    </g>
    <g id="text_19">
     <text style="fill: #262626; font: 36px 'sans-serif'; text-anchor: start" x="153.163125" y="1182.878438" transform="rotate(-0, 153.163125, 1182.878438)">Top two variables (ROC AUC) = 0.95)</text>
    </g>
    <g id="line2d_13">
     <path d="M 52.363125 1222.084687 
L 88.363125 1222.084687 
L 124.363125 1222.084687 
" style="fill: none; stroke: #414487; stroke-width: 5; stroke-linecap: round"/>
    </g>
    <g id="text_20">
     <text style="fill: #262626; font: 36px 'sans-serif'; text-anchor: start" x="153.163125" y="1234.684687" transform="rotate(-0, 153.163125, 1234.684687)">Top variable (ROC AUC) = 0.94)</text>
    </g>
    <g id="line2d_14">
     <path d="M 52.363125 1273.890938 
L 88.363125 1273.890938 
L 124.363125 1273.890938 
" style="fill: none; stroke: #440154; stroke-width: 5; stroke-linecap: round"/>
    </g>
    <g id="text_21">
     <text style="fill: #262626; font: 36px 'sans-serif'; text-anchor: start" x="153.163125" y="1286.490937" transform="rotate(-0, 153.163125, 1286.490937)">Norm. Redox Ratio + Cell Size (ROC AUC) = 0.77)</text>
    </g>
   </g>
  </g>
 </g>
 <defs>
  <clipPath id="pfdf82c22ca">
   <rect x="103.663125" y="20.084063" width="837" height="815.4"/>
  </clipPath>
 </defs>
</svg>
