<?xml version="1.0" encoding="utf-8" standalone="no"?>
<!DOCTYPE svg PUBLIC "-//W3C//DTD SVG 1.1//EN"
  "http://www.w3.org/Graphics/SVG/1.1/DTD/svg11.dtd">
<svg xmlns:xlink="http://www.w3.org/1999/xlink" width="956.372813pt" height="1115.462812pt" viewBox="0 0 956.372813 1115.462812" xmlns="http://www.w3.org/2000/svg" version="1.1">
 <metadata>
  <rdf:RDF xmlns:dc="http://purl.org/dc/elements/1.1/" xmlns:cc="http://creativecommons.org/ns#" xmlns:rdf="http://www.w3.org/1999/02/22-rdf-syntax-ns#">
   <cc:Work>
    <dc:type rdf:resource="http://purl.org/dc/dcmitype/StillImage"/>
    <dc:date>2022-09-07T15:10:40.842044</dc:date>
    <dc:format>image/svg+xml</dc:format>
    <dc:creator>
     <cc:Agent>
      <dc:title>Matplotlib v3.5.1, https://matplotlib.org/</dc:title>
     </cc:Agent>
    </dc:creator>
   </cc:Work>
  </rdf:RDF>
 </metadata>
 <defs>
  <style type="text/css">*{stroke-linejoin: round; stroke-linecap: butt}</style>
 </defs>
 <g id="figure_1">
  <g id="patch_1">
   <path d="M 0 1115.462812 
L 956.372813 1115.462812 
L 956.372813 0 
L 0 0 
z
" style="fill: #ffffff"/>
  </g>
  <g id="axes_1">
   <g id="patch_2">
    <path d="M 102.163125 851.684062 
L 939.163125 851.684062 
L 939.163125 20.084063 
L 102.163125 20.084063 
z
" style="fill: #ffffff"/>
   </g>
   <g id="matplotlib.axis_1">
    <g id="xtick_1">
     <g id="text_1">
      <text style="font: 36px 'sans-serif'; text-anchor: middle" x="102.163125" y="885.452188" transform="rotate(-0, 102.163125, 885.452188)">0</text>
     </g>
    </g>
    <g id="xtick_2">
     <g id="text_2">
      <text style="font: 36px 'sans-serif'; text-anchor: middle" x="269.563125" y="885.452188" transform="rotate(-0, 269.563125, 885.452188)">0.2</text>
     </g>
    </g>
    <g id="xtick_3">
     <g id="text_3">
      <text style="font: 36px 'sans-serif'; text-anchor: middle" x="436.963125" y="885.452188" transform="rotate(-0, 436.963125, 885.452188)">0.4</text>
     </g>
    </g>
    <g id="xtick_4">
     <g id="text_4">
      <text style="font: 36px 'sans-serif'; text-anchor: middle" x="604.363125" y="885.452188" transform="rotate(-0, 604.363125, 885.452188)">0.6</text>
     </g>
    </g>
    <g id="xtick_5">
     <g id="text_5">
      <text style="font: 36px 'sans-serif'; text-anchor: middle" x="771.763125" y="885.452188" transform="rotate(-0, 771.763125, 885.452188)">0.8</text>
     </g>
    </g>
    <g id="xtick_6">
     <g id="text_6">
      <text style="font: 36px 'sans-serif'; text-anchor: middle" x="939.163125" y="885.452188" transform="rotate(-0, 939.163125, 885.452188)">1</text>
     </g>
    </g>
    <g id="xtick_7"/>
    <g id="xtick_8"/>
    <g id="xtick_9"/>
    <g id="xtick_10"/>
    <g id="xtick_11"/>
    <g id="xtick_12"/>
    <g id="xtick_13"/>
    <g id="xtick_14"/>
    <g id="xtick_15"/>
    <g id="xtick_16"/>
    <g id="xtick_17"/>
    <g id="xtick_18"/>
    <g id="xtick_19"/>
    <g id="xtick_20"/>
    <g id="xtick_21"/>
    <g id="text_7">
     <text style="fill: #262626; font: 36px 'sans-serif'; text-anchor: middle" x="520.663125" y="922.375312" transform="rotate(-0, 520.663125, 922.375312)">False Positive Rate</text>
    </g>
   </g>
   <g id="matplotlib.axis_2">
    <g id="ytick_1">
     <g id="text_8">
      <text style="font: 36px 'sans-serif'; text-anchor: end" x="94.163125" y="864.568125" transform="rotate(-0, 94.163125, 864.568125)">0</text>
     </g>
    </g>
    <g id="ytick_2">
     <g id="text_9">
      <text style="font: 36px 'sans-serif'; text-anchor: end" x="94.163125" y="698.248125" transform="rotate(-0, 94.163125, 698.248125)">0.2</text>
     </g>
    </g>
    <g id="ytick_3">
     <g id="text_10">
      <text style="font: 36px 'sans-serif'; text-anchor: end" x="94.163125" y="531.928125" transform="rotate(-0, 94.163125, 531.928125)">0.4</text>
     </g>
    </g>
    <g id="ytick_4">
     <g id="text_11">
      <text style="font: 36px 'sans-serif'; text-anchor: end" x="94.163125" y="365.608125" transform="rotate(-0, 94.163125, 365.608125)">0.6</text>
     </g>
    </g>
    <g id="ytick_5">
     <g id="text_12">
      <text style="font: 36px 'sans-serif'; text-anchor: end" x="94.163125" y="199.288125" transform="rotate(-0, 94.163125, 199.288125)">0.8</text>
     </g>
    </g>
    <g id="ytick_6">
     <g id="text_13">
      <text style="font: 36px 'sans-serif'; text-anchor: end" x="94.163125" y="32.968125" transform="rotate(-0, 94.163125, 32.968125)">1</text>
     </g>
    </g>
    <g id="ytick_7"/>
    <g id="ytick_8"/>
    <g id="ytick_9"/>
    <g id="ytick_10"/>
    <g id="ytick_11"/>
    <g id="ytick_12"/>
    <g id="ytick_13"/>
    <g id="ytick_14"/>
    <g id="ytick_15"/>
    <g id="ytick_16"/>
    <g id="ytick_17"/>
    <g id="ytick_18"/>
    <g id="ytick_19"/>
    <g id="ytick_20"/>
    <g id="ytick_21"/>
    <g id="text_14">
     <text style="fill: #262626; font: 36px 'sans-serif'; text-anchor: middle" x="32.968125" y="435.884063" transform="rotate(-90, 32.968125, 435.884063)">True Positive Rate</text>
    </g>
   </g>
   <g id="line2d_1">
    <path d="M 102.163125 851.684062 
L 102.163125 678.884063 
L 102.163125 554.684062 
L 102.163125 506.084063 
L 102.163125 430.484063 
L 102.163125 419.684063 
L 102.163125 392.684063 
L 102.163125 349.484062 
L 102.163125 317.084062 
L 102.163125 300.884063 
L 102.163125 273.884063 
L 102.163125 268.484063 
L 102.163125 241.484063 
L 102.163125 230.684063 
L 102.163125 214.484063 
L 106.16791 214.484063 
L 106.16791 192.884063 
L 106.16791 182.084063 
L 110.172694 165.884063 
L 110.172694 122.684063 
L 114.177479 122.684063 
L 114.177479 117.284063 
L 118.182264 117.284063 
L 118.182264 101.084063 
L 122.187048 101.084063 
L 122.187048 95.684063 
L 126.191833 95.684063 
L 130.196618 90.284063 
L 134.201403 90.284063 
L 134.201403 84.884063 
L 138.206187 84.884063 
L 138.206187 79.484063 
L 146.215757 79.484063 
L 146.215757 68.684062 
L 154.225326 68.684062 
L 162.234895 63.284063 
L 166.23968 57.884063 
L 190.268388 57.884063 
L 202.282742 52.484063 
L 206.287527 47.084063 
L 214.297096 47.084063 
L 222.306666 47.084063 
L 226.31145 47.084063 
L 238.325804 47.084063 
L 246.335374 47.084063 
L 250.340158 47.084063 
L 258.349728 41.684063 
L 262.354513 36.284063 
L 286.383221 36.284063 
L 322.426283 36.284063 
L 354.46456 25.484063 
L 466.598532 20.084063 
L 939.163125 20.084063 
" clip-path="url(#p941423eed6)" style="fill: none; stroke: #fde725; stroke-width: 7; stroke-linecap: round"/>
   </g>
   <g id="line2d_2">
    <path d="M 102.163125 851.684062 
L 102.163125 846.284063 
L 102.163125 570.884063 
L 106.16791 570.884063 
L 106.16791 516.884063 
L 110.172694 516.884063 
L 110.172694 252.284063 
L 114.177479 252.284063 
L 114.177479 155.084063 
L 118.182264 155.084063 
L 118.182264 149.684063 
L 122.187048 149.684063 
L 122.187048 122.684063 
L 126.191833 122.684063 
L 126.191833 111.884063 
L 130.196618 111.884063 
L 130.196618 106.484063 
L 142.210972 106.484063 
L 142.210972 101.084063 
L 146.215757 101.084063 
L 146.215757 90.284063 
L 154.225326 90.284063 
L 154.225326 74.084063 
L 158.230111 74.084063 
L 158.230111 63.284063 
L 162.234895 63.284063 
L 162.234895 57.884063 
L 170.244465 57.884063 
L 170.244465 52.484063 
L 182.258819 52.484063 
L 182.258819 47.084063 
L 230.316235 47.084063 
L 230.316235 41.684063 
L 402.521977 41.684063 
L 402.521977 36.284063 
L 478.612886 36.284063 
L 478.612886 30.884063 
L 714.895182 30.884063 
L 714.895182 25.484063 
L 750.938245 25.484063 
L 750.938245 20.084063 
L 939.163125 20.084063 
" clip-path="url(#p941423eed6)" style="fill: none; stroke: #1f988b; stroke-width: 7; stroke-linecap: round"/>
   </g>
   <g id="line2d_3">
    <path d="M 102.163125 851.684062 
L 106.16791 851.684062 
L 106.16791 430.484063 
L 110.172694 430.484063 
L 110.172694 349.484062 
L 114.177479 349.484062 
L 114.177479 284.684063 
L 118.182264 284.684063 
L 118.182264 279.284063 
L 126.191833 279.284063 
L 126.191833 246.884063 
L 130.196618 246.884063 
L 130.196618 209.084063 
L 138.206187 209.084063 
L 138.206187 187.484063 
L 146.215757 187.484063 
L 146.215757 106.484063 
L 154.225326 106.484063 
L 154.225326 95.684063 
L 158.230111 95.684063 
L 158.230111 90.284063 
L 162.234895 90.284063 
L 162.234895 79.484063 
L 166.23968 79.484063 
L 166.23968 74.084063 
L 174.249249 74.084063 
L 174.249249 68.684062 
L 178.254034 68.684062 
L 178.254034 57.884063 
L 190.268388 57.884063 
L 190.268388 47.084063 
L 250.340158 47.084063 
L 250.340158 41.684063 
L 490.62724 41.684063 
L 490.62724 30.884063 
L 586.742072 30.884063 
L 586.742072 25.484063 
L 730.914321 25.484063 
L 730.914321 20.084063 
L 939.163125 20.084063 
" clip-path="url(#p941423eed6)" style="fill: none; stroke: #440154; stroke-width: 7; stroke-linecap: round"/>
   </g>
   <g id="patch_3">
    <path d="M 102.163125 851.684062 
L 102.163125 20.084063 
" style="fill: none; stroke: #262626; stroke-width: 1.25; stroke-linejoin: miter; stroke-linecap: square"/>
   </g>
   <g id="patch_4">
    <path d="M 939.163125 851.684062 
L 939.163125 20.084063 
" style="fill: none; stroke: #262626; stroke-width: 1.25; stroke-linejoin: miter; stroke-linecap: square"/>
   </g>
   <g id="patch_5">
    <path d="M 102.163125 851.684062 
L 939.163125 851.684062 
" style="fill: none; stroke: #262626; stroke-width: 1.25; stroke-linejoin: miter; stroke-linecap: square"/>
   </g>
   <g id="patch_6">
    <path d="M 102.163125 20.084063 
L 939.163125 20.084063 
" style="fill: none; stroke: #262626; stroke-width: 1.25; stroke-linejoin: miter; stroke-linecap: square"/>
   </g>
   <g id="legend_1">
    <g id="patch_7">
     <path d="M 18.463125 1108.262812 
L 837.76125 1108.262812 
L 837.76125 934.844062 
L 18.463125 934.844062 
z
" style="fill: #ffffff; opacity: 0.8; stroke: #000000; stroke-linejoin: miter"/>
    </g>
    <g id="line2d_4">
     <path d="M 36.463125 966.473437 
L 72.463125 966.473437 
L 108.463125 966.473437 
" style="fill: none; stroke: #fde725; stroke-width: 7; stroke-linecap: round"/>
    </g>
    <g id="text_15">
     <text style="fill: #262626; font: 36px 'sans-serif'; text-anchor: start" x="126.463125" y="979.073437" transform="rotate(-0, 126.463125, 979.073437)">Random Forest (ROC AUC = 0.99)</text>
    </g>
    <g id="line2d_5">
     <path d="M 36.463125 1018.279688 
L 72.463125 1018.279688 
L 108.463125 1018.279688 
" style="fill: none; stroke: #1f988b; stroke-width: 7; stroke-linecap: round"/>
    </g>
    <g id="text_16">
     <text style="fill: #262626; font: 36px 'sans-serif'; text-anchor: start" x="126.463125" y="1030.879688" transform="rotate(-0, 126.463125, 1030.879688)">Logistic Regression (ROC AUC = 0.97)</text>
    </g>
    <g id="line2d_6">
     <path d="M 36.463125 1070.085938 
L 72.463125 1070.085938 
L 108.463125 1070.085938 
" style="fill: none; stroke: #440154; stroke-width: 7; stroke-linecap: round"/>
    </g>
    <g id="text_17">
     <text style="fill: #262626; font: 36px 'sans-serif'; text-anchor: start" x="126.463125" y="1082.685937" transform="rotate(-0, 126.463125, 1082.685937)">Support Vector Machine (ROC AUC = 0.96)</text>
    </g>
   </g>
  </g>
 </g>
 <defs>
  <clipPath id="p941423eed6">
   <rect x="102.163125" y="20.084063" width="837" height="831.6"/>
  </clipPath>
 </defs>
</svg>
