<?xml version="1.0" encoding="utf-8" standalone="no"?>
<!DOCTYPE svg PUBLIC "-//W3C//DTD SVG 1.1//EN"
  "http://www.w3.org/Graphics/SVG/1.1/DTD/svg11.dtd">
<svg xmlns:xlink="http://www.w3.org/1999/xlink" width="972.883125pt" height="1108.442812pt" viewBox="0 0 972.883125 1108.442812" xmlns="http://www.w3.org/2000/svg" version="1.1">
 <metadata>
  <rdf:RDF xmlns:dc="http://purl.org/dc/elements/1.1/" xmlns:cc="http://creativecommons.org/ns#" xmlns:rdf="http://www.w3.org/1999/02/22-rdf-syntax-ns#">
   <cc:Work>
    <dc:type rdf:resource="http://purl.org/dc/dcmitype/StillImage"/>
    <dc:date>2022-09-21T14:05:16.349303</dc:date>
    <dc:format>image/svg+xml</dc:format>
    <dc:creator>
     <cc:Agent>
      <dc:title>Matplotlib v3.5.1, https://matplotlib.org/</dc:title>
     </cc:Agent>
    </dc:creator>
   </cc:Work>
  </rdf:RDF>
 </metadata>
 <defs>
  <style type="text/css">*{stroke-linejoin: round; stroke-linecap: butt}</style>
 </defs>
 <g id="figure_1">
  <g id="patch_1">
   <path d="M 0 1108.442812 
L 972.883125 1108.442812 
L 972.883125 0 
L 0 0 
z
" style="fill: #ffffff"/>
  </g>
  <g id="axes_1">
   <g id="patch_2">
    <path d="M 103.663125 835.484062 
L 940.663125 835.484062 
L 940.663125 20.084062 
L 103.663125 20.084062 
z
" style="fill: #ffffff"/>
   </g>
   <g id="matplotlib.axis_1">
    <g id="xtick_1">
     <g id="text_1">
      <text style="fill: #262626; font: 36px 'sans-serif'; text-anchor: middle" x="103.663125" y="870.752187" transform="rotate(-0, 103.663125, 870.752187)">0.0</text>
     </g>
    </g>
    <g id="xtick_2">
     <g id="text_2">
      <text style="fill: #262626; font: 36px 'sans-serif'; text-anchor: middle" x="271.063125" y="870.752187" transform="rotate(-0, 271.063125, 870.752187)">0.2</text>
     </g>
    </g>
    <g id="xtick_3">
     <g id="text_3">
      <text style="fill: #262626; font: 36px 'sans-serif'; text-anchor: middle" x="438.463125" y="870.752187" transform="rotate(-0, 438.463125, 870.752187)">0.4</text>
     </g>
    </g>
    <g id="xtick_4">
     <g id="text_4">
      <text style="fill: #262626; font: 36px 'sans-serif'; text-anchor: middle" x="605.863125" y="870.752187" transform="rotate(-0, 605.863125, 870.752187)">0.6</text>
     </g>
    </g>
    <g id="xtick_5">
     <g id="text_5">
      <text style="fill: #262626; font: 36px 'sans-serif'; text-anchor: middle" x="773.263125" y="870.752187" transform="rotate(-0, 773.263125, 870.752187)">0.8</text>
     </g>
    </g>
    <g id="xtick_6">
     <g id="text_6">
      <text style="fill: #262626; font: 36px 'sans-serif'; text-anchor: middle" x="940.663125" y="870.752187" transform="rotate(-0, 940.663125, 870.752187)">1.0</text>
     </g>
    </g>
    <g id="text_7">
     <text style="fill: #262626; font: 36px 'sans-serif'; text-anchor: middle" x="522.163125" y="907.675312" transform="rotate(-0, 522.163125, 907.675312)">False Positive Rate</text>
    </g>
   </g>
   <g id="matplotlib.axis_2">
    <g id="ytick_1">
     <g id="text_8">
      <text style="fill: #262626; font: 36px 'sans-serif'; text-anchor: end" x="94.163125" y="848.368125" transform="rotate(-0, 94.163125, 848.368125)">0.0</text>
     </g>
    </g>
    <g id="ytick_2">
     <g id="text_9">
      <text style="fill: #262626; font: 36px 'sans-serif'; text-anchor: end" x="94.163125" y="685.288125" transform="rotate(-0, 94.163125, 685.288125)">0.2</text>
     </g>
    </g>
    <g id="ytick_3">
     <g id="text_10">
      <text style="fill: #262626; font: 36px 'sans-serif'; text-anchor: end" x="94.163125" y="522.208125" transform="rotate(-0, 94.163125, 522.208125)">0.4</text>
     </g>
    </g>
    <g id="ytick_4">
     <g id="text_11">
      <text style="fill: #262626; font: 36px 'sans-serif'; text-anchor: end" x="94.163125" y="359.128125" transform="rotate(-0, 94.163125, 359.128125)">0.6</text>
     </g>
    </g>
    <g id="ytick_5">
     <g id="text_12">
      <text style="fill: #262626; font: 36px 'sans-serif'; text-anchor: end" x="94.163125" y="196.048125" transform="rotate(-0, 94.163125, 196.048125)">0.8</text>
     </g>
    </g>
    <g id="ytick_6">
     <g id="text_13">
      <text style="fill: #262626; font: 36px 'sans-serif'; text-anchor: end" x="94.163125" y="32.968125" transform="rotate(-0, 94.163125, 32.968125)">1.0</text>
     </g>
    </g>
    <g id="text_14">
     <text style="fill: #262626; font: 36px 'sans-serif'; text-anchor: middle" x="32.968125" y="427.784062" transform="rotate(-90, 32.968125, 427.784062)">True Positive Rate</text>
    </g>
   </g>
   <g id="line2d_1">
    <path d="M 103.663125 835.484062 
L 103.663125 666.050296 
L 103.663125 544.269777 
L 103.663125 496.61653 
L 103.663125 422.489257 
L 103.663125 411.899647 
L 103.663125 385.425621 
L 103.663125 343.067179 
L 103.663125 311.298348 
L 103.663125 295.413933 
L 103.663125 268.939907 
L 103.663125 263.645101 
L 103.663125 237.171075 
L 103.663125 226.581465 
L 103.663125 210.69705 
L 107.66791 210.69705 
L 107.66791 189.517829 
L 107.66791 178.928218 
L 111.672694 163.043803 
L 111.672694 120.685361 
L 115.677479 120.685361 
L 115.677479 115.390556 
L 119.682264 115.390556 
L 119.682264 99.50614 
L 123.687048 99.50614 
L 123.687048 94.211335 
L 127.691833 94.211335 
L 131.696618 88.91653 
L 135.701403 88.91653 
L 135.701403 83.621725 
L 139.706187 83.621725 
L 139.706187 78.32692 
L 147.715757 78.32692 
L 147.715757 67.737309 
L 155.725326 67.737309 
L 163.734895 62.442504 
L 167.73968 57.147699 
L 191.768388 57.147699 
L 203.782742 51.852894 
L 207.787527 46.558088 
L 215.797096 46.558088 
L 223.806666 46.558088 
L 227.81145 46.558088 
L 239.825804 46.558088 
L 247.835374 46.558088 
L 251.840158 46.558088 
L 259.849728 41.263283 
L 263.854513 35.968478 
L 287.883221 35.968478 
L 323.926283 35.968478 
L 355.96456 25.378868 
L 468.098532 20.084062 
L 940.663125 20.084062 
" clip-path="url(#pb1ad4fbbb8)" style="fill: none; stroke: #fde725; stroke-width: 7; stroke-linecap: round"/>
   </g>
   <g id="line2d_2">
    <path d="M 103.663125 835.484062 
L 103.663125 830.189257 
L 103.663125 554.859387 
L 107.66791 554.859387 
L 107.66791 507.20614 
L 111.672694 507.20614 
L 111.672694 247.760686 
L 115.677479 247.760686 
L 115.677479 152.454192 
L 119.682264 152.454192 
L 119.682264 136.569777 
L 123.687048 136.569777 
L 123.687048 120.685361 
L 127.691833 120.685361 
L 127.691833 110.095751 
L 131.696618 110.095751 
L 131.696618 104.800946 
L 143.710972 104.800946 
L 143.710972 99.50614 
L 147.715757 99.50614 
L 147.715757 88.91653 
L 151.720541 88.91653 
L 151.720541 78.32692 
L 155.725326 78.32692 
L 155.725326 73.032114 
L 159.730111 73.032114 
L 159.730111 62.442504 
L 167.73968 62.442504 
L 167.73968 57.147699 
L 171.744465 57.147699 
L 171.744465 51.852894 
L 183.758819 51.852894 
L 183.758819 46.558088 
L 235.82102 46.558088 
L 235.82102 41.263283 
L 404.021977 41.263283 
L 404.021977 35.968478 
L 480.112886 35.968478 
L 480.112886 30.673673 
L 716.395182 30.673673 
L 716.395182 25.378868 
L 756.443029 25.378868 
L 756.443029 20.084062 
L 940.663125 20.084062 
" clip-path="url(#pb1ad4fbbb8)" style="fill: none; stroke: #1f988b; stroke-width: 7; stroke-linecap: round"/>
   </g>
   <g id="line2d_3">
    <path d="M 103.663125 835.484062 
L 107.66791 835.484062 
L 107.66791 422.489257 
L 111.672694 422.489257 
L 111.672694 343.067179 
L 115.677479 343.067179 
L 115.677479 279.529517 
L 119.682264 279.529517 
L 119.682264 274.234712 
L 127.691833 274.234712 
L 127.691833 242.465881 
L 131.696618 242.465881 
L 131.696618 205.402244 
L 139.706187 205.402244 
L 139.706187 184.223024 
L 147.715757 184.223024 
L 147.715757 104.800946 
L 155.725326 104.800946 
L 155.725326 94.211335 
L 159.730111 94.211335 
L 159.730111 88.91653 
L 163.734895 88.91653 
L 163.734895 78.32692 
L 167.73968 78.32692 
L 167.73968 73.032114 
L 175.749249 73.032114 
L 175.749249 67.737309 
L 179.754034 67.737309 
L 179.754034 57.147699 
L 191.768388 57.147699 
L 191.768388 46.558088 
L 251.840158 46.558088 
L 251.840158 41.263283 
L 492.12724 41.263283 
L 492.12724 30.673673 
L 588.242072 30.673673 
L 588.242072 25.378868 
L 732.414321 25.378868 
L 732.414321 20.084062 
L 940.663125 20.084062 
" clip-path="url(#pb1ad4fbbb8)" style="fill: none; stroke: #440154; stroke-width: 7; stroke-linecap: round"/>
   </g>
   <g id="patch_3">
    <path d="M 103.663125 835.484062 
L 103.663125 20.084062 
" style="fill: none; stroke: #262626; stroke-width: 1.25; stroke-linejoin: miter; stroke-linecap: square"/>
   </g>
   <g id="patch_4">
    <path d="M 940.663125 835.484062 
L 940.663125 20.084062 
" style="fill: none; stroke: #262626; stroke-width: 1.25; stroke-linejoin: miter; stroke-linecap: square"/>
   </g>
   <g id="patch_5">
    <path d="M 103.663125 835.484062 
L 940.663125 835.484062 
" style="fill: none; stroke: #262626; stroke-width: 1.25; stroke-linejoin: miter; stroke-linecap: square"/>
   </g>
   <g id="patch_6">
    <path d="M 103.663125 20.084062 
L 940.663125 20.084062 
" style="fill: none; stroke: #262626; stroke-width: 1.25; stroke-linejoin: miter; stroke-linecap: square"/>
   </g>
   <g id="legend_1">
    <g id="patch_7">
     <path d="M 45.163125 1101.242812 
L 853.66125 1101.242812 
Q 860.86125 1101.242812 860.86125 1094.042812 
L 860.86125 942.224062 
Q 860.86125 935.024062 853.66125 935.024062 
L 45.163125 935.024062 
Q 37.963125 935.024062 37.963125 942.224062 
L 37.963125 1094.042812 
Q 37.963125 1101.242812 45.163125 1101.242812 
z
" style="fill: #ffffff; opacity: 0.8; stroke: #cccccc; stroke-linejoin: miter"/>
    </g>
    <g id="line2d_4">
     <path d="M 52.363125 963.053437 
L 88.363125 963.053437 
L 124.363125 963.053437 
" style="fill: none; stroke: #fde725; stroke-width: 7; stroke-linecap: round"/>
    </g>
    <g id="text_15">
     <text style="fill: #262626; font: 36px 'sans-serif'; text-anchor: start" x="153.163125" y="975.653437" transform="rotate(-0, 153.163125, 975.653437)">Random Forest (ROC AUC = 0.99)</text>
    </g>
    <g id="line2d_5">
     <path d="M 52.363125 1014.859687 
L 88.363125 1014.859687 
L 124.363125 1014.859687 
" style="fill: none; stroke: #1f988b; stroke-width: 7; stroke-linecap: round"/>
    </g>
    <g id="text_16">
     <text style="fill: #262626; font: 36px 'sans-serif'; text-anchor: start" x="153.163125" y="1027.459687" transform="rotate(-0, 153.163125, 1027.459687)">Logistic Regression (ROC AUC = 0.97)</text>
    </g>
    <g id="line2d_6">
     <path d="M 52.363125 1066.665937 
L 88.363125 1066.665937 
L 124.363125 1066.665937 
" style="fill: none; stroke: #440154; stroke-width: 7; stroke-linecap: round"/>
    </g>
    <g id="text_17">
     <text style="fill: #262626; font: 36px 'sans-serif'; text-anchor: start" x="153.163125" y="1079.265937" transform="rotate(-0, 153.163125, 1079.265937)">Support Vector Machine (ROC AUC = 0.96)</text>
    </g>
   </g>
  </g>
 </g>
 <defs>
  <clipPath id="pb1ad4fbbb8">
   <rect x="103.663125" y="20.084062" width="837" height="815.4"/>
  </clipPath>
 </defs>
</svg>
