<?xml version="1.0" encoding="utf-8" standalone="no"?>
<!DOCTYPE svg PUBLIC "-//W3C//DTD SVG 1.1//EN"
  "http://www.w3.org/Graphics/SVG/1.1/DTD/svg11.dtd">
<svg xmlns:xlink="http://www.w3.org/1999/xlink" width="985.010625pt" height="1315.667812pt" viewBox="0 0 985.010625 1315.667812" xmlns="http://www.w3.org/2000/svg" version="1.1">
 <metadata>
  <rdf:RDF xmlns:dc="http://purl.org/dc/elements/1.1/" xmlns:cc="http://creativecommons.org/ns#" xmlns:rdf="http://www.w3.org/1999/02/22-rdf-syntax-ns#">
   <cc:Work>
    <dc:type rdf:resource="http://purl.org/dc/dcmitype/StillImage"/>
    <dc:date>2022-09-21T11:32:40.582158</dc:date>
    <dc:format>image/svg+xml</dc:format>
    <dc:creator>
     <cc:Agent>
      <dc:title>Matplotlib v3.5.1, https://matplotlib.org/</dc:title>
     </cc:Agent>
    </dc:creator>
   </cc:Work>
  </rdf:RDF>
 </metadata>
 <defs>
  <style type="text/css">*{stroke-linejoin: round; stroke-linecap: butt}</style>
 </defs>
 <g id="figure_1">
  <g id="patch_1">
   <path d="M 0 1315.667812 
L 985.010625 1315.667812 
L 985.010625 0 
L 0 0 
z
" style="fill: #ffffff"/>
  </g>
  <g id="axes_1">
   <g id="patch_2">
    <path d="M 103.663125 835.484062 
L 940.663125 835.484062 
L 940.663125 20.084063 
L 103.663125 20.084063 
z
" style="fill: #ffffff"/>
   </g>
   <g id="matplotlib.axis_1">
    <g id="xtick_1">
     <g id="text_1">
      <text style="fill: #262626; font: 36px 'sans-serif'; text-anchor: middle" x="103.663125" y="870.752187" transform="rotate(-0, 103.663125, 870.752187)">0.0</text>
     </g>
    </g>
    <g id="xtick_2">
     <g id="text_2">
      <text style="fill: #262626; font: 36px 'sans-serif'; text-anchor: middle" x="271.063125" y="870.752187" transform="rotate(-0, 271.063125, 870.752187)">0.2</text>
     </g>
    </g>
    <g id="xtick_3">
     <g id="text_3">
      <text style="fill: #262626; font: 36px 'sans-serif'; text-anchor: middle" x="438.463125" y="870.752187" transform="rotate(-0, 438.463125, 870.752187)">0.4</text>
     </g>
    </g>
    <g id="xtick_4">
     <g id="text_4">
      <text style="fill: #262626; font: 36px 'sans-serif'; text-anchor: middle" x="605.863125" y="870.752187" transform="rotate(-0, 605.863125, 870.752187)">0.6</text>
     </g>
    </g>
    <g id="xtick_5">
     <g id="text_5">
      <text style="fill: #262626; font: 36px 'sans-serif'; text-anchor: middle" x="773.263125" y="870.752187" transform="rotate(-0, 773.263125, 870.752187)">0.8</text>
     </g>
    </g>
    <g id="xtick_6">
     <g id="text_6">
      <text style="fill: #262626; font: 36px 'sans-serif'; text-anchor: middle" x="940.663125" y="870.752187" transform="rotate(-0, 940.663125, 870.752187)">1.0</text>
     </g>
    </g>
    <g id="text_7">
     <text style="fill: #262626; font: 36px 'sans-serif'; text-anchor: middle" x="522.163125" y="907.675313" transform="rotate(-0, 522.163125, 907.675313)">False Positive Rate</text>
    </g>
   </g>
   <g id="matplotlib.axis_2">
    <g id="ytick_1">
     <g id="text_8">
      <text style="fill: #262626; font: 36px 'sans-serif'; text-anchor: end" x="94.163125" y="848.368125" transform="rotate(-0, 94.163125, 848.368125)">0.0</text>
     </g>
    </g>
    <g id="ytick_2">
     <g id="text_9">
      <text style="fill: #262626; font: 36px 'sans-serif'; text-anchor: end" x="94.163125" y="685.288125" transform="rotate(-0, 94.163125, 685.288125)">0.2</text>
     </g>
    </g>
    <g id="ytick_3">
     <g id="text_10">
      <text style="fill: #262626; font: 36px 'sans-serif'; text-anchor: end" x="94.163125" y="522.208125" transform="rotate(-0, 94.163125, 522.208125)">0.4</text>
     </g>
    </g>
    <g id="ytick_4">
     <g id="text_11">
      <text style="fill: #262626; font: 36px 'sans-serif'; text-anchor: end" x="94.163125" y="359.128125" transform="rotate(-0, 94.163125, 359.128125)">0.6</text>
     </g>
    </g>
    <g id="ytick_5">
     <g id="text_12">
      <text style="fill: #262626; font: 36px 'sans-serif'; text-anchor: end" x="94.163125" y="196.048125" transform="rotate(-0, 94.163125, 196.048125)">0.8</text>
     </g>
    </g>
    <g id="ytick_6">
     <g id="text_13">
      <text style="fill: #262626; font: 36px 'sans-serif'; text-anchor: end" x="94.163125" y="32.968125" transform="rotate(-0, 94.163125, 32.968125)">1.0</text>
     </g>
    </g>
    <g id="text_14">
     <text style="fill: #262626; font: 36px 'sans-serif'; text-anchor: middle" x="32.968125" y="427.784063" transform="rotate(-90, 32.968125, 427.784063)">True Positive Rate</text>
    </g>
   </g>
   <g id="line2d_1">
    <path d="M 103.663125 835.484062 
L 103.663125 773.494589 
L 103.663125 749.652484 
L 103.663125 735.34722 
L 103.663125 678.126168 
L 103.663125 654.284063 
L 103.663125 635.210378 
L 103.663125 625.673536 
L 103.663125 606.599852 
L 103.663125 582.757747 
L 103.663125 563.684062 
L 103.663125 558.915641 
L 106.12489 539.841957 
L 108.586654 530.305115 
L 111.048419 530.305115 
L 111.048419 525.536694 
L 111.048419 506.46301 
L 111.048419 496.926168 
L 115.971949 492.157747 
L 120.895478 482.620905 
L 123.357243 468.315641 
L 125.819007 468.315641 
L 125.819007 454.010378 
L 125.819007 444.473536 
L 128.280772 434.936694 
L 128.280772 430.168273 
L 128.280772 420.631431 
L 128.280772 406.326168 
L 133.204301 387.252484 
L 133.204301 372.94722 
L 135.666066 368.178799 
L 140.589596 344.336694 
L 143.05136 344.336694 
L 147.97489 330.031431 
L 150.436654 325.26301 
L 152.898419 315.726168 
L 152.898419 310.957747 
L 152.898419 301.420905 
L 155.360184 301.420905 
L 157.821949 287.115641 
L 162.745478 287.115641 
L 162.745478 282.34722 
L 167.669007 277.578799 
L 170.130772 272.810378 
L 177.516066 268.041957 
L 182.439596 258.505115 
L 182.439596 244.199852 
L 182.439596 239.431431 
L 184.90136 229.894589 
L 187.363125 229.894589 
L 189.82489 220.357747 
L 194.748419 220.357747 
L 194.748419 210.820905 
L 199.671949 196.515641 
L 204.595478 191.74722 
L 209.519007 191.74722 
L 226.75136 182.210378 
L 229.213125 172.673536 
L 239.060184 172.673536 
L 248.907243 163.136694 
L 258.754301 163.136694 
L 266.139596 163.136694 
L 271.063125 163.136694 
L 273.52489 158.368273 
L 283.371949 158.368273 
L 288.295478 139.294589 
L 293.219007 124.989326 
L 310.45136 120.220905 
L 325.221949 110.684063 
L 337.530772 101.14722 
L 347.377831 96.378799 
L 349.839596 91.610378 
L 369.533713 91.610378 
L 389.227831 72.536694 
L 406.460184 67.768273 
L 426.154301 58.231431 
L 440.92489 58.231431 
L 460.619007 48.694589 
L 475.389596 48.694589 
L 497.545478 48.694589 
L 524.62489 43.926168 
L 556.627831 43.926168 
L 591.092537 39.157747 
L 647.713125 39.157747 
L 706.795478 29.620905 
L 792.957243 29.620905 
L 856.963125 20.084063 
L 940.663125 20.084063 
" clip-path="url(#p8430634e5c)" style="fill: none; stroke: #fde725; stroke-width: 5; stroke-linecap: round"/>
   </g>
   <g id="line2d_2">
    <path d="M 103.663125 835.484062 
L 106.12489 802.105115 
L 108.586654 768.726168 
L 108.586654 711.505115 
L 108.586654 701.968273 
L 108.586654 678.126168 
L 111.048419 654.284063 
L 111.048419 649.515641 
L 111.048419 630.441957 
L 113.510184 611.368273 
L 115.971949 597.06301 
L 118.433713 587.526168 
L 118.433713 573.220905 
L 123.357243 573.220905 
L 125.819007 558.915641 
L 128.280772 554.14722 
L 128.280772 539.841957 
L 128.280772 511.231431 
L 130.742537 511.231431 
L 130.742537 501.694589 
L 130.742537 496.926168 
L 130.742537 487.389326 
L 138.127831 468.315641 
L 140.589596 449.241957 
L 140.589596 434.936694 
L 140.589596 425.399852 
L 145.513125 420.631431 
L 150.436654 420.631431 
L 160.283713 401.557747 
L 160.283713 377.715641 
L 162.745478 372.94722 
L 167.669007 368.178799 
L 170.130772 363.410378 
L 175.054301 358.641957 
L 175.054301 339.568273 
L 177.516066 339.568273 
L 177.516066 330.031431 
L 177.516066 325.26301 
L 179.977831 315.726168 
L 184.90136 315.726168 
L 187.363125 310.957747 
L 189.82489 310.957747 
L 202.133713 301.420905 
L 202.133713 291.884063 
L 204.595478 287.115641 
L 207.057243 287.115641 
L 209.519007 268.041957 
L 211.980772 268.041957 
L 219.366066 263.273536 
L 229.213125 253.736694 
L 229.213125 248.968273 
L 231.67489 248.968273 
L 234.136654 239.431431 
L 239.060184 239.431431 
L 241.521949 234.66301 
L 241.521949 220.357747 
L 246.445478 220.357747 
L 246.445478 215.589326 
L 248.907243 215.589326 
L 251.369007 206.052484 
L 258.754301 191.74722 
L 261.216066 191.74722 
L 263.677831 182.210378 
L 268.60136 182.210378 
L 271.063125 177.441957 
L 280.910184 177.441957 
L 295.680772 167.905115 
L 307.989596 158.368273 
L 322.760184 153.599852 
L 327.683713 144.06301 
L 335.069007 129.757747 
L 344.916066 120.220905 
L 357.22489 110.684063 
L 381.842537 101.14722 
L 396.613125 101.14722 
L 408.921949 101.14722 
L 423.692537 96.378799 
L 438.463125 96.378799 
L 480.313125 82.073536 
L 504.930772 67.768273 
L 544.319007 62.999852 
L 576.321949 48.694589 
L 615.710184 39.157747 
L 677.254301 24.852484 
L 738.798419 20.084063 
L 807.727831 20.084063 
L 940.663125 20.084063 
" clip-path="url(#p8430634e5c)" style="fill: none; stroke: #a5db36; stroke-width: 5; stroke-linecap: round"/>
   </g>
   <g id="line2d_3">
    <path d="M 103.663125 835.484062 
L 103.663125 749.652484 
L 103.663125 716.273536 
L 106.12489 682.894589 
L 108.586654 654.284063 
L 113.510184 644.74722 
L 113.510184 630.441957 
L 113.510184 620.905115 
L 113.510184 601.831431 
L 113.510184 587.526168 
L 115.971949 573.220905 
L 115.971949 544.610378 
L 118.433713 535.073536 
L 120.895478 520.768273 
L 125.819007 515.999852 
L 128.280772 506.46301 
L 135.666066 506.46301 
L 135.666066 496.926168 
L 135.666066 492.157747 
L 135.666066 482.620905 
L 143.05136 463.54722 
L 145.513125 454.010378 
L 145.513125 449.241957 
L 147.97489 449.241957 
L 150.436654 439.705115 
L 155.360184 434.936694 
L 155.360184 415.86301 
L 155.360184 411.094589 
L 157.821949 406.326168 
L 157.821949 392.020905 
L 157.821949 382.484062 
L 160.283713 372.94722 
L 160.283713 363.410378 
L 160.283713 358.641957 
L 165.207243 353.873536 
L 165.207243 344.336694 
L 167.669007 344.336694 
L 167.669007 325.26301 
L 170.130772 310.957747 
L 170.130772 306.189326 
L 172.592537 301.420905 
L 172.592537 291.884063 
L 175.054301 291.884063 
L 177.516066 287.115641 
L 182.439596 287.115641 
L 184.90136 287.115641 
L 184.90136 282.34722 
L 187.363125 272.810378 
L 192.286654 272.810378 
L 192.286654 258.505115 
L 194.748419 258.505115 
L 197.210184 253.736694 
L 197.210184 248.968273 
L 202.133713 248.968273 
L 202.133713 244.199852 
L 207.057243 239.431431 
L 209.519007 239.431431 
L 214.442537 234.66301 
L 214.442537 229.894589 
L 219.366066 220.357747 
L 221.827831 215.589326 
L 229.213125 210.820905 
L 239.060184 210.820905 
L 246.445478 210.820905 
L 261.216066 206.052484 
L 268.60136 196.515641 
L 273.52489 196.515641 
L 283.371949 177.441957 
L 283.371949 172.673536 
L 293.219007 167.905115 
L 300.604301 167.905115 
L 303.066066 167.905115 
L 310.45136 163.136694 
L 320.298419 163.136694 
L 330.145478 153.599852 
L 359.686654 144.06301 
L 364.610184 134.526168 
L 384.304301 134.526168 
L 403.998419 129.757747 
L 418.769007 124.989326 
L 436.00136 120.220905 
L 460.619007 110.684063 
L 470.466066 101.14722 
L 502.469007 96.378799 
L 536.933713 96.378799 
L 564.013125 82.073536 
L 600.939596 67.768273 
L 647.713125 58.231431 
L 714.180772 43.926168 
L 775.72489 34.389326 
L 940.663125 20.084063 
" clip-path="url(#p8430634e5c)" style="fill: none; stroke: #4ac16d; stroke-width: 5; stroke-linecap: round"/>
   </g>
   <g id="line2d_4">
    <path d="M 103.663125 835.484062 
L 106.12489 768.726168 
L 106.12489 716.273536 
L 106.12489 701.968273 
L 108.586654 673.357747 
L 111.048419 649.515641 
L 113.510184 635.210378 
L 113.510184 625.673536 
L 118.433713 606.599852 
L 123.357243 597.06301 
L 123.357243 587.526168 
L 123.357243 573.220905 
L 125.819007 563.684062 
L 125.819007 554.14722 
L 125.819007 544.610378 
L 128.280772 530.305115 
L 130.742537 520.768273 
L 130.742537 506.46301 
L 133.204301 501.694589 
L 133.204301 482.620905 
L 133.204301 473.084063 
L 138.127831 468.315641 
L 138.127831 463.54722 
L 138.127831 439.705115 
L 138.127831 434.936694 
L 140.589596 411.094589 
L 140.589596 392.020905 
L 140.589596 387.252484 
L 143.05136 382.484062 
L 147.97489 372.94722 
L 150.436654 372.94722 
L 155.360184 363.410378 
L 155.360184 353.873536 
L 157.821949 353.873536 
L 160.283713 344.336694 
L 165.207243 339.568273 
L 165.207243 334.799852 
L 167.669007 330.031431 
L 170.130772 320.494589 
L 170.130772 315.726168 
L 170.130772 306.189326 
L 177.516066 306.189326 
L 182.439596 301.420905 
L 184.90136 296.652484 
L 194.748419 296.652484 
L 197.210184 296.652484 
L 197.210184 291.884063 
L 207.057243 291.884063 
L 209.519007 277.578799 
L 216.904301 268.041957 
L 221.827831 258.505115 
L 226.75136 258.505115 
L 234.136654 248.968273 
L 243.983713 239.431431 
L 251.369007 229.894589 
L 253.830772 229.894589 
L 253.830772 225.126168 
L 258.754301 210.820905 
L 266.139596 201.284063 
L 273.52489 201.284063 
L 283.371949 201.284063 
L 285.833713 191.74722 
L 288.295478 191.74722 
L 290.757243 186.978799 
L 307.989596 186.978799 
L 312.913125 186.978799 
L 330.145478 182.210378 
L 330.145478 177.441957 
L 339.992537 177.441957 
L 352.30136 172.673536 
L 367.071949 167.905115 
L 371.995478 163.136694 
L 376.919007 144.06301 
L 394.15136 144.06301 
L 401.536654 139.294589 
L 408.921949 139.294589 
L 416.307243 134.526168 
L 436.00136 124.989326 
L 458.157243 115.452484 
L 477.85136 96.378799 
L 495.083713 96.378799 
L 522.163125 82.073536 
L 564.013125 67.768273 
L 610.786654 58.231431 
L 669.869007 48.694589 
L 716.642537 34.389326 
L 775.72489 34.389326 
L 864.348419 20.084063 
L 940.663125 20.084063 
" clip-path="url(#p8430634e5c)" style="fill: none; stroke: #1f988b; stroke-width: 5; stroke-linecap: round"/>
   </g>
   <g id="line2d_5">
    <path d="M 103.663125 835.484062 
L 111.048419 725.810378 
L 111.048419 673.357747 
L 111.048419 663.820905 
L 111.048419 649.515641 
L 111.048419 625.673536 
L 113.510184 616.136694 
L 113.510184 611.368273 
L 115.971949 587.526168 
L 118.433713 587.526168 
L 120.895478 582.757747 
L 120.895478 577.989326 
L 123.357243 568.452484 
L 123.357243 554.14722 
L 123.357243 549.378799 
L 123.357243 530.305115 
L 123.357243 525.536694 
L 125.819007 525.536694 
L 125.819007 515.999852 
L 125.819007 501.694589 
L 128.280772 501.694589 
L 128.280772 492.157747 
L 133.204301 477.852484 
L 133.204301 468.315641 
L 140.589596 458.778799 
L 143.05136 454.010378 
L 145.513125 444.473536 
L 152.898419 439.705115 
L 160.283713 430.168273 
L 160.283713 425.399852 
L 165.207243 420.631431 
L 167.669007 411.094589 
L 167.669007 396.789326 
L 170.130772 392.020905 
L 170.130772 377.715641 
L 177.516066 372.94722 
L 179.977831 368.178799 
L 184.90136 353.873536 
L 189.82489 353.873536 
L 194.748419 339.568273 
L 197.210184 339.568273 
L 199.671949 334.799852 
L 204.595478 334.799852 
L 209.519007 330.031431 
L 211.980772 320.494589 
L 229.213125 315.726168 
L 234.136654 315.726168 
L 241.521949 310.957747 
L 246.445478 306.189326 
L 246.445478 291.884063 
L 251.369007 291.884063 
L 253.830772 291.884063 
L 258.754301 291.884063 
L 263.677831 287.115641 
L 266.139596 272.810378 
L 273.52489 263.273536 
L 280.910184 258.505115 
L 288.295478 258.505115 
L 293.219007 253.736694 
L 295.680772 248.968273 
L 300.604301 244.199852 
L 305.527831 244.199852 
L 307.989596 239.431431 
L 315.37489 234.66301 
L 320.298419 234.66301 
L 322.760184 229.894589 
L 325.221949 229.894589 
L 332.607243 229.894589 
L 335.069007 225.126168 
L 337.530772 225.126168 
L 342.454301 206.052484 
L 349.839596 201.284063 
L 349.839596 191.74722 
L 359.686654 186.978799 
L 367.071949 177.441957 
L 384.304301 177.441957 
L 389.227831 177.441957 
L 396.613125 172.673536 
L 411.383713 172.673536 
L 421.230772 172.673536 
L 436.00136 153.599852 
L 450.771949 148.831431 
L 468.004301 148.831431 
L 477.85136 148.831431 
L 492.621949 139.294589 
L 507.392537 139.294589 
L 512.316066 139.294589 
L 517.239596 129.757747 
L 541.857243 124.989326 
L 556.627831 110.684063 
L 610.786654 82.073536 
L 645.25136 67.768273 
L 758.492537 48.694589 
L 940.663125 20.084063 
" clip-path="url(#p8430634e5c)" style="fill: none; stroke: #2a788e; stroke-width: 5; stroke-linecap: round"/>
   </g>
   <g id="line2d_6">
    <path d="M 103.663125 835.484062 
L 133.204301 663.820905 
L 133.204301 639.978799 
L 133.204301 625.673536 
L 138.127831 616.136694 
L 140.589596 587.526168 
L 147.97489 577.989326 
L 152.898419 568.452484 
L 157.821949 549.378799 
L 162.745478 535.073536 
L 162.745478 525.536694 
L 165.207243 525.536694 
L 172.592537 515.999852 
L 172.592537 501.694589 
L 175.054301 492.157747 
L 177.516066 492.157747 
L 177.516066 473.084063 
L 177.516066 463.54722 
L 179.977831 463.54722 
L 179.977831 454.010378 
L 182.439596 430.168273 
L 182.439596 425.399852 
L 189.82489 411.094589 
L 189.82489 406.326168 
L 189.82489 396.789326 
L 192.286654 392.020905 
L 209.519007 377.715641 
L 211.980772 377.715641 
L 221.827831 372.94722 
L 224.289596 372.94722 
L 236.598419 372.94722 
L 251.369007 363.410378 
L 253.830772 363.410378 
L 261.216066 358.641957 
L 266.139596 358.641957 
L 273.52489 358.641957 
L 275.986654 358.641957 
L 275.986654 349.105115 
L 278.448419 349.105115 
L 278.448419 339.568273 
L 280.910184 330.031431 
L 280.910184 306.189326 
L 280.910184 296.652484 
L 283.371949 296.652484 
L 285.833713 291.884063 
L 288.295478 282.34722 
L 290.757243 282.34722 
L 290.757243 268.041957 
L 303.066066 258.505115 
L 303.066066 248.968273 
L 305.527831 248.968273 
L 310.45136 244.199852 
L 322.760184 225.126168 
L 337.530772 215.589326 
L 342.454301 215.589326 
L 347.377831 215.589326 
L 352.30136 201.284063 
L 357.22489 201.284063 
L 359.686654 196.515641 
L 359.686654 191.74722 
L 362.148419 191.74722 
L 367.071949 191.74722 
L 396.613125 191.74722 
L 403.998419 186.978799 
L 411.383713 186.978799 
L 418.769007 182.210378 
L 433.539596 182.210378 
L 440.92489 177.441957 
L 460.619007 172.673536 
L 487.698419 163.136694 
L 536.933713 148.831431 
L 940.663125 20.084063 
" clip-path="url(#p8430634e5c)" style="fill: none; stroke: #414487; stroke-width: 5; stroke-linecap: round"/>
   </g>
   <g id="line2d_7">
    <path d="M 103.663125 835.484062 
L 106.12489 787.799852 
L 111.048419 744.884062 
L 115.971949 730.578799 
L 123.357243 701.968273 
L 123.357243 692.431431 
L 125.819007 687.66301 
L 125.819007 678.126168 
L 128.280772 673.357747 
L 128.280772 659.052484 
L 130.742537 654.284063 
L 130.742537 644.74722 
L 133.204301 639.978799 
L 135.666066 630.441957 
L 135.666066 620.905115 
L 138.127831 620.905115 
L 140.589596 606.599852 
L 145.513125 606.599852 
L 147.97489 597.06301 
L 147.97489 587.526168 
L 150.436654 582.757747 
L 150.436654 577.989326 
L 152.898419 577.989326 
L 160.283713 573.220905 
L 162.745478 568.452484 
L 167.669007 568.452484 
L 177.516066 549.378799 
L 179.977831 544.610378 
L 187.363125 530.305115 
L 192.286654 520.768273 
L 202.133713 520.768273 
L 214.442537 511.231431 
L 219.366066 511.231431 
L 239.060184 511.231431 
L 239.060184 506.46301 
L 243.983713 496.926168 
L 243.983713 492.157747 
L 253.830772 482.620905 
L 258.754301 477.852484 
L 263.677831 477.852484 
L 271.063125 468.315641 
L 293.219007 454.010378 
L 295.680772 449.241957 
L 298.142537 439.705115 
L 303.066066 430.168273 
L 317.836654 420.631431 
L 320.298419 411.094589 
L 325.221949 396.789326 
L 335.069007 387.252484 
L 337.530772 377.715641 
L 342.454301 377.715641 
L 357.22489 368.178799 
L 369.533713 358.641957 
L 374.457243 353.873536 
L 384.304301 344.336694 
L 391.689596 344.336694 
L 399.07489 339.568273 
L 411.383713 330.031431 
L 416.307243 330.031431 
L 433.539596 330.031431 
L 450.771949 320.494589 
L 465.542537 310.957747 
L 472.927831 301.420905 
L 482.77489 282.34722 
L 490.160184 268.041957 
L 502.469007 248.968273 
L 514.777831 248.968273 
L 564.013125 229.894589 
L 583.707243 229.894589 
L 603.40136 215.589326 
L 613.248419 210.820905 
L 635.404301 186.978799 
L 655.098419 172.673536 
L 669.869007 167.905115 
L 694.486654 158.368273 
L 724.027831 134.526168 
L 736.336654 124.989326 
L 780.648419 110.684063 
L 820.036654 77.305115 
L 849.577831 53.46301 
L 911.121949 43.926168 
L 940.663125 20.084063 
" clip-path="url(#p8430634e5c)" style="fill: none; stroke: #440154; stroke-width: 5; stroke-linecap: round"/>
   </g>
   <g id="patch_3">
    <path d="M 103.663125 835.484062 
L 103.663125 20.084063 
" style="fill: none; stroke: #262626; stroke-width: 1.25; stroke-linejoin: miter; stroke-linecap: square"/>
   </g>
   <g id="patch_4">
    <path d="M 940.663125 835.484062 
L 940.663125 20.084063 
" style="fill: none; stroke: #262626; stroke-width: 1.25; stroke-linejoin: miter; stroke-linecap: square"/>
   </g>
   <g id="patch_5">
    <path d="M 103.663125 835.484062 
L 940.663125 835.484062 
" style="fill: none; stroke: #262626; stroke-width: 1.25; stroke-linejoin: miter; stroke-linecap: square"/>
   </g>
   <g id="patch_6">
    <path d="M 103.663125 20.084063 
L 940.663125 20.084063 
" style="fill: none; stroke: #262626; stroke-width: 1.25; stroke-linejoin: miter; stroke-linecap: square"/>
   </g>
   <g id="legend_1">
    <g id="patch_7">
     <path d="M 45.163125 1308.467812 
L 970.610625 1308.467812 
Q 977.810625 1308.467812 977.810625 1301.267812 
L 977.810625 942.224062 
Q 977.810625 935.024062 970.610625 935.024062 
L 45.163125 935.024062 
Q 37.963125 935.024062 37.963125 942.224062 
L 37.963125 1301.267812 
Q 37.963125 1308.467812 45.163125 1308.467812 
z
" style="fill: #ffffff; opacity: 0.8; stroke: #cccccc; stroke-linejoin: miter"/>
    </g>
    <g id="line2d_8">
     <path d="M 52.363125 963.053437 
L 88.363125 963.053437 
L 124.363125 963.053437 
" style="fill: none; stroke: #fde725; stroke-width: 5; stroke-linecap: round"/>
    </g>
    <g id="text_15">
     <text style="fill: #262626; font: 36px 'sans-serif'; text-anchor: start" x="153.163125" y="975.653437" transform="rotate(-0, 153.163125, 975.653437)">All variables (ROC AUC = 0.91)</text>
    </g>
    <g id="line2d_9">
     <path d="M 52.363125 1014.859687 
L 88.363125 1014.859687 
L 124.363125 1014.859687 
" style="fill: none; stroke: #a5db36; stroke-width: 5; stroke-linecap: round"/>
    </g>
    <g id="text_16">
     <text style="fill: #262626; font: 36px 'sans-serif'; text-anchor: start" x="153.163125" y="1027.459687" transform="rotate(-0, 153.163125, 1027.459687)">NAD(P)H variables + Cell Size (ROC AUC = 0.88)</text>
    </g>
    <g id="line2d_10">
     <path d="M 52.363125 1066.665937 
L 88.363125 1066.665937 
L 124.363125 1066.665937 
" style="fill: none; stroke: #4ac16d; stroke-width: 5; stroke-linecap: round"/>
    </g>
    <g id="text_17">
     <text style="fill: #262626; font: 36px 'sans-serif'; text-anchor: start" x="153.163125" y="1079.265937" transform="rotate(-0, 153.163125, 1079.265937)">Top four variables (ROC AUC) = 0.86)</text>
    </g>
    <g id="line2d_11">
     <path d="M 52.363125 1118.472188 
L 88.363125 1118.472188 
L 124.363125 1118.472188 
" style="fill: none; stroke: #1f988b; stroke-width: 5; stroke-linecap: round"/>
    </g>
    <g id="text_18">
     <text style="fill: #262626; font: 36px 'sans-serif'; text-anchor: start" x="153.163125" y="1131.072187" transform="rotate(-0, 153.163125, 1131.072187)">Top three variables (ROC AUC) = 0.86)</text>
    </g>
    <g id="line2d_12">
     <path d="M 52.363125 1170.278438 
L 88.363125 1170.278438 
L 124.363125 1170.278438 
" style="fill: none; stroke: #2a788e; stroke-width: 5; stroke-linecap: round"/>
    </g>
    <g id="text_19">
     <text style="fill: #262626; font: 36px 'sans-serif'; text-anchor: start" x="153.163125" y="1182.878438" transform="rotate(-0, 153.163125, 1182.878438)">Top two variables (ROC AUC) = 0.82)</text>
    </g>
    <g id="line2d_13">
     <path d="M 52.363125 1222.084687 
L 88.363125 1222.084687 
L 124.363125 1222.084687 
" style="fill: none; stroke: #414487; stroke-width: 5; stroke-linecap: round"/>
    </g>
    <g id="text_20">
     <text style="fill: #262626; font: 36px 'sans-serif'; text-anchor: start" x="153.163125" y="1234.684687" transform="rotate(-0, 153.163125, 1234.684687)">Top variable (ROC AUC) = 0.78)</text>
    </g>
    <g id="line2d_14">
     <path d="M 52.363125 1273.890938 
L 88.363125 1273.890938 
L 124.363125 1273.890938 
" style="fill: none; stroke: #440154; stroke-width: 5; stroke-linecap: round"/>
    </g>
    <g id="text_21">
     <text style="fill: #262626; font: 36px 'sans-serif'; text-anchor: start" x="153.163125" y="1286.490937" transform="rotate(-0, 153.163125, 1286.490937)">Norm. Redox Ratio + Cell Size (ROC AUC) = 0.68)</text>
    </g>
   </g>
  </g>
 </g>
 <defs>
  <clipPath id="p8430634e5c">
   <rect x="103.663125" y="20.084063" width="837" height="815.4"/>
  </clipPath>
 </defs>
</svg>
