<?xml version="1.0" encoding="utf-8" standalone="no"?>
<!DOCTYPE svg PUBLIC "-//W3C//DTD SVG 1.1//EN"
  "http://www.w3.org/Graphics/SVG/1.1/DTD/svg11.dtd">
<svg xmlns:xlink="http://www.w3.org/1999/xlink" width="961.910625pt" height="1322.687812pt" viewBox="0 0 961.910625 1322.687812" xmlns="http://www.w3.org/2000/svg" version="1.1">
 <metadata>
  <rdf:RDF xmlns:dc="http://purl.org/dc/elements/1.1/" xmlns:cc="http://creativecommons.org/ns#" xmlns:rdf="http://www.w3.org/1999/02/22-rdf-syntax-ns#">
   <cc:Work>
    <dc:type rdf:resource="http://purl.org/dc/dcmitype/StillImage"/>
    <dc:date>2022-09-07T15:16:17.574015</dc:date>
    <dc:format>image/svg+xml</dc:format>
    <dc:creator>
     <cc:Agent>
      <dc:title>Matplotlib v3.5.1, https://matplotlib.org/</dc:title>
     </cc:Agent>
    </dc:creator>
   </cc:Work>
  </rdf:RDF>
 </metadata>
 <defs>
  <style type="text/css">*{stroke-linejoin: round; stroke-linecap: butt}</style>
 </defs>
 <g id="figure_1">
  <g id="patch_1">
   <path d="M 0 1322.687812 
L 961.910625 1322.687812 
L 961.910625 0 
L 0 0 
z
" style="fill: #ffffff"/>
  </g>
  <g id="axes_1">
   <g id="patch_2">
    <path d="M 102.163125 851.684062 
L 939.163125 851.684062 
L 939.163125 20.084063 
L 102.163125 20.084063 
z
" style="fill: #ffffff"/>
   </g>
   <g id="matplotlib.axis_1">
    <g id="xtick_1">
     <g id="text_1">
      <text style="font: 36px 'sans-serif'; text-anchor: middle" x="102.163125" y="885.452188" transform="rotate(-0, 102.163125, 885.452188)">0</text>
     </g>
    </g>
    <g id="xtick_2">
     <g id="text_2">
      <text style="font: 36px 'sans-serif'; text-anchor: middle" x="269.563125" y="885.452188" transform="rotate(-0, 269.563125, 885.452188)">0.2</text>
     </g>
    </g>
    <g id="xtick_3">
     <g id="text_3">
      <text style="font: 36px 'sans-serif'; text-anchor: middle" x="436.963125" y="885.452188" transform="rotate(-0, 436.963125, 885.452188)">0.4</text>
     </g>
    </g>
    <g id="xtick_4">
     <g id="text_4">
      <text style="font: 36px 'sans-serif'; text-anchor: middle" x="604.363125" y="885.452188" transform="rotate(-0, 604.363125, 885.452188)">0.6</text>
     </g>
    </g>
    <g id="xtick_5">
     <g id="text_5">
      <text style="font: 36px 'sans-serif'; text-anchor: middle" x="771.763125" y="885.452188" transform="rotate(-0, 771.763125, 885.452188)">0.8</text>
     </g>
    </g>
    <g id="xtick_6">
     <g id="text_6">
      <text style="font: 36px 'sans-serif'; text-anchor: middle" x="939.163125" y="885.452188" transform="rotate(-0, 939.163125, 885.452188)">1</text>
     </g>
    </g>
    <g id="xtick_7"/>
    <g id="xtick_8"/>
    <g id="xtick_9"/>
    <g id="xtick_10"/>
    <g id="xtick_11"/>
    <g id="xtick_12"/>
    <g id="xtick_13"/>
    <g id="xtick_14"/>
    <g id="xtick_15"/>
    <g id="xtick_16"/>
    <g id="xtick_17"/>
    <g id="xtick_18"/>
    <g id="xtick_19"/>
    <g id="xtick_20"/>
    <g id="xtick_21"/>
    <g id="text_7">
     <text style="fill: #262626; font: 36px 'sans-serif'; text-anchor: middle" x="520.663125" y="922.375313" transform="rotate(-0, 520.663125, 922.375313)">False Positive Rate</text>
    </g>
   </g>
   <g id="matplotlib.axis_2">
    <g id="ytick_1">
     <g id="text_8">
      <text style="font: 36px 'sans-serif'; text-anchor: end" x="94.163125" y="864.568125" transform="rotate(-0, 94.163125, 864.568125)">0</text>
     </g>
    </g>
    <g id="ytick_2">
     <g id="text_9">
      <text style="font: 36px 'sans-serif'; text-anchor: end" x="94.163125" y="698.248125" transform="rotate(-0, 94.163125, 698.248125)">0.2</text>
     </g>
    </g>
    <g id="ytick_3">
     <g id="text_10">
      <text style="font: 36px 'sans-serif'; text-anchor: end" x="94.163125" y="531.928125" transform="rotate(-0, 94.163125, 531.928125)">0.4</text>
     </g>
    </g>
    <g id="ytick_4">
     <g id="text_11">
      <text style="font: 36px 'sans-serif'; text-anchor: end" x="94.163125" y="365.608125" transform="rotate(-0, 94.163125, 365.608125)">0.6</text>
     </g>
    </g>
    <g id="ytick_5">
     <g id="text_12">
      <text style="font: 36px 'sans-serif'; text-anchor: end" x="94.163125" y="199.288125" transform="rotate(-0, 94.163125, 199.288125)">0.8</text>
     </g>
    </g>
    <g id="ytick_6">
     <g id="text_13">
      <text style="font: 36px 'sans-serif'; text-anchor: end" x="94.163125" y="32.968125" transform="rotate(-0, 94.163125, 32.968125)">1</text>
     </g>
    </g>
    <g id="ytick_7"/>
    <g id="ytick_8"/>
    <g id="ytick_9"/>
    <g id="ytick_10"/>
    <g id="ytick_11"/>
    <g id="ytick_12"/>
    <g id="ytick_13"/>
    <g id="ytick_14"/>
    <g id="ytick_15"/>
    <g id="ytick_16"/>
    <g id="ytick_17"/>
    <g id="ytick_18"/>
    <g id="ytick_19"/>
    <g id="ytick_20"/>
    <g id="ytick_21"/>
    <g id="text_14">
     <text style="fill: #262626; font: 36px 'sans-serif'; text-anchor: middle" x="32.968125" y="435.884063" transform="rotate(-90, 32.968125, 435.884063)">True Positive Rate</text>
    </g>
   </g>
   <g id="line2d_1">
    <path d="M 102.163125 851.684062 
L 102.163125 788.46301 
L 102.163125 764.14722 
L 102.163125 749.557747 
L 102.163125 691.199852 
L 102.163125 666.884063 
L 102.163125 647.431431 
L 102.163125 637.705115 
L 102.163125 618.252484 
L 102.163125 593.936694 
L 102.163125 574.484063 
L 102.163125 569.620905 
L 104.62489 550.168273 
L 107.086654 540.441957 
L 109.548419 540.441957 
L 109.548419 535.578799 
L 109.548419 516.126168 
L 109.548419 506.399852 
L 114.471949 501.536694 
L 119.395478 491.810378 
L 121.857243 477.220905 
L 124.319007 477.220905 
L 124.319007 462.631431 
L 124.319007 452.905115 
L 126.780772 443.178799 
L 126.780772 438.315641 
L 126.780772 428.589326 
L 126.780772 413.999852 
L 131.704301 394.54722 
L 131.704301 379.957747 
L 134.166066 375.094589 
L 139.089596 350.778799 
L 141.55136 350.778799 
L 146.47489 336.189326 
L 148.936654 331.326168 
L 151.398419 321.599852 
L 151.398419 316.736694 
L 151.398419 307.010378 
L 153.860184 307.010378 
L 156.321949 292.420905 
L 161.245478 292.420905 
L 161.245478 287.557747 
L 166.169007 282.694589 
L 168.630772 277.831431 
L 176.016066 272.968273 
L 180.939596 263.241957 
L 180.939596 248.652484 
L 180.939596 243.789326 
L 183.40136 234.06301 
L 185.863125 234.06301 
L 188.32489 224.336694 
L 193.248419 224.336694 
L 193.248419 214.610378 
L 198.171949 200.020905 
L 203.095478 195.157747 
L 208.019007 195.157747 
L 225.25136 185.431431 
L 227.713125 175.705115 
L 237.560184 175.705115 
L 247.407243 165.978799 
L 257.254301 165.978799 
L 264.639596 165.978799 
L 269.563125 165.978799 
L 272.02489 161.115641 
L 281.871949 161.115641 
L 286.795478 141.66301 
L 291.719007 127.073536 
L 308.95136 122.210378 
L 323.721949 112.484063 
L 336.030772 102.757747 
L 345.877831 97.894589 
L 348.339596 93.031431 
L 368.033713 93.031431 
L 387.727831 73.578799 
L 404.960184 68.715641 
L 424.654301 58.989326 
L 439.42489 58.989326 
L 459.119007 49.26301 
L 473.889596 49.26301 
L 496.045478 49.26301 
L 523.12489 44.399852 
L 555.127831 44.399852 
L 589.592537 39.536694 
L 646.213125 39.536694 
L 705.295478 29.810378 
L 791.457243 29.810378 
L 855.463125 20.084063 
L 939.163125 20.084063 
" clip-path="url(#pc37b529181)" style="fill: none; stroke: #fde725; stroke-width: 5; stroke-linecap: round"/>
   </g>
   <g id="line2d_2">
    <path d="M 102.163125 851.684062 
L 104.62489 817.641957 
L 107.086654 783.599852 
L 107.086654 725.241957 
L 107.086654 715.515641 
L 107.086654 691.199852 
L 109.548419 666.884063 
L 109.548419 662.020905 
L 109.548419 642.568273 
L 112.010184 623.115641 
L 114.471949 608.526168 
L 116.933713 598.799852 
L 116.933713 584.210378 
L 121.857243 584.210378 
L 124.319007 569.620905 
L 126.780772 564.757747 
L 126.780772 550.168273 
L 126.780772 520.989326 
L 129.242537 520.989326 
L 129.242537 511.26301 
L 129.242537 506.399852 
L 129.242537 496.673536 
L 136.627831 477.220905 
L 139.089596 457.768273 
L 139.089596 443.178799 
L 139.089596 433.452484 
L 144.013125 428.589326 
L 148.936654 428.589326 
L 158.783713 409.136694 
L 158.783713 384.820905 
L 161.245478 379.957747 
L 166.169007 375.094589 
L 168.630772 370.231431 
L 173.554301 365.368273 
L 173.554301 345.915641 
L 176.016066 345.915641 
L 176.016066 336.189326 
L 176.016066 331.326168 
L 178.477831 321.599852 
L 183.40136 321.599852 
L 185.863125 316.736694 
L 188.32489 316.736694 
L 200.633713 307.010378 
L 200.633713 297.284063 
L 203.095478 292.420905 
L 205.557243 292.420905 
L 208.019007 272.968273 
L 210.480772 272.968273 
L 217.866066 268.105115 
L 227.713125 258.378799 
L 227.713125 253.515641 
L 230.17489 253.515641 
L 232.636654 243.789326 
L 237.560184 243.789326 
L 240.021949 238.926168 
L 240.021949 224.336694 
L 244.945478 224.336694 
L 244.945478 219.473536 
L 247.407243 219.473536 
L 249.869007 209.74722 
L 257.254301 195.157747 
L 259.716066 195.157747 
L 262.177831 185.431431 
L 267.10136 185.431431 
L 269.563125 180.568273 
L 279.410184 180.568273 
L 294.180772 170.841957 
L 306.489596 161.115641 
L 321.260184 156.252484 
L 326.183713 146.526168 
L 333.569007 131.936694 
L 343.416066 122.210378 
L 355.72489 112.484063 
L 380.342537 102.757747 
L 395.113125 102.757747 
L 407.421949 102.757747 
L 422.192537 97.894589 
L 436.963125 97.894589 
L 478.813125 83.305115 
L 503.430772 68.715641 
L 542.819007 63.852484 
L 574.821949 49.26301 
L 614.210184 39.536694 
L 675.754301 24.94722 
L 737.298419 20.084063 
L 806.227831 20.084063 
L 939.163125 20.084063 
" clip-path="url(#pc37b529181)" style="fill: none; stroke: #a5db36; stroke-width: 5; stroke-linecap: round"/>
   </g>
   <g id="line2d_3">
    <path d="M 102.163125 851.684062 
L 102.163125 764.14722 
L 102.163125 730.105115 
L 104.62489 696.06301 
L 107.086654 666.884063 
L 112.010184 657.157747 
L 112.010184 642.568273 
L 112.010184 632.841957 
L 112.010184 613.389326 
L 112.010184 598.799852 
L 114.471949 584.210378 
L 114.471949 555.031431 
L 116.933713 545.305115 
L 119.395478 530.715641 
L 124.319007 525.852484 
L 126.780772 516.126168 
L 134.166066 516.126168 
L 134.166066 506.399852 
L 134.166066 501.536694 
L 134.166066 491.810378 
L 141.55136 472.357747 
L 144.013125 462.631431 
L 144.013125 457.768273 
L 146.47489 457.768273 
L 148.936654 448.041957 
L 153.860184 443.178799 
L 153.860184 423.726168 
L 153.860184 418.86301 
L 156.321949 413.999852 
L 156.321949 399.410378 
L 156.321949 389.684063 
L 158.783713 379.957747 
L 158.783713 370.231431 
L 158.783713 365.368273 
L 163.707243 360.505115 
L 163.707243 350.778799 
L 166.169007 350.778799 
L 166.169007 331.326168 
L 168.630772 316.736694 
L 168.630772 311.873536 
L 171.092537 307.010378 
L 171.092537 297.284063 
L 173.554301 297.284063 
L 176.016066 292.420905 
L 180.939596 292.420905 
L 183.40136 292.420905 
L 183.40136 287.557747 
L 185.863125 277.831431 
L 190.786654 277.831431 
L 190.786654 263.241957 
L 193.248419 263.241957 
L 195.710184 258.378799 
L 195.710184 253.515641 
L 200.633713 253.515641 
L 200.633713 248.652484 
L 205.557243 243.789326 
L 208.019007 243.789326 
L 212.942537 238.926168 
L 212.942537 234.06301 
L 217.866066 224.336694 
L 220.327831 219.473536 
L 227.713125 214.610378 
L 237.560184 214.610378 
L 244.945478 214.610378 
L 259.716066 209.74722 
L 267.10136 200.020905 
L 272.02489 200.020905 
L 281.871949 180.568273 
L 281.871949 175.705115 
L 291.719007 170.841957 
L 299.104301 170.841957 
L 301.566066 170.841957 
L 308.95136 165.978799 
L 318.798419 165.978799 
L 328.645478 156.252484 
L 358.186654 146.526168 
L 363.110184 136.799852 
L 382.804301 136.799852 
L 402.498419 131.936694 
L 417.269007 127.073536 
L 434.50136 122.210378 
L 459.119007 112.484063 
L 468.966066 102.757747 
L 500.969007 97.894589 
L 535.433713 97.894589 
L 562.513125 83.305115 
L 599.439596 68.715641 
L 646.213125 58.989326 
L 712.680772 44.399852 
L 774.22489 34.673536 
L 939.163125 20.084063 
" clip-path="url(#pc37b529181)" style="fill: none; stroke: #4ac16d; stroke-width: 5; stroke-linecap: round"/>
   </g>
   <g id="line2d_4">
    <path d="M 102.163125 851.684062 
L 104.62489 783.599852 
L 104.62489 730.105115 
L 104.62489 715.515641 
L 107.086654 686.336694 
L 109.548419 662.020905 
L 112.010184 647.431431 
L 112.010184 637.705115 
L 116.933713 618.252484 
L 121.857243 608.526168 
L 121.857243 598.799852 
L 121.857243 584.210378 
L 124.319007 574.484063 
L 124.319007 564.757747 
L 124.319007 555.031431 
L 126.780772 540.441957 
L 129.242537 530.715641 
L 129.242537 516.126168 
L 131.704301 511.26301 
L 131.704301 491.810378 
L 131.704301 482.084063 
L 136.627831 477.220905 
L 136.627831 472.357747 
L 136.627831 448.041957 
L 136.627831 443.178799 
L 139.089596 418.86301 
L 139.089596 399.410378 
L 139.089596 394.54722 
L 141.55136 389.684063 
L 146.47489 379.957747 
L 148.936654 379.957747 
L 153.860184 370.231431 
L 153.860184 360.505115 
L 156.321949 360.505115 
L 158.783713 350.778799 
L 163.707243 345.915641 
L 163.707243 341.052484 
L 166.169007 336.189326 
L 168.630772 326.46301 
L 168.630772 321.599852 
L 168.630772 311.873536 
L 176.016066 311.873536 
L 180.939596 307.010378 
L 183.40136 302.14722 
L 193.248419 302.14722 
L 195.710184 302.14722 
L 195.710184 297.284063 
L 205.557243 297.284063 
L 208.019007 282.694589 
L 215.404301 272.968273 
L 220.327831 263.241957 
L 225.25136 263.241957 
L 232.636654 253.515641 
L 242.483713 243.789326 
L 249.869007 234.06301 
L 252.330772 234.06301 
L 252.330772 229.199852 
L 257.254301 214.610378 
L 264.639596 204.884063 
L 272.02489 204.884063 
L 281.871949 204.884063 
L 284.333713 195.157747 
L 286.795478 195.157747 
L 289.257243 190.294589 
L 306.489596 190.294589 
L 311.413125 190.294589 
L 328.645478 185.431431 
L 328.645478 180.568273 
L 338.492537 180.568273 
L 350.80136 175.705115 
L 365.571949 170.841957 
L 370.495478 165.978799 
L 375.419007 146.526168 
L 392.65136 146.526168 
L 400.036654 141.66301 
L 407.421949 141.66301 
L 414.807243 136.799852 
L 434.50136 127.073536 
L 456.657243 117.34722 
L 476.35136 97.894589 
L 493.583713 97.894589 
L 520.663125 83.305115 
L 562.513125 68.715641 
L 609.286654 58.989326 
L 668.369007 49.26301 
L 715.142537 34.673536 
L 774.22489 34.673536 
L 862.848419 20.084063 
L 939.163125 20.084063 
" clip-path="url(#pc37b529181)" style="fill: none; stroke: #1f988b; stroke-width: 5; stroke-linecap: round"/>
   </g>
   <g id="line2d_5">
    <path d="M 102.163125 851.684062 
L 109.548419 739.831431 
L 109.548419 686.336694 
L 109.548419 676.610378 
L 109.548419 662.020905 
L 109.548419 637.705115 
L 112.010184 627.978799 
L 112.010184 623.115641 
L 114.471949 598.799852 
L 116.933713 598.799852 
L 119.395478 593.936694 
L 119.395478 589.073536 
L 121.857243 579.34722 
L 121.857243 564.757747 
L 121.857243 559.894589 
L 121.857243 540.441957 
L 121.857243 535.578799 
L 124.319007 535.578799 
L 124.319007 525.852484 
L 124.319007 511.26301 
L 126.780772 511.26301 
L 126.780772 501.536694 
L 131.704301 486.94722 
L 131.704301 477.220905 
L 139.089596 467.494589 
L 141.55136 462.631431 
L 144.013125 452.905115 
L 151.398419 448.041957 
L 158.783713 438.315641 
L 158.783713 433.452484 
L 163.707243 428.589326 
L 166.169007 418.86301 
L 166.169007 404.273536 
L 168.630772 399.410378 
L 168.630772 384.820905 
L 176.016066 379.957747 
L 178.477831 375.094589 
L 183.40136 360.505115 
L 188.32489 360.505115 
L 193.248419 345.915641 
L 195.710184 345.915641 
L 198.171949 341.052484 
L 203.095478 341.052484 
L 208.019007 336.189326 
L 210.480772 326.46301 
L 227.713125 321.599852 
L 232.636654 321.599852 
L 240.021949 316.736694 
L 244.945478 311.873536 
L 244.945478 297.284063 
L 249.869007 297.284063 
L 252.330772 297.284063 
L 257.254301 297.284063 
L 262.177831 292.420905 
L 264.639596 277.831431 
L 272.02489 268.105115 
L 279.410184 263.241957 
L 286.795478 263.241957 
L 291.719007 258.378799 
L 294.180772 253.515641 
L 299.104301 248.652484 
L 304.027831 248.652484 
L 306.489596 243.789326 
L 313.87489 238.926168 
L 318.798419 238.926168 
L 321.260184 234.06301 
L 323.721949 234.06301 
L 331.107243 234.06301 
L 333.569007 229.199852 
L 336.030772 229.199852 
L 340.954301 209.74722 
L 348.339596 204.884063 
L 348.339596 195.157747 
L 358.186654 190.294589 
L 365.571949 180.568273 
L 382.804301 180.568273 
L 387.727831 180.568273 
L 395.113125 175.705115 
L 409.883713 175.705115 
L 419.730772 175.705115 
L 434.50136 156.252484 
L 449.271949 151.389326 
L 466.504301 151.389326 
L 476.35136 151.389326 
L 491.121949 141.66301 
L 505.892537 141.66301 
L 510.816066 141.66301 
L 515.739596 131.936694 
L 540.357243 127.073536 
L 555.127831 112.484063 
L 609.286654 83.305115 
L 643.75136 68.715641 
L 756.992537 49.26301 
L 939.163125 20.084063 
" clip-path="url(#pc37b529181)" style="fill: none; stroke: #2a788e; stroke-width: 5; stroke-linecap: round"/>
   </g>
   <g id="line2d_6">
    <path d="M 102.163125 851.684062 
L 131.704301 676.610378 
L 131.704301 652.294589 
L 131.704301 637.705115 
L 136.627831 627.978799 
L 139.089596 598.799852 
L 146.47489 589.073536 
L 151.398419 579.34722 
L 156.321949 559.894589 
L 161.245478 545.305115 
L 161.245478 535.578799 
L 163.707243 535.578799 
L 171.092537 525.852484 
L 171.092537 511.26301 
L 173.554301 501.536694 
L 176.016066 501.536694 
L 176.016066 482.084063 
L 176.016066 472.357747 
L 178.477831 472.357747 
L 178.477831 462.631431 
L 180.939596 438.315641 
L 180.939596 433.452484 
L 188.32489 418.86301 
L 188.32489 413.999852 
L 188.32489 404.273536 
L 190.786654 399.410378 
L 208.019007 384.820905 
L 210.480772 384.820905 
L 220.327831 379.957747 
L 222.789596 379.957747 
L 235.098419 379.957747 
L 249.869007 370.231431 
L 252.330772 370.231431 
L 259.716066 365.368273 
L 264.639596 365.368273 
L 272.02489 365.368273 
L 274.486654 365.368273 
L 274.486654 355.641957 
L 276.948419 355.641957 
L 276.948419 345.915641 
L 279.410184 336.189326 
L 279.410184 311.873536 
L 279.410184 302.14722 
L 281.871949 302.14722 
L 284.333713 297.284063 
L 286.795478 287.557747 
L 289.257243 287.557747 
L 289.257243 272.968273 
L 301.566066 263.241957 
L 301.566066 253.515641 
L 304.027831 253.515641 
L 308.95136 248.652484 
L 321.260184 229.199852 
L 336.030772 219.473536 
L 340.954301 219.473536 
L 345.877831 219.473536 
L 350.80136 204.884063 
L 355.72489 204.884063 
L 358.186654 200.020905 
L 358.186654 195.157747 
L 360.648419 195.157747 
L 365.571949 195.157747 
L 395.113125 195.157747 
L 402.498419 190.294589 
L 409.883713 190.294589 
L 417.269007 185.431431 
L 432.039596 185.431431 
L 439.42489 180.568273 
L 459.119007 175.705115 
L 486.198419 165.978799 
L 535.433713 151.389326 
L 939.163125 20.084063 
" clip-path="url(#pc37b529181)" style="fill: none; stroke: #414487; stroke-width: 5; stroke-linecap: round"/>
   </g>
   <g id="line2d_7">
    <path d="M 102.163125 851.684062 
L 104.62489 803.052484 
L 109.548419 759.284063 
L 114.471949 744.694589 
L 121.857243 715.515641 
L 121.857243 705.789326 
L 124.319007 700.926168 
L 124.319007 691.199852 
L 126.780772 686.336694 
L 126.780772 671.74722 
L 129.242537 666.884063 
L 129.242537 657.157747 
L 131.704301 652.294589 
L 134.166066 642.568273 
L 134.166066 632.841957 
L 136.627831 632.841957 
L 139.089596 618.252484 
L 144.013125 618.252484 
L 146.47489 608.526168 
L 146.47489 598.799852 
L 148.936654 593.936694 
L 148.936654 589.073536 
L 151.398419 589.073536 
L 158.783713 584.210378 
L 161.245478 579.34722 
L 166.169007 579.34722 
L 176.016066 559.894589 
L 178.477831 555.031431 
L 185.863125 540.441957 
L 190.786654 530.715641 
L 200.633713 530.715641 
L 212.942537 520.989326 
L 217.866066 520.989326 
L 237.560184 520.989326 
L 237.560184 516.126168 
L 242.483713 506.399852 
L 242.483713 501.536694 
L 252.330772 491.810378 
L 257.254301 486.94722 
L 262.177831 486.94722 
L 269.563125 477.220905 
L 291.719007 462.631431 
L 294.180772 457.768273 
L 296.642537 448.041957 
L 301.566066 438.315641 
L 316.336654 428.589326 
L 318.798419 418.86301 
L 323.721949 404.273536 
L 333.569007 394.54722 
L 336.030772 384.820905 
L 340.954301 384.820905 
L 355.72489 375.094589 
L 368.033713 365.368273 
L 372.957243 360.505115 
L 382.804301 350.778799 
L 390.189596 350.778799 
L 397.57489 345.915641 
L 409.883713 336.189326 
L 414.807243 336.189326 
L 432.039596 336.189326 
L 449.271949 326.46301 
L 464.042537 316.736694 
L 471.427831 307.010378 
L 481.27489 287.557747 
L 488.660184 272.968273 
L 500.969007 253.515641 
L 513.277831 253.515641 
L 562.513125 234.06301 
L 582.207243 234.06301 
L 601.90136 219.473536 
L 611.748419 214.610378 
L 633.904301 190.294589 
L 653.598419 175.705115 
L 668.369007 170.841957 
L 692.986654 161.115641 
L 722.527831 136.799852 
L 734.836654 127.073536 
L 779.148419 112.484063 
L 818.536654 78.441957 
L 848.077831 54.126168 
L 909.621949 44.399852 
L 939.163125 20.084063 
" clip-path="url(#pc37b529181)" style="fill: none; stroke: #440154; stroke-width: 5; stroke-linecap: round"/>
   </g>
   <g id="patch_3">
    <path d="M 102.163125 851.684062 
L 102.163125 20.084063 
" style="fill: none; stroke: #262626; stroke-width: 1.25; stroke-linejoin: miter; stroke-linecap: square"/>
   </g>
   <g id="patch_4">
    <path d="M 939.163125 851.684062 
L 939.163125 20.084063 
" style="fill: none; stroke: #262626; stroke-width: 1.25; stroke-linejoin: miter; stroke-linecap: square"/>
   </g>
   <g id="patch_5">
    <path d="M 102.163125 851.684062 
L 939.163125 851.684062 
" style="fill: none; stroke: #262626; stroke-width: 1.25; stroke-linejoin: miter; stroke-linecap: square"/>
   </g>
   <g id="patch_6">
    <path d="M 102.163125 20.084063 
L 939.163125 20.084063 
" style="fill: none; stroke: #262626; stroke-width: 1.25; stroke-linejoin: miter; stroke-linecap: square"/>
   </g>
   <g id="legend_1">
    <g id="patch_7">
     <path d="M 18.463125 1315.487813 
L 954.710625 1315.487813 
L 954.710625 934.844062 
L 18.463125 934.844062 
z
" style="fill: #ffffff; opacity: 0.8; stroke: #000000; stroke-linejoin: miter"/>
    </g>
    <g id="line2d_8">
     <path d="M 36.463125 966.473437 
L 72.463125 966.473437 
L 108.463125 966.473437 
" style="fill: none; stroke: #fde725; stroke-width: 5; stroke-linecap: round"/>
    </g>
    <g id="text_15">
     <text style="fill: #262626; font: 36px 'sans-serif'; text-anchor: start" x="126.463125" y="979.073437" transform="rotate(-0, 126.463125, 979.073437)">All variables (ROC AUC = 0.91)</text>
    </g>
    <g id="line2d_9">
     <path d="M 36.463125 1018.279687 
L 72.463125 1018.279687 
L 108.463125 1018.279687 
" style="fill: none; stroke: #a5db36; stroke-width: 5; stroke-linecap: round"/>
    </g>
    <g id="text_16">
     <text style="fill: #262626; font: 36px 'sans-serif'; text-anchor: start" x="126.463125" y="1030.879687" transform="rotate(-0, 126.463125, 1030.879687)">NAD(P)H variables + Cell Size (ROC AUC = 0.88)</text>
    </g>
    <g id="line2d_10">
     <path d="M 36.463125 1070.085938 
L 72.463125 1070.085938 
L 108.463125 1070.085938 
" style="fill: none; stroke: #4ac16d; stroke-width: 5; stroke-linecap: round"/>
    </g>
    <g id="text_17">
     <text style="fill: #262626; font: 36px 'sans-serif'; text-anchor: start" x="126.463125" y="1082.685937" transform="rotate(-0, 126.463125, 1082.685937)">Top four variables (ROC AUC) = 0.86)</text>
    </g>
    <g id="line2d_11">
     <path d="M 36.463125 1121.892188 
L 72.463125 1121.892188 
L 108.463125 1121.892188 
" style="fill: none; stroke: #1f988b; stroke-width: 5; stroke-linecap: round"/>
    </g>
    <g id="text_18">
     <text style="fill: #262626; font: 36px 'sans-serif'; text-anchor: start" x="126.463125" y="1134.492188" transform="rotate(-0, 126.463125, 1134.492188)">Top three variables (ROC AUC) = 0.86)</text>
    </g>
    <g id="line2d_12">
     <path d="M 36.463125 1173.698437 
L 72.463125 1173.698437 
L 108.463125 1173.698437 
" style="fill: none; stroke: #2a788e; stroke-width: 5; stroke-linecap: round"/>
    </g>
    <g id="text_19">
     <text style="fill: #262626; font: 36px 'sans-serif'; text-anchor: start" x="126.463125" y="1186.298437" transform="rotate(-0, 126.463125, 1186.298437)">Top two variables (ROC AUC) = 0.82)</text>
    </g>
    <g id="line2d_13">
     <path d="M 36.463125 1225.504688 
L 72.463125 1225.504688 
L 108.463125 1225.504688 
" style="fill: none; stroke: #414487; stroke-width: 5; stroke-linecap: round"/>
    </g>
    <g id="text_20">
     <text style="fill: #262626; font: 36px 'sans-serif'; text-anchor: start" x="126.463125" y="1238.104687" transform="rotate(-0, 126.463125, 1238.104687)">Top variable (ROC AUC) = 0.78)</text>
    </g>
    <g id="line2d_14">
     <path d="M 36.463125 1277.310937 
L 72.463125 1277.310937 
L 108.463125 1277.310937 
" style="fill: none; stroke: #440154; stroke-width: 5; stroke-linecap: round"/>
    </g>
    <g id="text_21">
     <text style="fill: #262626; font: 36px 'sans-serif'; text-anchor: start" x="126.463125" y="1289.910937" transform="rotate(-0, 126.463125, 1289.910937)">Norm. Redox Ratio + Cell Size (ROC AUC) = 0.68)</text>
    </g>
   </g>
  </g>
 </g>
 <defs>
  <clipPath id="pc37b529181">
   <rect x="102.163125" y="20.084063" width="837" height="831.6"/>
  </clipPath>
 </defs>
</svg>
