<?xml version="1.0" encoding="utf-8" standalone="no"?>
<!DOCTYPE svg PUBLIC "-//W3C//DTD SVG 1.1//EN"
  "http://www.w3.org/Graphics/SVG/1.1/DTD/svg11.dtd">
<svg xmlns:xlink="http://www.w3.org/1999/xlink" width="956.372813pt" height="1115.462812pt" viewBox="0 0 956.372813 1115.462812" xmlns="http://www.w3.org/2000/svg" version="1.1">
 <metadata>
  <rdf:RDF xmlns:dc="http://purl.org/dc/elements/1.1/" xmlns:cc="http://creativecommons.org/ns#" xmlns:rdf="http://www.w3.org/1999/02/22-rdf-syntax-ns#">
   <cc:Work>
    <dc:type rdf:resource="http://purl.org/dc/dcmitype/StillImage"/>
    <dc:date>2022-09-07T15:16:25.215487</dc:date>
    <dc:format>image/svg+xml</dc:format>
    <dc:creator>
     <cc:Agent>
      <dc:title>Matplotlib v3.5.1, https://matplotlib.org/</dc:title>
     </cc:Agent>
    </dc:creator>
   </cc:Work>
  </rdf:RDF>
 </metadata>
 <defs>
  <style type="text/css">*{stroke-linejoin: round; stroke-linecap: butt}</style>
 </defs>
 <g id="figure_1">
  <g id="patch_1">
   <path d="M 0 1115.462812 
L 956.372813 1115.462812 
L 956.372813 0 
L 0 0 
z
" style="fill: #ffffff"/>
  </g>
  <g id="axes_1">
   <g id="patch_2">
    <path d="M 102.163125 851.684062 
L 939.163125 851.684062 
L 939.163125 20.084063 
L 102.163125 20.084063 
z
" style="fill: #ffffff"/>
   </g>
   <g id="matplotlib.axis_1">
    <g id="xtick_1">
     <g id="text_1">
      <text style="font: 36px 'sans-serif'; text-anchor: middle" x="102.163125" y="885.452188" transform="rotate(-0, 102.163125, 885.452188)">0</text>
     </g>
    </g>
    <g id="xtick_2">
     <g id="text_2">
      <text style="font: 36px 'sans-serif'; text-anchor: middle" x="269.563125" y="885.452188" transform="rotate(-0, 269.563125, 885.452188)">0.2</text>
     </g>
    </g>
    <g id="xtick_3">
     <g id="text_3">
      <text style="font: 36px 'sans-serif'; text-anchor: middle" x="436.963125" y="885.452188" transform="rotate(-0, 436.963125, 885.452188)">0.4</text>
     </g>
    </g>
    <g id="xtick_4">
     <g id="text_4">
      <text style="font: 36px 'sans-serif'; text-anchor: middle" x="604.363125" y="885.452188" transform="rotate(-0, 604.363125, 885.452188)">0.6</text>
     </g>
    </g>
    <g id="xtick_5">
     <g id="text_5">
      <text style="font: 36px 'sans-serif'; text-anchor: middle" x="771.763125" y="885.452188" transform="rotate(-0, 771.763125, 885.452188)">0.8</text>
     </g>
    </g>
    <g id="xtick_6">
     <g id="text_6">
      <text style="font: 36px 'sans-serif'; text-anchor: middle" x="939.163125" y="885.452188" transform="rotate(-0, 939.163125, 885.452188)">1</text>
     </g>
    </g>
    <g id="xtick_7"/>
    <g id="xtick_8"/>
    <g id="xtick_9"/>
    <g id="xtick_10"/>
    <g id="xtick_11"/>
    <g id="xtick_12"/>
    <g id="xtick_13"/>
    <g id="xtick_14"/>
    <g id="xtick_15"/>
    <g id="xtick_16"/>
    <g id="xtick_17"/>
    <g id="xtick_18"/>
    <g id="xtick_19"/>
    <g id="xtick_20"/>
    <g id="xtick_21"/>
    <g id="text_7">
     <text style="fill: #262626; font: 36px 'sans-serif'; text-anchor: middle" x="520.663125" y="922.375312" transform="rotate(-0, 520.663125, 922.375312)">False Positive Rate</text>
    </g>
   </g>
   <g id="matplotlib.axis_2">
    <g id="ytick_1">
     <g id="text_8">
      <text style="font: 36px 'sans-serif'; text-anchor: end" x="94.163125" y="864.568125" transform="rotate(-0, 94.163125, 864.568125)">0</text>
     </g>
    </g>
    <g id="ytick_2">
     <g id="text_9">
      <text style="font: 36px 'sans-serif'; text-anchor: end" x="94.163125" y="698.248125" transform="rotate(-0, 94.163125, 698.248125)">0.2</text>
     </g>
    </g>
    <g id="ytick_3">
     <g id="text_10">
      <text style="font: 36px 'sans-serif'; text-anchor: end" x="94.163125" y="531.928125" transform="rotate(-0, 94.163125, 531.928125)">0.4</text>
     </g>
    </g>
    <g id="ytick_4">
     <g id="text_11">
      <text style="font: 36px 'sans-serif'; text-anchor: end" x="94.163125" y="365.608125" transform="rotate(-0, 94.163125, 365.608125)">0.6</text>
     </g>
    </g>
    <g id="ytick_5">
     <g id="text_12">
      <text style="font: 36px 'sans-serif'; text-anchor: end" x="94.163125" y="199.288125" transform="rotate(-0, 94.163125, 199.288125)">0.8</text>
     </g>
    </g>
    <g id="ytick_6">
     <g id="text_13">
      <text style="font: 36px 'sans-serif'; text-anchor: end" x="94.163125" y="32.968125" transform="rotate(-0, 94.163125, 32.968125)">1</text>
     </g>
    </g>
    <g id="ytick_7"/>
    <g id="ytick_8"/>
    <g id="ytick_9"/>
    <g id="ytick_10"/>
    <g id="ytick_11"/>
    <g id="ytick_12"/>
    <g id="ytick_13"/>
    <g id="ytick_14"/>
    <g id="ytick_15"/>
    <g id="ytick_16"/>
    <g id="ytick_17"/>
    <g id="ytick_18"/>
    <g id="ytick_19"/>
    <g id="ytick_20"/>
    <g id="ytick_21"/>
    <g id="text_14">
     <text style="fill: #262626; font: 36px 'sans-serif'; text-anchor: middle" x="32.968125" y="435.884063" transform="rotate(-90, 32.968125, 435.884063)">True Positive Rate</text>
    </g>
   </g>
   <g id="line2d_1">
    <path d="M 102.163125 851.684062 
L 102.163125 788.46301 
L 102.163125 764.14722 
L 102.163125 749.557747 
L 102.163125 691.199852 
L 102.163125 666.884063 
L 102.163125 647.431431 
L 102.163125 637.705115 
L 102.163125 618.252484 
L 102.163125 593.936694 
L 102.163125 574.484063 
L 102.163125 569.620905 
L 104.62489 550.168273 
L 107.086654 540.441957 
L 109.548419 540.441957 
L 109.548419 535.578799 
L 109.548419 516.126168 
L 109.548419 506.399852 
L 114.471949 501.536694 
L 119.395478 491.810378 
L 121.857243 477.220905 
L 124.319007 477.220905 
L 124.319007 462.631431 
L 124.319007 452.905115 
L 126.780772 443.178799 
L 126.780772 438.315641 
L 126.780772 428.589326 
L 126.780772 413.999852 
L 131.704301 394.54722 
L 131.704301 379.957747 
L 134.166066 375.094589 
L 139.089596 350.778799 
L 141.55136 350.778799 
L 146.47489 336.189326 
L 148.936654 331.326168 
L 151.398419 321.599852 
L 151.398419 316.736694 
L 151.398419 307.010378 
L 153.860184 307.010378 
L 156.321949 292.420905 
L 161.245478 292.420905 
L 161.245478 287.557747 
L 166.169007 282.694589 
L 168.630772 277.831431 
L 176.016066 272.968273 
L 180.939596 263.241957 
L 180.939596 248.652484 
L 180.939596 243.789326 
L 183.40136 234.06301 
L 185.863125 234.06301 
L 188.32489 224.336694 
L 193.248419 224.336694 
L 193.248419 214.610378 
L 198.171949 200.020905 
L 203.095478 195.157747 
L 208.019007 195.157747 
L 225.25136 185.431431 
L 227.713125 175.705115 
L 237.560184 175.705115 
L 247.407243 165.978799 
L 257.254301 165.978799 
L 264.639596 165.978799 
L 269.563125 165.978799 
L 272.02489 161.115641 
L 281.871949 161.115641 
L 286.795478 141.66301 
L 291.719007 127.073536 
L 308.95136 122.210378 
L 323.721949 112.484063 
L 336.030772 102.757747 
L 345.877831 97.894589 
L 348.339596 93.031431 
L 368.033713 93.031431 
L 387.727831 73.578799 
L 404.960184 68.715641 
L 424.654301 58.989326 
L 439.42489 58.989326 
L 459.119007 49.26301 
L 473.889596 49.26301 
L 496.045478 49.26301 
L 523.12489 44.399852 
L 555.127831 44.399852 
L 589.592537 39.536694 
L 646.213125 39.536694 
L 705.295478 29.810378 
L 791.457243 29.810378 
L 855.463125 20.084063 
L 939.163125 20.084063 
" clip-path="url(#p124fa2633b)" style="fill: none; stroke: #fde725; stroke-width: 7; stroke-linecap: round"/>
   </g>
   <g id="line2d_2">
    <path d="M 102.163125 851.684062 
L 102.163125 788.46301 
L 104.62489 788.46301 
L 104.62489 764.14722 
L 107.086654 764.14722 
L 107.086654 754.420905 
L 109.548419 754.420905 
L 109.548419 734.968273 
L 112.010184 734.968273 
L 112.010184 705.789326 
L 114.471949 705.789326 
L 114.471949 662.020905 
L 116.933713 662.020905 
L 116.933713 632.841957 
L 121.857243 632.841957 
L 121.857243 618.252484 
L 124.319007 618.252484 
L 124.319007 593.936694 
L 126.780772 593.936694 
L 126.780772 579.34722 
L 129.242537 579.34722 
L 129.242537 569.620905 
L 131.704301 569.620905 
L 131.704301 564.757747 
L 134.166066 564.757747 
L 134.166066 550.168273 
L 136.627831 550.168273 
L 136.627831 545.305115 
L 139.089596 545.305115 
L 139.089596 530.715641 
L 141.55136 530.715641 
L 141.55136 516.126168 
L 144.013125 516.126168 
L 144.013125 506.399852 
L 146.47489 506.399852 
L 146.47489 482.084063 
L 148.936654 482.084063 
L 148.936654 477.220905 
L 151.398419 477.220905 
L 151.398419 457.768273 
L 153.860184 457.768273 
L 153.860184 443.178799 
L 171.092537 443.178799 
L 171.092537 423.726168 
L 178.477831 423.726168 
L 178.477831 409.136694 
L 183.40136 409.136694 
L 183.40136 394.54722 
L 188.32489 394.54722 
L 188.32489 360.505115 
L 198.171949 360.505115 
L 198.171949 355.641957 
L 200.633713 355.641957 
L 200.633713 345.915641 
L 208.019007 345.915641 
L 208.019007 336.189326 
L 212.942537 336.189326 
L 212.942537 331.326168 
L 220.327831 331.326168 
L 220.327831 297.284063 
L 222.789596 297.284063 
L 222.789596 292.420905 
L 235.098419 292.420905 
L 235.098419 282.694589 
L 242.483713 282.694589 
L 242.483713 272.968273 
L 244.945478 272.968273 
L 244.945478 253.515641 
L 254.792537 253.515641 
L 254.792537 248.652484 
L 262.177831 248.652484 
L 262.177831 243.789326 
L 269.563125 243.789326 
L 269.563125 224.336694 
L 274.486654 224.336694 
L 274.486654 219.473536 
L 276.948419 219.473536 
L 276.948419 214.610378 
L 279.410184 214.610378 
L 279.410184 200.020905 
L 286.795478 200.020905 
L 286.795478 190.294589 
L 308.95136 190.294589 
L 308.95136 185.431431 
L 313.87489 185.431431 
L 313.87489 180.568273 
L 321.260184 180.568273 
L 321.260184 165.978799 
L 331.107243 165.978799 
L 331.107243 156.252484 
L 345.877831 156.252484 
L 345.877831 151.389326 
L 353.263125 151.389326 
L 353.263125 146.526168 
L 365.571949 146.526168 
L 365.571949 141.66301 
L 368.033713 141.66301 
L 368.033713 131.936694 
L 380.342537 131.936694 
L 380.342537 127.073536 
L 390.189596 127.073536 
L 390.189596 122.210378 
L 392.65136 122.210378 
L 392.65136 117.34722 
L 417.269007 117.34722 
L 417.269007 112.484063 
L 419.730772 112.484063 
L 419.730772 107.620905 
L 454.195478 107.620905 
L 454.195478 102.757747 
L 493.583713 102.757747 
L 493.583713 97.894589 
L 498.507243 97.894589 
L 498.507243 93.031431 
L 525.586654 93.031431 
L 525.586654 88.168273 
L 540.357243 88.168273 
L 540.357243 83.305115 
L 557.589596 83.305115 
L 557.589596 78.441957 
L 567.436654 78.441957 
L 567.436654 73.578799 
L 599.439596 73.578799 
L 599.439596 68.715641 
L 651.136654 68.715641 
L 651.136654 63.852484 
L 688.063125 63.852484 
L 688.063125 58.989326 
L 690.52489 58.989326 
L 690.52489 54.126168 
L 776.686654 54.126168 
L 776.686654 49.26301 
L 811.15136 49.26301 
L 811.15136 44.399852 
L 833.307243 44.399852 
L 833.307243 39.536694 
L 843.154301 39.536694 
L 843.154301 34.673536 
L 845.616066 34.673536 
L 845.616066 29.810378 
L 855.463125 29.810378 
L 855.463125 24.94722 
L 936.70136 24.94722 
L 936.70136 20.084063 
L 939.163125 20.084063 
L 939.163125 20.084063 
" clip-path="url(#p124fa2633b)" style="fill: none; stroke: #1f988b; stroke-width: 7; stroke-linecap: round"/>
   </g>
   <g id="line2d_3">
    <path d="M 102.163125 851.684062 
L 102.163125 803.052484 
L 104.62489 803.052484 
L 104.62489 773.873536 
L 109.548419 773.873536 
L 109.548419 725.241957 
L 112.010184 725.241957 
L 112.010184 715.515641 
L 114.471949 715.515641 
L 114.471949 691.199852 
L 116.933713 691.199852 
L 116.933713 627.978799 
L 119.395478 627.978799 
L 119.395478 618.252484 
L 126.780772 618.252484 
L 126.780772 613.389326 
L 129.242537 613.389326 
L 129.242537 603.66301 
L 131.704301 603.66301 
L 131.704301 545.305115 
L 136.627831 545.305115 
L 136.627831 511.26301 
L 141.55136 511.26301 
L 141.55136 496.673536 
L 144.013125 496.673536 
L 144.013125 491.810378 
L 146.47489 491.810378 
L 146.47489 472.357747 
L 153.860184 472.357747 
L 153.860184 448.041957 
L 156.321949 448.041957 
L 156.321949 433.452484 
L 158.783713 433.452484 
L 158.783713 413.999852 
L 161.245478 413.999852 
L 161.245478 394.54722 
L 168.630772 394.54722 
L 168.630772 389.684063 
L 171.092537 389.684063 
L 171.092537 384.820905 
L 178.477831 384.820905 
L 178.477831 379.957747 
L 180.939596 379.957747 
L 180.939596 375.094589 
L 185.863125 375.094589 
L 185.863125 370.231431 
L 190.786654 370.231431 
L 190.786654 360.505115 
L 193.248419 360.505115 
L 193.248419 341.052484 
L 195.710184 341.052484 
L 195.710184 331.326168 
L 198.171949 331.326168 
L 198.171949 316.736694 
L 200.633713 316.736694 
L 205.557243 311.873536 
L 210.480772 311.873536 
L 210.480772 307.010378 
L 212.942537 307.010378 
L 212.942537 297.284063 
L 222.789596 297.284063 
L 222.789596 272.968273 
L 227.713125 272.968273 
L 227.713125 268.105115 
L 232.636654 268.105115 
L 232.636654 263.241957 
L 235.098419 263.241957 
L 235.098419 248.652484 
L 237.560184 248.652484 
L 237.560184 243.789326 
L 242.483713 243.789326 
L 242.483713 238.926168 
L 244.945478 238.926168 
L 244.945478 234.06301 
L 247.407243 234.06301 
L 247.407243 229.199852 
L 249.869007 229.199852 
L 249.869007 224.336694 
L 257.254301 224.336694 
L 257.254301 219.473536 
L 267.10136 219.473536 
L 267.10136 214.610378 
L 272.02489 214.610378 
L 272.02489 195.157747 
L 279.410184 195.157747 
L 279.410184 190.294589 
L 281.871949 190.294589 
L 281.871949 180.568273 
L 291.719007 180.568273 
L 291.719007 175.705115 
L 296.642537 175.705115 
L 296.642537 170.841957 
L 304.027831 170.841957 
L 304.027831 161.115641 
L 318.798419 161.115641 
L 318.798419 156.252484 
L 323.721949 156.252484 
L 323.721949 151.389326 
L 326.183713 151.389326 
L 326.183713 146.526168 
L 358.186654 146.526168 
L 358.186654 141.66301 
L 372.957243 141.66301 
L 372.957243 136.799852 
L 375.419007 136.799852 
L 375.419007 131.936694 
L 400.036654 131.936694 
L 400.036654 127.073536 
L 419.730772 127.073536 
L 419.730772 122.210378 
L 434.50136 122.210378 
L 434.50136 117.34722 
L 481.27489 117.34722 
L 481.27489 112.484063 
L 483.736654 112.484063 
L 483.736654 107.620905 
L 498.507243 107.620905 
L 498.507243 102.757747 
L 503.430772 102.757747 
L 503.430772 97.894589 
L 508.354301 97.894589 
L 508.354301 93.031431 
L 510.816066 93.031431 
L 510.816066 83.305115 
L 532.971949 83.305115 
L 532.971949 78.441957 
L 537.895478 78.441957 
L 537.895478 73.578799 
L 550.204301 73.578799 
L 550.204301 68.715641 
L 552.666066 68.715641 
L 552.666066 63.852484 
L 562.513125 63.852484 
L 562.513125 58.989326 
L 564.97489 58.989326 
L 564.97489 49.26301 
L 628.980772 49.26301 
L 628.980772 44.399852 
L 648.67489 44.399852 
L 648.67489 39.536694 
L 670.830772 39.536694 
L 670.830772 34.673536 
L 761.916066 34.673536 
L 761.916066 29.810378 
L 931.777831 29.810378 
L 931.777831 24.94722 
L 936.70136 24.94722 
L 936.70136 20.084063 
L 939.163125 20.084063 
L 939.163125 20.084063 
" clip-path="url(#p124fa2633b)" style="fill: none; stroke: #440154; stroke-width: 7; stroke-linecap: round"/>
   </g>
   <g id="patch_3">
    <path d="M 102.163125 851.684062 
L 102.163125 20.084063 
" style="fill: none; stroke: #262626; stroke-width: 1.25; stroke-linejoin: miter; stroke-linecap: square"/>
   </g>
   <g id="patch_4">
    <path d="M 939.163125 851.684062 
L 939.163125 20.084063 
" style="fill: none; stroke: #262626; stroke-width: 1.25; stroke-linejoin: miter; stroke-linecap: square"/>
   </g>
   <g id="patch_5">
    <path d="M 102.163125 851.684062 
L 939.163125 851.684062 
" style="fill: none; stroke: #262626; stroke-width: 1.25; stroke-linejoin: miter; stroke-linecap: square"/>
   </g>
   <g id="patch_6">
    <path d="M 102.163125 20.084063 
L 939.163125 20.084063 
" style="fill: none; stroke: #262626; stroke-width: 1.25; stroke-linejoin: miter; stroke-linecap: square"/>
   </g>
   <g id="legend_1">
    <g id="patch_7">
     <path d="M 18.463125 1108.262812 
L 837.76125 1108.262812 
L 837.76125 934.844062 
L 18.463125 934.844062 
z
" style="fill: #ffffff; opacity: 0.8; stroke: #000000; stroke-linejoin: miter"/>
    </g>
    <g id="line2d_4">
     <path d="M 36.463125 966.473437 
L 72.463125 966.473437 
L 108.463125 966.473437 
" style="fill: none; stroke: #fde725; stroke-width: 7; stroke-linecap: round"/>
    </g>
    <g id="text_15">
     <text style="fill: #262626; font: 36px 'sans-serif'; text-anchor: start" x="126.463125" y="979.073437" transform="rotate(-0, 126.463125, 979.073437)">Random Forest (ROC AUC = 0.91)</text>
    </g>
    <g id="line2d_5">
     <path d="M 36.463125 1018.279688 
L 72.463125 1018.279688 
L 108.463125 1018.279688 
" style="fill: none; stroke: #1f988b; stroke-width: 7; stroke-linecap: round"/>
    </g>
    <g id="text_16">
     <text style="fill: #262626; font: 36px 'sans-serif'; text-anchor: start" x="126.463125" y="1030.879688" transform="rotate(-0, 126.463125, 1030.879688)">Logistic Regression (ROC AUC = 0.84)</text>
    </g>
    <g id="line2d_6">
     <path d="M 36.463125 1070.085938 
L 72.463125 1070.085938 
L 108.463125 1070.085938 
" style="fill: none; stroke: #440154; stroke-width: 7; stroke-linecap: round"/>
    </g>
    <g id="text_17">
     <text style="fill: #262626; font: 36px 'sans-serif'; text-anchor: start" x="126.463125" y="1082.685937" transform="rotate(-0, 126.463125, 1082.685937)">Support Vector Machine (ROC AUC = 0.86)</text>
    </g>
   </g>
  </g>
 </g>
 <defs>
  <clipPath id="p124fa2633b">
   <rect x="102.163125" y="20.084063" width="837" height="831.6"/>
  </clipPath>
 </defs>
</svg>
