<?xml version="1.0" encoding="utf-8" standalone="no"?>
<!DOCTYPE svg PUBLIC "-//W3C//DTD SVG 1.1//EN"
  "http://www.w3.org/Graphics/SVG/1.1/DTD/svg11.dtd">
<svg xmlns:xlink="http://www.w3.org/1999/xlink" width="972.883125pt" height="1108.442812pt" viewBox="0 0 972.883125 1108.442812" xmlns="http://www.w3.org/2000/svg" version="1.1">
 <metadata>
  <rdf:RDF xmlns:dc="http://purl.org/dc/elements/1.1/" xmlns:cc="http://creativecommons.org/ns#" xmlns:rdf="http://www.w3.org/1999/02/22-rdf-syntax-ns#">
   <cc:Work>
    <dc:type rdf:resource="http://purl.org/dc/dcmitype/StillImage"/>
    <dc:date>2022-09-21T14:03:07.286994</dc:date>
    <dc:format>image/svg+xml</dc:format>
    <dc:creator>
     <cc:Agent>
      <dc:title>Matplotlib v3.5.1, https://matplotlib.org/</dc:title>
     </cc:Agent>
    </dc:creator>
   </cc:Work>
  </rdf:RDF>
 </metadata>
 <defs>
  <style type="text/css">*{stroke-linejoin: round; stroke-linecap: butt}</style>
 </defs>
 <g id="figure_1">
  <g id="patch_1">
   <path d="M 0 1108.442812 
L 972.883125 1108.442812 
L 972.883125 0 
L 0 0 
z
" style="fill: #ffffff"/>
  </g>
  <g id="axes_1">
   <g id="patch_2">
    <path d="M 103.663125 835.484062 
L 940.663125 835.484062 
L 940.663125 20.084062 
L 103.663125 20.084062 
z
" style="fill: #ffffff"/>
   </g>
   <g id="matplotlib.axis_1">
    <g id="xtick_1">
     <g id="text_1">
      <text style="fill: #262626; font: 36px 'sans-serif'; text-anchor: middle" x="103.663125" y="870.752187" transform="rotate(-0, 103.663125, 870.752187)">0.0</text>
     </g>
    </g>
    <g id="xtick_2">
     <g id="text_2">
      <text style="fill: #262626; font: 36px 'sans-serif'; text-anchor: middle" x="271.063125" y="870.752187" transform="rotate(-0, 271.063125, 870.752187)">0.2</text>
     </g>
    </g>
    <g id="xtick_3">
     <g id="text_3">
      <text style="fill: #262626; font: 36px 'sans-serif'; text-anchor: middle" x="438.463125" y="870.752187" transform="rotate(-0, 438.463125, 870.752187)">0.4</text>
     </g>
    </g>
    <g id="xtick_4">
     <g id="text_4">
      <text style="fill: #262626; font: 36px 'sans-serif'; text-anchor: middle" x="605.863125" y="870.752187" transform="rotate(-0, 605.863125, 870.752187)">0.6</text>
     </g>
    </g>
    <g id="xtick_5">
     <g id="text_5">
      <text style="fill: #262626; font: 36px 'sans-serif'; text-anchor: middle" x="773.263125" y="870.752187" transform="rotate(-0, 773.263125, 870.752187)">0.8</text>
     </g>
    </g>
    <g id="xtick_6">
     <g id="text_6">
      <text style="fill: #262626; font: 36px 'sans-serif'; text-anchor: middle" x="940.663125" y="870.752187" transform="rotate(-0, 940.663125, 870.752187)">1.0</text>
     </g>
    </g>
    <g id="text_7">
     <text style="fill: #262626; font: 36px 'sans-serif'; text-anchor: middle" x="522.163125" y="907.675312" transform="rotate(-0, 522.163125, 907.675312)">False Positive Rate</text>
    </g>
   </g>
   <g id="matplotlib.axis_2">
    <g id="ytick_1">
     <g id="text_8">
      <text style="fill: #262626; font: 36px 'sans-serif'; text-anchor: end" x="94.163125" y="848.368125" transform="rotate(-0, 94.163125, 848.368125)">0.0</text>
     </g>
    </g>
    <g id="ytick_2">
     <g id="text_9">
      <text style="fill: #262626; font: 36px 'sans-serif'; text-anchor: end" x="94.163125" y="685.288125" transform="rotate(-0, 94.163125, 685.288125)">0.2</text>
     </g>
    </g>
    <g id="ytick_3">
     <g id="text_10">
      <text style="fill: #262626; font: 36px 'sans-serif'; text-anchor: end" x="94.163125" y="522.208125" transform="rotate(-0, 94.163125, 522.208125)">0.4</text>
     </g>
    </g>
    <g id="ytick_4">
     <g id="text_11">
      <text style="fill: #262626; font: 36px 'sans-serif'; text-anchor: end" x="94.163125" y="359.128125" transform="rotate(-0, 94.163125, 359.128125)">0.6</text>
     </g>
    </g>
    <g id="ytick_5">
     <g id="text_12">
      <text style="fill: #262626; font: 36px 'sans-serif'; text-anchor: end" x="94.163125" y="196.048125" transform="rotate(-0, 94.163125, 196.048125)">0.8</text>
     </g>
    </g>
    <g id="ytick_6">
     <g id="text_13">
      <text style="fill: #262626; font: 36px 'sans-serif'; text-anchor: end" x="94.163125" y="32.968125" transform="rotate(-0, 94.163125, 32.968125)">1.0</text>
     </g>
    </g>
    <g id="text_14">
     <text style="fill: #262626; font: 36px 'sans-serif'; text-anchor: middle" x="32.968125" y="427.784062" transform="rotate(-90, 32.968125, 427.784062)">True Positive Rate</text>
    </g>
   </g>
   <g id="line2d_1">
    <path d="M 103.663125 835.484062 
L 103.663125 773.494589 
L 103.663125 749.652484 
L 103.663125 735.34722 
L 103.663125 678.126168 
L 103.663125 654.284062 
L 103.663125 635.210378 
L 103.663125 625.673536 
L 103.663125 606.599852 
L 103.663125 582.757747 
L 103.663125 563.684062 
L 103.663125 558.915641 
L 106.12489 539.841957 
L 108.586654 530.305115 
L 111.048419 530.305115 
L 111.048419 525.536694 
L 111.048419 506.46301 
L 111.048419 496.926168 
L 115.971949 492.157747 
L 120.895478 482.620905 
L 123.357243 468.315641 
L 125.819007 468.315641 
L 125.819007 454.010378 
L 125.819007 444.473536 
L 128.280772 434.936694 
L 128.280772 430.168273 
L 128.280772 420.631431 
L 128.280772 406.326168 
L 133.204301 387.252484 
L 133.204301 372.94722 
L 135.666066 368.178799 
L 140.589596 344.336694 
L 143.05136 344.336694 
L 147.97489 330.031431 
L 150.436654 325.26301 
L 152.898419 315.726168 
L 152.898419 310.957747 
L 152.898419 301.420905 
L 155.360184 301.420905 
L 157.821949 287.115641 
L 162.745478 287.115641 
L 162.745478 282.34722 
L 167.669007 277.578799 
L 170.130772 272.810378 
L 177.516066 268.041957 
L 182.439596 258.505115 
L 182.439596 244.199852 
L 182.439596 239.431431 
L 184.90136 229.894589 
L 187.363125 229.894589 
L 189.82489 220.357747 
L 194.748419 220.357747 
L 194.748419 210.820905 
L 199.671949 196.515641 
L 204.595478 191.74722 
L 209.519007 191.74722 
L 226.75136 182.210378 
L 229.213125 172.673536 
L 239.060184 172.673536 
L 248.907243 163.136694 
L 258.754301 163.136694 
L 266.139596 163.136694 
L 271.063125 163.136694 
L 273.52489 158.368273 
L 283.371949 158.368273 
L 288.295478 139.294589 
L 293.219007 124.989326 
L 310.45136 120.220905 
L 325.221949 110.684062 
L 337.530772 101.14722 
L 347.377831 96.378799 
L 349.839596 91.610378 
L 369.533713 91.610378 
L 389.227831 72.536694 
L 406.460184 67.768273 
L 426.154301 58.231431 
L 440.92489 58.231431 
L 460.619007 48.694589 
L 475.389596 48.694589 
L 497.545478 48.694589 
L 524.62489 43.926168 
L 556.627831 43.926168 
L 591.092537 39.157747 
L 647.713125 39.157747 
L 706.795478 29.620905 
L 792.957243 29.620905 
L 856.963125 20.084062 
L 940.663125 20.084062 
" clip-path="url(#pb030763974)" style="fill: none; stroke: #fde725; stroke-width: 7; stroke-linecap: round"/>
   </g>
   <g id="line2d_2">
    <path d="M 103.663125 835.484062 
L 103.663125 773.494589 
L 106.12489 773.494589 
L 106.12489 749.652484 
L 111.048419 749.652484 
L 111.048419 716.273536 
L 113.510184 716.273536 
L 113.510184 682.894589 
L 115.971949 682.894589 
L 115.971949 654.284062 
L 118.433713 654.284062 
L 118.433713 635.210378 
L 123.357243 635.210378 
L 123.357243 606.599852 
L 125.819007 606.599852 
L 125.819007 568.452484 
L 128.280772 568.452484 
L 128.280772 563.684062 
L 133.204301 563.684062 
L 133.204301 554.14722 
L 135.666066 554.14722 
L 135.666066 549.378799 
L 140.589596 549.378799 
L 140.589596 535.073536 
L 143.05136 535.073536 
L 143.05136 496.926168 
L 145.513125 496.926168 
L 145.513125 477.852484 
L 147.97489 477.852484 
L 147.97489 473.084062 
L 152.898419 473.084062 
L 152.898419 458.778799 
L 155.360184 458.778799 
L 155.360184 444.473536 
L 157.821949 444.473536 
L 157.821949 430.168273 
L 162.745478 430.168273 
L 162.745478 425.399852 
L 175.054301 425.399852 
L 175.054301 420.631431 
L 177.516066 420.631431 
L 177.516066 411.094589 
L 179.977831 411.094589 
L 179.977831 392.020905 
L 187.363125 392.020905 
L 187.363125 377.715641 
L 189.82489 377.715641 
L 189.82489 358.641957 
L 192.286654 358.641957 
L 192.286654 353.873536 
L 194.748419 353.873536 
L 194.748419 349.105115 
L 197.210184 349.105115 
L 197.210184 339.568273 
L 207.057243 339.568273 
L 207.057243 330.031431 
L 214.442537 330.031431 
L 214.442537 315.726168 
L 216.904301 315.726168 
L 216.904301 291.884062 
L 224.289596 291.884062 
L 224.289596 287.115641 
L 231.67489 287.115641 
L 231.67489 282.34722 
L 236.598419 282.34722 
L 236.598419 277.578799 
L 239.060184 277.578799 
L 239.060184 272.810378 
L 241.521949 272.810378 
L 241.521949 258.505115 
L 248.907243 258.505115 
L 248.907243 248.968273 
L 261.216066 248.968273 
L 261.216066 239.431431 
L 263.677831 239.431431 
L 263.677831 234.66301 
L 268.60136 234.66301 
L 268.60136 220.357747 
L 271.063125 220.357747 
L 271.063125 215.589326 
L 275.986654 215.589326 
L 275.986654 210.820905 
L 283.371949 210.820905 
L 283.371949 201.284062 
L 285.833713 201.284062 
L 285.833713 191.74722 
L 295.680772 191.74722 
L 295.680772 186.978799 
L 303.066066 186.978799 
L 303.066066 182.210378 
L 310.45136 182.210378 
L 310.45136 177.441957 
L 315.37489 177.441957 
L 315.37489 172.673536 
L 317.836654 172.673536 
L 317.836654 167.905115 
L 320.298419 167.905115 
L 320.298419 163.136694 
L 327.683713 163.136694 
L 327.683713 153.599852 
L 362.148419 153.599852 
L 362.148419 148.831431 
L 367.071949 148.831431 
L 367.071949 144.06301 
L 371.995478 144.06301 
L 371.995478 129.757747 
L 381.842537 129.757747 
L 381.842537 124.989326 
L 384.304301 124.989326 
L 384.304301 120.220905 
L 399.07489 120.220905 
L 399.07489 115.452484 
L 423.692537 115.452484 
L 423.692537 110.684062 
L 428.616066 110.684062 
L 428.616066 105.915641 
L 450.771949 105.915641 
L 450.771949 101.14722 
L 480.313125 101.14722 
L 480.313125 96.378799 
L 509.854301 96.378799 
L 509.854301 91.610378 
L 527.086654 91.610378 
L 527.086654 86.841957 
L 532.010184 86.841957 
L 532.010184 82.073536 
L 556.627831 82.073536 
L 556.627831 77.305115 
L 578.783713 77.305115 
L 578.783713 72.536694 
L 625.557243 72.536694 
L 625.557243 67.768273 
L 652.636654 67.768273 
L 652.636654 62.999852 
L 682.177831 62.999852 
L 682.177831 58.231431 
L 694.486654 58.231431 
L 694.486654 53.46301 
L 775.72489 53.46301 
L 775.72489 48.694589 
L 820.036654 48.694589 
L 820.036654 43.926168 
L 829.883713 43.926168 
L 829.883713 39.157747 
L 842.192537 39.157747 
L 842.192537 34.389326 
L 852.039596 34.389326 
L 852.039596 29.620905 
L 869.271949 29.620905 
L 869.271949 24.852484 
L 938.20136 24.852484 
L 938.20136 20.084062 
L 940.663125 20.084062 
L 940.663125 20.084062 
" clip-path="url(#pb030763974)" style="fill: none; stroke: #1f988b; stroke-width: 7; stroke-linecap: round"/>
   </g>
   <g id="line2d_3">
    <path d="M 103.663125 835.484062 
L 103.663125 787.799852 
L 106.12489 787.799852 
L 106.12489 759.189326 
L 111.048419 759.189326 
L 111.048419 711.505115 
L 113.510184 711.505115 
L 113.510184 701.968273 
L 115.971949 701.968273 
L 115.971949 678.126168 
L 118.433713 678.126168 
L 118.433713 616.136694 
L 120.895478 616.136694 
L 120.895478 606.599852 
L 128.280772 606.599852 
L 128.280772 601.831431 
L 130.742537 601.831431 
L 130.742537 592.294589 
L 133.204301 592.294589 
L 133.204301 535.073536 
L 138.127831 535.073536 
L 138.127831 501.694589 
L 143.05136 501.694589 
L 143.05136 487.389326 
L 145.513125 487.389326 
L 145.513125 482.620905 
L 147.97489 482.620905 
L 147.97489 463.54722 
L 155.360184 463.54722 
L 155.360184 439.705115 
L 157.821949 439.705115 
L 157.821949 425.399852 
L 160.283713 425.399852 
L 160.283713 406.326168 
L 162.745478 406.326168 
L 162.745478 387.252484 
L 170.130772 387.252484 
L 170.130772 382.484062 
L 172.592537 382.484062 
L 172.592537 377.715641 
L 179.977831 377.715641 
L 179.977831 372.94722 
L 182.439596 372.94722 
L 182.439596 368.178799 
L 187.363125 368.178799 
L 187.363125 363.410378 
L 192.286654 363.410378 
L 192.286654 353.873536 
L 194.748419 353.873536 
L 194.748419 334.799852 
L 197.210184 334.799852 
L 197.210184 325.26301 
L 199.671949 325.26301 
L 199.671949 310.957747 
L 204.595478 306.189326 
L 211.980772 306.189326 
L 211.980772 301.420905 
L 214.442537 301.420905 
L 214.442537 291.884062 
L 224.289596 291.884062 
L 224.289596 268.041957 
L 229.213125 268.041957 
L 229.213125 263.273536 
L 234.136654 263.273536 
L 234.136654 258.505115 
L 236.598419 258.505115 
L 236.598419 244.199852 
L 239.060184 244.199852 
L 239.060184 239.431431 
L 243.983713 239.431431 
L 243.983713 234.66301 
L 246.445478 234.66301 
L 246.445478 229.894589 
L 248.907243 229.894589 
L 248.907243 225.126168 
L 251.369007 225.126168 
L 251.369007 220.357747 
L 258.754301 220.357747 
L 258.754301 215.589326 
L 268.60136 215.589326 
L 268.60136 210.820905 
L 273.52489 210.820905 
L 273.52489 191.74722 
L 280.910184 191.74722 
L 280.910184 186.978799 
L 283.371949 186.978799 
L 283.371949 177.441957 
L 293.219007 177.441957 
L 293.219007 172.673536 
L 298.142537 172.673536 
L 298.142537 167.905115 
L 305.527831 167.905115 
L 305.527831 158.368273 
L 320.298419 158.368273 
L 320.298419 153.599852 
L 325.221949 153.599852 
L 325.221949 148.831431 
L 327.683713 148.831431 
L 327.683713 144.06301 
L 359.686654 144.06301 
L 359.686654 139.294589 
L 374.457243 139.294589 
L 374.457243 134.526168 
L 376.919007 134.526168 
L 376.919007 129.757747 
L 401.536654 129.757747 
L 401.536654 124.989326 
L 421.230772 124.989326 
L 421.230772 120.220905 
L 436.00136 120.220905 
L 436.00136 115.452484 
L 482.77489 115.452484 
L 482.77489 110.684062 
L 485.236654 110.684062 
L 485.236654 105.915641 
L 500.007243 105.915641 
L 500.007243 101.14722 
L 504.930772 101.14722 
L 504.930772 96.378799 
L 509.854301 96.378799 
L 509.854301 91.610378 
L 512.316066 91.610378 
L 512.316066 82.073536 
L 534.471949 82.073536 
L 534.471949 77.305115 
L 539.395478 77.305115 
L 539.395478 72.536694 
L 551.704301 72.536694 
L 551.704301 67.768273 
L 554.166066 67.768273 
L 554.166066 62.999852 
L 564.013125 62.999852 
L 564.013125 58.231431 
L 566.47489 58.231431 
L 566.47489 48.694589 
L 630.480772 48.694589 
L 630.480772 43.926168 
L 650.17489 43.926168 
L 650.17489 39.157747 
L 669.869007 39.157747 
L 669.869007 34.389326 
L 763.416066 34.389326 
L 763.416066 29.620905 
L 933.277831 29.620905 
L 933.277831 24.852484 
L 938.20136 24.852484 
L 938.20136 20.084062 
L 940.663125 20.084062 
L 940.663125 20.084062 
" clip-path="url(#pb030763974)" style="fill: none; stroke: #440154; stroke-width: 7; stroke-linecap: round"/>
   </g>
   <g id="patch_3">
    <path d="M 103.663125 835.484062 
L 103.663125 20.084062 
" style="fill: none; stroke: #262626; stroke-width: 1.25; stroke-linejoin: miter; stroke-linecap: square"/>
   </g>
   <g id="patch_4">
    <path d="M 940.663125 835.484062 
L 940.663125 20.084062 
" style="fill: none; stroke: #262626; stroke-width: 1.25; stroke-linejoin: miter; stroke-linecap: square"/>
   </g>
   <g id="patch_5">
    <path d="M 103.663125 835.484062 
L 940.663125 835.484062 
" style="fill: none; stroke: #262626; stroke-width: 1.25; stroke-linejoin: miter; stroke-linecap: square"/>
   </g>
   <g id="patch_6">
    <path d="M 103.663125 20.084062 
L 940.663125 20.084062 
" style="fill: none; stroke: #262626; stroke-width: 1.25; stroke-linejoin: miter; stroke-linecap: square"/>
   </g>
   <g id="legend_1">
    <g id="patch_7">
     <path d="M 45.163125 1101.242812 
L 853.66125 1101.242812 
Q 860.86125 1101.242812 860.86125 1094.042812 
L 860.86125 942.224062 
Q 860.86125 935.024062 853.66125 935.024062 
L 45.163125 935.024062 
Q 37.963125 935.024062 37.963125 942.224062 
L 37.963125 1094.042812 
Q 37.963125 1101.242812 45.163125 1101.242812 
z
" style="fill: #ffffff; opacity: 0.8; stroke: #cccccc; stroke-linejoin: miter"/>
    </g>
    <g id="line2d_4">
     <path d="M 52.363125 963.053437 
L 88.363125 963.053437 
L 124.363125 963.053437 
" style="fill: none; stroke: #fde725; stroke-width: 7; stroke-linecap: round"/>
    </g>
    <g id="text_15">
     <text style="fill: #262626; font: 36px 'sans-serif'; text-anchor: start" x="153.163125" y="975.653437" transform="rotate(-0, 153.163125, 975.653437)">Random Forest (ROC AUC = 0.91)</text>
    </g>
    <g id="line2d_5">
     <path d="M 52.363125 1014.859687 
L 88.363125 1014.859687 
L 124.363125 1014.859687 
" style="fill: none; stroke: #1f988b; stroke-width: 7; stroke-linecap: round"/>
    </g>
    <g id="text_16">
     <text style="fill: #262626; font: 36px 'sans-serif'; text-anchor: start" x="153.163125" y="1027.459687" transform="rotate(-0, 153.163125, 1027.459687)">Logistic Regression (ROC AUC = 0.84)</text>
    </g>
    <g id="line2d_6">
     <path d="M 52.363125 1066.665937 
L 88.363125 1066.665937 
L 124.363125 1066.665937 
" style="fill: none; stroke: #440154; stroke-width: 7; stroke-linecap: round"/>
    </g>
    <g id="text_17">
     <text style="fill: #262626; font: 36px 'sans-serif'; text-anchor: start" x="153.163125" y="1079.265937" transform="rotate(-0, 153.163125, 1079.265937)">Support Vector Machine (ROC AUC = 0.86)</text>
    </g>
   </g>
  </g>
 </g>
 <defs>
  <clipPath id="pb030763974">
   <rect x="103.663125" y="20.084062" width="837" height="815.4"/>
  </clipPath>
 </defs>
</svg>
