<?xml version="1.0" encoding="utf-8" standalone="no"?>
<!DOCTYPE svg PUBLIC "-//W3C//DTD SVG 1.1//EN"
  "http://www.w3.org/Graphics/SVG/1.1/DTD/svg11.dtd">
<svg xmlns:xlink="http://www.w3.org/1999/xlink" width="972.883125pt" height="1127.765625pt" viewBox="0 0 972.883125 1127.765625" xmlns="http://www.w3.org/2000/svg" version="1.1">
 <metadata>
  <rdf:RDF xmlns:dc="http://purl.org/dc/elements/1.1/" xmlns:cc="http://creativecommons.org/ns#" xmlns:rdf="http://www.w3.org/1999/02/22-rdf-syntax-ns#">
   <cc:Work>
    <dc:type rdf:resource="http://purl.org/dc/dcmitype/StillImage"/>
    <dc:date>2022-10-03T15:43:10.560420</dc:date>
    <dc:format>image/svg+xml</dc:format>
    <dc:creator>
     <cc:Agent>
      <dc:title>Matplotlib v3.6.0, https://matplotlib.org/</dc:title>
     </cc:Agent>
    </dc:creator>
   </cc:Work>
  </rdf:RDF>
 </metadata>
 <defs>
  <style type="text/css">*{stroke-linejoin: round; stroke-linecap: butt}</style>
 </defs>
 <g id="figure_1">
  <g id="patch_1">
   <path d="M 0 1127.765625 
L 972.883125 1127.765625 
L 972.883125 0 
L 0 0 
z
" style="fill: #ffffff"/>
  </g>
  <g id="axes_1">
   <g id="patch_2">
    <path d="M 103.663125 854.806875 
L 940.663125 854.806875 
L 940.663125 39.406875 
L 103.663125 39.406875 
z
" style="fill: #ffffff"/>
   </g>
   <g id="matplotlib.axis_1">
    <g id="xtick_1">
     <g id="text_1">
      <text style="fill: #262626; font: 36px 'sans-serif'; text-anchor: middle" x="103.663125" y="890.075" transform="rotate(-0 103.663125 890.075)">0.0</text>
     </g>
    </g>
    <g id="xtick_2">
     <g id="text_2">
      <text style="fill: #262626; font: 36px 'sans-serif'; text-anchor: middle" x="271.063125" y="890.075" transform="rotate(-0 271.063125 890.075)">0.2</text>
     </g>
    </g>
    <g id="xtick_3">
     <g id="text_3">
      <text style="fill: #262626; font: 36px 'sans-serif'; text-anchor: middle" x="438.463125" y="890.075" transform="rotate(-0 438.463125 890.075)">0.4</text>
     </g>
    </g>
    <g id="xtick_4">
     <g id="text_4">
      <text style="fill: #262626; font: 36px 'sans-serif'; text-anchor: middle" x="605.863125" y="890.075" transform="rotate(-0 605.863125 890.075)">0.6</text>
     </g>
    </g>
    <g id="xtick_5">
     <g id="text_5">
      <text style="fill: #262626; font: 36px 'sans-serif'; text-anchor: middle" x="773.263125" y="890.075" transform="rotate(-0 773.263125 890.075)">0.8</text>
     </g>
    </g>
    <g id="xtick_6">
     <g id="text_6">
      <text style="fill: #262626; font: 36px 'sans-serif'; text-anchor: middle" x="940.663125" y="890.075" transform="rotate(-0 940.663125 890.075)">1.0</text>
     </g>
    </g>
    <g id="text_7">
     <text style="fill: #262626; font: 36px 'sans-serif'; text-anchor: middle" x="522.163125" y="926.998125" transform="rotate(-0 522.163125 926.998125)">False Positive Rate</text>
    </g>
   </g>
   <g id="matplotlib.axis_2">
    <g id="ytick_1">
     <g id="text_8">
      <text style="fill: #262626; font: 36px 'sans-serif'; text-anchor: end" x="94.163125" y="867.690938" transform="rotate(-0 94.163125 867.690938)">0.0</text>
     </g>
    </g>
    <g id="ytick_2">
     <g id="text_9">
      <text style="fill: #262626; font: 36px 'sans-serif'; text-anchor: end" x="94.163125" y="704.610937" transform="rotate(-0 94.163125 704.610937)">0.2</text>
     </g>
    </g>
    <g id="ytick_3">
     <g id="text_10">
      <text style="fill: #262626; font: 36px 'sans-serif'; text-anchor: end" x="94.163125" y="541.530937" transform="rotate(-0 94.163125 541.530937)">0.4</text>
     </g>
    </g>
    <g id="ytick_4">
     <g id="text_11">
      <text style="fill: #262626; font: 36px 'sans-serif'; text-anchor: end" x="94.163125" y="378.450937" transform="rotate(-0 94.163125 378.450937)">0.6</text>
     </g>
    </g>
    <g id="ytick_5">
     <g id="text_12">
      <text style="fill: #262626; font: 36px 'sans-serif'; text-anchor: end" x="94.163125" y="215.370937" transform="rotate(-0 94.163125 215.370937)">0.8</text>
     </g>
    </g>
    <g id="ytick_6">
     <g id="text_13">
      <text style="fill: #262626; font: 36px 'sans-serif'; text-anchor: end" x="94.163125" y="52.290937" transform="rotate(-0 94.163125 52.290937)">1.0</text>
     </g>
    </g>
    <g id="text_14">
     <text style="fill: #262626; font: 36px 'sans-serif'; text-anchor: middle" x="32.968125" y="447.106875" transform="rotate(-90 32.968125 447.106875)">True Positive Rate</text>
    </g>
   </g>
   <g id="line2d_1">
    <path d="M 103.663125 854.806875 
L 103.663125 685.373109 
L 103.663125 563.592589 
L 103.663125 515.939343 
L 103.663125 441.81207 
L 103.663125 431.222459 
L 103.663125 404.748433 
L 103.663125 362.389992 
L 103.663125 330.621161 
L 103.663125 314.736745 
L 103.663125 288.262719 
L 103.663125 282.967914 
L 103.663125 256.493888 
L 103.663125 245.904278 
L 103.663125 230.019862 
L 107.66791 230.019862 
L 107.66791 208.840641 
L 107.66791 198.251031 
L 111.672694 182.366615 
L 111.672694 140.008174 
L 115.677479 140.008174 
L 115.677479 134.713369 
L 119.682264 134.713369 
L 119.682264 118.828953 
L 123.687048 118.828953 
L 123.687048 113.534148 
L 127.691833 113.534148 
L 131.696618 108.239343 
L 135.701403 108.239343 
L 135.701403 102.944537 
L 139.706187 102.944537 
L 139.706187 97.649732 
L 147.715757 97.649732 
L 147.715757 87.060122 
L 155.725326 87.060122 
L 163.734895 81.765317 
L 167.73968 76.470511 
L 191.768388 76.470511 
L 203.782742 71.175706 
L 207.787527 65.880901 
L 215.797096 65.880901 
L 223.806666 65.880901 
L 227.81145 65.880901 
L 239.825804 65.880901 
L 247.835374 65.880901 
L 251.840158 65.880901 
L 259.849728 60.586096 
L 263.854513 55.291291 
L 287.883221 55.291291 
L 323.926283 55.291291 
L 355.96456 44.70168 
L 468.098532 39.406875 
L 940.663125 39.406875 
" clip-path="url(#p079c6e7236)" style="fill: none; stroke: #fde725; stroke-width: 7; stroke-linecap: round"/>
   </g>
   <g id="PathCollection_1">
    <defs>
     <path id="m1a8b35a604" d="M 0 11.18034 
C 2.965061 11.18034 5.80908 10.002309 7.905694 7.905694 
C 10.002309 5.80908 11.18034 2.965061 11.18034 0 
C 11.18034 -2.965061 10.002309 -5.80908 7.905694 -7.905694 
C 5.80908 -10.002309 2.965061 -11.18034 0 -11.18034 
C -2.965061 -11.18034 -5.80908 -10.002309 -7.905694 -7.905694 
C -10.002309 -5.80908 -11.18034 -2.965061 -11.18034 0 
C -11.18034 2.965061 -10.002309 5.80908 -7.905694 7.905694 
C -5.80908 10.002309 -2.965061 11.18034 0 11.18034 
z
" style="stroke: #1a1a1a"/>
    </defs>
    <g clip-path="url(#p079c6e7236)">
     <use xlink:href="#m1a8b35a604" x="139.706187" y="102.944537" style="fill: #1a1a1a; stroke: #1a1a1a"/>
    </g>
   </g>
   <g id="line2d_2">
    <path d="M 103.663125 854.806875 
L 103.663125 849.51207 
L 103.663125 579.477005 
L 107.66791 579.477005 
L 107.66791 526.528953 
L 111.672694 526.528953 
L 111.672694 267.083498 
L 115.677479 267.083498 
L 115.677479 171.777005 
L 119.682264 171.777005 
L 119.682264 166.4822 
L 123.687048 166.4822 
L 123.687048 140.008174 
L 127.691833 140.008174 
L 127.691833 129.418563 
L 131.696618 129.418563 
L 131.696618 124.123758 
L 143.710972 124.123758 
L 143.710972 118.828953 
L 147.715757 118.828953 
L 147.715757 108.239343 
L 155.725326 108.239343 
L 155.725326 92.354927 
L 159.730111 92.354927 
L 159.730111 81.765317 
L 163.734895 81.765317 
L 163.734895 76.470511 
L 171.744465 76.470511 
L 171.744465 71.175706 
L 183.758819 71.175706 
L 183.758819 65.880901 
L 231.816235 65.880901 
L 231.816235 60.586096 
L 404.021977 60.586096 
L 404.021977 55.291291 
L 480.112886 55.291291 
L 480.112886 49.996485 
L 716.395182 49.996485 
L 716.395182 44.70168 
L 752.438245 44.70168 
L 752.438245 39.406875 
L 940.663125 39.406875 
" clip-path="url(#p079c6e7236)" style="fill: none; stroke: #1f988b; stroke-width: 7; stroke-linecap: round"/>
   </g>
   <g id="PathCollection_2">
    <g clip-path="url(#p079c6e7236)">
     <use xlink:href="#m1a8b35a604" x="155.725326" y="97.649732" style="fill: #1a1a1a; stroke: #1a1a1a"/>
    </g>
   </g>
   <g id="PathCollection_3">
    <g clip-path="url(#p079c6e7236)">
     <use xlink:href="#m1a8b35a604" x="155.725326" y="118.828953" style="fill: #1a1a1a; stroke: #1a1a1a"/>
    </g>
   </g>
   <g id="line2d_3">
    <path d="M 103.663125 854.806875 
L 107.66791 854.806875 
L 107.66791 441.81207 
L 111.672694 441.81207 
L 111.672694 362.389992 
L 115.677479 362.389992 
L 115.677479 298.85233 
L 119.682264 298.85233 
L 119.682264 293.557524 
L 127.691833 293.557524 
L 127.691833 261.788693 
L 131.696618 261.788693 
L 131.696618 224.725057 
L 139.706187 224.725057 
L 139.706187 203.545836 
L 147.715757 203.545836 
L 147.715757 124.123758 
L 155.725326 124.123758 
L 155.725326 113.534148 
L 159.730111 113.534148 
L 159.730111 108.239343 
L 163.734895 108.239343 
L 163.734895 97.649732 
L 167.73968 97.649732 
L 167.73968 92.354927 
L 175.749249 92.354927 
L 175.749249 87.060122 
L 179.754034 87.060122 
L 179.754034 76.470511 
L 191.768388 76.470511 
L 191.768388 65.880901 
L 251.840158 65.880901 
L 251.840158 60.586096 
L 492.12724 60.586096 
L 492.12724 49.996485 
L 588.242072 49.996485 
L 588.242072 44.70168 
L 732.414321 44.70168 
L 732.414321 39.406875 
L 940.663125 39.406875 
" clip-path="url(#p079c6e7236)" style="fill: none; stroke: #440154; stroke-width: 7; stroke-linecap: round"/>
   </g>
   <g id="patch_3">
    <path d="M 103.663125 854.806875 
L 103.663125 39.406875 
" style="fill: none; stroke: #262626; stroke-width: 1.25; stroke-linejoin: miter; stroke-linecap: square"/>
   </g>
   <g id="patch_4">
    <path d="M 940.663125 854.806875 
L 940.663125 39.406875 
" style="fill: none; stroke: #262626; stroke-width: 1.25; stroke-linejoin: miter; stroke-linecap: square"/>
   </g>
   <g id="patch_5">
    <path d="M 103.663125 854.806875 
L 940.663125 854.806875 
" style="fill: none; stroke: #262626; stroke-width: 1.25; stroke-linejoin: miter; stroke-linecap: square"/>
   </g>
   <g id="patch_6">
    <path d="M 103.663125 39.406875 
L 940.663125 39.406875 
" style="fill: none; stroke: #262626; stroke-width: 1.25; stroke-linejoin: miter; stroke-linecap: square"/>
   </g>
   <g id="text_15">
    <text style="fill: #262626; font: 36px 'sans-serif'; text-anchor: middle" x="522.163125" y="33.406875" transform="rotate(-0 522.163125 33.406875)">SF2. B Cells | class_weight: None</text>
   </g>
   <g id="legend_1">
    <g id="patch_7">
     <path d="M 45.163125 1120.565625 
L 853.66125 1120.565625 
Q 860.86125 1120.565625 860.86125 1113.365625 
L 860.86125 961.546875 
Q 860.86125 954.346875 853.66125 954.346875 
L 45.163125 954.346875 
Q 37.963125 954.346875 37.963125 961.546875 
L 37.963125 1113.365625 
Q 37.963125 1120.565625 45.163125 1120.565625 
z
" style="fill: #ffffff; opacity: 0.8; stroke: #cccccc; stroke-linejoin: miter"/>
    </g>
    <g id="line2d_4">
     <path d="M 52.363125 982.37625 
L 88.363125 982.37625 
L 124.363125 982.37625 
" style="fill: none; stroke: #fde725; stroke-width: 7; stroke-linecap: round"/>
    </g>
    <g id="text_16">
     <text style="fill: #262626; font: 36px 'sans-serif'; text-anchor: start" x="153.163125" y="994.97625" transform="rotate(-0 153.163125 994.97625)">Random Forest (ROC AUC = 0.99)</text>
    </g>
    <g id="line2d_5">
     <path d="M 52.363125 1034.1825 
L 88.363125 1034.1825 
L 124.363125 1034.1825 
" style="fill: none; stroke: #1f988b; stroke-width: 7; stroke-linecap: round"/>
    </g>
    <g id="text_17">
     <text style="fill: #262626; font: 36px 'sans-serif'; text-anchor: start" x="153.163125" y="1046.7825" transform="rotate(-0 153.163125 1046.7825)">Logistic Regression (ROC AUC = 0.97)</text>
    </g>
    <g id="line2d_6">
     <path d="M 52.363125 1085.98875 
L 88.363125 1085.98875 
L 124.363125 1085.98875 
" style="fill: none; stroke: #440154; stroke-width: 7; stroke-linecap: round"/>
    </g>
    <g id="text_18">
     <text style="fill: #262626; font: 36px 'sans-serif'; text-anchor: start" x="153.163125" y="1098.58875" transform="rotate(-0 153.163125 1098.58875)">Support Vector Machine (ROC AUC = 0.96)</text>
    </g>
   </g>
  </g>
 </g>
 <defs>
  <clipPath id="p079c6e7236">
   <rect x="103.663125" y="39.406875" width="837" height="815.4"/>
  </clipPath>
 </defs>
</svg>
