<?xml version="1.0" encoding="utf-8" standalone="no"?>
<!DOCTYPE svg PUBLIC "-//W3C//DTD SVG 1.1//EN"
  "http://www.w3.org/Graphics/SVG/1.1/DTD/svg11.dtd">
<svg xmlns:xlink="http://www.w3.org/1999/xlink" width="394.2pt" height="231.84pt" viewBox="0 0 394.2 231.84" xmlns="http://www.w3.org/2000/svg" version="1.1">
 <metadata>
  <rdf:RDF xmlns:dc="http://purl.org/dc/elements/1.1/" xmlns:cc="http://creativecommons.org/ns#" xmlns:rdf="http://www.w3.org/1999/02/22-rdf-syntax-ns#">
   <cc:Work>
    <dc:type rdf:resource="http://purl.org/dc/dcmitype/StillImage"/>
    <dc:date>2022-12-16T13:10:39.217323</dc:date>
    <dc:format>image/svg+xml</dc:format>
    <dc:creator>
     <cc:Agent>
      <dc:title>Matplotlib v3.6.0, https://matplotlib.org/</dc:title>
     </cc:Agent>
    </dc:creator>
   </cc:Work>
  </rdf:RDF>
 </metadata>
 <defs>
  <style type="text/css">*{stroke-linejoin: round; stroke-linecap: butt}</style>
 </defs>
 <g id="figure_1">
  <g id="patch_1">
   <path d="M 0 231.84 
L 394.2 231.84 
L 394.2 0 
L 0 0 
z
" style="fill: #ffffff"/>
  </g>
  <g id="axes_1">
   <g id="matplotlib.axis_1"/>
   <g id="matplotlib.axis_2"/>
   <g id="patch_2">
    <path d="M 202.896 115.92 
C 202.896 96.753857 196.560786 78.114851 184.881296 62.918451 
C 173.201807 47.722051 156.820497 36.804168 138.299693 31.87255 
C 119.778888 26.940932 100.137366 28.266853 82.447405 35.642918 
C 64.757444 43.018982 49.992118 56.039452 40.460985 72.667697 
L 115.92 115.92 
L 202.896 115.92 
z
" style="fill: #bddf26; stroke: #ffffff; stroke-linejoin: miter"/>
   </g>
   <g id="patch_3">
    <path d="M 40.460985 72.667697 
C 29.785633 91.292175 26.374499 113.225164 30.889276 134.212091 
C 35.404053 155.199017 47.532634 173.789051 64.92231 186.376087 
L 115.92 115.92 
L 40.460985 72.667697 
z
" style="fill: #7ad151; stroke: #ffffff; stroke-linejoin: miter"/>
   </g>
   <g id="patch_4">
    <path d="M 64.92231 186.376087 
C 70.803684 190.633157 77.195027 194.137097 83.947051 196.806062 
C 90.699075 199.475028 97.758799 201.288077 104.961325 202.20286 
L 115.92 115.92 
L 64.92231 186.376087 
z
" style="fill: #44bf70; stroke: #ffffff; stroke-linejoin: miter"/>
   </g>
   <g id="patch_5">
    <path d="M 104.961325 202.20286 
C 111.913058 203.085791 118.94609 203.125353 125.907316 202.320683 
C 132.868542 201.516014 139.707079 199.872996 146.274057 197.427397 
L 115.92 115.92 
L 104.961325 202.20286 
z
" style="fill: #22a884; stroke: #ffffff; stroke-linejoin: miter"/>
   </g>
   <g id="patch_6">
    <path d="M 146.274057 197.427397 
C 151.71073 195.402733 156.931216 192.839187 161.857468 189.775086 
C 166.783719 186.710984 171.391063 183.161671 175.61062 179.180212 
L 115.92 115.92 
L 146.274057 197.427397 
z
" style="fill: #21908d; stroke: #ffffff; stroke-linejoin: miter"/>
   </g>
   <g id="patch_7">
    <path d="M 175.61062 179.180212 
C 179.821076 175.20734 183.624396 170.824016 186.963963 166.095491 
C 190.30353 161.366966 193.16269 156.31682 195.498882 151.02023 
L 115.92 115.92 
L 175.61062 179.180212 
z
" style="fill: #2a788e; stroke: #ffffff; stroke-linejoin: miter"/>
   </g>
   <g id="patch_8">
    <path d="M 195.498882 151.02023 
C 196.417408 148.937758 197.253836 146.820033 198.006236 144.671946 
C 198.758636 142.523859 199.426427 140.347066 200.008067 138.146594 
L 115.92 115.92 
L 195.498882 151.02023 
z
" style="fill: #355f8d; stroke: #ffffff; stroke-linejoin: miter"/>
   </g>
   <g id="patch_9">
    <path d="M 200.008067 138.146594 
C 200.557773 136.066937 201.030139 133.967601 201.424191 131.85292 
C 201.818242 129.738239 202.133708 127.609667 202.369937 125.471596 
L 115.92 115.92 
L 200.008067 138.146594 
z
" style="fill: #414487; stroke: #ffffff; stroke-linejoin: miter"/>
   </g>
   <g id="patch_10">
    <path d="M 202.369937 125.471596 
C 202.545126 123.885987 202.676659 122.295857 202.764386 120.703013 
C 202.852113 119.110169 202.896001 117.515213 202.896 115.919955 
L 115.92 115.92 
L 202.369937 125.471596 
z
" style="fill: #482475; stroke: #ffffff; stroke-linejoin: miter"/>
   </g>
   <g id="legend_1">
    <g id="patch_11">
     <path d="M 235.44 50.444062 
L 259.44 50.444062 
L 259.44 42.044062 
L 235.44 42.044062 
z
" style="fill: #bddf26; stroke: #ffffff; stroke-linejoin: miter"/>
    </g>
    <g id="text_1">
     <!-- 41.72% NAD(P)H $\alpha_{1}$ -->
     <g style="fill: #262626" transform="translate(269.04 50.444062) scale(0.12 -0.12)">
      <defs>
       <path id="ArialMT-34" d="M 2069 0 
L 2069 1097 
L 81 1097 
L 81 1613 
L 2172 4581 
L 2631 4581 
L 2631 1613 
L 3250 1613 
L 3250 1097 
L 2631 1097 
L 2631 0 
L 2069 0 
z
M 2069 1613 
L 2069 3678 
L 634 1613 
L 2069 1613 
z
" transform="scale(0.015625)"/>
       <path id="ArialMT-31" d="M 2384 0 
L 1822 0 
L 1822 3584 
Q 1619 3391 1289 3197 
Q 959 3003 697 2906 
L 697 3450 
Q 1169 3672 1522 3987 
Q 1875 4303 2022 4600 
L 2384 4600 
L 2384 0 
z
" transform="scale(0.015625)"/>
       <path id="ArialMT-2e" d="M 581 0 
L 581 641 
L 1222 641 
L 1222 0 
L 581 0 
z
" transform="scale(0.015625)"/>
       <path id="ArialMT-37" d="M 303 3981 
L 303 4522 
L 3269 4522 
L 3269 4084 
Q 2831 3619 2401 2847 
Q 1972 2075 1738 1259 
Q 1569 684 1522 0 
L 944 0 
Q 953 541 1156 1306 
Q 1359 2072 1739 2783 
Q 2119 3494 2547 3981 
L 303 3981 
z
" transform="scale(0.015625)"/>
       <path id="ArialMT-32" d="M 3222 541 
L 3222 0 
L 194 0 
Q 188 203 259 391 
Q 375 700 629 1000 
Q 884 1300 1366 1694 
Q 2113 2306 2375 2664 
Q 2638 3022 2638 3341 
Q 2638 3675 2398 3904 
Q 2159 4134 1775 4134 
Q 1369 4134 1125 3890 
Q 881 3647 878 3216 
L 300 3275 
Q 359 3922 746 4261 
Q 1134 4600 1788 4600 
Q 2447 4600 2831 4234 
Q 3216 3869 3216 3328 
Q 3216 3053 3103 2787 
Q 2991 2522 2730 2228 
Q 2469 1934 1863 1422 
Q 1356 997 1212 845 
Q 1069 694 975 541 
L 3222 541 
z
" transform="scale(0.015625)"/>
       <path id="ArialMT-25" d="M 372 3481 
Q 372 3972 619 4315 
Q 866 4659 1334 4659 
Q 1766 4659 2048 4351 
Q 2331 4044 2331 3447 
Q 2331 2866 2045 2552 
Q 1759 2238 1341 2238 
Q 925 2238 648 2547 
Q 372 2856 372 3481 
z
M 1350 4272 
Q 1141 4272 1002 4090 
Q 863 3909 863 3425 
Q 863 2984 1003 2804 
Q 1144 2625 1350 2625 
Q 1563 2625 1702 2806 
Q 1841 2988 1841 3469 
Q 1841 3913 1700 4092 
Q 1559 4272 1350 4272 
z
M 1353 -169 
L 3859 4659 
L 4316 4659 
L 1819 -169 
L 1353 -169 
z
M 3334 1075 
Q 3334 1569 3581 1911 
Q 3828 2253 4300 2253 
Q 4731 2253 5014 1945 
Q 5297 1638 5297 1041 
Q 5297 459 5011 145 
Q 4725 -169 4303 -169 
Q 3888 -169 3611 142 
Q 3334 453 3334 1075 
z
M 4316 1866 
Q 4103 1866 3964 1684 
Q 3825 1503 3825 1019 
Q 3825 581 3965 400 
Q 4106 219 4313 219 
Q 4528 219 4667 400 
Q 4806 581 4806 1063 
Q 4806 1506 4665 1686 
Q 4525 1866 4316 1866 
z
" transform="scale(0.015625)"/>
       <path id="ArialMT-20" transform="scale(0.015625)"/>
       <path id="ArialMT-4e" d="M 488 0 
L 488 4581 
L 1109 4581 
L 3516 984 
L 3516 4581 
L 4097 4581 
L 4097 0 
L 3475 0 
L 1069 3600 
L 1069 0 
L 488 0 
z
" transform="scale(0.015625)"/>
       <path id="ArialMT-41" d="M -9 0 
L 1750 4581 
L 2403 4581 
L 4278 0 
L 3588 0 
L 3053 1388 
L 1138 1388 
L 634 0 
L -9 0 
z
M 1313 1881 
L 2866 1881 
L 2388 3150 
Q 2169 3728 2063 4100 
Q 1975 3659 1816 3225 
L 1313 1881 
z
" transform="scale(0.015625)"/>
       <path id="ArialMT-44" d="M 494 0 
L 494 4581 
L 2072 4581 
Q 2606 4581 2888 4516 
Q 3281 4425 3559 4188 
Q 3922 3881 4101 3404 
Q 4281 2928 4281 2316 
Q 4281 1794 4159 1391 
Q 4038 988 3847 723 
Q 3656 459 3429 307 
Q 3203 156 2883 78 
Q 2563 0 2147 0 
L 494 0 
z
M 1100 541 
L 2078 541 
Q 2531 541 2789 625 
Q 3047 709 3200 863 
Q 3416 1078 3536 1442 
Q 3656 1806 3656 2325 
Q 3656 3044 3420 3430 
Q 3184 3816 2847 3947 
Q 2603 4041 2063 4041 
L 1100 4041 
L 1100 541 
z
" transform="scale(0.015625)"/>
       <path id="ArialMT-28" d="M 1497 -1347 
Q 1031 -759 709 28 
Q 388 816 388 1659 
Q 388 2403 628 3084 
Q 909 3875 1497 4659 
L 1900 4659 
Q 1522 4009 1400 3731 
Q 1209 3300 1100 2831 
Q 966 2247 966 1656 
Q 966 153 1900 -1347 
L 1497 -1347 
z
" transform="scale(0.015625)"/>
       <path id="ArialMT-50" d="M 494 0 
L 494 4581 
L 2222 4581 
Q 2678 4581 2919 4538 
Q 3256 4481 3484 4323 
Q 3713 4166 3852 3881 
Q 3991 3597 3991 3256 
Q 3991 2672 3619 2267 
Q 3247 1863 2275 1863 
L 1100 1863 
L 1100 0 
L 494 0 
z
M 1100 2403 
L 2284 2403 
Q 2872 2403 3119 2622 
Q 3366 2841 3366 3238 
Q 3366 3525 3220 3729 
Q 3075 3934 2838 4000 
Q 2684 4041 2272 4041 
L 1100 4041 
L 1100 2403 
z
" transform="scale(0.015625)"/>
       <path id="ArialMT-29" d="M 791 -1347 
L 388 -1347 
Q 1322 153 1322 1656 
Q 1322 2244 1188 2822 
Q 1081 3291 891 3722 
Q 769 4003 388 4659 
L 791 4659 
Q 1378 3875 1659 3084 
Q 1900 2403 1900 1659 
Q 1900 816 1576 28 
Q 1253 -759 791 -1347 
z
" transform="scale(0.015625)"/>
       <path id="ArialMT-48" d="M 513 0 
L 513 4581 
L 1119 4581 
L 1119 2700 
L 3500 2700 
L 3500 4581 
L 4106 4581 
L 4106 0 
L 3500 0 
L 3500 2159 
L 1119 2159 
L 1119 0 
L 513 0 
z
" transform="scale(0.015625)"/>
       <path id="DejaVuSans-Oblique-3b1" d="M 2619 1628 
L 2622 2350 
Q 2625 3088 2069 3091 
Q 1653 3094 1394 2747 
Q 1069 2319 959 1747 
Q 825 1059 994 731 
Q 1169 397 1547 397 
Q 1966 397 2319 1063 
L 2619 1628 
z
M 2166 3578 
Q 3141 3594 3128 2584 
Q 3128 2584 3616 3500 
L 4128 3500 
L 3119 1603 
L 3109 919 
Q 3109 766 3194 638 
Q 3291 488 3391 488 
L 3669 488 
L 3575 0 
L 3228 0 
Q 2934 0 2722 263 
Q 2622 394 2619 669 
Q 2416 334 2066 50 
Q 1900 -81 1453 -78 
Q 722 -72 456 397 
Q 184 884 353 1747 
Q 534 2675 1009 3097 
Q 1544 3569 2166 3578 
z
" transform="scale(0.015625)"/>
       <path id="DejaVuSans-31" d="M 794 531 
L 1825 531 
L 1825 4091 
L 703 3866 
L 703 4441 
L 1819 4666 
L 2450 4666 
L 2450 531 
L 3481 531 
L 3481 0 
L 794 0 
L 794 531 
z
" transform="scale(0.015625)"/>
      </defs>
      <use xlink:href="#ArialMT-34" transform="translate(0 0.203125)"/>
      <use xlink:href="#ArialMT-31" transform="translate(55.615234 0.203125)"/>
      <use xlink:href="#ArialMT-2e" transform="translate(111.230469 0.203125)"/>
      <use xlink:href="#ArialMT-37" transform="translate(139.013672 0.203125)"/>
      <use xlink:href="#ArialMT-32" transform="translate(192.878906 0.203125)"/>
      <use xlink:href="#ArialMT-25" transform="translate(248.494141 0.203125)"/>
      <use xlink:href="#ArialMT-20" transform="translate(337.410156 0.203125)"/>
      <use xlink:href="#ArialMT-4e" transform="translate(365.193359 0.203125)"/>
      <use xlink:href="#ArialMT-41" transform="translate(437.410156 0.203125)"/>
      <use xlink:href="#ArialMT-44" transform="translate(504.109375 0.203125)"/>
      <use xlink:href="#ArialMT-28" transform="translate(576.326172 0.203125)"/>
      <use xlink:href="#ArialMT-50" transform="translate(609.626953 0.203125)"/>
      <use xlink:href="#ArialMT-29" transform="translate(676.326172 0.203125)"/>
      <use xlink:href="#ArialMT-48" transform="translate(709.626953 0.203125)"/>
      <use xlink:href="#ArialMT-20" transform="translate(781.84375 0.203125)"/>
      <use xlink:href="#DejaVuSans-Oblique-3b1" transform="translate(809.626953 0.203125)"/>
      <use xlink:href="#DejaVuSans-31" transform="translate(875.544922 -16.203125) scale(0.7)"/>
     </g>
    </g>
    <g id="patch_12">
     <path d="M 235.44 67.844062 
L 259.44 67.844062 
L 259.44 59.444062 
L 235.44 59.444062 
z
" style="fill: #7ad151; stroke: #ffffff; stroke-linejoin: miter"/>
    </g>
    <g id="text_2">
     <!-- 23.31% NAD(P)H $\tau_{m}$ -->
     <g style="fill: #262626" transform="translate(269.04 67.844062) scale(0.12 -0.12)">
      <defs>
       <path id="ArialMT-33" d="M 269 1209 
L 831 1284 
Q 928 806 1161 595 
Q 1394 384 1728 384 
Q 2125 384 2398 659 
Q 2672 934 2672 1341 
Q 2672 1728 2419 1979 
Q 2166 2231 1775 2231 
Q 1616 2231 1378 2169 
L 1441 2663 
Q 1497 2656 1531 2656 
Q 1891 2656 2178 2843 
Q 2466 3031 2466 3422 
Q 2466 3731 2256 3934 
Q 2047 4138 1716 4138 
Q 1388 4138 1169 3931 
Q 950 3725 888 3313 
L 325 3413 
Q 428 3978 793 4289 
Q 1159 4600 1703 4600 
Q 2078 4600 2393 4439 
Q 2709 4278 2876 4000 
Q 3044 3722 3044 3409 
Q 3044 3113 2884 2869 
Q 2725 2625 2413 2481 
Q 2819 2388 3044 2092 
Q 3269 1797 3269 1353 
Q 3269 753 2831 336 
Q 2394 -81 1725 -81 
Q 1122 -81 723 278 
Q 325 638 269 1209 
z
" transform="scale(0.015625)"/>
       <path id="DejaVuSans-Oblique-3c4" d="M 2103 638 
Q 2188 488 2525 488 
L 2800 488 
L 2706 0 
L 2363 0 
Q 1800 0 1600 300 
Q 1403 606 1534 1269 
L 1856 2925 
L 541 2925 
L 653 3500 
L 3881 3500 
L 3769 2925 
L 2444 2925 
L 2113 1234 
Q 2025 781 2103 638 
z
" transform="scale(0.015625)"/>
       <path id="DejaVuSans-Oblique-6d" d="M 5747 2113 
L 5338 0 
L 4763 0 
L 5166 2094 
Q 5191 2228 5203 2325 
Q 5216 2422 5216 2491 
Q 5216 2772 5059 2928 
Q 4903 3084 4622 3084 
Q 4203 3084 3875 2770 
Q 3547 2456 3450 1953 
L 3066 0 
L 2491 0 
L 2900 2094 
Q 2925 2209 2937 2307 
Q 2950 2406 2950 2484 
Q 2950 2769 2794 2926 
Q 2638 3084 2363 3084 
Q 1938 3084 1609 2770 
Q 1281 2456 1184 1953 
L 800 0 
L 225 0 
L 909 3500 
L 1484 3500 
L 1375 2956 
Q 1609 3263 1923 3423 
Q 2238 3584 2597 3584 
Q 2978 3584 3223 3384 
Q 3469 3184 3519 2828 
Q 3781 3197 4126 3390 
Q 4472 3584 4856 3584 
Q 5306 3584 5551 3325 
Q 5797 3066 5797 2591 
Q 5797 2488 5784 2364 
Q 5772 2241 5747 2113 
z
" transform="scale(0.015625)"/>
      </defs>
      <use xlink:href="#ArialMT-32" transform="translate(0 0.203125)"/>
      <use xlink:href="#ArialMT-33" transform="translate(55.615234 0.203125)"/>
      <use xlink:href="#ArialMT-2e" transform="translate(111.230469 0.203125)"/>
      <use xlink:href="#ArialMT-33" transform="translate(139.013672 0.203125)"/>
      <use xlink:href="#ArialMT-31" transform="translate(194.628906 0.203125)"/>
      <use xlink:href="#ArialMT-25" transform="translate(250.244141 0.203125)"/>
      <use xlink:href="#ArialMT-20" transform="translate(339.160156 0.203125)"/>
      <use xlink:href="#ArialMT-4e" transform="translate(366.943359 0.203125)"/>
      <use xlink:href="#ArialMT-41" transform="translate(439.160156 0.203125)"/>
      <use xlink:href="#ArialMT-44" transform="translate(505.859375 0.203125)"/>
      <use xlink:href="#ArialMT-28" transform="translate(578.076172 0.203125)"/>
      <use xlink:href="#ArialMT-50" transform="translate(611.376953 0.203125)"/>
      <use xlink:href="#ArialMT-29" transform="translate(678.076172 0.203125)"/>
      <use xlink:href="#ArialMT-48" transform="translate(711.376953 0.203125)"/>
      <use xlink:href="#ArialMT-20" transform="translate(783.59375 0.203125)"/>
      <use xlink:href="#DejaVuSans-Oblique-3c4" transform="translate(811.376953 0.203125)"/>
      <use xlink:href="#DejaVuSans-Oblique-6d" transform="translate(871.582031 -16.203125) scale(0.7)"/>
     </g>
    </g>
    <g id="patch_13">
     <path d="M 235.44 85.073437 
L 259.44 85.073437 
L 259.44 76.673437 
L 235.44 76.673437 
z
" style="fill: #44bf70; stroke: #ffffff; stroke-linejoin: miter"/>
    </g>
    <g id="text_3">
     <!-- 7.96% FAD $\tau_{2}$ -->
     <g style="fill: #262626" transform="translate(269.04 85.073437) scale(0.12 -0.12)">
      <defs>
       <path id="ArialMT-39" d="M 350 1059 
L 891 1109 
Q 959 728 1153 556 
Q 1347 384 1650 384 
Q 1909 384 2104 503 
Q 2300 622 2425 820 
Q 2550 1019 2634 1356 
Q 2719 1694 2719 2044 
Q 2719 2081 2716 2156 
Q 2547 1888 2255 1720 
Q 1963 1553 1622 1553 
Q 1053 1553 659 1965 
Q 266 2378 266 3053 
Q 266 3750 677 4175 
Q 1088 4600 1706 4600 
Q 2153 4600 2523 4359 
Q 2894 4119 3086 3673 
Q 3278 3228 3278 2384 
Q 3278 1506 3087 986 
Q 2897 466 2520 194 
Q 2144 -78 1638 -78 
Q 1100 -78 759 220 
Q 419 519 350 1059 
z
M 2653 3081 
Q 2653 3566 2395 3850 
Q 2138 4134 1775 4134 
Q 1400 4134 1122 3828 
Q 844 3522 844 3034 
Q 844 2597 1108 2323 
Q 1372 2050 1759 2050 
Q 2150 2050 2401 2323 
Q 2653 2597 2653 3081 
z
" transform="scale(0.015625)"/>
       <path id="ArialMT-36" d="M 3184 3459 
L 2625 3416 
Q 2550 3747 2413 3897 
Q 2184 4138 1850 4138 
Q 1581 4138 1378 3988 
Q 1113 3794 959 3422 
Q 806 3050 800 2363 
Q 1003 2672 1297 2822 
Q 1591 2972 1913 2972 
Q 2475 2972 2870 2558 
Q 3266 2144 3266 1488 
Q 3266 1056 3080 686 
Q 2894 316 2569 119 
Q 2244 -78 1831 -78 
Q 1128 -78 684 439 
Q 241 956 241 2144 
Q 241 3472 731 4075 
Q 1159 4600 1884 4600 
Q 2425 4600 2770 4297 
Q 3116 3994 3184 3459 
z
M 888 1484 
Q 888 1194 1011 928 
Q 1134 663 1356 523 
Q 1578 384 1822 384 
Q 2178 384 2434 671 
Q 2691 959 2691 1453 
Q 2691 1928 2437 2201 
Q 2184 2475 1800 2475 
Q 1419 2475 1153 2201 
Q 888 1928 888 1484 
z
" transform="scale(0.015625)"/>
       <path id="ArialMT-46" d="M 525 0 
L 525 4581 
L 3616 4581 
L 3616 4041 
L 1131 4041 
L 1131 2622 
L 3281 2622 
L 3281 2081 
L 1131 2081 
L 1131 0 
L 525 0 
z
" transform="scale(0.015625)"/>
       <path id="DejaVuSans-32" d="M 1228 531 
L 3431 531 
L 3431 0 
L 469 0 
L 469 531 
Q 828 903 1448 1529 
Q 2069 2156 2228 2338 
Q 2531 2678 2651 2914 
Q 2772 3150 2772 3378 
Q 2772 3750 2511 3984 
Q 2250 4219 1831 4219 
Q 1534 4219 1204 4116 
Q 875 4013 500 3803 
L 500 4441 
Q 881 4594 1212 4672 
Q 1544 4750 1819 4750 
Q 2544 4750 2975 4387 
Q 3406 4025 3406 3419 
Q 3406 3131 3298 2873 
Q 3191 2616 2906 2266 
Q 2828 2175 2409 1742 
Q 1991 1309 1228 531 
z
" transform="scale(0.015625)"/>
      </defs>
      <use xlink:href="#ArialMT-37" transform="translate(0 0.203125)"/>
      <use xlink:href="#ArialMT-2e" transform="translate(55.615234 0.203125)"/>
      <use xlink:href="#ArialMT-39" transform="translate(83.398438 0.203125)"/>
      <use xlink:href="#ArialMT-36" transform="translate(139.013672 0.203125)"/>
      <use xlink:href="#ArialMT-25" transform="translate(194.628906 0.203125)"/>
      <use xlink:href="#ArialMT-20" transform="translate(283.544922 0.203125)"/>
      <use xlink:href="#ArialMT-46" transform="translate(311.328125 0.203125)"/>
      <use xlink:href="#ArialMT-41" transform="translate(372.412109 0.203125)"/>
      <use xlink:href="#ArialMT-44" transform="translate(439.111328 0.203125)"/>
      <use xlink:href="#ArialMT-20" transform="translate(511.328125 0.203125)"/>
      <use xlink:href="#DejaVuSans-Oblique-3c4" transform="translate(539.111328 0.203125)"/>
      <use xlink:href="#DejaVuSans-32" transform="translate(599.316406 -16.203125) scale(0.7)"/>
     </g>
    </g>
    <g id="patch_14">
     <path d="M 235.44 102.218437 
L 259.44 102.218437 
L 259.44 93.818437 
L 235.44 93.818437 
z
" style="fill: #22a884; stroke: #ffffff; stroke-linejoin: miter"/>
    </g>
    <g id="text_4">
     <!-- 7.68% NAD(P)H $\tau_{1}$ -->
     <g style="fill: #262626" transform="translate(269.04 102.218437) scale(0.12 -0.12)">
      <defs>
       <path id="ArialMT-38" d="M 1131 2484 
Q 781 2613 612 2850 
Q 444 3088 444 3419 
Q 444 3919 803 4259 
Q 1163 4600 1759 4600 
Q 2359 4600 2725 4251 
Q 3091 3903 3091 3403 
Q 3091 3084 2923 2848 
Q 2756 2613 2416 2484 
Q 2838 2347 3058 2040 
Q 3278 1734 3278 1309 
Q 3278 722 2862 322 
Q 2447 -78 1769 -78 
Q 1091 -78 675 323 
Q 259 725 259 1325 
Q 259 1772 486 2073 
Q 713 2375 1131 2484 
z
M 1019 3438 
Q 1019 3113 1228 2906 
Q 1438 2700 1772 2700 
Q 2097 2700 2305 2904 
Q 2513 3109 2513 3406 
Q 2513 3716 2298 3927 
Q 2084 4138 1766 4138 
Q 1444 4138 1231 3931 
Q 1019 3725 1019 3438 
z
M 838 1322 
Q 838 1081 952 856 
Q 1066 631 1291 507 
Q 1516 384 1775 384 
Q 2178 384 2440 643 
Q 2703 903 2703 1303 
Q 2703 1709 2433 1975 
Q 2163 2241 1756 2241 
Q 1359 2241 1098 1978 
Q 838 1716 838 1322 
z
" transform="scale(0.015625)"/>
      </defs>
      <use xlink:href="#ArialMT-37" transform="translate(0 0.203125)"/>
      <use xlink:href="#ArialMT-2e" transform="translate(55.615234 0.203125)"/>
      <use xlink:href="#ArialMT-36" transform="translate(83.398438 0.203125)"/>
      <use xlink:href="#ArialMT-38" transform="translate(139.013672 0.203125)"/>
      <use xlink:href="#ArialMT-25" transform="translate(194.628906 0.203125)"/>
      <use xlink:href="#ArialMT-20" transform="translate(283.544922 0.203125)"/>
      <use xlink:href="#ArialMT-4e" transform="translate(311.328125 0.203125)"/>
      <use xlink:href="#ArialMT-41" transform="translate(383.544922 0.203125)"/>
      <use xlink:href="#ArialMT-44" transform="translate(450.244141 0.203125)"/>
      <use xlink:href="#ArialMT-28" transform="translate(522.460938 0.203125)"/>
      <use xlink:href="#ArialMT-50" transform="translate(555.761719 0.203125)"/>
      <use xlink:href="#ArialMT-29" transform="translate(622.460938 0.203125)"/>
      <use xlink:href="#ArialMT-48" transform="translate(655.761719 0.203125)"/>
      <use xlink:href="#ArialMT-20" transform="translate(727.978516 0.203125)"/>
      <use xlink:href="#DejaVuSans-Oblique-3c4" transform="translate(755.761719 0.203125)"/>
      <use xlink:href="#DejaVuSans-31" transform="translate(815.966797 -16.203125) scale(0.7)"/>
     </g>
    </g>
    <g id="patch_15">
     <path d="M 235.44 119.618437 
L 259.44 119.618437 
L 259.44 111.218437 
L 235.44 111.218437 
z
" style="fill: #21908d; stroke: #ffffff; stroke-linejoin: miter"/>
    </g>
    <g id="text_5">
     <!-- 6.36% NAD(P)H $\tau_{2}$ -->
     <g style="fill: #262626" transform="translate(269.04 119.618437) scale(0.12 -0.12)">
      <use xlink:href="#ArialMT-36" transform="translate(0 0.203125)"/>
      <use xlink:href="#ArialMT-2e" transform="translate(55.615234 0.203125)"/>
      <use xlink:href="#ArialMT-33" transform="translate(83.398438 0.203125)"/>
      <use xlink:href="#ArialMT-36" transform="translate(139.013672 0.203125)"/>
      <use xlink:href="#ArialMT-25" transform="translate(194.628906 0.203125)"/>
      <use xlink:href="#ArialMT-20" transform="translate(283.544922 0.203125)"/>
      <use xlink:href="#ArialMT-4e" transform="translate(311.328125 0.203125)"/>
      <use xlink:href="#ArialMT-41" transform="translate(383.544922 0.203125)"/>
      <use xlink:href="#ArialMT-44" transform="translate(450.244141 0.203125)"/>
      <use xlink:href="#ArialMT-28" transform="translate(522.460938 0.203125)"/>
      <use xlink:href="#ArialMT-50" transform="translate(555.761719 0.203125)"/>
      <use xlink:href="#ArialMT-29" transform="translate(622.460938 0.203125)"/>
      <use xlink:href="#ArialMT-48" transform="translate(655.761719 0.203125)"/>
      <use xlink:href="#ArialMT-20" transform="translate(727.978516 0.203125)"/>
      <use xlink:href="#DejaVuSans-Oblique-3c4" transform="translate(755.761719 0.203125)"/>
      <use xlink:href="#DejaVuSans-32" transform="translate(815.966797 -16.203125) scale(0.7)"/>
     </g>
    </g>
    <g id="patch_16">
     <path d="M 235.44 136.847812 
L 259.44 136.847812 
L 259.44 128.447812 
L 235.44 128.447812 
z
" style="fill: #2a788e; stroke: #ffffff; stroke-linejoin: miter"/>
    </g>
    <g id="text_6">
     <!-- 6.35% Redox Ratio -->
     <g style="fill: #262626" transform="translate(269.04 136.847812) scale(0.12 -0.12)">
      <defs>
       <path id="ArialMT-35" d="M 266 1200 
L 856 1250 
Q 922 819 1161 601 
Q 1400 384 1738 384 
Q 2144 384 2425 690 
Q 2706 997 2706 1503 
Q 2706 1984 2436 2262 
Q 2166 2541 1728 2541 
Q 1456 2541 1237 2417 
Q 1019 2294 894 2097 
L 366 2166 
L 809 4519 
L 3088 4519 
L 3088 3981 
L 1259 3981 
L 1013 2750 
Q 1425 3038 1878 3038 
Q 2478 3038 2890 2622 
Q 3303 2206 3303 1553 
Q 3303 931 2941 478 
Q 2500 -78 1738 -78 
Q 1113 -78 717 272 
Q 322 622 266 1200 
z
" transform="scale(0.015625)"/>
       <path id="ArialMT-52" d="M 503 0 
L 503 4581 
L 2534 4581 
Q 3147 4581 3465 4457 
Q 3784 4334 3975 4021 
Q 4166 3709 4166 3331 
Q 4166 2844 3850 2509 
Q 3534 2175 2875 2084 
Q 3116 1969 3241 1856 
Q 3506 1613 3744 1247 
L 4541 0 
L 3778 0 
L 3172 953 
Q 2906 1366 2734 1584 
Q 2563 1803 2427 1890 
Q 2291 1978 2150 2013 
Q 2047 2034 1813 2034 
L 1109 2034 
L 1109 0 
L 503 0 
z
M 1109 2559 
L 2413 2559 
Q 2828 2559 3062 2645 
Q 3297 2731 3419 2920 
Q 3541 3109 3541 3331 
Q 3541 3656 3305 3865 
Q 3069 4075 2559 4075 
L 1109 4075 
L 1109 2559 
z
" transform="scale(0.015625)"/>
       <path id="ArialMT-65" d="M 2694 1069 
L 3275 997 
Q 3138 488 2766 206 
Q 2394 -75 1816 -75 
Q 1088 -75 661 373 
Q 234 822 234 1631 
Q 234 2469 665 2931 
Q 1097 3394 1784 3394 
Q 2450 3394 2872 2941 
Q 3294 2488 3294 1666 
Q 3294 1616 3291 1516 
L 816 1516 
Q 847 969 1125 678 
Q 1403 388 1819 388 
Q 2128 388 2347 550 
Q 2566 713 2694 1069 
z
M 847 1978 
L 2700 1978 
Q 2663 2397 2488 2606 
Q 2219 2931 1791 2931 
Q 1403 2931 1139 2672 
Q 875 2413 847 1978 
z
" transform="scale(0.015625)"/>
       <path id="ArialMT-64" d="M 2575 0 
L 2575 419 
Q 2259 -75 1647 -75 
Q 1250 -75 917 144 
Q 584 363 401 755 
Q 219 1147 219 1656 
Q 219 2153 384 2558 
Q 550 2963 881 3178 
Q 1213 3394 1622 3394 
Q 1922 3394 2156 3267 
Q 2391 3141 2538 2938 
L 2538 4581 
L 3097 4581 
L 3097 0 
L 2575 0 
z
M 797 1656 
Q 797 1019 1065 703 
Q 1334 388 1700 388 
Q 2069 388 2326 689 
Q 2584 991 2584 1609 
Q 2584 2291 2321 2609 
Q 2059 2928 1675 2928 
Q 1300 2928 1048 2622 
Q 797 2316 797 1656 
z
" transform="scale(0.015625)"/>
       <path id="ArialMT-6f" d="M 213 1659 
Q 213 2581 725 3025 
Q 1153 3394 1769 3394 
Q 2453 3394 2887 2945 
Q 3322 2497 3322 1706 
Q 3322 1066 3130 698 
Q 2938 331 2570 128 
Q 2203 -75 1769 -75 
Q 1072 -75 642 372 
Q 213 819 213 1659 
z
M 791 1659 
Q 791 1022 1069 705 
Q 1347 388 1769 388 
Q 2188 388 2466 706 
Q 2744 1025 2744 1678 
Q 2744 2294 2464 2611 
Q 2184 2928 1769 2928 
Q 1347 2928 1069 2612 
Q 791 2297 791 1659 
z
" transform="scale(0.015625)"/>
       <path id="ArialMT-78" d="M 47 0 
L 1259 1725 
L 138 3319 
L 841 3319 
L 1350 2541 
Q 1494 2319 1581 2169 
Q 1719 2375 1834 2534 
L 2394 3319 
L 3066 3319 
L 1919 1756 
L 3153 0 
L 2463 0 
L 1781 1031 
L 1600 1309 
L 728 0 
L 47 0 
z
" transform="scale(0.015625)"/>
       <path id="ArialMT-61" d="M 2588 409 
Q 2275 144 1986 34 
Q 1697 -75 1366 -75 
Q 819 -75 525 192 
Q 231 459 231 875 
Q 231 1119 342 1320 
Q 453 1522 633 1644 
Q 813 1766 1038 1828 
Q 1203 1872 1538 1913 
Q 2219 1994 2541 2106 
Q 2544 2222 2544 2253 
Q 2544 2597 2384 2738 
Q 2169 2928 1744 2928 
Q 1347 2928 1158 2789 
Q 969 2650 878 2297 
L 328 2372 
Q 403 2725 575 2942 
Q 747 3159 1072 3276 
Q 1397 3394 1825 3394 
Q 2250 3394 2515 3294 
Q 2781 3194 2906 3042 
Q 3031 2891 3081 2659 
Q 3109 2516 3109 2141 
L 3109 1391 
Q 3109 606 3145 398 
Q 3181 191 3288 0 
L 2700 0 
Q 2613 175 2588 409 
z
M 2541 1666 
Q 2234 1541 1622 1453 
Q 1275 1403 1131 1340 
Q 988 1278 909 1158 
Q 831 1038 831 891 
Q 831 666 1001 516 
Q 1172 366 1500 366 
Q 1825 366 2078 508 
Q 2331 650 2450 897 
Q 2541 1088 2541 1459 
L 2541 1666 
z
" transform="scale(0.015625)"/>
       <path id="ArialMT-74" d="M 1650 503 
L 1731 6 
Q 1494 -44 1306 -44 
Q 1000 -44 831 53 
Q 663 150 594 308 
Q 525 466 525 972 
L 525 2881 
L 113 2881 
L 113 3319 
L 525 3319 
L 525 4141 
L 1084 4478 
L 1084 3319 
L 1650 3319 
L 1650 2881 
L 1084 2881 
L 1084 941 
Q 1084 700 1114 631 
Q 1144 563 1211 522 
Q 1278 481 1403 481 
Q 1497 481 1650 503 
z
" transform="scale(0.015625)"/>
       <path id="ArialMT-69" d="M 425 3934 
L 425 4581 
L 988 4581 
L 988 3934 
L 425 3934 
z
M 425 0 
L 425 3319 
L 988 3319 
L 988 0 
L 425 0 
z
" transform="scale(0.015625)"/>
      </defs>
      <use xlink:href="#ArialMT-36"/>
      <use xlink:href="#ArialMT-2e" x="55.615234"/>
      <use xlink:href="#ArialMT-33" x="83.398438"/>
      <use xlink:href="#ArialMT-35" x="139.013672"/>
      <use xlink:href="#ArialMT-25" x="194.628906"/>
      <use xlink:href="#ArialMT-20" x="283.544922"/>
      <use xlink:href="#ArialMT-52" x="311.328125"/>
      <use xlink:href="#ArialMT-65" x="383.544922"/>
      <use xlink:href="#ArialMT-64" x="439.160156"/>
      <use xlink:href="#ArialMT-6f" x="494.775391"/>
      <use xlink:href="#ArialMT-78" x="550.390625"/>
      <use xlink:href="#ArialMT-20" x="600.390625"/>
      <use xlink:href="#ArialMT-52" x="628.173828"/>
      <use xlink:href="#ArialMT-61" x="700.390625"/>
      <use xlink:href="#ArialMT-74" x="756.005859"/>
      <use xlink:href="#ArialMT-69" x="783.789062"/>
      <use xlink:href="#ArialMT-6f" x="806.005859"/>
     </g>
    </g>
    <g id="patch_17">
     <path d="M 235.44 153.822187 
L 259.44 153.822187 
L 259.44 145.422187 
L 235.44 145.422187 
z
" style="fill: #355f8d; stroke: #ffffff; stroke-linejoin: miter"/>
    </g>
    <g id="text_7">
     <!-- 2.50% FAD $\alpha_{1}$ -->
     <g style="fill: #262626" transform="translate(269.04 153.822187) scale(0.12 -0.12)">
      <defs>
       <path id="ArialMT-30" d="M 266 2259 
Q 266 3072 433 3567 
Q 600 4063 929 4331 
Q 1259 4600 1759 4600 
Q 2128 4600 2406 4451 
Q 2684 4303 2865 4023 
Q 3047 3744 3150 3342 
Q 3253 2941 3253 2259 
Q 3253 1453 3087 958 
Q 2922 463 2592 192 
Q 2263 -78 1759 -78 
Q 1097 -78 719 397 
Q 266 969 266 2259 
z
M 844 2259 
Q 844 1131 1108 757 
Q 1372 384 1759 384 
Q 2147 384 2411 759 
Q 2675 1134 2675 2259 
Q 2675 3391 2411 3762 
Q 2147 4134 1753 4134 
Q 1366 4134 1134 3806 
Q 844 3388 844 2259 
z
" transform="scale(0.015625)"/>
      </defs>
      <use xlink:href="#ArialMT-32" transform="translate(0 0.203125)"/>
      <use xlink:href="#ArialMT-2e" transform="translate(55.615234 0.203125)"/>
      <use xlink:href="#ArialMT-35" transform="translate(83.398438 0.203125)"/>
      <use xlink:href="#ArialMT-30" transform="translate(139.013672 0.203125)"/>
      <use xlink:href="#ArialMT-25" transform="translate(194.628906 0.203125)"/>
      <use xlink:href="#ArialMT-20" transform="translate(283.544922 0.203125)"/>
      <use xlink:href="#ArialMT-46" transform="translate(311.328125 0.203125)"/>
      <use xlink:href="#ArialMT-41" transform="translate(372.412109 0.203125)"/>
      <use xlink:href="#ArialMT-44" transform="translate(439.111328 0.203125)"/>
      <use xlink:href="#ArialMT-20" transform="translate(511.328125 0.203125)"/>
      <use xlink:href="#DejaVuSans-Oblique-3b1" transform="translate(539.111328 0.203125)"/>
      <use xlink:href="#DejaVuSans-31" transform="translate(605.029297 -16.203125) scale(0.7)"/>
     </g>
    </g>
    <g id="patch_18">
     <path d="M 235.44 170.796562 
L 259.44 170.796562 
L 259.44 162.396562 
L 235.44 162.396562 
z
" style="fill: #414487; stroke: #ffffff; stroke-linejoin: miter"/>
    </g>
    <g id="text_8">
     <!-- 2.36% FAD $\tau_{1}$ -->
     <g style="fill: #262626" transform="translate(269.04 170.796562) scale(0.12 -0.12)">
      <use xlink:href="#ArialMT-32" transform="translate(0 0.203125)"/>
      <use xlink:href="#ArialMT-2e" transform="translate(55.615234 0.203125)"/>
      <use xlink:href="#ArialMT-33" transform="translate(83.398438 0.203125)"/>
      <use xlink:href="#ArialMT-36" transform="translate(139.013672 0.203125)"/>
      <use xlink:href="#ArialMT-25" transform="translate(194.628906 0.203125)"/>
      <use xlink:href="#ArialMT-20" transform="translate(283.544922 0.203125)"/>
      <use xlink:href="#ArialMT-46" transform="translate(311.328125 0.203125)"/>
      <use xlink:href="#ArialMT-41" transform="translate(372.412109 0.203125)"/>
      <use xlink:href="#ArialMT-44" transform="translate(439.111328 0.203125)"/>
      <use xlink:href="#ArialMT-20" transform="translate(511.328125 0.203125)"/>
      <use xlink:href="#DejaVuSans-Oblique-3c4" transform="translate(539.111328 0.203125)"/>
      <use xlink:href="#DejaVuSans-31" transform="translate(599.316406 -16.203125) scale(0.7)"/>
     </g>
    </g>
    <g id="patch_19">
     <path d="M 235.44 187.770937 
L 259.44 187.770937 
L 259.44 179.370937 
L 235.44 179.370937 
z
" style="fill: #482475; stroke: #ffffff; stroke-linejoin: miter"/>
    </g>
    <g id="text_9">
     <!-- 1.75% FAD $\tau_{m}$ -->
     <g style="fill: #262626" transform="translate(269.04 187.770937) scale(0.12 -0.12)">
      <use xlink:href="#ArialMT-31" transform="translate(0 0.203125)"/>
      <use xlink:href="#ArialMT-2e" transform="translate(55.615234 0.203125)"/>
      <use xlink:href="#ArialMT-37" transform="translate(83.398438 0.203125)"/>
      <use xlink:href="#ArialMT-35" transform="translate(139.013672 0.203125)"/>
      <use xlink:href="#ArialMT-25" transform="translate(194.628906 0.203125)"/>
      <use xlink:href="#ArialMT-20" transform="translate(283.544922 0.203125)"/>
      <use xlink:href="#ArialMT-46" transform="translate(311.328125 0.203125)"/>
      <use xlink:href="#ArialMT-41" transform="translate(372.412109 0.203125)"/>
      <use xlink:href="#ArialMT-44" transform="translate(439.111328 0.203125)"/>
      <use xlink:href="#ArialMT-20" transform="translate(511.328125 0.203125)"/>
      <use xlink:href="#DejaVuSans-Oblique-3c4" transform="translate(539.111328 0.203125)"/>
      <use xlink:href="#DejaVuSans-Oblique-6d" transform="translate(599.316406 -16.203125) scale(0.7)"/>
     </g>
    </g>
   </g>
  </g>
 </g>
</svg>
