<?xml version="1.0" encoding="utf-8" standalone="no"?>
<!DOCTYPE svg PUBLIC "-//W3C//DTD SVG 1.1//EN"
  "http://www.w3.org/Graphics/SVG/1.1/DTD/svg11.dtd">
<svg xmlns:xlink="http://www.w3.org/1999/xlink" width="972.883125pt" height="1334.65875pt" viewBox="0 0 972.883125 1334.65875" xmlns="http://www.w3.org/2000/svg" version="1.1">
 <metadata>
  <rdf:RDF xmlns:dc="http://purl.org/dc/elements/1.1/" xmlns:cc="http://creativecommons.org/ns#" xmlns:rdf="http://www.w3.org/1999/02/22-rdf-syntax-ns#">
   <cc:Work>
    <dc:type rdf:resource="http://purl.org/dc/dcmitype/StillImage"/>
    <dc:date>2023-01-04T12:36:15.626980</dc:date>
    <dc:format>image/svg+xml</dc:format>
    <dc:creator>
     <cc:Agent>
      <dc:title>Matplotlib v3.6.0, https://matplotlib.org/</dc:title>
     </cc:Agent>
    </dc:creator>
   </cc:Work>
  </rdf:RDF>
 </metadata>
 <defs>
  <style type="text/css">*{stroke-linejoin: round; stroke-linecap: butt}</style>
 </defs>
 <g id="figure_1">
  <g id="patch_1">
   <path d="M 0 1334.65875 
L 972.883125 1334.65875 
L 972.883125 0 
L 0 0 
z
" style="fill: #ffffff"/>
  </g>
  <g id="axes_1">
   <g id="patch_2">
    <path d="M 103.663125 854.475 
L 940.663125 854.475 
L 940.663125 39.075 
L 103.663125 39.075 
z
" style="fill: #ffffff"/>
   </g>
   <g id="matplotlib.axis_1">
    <g id="xtick_1">
     <g id="text_1">
      <text style="fill: #262626; font: 36px 'sans-serif'; text-anchor: middle" x="103.663125" y="889.743125" transform="rotate(-0 103.663125 889.743125)">0.0</text>
     </g>
    </g>
    <g id="xtick_2">
     <g id="text_2">
      <text style="fill: #262626; font: 36px 'sans-serif'; text-anchor: middle" x="271.063125" y="889.743125" transform="rotate(-0 271.063125 889.743125)">0.2</text>
     </g>
    </g>
    <g id="xtick_3">
     <g id="text_3">
      <text style="fill: #262626; font: 36px 'sans-serif'; text-anchor: middle" x="438.463125" y="889.743125" transform="rotate(-0 438.463125 889.743125)">0.4</text>
     </g>
    </g>
    <g id="xtick_4">
     <g id="text_4">
      <text style="fill: #262626; font: 36px 'sans-serif'; text-anchor: middle" x="605.863125" y="889.743125" transform="rotate(-0 605.863125 889.743125)">0.6</text>
     </g>
    </g>
    <g id="xtick_5">
     <g id="text_5">
      <text style="fill: #262626; font: 36px 'sans-serif'; text-anchor: middle" x="773.263125" y="889.743125" transform="rotate(-0 773.263125 889.743125)">0.8</text>
     </g>
    </g>
    <g id="xtick_6">
     <g id="text_6">
      <text style="fill: #262626; font: 36px 'sans-serif'; text-anchor: middle" x="940.663125" y="889.743125" transform="rotate(-0 940.663125 889.743125)">1.0</text>
     </g>
    </g>
    <g id="text_7">
     <text style="fill: #262626; font: 36px 'sans-serif'; text-anchor: middle" x="522.163125" y="926.66625" transform="rotate(-0 522.163125 926.66625)">False Positive Rate</text>
    </g>
   </g>
   <g id="matplotlib.axis_2">
    <g id="ytick_1">
     <g id="text_8">
      <text style="fill: #262626; font: 36px 'sans-serif'; text-anchor: end" x="94.163125" y="867.359062" transform="rotate(-0 94.163125 867.359062)">0.0</text>
     </g>
    </g>
    <g id="ytick_2">
     <g id="text_9">
      <text style="fill: #262626; font: 36px 'sans-serif'; text-anchor: end" x="94.163125" y="704.279063" transform="rotate(-0 94.163125 704.279063)">0.2</text>
     </g>
    </g>
    <g id="ytick_3">
     <g id="text_10">
      <text style="fill: #262626; font: 36px 'sans-serif'; text-anchor: end" x="94.163125" y="541.199062" transform="rotate(-0 94.163125 541.199062)">0.4</text>
     </g>
    </g>
    <g id="ytick_4">
     <g id="text_11">
      <text style="fill: #262626; font: 36px 'sans-serif'; text-anchor: end" x="94.163125" y="378.119062" transform="rotate(-0 94.163125 378.119062)">0.6</text>
     </g>
    </g>
    <g id="ytick_5">
     <g id="text_12">
      <text style="fill: #262626; font: 36px 'sans-serif'; text-anchor: end" x="94.163125" y="215.039062" transform="rotate(-0 94.163125 215.039062)">0.8</text>
     </g>
    </g>
    <g id="ytick_6">
     <g id="text_13">
      <text style="fill: #262626; font: 36px 'sans-serif'; text-anchor: end" x="94.163125" y="51.959063" transform="rotate(-0 94.163125 51.959063)">1.0</text>
     </g>
    </g>
    <g id="text_14">
     <text style="fill: #262626; font: 36px 'sans-serif'; text-anchor: middle" x="32.968125" y="446.775" transform="rotate(-90 32.968125 446.775)">True Positive Rate</text>
    </g>
   </g>
   <g id="line2d_1">
    <path d="M 103.663125 854.475 
L 103.663125 679.746429 
L 107.66791 595.029545 
L 107.66791 526.197078 
L 111.672694 473.249026 
L 111.672694 388.532143 
L 111.672694 367.352922 
L 111.672694 324.994481 
L 111.672694 298.520455 
L 111.672694 287.930844 
L 115.677479 272.046429 
L 115.677479 229.687987 
L 115.677479 219.098377 
L 115.677479 203.213961 
L 119.682264 192.624351 
L 119.682264 171.44513 
L 119.682264 160.855519 
L 123.687048 155.560714 
L 131.696618 155.560714 
L 131.696618 150.265909 
L 135.701403 150.265909 
L 135.701403 139.676299 
L 135.701403 123.791883 
L 139.706187 123.791883 
L 143.710972 113.202273 
L 143.710972 107.907468 
L 147.715757 107.907468 
L 155.725326 97.317857 
L 155.725326 92.023052 
L 159.730111 92.023052 
L 163.734895 86.728247 
L 163.734895 81.433442 
L 195.773173 81.433442 
L 199.777958 76.138636 
L 203.782742 76.138636 
L 203.782742 70.843831 
L 211.792312 70.843831 
L 219.801881 65.549026 
L 223.806666 65.549026 
L 227.81145 60.254221 
L 235.82102 60.254221 
L 251.840158 54.959416 
L 255.844943 54.959416 
L 263.854513 54.959416 
L 279.873651 54.959416 
L 311.911929 49.66461 
L 363.97413 44.369805 
L 456.084178 44.369805 
L 940.663125 39.075 
" clip-path="url(#pc312a75765)" style="fill: none; stroke: #fde725; stroke-width: 5; stroke-linecap: round"/>
   </g>
   <g id="PathCollection_1">
    <defs>
     <path id="m6559e0652e" d="M 0 11.18034 
C 2.965061 11.18034 5.80908 10.002309 7.905694 7.905694 
C 10.002309 5.80908 11.18034 2.965061 11.18034 0 
C 11.18034 -2.965061 10.002309 -5.80908 7.905694 -7.905694 
C 5.80908 -10.002309 2.965061 -11.18034 0 -11.18034 
C -2.965061 -11.18034 -5.80908 -10.002309 -7.905694 -7.905694 
C -10.002309 -5.80908 -11.18034 -2.965061 -11.18034 0 
C -11.18034 2.965061 -10.002309 5.80908 -7.905694 7.905694 
C -5.80908 10.002309 -2.965061 11.18034 0 11.18034 
z
" style="stroke: #1a1a1a"/>
    </defs>
    <g clip-path="url(#pc312a75765)">
     <use xlink:href="#m6559e0652e" x="147.715757" y="107.907468" style="fill: #1a1a1a; stroke: #1a1a1a"/>
    </g>
   </g>
   <g id="line2d_2">
    <path d="M 103.663125 854.475 
L 111.672694 595.029545 
L 111.672694 547.376299 
L 111.672694 489.133442 
L 111.672694 441.480195 
L 111.672694 409.711364 
L 115.677479 399.121753 
L 115.677479 367.352922 
L 115.677479 330.289286 
L 119.682264 314.40487 
L 119.682264 293.225649 
L 127.691833 282.636039 
L 127.691833 266.751623 
L 127.691833 256.162013 
L 131.696618 245.572403 
L 131.696618 240.277597 
L 131.696618 229.687987 
L 135.701403 219.098377 
L 135.701403 208.508766 
L 139.706187 197.919156 
L 139.706187 187.329545 
L 139.706187 182.03474 
L 143.710972 171.44513 
L 143.710972 155.560714 
L 143.710972 144.971104 
L 147.715757 144.971104 
L 147.715757 139.676299 
L 151.720541 139.676299 
L 155.725326 134.381494 
L 155.725326 123.791883 
L 155.725326 102.612662 
L 159.730111 92.023052 
L 159.730111 86.728247 
L 163.734895 86.728247 
L 163.734895 76.138636 
L 171.744465 76.138636 
L 171.744465 65.549026 
L 179.754034 65.549026 
L 187.763603 65.549026 
L 195.773173 65.549026 
L 207.787527 49.66461 
L 215.797096 49.66461 
L 227.81145 49.66461 
L 235.82102 49.66461 
L 251.840158 49.66461 
L 259.849728 49.66461 
L 263.854513 44.369805 
L 303.902359 44.369805 
L 327.931068 44.369805 
L 392.007623 39.075 
L 484.11767 39.075 
L 940.663125 39.075 
" clip-path="url(#pc312a75765)" style="fill: none; stroke: #a5db36; stroke-width: 5; stroke-linecap: round"/>
   </g>
   <g id="PathCollection_2">
    <g clip-path="url(#pc312a75765)">
     <use xlink:href="#m6559e0652e" x="155.725326" y="113.202273" style="fill: #1a1a1a; stroke: #1a1a1a"/>
    </g>
   </g>
   <g id="line2d_3">
    <path d="M 103.663125 854.475 
L 107.66791 579.14513 
L 107.66791 520.902273 
L 107.66791 478.543831 
L 107.66791 420.300974 
L 115.677479 399.121753 
L 115.677479 367.352922 
L 119.682264 346.173701 
L 119.682264 330.289286 
L 119.682264 309.110065 
L 119.682264 287.930844 
L 123.687048 266.751623 
L 127.691833 256.162013 
L 131.696618 234.982792 
L 135.701403 229.687987 
L 135.701403 208.508766 
L 135.701403 203.213961 
L 135.701403 192.624351 
L 139.706187 182.03474 
L 139.706187 166.150325 
L 147.715757 166.150325 
L 151.720541 166.150325 
L 151.720541 155.560714 
L 151.720541 144.971104 
L 155.725326 144.971104 
L 155.725326 134.381494 
L 155.725326 123.791883 
L 155.725326 102.612662 
L 155.725326 92.023052 
L 159.730111 92.023052 
L 163.734895 86.728247 
L 171.744465 86.728247 
L 171.744465 81.433442 
L 175.749249 76.138636 
L 179.754034 76.138636 
L 179.754034 70.843831 
L 191.768388 70.843831 
L 203.782742 70.843831 
L 203.782742 65.549026 
L 211.792312 65.549026 
L 215.797096 60.254221 
L 215.797096 54.959416 
L 223.806666 54.959416 
L 239.825804 54.959416 
L 247.835374 54.959416 
L 263.854513 54.959416 
L 267.859297 54.959416 
L 283.878436 49.66461 
L 307.907144 49.66461 
L 343.950206 49.66461 
L 392.007623 44.369805 
L 460.088962 39.075 
L 940.663125 39.075 
" clip-path="url(#pc312a75765)" style="fill: none; stroke: #4ac16d; stroke-width: 5; stroke-linecap: round"/>
   </g>
   <g id="PathCollection_3">
    <g clip-path="url(#pc312a75765)">
     <use xlink:href="#m6559e0652e" x="159.730111" y="92.023052" style="fill: #1a1a1a; stroke: #1a1a1a"/>
    </g>
   </g>
   <g id="line2d_4">
    <path d="M 103.663125 854.475 
L 107.66791 616.208766 
L 107.66791 536.786688 
L 107.66791 499.723052 
L 111.672694 467.954221 
L 111.672694 404.416558 
L 111.672694 388.532143 
L 115.677479 372.647727 
L 123.687048 362.058117 
L 127.691833 346.173701 
L 127.691833 314.40487 
L 131.696618 309.110065 
L 135.701403 293.225649 
L 139.706187 272.046429 
L 139.706187 256.162013 
L 139.706187 245.572403 
L 143.710972 234.982792 
L 143.710972 224.393182 
L 147.715757 224.393182 
L 147.715757 219.098377 
L 155.725326 213.803571 
L 155.725326 192.624351 
L 155.725326 176.739935 
L 155.725326 166.150325 
L 159.730111 160.855519 
L 159.730111 155.560714 
L 163.734895 144.971104 
L 163.734895 134.381494 
L 163.734895 102.612662 
L 163.734895 92.023052 
L 163.734895 86.728247 
L 179.754034 86.728247 
L 187.763603 76.138636 
L 191.768388 76.138636 
L 207.787527 76.138636 
L 207.787527 70.843831 
L 223.806666 70.843831 
L 227.81145 65.549026 
L 235.82102 65.549026 
L 251.840158 65.549026 
L 259.849728 60.254221 
L 263.854513 60.254221 
L 279.873651 60.254221 
L 299.897575 60.254221 
L 307.907144 60.254221 
L 343.950206 60.254221 
L 367.978914 60.254221 
L 424.0459 60.254221 
L 528.170302 60.254221 
L 940.663125 39.075 
" clip-path="url(#pc312a75765)" style="fill: none; stroke: #1f988b; stroke-width: 5; stroke-linecap: round"/>
   </g>
   <g id="PathCollection_4">
    <g clip-path="url(#pc312a75765)">
     <use xlink:href="#m6559e0652e" x="163.734895" y="92.023052" style="fill: #1a1a1a; stroke: #1a1a1a"/>
    </g>
   </g>
   <g id="line2d_5">
    <path d="M 103.663125 854.475 
L 119.682264 531.491883 
L 123.687048 473.249026 
L 123.687048 446.775 
L 123.687048 383.237338 
L 123.687048 356.763312 
L 127.691833 340.878896 
L 127.691833 319.699675 
L 131.696618 298.520455 
L 131.696618 287.930844 
L 135.701403 277.341234 
L 139.706187 272.046429 
L 143.710972 250.867208 
L 143.710972 240.277597 
L 143.710972 224.393182 
L 147.715757 219.098377 
L 151.720541 219.098377 
L 155.725326 213.803571 
L 155.725326 208.508766 
L 159.730111 203.213961 
L 159.730111 171.44513 
L 159.730111 160.855519 
L 159.730111 144.971104 
L 163.734895 134.381494 
L 163.734895 113.202273 
L 171.744465 107.907468 
L 171.744465 97.317857 
L 175.749249 97.317857 
L 175.749249 86.728247 
L 183.758819 86.728247 
L 183.758819 81.433442 
L 187.763603 81.433442 
L 187.763603 76.138636 
L 195.773173 70.843831 
L 207.787527 70.843831 
L 223.806666 70.843831 
L 235.82102 70.843831 
L 239.825804 65.549026 
L 243.830589 65.549026 
L 255.844943 65.549026 
L 271.864082 65.549026 
L 275.868867 65.549026 
L 307.907144 65.549026 
L 375.988484 65.549026 
L 444.069824 60.254221 
L 940.663125 39.075 
" clip-path="url(#pc312a75765)" style="fill: none; stroke: #2a788e; stroke-width: 5; stroke-linecap: round"/>
   </g>
   <g id="PathCollection_5">
    <g clip-path="url(#pc312a75765)">
     <use xlink:href="#m6559e0652e" x="171.744465" y="102.612662" style="fill: #1a1a1a; stroke: #1a1a1a"/>
    </g>
   </g>
   <g id="line2d_6">
    <path d="M 103.663125 854.475 
L 143.710972 340.878896 
L 151.720541 314.40487 
L 151.720541 298.520455 
L 151.720541 277.341234 
L 151.720541 266.751623 
L 151.720541 234.982792 
L 151.720541 224.393182 
L 151.720541 219.098377 
L 151.720541 208.508766 
L 151.720541 197.919156 
L 159.730111 197.919156 
L 159.730111 187.329545 
L 159.730111 182.03474 
L 159.730111 171.44513 
L 163.734895 171.44513 
L 163.734895 166.150325 
L 163.734895 155.560714 
L 171.744465 155.560714 
L 171.744465 150.265909 
L 183.758819 150.265909 
L 183.758819 134.381494 
L 187.763603 118.497078 
L 191.768388 118.497078 
L 191.768388 107.907468 
L 199.777958 102.612662 
L 199.777958 92.023052 
L 207.787527 92.023052 
L 223.806666 92.023052 
L 227.81145 86.728247 
L 235.82102 86.728247 
L 239.825804 81.433442 
L 239.825804 70.843831 
L 243.830589 70.843831 
L 263.854513 70.843831 
L 940.663125 39.075 
" clip-path="url(#pc312a75765)" style="fill: none; stroke: #414487; stroke-width: 5; stroke-linecap: round"/>
   </g>
   <g id="PathCollection_6">
    <g clip-path="url(#pc312a75765)">
     <use xlink:href="#m6559e0652e" x="183.758819" y="144.971104" style="fill: #1a1a1a; stroke: #1a1a1a"/>
    </g>
   </g>
   <g id="line2d_7">
    <path d="M 103.663125 854.475 
L 107.66791 732.694481 
L 111.672694 716.810065 
L 115.677479 711.51526 
L 123.687048 695.630844 
L 127.691833 690.336039 
L 135.701403 679.746429 
L 139.706187 674.451623 
L 139.706187 663.862013 
L 139.706187 658.567208 
L 143.710972 626.798377 
L 155.725326 621.503571 
L 159.730111 610.913961 
L 179.754034 600.324351 
L 183.758819 600.324351 
L 183.758819 595.029545 
L 195.773173 595.029545 
L 211.792312 595.029545 
L 211.792312 589.73474 
L 215.797096 589.73474 
L 219.801881 584.439935 
L 223.806666 573.850325 
L 235.82102 557.965909 
L 235.82102 547.376299 
L 239.825804 536.786688 
L 239.825804 526.197078 
L 243.830589 526.197078 
L 251.840158 526.197078 
L 263.854513 520.902273 
L 267.859297 510.312662 
L 267.859297 489.133442 
L 279.873651 473.249026 
L 279.873651 462.659416 
L 283.878436 452.069805 
L 299.897575 452.069805 
L 307.907144 452.069805 
L 319.921498 446.775 
L 327.931068 446.775 
L 327.931068 436.18539 
L 327.931068 420.300974 
L 331.935852 420.300974 
L 335.940637 399.121753 
L 335.940637 393.826948 
L 339.945422 388.532143 
L 351.959776 383.237338 
L 359.969345 372.647727 
L 371.983699 367.352922 
L 375.988484 356.763312 
L 396.012407 346.173701 
L 400.017192 330.289286 
L 404.021977 330.289286 
L 412.031546 324.994481 
L 428.050685 324.994481 
L 444.069824 319.699675 
L 448.074608 319.699675 
L 456.084178 303.81526 
L 460.088962 298.520455 
L 460.088962 287.930844 
L 472.103316 287.930844 
L 480.112886 282.636039 
L 480.112886 277.341234 
L 484.11767 277.341234 
L 496.132025 266.751623 
L 500.136809 256.162013 
L 512.151163 256.162013 
L 520.160733 256.162013 
L 536.179871 240.277597 
L 552.19901 234.982792 
L 556.203795 213.803571 
L 572.222934 213.803571 
L 596.251642 208.508766 
L 604.261211 192.624351 
L 632.294704 182.03474 
L 664.332981 171.44513 
L 688.36169 155.560714 
L 940.663125 39.075 
" clip-path="url(#pc312a75765)" style="fill: none; stroke: #440154; stroke-width: 5; stroke-linecap: round"/>
   </g>
   <g id="PathCollection_7">
    <g clip-path="url(#pc312a75765)">
     <use xlink:href="#m6559e0652e" x="327.931068" y="446.775" style="fill: #1a1a1a; stroke: #1a1a1a"/>
    </g>
   </g>
   <g id="patch_3">
    <path d="M 103.663125 854.475 
L 103.663125 39.075 
" style="fill: none; stroke: #262626; stroke-width: 1.25; stroke-linejoin: miter; stroke-linecap: square"/>
   </g>
   <g id="patch_4">
    <path d="M 940.663125 854.475 
L 940.663125 39.075 
" style="fill: none; stroke: #262626; stroke-width: 1.25; stroke-linejoin: miter; stroke-linecap: square"/>
   </g>
   <g id="patch_5">
    <path d="M 103.663125 854.475 
L 940.663125 854.475 
" style="fill: none; stroke: #262626; stroke-width: 1.25; stroke-linejoin: miter; stroke-linecap: square"/>
   </g>
   <g id="patch_6">
    <path d="M 103.663125 39.075 
L 940.663125 39.075 
" style="fill: none; stroke: #262626; stroke-width: 1.25; stroke-linejoin: miter; stroke-linecap: square"/>
   </g>
   <g id="text_15">
    <text style="fill: #262626; font: 36px 'sans-serif'; text-anchor: middle" x="522.163125" y="33.075" transform="rotate(-0 522.163125 33.075)">Figure 2. Bcells</text>
   </g>
   <g id="legend_1">
    <g id="patch_7">
     <path d="M 45.163125 1327.45875 
L 787.53375 1327.45875 
Q 794.73375 1327.45875 794.73375 1320.25875 
L 794.73375 961.215 
Q 794.73375 954.015 787.53375 954.015 
L 45.163125 954.015 
Q 37.963125 954.015 37.963125 961.215 
L 37.963125 1320.25875 
Q 37.963125 1327.45875 45.163125 1327.45875 
z
" style="fill: #ffffff; opacity: 0.8; stroke: #cccccc; stroke-linejoin: miter"/>
    </g>
    <g id="line2d_8">
     <path d="M 52.363125 982.044375 
L 88.363125 982.044375 
L 124.363125 982.044375 
" style="fill: none; stroke: #fde725; stroke-width: 5; stroke-linecap: round"/>
    </g>
    <g id="text_16">
     <text style="fill: #262626; font: 36px 'sans-serif'; text-anchor: start" x="153.163125" y="994.644375" transform="rotate(-0 153.163125 994.644375)">All variables (ROC AUC = 0.98)</text>
    </g>
    <g id="line2d_9">
     <path d="M 52.363125 1033.850625 
L 88.363125 1033.850625 
L 124.363125 1033.850625 
" style="fill: none; stroke: #a5db36; stroke-width: 5; stroke-linecap: round"/>
    </g>
    <g id="text_17">
     <text style="fill: #262626; font: 36px 'sans-serif'; text-anchor: start" x="153.163125" y="1046.450625" transform="rotate(-0 153.163125 1046.450625)">NAD(P)H variables (ROC AUC = 0.98)</text>
    </g>
    <g id="line2d_10">
     <path d="M 52.363125 1085.656875 
L 88.363125 1085.656875 
L 124.363125 1085.656875 
" style="fill: none; stroke: #4ac16d; stroke-width: 5; stroke-linecap: round"/>
    </g>
    <g id="text_18">
     <text style="fill: #262626; font: 36px 'sans-serif'; text-anchor: start" x="153.163125" y="1098.256875" transform="rotate(-0 153.163125 1098.256875)">Top four variables (ROC AUC) = 0.97)</text>
    </g>
    <g id="line2d_11">
     <path d="M 52.363125 1137.463125 
L 88.363125 1137.463125 
L 124.363125 1137.463125 
" style="fill: none; stroke: #1f988b; stroke-width: 5; stroke-linecap: round"/>
    </g>
    <g id="text_19">
     <text style="fill: #262626; font: 36px 'sans-serif'; text-anchor: start" x="153.163125" y="1150.063125" transform="rotate(-0 153.163125 1150.063125)">Top three variables (ROC AUC) = 0.96)</text>
    </g>
    <g id="line2d_12">
     <path d="M 52.363125 1189.269375 
L 88.363125 1189.269375 
L 124.363125 1189.269375 
" style="fill: none; stroke: #2a788e; stroke-width: 5; stroke-linecap: round"/>
    </g>
    <g id="text_20">
     <text style="fill: #262626; font: 36px 'sans-serif'; text-anchor: start" x="153.163125" y="1201.869375" transform="rotate(-0 153.163125 1201.869375)">Top two variables (ROC AUC) = 0.95)</text>
    </g>
    <g id="line2d_13">
     <path d="M 52.363125 1241.075625 
L 88.363125 1241.075625 
L 124.363125 1241.075625 
" style="fill: none; stroke: #414487; stroke-width: 5; stroke-linecap: round"/>
    </g>
    <g id="text_21">
     <text style="fill: #262626; font: 36px 'sans-serif'; text-anchor: start" x="153.163125" y="1253.675625" transform="rotate(-0 153.163125 1253.675625)">Top variable (ROC AUC) = 0.94)</text>
    </g>
    <g id="line2d_14">
     <path d="M 52.363125 1292.881875 
L 88.363125 1292.881875 
L 124.363125 1292.881875 
" style="fill: none; stroke: #440154; stroke-width: 5; stroke-linecap: round"/>
    </g>
    <g id="text_22">
     <text style="fill: #262626; font: 36px 'sans-serif'; text-anchor: start" x="153.163125" y="1305.481875" transform="rotate(-0 153.163125 1305.481875)">Norm. Redox Ratio (ROC AUC) = 0.68)</text>
    </g>
   </g>
  </g>
 </g>
 <defs>
  <clipPath id="pc312a75765">
   <rect x="103.663125" y="39.075" width="837" height="815.4"/>
  </clipPath>
 </defs>
</svg>
