<?xml version="1.0" encoding="utf-8" standalone="no"?>
<!DOCTYPE svg PUBLIC "-//W3C//DTD SVG 1.1//EN"
  "http://www.w3.org/Graphics/SVG/1.1/DTD/svg11.dtd">
<svg xmlns:xlink="http://www.w3.org/1999/xlink" width="972.883125pt" height="1283.184375pt" viewBox="0 0 972.883125 1283.184375" xmlns="http://www.w3.org/2000/svg" version="1.1">
 <metadata>
  <rdf:RDF xmlns:dc="http://purl.org/dc/elements/1.1/" xmlns:cc="http://creativecommons.org/ns#" xmlns:rdf="http://www.w3.org/1999/02/22-rdf-syntax-ns#">
   <cc:Work>
    <dc:type rdf:resource="http://purl.org/dc/dcmitype/StillImage"/>
    <dc:date>2023-01-04T10:52:40.369652</dc:date>
    <dc:format>image/svg+xml</dc:format>
    <dc:creator>
     <cc:Agent>
      <dc:title>Matplotlib v3.6.0, https://matplotlib.org/</dc:title>
     </cc:Agent>
    </dc:creator>
   </cc:Work>
  </rdf:RDF>
 </metadata>
 <defs>
  <style type="text/css">*{stroke-linejoin: round; stroke-linecap: butt}</style>
 </defs>
 <g id="figure_1">
  <g id="patch_1">
   <path d="M 0 1283.184375 
L 972.883125 1283.184375 
L 972.883125 0 
L 0 0 
z
" style="fill: #ffffff"/>
  </g>
  <g id="axes_1">
   <g id="patch_2">
    <path d="M 103.663125 854.806875 
L 940.663125 854.806875 
L 940.663125 39.406875 
L 103.663125 39.406875 
z
" style="fill: #ffffff"/>
   </g>
   <g id="matplotlib.axis_1">
    <g id="xtick_1">
     <g id="text_1">
      <text style="fill: #262626; font: 36px 'sans-serif'; text-anchor: middle" x="103.663125" y="890.075" transform="rotate(-0 103.663125 890.075)">0.0</text>
     </g>
    </g>
    <g id="xtick_2">
     <g id="text_2">
      <text style="fill: #262626; font: 36px 'sans-serif'; text-anchor: middle" x="271.063125" y="890.075" transform="rotate(-0 271.063125 890.075)">0.2</text>
     </g>
    </g>
    <g id="xtick_3">
     <g id="text_3">
      <text style="fill: #262626; font: 36px 'sans-serif'; text-anchor: middle" x="438.463125" y="890.075" transform="rotate(-0 438.463125 890.075)">0.4</text>
     </g>
    </g>
    <g id="xtick_4">
     <g id="text_4">
      <text style="fill: #262626; font: 36px 'sans-serif'; text-anchor: middle" x="605.863125" y="890.075" transform="rotate(-0 605.863125 890.075)">0.6</text>
     </g>
    </g>
    <g id="xtick_5">
     <g id="text_5">
      <text style="fill: #262626; font: 36px 'sans-serif'; text-anchor: middle" x="773.263125" y="890.075" transform="rotate(-0 773.263125 890.075)">0.8</text>
     </g>
    </g>
    <g id="xtick_6">
     <g id="text_6">
      <text style="fill: #262626; font: 36px 'sans-serif'; text-anchor: middle" x="940.663125" y="890.075" transform="rotate(-0 940.663125 890.075)">1.0</text>
     </g>
    </g>
    <g id="text_7">
     <text style="fill: #262626; font: 36px 'sans-serif'; text-anchor: middle" x="522.163125" y="926.998125" transform="rotate(-0 522.163125 926.998125)">False Positive Rate</text>
    </g>
   </g>
   <g id="matplotlib.axis_2">
    <g id="ytick_1">
     <g id="text_8">
      <text style="fill: #262626; font: 36px 'sans-serif'; text-anchor: end" x="94.163125" y="867.690937" transform="rotate(-0 94.163125 867.690937)">0.0</text>
     </g>
    </g>
    <g id="ytick_2">
     <g id="text_9">
      <text style="fill: #262626; font: 36px 'sans-serif'; text-anchor: end" x="94.163125" y="704.610937" transform="rotate(-0 94.163125 704.610937)">0.2</text>
     </g>
    </g>
    <g id="ytick_3">
     <g id="text_10">
      <text style="fill: #262626; font: 36px 'sans-serif'; text-anchor: end" x="94.163125" y="541.530937" transform="rotate(-0 94.163125 541.530937)">0.4</text>
     </g>
    </g>
    <g id="ytick_4">
     <g id="text_11">
      <text style="fill: #262626; font: 36px 'sans-serif'; text-anchor: end" x="94.163125" y="378.450937" transform="rotate(-0 94.163125 378.450937)">0.6</text>
     </g>
    </g>
    <g id="ytick_5">
     <g id="text_12">
      <text style="fill: #262626; font: 36px 'sans-serif'; text-anchor: end" x="94.163125" y="215.370937" transform="rotate(-0 94.163125 215.370937)">0.8</text>
     </g>
    </g>
    <g id="ytick_6">
     <g id="text_13">
      <text style="fill: #262626; font: 36px 'sans-serif'; text-anchor: end" x="94.163125" y="52.290937" transform="rotate(-0 94.163125 52.290937)">1.0</text>
     </g>
    </g>
    <g id="text_14">
     <text style="fill: #262626; font: 36px 'sans-serif'; text-anchor: middle" x="32.968125" y="447.106875" transform="rotate(-90 32.968125 447.106875)">True Positive Rate</text>
    </g>
   </g>
   <g id="line2d_1">
    <path d="M 103.663125 854.806875 
L 103.663125 762.497441 
L 103.663125 695.829517 
L 103.663125 644.546498 
L 103.663125 608.648384 
L 103.663125 567.621969 
L 103.663125 516.33895 
L 103.663125 485.569139 
L 107.687163 454.799328 
L 107.687163 429.157818 
L 107.687163 398.388007 
L 107.687163 383.003101 
L 107.687163 321.463479 
L 107.687163 306.078573 
L 107.687163 295.821969 
L 111.711202 285.565366 
L 111.711202 275.308762 
L 115.73524 270.18046 
L 115.73524 259.923856 
L 119.759279 249.667252 
L 119.759279 234.282347 
L 119.759279 213.769139 
L 119.759279 208.640837 
L 119.759279 198.384233 
L 119.759279 182.999328 
L 123.783317 182.999328 
L 127.807356 172.742724 
L 127.807356 162.48612 
L 131.831394 157.357818 
L 131.831394 152.229517 
L 131.831394 136.844611 
L 135.855433 136.844611 
L 135.855433 131.716309 
L 135.855433 121.459705 
L 139.879471 121.459705 
L 147.927548 121.459705 
L 147.927548 116.331403 
L 155.975625 116.331403 
L 164.023702 116.331403 
L 168.04774 106.0748 
L 172.071779 106.0748 
L 176.095817 100.946498 
L 192.191971 100.946498 
L 200.240048 95.818196 
L 208.288125 95.818196 
L 208.288125 80.43329 
L 212.312163 75.304988 
L 216.336202 75.304988 
L 224.384279 70.176686 
L 236.456394 70.176686 
L 252.552548 70.176686 
L 264.624663 70.176686 
L 272.67274 70.176686 
L 288.768894 70.176686 
L 300.84101 70.176686 
L 304.865048 70.176686 
L 329.009279 70.176686 
L 337.057356 70.176686 
L 349.129471 70.176686 
L 357.177548 70.176686 
L 361.201587 70.176686 
L 385.345817 70.176686 
L 389.369856 65.048384 
L 405.46601 65.048384 
L 429.61024 65.048384 
L 449.730433 65.048384 
L 493.994856 65.048384 
L 518.139087 65.048384 
L 546.307356 65.048384 
L 558.379471 59.920083 
L 610.691971 59.920083 
L 646.908317 54.791781 
L 691.17274 49.663479 
L 719.34101 49.663479 
L 751.533317 49.663479 
L 799.821779 49.663479 
L 840.062163 49.663479 
L 888.350625 39.406875 
L 912.494856 39.406875 
L 940.663125 39.406875 
" clip-path="url(#p432cc7b3ff)" style="fill: none; stroke: #fde725; stroke-width: 5; stroke-linecap: round"/>
   </g>
   <g id="PathCollection_1">
    <defs>
     <path id="m0466e63da1" d="M 0 11.18034 
C 2.965061 11.18034 5.80908 10.002309 7.905694 7.905694 
C 10.002309 5.80908 11.18034 2.965061 11.18034 0 
C 11.18034 -2.965061 10.002309 -5.80908 7.905694 -7.905694 
C 5.80908 -10.002309 2.965061 -11.18034 0 -11.18034 
C -2.965061 -11.18034 -5.80908 -10.002309 -7.905694 -7.905694 
C -10.002309 -5.80908 -11.18034 -2.965061 -11.18034 0 
C -11.18034 2.965061 -10.002309 5.80908 -7.905694 7.905694 
C -5.80908 10.002309 -2.965061 11.18034 0 11.18034 
z
" style="stroke: #1a1a1a"/>
    </defs>
    <g clip-path="url(#p432cc7b3ff)">
     <use xlink:href="#m0466e63da1" x="151.951587" y="116.331403" style="fill: #1a1a1a; stroke: #1a1a1a"/>
    </g>
   </g>
   <g id="line2d_2">
    <path d="M 103.663125 854.806875 
L 103.663125 624.03329 
L 103.663125 516.33895 
L 107.687163 485.569139 
L 111.711202 449.671026 
L 111.711202 429.157818 
L 115.73524 403.516309 
L 115.73524 393.259705 
L 119.759279 383.003101 
L 119.759279 377.8748 
L 123.783317 367.618196 
L 123.783317 357.361592 
L 127.807356 347.104988 
L 127.807356 331.720083 
L 135.855433 321.463479 
L 135.855433 316.335177 
L 135.855433 290.693667 
L 135.855433 285.565366 
L 135.855433 265.052158 
L 135.855433 249.667252 
L 135.855433 244.53895 
L 139.879471 234.282347 
L 139.879471 218.897441 
L 139.879471 208.640837 
L 139.879471 193.255932 
L 139.879471 182.999328 
L 143.90351 172.742724 
L 147.927548 157.357818 
L 147.927548 136.844611 
L 147.927548 126.588007 
L 155.975625 126.588007 
L 159.999663 126.588007 
L 159.999663 121.459705 
L 168.04774 116.331403 
L 168.04774 111.203101 
L 172.071779 111.203101 
L 176.095817 106.0748 
L 180.119856 106.0748 
L 180.119856 100.946498 
L 184.143894 95.818196 
L 188.167933 95.818196 
L 204.264087 95.818196 
L 208.288125 95.818196 
L 220.36024 95.818196 
L 224.384279 95.818196 
L 224.384279 90.689894 
L 228.408317 90.689894 
L 236.456394 90.689894 
L 248.52851 90.689894 
L 256.576587 90.689894 
L 256.576587 80.43329 
L 264.624663 75.304988 
L 268.648702 75.304988 
L 284.744856 75.304988 
L 296.816971 70.176686 
L 316.937163 70.176686 
L 320.961202 70.176686 
L 329.009279 70.176686 
L 337.057356 70.176686 
L 345.105433 70.176686 
L 349.129471 65.048384 
L 357.177548 65.048384 
L 361.201587 65.048384 
L 377.29774 65.048384 
L 389.369856 59.920083 
L 413.514087 59.920083 
L 429.61024 59.920083 
L 465.826587 59.920083 
L 485.946779 59.920083 
L 493.994856 59.920083 
L 510.09101 59.920083 
L 534.23524 54.791781 
L 546.307356 54.791781 
L 590.571779 49.663479 
L 638.86024 49.663479 
L 675.076587 44.535177 
L 731.413125 44.535177 
L 823.96601 44.535177 
L 940.663125 39.406875 
" clip-path="url(#p432cc7b3ff)" style="fill: none; stroke: #a5db36; stroke-width: 5; stroke-linecap: round"/>
   </g>
   <g id="PathCollection_2">
    <g clip-path="url(#p432cc7b3ff)">
     <use xlink:href="#m0466e63da1" x="176.095817" y="106.0748" style="fill: #1a1a1a; stroke: #1a1a1a"/>
    </g>
   </g>
   <g id="line2d_3">
    <path d="M 103.663125 854.806875 
L 103.663125 670.188007 
L 103.663125 557.365366 
L 103.663125 500.954045 
L 103.663125 449.671026 
L 103.663125 424.029517 
L 103.663125 393.259705 
L 103.663125 388.131403 
L 107.687163 372.746498 
L 107.687163 362.489894 
L 107.687163 331.720083 
L 107.687163 316.335177 
L 107.687163 295.821969 
L 111.711202 295.821969 
L 115.73524 285.565366 
L 115.73524 275.308762 
L 115.73524 265.052158 
L 119.759279 249.667252 
L 119.759279 244.53895 
L 119.759279 229.154045 
L 119.759279 224.025743 
L 123.783317 224.025743 
L 123.783317 213.769139 
L 123.783317 188.12763 
L 127.807356 188.12763 
L 127.807356 182.999328 
L 127.807356 162.48612 
L 131.831394 162.48612 
L 131.831394 141.972913 
L 135.855433 126.588007 
L 139.879471 121.459705 
L 139.879471 116.331403 
L 147.927548 116.331403 
L 155.975625 116.331403 
L 159.999663 111.203101 
L 159.999663 100.946498 
L 164.023702 100.946498 
L 172.071779 95.818196 
L 176.095817 95.818196 
L 180.119856 85.561592 
L 184.143894 85.561592 
L 188.167933 80.43329 
L 188.167933 75.304988 
L 196.21601 75.304988 
L 212.312163 75.304988 
L 216.336202 75.304988 
L 232.432356 75.304988 
L 244.504471 75.304988 
L 248.52851 75.304988 
L 264.624663 75.304988 
L 272.67274 75.304988 
L 276.696779 75.304988 
L 284.744856 75.304988 
L 292.792933 70.176686 
L 296.816971 70.176686 
L 304.865048 65.048384 
L 316.937163 65.048384 
L 324.98524 65.048384 
L 341.081394 65.048384 
L 357.177548 59.920083 
L 361.201587 59.920083 
L 377.29774 59.920083 
L 397.417933 59.920083 
L 413.514087 54.791781 
L 445.706394 54.791781 
L 518.139087 54.791781 
L 538.259279 54.791781 
L 618.740048 54.791781 
L 650.932356 54.791781 
L 691.17274 54.791781 
L 747.509279 49.663479 
L 795.79774 44.535177 
L 860.182356 44.535177 
L 900.42274 44.535177 
L 940.663125 39.406875 
" clip-path="url(#p432cc7b3ff)" style="fill: none; stroke: #4ac16d; stroke-width: 5; stroke-linecap: round"/>
   </g>
   <g id="PathCollection_3">
    <g clip-path="url(#p432cc7b3ff)">
     <use xlink:href="#m0466e63da1" x="172.071779" y="95.818196" style="fill: #1a1a1a; stroke: #1a1a1a"/>
    </g>
   </g>
   <g id="line2d_4">
    <path d="M 103.663125 854.806875 
L 103.663125 777.882347 
L 103.663125 711.214422 
L 103.663125 665.059705 
L 103.663125 598.391781 
L 103.663125 526.595554 
L 103.663125 470.184233 
L 107.687163 449.671026 
L 115.73524 418.901215 
L 115.73524 408.644611 
L 115.73524 383.003101 
L 115.73524 372.746498 
L 115.73524 352.23329 
L 119.759279 336.848384 
L 123.783317 311.206875 
L 123.783317 290.693667 
L 123.783317 285.565366 
L 123.783317 270.18046 
L 123.783317 259.923856 
L 123.783317 249.667252 
L 123.783317 244.53895 
L 123.783317 234.282347 
L 131.831394 229.154045 
L 135.855433 229.154045 
L 135.855433 218.897441 
L 139.879471 213.769139 
L 139.879471 203.512535 
L 147.927548 203.512535 
L 151.951587 198.384233 
L 151.951587 188.12763 
L 155.975625 188.12763 
L 155.975625 172.742724 
L 159.999663 167.614422 
L 168.04774 167.614422 
L 172.071779 162.48612 
L 176.095817 152.229517 
L 180.119856 147.101215 
L 184.143894 147.101215 
L 184.143894 136.844611 
L 196.21601 136.844611 
L 204.264087 131.716309 
L 208.288125 126.588007 
L 216.336202 116.331403 
L 224.384279 116.331403 
L 236.456394 116.331403 
L 240.480433 116.331403 
L 240.480433 111.203101 
L 248.52851 111.203101 
L 252.552548 111.203101 
L 256.576587 106.0748 
L 256.576587 95.818196 
L 276.696779 95.818196 
L 280.720817 95.818196 
L 284.744856 90.689894 
L 300.84101 90.689894 
L 308.889087 90.689894 
L 312.913125 90.689894 
L 329.009279 90.689894 
L 333.033317 90.689894 
L 341.081394 80.43329 
L 345.105433 80.43329 
L 357.177548 80.43329 
L 373.273702 80.43329 
L 401.441971 80.43329 
L 405.46601 80.43329 
L 425.586202 80.43329 
L 429.61024 75.304988 
L 449.730433 70.176686 
L 477.898702 65.048384 
L 481.92274 65.048384 
L 522.163125 54.791781 
L 550.331394 49.663479 
L 570.451587 49.663479 
L 602.643894 49.663479 
L 650.932356 49.663479 
L 687.148702 49.663479 
L 799.821779 39.406875 
L 852.134279 39.406875 
L 876.27851 39.406875 
L 924.566971 39.406875 
L 940.663125 39.406875 
" clip-path="url(#p432cc7b3ff)" style="fill: none; stroke: #1f988b; stroke-width: 5; stroke-linecap: round"/>
   </g>
   <g id="PathCollection_4">
    <g clip-path="url(#p432cc7b3ff)">
     <use xlink:href="#m0466e63da1" x="184.143894" y="136.844611" style="fill: #1a1a1a; stroke: #1a1a1a"/>
    </g>
   </g>
   <g id="line2d_5">
    <path d="M 103.663125 854.806875 
L 103.663125 777.882347 
L 107.687163 736.855932 
L 111.711202 711.214422 
L 111.711202 700.957818 
L 111.711202 685.572913 
L 115.73524 665.059705 
L 115.73524 659.931403 
L 119.759279 649.6748 
L 119.759279 644.546498 
L 119.759279 629.161592 
L 127.807356 629.161592 
L 131.831394 629.161592 
L 131.831394 598.391781 
L 131.831394 577.878573 
L 135.855433 557.365366 
L 143.90351 516.33895 
L 143.90351 485.569139 
L 143.90351 475.312535 
L 147.927548 459.92763 
L 147.927548 444.542724 
L 155.975625 434.28612 
L 159.999663 424.029517 
L 159.999663 393.259705 
L 159.999663 367.618196 
L 168.04774 347.104988 
L 168.04774 331.720083 
L 172.071779 331.720083 
L 180.119856 321.463479 
L 184.143894 321.463479 
L 188.167933 311.206875 
L 192.191971 306.078573 
L 200.240048 280.437064 
L 200.240048 270.18046 
L 220.36024 265.052158 
L 220.36024 244.53895 
L 224.384279 234.282347 
L 236.456394 234.282347 
L 248.52851 218.897441 
L 248.52851 208.640837 
L 256.576587 203.512535 
L 256.576587 198.384233 
L 264.624663 188.12763 
L 272.67274 182.999328 
L 272.67274 167.614422 
L 280.720817 167.614422 
L 280.720817 157.357818 
L 288.768894 157.357818 
L 292.792933 157.357818 
L 300.84101 152.229517 
L 312.913125 152.229517 
L 320.961202 147.101215 
L 324.98524 141.972913 
L 329.009279 141.972913 
L 333.033317 136.844611 
L 337.057356 136.844611 
L 341.081394 131.716309 
L 341.081394 126.588007 
L 349.129471 126.588007 
L 353.15351 121.459705 
L 365.225625 121.459705 
L 369.249663 111.203101 
L 381.321779 106.0748 
L 393.393894 106.0748 
L 409.490048 95.818196 
L 409.490048 90.689894 
L 425.586202 90.689894 
L 449.730433 90.689894 
L 465.826587 80.43329 
L 477.898702 70.176686 
L 498.018894 70.176686 
L 510.09101 65.048384 
L 518.139087 65.048384 
L 530.211202 59.920083 
L 550.331394 59.920083 
L 578.499663 49.663479 
L 586.54774 49.663479 
L 602.643894 49.663479 
L 610.691971 49.663479 
L 622.764087 49.663479 
L 638.86024 49.663479 
L 663.004471 44.535177 
L 695.196779 39.406875 
L 731.413125 39.406875 
L 811.893894 39.406875 
L 880.302548 39.406875 
L 940.663125 39.406875 
" clip-path="url(#p432cc7b3ff)" style="fill: none; stroke: #2a788e; stroke-width: 5; stroke-linecap: round"/>
   </g>
   <g id="PathCollection_5">
    <g clip-path="url(#p432cc7b3ff)">
     <use xlink:href="#m0466e63da1" x="264.624663" y="188.12763" style="fill: #1a1a1a; stroke: #1a1a1a"/>
    </g>
   </g>
   <g id="line2d_6">
    <path d="M 103.663125 854.806875 
L 119.759279 711.214422 
L 131.831394 680.444611 
L 135.855433 654.803101 
L 143.90351 629.161592 
L 143.90351 618.904988 
L 143.90351 588.135177 
L 151.951587 588.135177 
L 155.975625 583.006875 
L 159.999663 583.006875 
L 172.071779 572.750271 
L 184.143894 567.621969 
L 184.143894 557.365366 
L 188.167933 547.108762 
L 192.191971 541.98046 
L 192.191971 536.852158 
L 200.240048 536.852158 
L 204.264087 531.723856 
L 212.312163 521.467252 
L 236.456394 500.954045 
L 244.504471 470.184233 
L 252.552548 470.184233 
L 252.552548 465.055932 
L 264.624663 454.799328 
L 264.624663 444.542724 
L 264.624663 439.414422 
L 292.792933 424.029517 
L 308.889087 418.901215 
L 320.961202 418.901215 
L 324.98524 403.516309 
L 345.105433 398.388007 
L 353.15351 398.388007 
L 361.201587 388.131403 
L 373.273702 388.131403 
L 389.369856 388.131403 
L 401.441971 388.131403 
L 401.441971 377.8748 
L 405.46601 377.8748 
L 413.514087 367.618196 
L 421.562163 362.489894 
L 437.658317 352.23329 
L 441.682356 352.23329 
L 453.754471 341.976686 
L 457.77851 326.591781 
L 465.826587 321.463479 
L 473.874663 311.206875 
L 473.874663 306.078573 
L 477.898702 306.078573 
L 485.946779 306.078573 
L 498.018894 275.308762 
L 506.066971 259.923856 
L 518.139087 249.667252 
L 518.139087 244.53895 
L 530.211202 224.025743 
L 542.283317 208.640837 
L 542.283317 198.384233 
L 558.379471 198.384233 
L 570.451587 198.384233 
L 574.475625 188.12763 
L 574.475625 182.999328 
L 586.54774 167.614422 
L 602.643894 147.101215 
L 610.691971 147.101215 
L 614.71601 141.972913 
L 626.788125 141.972913 
L 642.884279 141.972913 
L 663.004471 136.844611 
L 667.02851 121.459705 
L 683.124663 121.459705 
L 695.196779 116.331403 
L 711.292933 106.0748 
L 715.316971 80.43329 
L 739.461202 80.43329 
L 795.79774 59.920083 
L 940.663125 39.406875 
" clip-path="url(#p432cc7b3ff)" style="fill: none; stroke: #414487; stroke-width: 5; stroke-linecap: round"/>
   </g>
   <g id="PathCollection_6">
    <g clip-path="url(#p432cc7b3ff)">
     <use xlink:href="#m0466e63da1" x="401.441971" y="383.003101" style="fill: #1a1a1a; stroke: #1a1a1a"/>
    </g>
   </g>
   <g id="patch_3">
    <path d="M 103.663125 854.806875 
L 103.663125 39.406875 
" style="fill: none; stroke: #262626; stroke-width: 1.25; stroke-linejoin: miter; stroke-linecap: square"/>
   </g>
   <g id="patch_4">
    <path d="M 940.663125 854.806875 
L 940.663125 39.406875 
" style="fill: none; stroke: #262626; stroke-width: 1.25; stroke-linejoin: miter; stroke-linecap: square"/>
   </g>
   <g id="patch_5">
    <path d="M 103.663125 854.806875 
L 940.663125 854.806875 
" style="fill: none; stroke: #262626; stroke-width: 1.25; stroke-linejoin: miter; stroke-linecap: square"/>
   </g>
   <g id="patch_6">
    <path d="M 103.663125 39.406875 
L 940.663125 39.406875 
" style="fill: none; stroke: #262626; stroke-width: 1.25; stroke-linejoin: miter; stroke-linecap: square"/>
   </g>
   <g id="text_15">
    <text style="fill: #262626; font: 36px 'sans-serif'; text-anchor: middle" x="522.163125" y="33.406875" transform="rotate(-0 522.163125 33.406875)">Figure 4. NK Cells</text>
   </g>
   <g id="legend_1">
    <g id="patch_7">
     <path d="M 45.163125 1275.984375 
L 785.57625 1275.984375 
Q 792.77625 1275.984375 792.77625 1268.784375 
L 792.77625 961.546875 
Q 792.77625 954.346875 785.57625 954.346875 
L 45.163125 954.346875 
Q 37.963125 954.346875 37.963125 961.546875 
L 37.963125 1268.784375 
Q 37.963125 1275.984375 45.163125 1275.984375 
z
" style="fill: #ffffff; opacity: 0.8; stroke: #cccccc; stroke-linejoin: miter"/>
    </g>
    <g id="line2d_7">
     <path d="M 52.363125 982.37625 
L 88.363125 982.37625 
L 124.363125 982.37625 
" style="fill: none; stroke: #fde725; stroke-width: 5; stroke-linecap: round"/>
    </g>
    <g id="text_16">
     <text style="fill: #262626; font: 36px 'sans-serif'; text-anchor: start" x="153.163125" y="994.97625" transform="rotate(-0 153.163125 994.97625)">All variables (ROC AUC = 0.96)</text>
    </g>
    <g id="line2d_8">
     <path d="M 52.363125 1034.1825 
L 88.363125 1034.1825 
L 124.363125 1034.1825 
" style="fill: none; stroke: #a5db36; stroke-width: 5; stroke-linecap: round"/>
    </g>
    <g id="text_17">
     <text style="fill: #262626; font: 36px 'sans-serif'; text-anchor: start" x="153.163125" y="1046.7825" transform="rotate(-0 153.163125 1046.7825)">NAD(P)H variables (ROC AUC = 0.96)</text>
    </g>
    <g id="line2d_9">
     <path d="M 52.363125 1085.98875 
L 88.363125 1085.98875 
L 124.363125 1085.98875 
" style="fill: none; stroke: #4ac16d; stroke-width: 5; stroke-linecap: round"/>
    </g>
    <g id="text_18">
     <text style="fill: #262626; font: 36px 'sans-serif'; text-anchor: start" x="153.163125" y="1098.58875" transform="rotate(-0 153.163125 1098.58875)">Top four variables (ROC AUC) = 0.97)</text>
    </g>
    <g id="line2d_10">
     <path d="M 52.363125 1137.795 
L 88.363125 1137.795 
L 124.363125 1137.795 
" style="fill: none; stroke: #1f988b; stroke-width: 5; stroke-linecap: round"/>
    </g>
    <g id="text_19">
     <text style="fill: #262626; font: 36px 'sans-serif'; text-anchor: start" x="153.163125" y="1150.395" transform="rotate(-0 153.163125 1150.395)">Top three variables (ROC AUC) = 0.95)</text>
    </g>
    <g id="line2d_11">
     <path d="M 52.363125 1189.60125 
L 88.363125 1189.60125 
L 124.363125 1189.60125 
" style="fill: none; stroke: #2a788e; stroke-width: 5; stroke-linecap: round"/>
    </g>
    <g id="text_20">
     <text style="fill: #262626; font: 36px 'sans-serif'; text-anchor: start" x="153.163125" y="1202.20125" transform="rotate(-0 153.163125 1202.20125)">Top two variables (ROC AUC) = 0.89)</text>
    </g>
    <g id="line2d_12">
     <path d="M 52.363125 1241.4075 
L 88.363125 1241.4075 
L 124.363125 1241.4075 
" style="fill: none; stroke: #414487; stroke-width: 5; stroke-linecap: round"/>
    </g>
    <g id="text_21">
     <text style="fill: #262626; font: 36px 'sans-serif'; text-anchor: start" x="153.163125" y="1254.0075" transform="rotate(-0 153.163125 1254.0075)">Top variable (ROC AUC) = 0.71)</text>
    </g>
   </g>
  </g>
 </g>
 <defs>
  <clipPath id="p432cc7b3ff">
   <rect x="103.663125" y="39.406875" width="837" height="815.4"/>
  </clipPath>
 </defs>
</svg>
