<?xml version="1.0" encoding="utf-8" standalone="no"?>
<!DOCTYPE svg PUBLIC "-//W3C//DTD SVG 1.1//EN"
  "http://www.w3.org/Graphics/SVG/1.1/DTD/svg11.dtd">
<svg xmlns:xlink="http://www.w3.org/1999/xlink" width="972.883125pt" height="1334.990625pt" viewBox="0 0 972.883125 1334.990625" xmlns="http://www.w3.org/2000/svg" version="1.1">
 <metadata>
  <rdf:RDF xmlns:dc="http://purl.org/dc/elements/1.1/" xmlns:cc="http://creativecommons.org/ns#" xmlns:rdf="http://www.w3.org/1999/02/22-rdf-syntax-ns#">
   <cc:Work>
    <dc:type rdf:resource="http://purl.org/dc/dcmitype/StillImage"/>
    <dc:date>2023-01-12T15:28:32.439743</dc:date>
    <dc:format>image/svg+xml</dc:format>
    <dc:creator>
     <cc:Agent>
      <dc:title>Matplotlib v3.6.0, https://matplotlib.org/</dc:title>
     </cc:Agent>
    </dc:creator>
   </cc:Work>
  </rdf:RDF>
 </metadata>
 <defs>
  <style type="text/css">*{stroke-linejoin: round; stroke-linecap: butt}</style>
 </defs>
 <g id="figure_1">
  <g id="patch_1">
   <path d="M 0 1334.990625 
L 972.883125 1334.990625 
L 972.883125 0 
L 0 0 
z
" style="fill: #ffffff"/>
  </g>
  <g id="axes_1">
   <g id="patch_2">
    <path d="M 103.663125 854.806875 
L 940.663125 854.806875 
L 940.663125 39.406875 
L 103.663125 39.406875 
z
" style="fill: #ffffff"/>
   </g>
   <g id="matplotlib.axis_1">
    <g id="xtick_1">
     <g id="text_1">
      <text style="fill: #262626; font: 36px 'sans-serif'; text-anchor: middle" x="103.663125" y="890.075" transform="rotate(-0 103.663125 890.075)">0.0</text>
     </g>
    </g>
    <g id="xtick_2">
     <g id="text_2">
      <text style="fill: #262626; font: 36px 'sans-serif'; text-anchor: middle" x="271.063125" y="890.075" transform="rotate(-0 271.063125 890.075)">0.2</text>
     </g>
    </g>
    <g id="xtick_3">
     <g id="text_3">
      <text style="fill: #262626; font: 36px 'sans-serif'; text-anchor: middle" x="438.463125" y="890.075" transform="rotate(-0 438.463125 890.075)">0.4</text>
     </g>
    </g>
    <g id="xtick_4">
     <g id="text_4">
      <text style="fill: #262626; font: 36px 'sans-serif'; text-anchor: middle" x="605.863125" y="890.075" transform="rotate(-0 605.863125 890.075)">0.6</text>
     </g>
    </g>
    <g id="xtick_5">
     <g id="text_5">
      <text style="fill: #262626; font: 36px 'sans-serif'; text-anchor: middle" x="773.263125" y="890.075" transform="rotate(-0 773.263125 890.075)">0.8</text>
     </g>
    </g>
    <g id="xtick_6">
     <g id="text_6">
      <text style="fill: #262626; font: 36px 'sans-serif'; text-anchor: middle" x="940.663125" y="890.075" transform="rotate(-0 940.663125 890.075)">1.0</text>
     </g>
    </g>
    <g id="text_7">
     <text style="fill: #262626; font: 36px 'sans-serif'; text-anchor: middle" x="522.163125" y="926.998125" transform="rotate(-0 522.163125 926.998125)">False Positive Rate</text>
    </g>
   </g>
   <g id="matplotlib.axis_2">
    <g id="ytick_1">
     <g id="text_8">
      <text style="fill: #262626; font: 36px 'sans-serif'; text-anchor: end" x="94.163125" y="867.690938" transform="rotate(-0 94.163125 867.690938)">0.0</text>
     </g>
    </g>
    <g id="ytick_2">
     <g id="text_9">
      <text style="fill: #262626; font: 36px 'sans-serif'; text-anchor: end" x="94.163125" y="704.610938" transform="rotate(-0 94.163125 704.610938)">0.2</text>
     </g>
    </g>
    <g id="ytick_3">
     <g id="text_10">
      <text style="fill: #262626; font: 36px 'sans-serif'; text-anchor: end" x="94.163125" y="541.530938" transform="rotate(-0 94.163125 541.530938)">0.4</text>
     </g>
    </g>
    <g id="ytick_4">
     <g id="text_11">
      <text style="fill: #262626; font: 36px 'sans-serif'; text-anchor: end" x="94.163125" y="378.450938" transform="rotate(-0 94.163125 378.450938)">0.6</text>
     </g>
    </g>
    <g id="ytick_5">
     <g id="text_12">
      <text style="fill: #262626; font: 36px 'sans-serif'; text-anchor: end" x="94.163125" y="215.370938" transform="rotate(-0 94.163125 215.370938)">0.8</text>
     </g>
    </g>
    <g id="ytick_6">
     <g id="text_13">
      <text style="fill: #262626; font: 36px 'sans-serif'; text-anchor: end" x="94.163125" y="52.290938" transform="rotate(-0 94.163125 52.290938)">1.0</text>
     </g>
    </g>
    <g id="text_14">
     <text style="fill: #262626; font: 36px 'sans-serif'; text-anchor: middle" x="32.968125" y="447.106875" transform="rotate(-90 32.968125 447.106875)">True Positive Rate</text>
    </g>
   </g>
   <g id="line2d_1">
    <path d="M 103.663125 854.806875 
L 103.663125 719.569802 
L 105.245356 642.007363 
L 106.827586 568.422485 
L 106.827586 534.613216 
L 106.827586 492.848826 
L 106.827586 449.095655 
L 109.992047 417.275168 
L 109.992047 389.432241 
L 109.992047 359.600534 
L 109.992047 345.67907 
L 109.992047 325.791265 
L 111.574278 313.858582 
L 111.574278 286.015655 
L 113.156509 270.105412 
L 113.156509 256.183948 
L 114.738739 244.251265 
L 116.32097 236.296143 
L 119.485431 228.341021 
L 119.485431 220.385899 
L 119.485431 208.453216 
L 122.649892 198.509314 
L 125.814354 192.542973 
L 125.814354 188.565412 
L 125.814354 182.59907 
L 125.814354 178.621509 
L 127.396584 176.632729 
L 128.978815 170.666387 
L 128.978815 164.700046 
L 130.561046 158.733704 
L 132.143276 154.756143 
L 135.307737 150.778582 
L 138.472199 140.83468 
L 140.054429 132.879558 
L 141.63666 128.901997 
L 141.63666 126.913216 
L 141.63666 122.935655 
L 141.63666 120.946875 
L 143.218891 118.958095 
L 146.383352 114.980534 
L 149.547813 114.980534 
L 151.130044 112.991753 
L 154.294505 111.002973 
L 155.876736 111.002973 
L 155.876736 107.025412 
L 159.041197 107.025412 
L 160.623427 103.047851 
L 160.623427 99.07029 
L 163.787889 99.07029 
L 165.370119 97.081509 
L 168.534581 95.092729 
L 168.534581 93.103948 
L 171.699042 93.103948 
L 173.281272 91.115168 
L 174.863503 91.115168 
L 176.445734 89.126387 
L 182.774656 85.148826 
L 189.103579 83.160046 
L 192.26804 81.171265 
L 193.850271 79.182485 
L 198.596962 75.204924 
L 204.925885 73.216143 
L 211.254807 73.216143 
L 219.165961 69.238582 
L 228.659344 67.249802 
L 234.988267 65.261021 
L 238.152728 65.261021 
L 244.481651 59.29468 
L 253.975034 57.305899 
L 261.886187 57.305899 
L 271.379571 57.305899 
L 282.455185 53.328338 
L 288.784108 51.339558 
L 299.859722 51.339558 
L 310.935337 49.350777 
L 322.010951 49.350777 
L 323.593182 49.350777 
L 329.922104 49.350777 
L 348.908872 49.350777 
L 369.47787 49.350777 
L 390.046868 45.373216 
L 399.540252 45.373216 
L 416.944789 45.373216 
L 448.589401 41.395655 
L 470.74063 41.395655 
L 503.967473 39.406875 
L 524.536471 39.406875 
L 554.598853 39.406875 
L 589.407927 39.406875 
L 644.785998 39.406875 
L 695.417378 39.406875 
L 818.831367 39.406875 
L 940.663125 39.406875 
" clip-path="url(#p9abc5c474e)" style="fill: none; stroke: #fde725; stroke-width: 5; stroke-linecap: round"/>
   </g>
   <g id="PathCollection_1">
    <defs>
     <path id="mda3fbf2c34" d="M 0 11.18034 
C 2.965061 11.18034 5.80908 10.002309 7.905694 7.905694 
C 10.002309 5.80908 11.18034 2.965061 11.18034 0 
C 11.18034 -2.965061 10.002309 -5.80908 7.905694 -7.905694 
C 5.80908 -10.002309 2.965061 -11.18034 0 -11.18034 
C -2.965061 -11.18034 -5.80908 -10.002309 -7.905694 -7.905694 
C -10.002309 -5.80908 -11.18034 -2.965061 -11.18034 0 
C -11.18034 2.965061 -10.002309 5.80908 -7.905694 7.905694 
C -5.80908 10.002309 -2.965061 11.18034 0 11.18034 
z
" style="stroke: #1a1a1a"/>
    </defs>
    <g clip-path="url(#p9abc5c474e)">
     <use xlink:href="#mda3fbf2c34" x="155.876736" y="107.025412" style="fill: #1a1a1a; stroke: #1a1a1a"/>
    </g>
   </g>
   <g id="line2d_2">
    <path d="M 103.663125 854.806875 
L 103.663125 630.07468 
L 106.827586 532.624436 
L 108.409817 486.882485 
L 108.409817 433.185412 
L 111.574278 413.297607 
L 111.574278 391.421021 
L 111.574278 377.499558 
L 111.574278 349.656631 
L 113.156509 339.712729 
L 114.738739 325.791265 
L 114.738739 311.869802 
L 116.32097 303.91468 
L 121.067662 288.004436 
L 124.232123 274.082973 
L 124.232123 260.161509 
L 124.232123 256.183948 
L 127.396584 248.228826 
L 127.396584 240.273704 
L 127.396584 230.329802 
L 127.396584 224.36346 
L 130.561046 216.408338 
L 130.561046 210.441997 
L 132.143276 208.453216 
L 132.143276 200.498095 
L 132.143276 194.531753 
L 133.725507 190.554192 
L 133.725507 184.587851 
L 133.725507 172.655168 
L 133.725507 168.677607 
L 135.307737 166.688826 
L 135.307737 164.700046 
L 136.889968 162.711265 
L 140.054429 160.722485 
L 143.218891 160.722485 
L 144.801121 152.767363 
L 144.801121 148.789802 
L 144.801121 142.82346 
L 147.965582 138.845899 
L 149.547813 138.845899 
L 149.547813 134.868338 
L 152.712274 134.868338 
L 154.294505 132.879558 
L 155.876736 128.901997 
L 159.041197 126.913216 
L 162.205658 120.946875 
L 163.787889 120.946875 
L 163.787889 118.958095 
L 165.370119 116.969314 
L 168.534581 116.969314 
L 178.027964 116.969314 
L 179.610195 114.980534 
L 179.610195 112.991753 
L 184.356887 112.991753 
L 185.939117 109.014192 
L 190.685809 105.036631 
L 192.26804 103.047851 
L 195.432501 101.05907 
L 201.761424 91.115168 
L 206.508116 87.137607 
L 208.090346 87.137607 
L 212.837038 85.148826 
L 227.077114 85.148826 
L 230.241575 85.148826 
L 236.570497 83.160046 
L 238.152728 81.171265 
L 242.89942 81.171265 
L 246.063881 79.182485 
L 247.646112 77.193704 
L 253.975034 75.204924 
L 265.050649 75.204924 
L 268.21511 73.216143 
L 274.544032 69.238582 
L 279.290724 67.249802 
L 288.784108 63.272241 
L 306.188645 57.305899 
L 318.84649 57.305899 
L 339.415488 55.317119 
L 366.313409 53.328338 
L 383.717945 47.361997 
L 404.286944 47.361997 
L 426.438172 45.373216 
L 450.171632 45.373216 
L 470.74063 43.384436 
L 524.536471 43.384436 
L 568.838928 43.384436 
L 628.963692 43.384436 
L 730.226452 41.395655 
L 940.663125 39.406875 
" clip-path="url(#p9abc5c474e)" style="fill: none; stroke: #a5db36; stroke-width: 5; stroke-linecap: round"/>
   </g>
   <g id="PathCollection_2">
    <g clip-path="url(#p9abc5c474e)">
     <use xlink:href="#mda3fbf2c34" x="162.205658" y="120.946875" style="fill: #1a1a1a; stroke: #1a1a1a"/>
    </g>
   </g>
   <g id="line2d_3">
    <path d="M 103.663125 854.806875 
L 103.663125 687.749314 
L 106.827586 602.231753 
L 109.992047 538.590777 
L 113.156509 496.826387 
L 114.738739 449.095655 
L 114.738739 411.308826 
L 114.738739 381.477119 
L 114.738739 365.566875 
L 116.32097 349.656631 
L 116.32097 333.746387 
L 116.32097 313.858582 
L 116.32097 301.925899 
L 117.903201 284.026875 
L 117.903201 274.082973 
L 117.903201 268.116631 
L 121.067662 258.172729 
L 121.067662 254.195168 
L 121.067662 242.262485 
L 124.232123 242.262485 
L 124.232123 232.318582 
L 125.814354 230.329802 
L 125.814354 224.36346 
L 125.814354 220.385899 
L 127.396584 218.397119 
L 127.396584 216.408338 
L 127.396584 212.430777 
L 127.396584 206.464436 
L 130.561046 204.475655 
L 130.561046 196.520534 
L 130.561046 192.542973 
L 132.143276 186.576631 
L 138.472199 174.643948 
L 138.472199 160.722485 
L 141.63666 156.744924 
L 141.63666 150.778582 
L 144.801121 150.778582 
L 144.801121 148.789802 
L 144.801121 144.812241 
L 151.130044 136.857119 
L 152.712274 130.890777 
L 162.205658 128.901997 
L 163.787889 128.901997 
L 165.370119 120.946875 
L 165.370119 116.969314 
L 166.95235 116.969314 
L 168.534581 114.980534 
L 173.281272 114.980534 
L 176.445734 109.014192 
L 184.356887 109.014192 
L 185.939117 107.025412 
L 189.103579 105.036631 
L 189.103579 103.047851 
L 190.685809 103.047851 
L 200.179193 91.115168 
L 200.179193 89.126387 
L 203.343654 89.126387 
L 203.343654 85.148826 
L 204.925885 85.148826 
L 212.837038 85.148826 
L 216.001499 85.148826 
L 219.165961 83.160046 
L 222.330422 83.160046 
L 230.241575 83.160046 
L 239.734959 83.160046 
L 249.228342 77.193704 
L 255.557265 77.193704 
L 260.303957 77.193704 
L 271.379571 75.204924 
L 274.544032 75.204924 
L 290.366339 71.227363 
L 306.188645 69.238582 
L 312.517567 69.238582 
L 322.010951 63.272241 
L 333.086565 63.272241 
L 348.908872 63.272241 
L 356.820025 55.317119 
L 369.47787 55.317119 
L 383.717945 53.328338 
L 409.033635 53.328338 
L 439.096017 53.328338 
L 461.247246 51.339558 
L 488.145167 49.350777 
L 507.131934 47.361997 
L 530.865393 45.373216 
L 560.927775 41.395655 
L 605.230233 41.395655 
L 665.354996 41.395655 
L 774.528909 39.406875 
L 940.663125 39.406875 
" clip-path="url(#p9abc5c474e)" style="fill: none; stroke: #4ac16d; stroke-width: 5; stroke-linecap: round"/>
   </g>
   <g id="PathCollection_3">
    <g clip-path="url(#p9abc5c474e)">
     <use xlink:href="#mda3fbf2c34" x="163.787889" y="128.901997" style="fill: #1a1a1a; stroke: #1a1a1a"/>
    </g>
   </g>
   <g id="line2d_4">
    <path d="M 103.663125 854.806875 
L 106.827586 785.199558 
L 108.409817 739.457607 
L 108.409817 669.85029 
L 109.992047 612.175655 
L 111.574278 580.355168 
L 114.738739 546.545899 
L 117.903201 486.882485 
L 117.903201 466.99468 
L 117.903201 441.140534 
L 122.649892 425.23029 
L 122.649892 389.432241 
L 122.649892 377.499558 
L 124.232123 361.589314 
L 125.814354 341.701509 
L 127.396584 323.802485 
L 127.396584 313.858582 
L 130.561046 299.937119 
L 130.561046 288.004436 
L 132.143276 282.038095 
L 133.725507 270.105412 
L 135.307737 266.127851 
L 135.307737 262.15029 
L 136.889968 244.251265 
L 144.801121 240.273704 
L 144.801121 234.307363 
L 147.965582 234.307363 
L 149.547813 228.341021 
L 149.547813 218.397119 
L 151.130044 210.441997 
L 154.294505 208.453216 
L 159.041197 202.486875 
L 163.787889 190.554192 
L 166.95235 188.565412 
L 168.534581 186.576631 
L 168.534581 174.643948 
L 171.699042 172.655168 
L 174.863503 172.655168 
L 176.445734 166.688826 
L 179.610195 160.722485 
L 179.610195 158.733704 
L 181.192426 154.756143 
L 182.774656 154.756143 
L 182.774656 152.767363 
L 184.356887 146.801021 
L 185.939117 146.801021 
L 189.103579 140.83468 
L 190.685809 140.83468 
L 193.850271 140.83468 
L 200.179193 136.857119 
L 201.761424 134.868338 
L 204.925885 132.879558 
L 204.925885 128.901997 
L 211.254807 128.901997 
L 212.837038 128.901997 
L 214.419269 126.913216 
L 217.58373 122.935655 
L 219.165961 118.958095 
L 231.823806 103.047851 
L 233.406036 99.07029 
L 249.228342 91.115168 
L 250.810573 87.137607 
L 257.139496 85.148826 
L 261.886187 85.148826 
L 268.21511 83.160046 
L 274.544032 83.160046 
L 276.126263 81.171265 
L 280.872955 77.193704 
L 291.948569 77.193704 
L 293.5308 75.204924 
L 303.024184 73.216143 
L 307.770875 73.216143 
L 314.099798 71.227363 
L 329.922104 69.238582 
L 339.415488 69.238582 
L 356.820025 69.238582 
L 363.148947 69.238582 
L 385.300176 65.261021 
L 401.122482 63.272241 
L 426.438172 61.28346 
L 445.42494 59.29468 
L 469.158399 57.305899 
L 499.220781 55.317119 
L 518.207548 53.328338 
L 557.763314 45.373216 
L 592.572388 45.373216 
L 640.039306 43.384436 
L 715.986376 43.384436 
L 807.755753 43.384436 
L 940.663125 39.406875 
" clip-path="url(#p9abc5c474e)" style="fill: none; stroke: #1f988b; stroke-width: 5; stroke-linecap: round"/>
   </g>
   <g id="PathCollection_4">
    <g clip-path="url(#p9abc5c474e)">
     <use xlink:href="#mda3fbf2c34" x="184.356887" y="146.801021" style="fill: #1a1a1a; stroke: #1a1a1a"/>
    </g>
   </g>
   <g id="line2d_5">
    <path d="M 103.663125 854.806875 
L 105.245356 653.940046 
L 108.409817 558.478582 
L 111.574278 500.803948 
L 111.574278 480.916143 
L 116.32097 463.017119 
L 121.067662 453.073216 
L 122.649892 437.162973 
L 127.396584 423.241509 
L 127.396584 417.275168 
L 127.396584 409.320046 
L 127.396584 387.44346 
L 127.396584 369.544436 
L 127.396584 367.555655 
L 127.396584 357.611753 
L 132.143276 355.622973 
L 133.725507 347.667851 
L 136.889968 343.69029 
L 140.054429 331.757607 
L 141.63666 327.780046 
L 141.63666 323.802485 
L 143.218891 317.836143 
L 144.801121 307.892241 
L 146.383352 305.90346 
L 147.965582 299.937119 
L 152.712274 297.948338 
L 155.876736 293.970777 
L 159.041197 288.004436 
L 162.205658 280.049314 
L 165.370119 278.060534 
L 168.534581 272.094192 
L 168.534581 264.13907 
L 174.863503 260.161509 
L 174.863503 246.240046 
L 176.445734 234.307363 
L 178.027964 230.329802 
L 179.610195 230.329802 
L 184.356887 228.341021 
L 185.939117 228.341021 
L 190.685809 220.385899 
L 193.850271 218.397119 
L 193.850271 210.441997 
L 200.179193 204.475655 
L 203.343654 196.520534 
L 203.343654 194.531753 
L 208.090346 194.531753 
L 208.090346 192.542973 
L 212.837038 184.587851 
L 214.419269 182.59907 
L 214.419269 178.621509 
L 217.58373 178.621509 
L 219.165961 178.621509 
L 223.912652 174.643948 
L 227.077114 166.688826 
L 228.659344 166.688826 
L 231.823806 164.700046 
L 234.988267 158.733704 
L 244.481651 158.733704 
L 247.646112 158.733704 
L 249.228342 152.767363 
L 249.228342 150.778582 
L 250.810573 140.83468 
L 252.392804 138.845899 
L 257.139496 134.868338 
L 261.886187 124.924436 
L 265.050649 122.935655 
L 266.632879 118.958095 
L 268.21511 118.958095 
L 272.961802 114.980534 
L 274.544032 112.991753 
L 280.872955 111.002973 
L 287.201877 111.002973 
L 295.11303 111.002973 
L 306.188645 111.002973 
L 314.099798 107.025412 
L 315.682029 105.036631 
L 320.42872 101.05907 
L 328.339874 97.081509 
L 331.504335 95.092729 
L 347.326641 87.137607 
L 353.655564 85.148826 
L 358.402255 85.148826 
L 364.731178 85.148826 
L 375.806792 83.160046 
L 391.629099 81.171265 
L 401.122482 79.182485 
L 435.931556 75.204924 
L 458.082785 71.227363 
L 473.905091 71.227363 
L 505.549703 65.261021 
L 530.865393 57.305899 
L 556.181083 53.328338 
L 589.407927 51.339558 
L 662.190535 51.339558 
L 728.644221 47.361997 
L 940.663125 39.406875 
" clip-path="url(#p9abc5c474e)" style="fill: none; stroke: #2a788e; stroke-width: 5; stroke-linecap: round"/>
   </g>
   <g id="PathCollection_5">
    <g clip-path="url(#p9abc5c474e)">
     <use xlink:href="#mda3fbf2c34" x="212.837038" y="184.587851" style="fill: #1a1a1a; stroke: #1a1a1a"/>
    </g>
   </g>
   <g id="line2d_6">
    <path d="M 103.663125 854.806875 
L 127.396584 638.029802 
L 141.63666 608.198095 
L 147.965582 594.276631 
L 157.458966 580.355168 
L 159.041197 560.467363 
L 162.205658 552.512241 
L 166.95235 548.53468 
L 171.699042 532.624436 
L 179.610195 524.669314 
L 185.939117 512.736631 
L 195.432501 508.75907 
L 197.014732 500.803948 
L 197.014732 496.826387 
L 206.508116 492.848826 
L 208.090346 490.860046 
L 208.090346 484.893704 
L 208.090346 482.904924 
L 208.090346 478.927363 
L 209.672577 476.938582 
L 209.672577 472.961021 
L 212.837038 463.017119 
L 217.58373 449.095655 
L 220.748191 441.140534 
L 225.494883 437.162973 
L 227.077114 423.241509 
L 228.659344 413.297607 
L 242.89942 407.331265 
L 247.646112 401.364924 
L 253.975034 397.387363 
L 258.721726 389.432241 
L 268.21511 383.465899 
L 277.708494 375.510777 
L 288.784108 369.544436 
L 295.11303 363.578095 
L 301.441953 359.600534 
L 309.353106 359.600534 
L 315.682029 359.600534 
L 328.339874 357.611753 
L 331.504335 357.611753 
L 333.086565 357.611753 
L 333.086565 353.634192 
L 340.997719 353.634192 
L 344.16218 351.645412 
L 347.326641 351.645412 
L 350.491102 351.645412 
L 350.491102 347.667851 
L 350.491102 341.701509 
L 355.237794 333.746387 
L 359.984486 323.802485 
L 363.148947 321.813704 
L 369.47787 317.836143 
L 375.806792 315.847363 
L 385.300176 301.925899 
L 388.464637 299.937119 
L 394.79356 291.981997 
L 399.540252 286.015655 
L 399.540252 282.038095 
L 404.286944 272.094192 
L 409.033635 254.195168 
L 413.780327 238.284924 
L 424.855942 232.318582 
L 432.767095 230.329802 
L 443.842709 224.36346 
L 451.753862 220.385899 
L 464.411707 218.397119 
L 475.487322 210.441997 
L 483.398475 206.464436 
L 486.562936 204.475655 
L 491.309628 202.486875 
L 494.474089 200.498095 
L 500.803012 196.520534 
L 502.385242 190.554192 
L 515.043087 186.576631 
L 518.207548 186.576631 
L 519.789779 178.621509 
L 530.865393 170.666387 
L 538.776547 168.677607 
L 545.105469 162.711265 
L 562.510006 160.722485 
L 581.496773 154.756143 
L 592.572388 146.801021 
L 611.559155 142.82346 
L 622.63477 130.890777 
L 636.874845 114.980534 
L 666.937227 105.036631 
L 708.075223 85.148826 
L 940.663125 39.406875 
" clip-path="url(#p9abc5c474e)" style="fill: none; stroke: #414487; stroke-width: 5; stroke-linecap: round"/>
   </g>
   <g id="PathCollection_6">
    <g clip-path="url(#p9abc5c474e)">
     <use xlink:href="#mda3fbf2c34" x="348.908872" y="351.645412" style="fill: #1a1a1a; stroke: #1a1a1a"/>
    </g>
   </g>
   <g id="line2d_7">
    <path d="M 103.663125 854.806875 
L 133.725507 749.401509 
L 141.63666 719.569802 
L 160.623427 691.726875 
L 166.95235 685.760534 
L 171.699042 675.816631 
L 179.610195 671.83907 
L 182.774656 643.996143 
L 184.356887 636.041021 
L 193.850271 628.085899 
L 206.508116 610.186875 
L 217.58373 594.276631 
L 220.748191 586.321509 
L 225.494883 570.411265 
L 228.659344 562.456143 
L 230.241575 562.456143 
L 233.406036 560.467363 
L 236.570497 552.512241 
L 238.152728 550.52346 
L 241.317189 548.53468 
L 247.646112 540.579558 
L 249.228342 534.613216 
L 249.228342 520.691753 
L 255.557265 516.714192 
L 258.721726 514.725412 
L 265.050649 496.826387 
L 276.126263 494.837607 
L 282.455185 474.949802 
L 285.619647 466.99468 
L 293.5308 459.039558 
L 299.859722 451.084436 
L 299.859722 445.118095 
L 299.859722 443.129314 
L 306.188645 431.196631 
L 309.353106 429.207851 
L 323.593182 417.275168 
L 326.757643 415.286387 
L 331.504335 409.320046 
L 334.668796 405.342485 
L 336.251027 401.364924 
L 340.997719 399.376143 
L 342.579949 399.376143 
L 348.908872 397.387363 
L 352.073333 397.387363 
L 355.237794 397.387363 
L 355.237794 393.409802 
L 358.402255 393.409802 
L 358.402255 391.421021 
L 361.566717 381.477119 
L 363.148947 379.488338 
L 367.895639 371.533216 
L 371.0601 371.533216 
L 378.971254 367.555655 
L 380.553484 365.566875 
L 385.300176 349.656631 
L 393.211329 345.67907 
L 396.37579 341.701509 
L 404.286944 321.813704 
L 407.451405 319.824924 
L 410.615866 313.858582 
L 423.273711 311.869802 
L 431.184864 303.91468 
L 440.678248 295.959558 
L 450.171632 289.993216 
L 458.082785 280.049314 
L 469.158399 270.105412 
L 473.905091 266.127851 
L 480.234013 262.15029 
L 496.05632 260.161509 
L 502.385242 258.172729 
L 507.131934 254.195168 
L 510.296395 250.217607 
L 513.460857 244.251265 
L 521.37201 236.296143 
L 526.118702 234.307363 
L 534.029855 230.329802 
L 538.776547 228.341021 
L 546.6877 224.36346 
L 553.016622 222.37468 
L 560.927775 216.408338 
L 568.838928 206.464436 
L 576.750082 188.565412 
L 586.243465 172.655168 
L 590.990157 166.688826 
L 598.90131 158.733704 
L 609.976925 154.756143 
L 633.710384 154.756143 
L 647.95046 142.82346 
L 670.101688 126.913216 
L 698.58184 114.980534 
L 744.466528 99.07029 
L 746.048758 99.07029 
L 940.663125 39.406875 
" clip-path="url(#p9abc5c474e)" style="fill: none; stroke: #440154; stroke-width: 5; stroke-linecap: round"/>
   </g>
   <g id="PathCollection_7">
    <g clip-path="url(#p9abc5c474e)">
     <use xlink:href="#mda3fbf2c34" x="355.237794" y="397.387363" style="fill: #1a1a1a; stroke: #1a1a1a"/>
    </g>
   </g>
   <g id="patch_3">
    <path d="M 103.663125 854.806875 
L 103.663125 39.406875 
" style="fill: none; stroke: #262626; stroke-width: 1.25; stroke-linejoin: miter; stroke-linecap: square"/>
   </g>
   <g id="patch_4">
    <path d="M 940.663125 854.806875 
L 940.663125 39.406875 
" style="fill: none; stroke: #262626; stroke-width: 1.25; stroke-linejoin: miter; stroke-linecap: square"/>
   </g>
   <g id="patch_5">
    <path d="M 103.663125 854.806875 
L 940.663125 854.806875 
" style="fill: none; stroke: #262626; stroke-width: 1.25; stroke-linejoin: miter; stroke-linecap: square"/>
   </g>
   <g id="patch_6">
    <path d="M 103.663125 39.406875 
L 940.663125 39.406875 
" style="fill: none; stroke: #262626; stroke-width: 1.25; stroke-linejoin: miter; stroke-linecap: square"/>
   </g>
   <g id="text_15">
    <text style="fill: #262626; font: 36px 'sans-serif'; text-anchor: middle" x="522.163125" y="33.406875" transform="rotate(-0 522.163125 33.406875)">Figure 5. ALL Cells</text>
   </g>
   <g id="legend_1">
    <g id="patch_7">
     <path d="M 45.163125 1327.790625 
L 787.53375 1327.790625 
Q 794.73375 1327.790625 794.73375 1320.590625 
L 794.73375 961.546875 
Q 794.73375 954.346875 787.53375 954.346875 
L 45.163125 954.346875 
Q 37.963125 954.346875 37.963125 961.546875 
L 37.963125 1320.590625 
Q 37.963125 1327.790625 45.163125 1327.790625 
z
" style="fill: #ffffff; opacity: 0.8; stroke: #cccccc; stroke-linejoin: miter"/>
    </g>
    <g id="line2d_8">
     <path d="M 52.363125 982.37625 
L 88.363125 982.37625 
L 124.363125 982.37625 
" style="fill: none; stroke: #fde725; stroke-width: 5; stroke-linecap: round"/>
    </g>
    <g id="text_16">
     <text style="fill: #262626; font: 36px 'sans-serif'; text-anchor: start" x="153.163125" y="994.97625" transform="rotate(-0 153.163125 994.97625)">All variables (ROC AUC = 0.98)</text>
    </g>
    <g id="line2d_9">
     <path d="M 52.363125 1034.1825 
L 88.363125 1034.1825 
L 124.363125 1034.1825 
" style="fill: none; stroke: #a5db36; stroke-width: 5; stroke-linecap: round"/>
    </g>
    <g id="text_17">
     <text style="fill: #262626; font: 36px 'sans-serif'; text-anchor: start" x="153.163125" y="1046.7825" transform="rotate(-0 153.163125 1046.7825)">NAD(P)H variables (ROC AUC = 0.97)</text>
    </g>
    <g id="line2d_10">
     <path d="M 52.363125 1085.98875 
L 88.363125 1085.98875 
L 124.363125 1085.98875 
" style="fill: none; stroke: #4ac16d; stroke-width: 5; stroke-linecap: round"/>
    </g>
    <g id="text_18">
     <text style="fill: #262626; font: 36px 'sans-serif'; text-anchor: start" x="153.163125" y="1098.58875" transform="rotate(-0 153.163125 1098.58875)">Top four variables (ROC AUC) = 0.97)</text>
    </g>
    <g id="line2d_11">
     <path d="M 52.363125 1137.795 
L 88.363125 1137.795 
L 124.363125 1137.795 
" style="fill: none; stroke: #1f988b; stroke-width: 5; stroke-linecap: round"/>
    </g>
    <g id="text_19">
     <text style="fill: #262626; font: 36px 'sans-serif'; text-anchor: start" x="153.163125" y="1150.395" transform="rotate(-0 153.163125 1150.395)">Top three variables (ROC AUC) = 0.95)</text>
    </g>
    <g id="line2d_12">
     <path d="M 52.363125 1189.60125 
L 88.363125 1189.60125 
L 124.363125 1189.60125 
" style="fill: none; stroke: #2a788e; stroke-width: 5; stroke-linecap: round"/>
    </g>
    <g id="text_20">
     <text style="fill: #262626; font: 36px 'sans-serif'; text-anchor: start" x="153.163125" y="1202.20125" transform="rotate(-0 153.163125 1202.20125)">Top two variables (ROC AUC) = 0.92)</text>
    </g>
    <g id="line2d_13">
     <path d="M 52.363125 1241.4075 
L 88.363125 1241.4075 
L 124.363125 1241.4075 
" style="fill: none; stroke: #414487; stroke-width: 5; stroke-linecap: round"/>
    </g>
    <g id="text_21">
     <text style="fill: #262626; font: 36px 'sans-serif'; text-anchor: start" x="153.163125" y="1254.0075" transform="rotate(-0 153.163125 1254.0075)">Top variable (ROC AUC) = 0.76)</text>
    </g>
    <g id="line2d_14">
     <path d="M 52.363125 1293.21375 
L 88.363125 1293.21375 
L 124.363125 1293.21375 
" style="fill: none; stroke: #440154; stroke-width: 5; stroke-linecap: round"/>
    </g>
    <g id="text_22">
     <text style="fill: #262626; font: 36px 'sans-serif'; text-anchor: start" x="153.163125" y="1305.81375" transform="rotate(-0 153.163125 1305.81375)">Norm. Redox Ratio (ROC AUC) = 0.69)</text>
    </g>
   </g>
  </g>
 </g>
 <defs>
  <clipPath id="p9abc5c474e">
   <rect x="103.663125" y="39.406875" width="837" height="815.4"/>
  </clipPath>
 </defs>
</svg>
