<?xml version="1.0" encoding="utf-8" standalone="no"?>
<!DOCTYPE svg PUBLIC "-//W3C//DTD SVG 1.1//EN"
  "http://www.w3.org/Graphics/SVG/1.1/DTD/svg11.dtd">
<svg xmlns:xlink="http://www.w3.org/1999/xlink" width="972.883125pt" height="1334.990625pt" viewBox="0 0 972.883125 1334.990625" xmlns="http://www.w3.org/2000/svg" version="1.1">
 <metadata>
  <rdf:RDF xmlns:dc="http://purl.org/dc/elements/1.1/" xmlns:cc="http://creativecommons.org/ns#" xmlns:rdf="http://www.w3.org/1999/02/22-rdf-syntax-ns#">
   <cc:Work>
    <dc:type rdf:resource="http://purl.org/dc/dcmitype/StillImage"/>
    <dc:date>2023-01-18T15:01:37.503069</dc:date>
    <dc:format>image/svg+xml</dc:format>
    <dc:creator>
     <cc:Agent>
      <dc:title>Matplotlib v3.6.0, https://matplotlib.org/</dc:title>
     </cc:Agent>
    </dc:creator>
   </cc:Work>
  </rdf:RDF>
 </metadata>
 <defs>
  <style type="text/css">*{stroke-linejoin: round; stroke-linecap: butt}</style>
 </defs>
 <g id="figure_1">
  <g id="patch_1">
   <path d="M 0 1334.990625 
L 972.883125 1334.990625 
L 972.883125 0 
L 0 0 
z
" style="fill: #ffffff"/>
  </g>
  <g id="axes_1">
   <g id="patch_2">
    <path d="M 103.663125 854.806875 
L 940.663125 854.806875 
L 940.663125 39.406875 
L 103.663125 39.406875 
z
" style="fill: #ffffff"/>
   </g>
   <g id="matplotlib.axis_1">
    <g id="xtick_1">
     <g id="text_1">
      <text style="fill: #262626; font: 36px 'sans-serif'; text-anchor: middle" x="103.663125" y="890.075" transform="rotate(-0 103.663125 890.075)">0.0</text>
     </g>
    </g>
    <g id="xtick_2">
     <g id="text_2">
      <text style="fill: #262626; font: 36px 'sans-serif'; text-anchor: middle" x="271.063125" y="890.075" transform="rotate(-0 271.063125 890.075)">0.2</text>
     </g>
    </g>
    <g id="xtick_3">
     <g id="text_3">
      <text style="fill: #262626; font: 36px 'sans-serif'; text-anchor: middle" x="438.463125" y="890.075" transform="rotate(-0 438.463125 890.075)">0.4</text>
     </g>
    </g>
    <g id="xtick_4">
     <g id="text_4">
      <text style="fill: #262626; font: 36px 'sans-serif'; text-anchor: middle" x="605.863125" y="890.075" transform="rotate(-0 605.863125 890.075)">0.6</text>
     </g>
    </g>
    <g id="xtick_5">
     <g id="text_5">
      <text style="fill: #262626; font: 36px 'sans-serif'; text-anchor: middle" x="773.263125" y="890.075" transform="rotate(-0 773.263125 890.075)">0.8</text>
     </g>
    </g>
    <g id="xtick_6">
     <g id="text_6">
      <text style="fill: #262626; font: 36px 'sans-serif'; text-anchor: middle" x="940.663125" y="890.075" transform="rotate(-0 940.663125 890.075)">1.0</text>
     </g>
    </g>
    <g id="text_7">
     <text style="fill: #262626; font: 36px 'sans-serif'; text-anchor: middle" x="522.163125" y="926.998125" transform="rotate(-0 522.163125 926.998125)">False Positive Rate</text>
    </g>
   </g>
   <g id="matplotlib.axis_2">
    <g id="ytick_1">
     <g id="text_8">
      <text style="fill: #262626; font: 36px 'sans-serif'; text-anchor: end" x="94.163125" y="867.690938" transform="rotate(-0 94.163125 867.690938)">0.0</text>
     </g>
    </g>
    <g id="ytick_2">
     <g id="text_9">
      <text style="fill: #262626; font: 36px 'sans-serif'; text-anchor: end" x="94.163125" y="704.610938" transform="rotate(-0 94.163125 704.610938)">0.2</text>
     </g>
    </g>
    <g id="ytick_3">
     <g id="text_10">
      <text style="fill: #262626; font: 36px 'sans-serif'; text-anchor: end" x="94.163125" y="541.530938" transform="rotate(-0 94.163125 541.530938)">0.4</text>
     </g>
    </g>
    <g id="ytick_4">
     <g id="text_11">
      <text style="fill: #262626; font: 36px 'sans-serif'; text-anchor: end" x="94.163125" y="378.450938" transform="rotate(-0 94.163125 378.450938)">0.6</text>
     </g>
    </g>
    <g id="ytick_5">
     <g id="text_12">
      <text style="fill: #262626; font: 36px 'sans-serif'; text-anchor: end" x="94.163125" y="215.370938" transform="rotate(-0 94.163125 215.370938)">0.8</text>
     </g>
    </g>
    <g id="ytick_6">
     <g id="text_13">
      <text style="fill: #262626; font: 36px 'sans-serif'; text-anchor: end" x="94.163125" y="52.290938" transform="rotate(-0 94.163125 52.290938)">1.0</text>
     </g>
    </g>
    <g id="text_14">
     <text style="fill: #262626; font: 36px 'sans-serif'; text-anchor: middle" x="32.968125" y="447.106875" transform="rotate(-90 32.968125 447.106875)">True Positive Rate</text>
    </g>
   </g>
   <g id="line2d_1">
    <path d="M 103.663125 854.806875 
L 106.462456 715.509375 
L 107.862122 615.283125 
L 107.862122 562.621875 
L 107.862122 501.466875 
L 109.261787 464.094375 
L 109.261787 440.311875 
L 109.261787 425.023125 
L 109.261787 399.541875 
L 110.661453 379.156875 
L 110.661453 358.771875 
L 112.061118 338.386875 
L 112.061118 324.796875 
L 112.061118 312.905625 
L 112.061118 294.219375 
L 113.460784 284.026875 
L 113.460784 277.231875 
L 113.460784 261.943125 
L 113.460784 250.051875 
L 113.460784 243.256875 
L 114.860449 231.365625 
L 116.260115 226.269375 
L 119.059446 219.474375 
L 119.059446 214.378125 
L 120.459112 210.980625 
L 120.459112 204.185625 
L 120.459112 195.691875 
L 120.459112 188.896875 
L 120.459112 178.704375 
L 124.658108 175.306875 
L 124.658108 168.511875 
L 128.857105 166.813125 
L 130.25677 163.415625 
L 131.656436 161.716875 
L 133.056102 154.921875 
L 133.056102 153.223125 
L 134.455767 148.126875 
L 134.455767 144.729375 
L 135.855433 141.331875 
L 135.855433 139.633125 
L 137.255098 137.934375 
L 137.255098 136.235625 
L 138.654764 132.838125 
L 141.454095 129.440625 
L 144.253426 129.440625 
L 147.052757 124.344375 
L 147.052757 122.645625 
L 148.452423 122.645625 
L 154.051085 115.850625 
L 156.850416 110.754375 
L 158.250082 109.055625 
L 161.049413 103.959375 
L 163.848744 102.260625 
L 166.648075 102.260625 
L 172.246737 98.863125 
L 175.046068 98.863125 
L 177.845399 97.164375 
L 179.245065 95.465625 
L 182.044396 93.766875 
L 184.843727 93.766875 
L 189.042724 92.068125 
L 189.042724 90.369375 
L 191.842055 88.670625 
L 194.641386 85.273125 
L 197.440717 85.273125 
L 200.240048 83.574375 
L 204.439045 83.574375 
L 210.037707 83.574375 
L 214.236704 78.478125 
L 218.4357 78.478125 
L 222.634697 75.080625 
L 226.833694 75.080625 
L 229.633025 75.080625 
L 231.03269 73.381875 
L 242.230015 73.381875 
L 250.628008 69.984375 
L 257.626336 66.586875 
L 271.622991 66.586875 
L 275.821988 63.189375 
L 292.617974 61.490625 
L 326.209948 56.394375 
L 343.005934 52.996875 
L 370.999245 52.996875 
L 386.395566 52.996875 
L 411.589546 51.298125 
L 456.378844 51.298125 
L 482.97249 51.298125 
L 524.962456 47.900625 
L 558.554429 44.503125 
L 590.746737 42.804375 
L 653.731687 41.105625 
L 727.913961 41.105625 
L 810.494229 39.406875 
L 940.663125 39.406875 
" clip-path="url(#p4201682b08)" style="fill: none; stroke: #fde725; stroke-width: 5; stroke-linecap: round"/>
   </g>
   <g id="PathCollection_1">
    <defs>
     <path id="md8a6f78932" d="M 0 11.18034 
C 2.965061 11.18034 5.80908 10.002309 7.905694 7.905694 
C 10.002309 5.80908 11.18034 2.965061 11.18034 0 
C 11.18034 -2.965061 10.002309 -5.80908 7.905694 -7.905694 
C 5.80908 -10.002309 2.965061 -11.18034 0 -11.18034 
C -2.965061 -11.18034 -5.80908 -10.002309 -7.905694 -7.905694 
C -10.002309 -5.80908 -11.18034 -2.965061 -11.18034 0 
C -11.18034 2.965061 -10.002309 5.80908 -7.905694 7.905694 
C -5.80908 10.002309 -2.965061 11.18034 0 11.18034 
z
" style="stroke: #1a1a1a"/>
    </defs>
    <g clip-path="url(#p4201682b08)">
     <use xlink:href="#md8a6f78932" x="151.251754" y="119.248125" style="fill: #1a1a1a; stroke: #1a1a1a"/>
    </g>
   </g>
   <g id="line2d_2">
    <path d="M 103.663125 854.806875 
L 106.462456 645.860625 
L 107.862122 532.044375 
L 109.261787 458.998125 
L 109.261787 409.734375 
L 110.661453 387.650625 
L 110.661453 363.868125 
L 110.661453 343.483125 
L 112.061118 328.194375 
L 112.061118 311.206875 
L 112.061118 302.713125 
L 112.061118 290.821875 
L 113.460784 282.328125 
L 113.460784 272.135625 
L 114.860449 258.545625 
L 116.260115 246.654375 
L 117.659781 241.558125 
L 120.459112 234.763125 
L 126.057774 229.666875 
L 126.057774 219.474375 
L 126.057774 212.679375 
L 126.057774 209.281875 
L 131.656436 197.390625 
L 131.656436 188.896875 
L 134.455767 175.306875 
L 134.455767 170.210625 
L 137.255098 168.511875 
L 138.654764 165.114375 
L 138.654764 156.620625 
L 140.054429 151.524375 
L 140.054429 148.126875 
L 141.454095 148.126875 
L 142.85376 144.729375 
L 145.653092 144.729375 
L 145.653092 141.331875 
L 147.052757 139.633125 
L 148.452423 139.633125 
L 149.852088 134.536875 
L 155.45075 131.139375 
L 156.850416 129.440625 
L 163.848744 127.741875 
L 166.648075 127.741875 
L 172.246737 124.344375 
L 173.646403 124.344375 
L 176.445734 124.344375 
L 177.845399 119.248125 
L 180.64473 114.151875 
L 182.044396 114.151875 
L 187.643058 114.151875 
L 187.643058 112.453125 
L 189.042724 109.055625 
L 190.442389 109.055625 
L 191.842055 105.658125 
L 196.041051 103.959375 
L 204.439045 98.863125 
L 205.83871 98.863125 
L 212.837038 98.863125 
L 214.236704 98.863125 
L 215.636369 95.465625 
L 219.835366 93.766875 
L 222.634697 93.766875 
L 225.434028 90.369375 
L 226.833694 88.670625 
L 229.633025 86.971875 
L 231.03269 86.971875 
L 233.832021 83.574375 
L 243.62968 83.574375 
L 245.029346 78.478125 
L 250.628008 75.080625 
L 260.425667 75.080625 
L 264.624663 73.381875 
L 271.622991 69.984375 
L 280.020985 69.984375 
L 289.818643 69.984375 
L 296.816971 64.888125 
L 305.214964 64.888125 
L 319.21162 63.189375 
L 333.208276 59.791875 
L 348.604597 58.093125 
L 365.400583 58.093125 
L 379.397239 56.394375 
L 396.193225 56.394375 
L 415.788543 54.695625 
L 435.383861 54.695625 
L 468.975834 52.996875 
L 495.56948 49.599375 
L 523.562791 47.900625 
L 579.549413 47.900625 
L 624.33871 44.503125 
L 708.318643 41.105625 
L 940.663125 39.406875 
" clip-path="url(#p4201682b08)" style="fill: none; stroke: #a5db36; stroke-width: 5; stroke-linecap: round"/>
   </g>
   <g id="PathCollection_2">
    <g clip-path="url(#p4201682b08)">
     <use xlink:href="#md8a6f78932" x="176.445734" y="124.344375" style="fill: #1a1a1a; stroke: #1a1a1a"/>
    </g>
   </g>
   <g id="line2d_3">
    <path d="M 103.663125 854.806875 
L 109.261787 656.053125 
L 109.261787 555.826875 
L 110.661453 494.671875 
L 112.061118 443.709375 
L 112.061118 413.131875 
L 112.061118 372.361875 
L 112.061118 353.675625 
L 112.061118 319.700625 
L 112.061118 307.809375 
L 112.061118 292.520625 
L 112.061118 285.725625 
L 112.061118 273.834375 
L 112.061118 265.340625 
L 112.061118 261.943125 
L 113.460784 255.148125 
L 116.260115 246.654375 
L 116.260115 239.859375 
L 121.858777 236.461875 
L 123.258443 227.968125 
L 124.658108 222.871875 
L 127.457439 217.775625 
L 127.457439 214.378125 
L 127.457439 212.679375 
L 130.25677 205.884375 
L 130.25677 202.486875 
L 134.455767 197.390625 
L 135.855433 192.294375 
L 137.255098 190.595625 
L 137.255098 188.896875 
L 137.255098 183.800625 
L 138.654764 177.005625 
L 141.454095 171.909375 
L 141.454095 168.511875 
L 142.85376 165.114375 
L 142.85376 163.415625 
L 147.052757 161.716875 
L 149.852088 160.018125 
L 151.251754 156.620625 
L 151.251754 153.223125 
L 152.651419 151.524375 
L 152.651419 148.126875 
L 156.850416 143.030625 
L 159.649747 143.030625 
L 161.049413 143.030625 
L 162.449078 141.331875 
L 166.648075 139.633125 
L 168.04774 132.838125 
L 169.447406 131.139375 
L 169.447406 129.440625 
L 170.847071 126.043125 
L 175.046068 126.043125 
L 175.046068 122.645625 
L 177.845399 115.850625 
L 182.044396 114.151875 
L 186.243393 110.754375 
L 197.440717 110.754375 
L 201.639714 107.356875 
L 201.639714 105.658125 
L 204.439045 102.260625 
L 208.638041 95.465625 
L 212.837038 95.465625 
L 217.036035 92.068125 
L 218.4357 92.068125 
L 221.235031 90.369375 
L 228.233359 88.670625 
L 229.633025 83.574375 
L 242.230015 80.176875 
L 246.429011 78.478125 
L 259.026001 76.779375 
L 266.024329 76.779375 
L 271.622991 75.080625 
L 280.020985 75.080625 
L 282.820316 75.080625 
L 294.01764 73.381875 
L 310.813627 69.984375 
L 323.410617 64.888125 
L 333.208276 64.888125 
L 343.005934 63.189375 
L 355.602924 59.791875 
L 373.798577 59.791875 
L 393.393894 58.093125 
L 405.990884 54.695625 
L 431.184864 51.298125 
L 452.179847 51.298125 
L 478.773493 49.599375 
L 508.166469 49.599375 
L 543.158108 46.201875 
L 575.350416 44.503125 
L 621.539379 44.503125 
L 669.128008 42.804375 
L 747.509279 39.406875 
L 940.663125 39.406875 
" clip-path="url(#p4201682b08)" style="fill: none; stroke: #4ac16d; stroke-width: 5; stroke-linecap: round"/>
   </g>
   <g id="PathCollection_3">
    <g clip-path="url(#p4201682b08)">
     <use xlink:href="#md8a6f78932" x="159.649747" y="143.030625" style="fill: #1a1a1a; stroke: #1a1a1a"/>
    </g>
   </g>
   <g id="line2d_4">
    <path d="M 103.663125 854.806875 
L 106.462456 752.881875 
L 107.862122 673.040625 
L 109.261787 618.680625 
L 110.661453 572.814375 
L 110.661453 520.153125 
L 110.661453 496.370625 
L 110.661453 464.094375 
L 110.661453 430.119375 
L 110.661453 408.035625 
L 112.061118 377.458125 
L 112.061118 367.265625 
L 114.860449 351.976875 
L 114.860449 333.290625 
L 119.059446 319.700625 
L 120.459112 302.713125 
L 124.658108 292.520625 
L 127.457439 277.231875 
L 128.857105 268.738125 
L 130.25677 255.148125 
L 133.056102 248.353125 
L 133.056102 231.365625 
L 138.654764 227.968125 
L 141.454095 217.775625 
L 144.253426 212.679375 
L 147.052757 210.980625 
L 149.852088 205.884375 
L 151.251754 200.788125 
L 151.251754 197.390625 
L 154.051085 197.390625 
L 159.649747 195.691875 
L 163.848744 195.691875 
L 163.848744 188.896875 
L 165.248409 188.896875 
L 165.248409 187.198125 
L 169.447406 183.800625 
L 170.847071 182.101875 
L 173.646403 177.005625 
L 175.046068 177.005625 
L 180.64473 171.909375 
L 183.444061 171.909375 
L 184.843727 171.909375 
L 187.643058 168.511875 
L 187.643058 163.415625 
L 187.643058 160.018125 
L 191.842055 158.319375 
L 193.24172 156.620625 
L 194.641386 156.620625 
L 197.440717 153.223125 
L 201.639714 153.223125 
L 204.439045 149.825625 
L 204.439045 148.126875 
L 205.83871 148.126875 
L 210.037707 146.428125 
L 212.837038 143.030625 
L 215.636369 137.934375 
L 218.4357 137.934375 
L 219.835366 136.235625 
L 222.634697 132.838125 
L 225.434028 132.838125 
L 226.833694 131.139375 
L 229.633025 129.440625 
L 233.832021 127.741875 
L 235.231687 127.741875 
L 236.631352 122.645625 
L 242.230015 120.946875 
L 242.230015 119.248125 
L 246.429011 115.850625 
L 257.626336 110.754375 
L 261.825332 109.055625 
L 264.624663 103.959375 
L 267.423995 100.561875 
L 274.422322 95.465625 
L 277.221653 95.465625 
L 281.42065 90.369375 
L 285.619647 86.971875 
L 291.218309 85.273125 
L 301.015968 85.273125 
L 310.813627 78.478125 
L 313.612958 78.478125 
L 333.208276 71.683125 
L 345.805265 69.984375 
L 354.203259 69.984375 
L 373.798577 66.586875 
L 389.194898 59.791875 
L 403.191553 58.093125 
L 438.183192 54.695625 
L 460.577841 54.695625 
L 480.173158 54.695625 
L 515.164797 52.996875 
L 543.158108 51.298125 
L 583.748409 47.900625 
L 627.138041 46.201875 
L 687.32366 42.804375 
L 768.504262 41.105625 
L 841.286871 41.105625 
L 940.663125 39.406875 
" clip-path="url(#p4201682b08)" style="fill: none; stroke: #1f988b; stroke-width: 5; stroke-linecap: round"/>
   </g>
   <g id="PathCollection_4">
    <g clip-path="url(#p4201682b08)">
     <use xlink:href="#md8a6f78932" x="194.641386" y="156.620625" style="fill: #1a1a1a; stroke: #1a1a1a"/>
    </g>
   </g>
   <g id="line2d_5">
    <path d="M 103.663125 854.806875 
L 109.261787 615.283125 
L 109.261787 535.441875 
L 113.460784 484.479375 
L 116.260115 455.600625 
L 117.659781 433.516875 
L 117.659781 408.035625 
L 117.659781 389.349375 
L 117.659781 379.156875 
L 119.059446 357.073125 
L 120.459112 341.784375 
L 123.258443 338.386875 
L 124.658108 334.989375 
L 128.857105 328.194375 
L 130.25677 319.700625 
L 131.656436 314.604375 
L 134.455767 312.905625 
L 137.255098 307.809375 
L 137.255098 299.315625 
L 137.255098 292.520625 
L 140.054429 278.930625 
L 142.85376 273.834375 
L 145.653092 272.135625 
L 145.653092 268.738125 
L 147.052757 263.641875 
L 148.452423 253.449375 
L 148.452423 241.558125 
L 149.852088 239.859375 
L 152.651419 234.763125 
L 158.250082 229.666875 
L 159.649747 227.968125 
L 162.449078 227.968125 
L 168.04774 224.570625 
L 173.646403 221.173125 
L 176.445734 216.076875 
L 176.445734 212.679375 
L 182.044396 210.980625 
L 183.444061 207.583125 
L 189.042724 205.884375 
L 193.24172 205.884375 
L 198.840383 200.788125 
L 205.83871 199.089375 
L 207.238376 197.390625 
L 207.238376 195.691875 
L 210.037707 192.294375 
L 211.437372 190.595625 
L 217.036035 185.499375 
L 219.835366 182.101875 
L 225.434028 180.403125 
L 228.233359 175.306875 
L 231.03269 173.608125 
L 236.631352 168.511875 
L 238.031018 163.415625 
L 242.230015 163.415625 
L 247.828677 161.716875 
L 252.027673 156.620625 
L 252.027673 151.524375 
L 252.027673 148.126875 
L 254.827005 146.428125 
L 256.22667 141.331875 
L 260.425667 139.633125 
L 264.624663 136.235625 
L 267.423995 132.838125 
L 267.423995 131.139375 
L 271.622991 127.741875 
L 275.821988 120.946875 
L 280.020985 120.946875 
L 281.42065 119.248125 
L 289.818643 115.850625 
L 289.818643 114.151875 
L 296.816971 112.453125 
L 303.815299 107.356875 
L 309.413961 102.260625 
L 312.213292 95.465625 
L 320.611286 93.766875 
L 330.408944 92.068125 
L 338.806938 90.369375 
L 345.805265 90.369375 
L 354.203259 88.670625 
L 359.801921 88.670625 
L 364.000918 86.971875 
L 372.398911 85.273125 
L 380.796904 81.875625 
L 391.994229 80.176875 
L 403.191553 75.080625 
L 415.788543 73.381875 
L 422.786871 73.381875 
L 443.781854 71.683125 
L 459.178175 69.984375 
L 482.97249 64.888125 
L 513.765132 61.490625 
L 534.760115 58.093125 
L 559.954095 52.996875 
L 586.54774 46.201875 
L 656.531018 46.201875 
L 739.111286 41.105625 
L 940.663125 39.406875 
" clip-path="url(#p4201682b08)" style="fill: none; stroke: #2a788e; stroke-width: 5; stroke-linecap: round"/>
   </g>
   <g id="PathCollection_5">
    <g clip-path="url(#p4201682b08)">
     <use xlink:href="#md8a6f78932" x="225.434028" y="180.403125" style="fill: #1a1a1a; stroke: #1a1a1a"/>
    </g>
   </g>
   <g id="line2d_6">
    <path d="M 103.663125 854.806875 
L 140.054429 571.115625 
L 158.250082 542.236875 
L 168.04774 520.153125 
L 177.845399 506.563125 
L 183.444061 492.973125 
L 186.243393 487.876875 
L 197.440717 475.985625 
L 203.039379 462.395625 
L 211.437372 453.901875 
L 218.4357 452.203125 
L 218.4357 445.408125 
L 229.633025 438.613125 
L 232.432356 435.215625 
L 235.231687 425.023125 
L 239.430684 425.023125 
L 240.830349 423.324375 
L 242.230015 416.529375 
L 245.029346 413.131875 
L 250.628008 409.734375 
L 250.628008 408.035625 
L 254.827005 401.240625 
L 259.026001 382.554375 
L 264.624663 377.458125 
L 264.624663 370.663125 
L 268.82366 365.566875 
L 270.223326 357.073125 
L 273.022657 343.483125 
L 278.621319 333.290625 
L 285.619647 329.893125 
L 287.019312 324.796875 
L 289.818643 323.098125 
L 295.417306 316.303125 
L 305.214964 312.905625 
L 319.21162 306.110625 
L 331.80861 299.315625 
L 334.607941 297.616875 
L 337.407272 294.219375 
L 341.606269 294.219375 
L 350.004262 292.520625 
L 352.803593 290.821875 
L 358.402255 290.821875 
L 359.801921 290.821875 
L 365.400583 290.821875 
L 369.59958 290.821875 
L 379.397239 289.123125 
L 380.796904 289.123125 
L 380.796904 287.424375 
L 382.19657 287.424375 
L 382.19657 284.026875 
L 383.596235 275.533125 
L 383.596235 272.135625 
L 386.395566 270.436875 
L 387.795232 268.738125 
L 387.795232 265.340625 
L 391.994229 255.148125 
L 391.994229 250.051875 
L 393.393894 246.654375 
L 398.992556 243.256875 
L 405.990884 234.763125 
L 410.189881 231.365625 
L 412.989212 221.173125 
L 417.188209 216.076875 
L 424.186536 209.281875 
L 424.186536 205.884375 
L 428.385533 205.884375 
L 447.980851 199.089375 
L 459.178175 193.993125 
L 467.576168 187.198125 
L 475.974162 182.101875 
L 480.173158 180.403125 
L 494.169814 177.005625 
L 498.368811 171.909375 
L 503.967473 168.511875 
L 505.367138 165.114375 
L 513.765132 165.114375 
L 519.363794 160.018125 
L 524.962456 156.620625 
L 534.760115 148.126875 
L 544.557774 146.428125 
L 550.156436 141.331875 
L 566.952423 132.838125 
L 573.95075 131.139375 
L 582.348744 124.344375 
L 592.146403 119.248125 
L 604.743393 110.754375 
L 622.939045 109.055625 
L 636.9357 97.164375 
L 650.932356 92.068125 
L 674.72667 88.670625 
L 704.119647 78.478125 
L 940.663125 39.406875 
" clip-path="url(#p4201682b08)" style="fill: none; stroke: #414487; stroke-width: 5; stroke-linecap: round"/>
   </g>
   <g id="PathCollection_6">
    <g clip-path="url(#p4201682b08)">
     <use xlink:href="#md8a6f78932" x="380.796904" y="289.123125" style="fill: #1a1a1a; stroke: #1a1a1a"/>
    </g>
   </g>
   <g id="line2d_7">
    <path d="M 103.663125 854.806875 
L 133.056102 756.279375 
L 149.852088 712.111875 
L 152.651419 691.726875 
L 159.649747 678.136875 
L 163.848744 669.643125 
L 172.246737 666.245625 
L 180.64473 656.053125 
L 184.843727 644.161875 
L 196.041051 620.379375 
L 200.240048 610.186875 
L 210.037707 605.090625 
L 218.4357 584.705625 
L 226.833694 574.513125 
L 228.233359 566.019375 
L 228.233359 562.621875 
L 231.03269 552.429375 
L 235.231687 549.031875 
L 235.231687 542.236875 
L 242.230015 537.140625 
L 247.828677 532.044375 
L 250.628008 530.345625 
L 253.427339 523.550625 
L 259.026001 508.261875 
L 261.825332 501.466875 
L 267.423995 491.274375 
L 273.022657 484.479375 
L 278.621319 481.081875 
L 291.218309 472.588125 
L 299.616302 467.491875 
L 308.014296 458.998125 
L 313.612958 452.203125 
L 326.209948 445.408125 
L 333.208276 435.215625 
L 336.007607 430.119375 
L 337.407272 423.324375 
L 345.805265 421.625625 
L 350.004262 416.529375 
L 358.402255 411.433125 
L 362.601252 409.734375 
L 377.997573 404.638125 
L 382.19657 404.638125 
L 390.594563 402.939375 
L 391.994229 399.541875 
L 397.592891 397.843125 
L 398.992556 397.843125 
L 398.992556 396.144375 
L 398.992556 392.746875 
L 400.392222 392.746875 
L 400.392222 391.048125 
L 401.791888 389.349375 
L 401.791888 385.951875 
L 405.990884 385.951875 
L 407.39055 382.554375 
L 410.189881 377.458125 
L 414.388878 368.964375 
L 421.387205 357.073125 
L 425.586202 350.278125 
L 426.985867 340.085625 
L 432.58453 334.989375 
L 436.783526 328.194375 
L 442.382189 312.905625 
L 447.980851 306.110625 
L 457.77851 295.918125 
L 471.775165 287.424375 
L 480.173158 278.930625 
L 487.171486 268.738125 
L 499.768476 268.738125 
L 515.164797 261.943125 
L 527.761787 253.449375 
L 531.960784 250.051875 
L 536.159781 244.955625 
L 541.758443 239.859375 
L 545.957439 238.160625 
L 550.156436 234.763125 
L 550.156436 219.474375 
L 557.154764 214.378125 
L 557.154764 207.583125 
L 566.952423 199.089375 
L 575.350416 188.896875 
L 589.347071 183.800625 
L 599.14473 173.608125 
L 613.141386 165.114375 
L 620.139714 154.921875 
L 635.536035 149.825625 
L 645.333694 137.934375 
L 659.330349 131.139375 
L 676.126336 126.043125 
L 695.721653 115.850625 
L 722.315299 109.055625 
L 757.306938 93.766875 
L 940.663125 39.406875 
" clip-path="url(#p4201682b08)" style="fill: none; stroke: #440154; stroke-width: 5; stroke-linecap: round"/>
   </g>
   <g id="PathCollection_7">
    <g clip-path="url(#p4201682b08)">
     <use xlink:href="#md8a6f78932" x="398.992556" y="397.843125" style="fill: #1a1a1a; stroke: #1a1a1a"/>
    </g>
   </g>
   <g id="patch_3">
    <path d="M 103.663125 854.806875 
L 103.663125 39.406875 
" style="fill: none; stroke: #262626; stroke-width: 1.25; stroke-linejoin: miter; stroke-linecap: square"/>
   </g>
   <g id="patch_4">
    <path d="M 940.663125 854.806875 
L 940.663125 39.406875 
" style="fill: none; stroke: #262626; stroke-width: 1.25; stroke-linejoin: miter; stroke-linecap: square"/>
   </g>
   <g id="patch_5">
    <path d="M 103.663125 854.806875 
L 940.663125 854.806875 
" style="fill: none; stroke: #262626; stroke-width: 1.25; stroke-linejoin: miter; stroke-linecap: square"/>
   </g>
   <g id="patch_6">
    <path d="M 103.663125 39.406875 
L 940.663125 39.406875 
" style="fill: none; stroke: #262626; stroke-width: 1.25; stroke-linejoin: miter; stroke-linecap: square"/>
   </g>
   <g id="text_15">
    <text style="fill: #262626; font: 36px 'sans-serif'; text-anchor: middle" x="522.163125" y="33.406875" transform="rotate(-0 522.163125 33.406875)">Figure 5. ALL Cells</text>
   </g>
   <g id="legend_1">
    <g id="patch_7">
     <path d="M 45.163125 1327.790625 
L 787.53375 1327.790625 
Q 794.73375 1327.790625 794.73375 1320.590625 
L 794.73375 961.546875 
Q 794.73375 954.346875 787.53375 954.346875 
L 45.163125 954.346875 
Q 37.963125 954.346875 37.963125 961.546875 
L 37.963125 1320.590625 
Q 37.963125 1327.790625 45.163125 1327.790625 
z
" style="fill: #ffffff; opacity: 0.8; stroke: #cccccc; stroke-linejoin: miter"/>
    </g>
    <g id="line2d_8">
     <path d="M 52.363125 982.37625 
L 88.363125 982.37625 
L 124.363125 982.37625 
" style="fill: none; stroke: #fde725; stroke-width: 5; stroke-linecap: round"/>
    </g>
    <g id="text_16">
     <text style="fill: #262626; font: 36px 'sans-serif'; text-anchor: start" x="153.163125" y="994.97625" transform="rotate(-0 153.163125 994.97625)">All variables (ROC AUC = 0.97)</text>
    </g>
    <g id="line2d_9">
     <path d="M 52.363125 1034.1825 
L 88.363125 1034.1825 
L 124.363125 1034.1825 
" style="fill: none; stroke: #a5db36; stroke-width: 5; stroke-linecap: round"/>
    </g>
    <g id="text_17">
     <text style="fill: #262626; font: 36px 'sans-serif'; text-anchor: start" x="153.163125" y="1046.7825" transform="rotate(-0 153.163125 1046.7825)">NAD(P)H variables (ROC AUC = 0.97)</text>
    </g>
    <g id="line2d_10">
     <path d="M 52.363125 1085.98875 
L 88.363125 1085.98875 
L 124.363125 1085.98875 
" style="fill: none; stroke: #4ac16d; stroke-width: 5; stroke-linecap: round"/>
    </g>
    <g id="text_18">
     <text style="fill: #262626; font: 36px 'sans-serif'; text-anchor: start" x="153.163125" y="1098.58875" transform="rotate(-0 153.163125 1098.58875)">Top four variables (ROC AUC) = 0.96)</text>
    </g>
    <g id="line2d_11">
     <path d="M 52.363125 1137.795 
L 88.363125 1137.795 
L 124.363125 1137.795 
" style="fill: none; stroke: #1f988b; stroke-width: 5; stroke-linecap: round"/>
    </g>
    <g id="text_19">
     <text style="fill: #262626; font: 36px 'sans-serif'; text-anchor: start" x="153.163125" y="1150.395" transform="rotate(-0 153.163125 1150.395)">Top three variables (ROC AUC) = 0.95)</text>
    </g>
    <g id="line2d_12">
     <path d="M 52.363125 1189.60125 
L 88.363125 1189.60125 
L 124.363125 1189.60125 
" style="fill: none; stroke: #2a788e; stroke-width: 5; stroke-linecap: round"/>
    </g>
    <g id="text_20">
     <text style="fill: #262626; font: 36px 'sans-serif'; text-anchor: start" x="153.163125" y="1202.20125" transform="rotate(-0 153.163125 1202.20125)">Top two variables (ROC AUC) = 0.93)</text>
    </g>
    <g id="line2d_13">
     <path d="M 52.363125 1241.4075 
L 88.363125 1241.4075 
L 124.363125 1241.4075 
" style="fill: none; stroke: #414487; stroke-width: 5; stroke-linecap: round"/>
    </g>
    <g id="text_21">
     <text style="fill: #262626; font: 36px 'sans-serif'; text-anchor: start" x="153.163125" y="1254.0075" transform="rotate(-0 153.163125 1254.0075)">Top variable (ROC AUC) = 0.78)</text>
    </g>
    <g id="line2d_14">
     <path d="M 52.363125 1293.21375 
L 88.363125 1293.21375 
L 124.363125 1293.21375 
" style="fill: none; stroke: #440154; stroke-width: 5; stroke-linecap: round"/>
    </g>
    <g id="text_22">
     <text style="fill: #262626; font: 36px 'sans-serif'; text-anchor: start" x="153.163125" y="1305.81375" transform="rotate(-0 153.163125 1305.81375)">Norm. Redox Ratio (ROC AUC) = 0.68)</text>
    </g>
   </g>
  </g>
 </g>
 <defs>
  <clipPath id="p4201682b08">
   <rect x="103.663125" y="39.406875" width="837" height="815.4"/>
  </clipPath>
 </defs>
</svg>
