<?xml version="1.0" encoding="utf-8" standalone="no"?>
<!DOCTYPE svg PUBLIC "-//W3C//DTD SVG 1.1//EN"
  "http://www.w3.org/Graphics/SVG/1.1/DTD/svg11.dtd">
<svg xmlns:xlink="http://www.w3.org/1999/xlink" width="972.883125pt" height="1334.990625pt" viewBox="0 0 972.883125 1334.990625" xmlns="http://www.w3.org/2000/svg" version="1.1">
 <metadata>
  <rdf:RDF xmlns:dc="http://purl.org/dc/elements/1.1/" xmlns:cc="http://creativecommons.org/ns#" xmlns:rdf="http://www.w3.org/1999/02/22-rdf-syntax-ns#">
   <cc:Work>
    <dc:type rdf:resource="http://purl.org/dc/dcmitype/StillImage"/>
    <dc:date>2023-01-18T15:57:58.060957</dc:date>
    <dc:format>image/svg+xml</dc:format>
    <dc:creator>
     <cc:Agent>
      <dc:title>Matplotlib v3.6.0, https://matplotlib.org/</dc:title>
     </cc:Agent>
    </dc:creator>
   </cc:Work>
  </rdf:RDF>
 </metadata>
 <defs>
  <style type="text/css">*{stroke-linejoin: round; stroke-linecap: butt}</style>
 </defs>
 <g id="figure_1">
  <g id="patch_1">
   <path d="M 0 1334.990625 
L 972.883125 1334.990625 
L 972.883125 0 
L 0 0 
z
" style="fill: #ffffff"/>
  </g>
  <g id="axes_1">
   <g id="patch_2">
    <path d="M 103.663125 854.806875 
L 940.663125 854.806875 
L 940.663125 39.406875 
L 103.663125 39.406875 
z
" style="fill: #ffffff"/>
   </g>
   <g id="matplotlib.axis_1">
    <g id="xtick_1">
     <g id="text_1">
      <text style="fill: #262626; font: 36px 'sans-serif'; text-anchor: middle" x="103.663125" y="890.075" transform="rotate(-0 103.663125 890.075)">0.0</text>
     </g>
    </g>
    <g id="xtick_2">
     <g id="text_2">
      <text style="fill: #262626; font: 36px 'sans-serif'; text-anchor: middle" x="271.063125" y="890.075" transform="rotate(-0 271.063125 890.075)">0.2</text>
     </g>
    </g>
    <g id="xtick_3">
     <g id="text_3">
      <text style="fill: #262626; font: 36px 'sans-serif'; text-anchor: middle" x="438.463125" y="890.075" transform="rotate(-0 438.463125 890.075)">0.4</text>
     </g>
    </g>
    <g id="xtick_4">
     <g id="text_4">
      <text style="fill: #262626; font: 36px 'sans-serif'; text-anchor: middle" x="605.863125" y="890.075" transform="rotate(-0 605.863125 890.075)">0.6</text>
     </g>
    </g>
    <g id="xtick_5">
     <g id="text_5">
      <text style="fill: #262626; font: 36px 'sans-serif'; text-anchor: middle" x="773.263125" y="890.075" transform="rotate(-0 773.263125 890.075)">0.8</text>
     </g>
    </g>
    <g id="xtick_6">
     <g id="text_6">
      <text style="fill: #262626; font: 36px 'sans-serif'; text-anchor: middle" x="940.663125" y="890.075" transform="rotate(-0 940.663125 890.075)">1.0</text>
     </g>
    </g>
    <g id="text_7">
     <text style="fill: #262626; font: 36px 'sans-serif'; text-anchor: middle" x="522.163125" y="926.998125" transform="rotate(-0 522.163125 926.998125)">False Positive Rate</text>
    </g>
   </g>
   <g id="matplotlib.axis_2">
    <g id="ytick_1">
     <g id="text_8">
      <text style="fill: #262626; font: 36px 'sans-serif'; text-anchor: end" x="94.163125" y="867.690938" transform="rotate(-0 94.163125 867.690938)">0.0</text>
     </g>
    </g>
    <g id="ytick_2">
     <g id="text_9">
      <text style="fill: #262626; font: 36px 'sans-serif'; text-anchor: end" x="94.163125" y="704.610938" transform="rotate(-0 94.163125 704.610938)">0.2</text>
     </g>
    </g>
    <g id="ytick_3">
     <g id="text_10">
      <text style="fill: #262626; font: 36px 'sans-serif'; text-anchor: end" x="94.163125" y="541.530938" transform="rotate(-0 94.163125 541.530938)">0.4</text>
     </g>
    </g>
    <g id="ytick_4">
     <g id="text_11">
      <text style="fill: #262626; font: 36px 'sans-serif'; text-anchor: end" x="94.163125" y="378.450938" transform="rotate(-0 94.163125 378.450938)">0.6</text>
     </g>
    </g>
    <g id="ytick_5">
     <g id="text_12">
      <text style="fill: #262626; font: 36px 'sans-serif'; text-anchor: end" x="94.163125" y="215.370938" transform="rotate(-0 94.163125 215.370938)">0.8</text>
     </g>
    </g>
    <g id="ytick_6">
     <g id="text_13">
      <text style="fill: #262626; font: 36px 'sans-serif'; text-anchor: end" x="94.163125" y="52.290938" transform="rotate(-0 94.163125 52.290938)">1.0</text>
     </g>
    </g>
    <g id="text_14">
     <text style="fill: #262626; font: 36px 'sans-serif'; text-anchor: middle" x="32.968125" y="447.106875" transform="rotate(-90 32.968125 447.106875)">True Positive Rate</text>
    </g>
   </g>
   <g id="line2d_1">
    <path d="M 103.663125 854.806875 
L 105.561084 725.681948 
L 107.459043 637.207462 
L 108.408023 575.036201 
L 109.357003 530.798957 
L 109.357003 505.691332 
L 111.254962 463.845291 
L 111.254962 426.781655 
L 111.254962 398.087227 
L 111.254962 375.370805 
L 112.203941 361.023591 
L 114.101901 347.871978 
L 114.101901 334.720365 
L 114.101901 322.764353 
L 115.05088 314.395145 
L 115.05088 306.025937 
L 116.948839 289.28752 
L 117.897819 285.700717 
L 117.897819 279.722711 
L 118.846798 267.766699 
L 118.846798 259.397491 
L 120.744758 247.441479 
L 122.642717 239.072271 
L 123.591696 231.898664 
L 124.540676 227.116259 
L 124.540676 224.725057 
L 124.540676 219.942652 
L 125.489656 216.355849 
L 126.438635 207.98664 
L 127.387615 200.813033 
L 129.285574 194.835027 
L 129.285574 187.66142 
L 131.183533 185.270218 
L 131.183533 180.487813 
L 131.183533 176.90101 
L 133.081492 169.727403 
L 133.081492 164.944998 
L 133.081492 163.749397 
L 134.030472 162.553796 
L 134.030472 156.57579 
L 134.979452 156.57579 
L 135.928431 151.793385 
L 135.928431 150.597784 
L 137.82639 147.010981 
L 138.77537 142.228576 
L 139.724349 138.641772 
L 141.622309 135.054969 
L 142.571288 133.859368 
L 144.469247 131.468165 
L 147.316186 127.881362 
L 151.112105 125.490159 
L 151.112105 124.294558 
L 153.959043 123.098957 
L 158.703941 121.903356 
L 161.55088 120.707755 
L 162.49986 118.316552 
L 166.295778 113.534148 
L 168.193737 111.142945 
L 173.887615 106.360541 
L 174.836594 105.16494 
L 177.683533 101.578136 
L 179.581492 101.578136 
L 182.428431 100.382535 
L 186.224349 99.186934 
L 191.918227 97.991332 
L 195.714145 93.208928 
L 198.561084 89.622124 
L 199.510064 87.230922 
L 207.101901 84.83972 
L 212.795778 84.83972 
L 217.540676 84.83972 
L 220.387615 83.644118 
L 225.132513 82.448517 
L 228.928431 81.252916 
L 235.571288 81.252916 
L 243.163125 81.252916 
L 247.908023 77.666113 
L 255.49986 77.666113 
L 261.193737 74.079309 
L 271.632513 71.688107 
L 277.32639 66.905702 
L 283.020268 65.710101 
L 295.357003 65.710101 
L 307.693737 62.123297 
L 318.132513 62.123297 
L 333.316186 62.123297 
L 347.55088 58.536494 
L 361.785574 56.145291 
L 377.918227 53.754089 
L 395.948839 51.362887 
L 415.877411 50.167286 
L 453.836594 50.167286 
L 476.612105 48.971684 
L 517.418227 45.384881 
L 562.020268 45.384881 
L 614.214145 42.993679 
L 673.99986 41.798077 
L 738.530472 39.406875 
L 835.32639 39.406875 
L 940.663125 39.406875 
" clip-path="url(#p79f167e51f)" style="fill: none; stroke: #fde725; stroke-width: 5; stroke-linecap: round"/>
   </g>
   <g id="PathCollection_1">
    <defs>
     <path id="m552601d95c" d="M 0 11.18034 
C 2.965061 11.18034 5.80908 10.002309 7.905694 7.905694 
C 10.002309 5.80908 11.18034 2.965061 11.18034 0 
C 11.18034 -2.965061 10.002309 -5.80908 7.905694 -7.905694 
C 5.80908 -10.002309 2.965061 -11.18034 0 -11.18034 
C -2.965061 -11.18034 -5.80908 -10.002309 -7.905694 -7.905694 
C -10.002309 -5.80908 -11.18034 -2.965061 -11.18034 0 
C -11.18034 2.965061 -10.002309 5.80908 -7.905694 7.905694 
C -5.80908 10.002309 -2.965061 11.18034 0 11.18034 
z
" style="stroke: #1a1a1a"/>
    </defs>
    <g clip-path="url(#p79f167e51f)">
     <use xlink:href="#m552601d95c" x="151.112105" y="125.490159" style="fill: #1a1a1a; stroke: #1a1a1a"/>
    </g>
   </g>
   <g id="line2d_2">
    <path d="M 103.663125 854.806875 
L 107.459043 643.185467 
L 109.357003 548.732975 
L 110.305982 481.779309 
L 112.203941 437.542066 
L 113.152921 401.67403 
L 115.99986 375.370805 
L 118.846798 353.849984 
L 119.795778 333.524764 
L 119.795778 315.590746 
L 122.642717 300.047931 
L 123.591696 294.069925 
L 123.591696 285.700717 
L 125.489656 277.331508 
L 126.438635 267.766699 
L 126.438635 259.397491 
L 126.438635 254.615086 
L 126.438635 252.223884 
L 126.438635 241.463473 
L 127.387615 233.094265 
L 127.387615 228.31186 
L 128.336594 224.725057 
L 129.285574 215.160247 
L 130.234554 206.791039 
L 131.183533 205.595438 
L 131.183533 200.813033 
L 134.030472 197.22623 
L 134.979452 190.052623 
L 135.928431 186.465819 
L 137.82639 182.879016 
L 138.77537 179.292212 
L 140.673329 175.705409 
L 143.520268 172.118605 
L 143.520268 170.923004 
L 147.316186 166.140599 
L 149.214145 162.553796 
L 150.163125 157.771391 
L 150.163125 151.793385 
L 153.010064 147.010981 
L 154.908023 145.815379 
L 159.652921 144.619778 
L 162.49986 144.619778 
L 163.448839 142.228576 
L 165.346798 139.837374 
L 167.244758 138.641772 
L 167.244758 136.25057 
L 168.193737 135.054969 
L 170.091696 133.859368 
L 172.938635 132.663766 
L 174.836594 132.663766 
L 175.785574 132.663766 
L 177.683533 131.468165 
L 180.530472 130.272564 
L 180.530472 127.881362 
L 182.428431 123.098957 
L 185.27537 123.098957 
L 189.071288 121.903356 
L 190.969247 121.903356 
L 193.816186 121.903356 
L 194.765166 120.707755 
L 194.765166 117.120951 
L 198.561084 114.729749 
L 202.357003 113.534148 
L 205.203941 113.534148 
L 208.05088 111.142945 
L 210.897819 109.947344 
L 215.642717 108.751743 
L 217.540676 108.751743 
L 219.438635 106.360541 
L 222.285574 106.360541 
L 224.183533 100.382535 
L 229.877411 96.795731 
L 234.622309 93.208928 
L 240.316186 93.208928 
L 246.959043 93.208928 
L 252.652921 90.817725 
L 257.397819 87.230922 
L 259.295778 86.035321 
L 265.938635 83.644118 
L 275.428431 82.448517 
L 282.071288 80.057315 
L 293.459043 78.861714 
L 305.795778 76.470511 
L 314.336594 75.27491 
L 328.571288 71.688107 
L 334.265166 68.101303 
L 348.49986 66.905702 
L 363.683533 64.5145 
L 380.765166 64.5145 
L 405.438635 60.927696 
L 423.469247 59.732095 
L 469.020268 57.340893 
L 486.101901 54.94969 
L 515.520268 53.754089 
L 567.714145 51.362887 
L 608.520268 47.776083 
L 696.77537 45.384881 
L 940.663125 39.406875 
" clip-path="url(#p79f167e51f)" style="fill: none; stroke: #a5db36; stroke-width: 5; stroke-linecap: round"/>
   </g>
   <g id="PathCollection_2">
    <g clip-path="url(#p79f167e51f)">
     <use xlink:href="#m552601d95c" x="172.938635" y="132.663766" style="fill: #1a1a1a; stroke: #1a1a1a"/>
    </g>
   </g>
   <g id="line2d_3">
    <path d="M 103.663125 854.806875 
L 105.561084 702.965526 
L 105.561084 627.642652 
L 108.408023 558.297784 
L 110.305982 509.278136 
L 111.254962 456.671684 
L 112.203941 424.390453 
L 113.152921 394.500423 
L 115.05088 380.153209 
L 116.948839 346.676376 
L 117.897819 320.373151 
L 117.897819 295.265526 
L 118.846798 280.918312 
L 118.846798 272.549104 
L 119.795778 261.788693 
L 119.795778 254.615086 
L 119.795778 249.832681 
L 119.795778 248.63708 
L 119.795778 236.681069 
L 119.795778 230.703063 
L 122.642717 229.507462 
L 124.540676 224.725057 
L 127.387615 218.747051 
L 127.387615 216.355849 
L 128.336594 213.964646 
L 128.336594 210.377843 
L 129.285574 203.204236 
L 130.234554 200.813033 
L 132.132513 194.835027 
L 132.132513 191.248224 
L 134.030472 186.465819 
L 134.979452 181.683415 
L 135.928431 181.683415 
L 137.82639 176.90101 
L 137.82639 169.727403 
L 139.724349 164.944998 
L 139.724349 161.358195 
L 140.673329 157.771391 
L 141.622309 151.793385 
L 142.571288 149.402183 
L 143.520268 148.206582 
L 143.520268 144.619778 
L 146.367207 142.228576 
L 148.265166 139.837374 
L 151.112105 135.054969 
L 153.010064 135.054969 
L 154.908023 131.468165 
L 157.754962 131.468165 
L 161.55088 126.685761 
L 163.448839 126.685761 
L 165.346798 124.294558 
L 170.091696 121.903356 
L 171.989656 121.903356 
L 174.836594 120.707755 
L 175.785574 117.120951 
L 176.734554 115.92535 
L 184.32639 114.729749 
L 186.224349 112.338547 
L 186.224349 109.947344 
L 187.173329 108.751743 
L 190.969247 103.969338 
L 191.918227 102.773737 
L 192.867207 100.382535 
L 194.765166 97.991332 
L 195.714145 96.795731 
L 199.510064 94.404529 
L 208.05088 90.817725 
L 210.897819 90.817725 
L 212.795778 90.817725 
L 216.591696 90.817725 
L 220.387615 88.426523 
L 223.234554 87.230922 
L 228.928431 83.644118 
L 232.724349 78.861714 
L 239.367207 76.470511 
L 245.061084 75.27491 
L 249.805982 75.27491 
L 260.244758 75.27491 
L 264.989656 72.883708 
L 267.836594 71.688107 
L 275.428431 70.492505 
L 289.663125 70.492505 
L 298.203941 69.296904 
L 307.693737 65.710101 
L 325.724349 62.123297 
L 339.959043 62.123297 
L 364.632513 60.927696 
L 392.152921 59.732095 
L 413.979452 56.145291 
L 440.55088 51.362887 
L 471.867207 51.362887 
L 508.877411 51.362887 
L 543.040676 50.167286 
L 593.336594 48.971684 
L 664.510064 46.580482 
L 804.010064 44.18928 
L 940.663125 39.406875 
" clip-path="url(#p79f167e51f)" style="fill: none; stroke: #4ac16d; stroke-width: 5; stroke-linecap: round"/>
   </g>
   <g id="PathCollection_3">
    <g clip-path="url(#p79f167e51f)">
     <use xlink:href="#m552601d95c" x="159.652921" y="129.076963" style="fill: #1a1a1a; stroke: #1a1a1a"/>
    </g>
   </g>
   <g id="line2d_4">
    <path d="M 103.663125 854.806875 
L 105.561084 785.462007 
L 108.408023 742.420365 
L 109.357003 673.075497 
L 111.254962 634.816259 
L 113.152921 597.752623 
L 113.152921 560.688986 
L 114.101901 534.385761 
L 114.101901 494.930922 
L 115.05088 463.845291 
L 115.05088 442.32447 
L 116.948839 414.825643 
L 118.846798 399.282828 
L 121.693737 378.957608 
L 122.642717 361.023591 
L 125.489656 350.26318 
L 129.285574 334.720365 
L 132.132513 321.568752 
L 132.132513 314.395145 
L 132.132513 300.047931 
L 134.030472 280.918312 
L 134.979452 270.157901 
L 136.877411 262.984294 
L 138.77537 258.20189 
L 140.673329 255.810687 
L 146.367207 236.681069 
L 147.316186 230.703063 
L 149.214145 225.920658 
L 150.163125 224.725057 
L 152.061084 222.333854 
L 153.959043 213.964646 
L 156.805982 209.182242 
L 159.652921 202.008635 
L 161.55088 197.22623 
L 166.295778 194.835027 
L 167.244758 192.443825 
L 167.244758 191.248224 
L 168.193737 187.66142 
L 169.142717 179.292212 
L 171.040676 179.292212 
L 173.887615 176.90101 
L 173.887615 170.923004 
L 175.785574 168.531802 
L 176.734554 166.140599 
L 179.581492 163.749397 
L 187.173329 160.162593 
L 190.020268 158.966992 
L 191.918227 155.380189 
L 192.867207 154.184588 
L 193.816186 149.402183 
L 193.816186 147.010981 
L 196.663125 147.010981 
L 197.612105 147.010981 
L 199.510064 144.619778 
L 201.408023 143.424177 
L 203.305982 143.424177 
L 207.101901 138.641772 
L 211.846798 135.054969 
L 212.795778 135.054969 
L 220.387615 133.859368 
L 223.234554 133.859368 
L 223.234554 131.468165 
L 225.132513 127.881362 
L 227.030472 121.903356 
L 227.979452 121.903356 
L 234.622309 120.707755 
L 238.418227 119.512154 
L 243.163125 114.729749 
L 246.010064 113.534148 
L 249.805982 113.534148 
L 256.448839 111.142945 
L 261.193737 106.360541 
L 272.581492 105.16494 
L 277.32639 101.578136 
L 283.020268 99.186934 
L 286.816186 94.404529 
L 301.05088 90.817725 
L 307.693737 90.817725 
L 315.285574 88.426523 
L 320.030472 86.035321 
L 331.418227 83.644118 
L 339.959043 78.861714 
L 357.989656 76.470511 
L 371.27537 71.688107 
L 380.765166 66.905702 
L 402.591696 65.710101 
L 422.520268 63.318898 
L 445.295778 62.123297 
L 463.32639 60.927696 
L 490.846798 59.732095 
L 525.959043 59.732095 
L 558.224349 54.94969 
L 596.183533 51.362887 
L 647.428431 48.971684 
L 702.469247 46.580482 
L 769.846798 44.18928 
L 864.744758 42.993679 
L 940.663125 39.406875 
" clip-path="url(#p79f167e51f)" style="fill: none; stroke: #1f988b; stroke-width: 5; stroke-linecap: round"/>
   </g>
   <g id="PathCollection_4">
    <g clip-path="url(#p79f167e51f)">
     <use xlink:href="#m552601d95c" x="191.918227" y="155.380189" style="fill: #1a1a1a; stroke: #1a1a1a"/>
    </g>
   </g>
   <g id="line2d_5">
    <path d="M 103.663125 854.806875 
L 110.305982 645.57667 
L 113.152921 571.449397 
L 115.99986 512.86494 
L 117.897819 485.366113 
L 118.846798 463.845291 
L 122.642717 437.542066 
L 122.642717 420.803649 
L 122.642717 413.630042 
L 125.489656 398.087227 
L 129.285574 381.34881 
L 132.132513 372.979602 
L 134.030472 359.827989 
L 136.877411 351.458781 
L 138.77537 345.480775 
L 142.571288 334.720365 
L 142.571288 332.329162 
L 145.418227 329.93796 
L 146.367207 315.590746 
L 147.316186 307.221538 
L 147.316186 306.025937 
L 150.163125 298.85233 
L 152.061084 298.85233 
L 155.857003 297.656728 
L 156.805982 294.069925 
L 157.754962 289.28752 
L 157.754962 283.309514 
L 157.754962 280.918312 
L 157.754962 277.331508 
L 160.601901 273.744705 
L 162.49986 267.766699 
L 164.397819 262.984294 
L 167.244758 259.397491 
L 169.142717 254.615086 
L 174.836594 252.223884 
L 175.785574 248.63708 
L 178.632513 247.441479 
L 179.581492 243.854676 
L 182.428431 240.267872 
L 186.224349 236.681069 
L 187.173329 233.094265 
L 190.020268 233.094265 
L 192.867207 228.31186 
L 196.663125 221.138253 
L 202.357003 218.747051 
L 204.254962 218.747051 
L 205.203941 215.160247 
L 208.05088 210.377843 
L 208.99986 206.791039 
L 210.897819 204.399837 
L 217.540676 199.617432 
L 220.387615 196.030629 
L 221.336594 192.443825 
L 225.132513 190.052623 
L 227.030472 187.66142 
L 229.877411 182.879016 
L 234.622309 175.705409 
L 235.571288 170.923004 
L 238.418227 167.336201 
L 242.214145 166.140599 
L 244.112105 163.749397 
L 246.959043 162.553796 
L 250.754962 157.771391 
L 258.346798 156.57579 
L 260.244758 156.57579 
L 264.040676 155.380189 
L 268.785574 155.380189 
L 272.581492 149.402183 
L 274.479452 149.402183 
L 278.27537 144.619778 
L 281.122309 141.032975 
L 289.663125 139.837374 
L 293.459043 138.641772 
L 296.305982 137.446171 
L 301.99986 131.468165 
L 303.897819 131.468165 
L 307.693737 129.076963 
L 310.540676 127.881362 
L 315.285574 125.490159 
L 320.979452 120.707755 
L 329.520268 118.316552 
L 337.112105 115.92535 
L 352.295778 111.142945 
L 365.581492 109.947344 
L 373.173329 103.969338 
L 386.459043 100.382535 
L 399.744758 97.991332 
L 413.030472 92.013327 
L 426.316186 88.426523 
L 436.754962 86.035321 
L 449.091696 77.666113 
L 463.32639 75.27491 
L 472.816186 71.688107 
L 494.642717 71.688107 
L 514.571288 71.688107 
L 532.601901 64.5145 
L 562.969247 64.5145 
L 585.744758 60.927696 
L 620.857003 52.558488 
L 673.05088 50.167286 
L 764.152921 45.384881 
L 940.663125 39.406875 
" clip-path="url(#p79f167e51f)" style="fill: none; stroke: #2a788e; stroke-width: 5; stroke-linecap: round"/>
   </g>
   <g id="PathCollection_5">
    <g clip-path="url(#p79f167e51f)">
     <use xlink:href="#m552601d95c" x="217.540676" y="199.617432" style="fill: #1a1a1a; stroke: #1a1a1a"/>
    </g>
   </g>
   <g id="line2d_6">
    <path d="M 103.663125 854.806875 
L 131.183533 625.25145 
L 134.030472 606.121831 
L 143.520268 583.405409 
L 148.265166 572.644998 
L 154.908023 554.710981 
L 156.805982 552.319778 
L 157.754962 545.146171 
L 164.397819 528.407755 
L 164.397819 520.038547 
L 170.091696 511.669338 
L 171.989656 506.886934 
L 181.479452 492.53972 
L 183.377411 490.148517 
L 187.173329 482.97491 
L 189.071288 475.801303 
L 196.663125 474.605702 
L 202.357003 467.432095 
L 204.254962 463.845291 
L 205.203941 462.64969 
L 205.203941 461.454089 
L 206.152921 460.258488 
L 206.152921 457.867286 
L 208.05088 451.88928 
L 211.846798 448.302476 
L 213.744758 443.520071 
L 222.285574 424.390453 
L 229.877411 412.434441 
L 234.622309 400.478429 
L 240.316186 394.500423 
L 246.959043 387.326816 
L 251.703941 378.957608 
L 258.346798 370.5884 
L 267.836594 363.414793 
L 275.428431 352.654382 
L 292.510064 341.893972 
L 297.254962 339.502769 
L 306.744758 334.720365 
L 318.132513 329.93796 
L 323.82639 329.93796 
L 326.673329 328.742359 
L 327.622309 325.155555 
L 331.418227 325.155555 
L 337.112105 323.959954 
L 341.857003 321.568752 
L 343.754962 320.373151 
L 344.703941 320.373151 
L 345.652921 319.177549 
L 346.601901 319.177549 
L 351.346798 317.981948 
L 352.295778 313.199544 
L 352.295778 310.808341 
L 352.295778 307.221538 
L 353.244758 304.830335 
L 354.193737 300.047931 
L 359.887615 292.874324 
L 360.836594 288.091919 
L 364.632513 285.700717 
L 367.479452 283.309514 
L 370.32639 274.940306 
L 380.765166 258.20189 
L 386.459043 251.028283 
L 393.101901 245.050277 
L 398.795778 236.681069 
L 405.438635 230.703063 
L 413.030472 224.725057 
L 417.77537 219.942652 
L 422.520268 218.747051 
L 429.163125 215.160247 
L 434.857003 212.769045 
L 439.601901 209.182242 
L 450.989656 205.595438 
L 455.734554 199.617432 
L 462.377411 194.835027 
L 465.224349 190.052623 
L 468.071288 187.66142 
L 474.714145 181.683415 
L 477.561084 179.292212 
L 478.510064 178.096611 
L 484.203941 178.096611 
L 491.795778 172.118605 
L 501.285574 170.923004 
L 509.82639 160.162593 
L 516.469247 151.793385 
L 533.55088 139.837374 
L 542.091696 137.446171 
L 549.683533 136.25057 
L 566.765166 130.272564 
L 579.101901 126.685761 
L 595.234554 115.92535 
L 609.469247 108.751743 
L 633.193737 93.208928 
L 665.459043 72.883708 
L 940.663125 39.406875 
" clip-path="url(#p79f167e51f)" style="fill: none; stroke: #414487; stroke-width: 5; stroke-linecap: round"/>
   </g>
   <g id="PathCollection_6">
    <g clip-path="url(#p79f167e51f)">
     <use xlink:href="#m552601d95c" x="345.652921" y="319.177549" style="fill: #1a1a1a; stroke: #1a1a1a"/>
    </g>
   </g>
   <g id="line2d_7">
    <path d="M 103.663125 854.806875 
L 134.979452 753.180775 
L 146.367207 725.681948 
L 157.754962 701.769925 
L 158.703941 679.053503 
L 166.295778 670.684294 
L 171.989656 662.315086 
L 173.887615 650.359074 
L 177.683533 644.381069 
L 183.377411 637.207462 
L 190.020268 625.25145 
L 194.765166 613.295438 
L 202.357003 607.317432 
L 206.152921 594.165819 
L 207.101901 586.992212 
L 217.540676 577.427403 
L 223.234554 567.862593 
L 227.979452 565.471391 
L 228.928431 564.27579 
L 230.82639 561.884588 
L 233.673329 559.493385 
L 233.673329 553.515379 
L 237.469247 546.341772 
L 242.214145 542.754969 
L 246.010064 536.776963 
L 255.49986 530.798957 
L 259.295778 520.038547 
L 264.989656 514.060541 
L 271.632513 504.495731 
L 271.632513 503.30013 
L 278.27537 497.322124 
L 285.867207 481.779309 
L 292.510064 475.801303 
L 300.101901 466.236494 
L 300.101901 460.258488 
L 308.642717 457.867286 
L 318.132513 450.693679 
L 329.520268 442.32447 
L 337.112105 439.933268 
L 343.754962 436.346464 
L 349.448839 427.977256 
L 356.091696 424.390453 
L 360.836594 423.194852 
L 362.734554 423.194852 
L 362.734554 419.608048 
L 364.632513 418.412447 
L 367.479452 416.021245 
L 369.377411 416.021245 
L 369.377411 414.825643 
L 370.32639 413.630042 
L 370.32639 412.434441 
L 371.27537 411.23884 
L 374.122309 410.043239 
L 376.969247 405.260834 
L 376.969247 402.869632 
L 378.867207 401.67403 
L 381.714145 394.500423 
L 383.612105 386.131215 
L 385.510064 384.935614 
L 389.305982 381.34881 
L 394.05088 371.784001 
L 398.795778 365.805995 
L 406.387615 353.849984 
L 409.234554 350.26318 
L 420.622309 331.133561 
L 425.367207 322.764353 
L 432.010064 314.395145 
L 441.49986 308.417139 
L 455.734554 298.85233 
L 462.377411 292.874324 
L 475.663125 284.505115 
L 481.357003 272.549104 
L 486.101901 268.9623 
L 488.948839 266.571098 
L 491.795778 257.006288 
L 497.489656 249.832681 
L 502.234554 248.63708 
L 505.081492 243.854676 
L 508.877411 239.072271 
L 512.673329 236.681069 
L 519.316186 234.289866 
L 523.112105 227.116259 
L 526.908023 221.138253 
L 537.346798 211.573444 
L 543.989656 204.399837 
L 566.765166 193.639426 
L 579.101901 182.879016 
L 596.183533 176.90101 
L 610.418227 169.727403 
L 621.805982 163.749397 
L 631.295778 157.771391 
L 648.377411 154.184588 
L 667.357003 139.837374 
L 682.540676 133.859368 
L 706.265166 121.903356 
L 741.377411 102.773737 
L 940.663125 39.406875 
" clip-path="url(#p79f167e51f)" style="fill: none; stroke: #440154; stroke-width: 5; stroke-linecap: round"/>
   </g>
   <g id="PathCollection_7">
    <g clip-path="url(#p79f167e51f)">
     <use xlink:href="#m552601d95c" x="370.32639" y="413.630042" style="fill: #1a1a1a; stroke: #1a1a1a"/>
    </g>
   </g>
   <g id="patch_3">
    <path d="M 103.663125 854.806875 
L 103.663125 39.406875 
" style="fill: none; stroke: #262626; stroke-width: 1.25; stroke-linejoin: miter; stroke-linecap: square"/>
   </g>
   <g id="patch_4">
    <path d="M 940.663125 854.806875 
L 940.663125 39.406875 
" style="fill: none; stroke: #262626; stroke-width: 1.25; stroke-linejoin: miter; stroke-linecap: square"/>
   </g>
   <g id="patch_5">
    <path d="M 103.663125 854.806875 
L 940.663125 854.806875 
" style="fill: none; stroke: #262626; stroke-width: 1.25; stroke-linejoin: miter; stroke-linecap: square"/>
   </g>
   <g id="patch_6">
    <path d="M 103.663125 39.406875 
L 940.663125 39.406875 
" style="fill: none; stroke: #262626; stroke-width: 1.25; stroke-linejoin: miter; stroke-linecap: square"/>
   </g>
   <g id="text_15">
    <text style="fill: #262626; font: 36px 'sans-serif'; text-anchor: middle" x="522.163125" y="33.406875" transform="rotate(-0 522.163125 33.406875)">Figure 5. ALL Cells</text>
   </g>
   <g id="legend_1">
    <g id="patch_7">
     <path d="M 45.163125 1327.790625 
L 787.53375 1327.790625 
Q 794.73375 1327.790625 794.73375 1320.590625 
L 794.73375 961.546875 
Q 794.73375 954.346875 787.53375 954.346875 
L 45.163125 954.346875 
Q 37.963125 954.346875 37.963125 961.546875 
L 37.963125 1320.590625 
Q 37.963125 1327.790625 45.163125 1327.790625 
z
" style="fill: #ffffff; opacity: 0.8; stroke: #cccccc; stroke-linejoin: miter"/>
    </g>
    <g id="line2d_8">
     <path d="M 52.363125 982.37625 
L 88.363125 982.37625 
L 124.363125 982.37625 
" style="fill: none; stroke: #fde725; stroke-width: 5; stroke-linecap: round"/>
    </g>
    <g id="text_16">
     <text style="fill: #262626; font: 36px 'sans-serif'; text-anchor: start" x="153.163125" y="994.97625" transform="rotate(-0 153.163125 994.97625)">All variables (ROC AUC = 0.97)</text>
    </g>
    <g id="line2d_9">
     <path d="M 52.363125 1034.1825 
L 88.363125 1034.1825 
L 124.363125 1034.1825 
" style="fill: none; stroke: #a5db36; stroke-width: 5; stroke-linecap: round"/>
    </g>
    <g id="text_17">
     <text style="fill: #262626; font: 36px 'sans-serif'; text-anchor: start" x="153.163125" y="1046.7825" transform="rotate(-0 153.163125 1046.7825)">NAD(P)H variables (ROC AUC = 0.96)</text>
    </g>
    <g id="line2d_10">
     <path d="M 52.363125 1085.98875 
L 88.363125 1085.98875 
L 124.363125 1085.98875 
" style="fill: none; stroke: #4ac16d; stroke-width: 5; stroke-linecap: round"/>
    </g>
    <g id="text_18">
     <text style="fill: #262626; font: 36px 'sans-serif'; text-anchor: start" x="153.163125" y="1098.58875" transform="rotate(-0 153.163125 1098.58875)">Top four variables (ROC AUC) = 0.96)</text>
    </g>
    <g id="line2d_11">
     <path d="M 52.363125 1137.795 
L 88.363125 1137.795 
L 124.363125 1137.795 
" style="fill: none; stroke: #1f988b; stroke-width: 5; stroke-linecap: round"/>
    </g>
    <g id="text_19">
     <text style="fill: #262626; font: 36px 'sans-serif'; text-anchor: start" x="153.163125" y="1150.395" transform="rotate(-0 153.163125 1150.395)">Top three variables (ROC AUC) = 0.94)</text>
    </g>
    <g id="line2d_12">
     <path d="M 52.363125 1189.60125 
L 88.363125 1189.60125 
L 124.363125 1189.60125 
" style="fill: none; stroke: #2a788e; stroke-width: 5; stroke-linecap: round"/>
    </g>
    <g id="text_20">
     <text style="fill: #262626; font: 36px 'sans-serif'; text-anchor: start" x="153.163125" y="1202.20125" transform="rotate(-0 153.163125 1202.20125)">Top two variables (ROC AUC) = 0.91)</text>
    </g>
    <g id="line2d_13">
     <path d="M 52.363125 1241.4075 
L 88.363125 1241.4075 
L 124.363125 1241.4075 
" style="fill: none; stroke: #414487; stroke-width: 5; stroke-linecap: round"/>
    </g>
    <g id="text_21">
     <text style="fill: #262626; font: 36px 'sans-serif'; text-anchor: start" x="153.163125" y="1254.0075" transform="rotate(-0 153.163125 1254.0075)">Top variable (ROC AUC) = 0.78)</text>
    </g>
    <g id="line2d_14">
     <path d="M 52.363125 1293.21375 
L 88.363125 1293.21375 
L 124.363125 1293.21375 
" style="fill: none; stroke: #440154; stroke-width: 5; stroke-linecap: round"/>
    </g>
    <g id="text_22">
     <text style="fill: #262626; font: 36px 'sans-serif'; text-anchor: start" x="153.163125" y="1305.81375" transform="rotate(-0 153.163125 1305.81375)">Norm. Redox Ratio (ROC AUC) = 0.68)</text>
    </g>
   </g>
  </g>
 </g>
 <defs>
  <clipPath id="p79f167e51f">
   <rect x="103.663125" y="39.406875" width="837" height="815.4"/>
  </clipPath>
 </defs>
</svg>
