<?xml version="1.0" encoding="utf-8" standalone="no"?>
<!DOCTYPE svg PUBLIC "-//W3C//DTD SVG 1.1//EN"
  "http://www.w3.org/Graphics/SVG/1.1/DTD/svg11.dtd">
<svg xmlns:xlink="http://www.w3.org/1999/xlink" width="985.010625pt" height="1334.65875pt" viewBox="0 0 985.010625 1334.65875" xmlns="http://www.w3.org/2000/svg" version="1.1">
 <metadata>
  <rdf:RDF xmlns:dc="http://purl.org/dc/elements/1.1/" xmlns:cc="http://creativecommons.org/ns#" xmlns:rdf="http://www.w3.org/1999/02/22-rdf-syntax-ns#">
   <cc:Work>
    <dc:type rdf:resource="http://purl.org/dc/dcmitype/StillImage"/>
    <dc:date>2022-10-03T15:24:41.026729</dc:date>
    <dc:format>image/svg+xml</dc:format>
    <dc:creator>
     <cc:Agent>
      <dc:title>Matplotlib v3.6.0, https://matplotlib.org/</dc:title>
     </cc:Agent>
    </dc:creator>
   </cc:Work>
  </rdf:RDF>
 </metadata>
 <defs>
  <style type="text/css">*{stroke-linejoin: round; stroke-linecap: butt}</style>
 </defs>
 <g id="figure_1">
  <g id="patch_1">
   <path d="M 0 1334.65875 
L 985.010625 1334.65875 
L 985.010625 0 
L 0 0 
z
" style="fill: #ffffff"/>
  </g>
  <g id="axes_1">
   <g id="patch_2">
    <path d="M 103.663125 854.475 
L 940.663125 854.475 
L 940.663125 39.075 
L 103.663125 39.075 
z
" style="fill: #ffffff"/>
   </g>
   <g id="matplotlib.axis_1">
    <g id="xtick_1">
     <g id="text_1">
      <text style="fill: #262626; font: 36px 'sans-serif'; text-anchor: middle" x="103.663125" y="889.743125" transform="rotate(-0 103.663125 889.743125)">0.0</text>
     </g>
    </g>
    <g id="xtick_2">
     <g id="text_2">
      <text style="fill: #262626; font: 36px 'sans-serif'; text-anchor: middle" x="271.063125" y="889.743125" transform="rotate(-0 271.063125 889.743125)">0.2</text>
     </g>
    </g>
    <g id="xtick_3">
     <g id="text_3">
      <text style="fill: #262626; font: 36px 'sans-serif'; text-anchor: middle" x="438.463125" y="889.743125" transform="rotate(-0 438.463125 889.743125)">0.4</text>
     </g>
    </g>
    <g id="xtick_4">
     <g id="text_4">
      <text style="fill: #262626; font: 36px 'sans-serif'; text-anchor: middle" x="605.863125" y="889.743125" transform="rotate(-0 605.863125 889.743125)">0.6</text>
     </g>
    </g>
    <g id="xtick_5">
     <g id="text_5">
      <text style="fill: #262626; font: 36px 'sans-serif'; text-anchor: middle" x="773.263125" y="889.743125" transform="rotate(-0 773.263125 889.743125)">0.8</text>
     </g>
    </g>
    <g id="xtick_6">
     <g id="text_6">
      <text style="fill: #262626; font: 36px 'sans-serif'; text-anchor: middle" x="940.663125" y="889.743125" transform="rotate(-0 940.663125 889.743125)">1.0</text>
     </g>
    </g>
    <g id="text_7">
     <text style="fill: #262626; font: 36px 'sans-serif'; text-anchor: middle" x="522.163125" y="926.66625" transform="rotate(-0 522.163125 926.66625)">False Positive Rate</text>
    </g>
   </g>
   <g id="matplotlib.axis_2">
    <g id="ytick_1">
     <g id="text_8">
      <text style="fill: #262626; font: 36px 'sans-serif'; text-anchor: end" x="94.163125" y="867.359062" transform="rotate(-0 94.163125 867.359062)">0.0</text>
     </g>
    </g>
    <g id="ytick_2">
     <g id="text_9">
      <text style="fill: #262626; font: 36px 'sans-serif'; text-anchor: end" x="94.163125" y="704.279063" transform="rotate(-0 94.163125 704.279063)">0.2</text>
     </g>
    </g>
    <g id="ytick_3">
     <g id="text_10">
      <text style="fill: #262626; font: 36px 'sans-serif'; text-anchor: end" x="94.163125" y="541.199062" transform="rotate(-0 94.163125 541.199062)">0.4</text>
     </g>
    </g>
    <g id="ytick_4">
     <g id="text_11">
      <text style="fill: #262626; font: 36px 'sans-serif'; text-anchor: end" x="94.163125" y="378.119062" transform="rotate(-0 94.163125 378.119062)">0.6</text>
     </g>
    </g>
    <g id="ytick_5">
     <g id="text_12">
      <text style="fill: #262626; font: 36px 'sans-serif'; text-anchor: end" x="94.163125" y="215.039062" transform="rotate(-0 94.163125 215.039062)">0.8</text>
     </g>
    </g>
    <g id="ytick_6">
     <g id="text_13">
      <text style="fill: #262626; font: 36px 'sans-serif'; text-anchor: end" x="94.163125" y="51.959063" transform="rotate(-0 94.163125 51.959063)">1.0</text>
     </g>
    </g>
    <g id="text_14">
     <text style="fill: #262626; font: 36px 'sans-serif'; text-anchor: middle" x="32.968125" y="446.775" transform="rotate(-90 32.968125 446.775)">True Positive Rate</text>
    </g>
   </g>
   <g id="line2d_1">
    <path d="M 103.663125 854.475 
L 103.663125 685.041234 
L 103.663125 563.260714 
L 103.663125 515.607468 
L 103.663125 441.480195 
L 103.663125 430.890584 
L 103.663125 404.416558 
L 103.663125 362.058117 
L 103.663125 330.289286 
L 103.663125 314.40487 
L 103.663125 287.930844 
L 103.663125 282.636039 
L 103.663125 256.162013 
L 103.663125 245.572403 
L 103.663125 229.687987 
L 107.66791 229.687987 
L 107.66791 208.508766 
L 107.66791 197.919156 
L 111.672694 182.03474 
L 111.672694 139.676299 
L 115.677479 139.676299 
L 115.677479 134.381494 
L 119.682264 134.381494 
L 119.682264 118.497078 
L 123.687048 118.497078 
L 123.687048 113.202273 
L 127.691833 113.202273 
L 131.696618 107.907468 
L 135.701403 107.907468 
L 135.701403 102.612662 
L 139.706187 102.612662 
L 139.706187 97.317857 
L 147.715757 97.317857 
L 147.715757 86.728247 
L 155.725326 86.728247 
L 163.734895 81.433442 
L 167.73968 76.138636 
L 191.768388 76.138636 
L 203.782742 70.843831 
L 207.787527 65.549026 
L 215.797096 65.549026 
L 223.806666 65.549026 
L 227.81145 65.549026 
L 239.825804 65.549026 
L 247.835374 65.549026 
L 251.840158 65.549026 
L 259.849728 60.254221 
L 263.854513 54.959416 
L 287.883221 54.959416 
L 323.926283 54.959416 
L 355.96456 44.369805 
L 468.098532 39.075 
L 940.663125 39.075 
" clip-path="url(#p28c9b635a8)" style="fill: none; stroke: #fde725; stroke-width: 5; stroke-linecap: round"/>
   </g>
   <g id="line2d_2">
    <path d="M 103.663125 854.475 
L 103.663125 600.324351 
L 103.663125 510.312662 
L 103.663125 446.775 
L 103.663125 415.006169 
L 103.663125 377.942532 
L 107.66791 346.173701 
L 107.66791 319.699675 
L 111.672694 309.110065 
L 111.672694 293.225649 
L 111.672694 282.636039 
L 111.672694 266.751623 
L 111.672694 256.162013 
L 111.672694 245.572403 
L 111.672694 229.687987 
L 115.677479 213.803571 
L 115.677479 203.213961 
L 115.677479 187.329545 
L 115.677479 166.150325 
L 115.677479 155.560714 
L 119.682264 155.560714 
L 119.682264 150.265909 
L 123.687048 144.971104 
L 123.687048 134.381494 
L 127.691833 134.381494 
L 127.691833 123.791883 
L 127.691833 102.612662 
L 135.701403 102.612662 
L 139.706187 97.317857 
L 139.706187 92.023052 
L 147.715757 92.023052 
L 151.720541 86.728247 
L 159.730111 86.728247 
L 159.730111 81.433442 
L 167.73968 81.433442 
L 167.73968 76.138636 
L 175.749249 76.138636 
L 199.777958 76.138636 
L 203.782742 65.549026 
L 203.782742 54.959416 
L 207.787527 54.959416 
L 231.816235 54.959416 
L 251.840158 54.959416 
L 275.868867 49.66461 
L 299.897575 49.66461 
L 327.931068 44.369805 
L 347.954991 44.369805 
L 420.041115 39.075 
L 524.165517 39.075 
L 940.663125 39.075 
" clip-path="url(#p28c9b635a8)" style="fill: none; stroke: #a5db36; stroke-width: 5; stroke-linecap: round"/>
   </g>
   <g id="line2d_3">
    <path d="M 103.663125 854.475 
L 107.66791 605.619156 
L 107.66791 515.607468 
L 107.66791 467.954221 
L 111.672694 415.006169 
L 115.677479 383.237338 
L 115.677479 377.942532 
L 115.677479 356.763312 
L 119.682264 330.289286 
L 119.682264 303.81526 
L 119.682264 298.520455 
L 119.682264 287.930844 
L 119.682264 282.636039 
L 119.682264 266.751623 
L 123.687048 245.572403 
L 127.691833 240.277597 
L 131.696618 229.687987 
L 135.701403 213.803571 
L 135.701403 203.213961 
L 135.701403 197.919156 
L 139.706187 197.919156 
L 139.706187 187.329545 
L 151.720541 182.03474 
L 151.720541 171.44513 
L 151.720541 139.676299 
L 155.725326 139.676299 
L 155.725326 123.791883 
L 159.730111 123.791883 
L 159.730111 107.907468 
L 159.730111 86.728247 
L 159.730111 76.138636 
L 163.734895 76.138636 
L 171.744465 70.843831 
L 187.763603 70.843831 
L 195.773173 70.843831 
L 203.782742 70.843831 
L 203.782742 65.549026 
L 207.787527 65.549026 
L 215.797096 60.254221 
L 223.806666 60.254221 
L 231.816235 60.254221 
L 239.825804 54.959416 
L 243.830589 54.959416 
L 275.868867 54.959416 
L 283.878436 54.959416 
L 315.916714 54.959416 
L 339.945422 49.66461 
L 371.983699 44.369805 
L 448.074608 44.369805 
L 940.663125 39.075 
" clip-path="url(#p28c9b635a8)" style="fill: none; stroke: #4ac16d; stroke-width: 5; stroke-linecap: round"/>
   </g>
   <g id="line2d_4">
    <path d="M 103.663125 854.475 
L 107.66791 616.208766 
L 107.66791 536.786688 
L 111.672694 494.428247 
L 111.672694 473.249026 
L 111.672694 436.18539 
L 115.677479 383.237338 
L 115.677479 362.058117 
L 119.682264 335.584091 
L 127.691833 319.699675 
L 127.691833 303.81526 
L 131.696618 298.520455 
L 135.701403 282.636039 
L 135.701403 277.341234 
L 139.706187 272.046429 
L 139.706187 250.867208 
L 143.710972 234.982792 
L 147.715757 234.982792 
L 151.720541 229.687987 
L 151.720541 213.803571 
L 155.725326 208.508766 
L 159.730111 197.919156 
L 159.730111 187.329545 
L 159.730111 171.44513 
L 159.730111 155.560714 
L 159.730111 144.971104 
L 159.730111 129.086688 
L 163.734895 123.791883 
L 163.734895 86.728247 
L 175.749249 86.728247 
L 179.754034 81.433442 
L 187.763603 81.433442 
L 195.773173 81.433442 
L 203.782742 81.433442 
L 207.787527 76.138636 
L 215.797096 76.138636 
L 215.797096 70.843831 
L 227.81145 70.843831 
L 235.82102 70.843831 
L 235.82102 65.549026 
L 239.825804 65.549026 
L 247.835374 65.549026 
L 251.840158 65.549026 
L 275.868867 65.549026 
L 287.883221 65.549026 
L 295.89279 60.254221 
L 303.902359 60.254221 
L 335.940637 60.254221 
L 355.96456 60.254221 
L 420.041115 60.254221 
L 516.155948 54.959416 
L 940.663125 39.075 
" clip-path="url(#p28c9b635a8)" style="fill: none; stroke: #1f988b; stroke-width: 5; stroke-linecap: round"/>
   </g>
   <g id="line2d_5">
    <path d="M 103.663125 854.475 
L 119.682264 531.491883 
L 123.687048 473.249026 
L 123.687048 446.775 
L 123.687048 383.237338 
L 123.687048 356.763312 
L 127.691833 340.878896 
L 127.691833 319.699675 
L 131.696618 298.520455 
L 131.696618 287.930844 
L 135.701403 277.341234 
L 139.706187 272.046429 
L 143.710972 250.867208 
L 143.710972 240.277597 
L 143.710972 224.393182 
L 147.715757 219.098377 
L 151.720541 219.098377 
L 155.725326 213.803571 
L 155.725326 208.508766 
L 159.730111 203.213961 
L 159.730111 171.44513 
L 159.730111 160.855519 
L 159.730111 144.971104 
L 163.734895 134.381494 
L 163.734895 113.202273 
L 171.744465 107.907468 
L 171.744465 97.317857 
L 175.749249 97.317857 
L 175.749249 86.728247 
L 183.758819 86.728247 
L 183.758819 81.433442 
L 187.763603 81.433442 
L 187.763603 76.138636 
L 195.773173 70.843831 
L 207.787527 70.843831 
L 223.806666 70.843831 
L 235.82102 70.843831 
L 239.825804 65.549026 
L 243.830589 65.549026 
L 255.844943 65.549026 
L 271.864082 65.549026 
L 275.868867 65.549026 
L 307.907144 65.549026 
L 375.988484 65.549026 
L 444.069824 60.254221 
L 940.663125 39.075 
" clip-path="url(#p28c9b635a8)" style="fill: none; stroke: #2a788e; stroke-width: 5; stroke-linecap: round"/>
   </g>
   <g id="line2d_6">
    <path d="M 103.663125 854.475 
L 143.710972 340.878896 
L 151.720541 314.40487 
L 151.720541 298.520455 
L 151.720541 277.341234 
L 151.720541 266.751623 
L 151.720541 234.982792 
L 151.720541 224.393182 
L 151.720541 219.098377 
L 151.720541 208.508766 
L 151.720541 197.919156 
L 159.730111 197.919156 
L 159.730111 187.329545 
L 159.730111 182.03474 
L 159.730111 171.44513 
L 163.734895 171.44513 
L 163.734895 166.150325 
L 163.734895 155.560714 
L 171.744465 155.560714 
L 171.744465 150.265909 
L 183.758819 150.265909 
L 183.758819 134.381494 
L 187.763603 118.497078 
L 191.768388 118.497078 
L 191.768388 107.907468 
L 199.777958 102.612662 
L 199.777958 92.023052 
L 207.787527 92.023052 
L 223.806666 92.023052 
L 227.81145 86.728247 
L 235.82102 86.728247 
L 239.825804 81.433442 
L 239.825804 70.843831 
L 243.830589 70.843831 
L 263.854513 70.843831 
L 940.663125 39.075 
" clip-path="url(#p28c9b635a8)" style="fill: none; stroke: #414487; stroke-width: 5; stroke-linecap: round"/>
   </g>
   <g id="line2d_7">
    <path d="M 103.663125 854.475 
L 103.663125 828.000974 
L 103.663125 796.232143 
L 103.663125 759.168506 
L 107.66791 753.873701 
L 107.66791 727.399675 
L 107.66791 722.10487 
L 107.66791 711.51526 
L 107.66791 695.630844 
L 107.66791 690.336039 
L 107.66791 669.156818 
L 107.66791 647.977597 
L 107.66791 632.093182 
L 107.66791 626.798377 
L 107.66791 616.208766 
L 111.672694 610.913961 
L 111.672694 600.324351 
L 111.672694 584.439935 
L 111.672694 568.555519 
L 115.677479 557.965909 
L 115.677479 552.671104 
L 123.687048 552.671104 
L 131.696618 542.081494 
L 135.701403 536.786688 
L 135.701403 526.197078 
L 139.706187 526.197078 
L 139.706187 515.607468 
L 143.710972 515.607468 
L 147.715757 510.312662 
L 147.715757 505.017857 
L 155.725326 499.723052 
L 167.73968 489.133442 
L 167.73968 478.543831 
L 167.73968 473.249026 
L 175.749249 473.249026 
L 179.754034 467.954221 
L 179.754034 457.36461 
L 183.758819 457.36461 
L 187.763603 446.775 
L 191.768388 441.480195 
L 195.773173 441.480195 
L 211.792312 430.890584 
L 223.806666 430.890584 
L 231.816235 425.595779 
L 247.835374 404.416558 
L 259.849728 388.532143 
L 263.854513 388.532143 
L 267.859297 377.942532 
L 283.878436 367.352922 
L 295.89279 356.763312 
L 307.907144 356.763312 
L 307.907144 351.468506 
L 315.916714 351.468506 
L 327.931068 340.878896 
L 335.940637 340.878896 
L 343.950206 335.584091 
L 355.96456 330.289286 
L 359.969345 309.110065 
L 367.978914 309.110065 
L 371.983699 298.520455 
L 375.988484 293.225649 
L 383.998053 282.636039 
L 396.012407 277.341234 
L 400.017192 266.751623 
L 412.031546 266.751623 
L 420.041115 261.456818 
L 424.0459 256.162013 
L 432.055469 234.982792 
L 448.074608 229.687987 
L 452.079393 219.098377 
L 468.098532 219.098377 
L 476.108101 208.508766 
L 492.12724 192.624351 
L 512.151163 182.03474 
L 516.155948 182.03474 
L 532.175087 176.739935 
L 560.20858 160.855519 
L 564.213364 155.560714 
L 576.227718 139.676299 
L 592.246857 134.381494 
L 612.270781 123.791883 
L 632.294704 123.791883 
L 656.323412 123.791883 
L 688.36169 123.791883 
L 720.399967 107.907468 
L 748.43346 102.612662 
L 788.481307 76.138636 
L 828.529154 60.254221 
L 864.572216 54.959416 
L 896.610493 49.66461 
L 940.663125 39.075 
" clip-path="url(#p28c9b635a8)" style="fill: none; stroke: #440154; stroke-width: 5; stroke-linecap: round"/>
   </g>
   <g id="patch_3">
    <path d="M 103.663125 854.475 
L 103.663125 39.075 
" style="fill: none; stroke: #262626; stroke-width: 1.25; stroke-linejoin: miter; stroke-linecap: square"/>
   </g>
   <g id="patch_4">
    <path d="M 940.663125 854.475 
L 940.663125 39.075 
" style="fill: none; stroke: #262626; stroke-width: 1.25; stroke-linejoin: miter; stroke-linecap: square"/>
   </g>
   <g id="patch_5">
    <path d="M 103.663125 854.475 
L 940.663125 854.475 
" style="fill: none; stroke: #262626; stroke-width: 1.25; stroke-linejoin: miter; stroke-linecap: square"/>
   </g>
   <g id="patch_6">
    <path d="M 103.663125 39.075 
L 940.663125 39.075 
" style="fill: none; stroke: #262626; stroke-width: 1.25; stroke-linejoin: miter; stroke-linecap: square"/>
   </g>
   <g id="text_15">
    <text style="fill: #262626; font: 36px 'sans-serif'; text-anchor: middle" x="522.163125" y="33.075" transform="rotate(-0 522.163125 33.075)">Figure 2. Bcells</text>
   </g>
   <g id="legend_1">
    <g id="patch_7">
     <path d="M 45.163125 1327.45875 
L 970.610625 1327.45875 
Q 977.810625 1327.45875 977.810625 1320.25875 
L 977.810625 961.215 
Q 977.810625 954.015 970.610625 954.015 
L 45.163125 954.015 
Q 37.963125 954.015 37.963125 961.215 
L 37.963125 1320.25875 
Q 37.963125 1327.45875 45.163125 1327.45875 
z
" style="fill: #ffffff; opacity: 0.8; stroke: #cccccc; stroke-linejoin: miter"/>
    </g>
    <g id="line2d_8">
     <path d="M 52.363125 982.044375 
L 88.363125 982.044375 
L 124.363125 982.044375 
" style="fill: none; stroke: #fde725; stroke-width: 5; stroke-linecap: round"/>
    </g>
    <g id="text_16">
     <text style="fill: #262626; font: 36px 'sans-serif'; text-anchor: start" x="153.163125" y="994.644375" transform="rotate(-0 153.163125 994.644375)">All variables (ROC AUC = 0.99)</text>
    </g>
    <g id="line2d_9">
     <path d="M 52.363125 1033.850625 
L 88.363125 1033.850625 
L 124.363125 1033.850625 
" style="fill: none; stroke: #a5db36; stroke-width: 5; stroke-linecap: round"/>
    </g>
    <g id="text_17">
     <text style="fill: #262626; font: 36px 'sans-serif'; text-anchor: start" x="153.163125" y="1046.450625" transform="rotate(-0 153.163125 1046.450625)">NAD(P)H variables + Cell Size (ROC AUC = 0.99)</text>
    </g>
    <g id="line2d_10">
     <path d="M 52.363125 1085.656875 
L 88.363125 1085.656875 
L 124.363125 1085.656875 
" style="fill: none; stroke: #4ac16d; stroke-width: 5; stroke-linecap: round"/>
    </g>
    <g id="text_18">
     <text style="fill: #262626; font: 36px 'sans-serif'; text-anchor: start" x="153.163125" y="1098.256875" transform="rotate(-0 153.163125 1098.256875)">Top four variables (ROC AUC) = 0.97)</text>
    </g>
    <g id="line2d_11">
     <path d="M 52.363125 1137.463125 
L 88.363125 1137.463125 
L 124.363125 1137.463125 
" style="fill: none; stroke: #1f988b; stroke-width: 5; stroke-linecap: round"/>
    </g>
    <g id="text_19">
     <text style="fill: #262626; font: 36px 'sans-serif'; text-anchor: start" x="153.163125" y="1150.063125" transform="rotate(-0 153.163125 1150.063125)">Top three variables (ROC AUC) = 0.96)</text>
    </g>
    <g id="line2d_12">
     <path d="M 52.363125 1189.269375 
L 88.363125 1189.269375 
L 124.363125 1189.269375 
" style="fill: none; stroke: #2a788e; stroke-width: 5; stroke-linecap: round"/>
    </g>
    <g id="text_20">
     <text style="fill: #262626; font: 36px 'sans-serif'; text-anchor: start" x="153.163125" y="1201.869375" transform="rotate(-0 153.163125 1201.869375)">Top two variables (ROC AUC) = 0.95)</text>
    </g>
    <g id="line2d_13">
     <path d="M 52.363125 1241.075625 
L 88.363125 1241.075625 
L 124.363125 1241.075625 
" style="fill: none; stroke: #414487; stroke-width: 5; stroke-linecap: round"/>
    </g>
    <g id="text_21">
     <text style="fill: #262626; font: 36px 'sans-serif'; text-anchor: start" x="153.163125" y="1253.675625" transform="rotate(-0 153.163125 1253.675625)">Top variable (ROC AUC) = 0.94)</text>
    </g>
    <g id="line2d_14">
     <path d="M 52.363125 1292.881875 
L 88.363125 1292.881875 
L 124.363125 1292.881875 
" style="fill: none; stroke: #440154; stroke-width: 5; stroke-linecap: round"/>
    </g>
    <g id="text_22">
     <text style="fill: #262626; font: 36px 'sans-serif'; text-anchor: start" x="153.163125" y="1305.481875" transform="rotate(-0 153.163125 1305.481875)">Norm. Redox Ratio + Cell Size (ROC AUC) = 0.77)</text>
    </g>
   </g>
  </g>
 </g>
 <defs>
  <clipPath id="p28c9b635a8">
   <rect x="103.663125" y="39.075" width="837" height="815.4"/>
  </clipPath>
 </defs>
</svg>
