<?xml version="1.0" encoding="utf-8" standalone="no"?>
<!DOCTYPE svg PUBLIC "-//W3C//DTD SVG 1.1//EN"
  "http://www.w3.org/Graphics/SVG/1.1/DTD/svg11.dtd">
<svg xmlns:xlink="http://www.w3.org/1999/xlink" width="985.010625pt" height="1334.990625pt" viewBox="0 0 985.010625 1334.990625" xmlns="http://www.w3.org/2000/svg" version="1.1">
 <metadata>
  <rdf:RDF xmlns:dc="http://purl.org/dc/elements/1.1/" xmlns:cc="http://creativecommons.org/ns#" xmlns:rdf="http://www.w3.org/1999/02/22-rdf-syntax-ns#">
   <cc:Work>
    <dc:type rdf:resource="http://purl.org/dc/dcmitype/StillImage"/>
    <dc:date>2022-10-03T15:28:01.871548</dc:date>
    <dc:format>image/svg+xml</dc:format>
    <dc:creator>
     <cc:Agent>
      <dc:title>Matplotlib v3.6.0, https://matplotlib.org/</dc:title>
     </cc:Agent>
    </dc:creator>
   </cc:Work>
  </rdf:RDF>
 </metadata>
 <defs>
  <style type="text/css">*{stroke-linejoin: round; stroke-linecap: butt}</style>
 </defs>
 <g id="figure_1">
  <g id="patch_1">
   <path d="M 0 1334.990625 
L 985.010625 1334.990625 
L 985.010625 0 
L 0 0 
z
" style="fill: #ffffff"/>
  </g>
  <g id="axes_1">
   <g id="patch_2">
    <path d="M 103.663125 854.806875 
L 940.663125 854.806875 
L 940.663125 39.406875 
L 103.663125 39.406875 
z
" style="fill: #ffffff"/>
   </g>
   <g id="matplotlib.axis_1">
    <g id="xtick_1">
     <g id="text_1">
      <text style="fill: #262626; font: 36px 'sans-serif'; text-anchor: middle" x="103.663125" y="890.075" transform="rotate(-0 103.663125 890.075)">0.0</text>
     </g>
    </g>
    <g id="xtick_2">
     <g id="text_2">
      <text style="fill: #262626; font: 36px 'sans-serif'; text-anchor: middle" x="271.063125" y="890.075" transform="rotate(-0 271.063125 890.075)">0.2</text>
     </g>
    </g>
    <g id="xtick_3">
     <g id="text_3">
      <text style="fill: #262626; font: 36px 'sans-serif'; text-anchor: middle" x="438.463125" y="890.075" transform="rotate(-0 438.463125 890.075)">0.4</text>
     </g>
    </g>
    <g id="xtick_4">
     <g id="text_4">
      <text style="fill: #262626; font: 36px 'sans-serif'; text-anchor: middle" x="605.863125" y="890.075" transform="rotate(-0 605.863125 890.075)">0.6</text>
     </g>
    </g>
    <g id="xtick_5">
     <g id="text_5">
      <text style="fill: #262626; font: 36px 'sans-serif'; text-anchor: middle" x="773.263125" y="890.075" transform="rotate(-0 773.263125 890.075)">0.8</text>
     </g>
    </g>
    <g id="xtick_6">
     <g id="text_6">
      <text style="fill: #262626; font: 36px 'sans-serif'; text-anchor: middle" x="940.663125" y="890.075" transform="rotate(-0 940.663125 890.075)">1.0</text>
     </g>
    </g>
    <g id="text_7">
     <text style="fill: #262626; font: 36px 'sans-serif'; text-anchor: middle" x="522.163125" y="926.998125" transform="rotate(-0 522.163125 926.998125)">False Positive Rate</text>
    </g>
   </g>
   <g id="matplotlib.axis_2">
    <g id="ytick_1">
     <g id="text_8">
      <text style="fill: #262626; font: 36px 'sans-serif'; text-anchor: end" x="94.163125" y="867.690938" transform="rotate(-0 94.163125 867.690938)">0.0</text>
     </g>
    </g>
    <g id="ytick_2">
     <g id="text_9">
      <text style="fill: #262626; font: 36px 'sans-serif'; text-anchor: end" x="94.163125" y="704.610938" transform="rotate(-0 94.163125 704.610938)">0.2</text>
     </g>
    </g>
    <g id="ytick_3">
     <g id="text_10">
      <text style="fill: #262626; font: 36px 'sans-serif'; text-anchor: end" x="94.163125" y="541.530938" transform="rotate(-0 94.163125 541.530938)">0.4</text>
     </g>
    </g>
    <g id="ytick_4">
     <g id="text_11">
      <text style="fill: #262626; font: 36px 'sans-serif'; text-anchor: end" x="94.163125" y="378.450938" transform="rotate(-0 94.163125 378.450938)">0.6</text>
     </g>
    </g>
    <g id="ytick_5">
     <g id="text_12">
      <text style="fill: #262626; font: 36px 'sans-serif'; text-anchor: end" x="94.163125" y="215.370938" transform="rotate(-0 94.163125 215.370938)">0.8</text>
     </g>
    </g>
    <g id="ytick_6">
     <g id="text_13">
      <text style="fill: #262626; font: 36px 'sans-serif'; text-anchor: end" x="94.163125" y="52.290938" transform="rotate(-0 94.163125 52.290938)">1.0</text>
     </g>
    </g>
    <g id="text_14">
     <text style="fill: #262626; font: 36px 'sans-serif'; text-anchor: middle" x="32.968125" y="447.106875" transform="rotate(-90 32.968125 447.106875)">True Positive Rate</text>
    </g>
   </g>
   <g id="line2d_1">
    <path d="M 103.663125 854.806875 
L 103.663125 687.25893 
L 103.663125 623.286078 
L 103.663125 558.297784 
L 103.663125 518.695542 
L 103.663125 481.124185 
L 103.663125 452.691807 
L 103.663125 431.367523 
L 103.663125 414.105007 
L 103.663125 397.857934 
L 103.663125 384.657186 
L 103.663125 360.286576 
L 103.663125 347.085829 
L 103.663125 334.900524 
L 103.663125 319.668892 
L 104.214145 314.591682 
L 104.214145 300.375493 
L 104.214145 292.251956 
L 104.214145 278.035767 
L 104.765166 269.91223 
L 106.418227 260.773251 
L 106.969247 257.726925 
L 107.520268 251.634272 
L 109.173329 239.448967 
L 109.173329 230.309988 
L 109.173329 225.232778 
L 110.27537 221.171009 
L 111.928431 213.047473 
L 112.479452 210.001146 
L 112.479452 199.846726 
L 113.030472 193.754073 
L 114.132513 190.707747 
L 114.132513 188.676863 
L 114.683533 185.630536 
L 116.887615 185.630536 
L 117.438635 185.630536 
L 117.989656 180.553326 
L 118.540676 176.491557 
L 118.540676 172.429789 
L 119.642717 167.352579 
L 121.846798 162.275368 
L 124.05088 160.244484 
L 125.703941 157.198158 
L 127.357003 155.167274 
L 129.010064 151.105505 
L 129.561084 148.059179 
L 130.663125 147.043737 
L 136.173329 145.012853 
L 138.377411 141.966526 
L 139.479452 139.935642 
L 140.030472 134.858432 
L 141.683533 132.827547 
L 142.785574 131.812105 
L 143.887615 129.781221 
L 146.642717 127.750337 
L 147.744758 122.673127 
L 149.397819 122.673127 
L 150.49986 117.595916 
L 152.152921 111.503264 
L 153.805982 110.487821 
L 157.112105 107.441495 
L 158.214145 103.379727 
L 158.765166 101.348843 
L 160.418227 99.317958 
L 163.173329 99.317958 
L 164.82639 98.302516 
L 170.887615 96.271632 
L 173.091696 95.25619 
L 178.601901 91.194422 
L 183.561084 90.17898 
L 187.418227 86.117211 
L 190.724349 81.040001 
L 194.581492 80.024559 
L 198.438635 77.993675 
L 205.05088 74.947348 
L 210.561084 70.88558 
L 217.173329 69.870138 
L 224.887615 68.854696 
L 233.703941 68.854696 
L 242.520268 67.839254 
L 249.683533 66.823811 
L 254.091696 65.808369 
L 260.703941 64.792927 
L 271.173329 63.777485 
L 282.744758 62.762043 
L 293.765166 60.731159 
L 306.989656 57.684833 
L 323.520268 53.623064 
L 340.601901 49.561296 
L 359.887615 49.561296 
L 391.295778 47.530412 
L 421.601901 45.499528 
L 472.846798 44.484085 
L 522.989656 43.468643 
L 597.377411 43.468643 
L 704.82639 42.453201 
L 940.663125 39.406875 
" clip-path="url(#p4a1cf8b15c)" style="fill: none; stroke: #fde725; stroke-width: 5; stroke-linecap: round"/>
   </g>
   <g id="PathCollection_1">
    <defs>
     <path id="m56d3867f8d" d="M 0 11.18034 
C 2.965061 11.18034 5.80908 10.002309 7.905694 7.905694 
C 10.002309 5.80908 11.18034 2.965061 11.18034 0 
C 11.18034 -2.965061 10.002309 -5.80908 7.905694 -7.905694 
C 5.80908 -10.002309 2.965061 -11.18034 0 -11.18034 
C -2.965061 -11.18034 -5.80908 -10.002309 -7.905694 -7.905694 
C -10.002309 -5.80908 -11.18034 -2.965061 -11.18034 0 
C -11.18034 2.965061 -10.002309 5.80908 -7.905694 7.905694 
C -5.80908 10.002309 -2.965061 11.18034 0 11.18034 
z
" style="stroke: #1a1a1a"/>
    </defs>
    <g clip-path="url(#p4a1cf8b15c)">
     <use xlink:href="#m56d3867f8d" x="129.561084" y="148.059179" style="fill: #1a1a1a; stroke: #1a1a1a"/>
    </g>
   </g>
   <g id="line2d_2">
    <path d="M 103.663125 854.806875 
L 103.663125 643.59492 
L 104.214145 561.34411 
L 104.214145 501.433027 
L 105.316186 465.892554 
L 105.867207 430.35208 
L 106.418227 418.166775 
L 106.969247 401.919702 
L 106.969247 393.796165 
L 108.622309 383.641744 
L 109.173329 365.363787 
L 109.724349 348.101271 
L 110.27537 343.024061 
L 110.82639 329.823313 
L 111.377411 319.668892 
L 111.377411 312.560798 
L 112.479452 301.390935 
L 113.030472 297.329166 
L 113.030472 293.267398 
L 113.581492 289.20563 
L 113.581492 278.035767 
L 113.581492 271.943114 
L 113.581492 267.881346 
L 114.132513 260.773251 
L 114.132513 258.742367 
L 115.234554 254.680599 
L 115.785574 247.572504 
L 116.336594 244.526178 
L 116.336594 239.448967 
L 117.989656 235.387199 
L 118.540676 231.32543 
L 118.540676 224.217336 
L 120.193737 222.186452 
L 123.49986 218.124683 
L 125.152921 214.062915 
L 126.805982 201.87761 
L 129.561084 199.846726 
L 130.112105 196.800399 
L 130.112105 194.769515 
L 133.418227 194.769515 
L 135.622309 193.754073 
L 138.377411 188.676863 
L 140.030472 186.645978 
L 141.132513 180.553326 
L 141.132513 178.522442 
L 142.785574 174.460673 
L 144.438635 174.460673 
L 144.989656 172.429789 
L 145.540676 168.368021 
L 148.846798 164.306252 
L 151.601901 162.275368 
L 153.805982 162.275368 
L 156.561084 159.229042 
L 157.663125 158.2136 
L 158.765166 156.182716 
L 160.969247 154.151831 
L 163.173329 151.105505 
L 163.173329 149.074621 
L 164.82639 146.028295 
L 167.030472 139.935642 
L 168.132513 138.9202 
L 170.887615 134.858432 
L 171.989656 133.84299 
L 174.193737 130.796663 
L 175.295778 128.765779 
L 179.703941 127.750337 
L 184.112105 125.719453 
L 185.214145 121.657684 
L 187.418227 119.6268 
L 192.377411 116.580474 
L 194.581492 116.580474 
L 195.132513 115.565032 
L 198.989656 115.565032 
L 202.846798 114.54959 
L 207.805982 113.534148 
L 210.561084 110.487821 
L 215.520268 106.426053 
L 219.377411 105.410611 
L 222.683533 100.333401 
L 230.397819 96.271632 
L 235.908023 94.240748 
L 239.214145 92.209864 
L 244.173329 91.194422 
L 249.683533 89.163538 
L 254.091696 86.117211 
L 262.357003 85.101769 
L 270.622309 79.009117 
L 286.05088 79.009117 
L 303.683533 74.947348 
L 316.357003 72.916464 
L 333.989656 71.901022 
L 355.479452 66.823811 
L 379.724349 64.792927 
L 417.744758 61.746601 
L 451.908023 54.638506 
L 507.561084 50.576738 
L 577.540676 48.545854 
L 694.357003 44.484085 
L 940.663125 39.406875 
" clip-path="url(#p4a1cf8b15c)" style="fill: none; stroke: #a5db36; stroke-width: 5; stroke-linecap: round"/>
   </g>
   <g id="PathCollection_2">
    <g clip-path="url(#p4a1cf8b15c)">
     <use xlink:href="#m56d3867f8d" x="144.989656" y="172.429789" style="fill: #1a1a1a; stroke: #1a1a1a"/>
    </g>
   </g>
   <g id="line2d_3">
    <path d="M 103.663125 854.806875 
L 103.663125 627.347846 
L 103.663125 564.390437 
L 103.663125 519.710985 
L 104.765166 483.155069 
L 104.765166 454.722691 
L 105.316186 442.537386 
L 105.316186 418.166775 
L 105.867207 401.919702 
L 108.071288 387.703513 
L 108.071288 371.456439 
L 109.173329 355.209366 
L 109.724349 346.070387 
L 109.724349 338.962292 
L 109.724349 330.838755 
L 110.82639 319.668892 
L 112.479452 312.560798 
L 112.479452 302.406377 
L 113.581492 292.251956 
L 114.132513 288.190188 
L 114.132513 273.973998 
L 115.785574 268.896788 
L 115.785574 264.835019 
L 115.785574 252.649714 
L 116.336594 245.54162 
L 117.438635 236.402641 
L 120.193737 231.32543 
L 120.193737 229.294546 
L 120.744758 227.263662 
L 120.744758 222.186452 
L 120.744758 220.155567 
L 121.846798 220.155567 
L 121.846798 216.093799 
L 124.05088 212.032031 
L 126.254962 211.016589 
L 127.357003 208.985704 
L 127.357003 203.908494 
L 128.459043 197.815841 
L 130.112105 193.754073 
L 131.214145 191.723189 
L 132.316186 186.645978 
L 132.316186 181.568768 
L 133.418227 181.568768 
L 135.622309 179.537884 
L 137.82639 176.491557 
L 140.581492 172.429789 
L 142.234554 170.398905 
L 143.336594 168.368021 
L 143.887615 165.321694 
L 146.642717 164.306252 
L 149.397819 158.2136 
L 151.601901 156.182716 
L 152.703941 154.151831 
L 154.357003 153.136389 
L 156.561084 151.105505 
L 157.663125 150.090063 
L 159.316186 148.059179 
L 162.071288 145.012853 
L 163.724349 142.981968 
L 165.928431 140.951084 
L 170.336594 138.9202 
L 173.091696 135.873874 
L 173.091696 130.796663 
L 175.846798 130.796663 
L 180.805982 128.765779 
L 183.010064 126.734895 
L 185.214145 125.719453 
L 187.418227 123.688569 
L 192.928431 121.657684 
L 195.132513 121.657684 
L 196.785574 118.611358 
L 202.295778 114.54959 
L 205.601901 112.518706 
L 207.254962 110.487821 
L 214.418227 107.441495 
L 219.377411 106.426053 
L 225.438635 106.426053 
L 235.908023 103.379727 
L 239.765166 101.348843 
L 245.27537 100.333401 
L 256.295778 99.317958 
L 258.49986 96.271632 
L 270.622309 93.225306 
L 280.540676 92.209864 
L 289.357003 89.163538 
L 303.132513 86.117211 
L 315.254962 79.009117 
L 342.254962 75.96279 
L 364.295778 73.931906 
L 381.377411 69.870138 
L 407.27537 64.792927 
L 443.091696 61.746601 
L 476.703941 61.746601 
L 519.683533 59.715717 
L 577.540676 56.669391 
L 676.173329 49.561296 
L 940.663125 39.406875 
" clip-path="url(#p4a1cf8b15c)" style="fill: none; stroke: #4ac16d; stroke-width: 5; stroke-linecap: round"/>
   </g>
   <g id="PathCollection_3">
    <g clip-path="url(#p4a1cf8b15c)">
     <use xlink:href="#m56d3867f8d" x="140.581492" y="172.429789" style="fill: #1a1a1a; stroke: #1a1a1a"/>
    </g>
   </g>
   <g id="line2d_4">
    <path d="M 103.663125 854.806875 
L 104.214145 679.135393 
L 104.214145 622.270636 
L 104.214145 590.791931 
L 104.214145 565.405879 
L 104.765166 535.958058 
L 105.316186 512.60289 
L 105.316186 497.371259 
L 106.418227 481.124185 
L 106.969247 465.892554 
L 108.622309 449.64548 
L 109.173329 427.305754 
L 109.724349 418.166775 
L 110.27537 408.012354 
L 110.27537 395.827049 
L 111.928431 390.749839 
L 113.030472 382.626302 
L 113.581492 366.379229 
L 114.683533 353.178481 
L 116.336594 348.101271 
L 117.438635 336.931408 
L 117.989656 332.86964 
L 119.642717 323.730661 
L 119.642717 309.514472 
L 120.193737 302.406377 
L 121.846798 297.329166 
L 122.397819 292.251956 
L 122.397819 291.236514 
L 122.948839 285.143861 
L 122.948839 280.066651 
L 122.948839 278.035767 
L 123.49986 273.973998 
L 125.152921 270.927672 
L 126.254962 267.881346 
L 129.010064 264.835019 
L 129.561084 261.788693 
L 130.112105 257.726925 
L 130.663125 255.696041 
L 131.765166 250.61883 
L 131.765166 246.557062 
L 133.418227 239.448967 
L 136.724349 238.433525 
L 138.928431 236.402641 
L 142.234554 233.356315 
L 143.887615 230.309988 
L 146.091696 229.294546 
L 150.49986 225.232778 
L 152.703941 221.171009 
L 157.112105 219.140125 
L 159.316186 217.109241 
L 160.969247 215.078357 
L 162.622309 211.016589 
L 164.27537 210.001146 
L 166.479452 207.970262 
L 167.030472 206.95482 
L 169.785574 201.87761 
L 171.438635 198.831283 
L 173.091696 194.769515 
L 174.744758 191.723189 
L 178.601901 188.676863 
L 181.357003 185.630536 
L 186.867207 184.615094 
L 190.173329 177.507 
L 194.581492 169.383463 
L 197.887615 163.29081 
L 203.397819 162.275368 
L 205.05088 160.244484 
L 208.357003 155.167274 
L 212.214145 152.120947 
L 216.071288 148.059179 
L 220.479452 145.012853 
L 223.785574 138.9202 
L 228.193737 132.827547 
L 228.744758 129.781221 
L 235.908023 128.765779 
L 241.969247 125.719453 
L 249.132513 123.688569 
L 255.744758 119.6268 
L 261.254962 118.611358 
L 272.27537 117.595916 
L 281.642717 116.580474 
L 288.805982 113.534148 
L 299.82639 108.456937 
L 308.091696 106.426053 
L 316.908023 104.395169 
L 329.030472 96.271632 
L 339.49986 94.240748 
L 356.030472 90.17898 
L 371.459043 88.148095 
L 391.846798 84.086327 
L 415.540676 80.024559 
L 438.683533 79.009117 
L 468.438635 73.931906 
L 505.908023 68.854696 
L 550.540676 67.839254 
L 599.030472 60.731159 
L 659.091696 54.638506 
L 770.397819 47.530412 
L 940.663125 39.406875 
" clip-path="url(#p4a1cf8b15c)" style="fill: none; stroke: #1f988b; stroke-width: 5; stroke-linecap: round"/>
   </g>
   <g id="PathCollection_4">
    <g clip-path="url(#p4a1cf8b15c)">
     <use xlink:href="#m56d3867f8d" x="157.112105" y="219.140125" style="fill: #1a1a1a; stroke: #1a1a1a"/>
    </g>
   </g>
   <g id="line2d_5">
    <path d="M 103.663125 854.806875 
L 104.214145 679.135393 
L 104.214145 627.347846 
L 104.214145 596.884584 
L 105.316186 574.544858 
L 106.418227 566.421321 
L 106.969247 554.236016 
L 108.622309 550.174247 
L 109.173329 540.019826 
L 110.27537 529.865406 
L 112.479452 519.710985 
L 115.785574 507.525679 
L 115.785574 497.371259 
L 116.887615 490.263164 
L 118.540676 481.124185 
L 119.642717 473.000648 
L 119.642717 464.877112 
L 120.744758 461.830785 
L 122.397819 457.769017 
L 123.49986 447.614596 
L 125.152921 436.444733 
L 127.357003 431.367523 
L 129.010064 428.321196 
L 130.663125 422.228544 
L 131.765166 414.105007 
L 133.418227 405.98147 
L 136.173329 397.857934 
L 137.82639 390.749839 
L 139.479452 386.688071 
L 141.132513 379.579976 
L 142.234554 375.518208 
L 144.438635 369.425555 
L 147.744758 362.31746 
L 150.49986 355.209366 
L 151.601901 348.101271 
L 153.254962 340.993176 
L 154.357003 337.94685 
L 156.561084 333.885082 
L 157.112105 331.854198 
L 158.765166 327.792429 
L 160.969247 325.761545 
L 162.622309 323.730661 
L 165.377411 322.715219 
L 167.581492 316.622566 
L 172.540676 312.560798 
L 174.193737 309.514472 
L 175.846798 305.452703 
L 179.703941 299.360051 
L 181.357003 292.251956 
L 183.561084 291.236514 
L 186.867207 290.221072 
L 189.071288 281.082093 
L 191.82639 279.051209 
L 193.479452 273.973998 
L 196.234554 262.804135 
L 198.438635 256.711483 
L 202.295778 252.649714 
L 205.05088 251.634272 
L 207.254962 247.572504 
L 212.214145 243.510736 
L 216.622309 237.418083 
L 223.234554 235.387199 
L 225.989656 231.32543 
L 232.05088 228.279104 
L 234.254962 222.186452 
L 238.112105 218.124683 
L 246.377411 217.109241 
L 249.683533 216.093799 
L 256.846798 213.047473 
L 261.254962 203.908494 
L 265.112105 202.893052 
L 271.173329 201.87761 
L 277.234554 197.815841 
L 281.091696 192.738631 
L 283.295778 189.692305 
L 289.357003 183.599652 
L 293.214145 182.58421 
L 297.071288 180.553326 
L 302.581492 177.507 
L 305.336594 173.445231 
L 313.05088 168.368021 
L 316.908023 162.275368 
L 321.867207 160.244484 
L 330.683533 156.182716 
L 340.601901 151.105505 
L 349.969247 145.012853 
L 362.091696 139.935642 
L 371.459043 134.858432 
L 386.336594 132.827547 
L 406.724349 128.765779 
L 424.357003 123.688569 
L 439.234554 117.595916 
L 462.928431 111.503264 
L 484.418227 106.426053 
L 504.254962 101.348843 
L 534.010064 94.240748 
L 567.071288 88.148095 
L 606.193737 77.993675 
L 669.561084 68.854696 
L 751.663125 60.731159 
L 940.663125 39.406875 
" clip-path="url(#p4a1cf8b15c)" style="fill: none; stroke: #2a788e; stroke-width: 5; stroke-linecap: round"/>
   </g>
   <g id="PathCollection_5">
    <g clip-path="url(#p4a1cf8b15c)">
     <use xlink:href="#m56d3867f8d" x="186.867207" y="290.221072" style="fill: #1a1a1a; stroke: #1a1a1a"/>
    </g>
   </g>
   <g id="line2d_6">
    <path d="M 103.663125 854.806875 
L 105.867207 685.228046 
L 107.520268 625.316962 
L 109.724349 591.807373 
L 110.82639 566.421321 
L 112.479452 549.158805 
L 114.683533 536.9735 
L 115.785574 526.819079 
L 116.336594 516.664658 
L 116.887615 509.556564 
L 117.989656 500.417585 
L 117.989656 495.340374 
L 117.989656 484.170511 
L 118.540676 480.108743 
L 119.091696 474.01609 
L 119.642717 471.985206 
L 121.846798 460.815343 
L 121.846798 456.753575 
L 122.397819 452.691807 
L 122.397819 449.64548 
L 122.948839 444.56827 
L 123.49986 443.552828 
L 124.601901 440.506501 
L 126.805982 435.429291 
L 128.459043 433.398407 
L 130.663125 430.35208 
L 132.316186 425.27487 
L 134.520268 423.243986 
L 135.622309 420.19766 
L 136.724349 415.120449 
L 138.377411 410.043239 
L 140.581492 404.966028 
L 143.887615 399.888818 
L 146.642717 397.857934 
L 148.295778 395.827049 
L 151.05088 388.718955 
L 153.254962 381.61086 
L 154.908023 376.53365 
L 158.214145 373.487323 
L 161.520268 371.456439 
L 165.377411 367.394671 
L 168.132513 364.348344 
L 169.234554 360.286576 
L 173.091696 359.271134 
L 175.295778 356.224808 
L 178.601901 353.178481 
L 181.357003 349.116713 
L 181.908023 347.085829 
L 186.316186 345.054945 
L 187.418227 340.993176 
L 191.27537 335.915966 
L 197.336594 330.838755 
L 200.091696 326.776987 
L 204.49986 324.746103 
L 210.010064 319.668892 
L 213.316186 313.57624 
L 215.520268 307.483587 
L 218.27537 302.406377 
L 224.336594 300.375493 
L 227.091696 295.298282 
L 230.397819 292.251956 
L 233.152921 287.174745 
L 237.010064 285.143861 
L 243.622309 281.082093 
L 248.581492 278.035767 
L 256.295778 272.958556 
L 262.908023 264.835019 
L 268.969247 259.757809 
L 273.928431 254.680599 
L 278.887615 252.649714 
L 284.948839 249.603388 
L 289.357003 247.572504 
L 293.214145 240.464409 
L 300.928431 237.418083 
L 310.846798 227.263662 
L 318.010064 224.217336 
L 325.724349 220.155567 
L 329.030472 216.093799 
L 334.540676 211.016589 
L 345.561084 206.95482 
L 353.82639 199.846726 
L 359.336594 193.754073 
L 367.05088 190.707747 
L 376.418227 184.615094 
L 390.193737 178.522442 
L 400.663125 176.491557 
L 411.683533 169.383463 
L 419.397819 164.306252 
L 432.622309 161.259926 
L 446.397819 157.198158 
L 465.132513 147.043737 
L 486.071288 139.935642 
L 504.254962 134.858432 
L 527.397819 132.827547 
L 545.581492 124.704011 
L 570.377411 117.595916 
L 595.173329 113.534148 
L 634.295778 104.395169 
L 670.112105 91.194422 
L 713.091696 84.086327 
L 797.948839 62.762043 
L 940.663125 39.406875 
" clip-path="url(#p4a1cf8b15c)" style="fill: none; stroke: #414487; stroke-width: 5; stroke-linecap: round"/>
   </g>
   <g id="PathCollection_6">
    <g clip-path="url(#p4a1cf8b15c)">
     <use xlink:href="#m56d3867f8d" x="191.27537" y="335.915966" style="fill: #1a1a1a; stroke: #1a1a1a"/>
    </g>
   </g>
   <g id="line2d_7">
    <path d="M 103.663125 854.806875 
L 115.785574 655.780225 
L 122.948839 623.286078 
L 126.254962 605.00812 
L 129.010064 585.714721 
L 131.214145 579.622068 
L 131.765166 566.421321 
L 135.622309 561.34411 
L 137.27537 556.2669 
L 143.336594 549.158805 
L 146.091696 537.988942 
L 149.397819 528.849963 
L 153.805982 519.710985 
L 154.908023 512.60289 
L 156.561084 508.541122 
L 161.520268 498.386701 
L 163.724349 497.371259 
L 166.479452 494.324932 
L 166.479452 490.263164 
L 167.030472 487.216838 
L 168.132513 485.185953 
L 169.234554 482.139627 
L 170.887615 480.108743 
L 171.989656 474.01609 
L 176.397819 468.93888 
L 178.601901 464.877112 
L 180.254962 458.784459 
L 185.214145 451.676364 
L 187.969247 450.660922 
L 194.581492 446.599154 
L 196.785574 440.506501 
L 200.091696 435.429291 
L 201.744758 431.367523 
L 207.805982 427.305754 
L 213.867207 418.166775 
L 215.520268 409.027797 
L 221.581492 404.966028 
L 228.744758 397.857934 
L 234.254962 388.718955 
L 246.377411 380.595418 
L 251.336594 378.564534 
L 255.744758 374.502765 
L 258.49986 373.487323 
L 261.254962 373.487323 
L 262.908023 373.487323 
L 265.112105 371.456439 
L 266.214145 369.425555 
L 266.765166 369.425555 
L 266.765166 367.394671 
L 266.765166 366.379229 
L 267.316186 365.363787 
L 268.969247 364.348344 
L 268.969247 362.31746 
L 271.173329 362.31746 
L 271.724349 357.24025 
L 274.479452 351.147597 
L 275.581492 344.039503 
L 278.336594 338.962292 
L 282.193737 331.854198 
L 285.49986 328.807871 
L 290.459043 324.746103 
L 296.520268 313.57624 
L 302.581492 304.437261 
L 306.438635 299.360051 
L 312.49986 284.128419 
L 318.010064 276.004882 
L 324.071288 270.927672 
L 330.683533 264.835019 
L 337.846798 260.773251 
L 342.805982 254.680599 
L 350.520268 242.495293 
L 353.82639 237.418083 
L 358.234554 236.402641 
L 360.989656 231.32543 
L 363.744758 227.263662 
L 365.397819 221.171009 
L 366.49986 218.124683 
L 370.357003 214.062915 
L 375.867207 212.032031 
L 381.928431 206.95482 
L 391.846798 205.939378 
L 403.969247 202.893052 
L 411.132513 195.784957 
L 419.948839 191.723189 
L 429.867207 188.676863 
L 443.642717 179.537884 
L 455.214145 171.414347 
L 464.581492 167.352579 
L 477.254962 164.306252 
L 492.683533 156.182716 
L 514.173329 140.951084 
L 552.193737 119.6268 
L 940.663125 39.406875 
" clip-path="url(#p4a1cf8b15c)" style="fill: none; stroke: #440154; stroke-width: 5; stroke-linecap: round"/>
   </g>
   <g id="PathCollection_7">
    <g clip-path="url(#p4a1cf8b15c)">
     <use xlink:href="#m56d3867f8d" x="266.765166" y="369.425555" style="fill: #1a1a1a; stroke: #1a1a1a"/>
    </g>
   </g>
   <g id="patch_3">
    <path d="M 103.663125 854.806875 
L 103.663125 39.406875 
" style="fill: none; stroke: #262626; stroke-width: 1.25; stroke-linejoin: miter; stroke-linecap: square"/>
   </g>
   <g id="patch_4">
    <path d="M 940.663125 854.806875 
L 940.663125 39.406875 
" style="fill: none; stroke: #262626; stroke-width: 1.25; stroke-linejoin: miter; stroke-linecap: square"/>
   </g>
   <g id="patch_5">
    <path d="M 103.663125 854.806875 
L 940.663125 854.806875 
" style="fill: none; stroke: #262626; stroke-width: 1.25; stroke-linejoin: miter; stroke-linecap: square"/>
   </g>
   <g id="patch_6">
    <path d="M 103.663125 39.406875 
L 940.663125 39.406875 
" style="fill: none; stroke: #262626; stroke-width: 1.25; stroke-linejoin: miter; stroke-linecap: square"/>
   </g>
   <g id="text_15">
    <text style="fill: #262626; font: 36px 'sans-serif'; text-anchor: middle" x="522.163125" y="33.406875" transform="rotate(-0 522.163125 33.406875)">Figure 5. ALL Cells</text>
   </g>
   <g id="legend_1">
    <g id="patch_7">
     <path d="M 45.163125 1327.790625 
L 970.610625 1327.790625 
Q 977.810625 1327.790625 977.810625 1320.590625 
L 977.810625 961.546875 
Q 977.810625 954.346875 970.610625 954.346875 
L 45.163125 954.346875 
Q 37.963125 954.346875 37.963125 961.546875 
L 37.963125 1320.590625 
Q 37.963125 1327.790625 45.163125 1327.790625 
z
" style="fill: #ffffff; opacity: 0.8; stroke: #cccccc; stroke-linejoin: miter"/>
    </g>
    <g id="line2d_8">
     <path d="M 52.363125 982.37625 
L 88.363125 982.37625 
L 124.363125 982.37625 
" style="fill: none; stroke: #fde725; stroke-width: 5; stroke-linecap: round"/>
    </g>
    <g id="text_16">
     <text style="fill: #262626; font: 36px 'sans-serif'; text-anchor: start" x="153.163125" y="994.97625" transform="rotate(-0 153.163125 994.97625)">All variables (ROC AUC = 0.98)</text>
    </g>
    <g id="line2d_9">
     <path d="M 52.363125 1034.1825 
L 88.363125 1034.1825 
L 124.363125 1034.1825 
" style="fill: none; stroke: #a5db36; stroke-width: 5; stroke-linecap: round"/>
    </g>
    <g id="text_17">
     <text style="fill: #262626; font: 36px 'sans-serif'; text-anchor: start" x="153.163125" y="1046.7825" transform="rotate(-0 153.163125 1046.7825)">NAD(P)H variables + Cell Size (ROC AUC = 0.96)</text>
    </g>
    <g id="line2d_10">
     <path d="M 52.363125 1085.98875 
L 88.363125 1085.98875 
L 124.363125 1085.98875 
" style="fill: none; stroke: #4ac16d; stroke-width: 5; stroke-linecap: round"/>
    </g>
    <g id="text_18">
     <text style="fill: #262626; font: 36px 'sans-serif'; text-anchor: start" x="153.163125" y="1098.58875" transform="rotate(-0 153.163125 1098.58875)">Top four variables (ROC AUC) = 0.96)</text>
    </g>
    <g id="line2d_11">
     <path d="M 52.363125 1137.795 
L 88.363125 1137.795 
L 124.363125 1137.795 
" style="fill: none; stroke: #1f988b; stroke-width: 5; stroke-linecap: round"/>
    </g>
    <g id="text_19">
     <text style="fill: #262626; font: 36px 'sans-serif'; text-anchor: start" x="153.163125" y="1150.395" transform="rotate(-0 153.163125 1150.395)">Top three variables (ROC AUC) = 0.94)</text>
    </g>
    <g id="line2d_12">
     <path d="M 52.363125 1189.60125 
L 88.363125 1189.60125 
L 124.363125 1189.60125 
" style="fill: none; stroke: #2a788e; stroke-width: 5; stroke-linecap: round"/>
    </g>
    <g id="text_20">
     <text style="fill: #262626; font: 36px 'sans-serif'; text-anchor: start" x="153.163125" y="1202.20125" transform="rotate(-0 153.163125 1202.20125)">Top two variables (ROC AUC) = 0.88)</text>
    </g>
    <g id="line2d_13">
     <path d="M 52.363125 1241.4075 
L 88.363125 1241.4075 
L 124.363125 1241.4075 
" style="fill: none; stroke: #414487; stroke-width: 5; stroke-linecap: round"/>
    </g>
    <g id="text_21">
     <text style="fill: #262626; font: 36px 'sans-serif'; text-anchor: start" x="153.163125" y="1254.0075" transform="rotate(-0 153.163125 1254.0075)">Norm. Redox Ratio + Cell Size (ROC AUC) = 0.84)</text>
    </g>
    <g id="line2d_14">
     <path d="M 52.363125 1293.21375 
L 88.363125 1293.21375 
L 124.363125 1293.21375 
" style="fill: none; stroke: #440154; stroke-width: 5; stroke-linecap: round"/>
    </g>
    <g id="text_22">
     <text style="fill: #262626; font: 36px 'sans-serif'; text-anchor: start" x="153.163125" y="1305.81375" transform="rotate(-0 153.163125 1305.81375)">Top variable (ROC AUC) = 0.80)</text>
    </g>
   </g>
  </g>
 </g>
 <defs>
  <clipPath id="p4a1cf8b15c">
   <rect x="103.663125" y="39.406875" width="837" height="815.4"/>
  </clipPath>
 </defs>
</svg>
