<?xml version="1.0" encoding="utf-8" standalone="no"?>
<!DOCTYPE svg PUBLIC "-//W3C//DTD SVG 1.1//EN"
  "http://www.w3.org/Graphics/SVG/1.1/DTD/svg11.dtd">
<svg xmlns:xlink="http://www.w3.org/1999/xlink" width="972.883125pt" height="1127.765625pt" viewBox="0 0 972.883125 1127.765625" xmlns="http://www.w3.org/2000/svg" version="1.1">
 <metadata>
  <rdf:RDF xmlns:dc="http://purl.org/dc/elements/1.1/" xmlns:cc="http://creativecommons.org/ns#" xmlns:rdf="http://www.w3.org/1999/02/22-rdf-syntax-ns#">
   <cc:Work>
    <dc:type rdf:resource="http://purl.org/dc/dcmitype/StillImage"/>
    <dc:date>2022-10-03T15:47:12.672237</dc:date>
    <dc:format>image/svg+xml</dc:format>
    <dc:creator>
     <cc:Agent>
      <dc:title>Matplotlib v3.6.0, https://matplotlib.org/</dc:title>
     </cc:Agent>
    </dc:creator>
   </cc:Work>
  </rdf:RDF>
 </metadata>
 <defs>
  <style type="text/css">*{stroke-linejoin: round; stroke-linecap: butt}</style>
 </defs>
 <g id="figure_1">
  <g id="patch_1">
   <path d="M 0 1127.765625 
L 972.883125 1127.765625 
L 972.883125 0 
L 0 0 
z
" style="fill: #ffffff"/>
  </g>
  <g id="axes_1">
   <g id="patch_2">
    <path d="M 103.663125 854.806875 
L 940.663125 854.806875 
L 940.663125 39.406875 
L 103.663125 39.406875 
z
" style="fill: #ffffff"/>
   </g>
   <g id="matplotlib.axis_1">
    <g id="xtick_1">
     <g id="text_1">
      <text style="fill: #262626; font: 36px 'sans-serif'; text-anchor: middle" x="103.663125" y="890.075" transform="rotate(-0 103.663125 890.075)">0.0</text>
     </g>
    </g>
    <g id="xtick_2">
     <g id="text_2">
      <text style="fill: #262626; font: 36px 'sans-serif'; text-anchor: middle" x="271.063125" y="890.075" transform="rotate(-0 271.063125 890.075)">0.2</text>
     </g>
    </g>
    <g id="xtick_3">
     <g id="text_3">
      <text style="fill: #262626; font: 36px 'sans-serif'; text-anchor: middle" x="438.463125" y="890.075" transform="rotate(-0 438.463125 890.075)">0.4</text>
     </g>
    </g>
    <g id="xtick_4">
     <g id="text_4">
      <text style="fill: #262626; font: 36px 'sans-serif'; text-anchor: middle" x="605.863125" y="890.075" transform="rotate(-0 605.863125 890.075)">0.6</text>
     </g>
    </g>
    <g id="xtick_5">
     <g id="text_5">
      <text style="fill: #262626; font: 36px 'sans-serif'; text-anchor: middle" x="773.263125" y="890.075" transform="rotate(-0 773.263125 890.075)">0.8</text>
     </g>
    </g>
    <g id="xtick_6">
     <g id="text_6">
      <text style="fill: #262626; font: 36px 'sans-serif'; text-anchor: middle" x="940.663125" y="890.075" transform="rotate(-0 940.663125 890.075)">1.0</text>
     </g>
    </g>
    <g id="text_7">
     <text style="fill: #262626; font: 36px 'sans-serif'; text-anchor: middle" x="522.163125" y="926.998125" transform="rotate(-0 522.163125 926.998125)">False Positive Rate</text>
    </g>
   </g>
   <g id="matplotlib.axis_2">
    <g id="ytick_1">
     <g id="text_8">
      <text style="fill: #262626; font: 36px 'sans-serif'; text-anchor: end" x="94.163125" y="867.690938" transform="rotate(-0 94.163125 867.690938)">0.0</text>
     </g>
    </g>
    <g id="ytick_2">
     <g id="text_9">
      <text style="fill: #262626; font: 36px 'sans-serif'; text-anchor: end" x="94.163125" y="704.610937" transform="rotate(-0 94.163125 704.610937)">0.2</text>
     </g>
    </g>
    <g id="ytick_3">
     <g id="text_10">
      <text style="fill: #262626; font: 36px 'sans-serif'; text-anchor: end" x="94.163125" y="541.530937" transform="rotate(-0 94.163125 541.530937)">0.4</text>
     </g>
    </g>
    <g id="ytick_4">
     <g id="text_11">
      <text style="fill: #262626; font: 36px 'sans-serif'; text-anchor: end" x="94.163125" y="378.450937" transform="rotate(-0 94.163125 378.450937)">0.6</text>
     </g>
    </g>
    <g id="ytick_5">
     <g id="text_12">
      <text style="fill: #262626; font: 36px 'sans-serif'; text-anchor: end" x="94.163125" y="215.370937" transform="rotate(-0 94.163125 215.370937)">0.8</text>
     </g>
    </g>
    <g id="ytick_6">
     <g id="text_13">
      <text style="fill: #262626; font: 36px 'sans-serif'; text-anchor: end" x="94.163125" y="52.290937" transform="rotate(-0 94.163125 52.290937)">1.0</text>
     </g>
    </g>
    <g id="text_14">
     <text style="fill: #262626; font: 36px 'sans-serif'; text-anchor: middle" x="32.968125" y="447.106875" transform="rotate(-90 32.968125 447.106875)">True Positive Rate</text>
    </g>
   </g>
   <g id="line2d_1">
    <path d="M 103.663125 854.806875 
L 103.663125 792.817401 
L 103.663125 768.975296 
L 103.663125 754.670033 
L 103.663125 697.44898 
L 103.663125 673.606875 
L 103.663125 654.533191 
L 103.663125 644.996349 
L 103.663125 625.922664 
L 103.663125 602.080559 
L 103.663125 583.006875 
L 103.663125 578.238454 
L 106.12489 559.16477 
L 108.586654 549.627928 
L 111.048419 549.627928 
L 111.048419 544.859507 
L 111.048419 525.785822 
L 111.048419 516.24898 
L 115.971949 511.480559 
L 120.895478 501.943717 
L 123.357243 487.638454 
L 125.819007 487.638454 
L 125.819007 473.333191 
L 125.819007 463.796349 
L 128.280772 454.259507 
L 128.280772 449.491086 
L 128.280772 439.954243 
L 128.280772 425.64898 
L 133.204301 406.575296 
L 133.204301 392.270033 
L 135.666066 387.501612 
L 140.589596 363.659507 
L 143.05136 363.659507 
L 147.97489 349.354243 
L 150.436654 344.585822 
L 152.898419 335.04898 
L 152.898419 330.280559 
L 152.898419 320.743717 
L 155.360184 320.743717 
L 157.821949 306.438454 
L 162.745478 306.438454 
L 162.745478 301.670033 
L 167.669007 296.901612 
L 170.130772 292.133191 
L 177.516066 287.36477 
L 182.439596 277.827928 
L 182.439596 263.522664 
L 182.439596 258.754243 
L 184.90136 249.217401 
L 187.363125 249.217401 
L 189.82489 239.680559 
L 194.748419 239.680559 
L 194.748419 230.143717 
L 199.671949 215.838454 
L 204.595478 211.070033 
L 209.519007 211.070033 
L 226.75136 201.533191 
L 229.213125 191.996349 
L 239.060184 191.996349 
L 248.907243 182.459507 
L 258.754301 182.459507 
L 266.139596 182.459507 
L 271.063125 182.459507 
L 273.52489 177.691086 
L 283.371949 177.691086 
L 288.295478 158.617401 
L 293.219007 144.312138 
L 310.45136 139.543717 
L 325.221949 130.006875 
L 337.530772 120.470033 
L 347.377831 115.701612 
L 349.839596 110.933191 
L 369.533713 110.933191 
L 389.227831 91.859507 
L 406.460184 87.091086 
L 426.154301 77.554243 
L 440.92489 77.554243 
L 460.619007 68.017401 
L 475.389596 68.017401 
L 497.545478 68.017401 
L 524.62489 63.24898 
L 556.627831 63.24898 
L 591.092537 58.480559 
L 647.713125 58.480559 
L 706.795478 48.943717 
L 792.957243 48.943717 
L 856.963125 39.406875 
L 940.663125 39.406875 
" clip-path="url(#pf2e10326d0)" style="fill: none; stroke: #fde725; stroke-width: 7; stroke-linecap: round"/>
   </g>
   <g id="PathCollection_1">
    <defs>
     <path id="ma3c10e439d" d="M 0 11.18034 
C 2.965061 11.18034 5.80908 10.002309 7.905694 7.905694 
C 10.002309 5.80908 11.18034 2.965061 11.18034 0 
C 11.18034 -2.965061 10.002309 -5.80908 7.905694 -7.905694 
C 5.80908 -10.002309 2.965061 -11.18034 0 -11.18034 
C -2.965061 -11.18034 -5.80908 -10.002309 -7.905694 -7.905694 
C -10.002309 -5.80908 -11.18034 -2.965061 -11.18034 0 
C -11.18034 2.965061 -10.002309 5.80908 -7.905694 7.905694 
C -5.80908 10.002309 -2.965061 11.18034 0 11.18034 
z
" style="stroke: #1a1a1a"/>
    </defs>
    <g clip-path="url(#pf2e10326d0)">
     <use xlink:href="#ma3c10e439d" x="167.669007" y="296.901612" style="fill: #1a1a1a; stroke: #1a1a1a"/>
    </g>
   </g>
   <g id="line2d_2">
    <path d="M 103.663125 854.806875 
L 103.663125 792.817401 
L 106.12489 792.817401 
L 106.12489 768.975296 
L 108.586654 768.975296 
L 108.586654 759.438454 
L 111.048419 759.438454 
L 111.048419 740.36477 
L 113.510184 740.36477 
L 113.510184 711.754243 
L 115.971949 711.754243 
L 115.971949 668.838454 
L 118.433713 668.838454 
L 118.433713 640.227928 
L 123.357243 640.227928 
L 123.357243 625.922664 
L 125.819007 625.922664 
L 125.819007 602.080559 
L 128.280772 602.080559 
L 128.280772 587.775296 
L 130.742537 587.775296 
L 130.742537 578.238454 
L 133.204301 578.238454 
L 133.204301 573.470033 
L 135.666066 573.470033 
L 135.666066 559.16477 
L 138.127831 559.16477 
L 138.127831 554.396349 
L 140.589596 554.396349 
L 140.589596 540.091086 
L 143.05136 540.091086 
L 143.05136 525.785822 
L 145.513125 525.785822 
L 145.513125 516.24898 
L 147.97489 516.24898 
L 147.97489 492.406875 
L 150.436654 492.406875 
L 150.436654 487.638454 
L 152.898419 487.638454 
L 152.898419 468.56477 
L 155.360184 468.56477 
L 155.360184 454.259507 
L 172.592537 454.259507 
L 172.592537 435.185822 
L 179.977831 435.185822 
L 179.977831 420.880559 
L 184.90136 420.880559 
L 184.90136 406.575296 
L 189.82489 406.575296 
L 189.82489 373.196349 
L 199.671949 373.196349 
L 199.671949 368.427928 
L 202.133713 368.427928 
L 202.133713 358.891086 
L 209.519007 358.891086 
L 209.519007 349.354243 
L 214.442537 349.354243 
L 214.442537 344.585822 
L 221.827831 344.585822 
L 221.827831 311.206875 
L 224.289596 311.206875 
L 224.289596 306.438454 
L 236.598419 306.438454 
L 236.598419 296.901612 
L 243.983713 296.901612 
L 243.983713 287.36477 
L 246.445478 287.36477 
L 246.445478 268.291086 
L 256.292537 268.291086 
L 256.292537 263.522664 
L 263.677831 263.522664 
L 263.677831 258.754243 
L 271.063125 258.754243 
L 271.063125 239.680559 
L 275.986654 239.680559 
L 275.986654 234.912138 
L 278.448419 234.912138 
L 278.448419 230.143717 
L 280.910184 230.143717 
L 280.910184 215.838454 
L 288.295478 215.838454 
L 288.295478 206.301612 
L 310.45136 206.301612 
L 310.45136 201.533191 
L 315.37489 201.533191 
L 315.37489 196.76477 
L 322.760184 196.76477 
L 322.760184 182.459507 
L 332.607243 182.459507 
L 332.607243 172.922664 
L 347.377831 172.922664 
L 347.377831 168.154243 
L 354.763125 168.154243 
L 354.763125 163.385822 
L 367.071949 163.385822 
L 367.071949 158.617401 
L 369.533713 158.617401 
L 369.533713 149.080559 
L 381.842537 149.080559 
L 381.842537 144.312138 
L 391.689596 144.312138 
L 391.689596 139.543717 
L 394.15136 139.543717 
L 394.15136 134.775296 
L 418.769007 134.775296 
L 418.769007 130.006875 
L 421.230772 130.006875 
L 421.230772 125.238454 
L 455.695478 125.238454 
L 455.695478 120.470033 
L 495.083713 120.470033 
L 495.083713 115.701612 
L 500.007243 115.701612 
L 500.007243 110.933191 
L 527.086654 110.933191 
L 527.086654 106.16477 
L 541.857243 106.16477 
L 541.857243 101.396349 
L 559.089596 101.396349 
L 559.089596 96.627928 
L 568.936654 96.627928 
L 568.936654 91.859507 
L 600.939596 91.859507 
L 600.939596 87.091086 
L 652.636654 87.091086 
L 652.636654 82.322664 
L 689.563125 82.322664 
L 689.563125 77.554243 
L 692.02489 77.554243 
L 692.02489 72.785822 
L 778.186654 72.785822 
L 778.186654 68.017401 
L 812.65136 68.017401 
L 812.65136 63.24898 
L 834.807243 63.24898 
L 834.807243 58.480559 
L 844.654301 58.480559 
L 844.654301 53.712138 
L 847.116066 53.712138 
L 847.116066 48.943717 
L 856.963125 48.943717 
L 856.963125 44.175296 
L 938.20136 44.175296 
L 938.20136 39.406875 
L 940.663125 39.406875 
L 940.663125 39.406875 
" clip-path="url(#pf2e10326d0)" style="fill: none; stroke: #1f988b; stroke-width: 7; stroke-linecap: round"/>
   </g>
   <g id="PathCollection_2">
    <g clip-path="url(#pf2e10326d0)">
     <use xlink:href="#ma3c10e439d" x="192.286654" y="373.196349" style="fill: #1a1a1a; stroke: #1a1a1a"/>
    </g>
   </g>
   <g id="PathCollection_3">
    <g clip-path="url(#pf2e10326d0)">
     <use xlink:href="#ma3c10e439d" x="202.133713" y="325.512138" style="fill: #1a1a1a; stroke: #1a1a1a"/>
    </g>
   </g>
   <g id="line2d_3">
    <path d="M 103.663125 854.806875 
L 103.663125 807.122664 
L 106.12489 807.122664 
L 106.12489 778.512138 
L 111.048419 778.512138 
L 111.048419 730.827928 
L 113.510184 730.827928 
L 113.510184 721.291086 
L 115.971949 721.291086 
L 115.971949 697.44898 
L 118.433713 697.44898 
L 118.433713 635.459507 
L 120.895478 635.459507 
L 120.895478 625.922664 
L 128.280772 625.922664 
L 128.280772 621.154243 
L 130.742537 621.154243 
L 130.742537 611.617401 
L 133.204301 611.617401 
L 133.204301 554.396349 
L 138.127831 554.396349 
L 138.127831 521.017401 
L 143.05136 521.017401 
L 143.05136 506.712138 
L 145.513125 506.712138 
L 145.513125 501.943717 
L 147.97489 501.943717 
L 147.97489 482.870033 
L 155.360184 482.870033 
L 155.360184 459.027928 
L 157.821949 459.027928 
L 157.821949 444.722664 
L 160.283713 444.722664 
L 160.283713 425.64898 
L 162.745478 425.64898 
L 162.745478 406.575296 
L 170.130772 406.575296 
L 170.130772 401.806875 
L 172.592537 401.806875 
L 172.592537 397.038454 
L 179.977831 397.038454 
L 179.977831 392.270033 
L 182.439596 392.270033 
L 182.439596 387.501612 
L 187.363125 387.501612 
L 187.363125 382.733191 
L 192.286654 382.733191 
L 192.286654 373.196349 
L 194.748419 373.196349 
L 194.748419 354.122664 
L 197.210184 354.122664 
L 197.210184 344.585822 
L 199.671949 344.585822 
L 199.671949 330.280559 
L 202.133713 330.280559 
L 202.133713 325.512138 
L 211.980772 325.512138 
L 211.980772 320.743717 
L 214.442537 320.743717 
L 214.442537 311.206875 
L 224.289596 311.206875 
L 224.289596 287.36477 
L 229.213125 287.36477 
L 229.213125 282.596349 
L 234.136654 282.596349 
L 234.136654 277.827928 
L 236.598419 277.827928 
L 236.598419 263.522664 
L 239.060184 263.522664 
L 239.060184 258.754243 
L 243.983713 258.754243 
L 243.983713 253.985822 
L 246.445478 253.985822 
L 246.445478 249.217401 
L 248.907243 249.217401 
L 248.907243 244.44898 
L 251.369007 244.44898 
L 251.369007 239.680559 
L 258.754301 239.680559 
L 258.754301 234.912138 
L 268.60136 234.912138 
L 268.60136 230.143717 
L 273.52489 230.143717 
L 273.52489 211.070033 
L 280.910184 211.070033 
L 280.910184 206.301612 
L 283.371949 206.301612 
L 283.371949 196.76477 
L 293.219007 196.76477 
L 293.219007 191.996349 
L 298.142537 191.996349 
L 298.142537 187.227928 
L 305.527831 187.227928 
L 305.527831 177.691086 
L 320.298419 177.691086 
L 320.298419 172.922664 
L 325.221949 172.922664 
L 325.221949 168.154243 
L 327.683713 168.154243 
L 327.683713 163.385822 
L 359.686654 163.385822 
L 359.686654 158.617401 
L 374.457243 158.617401 
L 374.457243 153.84898 
L 376.919007 153.84898 
L 376.919007 149.080559 
L 401.536654 149.080559 
L 401.536654 144.312138 
L 421.230772 144.312138 
L 421.230772 139.543717 
L 436.00136 139.543717 
L 436.00136 134.775296 
L 482.77489 134.775296 
L 482.77489 130.006875 
L 485.236654 130.006875 
L 485.236654 125.238454 
L 500.007243 125.238454 
L 500.007243 120.470033 
L 504.930772 120.470033 
L 504.930772 115.701612 
L 509.854301 115.701612 
L 509.854301 110.933191 
L 512.316066 110.933191 
L 512.316066 101.396349 
L 534.471949 101.396349 
L 534.471949 96.627928 
L 539.395478 96.627928 
L 539.395478 91.859507 
L 551.704301 91.859507 
L 551.704301 87.091086 
L 554.166066 87.091086 
L 554.166066 82.322664 
L 564.013125 82.322664 
L 564.013125 77.554243 
L 566.47489 77.554243 
L 566.47489 68.017401 
L 630.480772 68.017401 
L 630.480772 63.24898 
L 650.17489 63.24898 
L 650.17489 58.480559 
L 684.639596 58.480559 
L 684.639596 53.712138 
L 763.416066 53.712138 
L 763.416066 48.943717 
L 933.277831 48.943717 
L 933.277831 44.175296 
L 938.20136 44.175296 
L 938.20136 39.406875 
L 940.663125 39.406875 
L 940.663125 39.406875 
" clip-path="url(#pf2e10326d0)" style="fill: none; stroke: #440154; stroke-width: 7; stroke-linecap: round"/>
   </g>
   <g id="patch_3">
    <path d="M 103.663125 854.806875 
L 103.663125 39.406875 
" style="fill: none; stroke: #262626; stroke-width: 1.25; stroke-linejoin: miter; stroke-linecap: square"/>
   </g>
   <g id="patch_4">
    <path d="M 940.663125 854.806875 
L 940.663125 39.406875 
" style="fill: none; stroke: #262626; stroke-width: 1.25; stroke-linejoin: miter; stroke-linecap: square"/>
   </g>
   <g id="patch_5">
    <path d="M 103.663125 854.806875 
L 940.663125 854.806875 
" style="fill: none; stroke: #262626; stroke-width: 1.25; stroke-linejoin: miter; stroke-linecap: square"/>
   </g>
   <g id="patch_6">
    <path d="M 103.663125 39.406875 
L 940.663125 39.406875 
" style="fill: none; stroke: #262626; stroke-width: 1.25; stroke-linejoin: miter; stroke-linecap: square"/>
   </g>
   <g id="text_15">
    <text style="fill: #262626; font: 36px 'sans-serif'; text-anchor: middle" x="522.163125" y="33.406875" transform="rotate(-0 522.163125 33.406875)">NK Cells | class_weight: None</text>
   </g>
   <g id="legend_1">
    <g id="patch_7">
     <path d="M 45.163125 1120.565625 
L 853.66125 1120.565625 
Q 860.86125 1120.565625 860.86125 1113.365625 
L 860.86125 961.546875 
Q 860.86125 954.346875 853.66125 954.346875 
L 45.163125 954.346875 
Q 37.963125 954.346875 37.963125 961.546875 
L 37.963125 1113.365625 
Q 37.963125 1120.565625 45.163125 1120.565625 
z
" style="fill: #ffffff; opacity: 0.8; stroke: #cccccc; stroke-linejoin: miter"/>
    </g>
    <g id="line2d_4">
     <path d="M 52.363125 982.37625 
L 88.363125 982.37625 
L 124.363125 982.37625 
" style="fill: none; stroke: #fde725; stroke-width: 7; stroke-linecap: round"/>
    </g>
    <g id="text_16">
     <text style="fill: #262626; font: 36px 'sans-serif'; text-anchor: start" x="153.163125" y="994.97625" transform="rotate(-0 153.163125 994.97625)">Random Forest (ROC AUC = 0.91)</text>
    </g>
    <g id="line2d_5">
     <path d="M 52.363125 1034.1825 
L 88.363125 1034.1825 
L 124.363125 1034.1825 
" style="fill: none; stroke: #1f988b; stroke-width: 7; stroke-linecap: round"/>
    </g>
    <g id="text_17">
     <text style="fill: #262626; font: 36px 'sans-serif'; text-anchor: start" x="153.163125" y="1046.7825" transform="rotate(-0 153.163125 1046.7825)">Logistic Regression (ROC AUC = 0.84)</text>
    </g>
    <g id="line2d_6">
     <path d="M 52.363125 1085.98875 
L 88.363125 1085.98875 
L 124.363125 1085.98875 
" style="fill: none; stroke: #440154; stroke-width: 7; stroke-linecap: round"/>
    </g>
    <g id="text_18">
     <text style="fill: #262626; font: 36px 'sans-serif'; text-anchor: start" x="153.163125" y="1098.58875" transform="rotate(-0 153.163125 1098.58875)">Support Vector Machine (ROC AUC = 0.86)</text>
    </g>
   </g>
  </g>
 </g>
 <defs>
  <clipPath id="pf2e10326d0">
   <rect x="103.663125" y="39.406875" width="837" height="815.4"/>
  </clipPath>
 </defs>
</svg>
