<?xml version="1.0" encoding="utf-8" standalone="no"?>
<!DOCTYPE svg PUBLIC "-//W3C//DTD SVG 1.1//EN"
  "http://www.w3.org/Graphics/SVG/1.1/DTD/svg11.dtd">
<svg xmlns:xlink="http://www.w3.org/1999/xlink" width="972.883125pt" height="1127.765625pt" viewBox="0 0 972.883125 1127.765625" xmlns="http://www.w3.org/2000/svg" version="1.1">
 <metadata>
  <rdf:RDF xmlns:dc="http://purl.org/dc/elements/1.1/" xmlns:cc="http://creativecommons.org/ns#" xmlns:rdf="http://www.w3.org/1999/02/22-rdf-syntax-ns#">
   <cc:Work>
    <dc:type rdf:resource="http://purl.org/dc/dcmitype/StillImage"/>
    <dc:date>2022-10-03T15:50:31.836625</dc:date>
    <dc:format>image/svg+xml</dc:format>
    <dc:creator>
     <cc:Agent>
      <dc:title>Matplotlib v3.6.0, https://matplotlib.org/</dc:title>
     </cc:Agent>
    </dc:creator>
   </cc:Work>
  </rdf:RDF>
 </metadata>
 <defs>
  <style type="text/css">*{stroke-linejoin: round; stroke-linecap: butt}</style>
 </defs>
 <g id="figure_1">
  <g id="patch_1">
   <path d="M 0 1127.765625 
L 972.883125 1127.765625 
L 972.883125 0 
L 0 0 
z
" style="fill: #ffffff"/>
  </g>
  <g id="axes_1">
   <g id="patch_2">
    <path d="M 103.663125 854.806875 
L 940.663125 854.806875 
L 940.663125 39.406875 
L 103.663125 39.406875 
z
" style="fill: #ffffff"/>
   </g>
   <g id="matplotlib.axis_1">
    <g id="xtick_1">
     <g id="text_1">
      <text style="fill: #262626; font: 36px 'sans-serif'; text-anchor: middle" x="103.663125" y="890.075" transform="rotate(-0 103.663125 890.075)">0.0</text>
     </g>
    </g>
    <g id="xtick_2">
     <g id="text_2">
      <text style="fill: #262626; font: 36px 'sans-serif'; text-anchor: middle" x="271.063125" y="890.075" transform="rotate(-0 271.063125 890.075)">0.2</text>
     </g>
    </g>
    <g id="xtick_3">
     <g id="text_3">
      <text style="fill: #262626; font: 36px 'sans-serif'; text-anchor: middle" x="438.463125" y="890.075" transform="rotate(-0 438.463125 890.075)">0.4</text>
     </g>
    </g>
    <g id="xtick_4">
     <g id="text_4">
      <text style="fill: #262626; font: 36px 'sans-serif'; text-anchor: middle" x="605.863125" y="890.075" transform="rotate(-0 605.863125 890.075)">0.6</text>
     </g>
    </g>
    <g id="xtick_5">
     <g id="text_5">
      <text style="fill: #262626; font: 36px 'sans-serif'; text-anchor: middle" x="773.263125" y="890.075" transform="rotate(-0 773.263125 890.075)">0.8</text>
     </g>
    </g>
    <g id="xtick_6">
     <g id="text_6">
      <text style="fill: #262626; font: 36px 'sans-serif'; text-anchor: middle" x="940.663125" y="890.075" transform="rotate(-0 940.663125 890.075)">1.0</text>
     </g>
    </g>
    <g id="text_7">
     <text style="fill: #262626; font: 36px 'sans-serif'; text-anchor: middle" x="522.163125" y="926.998125" transform="rotate(-0 522.163125 926.998125)">False Positive Rate</text>
    </g>
   </g>
   <g id="matplotlib.axis_2">
    <g id="ytick_1">
     <g id="text_8">
      <text style="fill: #262626; font: 36px 'sans-serif'; text-anchor: end" x="94.163125" y="867.690938" transform="rotate(-0 94.163125 867.690938)">0.0</text>
     </g>
    </g>
    <g id="ytick_2">
     <g id="text_9">
      <text style="fill: #262626; font: 36px 'sans-serif'; text-anchor: end" x="94.163125" y="704.610937" transform="rotate(-0 94.163125 704.610937)">0.2</text>
     </g>
    </g>
    <g id="ytick_3">
     <g id="text_10">
      <text style="fill: #262626; font: 36px 'sans-serif'; text-anchor: end" x="94.163125" y="541.530937" transform="rotate(-0 94.163125 541.530937)">0.4</text>
     </g>
    </g>
    <g id="ytick_4">
     <g id="text_11">
      <text style="fill: #262626; font: 36px 'sans-serif'; text-anchor: end" x="94.163125" y="378.450937" transform="rotate(-0 94.163125 378.450937)">0.6</text>
     </g>
    </g>
    <g id="ytick_5">
     <g id="text_12">
      <text style="fill: #262626; font: 36px 'sans-serif'; text-anchor: end" x="94.163125" y="215.370937" transform="rotate(-0 94.163125 215.370937)">0.8</text>
     </g>
    </g>
    <g id="ytick_6">
     <g id="text_13">
      <text style="fill: #262626; font: 36px 'sans-serif'; text-anchor: end" x="94.163125" y="52.290937" transform="rotate(-0 94.163125 52.290937)">1.0</text>
     </g>
    </g>
    <g id="text_14">
     <text style="fill: #262626; font: 36px 'sans-serif'; text-anchor: middle" x="32.968125" y="447.106875" transform="rotate(-90 32.968125 447.106875)">True Positive Rate</text>
    </g>
   </g>
   <g id="line2d_1">
    <path d="M 103.663125 854.806875 
L 103.663125 818.25096 
L 104.214145 818.25096 
L 104.214145 794.895792 
L 104.765166 794.895792 
L 104.765166 779.66416 
L 105.316186 779.66416 
L 105.316186 750.21634 
L 105.867207 750.21634 
L 105.867207 747.170013 
L 106.418227 747.170013 
L 106.418227 740.061919 
L 106.969247 740.061919 
L 106.969247 734.984708 
L 107.520268 734.984708 
L 107.520268 716.70675 
L 108.071288 716.70675 
L 108.071288 695.382467 
L 108.622309 695.382467 
L 108.622309 676.089067 
L 109.173329 676.089067 
L 109.173329 673.042741 
L 109.724349 673.042741 
L 109.724349 669.996414 
L 110.27537 669.996414 
L 110.27537 652.733899 
L 110.82639 652.733899 
L 110.82639 646.641246 
L 111.377411 646.641246 
L 111.377411 644.610362 
L 111.928431 644.610362 
L 111.928431 632.425057 
L 112.479452 632.425057 
L 112.479452 631.409615 
L 113.030472 631.409615 
L 113.030472 628.363288 
L 113.581492 628.363288 
L 113.581492 615.162541 
L 114.132513 615.162541 
L 114.132513 605.00812 
L 114.683533 605.00812 
L 114.683533 598.915468 
L 115.234554 598.915468 
L 115.234554 588.761047 
L 115.785574 588.761047 
L 115.785574 581.652952 
L 116.336594 581.652952 
L 116.336594 565.405879 
L 116.887615 565.405879 
L 116.887615 534.942616 
L 117.438635 534.942616 
L 117.438635 530.880848 
L 117.989656 530.880848 
L 117.989656 526.819079 
L 118.540676 526.819079 
L 118.540676 523.772753 
L 119.091696 523.772753 
L 119.091696 521.741869 
L 119.642717 521.741869 
L 119.642717 515.649216 
L 120.193737 515.649216 
L 120.193737 514.633774 
L 120.744758 514.633774 
L 120.744758 502.448469 
L 121.295778 502.448469 
L 121.295778 499.402143 
L 121.846798 499.402143 
L 121.846798 493.30949 
L 122.397819 493.30949 
L 122.397819 489.247722 
L 122.948839 489.247722 
L 122.948839 488.23228 
L 123.49986 488.23228 
L 123.49986 487.216838 
L 124.05088 487.216838 
L 124.05088 466.907996 
L 124.601901 466.907996 
L 124.601901 453.707249 
L 125.152921 453.707249 
L 125.152921 451.676364 
L 125.703941 451.676364 
L 125.703941 441.521943 
L 126.254962 441.521943 
L 126.254962 425.27487 
L 126.805982 425.27487 
L 126.805982 422.228544 
L 127.357003 422.228544 
L 127.357003 418.166775 
L 127.908023 418.166775 
L 127.908023 416.135891 
L 128.459043 416.135891 
L 128.459043 412.074123 
L 129.010064 412.074123 
L 129.010064 408.012354 
L 129.561084 408.012354 
L 129.561084 398.873376 
L 130.112105 398.873376 
L 130.112105 391.765281 
L 130.663125 391.765281 
L 130.663125 386.688071 
L 131.765166 386.688071 
L 131.765166 375.518208 
L 132.316186 375.518208 
L 132.316186 369.425555 
L 132.867207 369.425555 
L 132.867207 367.394671 
L 133.418227 367.394671 
L 133.418227 364.348344 
L 134.520268 364.348344 
L 134.520268 362.31746 
L 135.071288 362.31746 
L 135.071288 361.302018 
L 135.622309 361.302018 
L 135.622309 356.224808 
L 136.724349 356.224808 
L 136.724349 352.163039 
L 137.82639 352.163039 
L 137.82639 351.147597 
L 138.377411 351.147597 
L 138.377411 344.039503 
L 140.030472 344.039503 
L 140.030472 343.024061 
L 140.581492 343.024061 
L 140.581492 337.94685 
L 141.132513 337.94685 
L 141.132513 336.931408 
L 142.785574 336.931408 
L 142.785574 330.838755 
L 143.336594 330.838755 
L 143.336594 325.761545 
L 143.887615 325.761545 
L 143.887615 323.730661 
L 144.989656 323.730661 
L 144.989656 320.684335 
L 146.091696 320.684335 
L 146.091696 317.638008 
L 147.193737 317.638008 
L 147.193737 314.591682 
L 147.744758 314.591682 
L 147.744758 309.514472 
L 149.397819 309.514472 
L 149.397819 303.421819 
L 149.948839 303.421819 
L 149.948839 301.390935 
L 150.49986 301.390935 
L 150.49986 298.344608 
L 151.05088 298.344608 
L 151.05088 297.329166 
L 152.152921 297.329166 
L 152.152921 284.128419 
L 152.703941 284.128419 
L 152.703941 283.112977 
L 153.254962 283.112977 
L 153.254962 281.082093 
L 153.805982 281.082093 
L 153.805982 279.051209 
L 154.357003 279.051209 
L 154.357003 270.927672 
L 154.908023 270.927672 
L 154.908023 269.91223 
L 156.010064 269.91223 
L 156.010064 266.865904 
L 156.561084 266.865904 
L 156.561084 263.819577 
L 157.663125 263.819577 
L 157.663125 253.665156 
L 158.214145 253.665156 
L 158.214145 252.649714 
L 159.316186 252.649714 
L 159.316186 247.572504 
L 160.969247 247.572504 
L 160.969247 238.433525 
L 162.622309 238.433525 
L 162.622309 237.418083 
L 163.724349 237.418083 
L 163.724349 233.356315 
L 164.82639 233.356315 
L 164.82639 230.309988 
L 165.928431 230.309988 
L 165.928431 229.294546 
L 166.479452 229.294546 
L 166.479452 223.201894 
L 167.030472 223.201894 
L 167.030472 222.186452 
L 167.581492 222.186452 
L 167.581492 220.155567 
L 168.132513 220.155567 
L 168.132513 218.124683 
L 169.234554 218.124683 
L 169.234554 217.109241 
L 169.785574 217.109241 
L 169.785574 215.078357 
L 170.336594 215.078357 
L 170.336594 211.016589 
L 171.438635 211.016589 
L 171.438635 206.95482 
L 171.989656 206.95482 
L 171.989656 204.923936 
L 172.540676 204.923936 
L 172.540676 202.893052 
L 173.642717 202.893052 
L 173.642717 201.87761 
L 175.846798 201.87761 
L 175.846798 199.846726 
L 176.397819 199.846726 
L 176.397819 198.831283 
L 179.703941 198.831283 
L 179.703941 197.815841 
L 180.254962 197.815841 
L 180.254962 196.800399 
L 181.357003 196.800399 
L 181.357003 195.784957 
L 181.908023 195.784957 
L 181.908023 192.738631 
L 182.459043 192.738631 
L 182.459043 191.723189 
L 183.561084 191.723189 
L 183.561084 190.707747 
L 184.112105 190.707747 
L 184.112105 189.692305 
L 184.663125 189.692305 
L 184.663125 188.676863 
L 185.214145 188.676863 
L 185.214145 187.66142 
L 186.316186 187.66142 
L 186.316186 186.645978 
L 187.418227 186.645978 
L 187.418227 184.615094 
L 190.724349 184.615094 
L 190.724349 183.599652 
L 191.27537 183.599652 
L 191.27537 182.58421 
L 191.82639 182.58421 
L 191.82639 181.568768 
L 194.030472 181.568768 
L 194.030472 177.507 
L 200.642717 177.507 
L 200.642717 176.491557 
L 202.295778 176.491557 
L 202.295778 175.476115 
L 202.846798 175.476115 
L 202.846798 173.445231 
L 204.49986 173.445231 
L 204.49986 170.398905 
L 205.05088 170.398905 
L 205.05088 169.383463 
L 207.805982 169.383463 
L 207.805982 168.368021 
L 210.010064 168.368021 
L 210.010064 166.337137 
L 210.561084 166.337137 
L 210.561084 164.306252 
L 211.112105 164.306252 
L 211.112105 163.29081 
L 212.765166 163.29081 
L 212.765166 160.244484 
L 213.316186 160.244484 
L 213.316186 159.229042 
L 215.520268 159.229042 
L 215.520268 157.198158 
L 217.724349 157.198158 
L 217.724349 156.182716 
L 219.928431 156.182716 
L 219.928431 155.167274 
L 221.030472 155.167274 
L 221.030472 154.151831 
L 222.132513 154.151831 
L 222.132513 152.120947 
L 227.642717 152.120947 
L 227.642717 151.105505 
L 228.744758 151.105505 
L 228.744758 148.059179 
L 229.846798 148.059179 
L 229.846798 147.043737 
L 230.948839 147.043737 
L 230.948839 146.028295 
L 232.05088 146.028295 
L 232.05088 145.012853 
L 232.601901 145.012853 
L 232.601901 142.981968 
L 235.357003 142.981968 
L 235.357003 141.966526 
L 236.459043 141.966526 
L 236.459043 140.951084 
L 237.561084 140.951084 
L 237.561084 139.935642 
L 239.214145 139.935642 
L 239.214145 138.9202 
L 240.867207 138.9202 
L 240.867207 137.904758 
L 245.82639 137.904758 
L 245.82639 133.84299 
L 246.377411 133.84299 
L 246.377411 132.827547 
L 248.581492 132.827547 
L 248.581492 131.812105 
L 252.438635 131.812105 
L 252.438635 128.765779 
L 258.49986 128.765779 
L 258.49986 127.750337 
L 266.214145 127.750337 
L 266.214145 126.734895 
L 267.316186 126.734895 
L 267.316186 125.719453 
L 268.418227 125.719453 
L 268.418227 124.704011 
L 275.030472 124.704011 
L 275.030472 123.688569 
L 278.887615 123.688569 
L 278.887615 120.642242 
L 285.49986 120.642242 
L 285.49986 118.611358 
L 297.071288 118.611358 
L 297.071288 117.595916 
L 308.642717 117.595916 
L 308.642717 115.565032 
L 313.05088 115.565032 
L 313.05088 114.54959 
L 315.254962 114.54959 
L 315.254962 111.503264 
L 324.071288 111.503264 
L 324.071288 109.472379 
L 327.377411 109.472379 
L 327.377411 108.456937 
L 331.234554 108.456937 
L 331.234554 106.426053 
L 332.336594 106.426053 
L 332.336594 105.410611 
L 332.887615 105.410611 
L 332.887615 104.395169 
L 333.989656 104.395169 
L 333.989656 103.379727 
L 336.193737 103.379727 
L 336.193737 102.364285 
L 347.214145 102.364285 
L 347.214145 101.348843 
L 360.989656 101.348843 
L 360.989656 100.333401 
L 370.908023 100.333401 
L 370.908023 99.317958 
L 375.867207 99.317958 
L 375.867207 98.302516 
L 376.418227 98.302516 
L 376.418227 97.287074 
L 378.071288 97.287074 
L 378.071288 96.271632 
L 381.928431 96.271632 
L 381.928431 95.25619 
L 383.581492 95.25619 
L 383.581492 94.240748 
L 388.540676 94.240748 
L 388.540676 93.225306 
L 400.663125 93.225306 
L 400.663125 92.209864 
L 409.479452 92.209864 
L 409.479452 91.194422 
L 412.234554 91.194422 
L 412.234554 90.17898 
L 416.091696 90.17898 
L 416.091696 89.163538 
L 421.05088 89.163538 
L 421.05088 88.148095 
L 441.438635 88.148095 
L 441.438635 87.132653 
L 449.703941 87.132653 
L 449.703941 86.117211 
L 457.969247 86.117211 
L 457.969247 85.101769 
L 465.683533 85.101769 
L 465.683533 84.086327 
L 469.540676 84.086327 
L 469.540676 83.070885 
L 472.295778 83.070885 
L 472.295778 82.055443 
L 480.010064 82.055443 
L 480.010064 81.040001 
L 493.234554 81.040001 
L 493.234554 80.024559 
L 502.601901 80.024559 
L 502.601901 79.009117 
L 511.969247 79.009117 
L 511.969247 77.993675 
L 516.377411 77.993675 
L 516.377411 76.978232 
L 525.193737 76.978232 
L 525.193737 75.96279 
L 533.459043 75.96279 
L 533.459043 74.947348 
L 534.010064 74.947348 
L 534.010064 73.931906 
L 537.867207 73.931906 
L 537.867207 72.916464 
L 556.05088 72.916464 
L 556.05088 71.901022 
L 567.071288 71.901022 
L 567.071288 70.88558 
L 567.622309 70.88558 
L 567.622309 69.870138 
L 571.479452 69.870138 
L 571.479452 68.854696 
L 590.214145 68.854696 
L 590.214145 67.839254 
L 600.132513 67.839254 
L 600.132513 66.823811 
L 600.683533 66.823811 
L 600.683533 65.808369 
L 605.642717 65.808369 
L 605.642717 64.792927 
L 608.397819 64.792927 
L 608.397819 63.777485 
L 609.49986 63.777485 
L 609.49986 62.762043 
L 611.703941 62.762043 
L 611.703941 61.746601 
L 616.663125 61.746601 
L 616.663125 60.731159 
L 627.132513 60.731159 
L 627.132513 59.715717 
L 651.928431 59.715717 
L 651.928431 58.700275 
L 657.438635 58.700275 
L 657.438635 57.684833 
L 661.846798 57.684833 
L 661.846798 56.669391 
L 671.214145 56.669391 
L 671.214145 55.653948 
L 684.989656 55.653948 
L 684.989656 54.638506 
L 694.357003 54.638506 
L 694.357003 53.623064 
L 699.867207 53.623064 
L 699.867207 52.607622 
L 716.397819 52.607622 
L 716.397819 51.59218 
L 724.663125 51.59218 
L 724.663125 50.576738 
L 750.561084 50.576738 
L 750.561084 49.561296 
L 758.27537 49.561296 
L 758.27537 48.545854 
L 760.479452 48.545854 
L 760.479452 47.530412 
L 776.459043 47.530412 
L 776.459043 46.51497 
L 781.418227 46.51497 
L 781.418227 45.499528 
L 790.785574 45.499528 
L 790.785574 44.484085 
L 795.193737 44.484085 
L 795.193737 43.468643 
L 811.173329 43.468643 
L 811.173329 42.453201 
L 861.316186 42.453201 
L 861.316186 41.437759 
L 905.948839 41.437759 
L 905.948839 40.422317 
L 918.071288 40.422317 
L 918.071288 39.406875 
L 940.663125 39.406875 
L 940.663125 39.406875 
" clip-path="url(#p100e4a6189)" style="fill: none; stroke: #440154; stroke-width: 7; stroke-linecap: round"/>
   </g>
   <g id="line2d_2">
    <path d="M 103.663125 854.806875 
L 103.663125 687.25893 
L 103.663125 623.286078 
L 103.663125 558.297784 
L 103.663125 518.695542 
L 103.663125 481.124185 
L 103.663125 452.691807 
L 103.663125 431.367523 
L 103.663125 414.105007 
L 103.663125 397.857934 
L 103.663125 384.657186 
L 103.663125 360.286576 
L 103.663125 347.085829 
L 103.663125 334.900524 
L 103.663125 319.668892 
L 104.214145 314.591682 
L 104.214145 300.375493 
L 104.214145 292.251956 
L 104.214145 278.035767 
L 104.765166 269.91223 
L 106.418227 260.773251 
L 106.969247 257.726925 
L 107.520268 251.634272 
L 109.173329 239.448967 
L 109.173329 230.309988 
L 109.173329 225.232778 
L 110.27537 221.171009 
L 111.928431 213.047473 
L 112.479452 210.001146 
L 112.479452 199.846726 
L 113.030472 193.754073 
L 114.132513 190.707747 
L 114.132513 188.676863 
L 114.683533 185.630536 
L 116.887615 185.630536 
L 117.438635 185.630536 
L 117.989656 180.553326 
L 118.540676 176.491557 
L 118.540676 172.429789 
L 119.642717 167.352579 
L 121.846798 162.275368 
L 124.05088 160.244484 
L 125.703941 157.198158 
L 127.357003 155.167274 
L 129.010064 151.105505 
L 129.561084 148.059179 
L 130.663125 147.043737 
L 136.173329 145.012853 
L 138.377411 141.966526 
L 139.479452 139.935642 
L 140.030472 134.858432 
L 141.683533 132.827547 
L 142.785574 131.812105 
L 143.887615 129.781221 
L 146.642717 127.750337 
L 147.744758 122.673127 
L 149.397819 122.673127 
L 150.49986 117.595916 
L 152.152921 111.503264 
L 153.805982 110.487821 
L 157.112105 107.441495 
L 158.214145 103.379727 
L 158.765166 101.348843 
L 160.418227 99.317958 
L 163.173329 99.317958 
L 164.82639 98.302516 
L 170.887615 96.271632 
L 173.091696 95.25619 
L 178.601901 91.194422 
L 183.561084 90.17898 
L 187.418227 86.117211 
L 190.724349 81.040001 
L 194.581492 80.024559 
L 198.438635 77.993675 
L 205.05088 74.947348 
L 210.561084 70.88558 
L 217.173329 69.870138 
L 224.887615 68.854696 
L 233.703941 68.854696 
L 242.520268 67.839254 
L 249.683533 66.823811 
L 254.091696 65.808369 
L 260.703941 64.792927 
L 271.173329 63.777485 
L 282.744758 62.762043 
L 293.765166 60.731159 
L 306.989656 57.684833 
L 323.520268 53.623064 
L 340.601901 49.561296 
L 359.887615 49.561296 
L 391.295778 47.530412 
L 421.601901 45.499528 
L 472.846798 44.484085 
L 522.989656 43.468643 
L 597.377411 43.468643 
L 704.82639 42.453201 
L 940.663125 39.406875 
" clip-path="url(#p100e4a6189)" style="fill: none; stroke: #fde725; stroke-width: 7; stroke-linecap: round"/>
   </g>
   <g id="PathCollection_1">
    <defs>
     <path id="m74b03381a8" d="M 0 11.18034 
C 2.965061 11.18034 5.80908 10.002309 7.905694 7.905694 
C 10.002309 5.80908 11.18034 2.965061 11.18034 0 
C 11.18034 -2.965061 10.002309 -5.80908 7.905694 -7.905694 
C 5.80908 -10.002309 2.965061 -11.18034 0 -11.18034 
C -2.965061 -11.18034 -5.80908 -10.002309 -7.905694 -7.905694 
C -10.002309 -5.80908 -11.18034 -2.965061 -11.18034 0 
C -11.18034 2.965061 -10.002309 5.80908 -7.905694 7.905694 
C -5.80908 10.002309 -2.965061 11.18034 0 11.18034 
z
" style="stroke: #1a1a1a"/>
    </defs>
    <g clip-path="url(#p100e4a6189)">
     <use xlink:href="#m74b03381a8" x="129.561084" y="148.059179" style="fill: #1a1a1a; stroke: #1a1a1a"/>
    </g>
   </g>
   <g id="line2d_3">
    <path d="M 103.663125 854.806875 
L 103.663125 850.745107 
L 104.214145 850.745107 
L 104.214145 826.374496 
L 104.765166 826.374496 
L 104.765166 816.220075 
L 105.316186 816.220075 
L 105.316186 795.911234 
L 105.867207 795.911234 
L 105.867207 794.895792 
L 106.418227 794.895792 
L 106.418227 793.880349 
L 106.969247 793.880349 
L 106.969247 787.787697 
L 108.071288 787.787697 
L 108.071288 786.772255 
L 108.622309 786.772255 
L 108.622309 773.571508 
L 109.173329 773.571508 
L 109.173329 765.447971 
L 109.724349 765.447971 
L 109.724349 755.29355 
L 110.82639 755.29355 
L 110.82639 748.185455 
L 111.377411 748.185455 
L 111.377411 726.861171 
L 111.928431 726.861171 
L 111.928431 717.722193 
L 112.479452 717.722193 
L 112.479452 705.536887 
L 113.030472 705.536887 
L 113.030472 675.073625 
L 113.581492 675.073625 
L 113.581492 639.533151 
L 114.132513 639.533151 
L 114.132513 624.30152 
L 114.683533 624.30152 
L 114.683533 623.286078 
L 115.234554 623.286078 
L 115.234554 615.162541 
L 115.785574 615.162541 
L 115.785574 599.93091 
L 116.336594 599.93091 
L 116.336594 598.915468 
L 116.887615 598.915468 
L 116.887615 597.900026 
L 117.438635 597.900026 
L 117.438635 584.699278 
L 117.989656 584.699278 
L 117.989656 545.097037 
L 119.091696 545.097037 
L 119.091696 537.988942 
L 119.642717 537.988942 
L 119.642717 533.927174 
L 120.744758 533.927174 
L 120.744758 504.479353 
L 121.295778 504.479353 
L 121.295778 495.340374 
L 121.846798 495.340374 
L 121.846798 492.294048 
L 122.397819 492.294048 
L 122.397819 469.954322 
L 122.948839 469.954322 
L 122.948839 463.86167 
L 123.49986 463.86167 
L 123.49986 458.784459 
L 125.152921 458.784459 
L 125.152921 448.630038 
L 125.703941 448.630038 
L 125.703941 446.599154 
L 126.254962 446.599154 
L 126.254962 430.35208 
L 126.805982 430.35208 
L 126.805982 426.290312 
L 127.357003 426.290312 
L 127.357003 424.259428 
L 127.908023 424.259428 
L 127.908023 416.135891 
L 128.459043 416.135891 
L 128.459043 411.058681 
L 129.010064 411.058681 
L 129.010064 409.027797 
L 129.561084 409.027797 
L 129.561084 408.012354 
L 130.112105 408.012354 
L 130.112105 380.595418 
L 130.663125 380.595418 
L 130.663125 376.53365 
L 131.214145 376.53365 
L 131.214145 373.487323 
L 132.316186 373.487323 
L 132.316186 342.008618 
L 132.867207 342.008618 
L 132.867207 336.931408 
L 133.418227 336.931408 
L 133.418227 331.854198 
L 134.520268 331.854198 
L 134.520268 321.699777 
L 135.071288 321.699777 
L 135.071288 313.57624 
L 135.622309 313.57624 
L 135.622309 308.499029 
L 136.173329 308.499029 
L 136.173329 306.468145 
L 137.27537 306.468145 
L 137.27537 304.437261 
L 137.82639 304.437261 
L 137.82639 302.406377 
L 139.479452 302.406377 
L 139.479452 288.190188 
L 140.030472 288.190188 
L 140.030472 284.128419 
L 140.581492 284.128419 
L 140.581492 276.004882 
L 141.132513 276.004882 
L 141.132513 274.98944 
L 141.683533 274.98944 
L 141.683533 272.958556 
L 142.234554 272.958556 
L 142.234554 266.865904 
L 142.785574 266.865904 
L 142.785574 265.850462 
L 143.336594 265.850462 
L 143.336594 262.804135 
L 144.438635 262.804135 
L 144.438635 255.696041 
L 144.989656 255.696041 
L 144.989656 251.634272 
L 146.091696 251.634272 
L 146.091696 249.603388 
L 146.642717 249.603388 
L 146.642717 246.557062 
L 147.744758 246.557062 
L 147.744758 244.526178 
L 148.295778 244.526178 
L 148.295778 239.448967 
L 149.397819 239.448967 
L 149.397819 238.433525 
L 149.948839 238.433525 
L 149.948839 237.418083 
L 150.49986 237.418083 
L 150.49986 236.402641 
L 152.703941 236.402641 
L 152.703941 235.387199 
L 154.357003 235.387199 
L 154.357003 233.356315 
L 154.908023 233.356315 
L 154.908023 232.340873 
L 156.010064 232.340873 
L 156.010064 231.32543 
L 156.561084 231.32543 
L 156.561084 230.309988 
L 157.112105 230.309988 
L 157.112105 229.294546 
L 158.214145 229.294546 
L 158.214145 228.279104 
L 158.765166 228.279104 
L 158.765166 227.263662 
L 159.316186 227.263662 
L 159.316186 224.217336 
L 159.867207 224.217336 
L 159.867207 221.171009 
L 160.418227 221.171009 
L 160.418227 218.124683 
L 160.969247 218.124683 
L 160.969247 217.109241 
L 162.071288 217.109241 
L 162.071288 214.062915 
L 162.622309 214.062915 
L 162.622309 211.016589 
L 163.724349 211.016589 
L 163.724349 210.001146 
L 164.27537 210.001146 
L 164.27537 208.985704 
L 167.030472 208.985704 
L 167.030472 207.970262 
L 167.581492 207.970262 
L 167.581492 206.95482 
L 168.132513 206.95482 
L 168.132513 204.923936 
L 168.683533 204.923936 
L 168.683533 201.87761 
L 172.540676 201.87761 
L 172.540676 199.846726 
L 174.193737 199.846726 
L 174.193737 197.815841 
L 175.295778 197.815841 
L 175.295778 196.800399 
L 175.846798 196.800399 
L 175.846798 194.769515 
L 178.601901 194.769515 
L 178.601901 193.754073 
L 180.254962 193.754073 
L 180.254962 192.738631 
L 181.357003 192.738631 
L 181.357003 190.707747 
L 181.908023 190.707747 
L 181.908023 189.692305 
L 182.459043 189.692305 
L 182.459043 186.645978 
L 183.010064 186.645978 
L 183.010064 185.630536 
L 189.071288 185.630536 
L 189.071288 183.599652 
L 190.173329 183.599652 
L 190.173329 182.58421 
L 191.27537 182.58421 
L 191.27537 181.568768 
L 194.030472 181.568768 
L 194.030472 180.553326 
L 195.683533 180.553326 
L 195.683533 179.537884 
L 196.785574 179.537884 
L 196.785574 178.522442 
L 197.336594 178.522442 
L 197.336594 177.507 
L 197.887615 177.507 
L 197.887615 176.491557 
L 198.989656 176.491557 
L 198.989656 175.476115 
L 199.540676 175.476115 
L 199.540676 174.460673 
L 201.193737 174.460673 
L 201.193737 172.429789 
L 203.397819 172.429789 
L 203.397819 170.398905 
L 205.05088 170.398905 
L 205.05088 169.383463 
L 206.703941 169.383463 
L 206.703941 168.368021 
L 208.357003 168.368021 
L 208.357003 167.352579 
L 210.561084 167.352579 
L 210.561084 166.337137 
L 212.214145 166.337137 
L 212.214145 165.321694 
L 212.765166 165.321694 
L 212.765166 164.306252 
L 217.173329 164.306252 
L 217.173329 163.29081 
L 218.27537 163.29081 
L 218.27537 162.275368 
L 224.887615 162.275368 
L 224.887615 161.259926 
L 231.49986 161.259926 
L 231.49986 160.244484 
L 233.152921 160.244484 
L 233.152921 159.229042 
L 233.703941 159.229042 
L 233.703941 157.198158 
L 237.561084 157.198158 
L 237.561084 156.182716 
L 241.418227 156.182716 
L 241.418227 155.167274 
L 243.622309 155.167274 
L 243.622309 154.151831 
L 244.724349 154.151831 
L 244.724349 153.136389 
L 246.377411 153.136389 
L 246.377411 152.120947 
L 250.785574 152.120947 
L 250.785574 151.105505 
L 254.642717 151.105505 
L 254.642717 149.074621 
L 263.459043 149.074621 
L 263.459043 148.059179 
L 264.010064 148.059179 
L 264.010064 147.043737 
L 265.112105 147.043737 
L 265.112105 146.028295 
L 268.418227 146.028295 
L 268.418227 145.012853 
L 277.785574 145.012853 
L 277.785574 143.99741 
L 279.438635 143.99741 
L 279.438635 141.966526 
L 281.642717 141.966526 
L 281.642717 140.951084 
L 288.254962 140.951084 
L 288.254962 139.935642 
L 292.112105 139.935642 
L 292.112105 137.904758 
L 295.418227 137.904758 
L 295.418227 136.889316 
L 301.479452 136.889316 
L 301.479452 135.873874 
L 306.989656 135.873874 
L 306.989656 134.858432 
L 307.540676 134.858432 
L 307.540676 133.84299 
L 311.397819 133.84299 
L 311.397819 132.827547 
L 316.357003 132.827547 
L 316.357003 131.812105 
L 323.520268 131.812105 
L 323.520268 130.796663 
L 333.438635 130.796663 
L 333.438635 129.781221 
L 343.357003 129.781221 
L 343.357003 128.765779 
L 343.908023 128.765779 
L 343.908023 127.750337 
L 351.071288 127.750337 
L 351.071288 126.734895 
L 365.397819 126.734895 
L 365.397819 125.719453 
L 371.459043 125.719453 
L 371.459043 124.704011 
L 374.765166 124.704011 
L 374.765166 122.673127 
L 375.316186 122.673127 
L 375.316186 121.657684 
L 378.071288 121.657684 
L 378.071288 119.6268 
L 378.622309 119.6268 
L 378.622309 118.611358 
L 379.724349 118.611358 
L 379.724349 117.595916 
L 380.82639 117.595916 
L 380.82639 116.580474 
L 384.683533 116.580474 
L 384.683533 115.565032 
L 390.193737 115.565032 
L 390.193737 114.54959 
L 391.295778 114.54959 
L 391.295778 113.534148 
L 394.05088 113.534148 
L 394.05088 112.518706 
L 399.561084 112.518706 
L 399.561084 111.503264 
L 400.663125 111.503264 
L 400.663125 110.487821 
L 423.254962 110.487821 
L 423.254962 109.472379 
L 426.010064 109.472379 
L 426.010064 108.456937 
L 447.49986 108.456937 
L 447.49986 107.441495 
L 460.173329 107.441495 
L 460.173329 106.426053 
L 473.397819 106.426053 
L 473.397819 105.410611 
L 475.601901 105.410611 
L 475.601901 104.395169 
L 478.357003 104.395169 
L 478.357003 103.379727 
L 494.336594 103.379727 
L 494.336594 102.364285 
L 507.010064 102.364285 
L 507.010064 101.348843 
L 515.27537 101.348843 
L 515.27537 100.333401 
L 521.336594 100.333401 
L 521.336594 99.317958 
L 529.601901 99.317958 
L 529.601901 98.302516 
L 537.867207 98.302516 
L 537.867207 97.287074 
L 545.581492 97.287074 
L 545.581492 96.271632 
L 547.785574 96.271632 
L 547.785574 95.25619 
L 548.336594 95.25619 
L 548.336594 94.240748 
L 556.05088 94.240748 
L 556.05088 93.225306 
L 567.622309 93.225306 
L 567.622309 91.194422 
L 572.030472 91.194422 
L 572.030472 90.17898 
L 580.295778 90.17898 
L 580.295778 89.163538 
L 586.908023 89.163538 
L 586.908023 88.148095 
L 606.193737 88.148095 
L 606.193737 87.132653 
L 607.846798 87.132653 
L 607.846798 86.117211 
L 618.316186 86.117211 
L 618.316186 85.101769 
L 638.703941 85.101769 
L 638.703941 84.086327 
L 642.010064 84.086327 
L 642.010064 83.070885 
L 655.234554 83.070885 
L 655.234554 82.055443 
L 661.846798 82.055443 
L 661.846798 81.040001 
L 662.948839 81.040001 
L 662.948839 79.009117 
L 669.561084 79.009117 
L 669.561084 77.993675 
L 671.214145 77.993675 
L 671.214145 76.978232 
L 672.867207 76.978232 
L 672.867207 74.947348 
L 682.234554 74.947348 
L 682.234554 73.931906 
L 689.397819 73.931906 
L 689.397819 72.916464 
L 695.459043 72.916464 
L 695.459043 71.901022 
L 702.622309 71.901022 
L 702.622309 70.88558 
L 711.989656 70.88558 
L 711.989656 69.870138 
L 712.540676 69.870138 
L 712.540676 67.839254 
L 716.397819 67.839254 
L 716.397819 66.823811 
L 718.601901 66.823811 
L 718.601901 65.808369 
L 719.703941 65.808369 
L 719.703941 64.792927 
L 721.357003 64.792927 
L 721.357003 63.777485 
L 721.908023 63.777485 
L 721.908023 61.746601 
L 730.724349 61.746601 
L 730.724349 60.731159 
L 745.601901 60.731159 
L 745.601901 59.715717 
L 754.418227 59.715717 
L 754.418227 58.700275 
L 761.030472 58.700275 
L 761.030472 57.684833 
L 761.581492 57.684833 
L 761.581492 56.669391 
L 763.785574 56.669391 
L 763.785574 55.653948 
L 764.887615 55.653948 
L 764.887615 54.638506 
L 777.561084 54.638506 
L 777.561084 53.623064 
L 784.173329 53.623064 
L 784.173329 52.607622 
L 788.030472 52.607622 
L 788.030472 51.59218 
L 789.683533 51.59218 
L 789.683533 50.576738 
L 796.846798 50.576738 
L 796.846798 48.545854 
L 801.805982 48.545854 
L 801.805982 47.530412 
L 805.112105 47.530412 
L 805.112105 46.51497 
L 809.520268 46.51497 
L 809.520268 45.499528 
L 819.438635 45.499528 
L 819.438635 44.484085 
L 842.581492 44.484085 
L 842.581492 43.468643 
L 855.254962 43.468643 
L 855.254962 42.453201 
L 894.928431 42.453201 
L 894.928431 41.437759 
L 907.05088 41.437759 
L 907.05088 40.422317 
L 933.49986 40.422317 
L 933.49986 39.406875 
L 940.663125 39.406875 
L 940.663125 39.406875 
" clip-path="url(#p100e4a6189)" style="fill: none; stroke: #1f988b; stroke-width: 7; stroke-linecap: round"/>
   </g>
   <g id="PathCollection_2">
    <g clip-path="url(#p100e4a6189)">
     <use xlink:href="#m74b03381a8" x="143.336594" y="262.804135" style="fill: #1a1a1a; stroke: #1a1a1a"/>
    </g>
   </g>
   <g id="PathCollection_3">
    <g clip-path="url(#p100e4a6189)">
     <use xlink:href="#m74b03381a8" x="157.663125" y="262.804135" style="fill: #1a1a1a; stroke: #1a1a1a"/>
    </g>
   </g>
   <g id="patch_3">
    <path d="M 103.663125 854.806875 
L 103.663125 39.406875 
" style="fill: none; stroke: #262626; stroke-width: 1.25; stroke-linejoin: miter; stroke-linecap: square"/>
   </g>
   <g id="patch_4">
    <path d="M 940.663125 854.806875 
L 940.663125 39.406875 
" style="fill: none; stroke: #262626; stroke-width: 1.25; stroke-linejoin: miter; stroke-linecap: square"/>
   </g>
   <g id="patch_5">
    <path d="M 103.663125 854.806875 
L 940.663125 854.806875 
" style="fill: none; stroke: #262626; stroke-width: 1.25; stroke-linejoin: miter; stroke-linecap: square"/>
   </g>
   <g id="patch_6">
    <path d="M 103.663125 39.406875 
L 940.663125 39.406875 
" style="fill: none; stroke: #262626; stroke-width: 1.25; stroke-linejoin: miter; stroke-linecap: square"/>
   </g>
   <g id="text_15">
    <text style="fill: #262626; font: 36px 'sans-serif'; text-anchor: middle" x="522.163125" y="33.406875" transform="rotate(-0 522.163125 33.406875)">All Cells | | class_weight: None</text>
   </g>
   <g id="legend_1">
    <g id="patch_7">
     <path d="M 45.163125 1120.565625 
L 853.66125 1120.565625 
Q 860.86125 1120.565625 860.86125 1113.365625 
L 860.86125 961.546875 
Q 860.86125 954.346875 853.66125 954.346875 
L 45.163125 954.346875 
Q 37.963125 954.346875 37.963125 961.546875 
L 37.963125 1113.365625 
Q 37.963125 1120.565625 45.163125 1120.565625 
z
" style="fill: #ffffff; opacity: 0.8; stroke: #cccccc; stroke-linejoin: miter"/>
    </g>
    <g id="line2d_4">
     <path d="M 52.363125 982.37625 
L 88.363125 982.37625 
L 124.363125 982.37625 
" style="fill: none; stroke: #fde725; stroke-width: 7; stroke-linecap: round"/>
    </g>
    <g id="text_16">
     <text style="fill: #262626; font: 36px 'sans-serif'; text-anchor: start" x="153.163125" y="994.97625" transform="rotate(-0 153.163125 994.97625)">Random Forest (ROC AUC = 0.98)</text>
    </g>
    <g id="line2d_5">
     <path d="M 52.363125 1034.1825 
L 88.363125 1034.1825 
L 124.363125 1034.1825 
" style="fill: none; stroke: #1f988b; stroke-width: 7; stroke-linecap: round"/>
    </g>
    <g id="text_17">
     <text style="fill: #262626; font: 36px 'sans-serif'; text-anchor: start" x="153.163125" y="1046.7825" transform="rotate(-0 153.163125 1046.7825)">Logistic Regression (ROC AUC = 0.90)</text>
    </g>
    <g id="line2d_6">
     <path d="M 52.363125 1085.98875 
L 88.363125 1085.98875 
L 124.363125 1085.98875 
" style="fill: none; stroke: #440154; stroke-width: 7; stroke-linecap: round"/>
    </g>
    <g id="text_18">
     <text style="fill: #262626; font: 36px 'sans-serif'; text-anchor: start" x="153.163125" y="1098.58875" transform="rotate(-0 153.163125 1098.58875)">Support Vector Machine (ROC AUC = 0.92)</text>
    </g>
   </g>
  </g>
 </g>
 <defs>
  <clipPath id="p100e4a6189">
   <rect x="103.663125" y="39.406875" width="837" height="815.4"/>
  </clipPath>
 </defs>
</svg>
